<?xml version="1.0" standalone="no"?>
<!DOCTYPE svg PUBLIC "-//W3C//DTD SVG 1.1//EN" "http://www.w3.org/Graphics/SVG/1.1/DTD/svg11.dtd" >
<svg xmlns="http://www.w3.org/2000/svg" xmlns:xlink="http://www.w3.org/1999/xlink" version="1.1">
<metadata>
Created by FontForge 20170731 at Wed Apr 19 06:07:51 2023
 By Aleksey,,,
Graphicfresh Corporation
</metadata>
<defs>
<font id="AlmondeRegular" horiz-adv-x="1120" >
  <font-face 
    font-family="Almonde"
    font-weight="400"
    font-stretch="normal"
    units-per-em="2048"
    panose-1="0 0 0 0 0 0 0 0 0 0"
    ascent="1638"
    descent="-410"
    x-height="875"
    cap-height="1539"
    bbox="-1067.35 -637.657 2189 2177"
    underline-thickness="102"
    underline-position="-307"
    unicode-range="U+000A-E96F"
  />
<missing-glyph horiz-adv-x="1079" 
d="M205 1434h874v-1434h-874v1434zM262 1393l379 -633l381 633h-760zM616 717l-368 614v-1231zM643 674l-379 -631h758zM668 717l370 -621v1239z" />
    <glyph glyph-name=".notdef" horiz-adv-x="1079" 
d="M205 1434h874v-1434h-874v1434zM262 1393l379 -633l381 633h-760zM616 717l-368 614v-1231zM643 674l-379 -631h758zM668 717l370 -621v1239z" />
    <glyph glyph-name=".null" horiz-adv-x="0" 
 />
    <glyph glyph-name=".null" horiz-adv-x="0" 
 />
    <glyph glyph-name="nonmarkingreturn" unicode="&#xa;" horiz-adv-x="0" 
 />
    <glyph glyph-name="space" unicode=" " horiz-adv-x="645" 
 />
    <glyph glyph-name="exclam" unicode="!" horiz-adv-x="718" 
d="M764 1456q91 94 125 88q20 -3 30 -11t10.5 -27.5t-8 -47.5t-30 -76.5t-52 -108t-77.5 -147.5q-186 -349 -248 -495q-76 -175 -112 -192q-24 -9 -46 32q-23 43 47 213t218 430q46 83 59.5 123t7.5 72q-6 35 7.5 61t68.5 86zM311 184q27 9 49 9q28 0 40 -18t0 -45.5
t-46 -51.5q-54 -43 -75 -90q-19 -38 -47.5 -53t-47.5 4q-20 18 -14 54t24.5 73t51 71t65.5 47z" />
    <glyph glyph-name="quotedbl" unicode="&#x22;" horiz-adv-x="548" 
d="M612 1516q11 42 21 54t33 11h14q82 -9 45 -110q-26 -71 -109 -175q-58 -71 -108 -79q-39 -1 -41 40q0 15 18.5 49t44.5 64q26 31 50 74t32 72zM358 1518q20 47 60 47q39 -3 45 -56q3 -32 -40 -111.5t-97 -146.5t-78 -67q-15 0 -30 8t-19 18q-4 12 14 53.5t49 88.5
q75 115 96 166z" />
    <glyph glyph-name="quotedbl" unicode="&#x201d;" horiz-adv-x="548" 
d="M612 1516q11 42 21 54t33 11h14q82 -9 45 -110q-26 -71 -109 -175q-58 -71 -108 -79q-39 -1 -41 40q0 15 18.5 49t44.5 64q26 31 50 74t32 72zM358 1518q20 47 60 47q39 -3 45 -56q3 -32 -40 -111.5t-97 -146.5t-78 -67q-15 0 -30 8t-19 18q-4 12 14 53.5t49 88.5
q75 115 96 166z" />
    <glyph glyph-name="quotedbl" unicode="&#x201c;" horiz-adv-x="548" 
d="M612 1516q11 42 21 54t33 11h14q82 -9 45 -110q-26 -71 -109 -175q-58 -71 -108 -79q-39 -1 -41 40q0 15 18.5 49t44.5 64q26 31 50 74t32 72zM358 1518q20 47 60 47q39 -3 45 -56q3 -32 -40 -111.5t-97 -146.5t-78 -67q-15 0 -30 8t-19 18q-4 12 14 53.5t49 88.5
q75 115 96 166z" />
    <glyph glyph-name="numbersign" unicode="#" horiz-adv-x="1402" 
d="M1274 1245q148 240 205.5 316.5t89.5 76.5q121 0 -56 -247q-46 -63 -122 -186t-76 -134q2 -3 17 -2.5t44 5t62 11.5q4 1 10 2q90 18 125.5 49t158.5 200q3 4 4.5 6.5t4.5 6t5.5 7t4.5 6.5q83 114 124.5 139t76.5 -16q21 -27 0 -64q-7 -14 -17.5 -25.5t-15.5 -11.5
q-6 0 -40 -42t-71 -97q-98 -137 -77 -158q37 -35 15.5 -80.5t-106.5 -109.5l-112 -86l55 -6q47 -5 64 -33t-5 -54t-69 -26q-33 0 -50.5 -1t-40 -13.5t-34.5 -25.5t-37 -53.5t-45 -80t-61 -121.5q-136 -275 -136 -331q0 -53 -25 -79t-69 -20q-28 3 -35 18t-6 66q3 78 123 324
q121 240 121 254q0 4 -45.5 -10t-103.5 -35.5t-91 -36.5q-27 -13 -63 -68t-101 -182q-76 -151 -89.5 -193t8.5 -51q29 -17 29.5 -42.5t-27.5 -53.5t-71 -28t-65 26q-30 38 -3.5 135t114.5 275q100 204 143 272q48 75 80 133l49 86l-47 -18q-77 -29 -96 -45.5t-2 -38.5
q14 -17 13 -28.5t-19 -29.5q-26 -26 -84.5 -13.5t-81.5 50.5q-31 47 32.5 101t227.5 120l150 62zM1487 967l-72 -11q-88 -12 -130.5 -25.5t-69 -38t-54.5 -75.5l-51 -94l131 72q125 68 189 120z" />
    <glyph glyph-name="dollar" unicode="$" horiz-adv-x="1462" 
d="M1329 1792q1 0 19 -6q39 -16 26 -69t-84 -169q-38 -61 -62.5 -103.5t-21.5 -43.5q3 -6 101 12q105 20 175.5 -3.5t98.5 -88.5q20 -48 6 -94t-76 -137q-35 -54 -57.5 -74t-44.5 -17q-43 6 -41.5 44.5t47.5 101.5q23 30 39 64.5t16 52.5q0 29 -12.5 36t-64.5 7
q-34 0 -90.5 -11t-100.5 -28l-112 -37l-119 -195l-119 -194l66 -13q75 -18 108.5 -41t54.5 -75q57 -137 -70.5 -275t-398.5 -233q-58 -21 -81 -29.5t-40.5 -22.5t-19.5 -25t-4 -38q-6 -60 -35 -71.5t-61 34.5q-29 42 -29 64q0 9 -15.5 18t-37.5 14q-38 9 -69.5 37.5t-46 61
t-10 64t31.5 46.5q23 12 36.5 6t38.5 -40q87 -122 158 22q36 78 129 238l92 159l-51 25q-73 38 -76 117t66 161q47 55 174.5 143t200.5 116q48 17 176 223q116 185 144 225.5t46 40.5zM862 1102h-6q-23 -2 -101.5 -67t-97.5 -99q-18 -35 -15.5 -45.5t32.5 -22.5
q27 -10 46.5 7t72.5 98q73 121 69 129zM782 725l-71 -125q-141 -240 -136 -271q2 -7 9 -7q25 0 168 77q145 80 186 140q54 79 35 116.5t-125 57.5z" />
    <glyph glyph-name="percent" unicode="%" horiz-adv-x="1345" 
d="M883 1722q93 17 143 17q180 0 180 -144q0 -79 -127.5 -274.5t-361.5 -474.5q-656 -777 -742 -914q-65 -99 -111 -96q-23 1 -34 29q-5 14 -6 27.5t5.5 34t18.5 42.5t38 60t58 79.5t85 107t112 136.5t146 174q449 535 605 743t179 302q9 35 1.5 42t-56.5 7
q-61 0 -174.5 -28t-171.5 -58q-88 -44 -134 -109q-38 -54 -8 -72q9 -5 25 -5q33 0 46.5 -28t-9.5 -50q-21 -25 -21 -51q0 -37 -53 -73t-100 -32q-34 3 -46 14t-16 43q-3 21 4 45.5t19 38.5q30 30 18 86q-21 105 113 224q122 109 375 157zM461 350q71 71 108 97.5t60 23.5
q24 -4 38 -25t10 -43.5t-26 -31.5q-13 -5 -16 -9.5t2 -12t22 -23.5q119 -110 -133 -228q-84 -39 -118 -40.5t-66 32.5q-37 43 -11 99.5t130 160.5z" />
    <glyph glyph-name="ampersand" unicode="&#x26;" horiz-adv-x="1589" 
d="M1401 1618q48 0 86 -23q90 -61 9 -195.5t-361 -393.5q-232 -211 -244 -234q-8 -17 35 -107.5t84 -142.5l43 -51l98 39q104 38 240 104q157 74 188 41q10 -12 10 -34q0 -32 -86.5 -86t-230.5 -111l-123 -49l139 -127q77 -71 107 -108.5t26 -57.5q-11 -58 -68 -31
q-53 26 -169 133l-158 148l-197 -66q-292 -95 -421.5 -114t-171.5 28q-12 12 -21.5 30.5t-9.5 29.5q0 44 85 145t240 240l218 196l6 131q9 132 55 236q49 107 155.5 208t226 161.5t210.5 60.5zM1374 1493q-51 0 -164 -67t-176 -134q-128 -137 -166 -307l-12 -63l88 73
q93 78 254 246q187 192 197 233q2 18 -21 19zM770 666q-17 0 -218.5 -188.5t-201.5 -203.5q0 -26 387 93q72 21 125 42t53 27q0 20 -66.5 125t-78.5 105z" />
    <glyph glyph-name="quotesingle" unicode="'" horiz-adv-x="417" 
d="M205 1262q0 34 35 98q15 24 27.5 58.5t13.5 60.5q5 40 15 51t48 14q77 8 73 -60q-4 -65 -81 -188q-44 -68 -89 -78q-36 -9 -41 33q-1 5 -1 11z" />
    <glyph glyph-name="quotesingle" unicode="&#x2019;" horiz-adv-x="417" 
d="M205 1262q0 34 35 98q15 24 27.5 58.5t13.5 60.5q5 40 15 51t48 14q77 8 73 -60q-4 -65 -81 -188q-44 -68 -89 -78q-36 -9 -41 33q-1 5 -1 11z" />
    <glyph glyph-name="quotesingle" unicode="&#x2018;" horiz-adv-x="417" 
d="M205 1262q0 34 35 98q15 24 27.5 58.5t13.5 60.5q5 40 15 51t48 14q77 8 73 -60q-4 -65 -81 -188q-44 -68 -89 -78q-36 -9 -41 33q-1 5 -1 11z" />
    <glyph glyph-name="parenleft" unicode="(" horiz-adv-x="884" 
d="M250 -592q-29 29 -37 60t-8 118q0 334 336 1043q97 204 231 428t253 383.5t173 183.5q44 20 71 5.5t27 -58.5q0 -43 -19.5 -69.5t-51.5 -26.5q-49 0 -260 -328q-211 -324 -401 -763.5t-234 -705.5q-15 -88 -14 -120t24 -72q21 -40 22.5 -71t-12.5 -43t-41.5 -4t-58.5 40z
" />
    <glyph glyph-name="parenright" unicode=")" horiz-adv-x="876" 
d="M-565 -573q-36 41 37 96q59 43 319.5 490t489.5 900q152 300 189 396t15 131q-14 22 -8 49t25 45.5t43.5 27t48.5 -7.5q31 -19 36 -59t-18.5 -120t-74.5 -195.5t-140 -296.5q-231 -469 -468 -882.5t-332 -514.5q-66 -68 -100 -80.5t-62 21.5z" />
    <glyph glyph-name="asterisk" unicode="*" horiz-adv-x="612" 
d="M545 1282q-34 31 -51.5 45t-33.5 16.5t-26 -7t-26 -33.5q-20 -31 -46 -41.5t-44.5 0t-26.5 33.5t8 59q12 26 6 35.5t-43 21.5q-33 10 -45 23.5t-12 40.5q0 31 11.5 37.5t62.5 3.5l71 -5l-6 97q-5 78 16 112t62 17q29 -12 29 -90q0 -80 10 -80q6 0 28 15.5t46 37.5
q80 71 148 72q54 -6 58 -52q0 -39 -65 -65q-58 -24 -56 -36q3 -15 79 9l6 2q64 19 90 5t12 -58q-9 -29 -61.5 -53.5t-106.5 -24.5q-39 0 -40 -9q2 -10 42 -52q35 -33 47 -84q9 -35 -8 -35q-7 0 -35 -12q-28 -10 -100 55z" />
    <glyph glyph-name="plus" unicode="+" horiz-adv-x="1200" 
d="M793 268q-36 36 43 203l53 115l-60 -13q-59 -14 -108 -38q-60 -31 -91.5 -18t-31.5 67q0 20 64.5 48.5t166.5 55.5q87 23 110.5 39t51.5 72q31 66 64.5 97t62.5 19q26 -9 25 -54.5t-29 -86.5l-29 -45h95q92 0 104 -29q15 -40 -21.5 -61t-121.5 -21h-109l-51 -112
q-63 -136 -80 -182q-21 -48 -52 -65t-56 9z" />
    <glyph glyph-name="comma" unicode="," horiz-adv-x="552" 
d="M371 -127q-67 -72 -92.5 -84t-51.5 14q-22 22 -22 37q0 10 108 142q111 127 111 151q0 32 24.5 50.5t55 14t45.5 -31.5q17 -31 -30 -108.5t-148 -184.5z" />
    <glyph glyph-name="hyphen" unicode="-" horiz-adv-x="1228" 
d="M465 514q-64 64 54 113q70 29 210 57q408 84 494 14q25 -20 18 -53q-3 -20 -35 -26t-143 -9q-147 -3 -304.5 -33.5t-174.5 -58.5q-12 -25 -54 -26t-65 22z" />
    <glyph glyph-name="period" unicode="." horiz-adv-x="401" 
d="M215 76q-23 23 -20.5 42.5t36.5 65.5q31 44 66.5 50.5t67.5 -25.5q29 -29 26 -50t-43 -59q-37 -37 -72 -43t-61 19z" />
    <glyph glyph-name="slash" unicode="/" horiz-adv-x="1083" 
d="M-174 -152q-21 21 1 75.5t100 161.5t212.5 266t345.5 397q476 533 535 524q17 -3 30.5 -14t16.5 -23q6 -32 -46 -108t-89 -91q-32 -12 -247 -249t-443 -508.5t-295 -372.5q-33 -48 -65 -63.5t-56 5.5z" />
    <glyph glyph-name="zero" unicode="0" horiz-adv-x="1054" 
d="M-268 51q-30 23 -38.5 47t-8.5 86q0 128 88 317.5t284 485.5q219 330 386 508t223 143q32 -20 34.5 -57t-22.5 -104q-52 -130 -111 -68q-19 19 -27.5 19t-23.5 -19q-406 -505 -604 -913q-83 -168 -105.5 -252t11.5 -97q46 -17 162 63t248 216t218 268q78 121 194.5 347.5
t129.5 285.5q6 31 0.5 40.5t-33.5 12.5q-29 4 -40.5 20.5t-3 38.5t35.5 40q46 29 93 18t67 -55q30 -66 -49.5 -270.5t-223.5 -440.5t-284 -387q-130 -139 -280.5 -235.5t-239.5 -96.5q-13 0 -37 11.5t-43 27.5z" />
    <glyph glyph-name="one" unicode="1" horiz-adv-x="714" 
d="M-139 -2q-28 66 10 190.5t160 366.5q178 356 538 872q14 20 2 15q-15 -6 -65 -41q-20 -15 -86 -61.5t-92 -65.5q-86 -60 -86 -103q0 -74 -82 -53q-41 11 -53 49t14 78q20 31 164.5 138t361.5 253q162 108 205 83q18 -10 22 -44q3 -24 -29.5 -79t-113.5 -166
q-333 -446 -551.5 -849t-208.5 -552q4 -51 -2.5 -63t-38.5 -17q-29 -3 -42 6.5t-27 42.5z" />
    <glyph glyph-name="two" unicode="2" horiz-adv-x="1409" 
d="M-508 92q-34 41 62 133.5t493 399.5q337 261 520 405.5t298.5 239.5t146.5 128t22 42q-13 15 -148 -11.5t-284 -72.5q-185 -59 -310.5 -121.5t-129.5 -99.5q-4 -27 -29 -40t-53.5 -5.5t-42.5 32.5q-32 62 65 135t332 164q256 99 463.5 128.5t257.5 -25.5q43 -47 17 -104
q-36 -80 -246 -258q-179 -152 -660 -523l-397 -305l106 -55q88 -44 177.5 -53.5t240.5 10.5q70 11 93 8.5t30 -21.5q22 -56 -74 -91q-111 -41 -281 -27q-119 10 -210 47l-121 47l-123 -66q-98 -55 -143.5 -63.5t-71.5 22.5z" />
    <glyph glyph-name="three" unicode="3" horiz-adv-x="1103" 
d="M-530 29q-28 31 -13 57q13 26 326 203q266 150 426 257t160 136q0 22 -47 33t-213 30q-133 15 -173 34.5t-40 68.5q0 42 69 91.5t285 160.5q538 280 538 366q0 28 -71.5 33t-172.5 -12.5t-177 -50.5q-63 -28 -75.5 -43.5t-12.5 -67.5q0 -47 -6.5 -57.5t-34.5 -7.5
q-42 7 -66 59q-17 35 -17 52t17 48q46 82 183.5 136t306.5 55q117 1 176 -20.5t71 -71.5q26 -104 -101.5 -218t-471.5 -294q-64 -34 -117.5 -65t-83 -50.5t-26.5 -22.5q12 -12 81 -12q152 0 243.5 -52.5t72.5 -129.5q-10 -44 -71.5 -107.5t-155.5 -128.5
q-87 -59 -418 -248.5t-348 -189.5q-14 0 -43 29z" />
    <glyph glyph-name="four" unicode="4" horiz-adv-x="1185" 
d="M-23 -354q-11 26 -7 58.5t26 92.5q25 70 166 334t235 416q52 77 47 86q-3 2 -249 -62q-208 -57 -295 -75q-44 -7 -74.5 14t-30.5 59q0 26 255.5 292t521 521.5t290.5 255.5q32 0 48 -25.5t1 -51.5q-38 -66 -110.5 -149t-91.5 -83q-22 0 -144 -119t-413 -422l-125 -131
l178 45q79 20 126 34.5t98 39.5t82 48.5t77 71.5t85.5 99t104.5 140q75 102 105 129.5t59 23.5q49 -5 48 -38q-1 -51 -133 -230l-7 -10q-196 -265 -459 -724t-297 -595q-19 -75 -56.5 -90t-60.5 45z" />
    <glyph glyph-name="five" unicode="5" horiz-adv-x="1353" 
d="M666 1573q35 34 67.5 59t38.5 25q26 0 42.5 -33.5t8.5 -67.5q-9 -34 4 -39.5t95 -5.5q114 0 165.5 -28t51.5 -90q0 -42 -7.5 -53t-37.5 -11q-44 0 -66 39q-10 20 -22 26t-53 8t-119 -5l-175 -8l-84 -91q-19 -21 -132.5 -141.5t-182.5 -195.5q-62 -66 -115 -124.5
t-80.5 -92t-23.5 -33.5q13 0 100 26q106 31 235 44.5t189 0.5q107 -23 131 -116t-43 -230q-51 -106 -222 -272.5t-366.5 -306t-312.5 -174.5q-90 -26 -105 -26q-15 1 -55 21q-53 26 -53.5 89.5t51.5 132.5q44 61 146.5 127.5t208.5 103.5q79 26 158.5 31t101.5 -17
q17 -17 123.5 84.5t173.5 196.5q55 81 71 136.5t-7.5 83.5t-84.5 28q-63 0 -204.5 -32t-237.5 -69q-109 -41 -158.5 -43t-68.5 35q-8 15 -10 27.5t8 35t28.5 47t60 72t92.5 101.5t136 143q78 82 144.5 153.5t103.5 113t35 42.5q-8 8 -68 -18q-32 -14 -44.5 -29t-12.5 -43
q0 -41 -25 -54t-65 9q-39 19 -39 72q0 55 67 104.5t207 96.5q83 29 134 58.5t102 76.5zM80 37q-48 0 -135.5 -37.5t-164 -89.5t-97.5 -90q-17 -34 -5 -34q17 0 121 52q127 62 237 146q69 53 44 53z" />
    <glyph glyph-name="six" unicode="6" horiz-adv-x="1009" 
d="M584 1493q121 97 197.5 139.5t133.5 42.5q47 0 69 -26t11.5 -65t-51.5 -73q-17 -15 -31.5 -15t-40.5 15q-30 16 -50 11.5t-72 -39.5q-89 -61 -258.5 -234t-260.5 -295q-137 -186 -238.5 -408t-123.5 -382l-12 -86l161 160q69 65 158.5 139t147.5 112q150 97 233.5 110
t122.5 -56q20 -36 16 -58.5t-41 -93.5q-49 -92 -170 -227q-222 -238 -406.5 -323.5t-277.5 7.5q-44 43 -57.5 109t-1.5 180q32 323 269.5 704t572.5 652zM551 465q-3 3 -10 0q-56 -6 -264.5 -165t-266.5 -241q-19 -27 -30 -58t-9.5 -52t15.5 -21q15 0 104 56
q74 47 191.5 158t201 209.5t68.5 113.5z" />
    <glyph glyph-name="seven" unicode="7" horiz-adv-x="1171" 
d="M-242 -176q-21 47 -10 92q12 47 119.5 203t241.5 321q143 176 143 187q0 9 -28.5 -0.5t-59 -26.5t-35.5 -29q-13 -25 -38.5 -26t-51 23t-25.5 55q0 36 53.5 64t172.5 54l145 33l217 254q341 401 320 422q-9 8 -156.5 -21t-278.5 -65q-101 -28 -122.5 -40.5t-18.5 -43.5
q6 -55 -25.5 -67.5t-84.5 24.5q-60 43 -55.5 89.5t71.5 80.5q74 36 289 89.5t321 62.5q80 7 110 3.5t50 -22.5q56 -57 -6 -173.5t-289 -383.5l-145 -172l112 -16q137 -19 197.5 -41t60.5 -54q0 -25 -32 -29t-198 1h-15l-246 6l-146 -180q-243 -295 -339.5 -437.5
t-96.5 -205.5q0 -41 -8.5 -53.5t-42.5 -16.5q-28 -3 -43 5t-27 34z" />
    <glyph glyph-name="eight" unicode="8" horiz-adv-x="1112" 
d="M373 1503q200 108 358 115q113 3 148 -62q17 -35 15 -58t-30 -81q-15 -36 -58.5 -100t-90.5 -119q-70 -80 -91 -117t-18 -75q3 -52 -22.5 -82.5t-61.5 -18.5q-32 13 -88 -37l-55 -47l70 -80q66 -75 77.5 -146.5t-26.5 -166.5q-46 -115 -212 -281t-350 -288.5t-278 -122.5
q-41 0 -62 10.5t-38 38.5q-44 75 28 218.5t301 432.5q133 168 215 260q66 70 66 82q0 13 -64 88q-62 73 -74 159.5t23 171t117 165t201 141.5zM606 1272q132 152 141 187q4 21 -22 22q-25 0 -84 -15q-202 -53 -345.5 -171.5t-143.5 -233.5q0 -31 44 -97.5t66 -66.5
q16 0 107 76q37 30 64.5 60.5t27.5 41.5t43 69t102 128zM291 719l-80 -86q-137 -147 -335 -421.5t-198 -317.5q0 -16 11 -15q17 2 104 49q138 76 282.5 199.5t238.5 242.5t94 183q0 46 -60 106z" />
    <glyph glyph-name="nine" unicode="9" horiz-adv-x="1148" 
d="M594 1495q137 88 229 88q90 -3 90 -98q0 -26 5.5 -47.5t13.5 -26.5q46 -27 -35 -223q-99 -243 -305 -524t-473 -539q-174 -168 -265.5 -222t-156.5 -28q-24 9 -31.5 23t-3.5 43q3 30 16.5 41.5t53.5 19.5q69 10 136 63.5t255 247.5q379 389 547 697l69 129l-118 -111
q-239 -222 -378.5 -316t-230.5 -94q-30 0 -58.5 7t-37.5 16q-23 23 -20.5 78.5t28.5 109.5q54 115 271 330t399 336zM752 1409q11 13 17.5 23t8 15t-1.5 7q-9 3 -67 -27q-74 -38 -220 -164t-275.5 -261t-162.5 -197q-30 -57 -7 -57q28 0 161 94q124 86 316 270.5t192 216.5
q0 27 39 80z" />
    <glyph glyph-name="colon" unicode=":" horiz-adv-x="671" 
d="M801 905q55 0 61 -43t-34 -76q-37 -31 -66 -16q-11 6 -17 21q-11 26 -4 67q6 43 60 47zM659 434h9q47 -7 60.5 -39.5t-17.5 -64.5q-63 -73 -99 -6q-17 35 -1 71.5t48 38.5z" />
    <glyph glyph-name="semicolon" unicode=";" horiz-adv-x="573" 
d="M520 926h8q23 -3 31 -17.5t8 -52.5q0 -43 -9.5 -54t-47.5 -16q-56 -6 -68 25q-12 30 16.5 71t61.5 44zM432 555q53 0 51 -67q-2 -84 -78 -196q-22 -33 -49 -63q-46 -52 -94 -63t-61 27q-12 28 53 96q54 57 81.5 105t39.5 108q8 32 18.5 42.5t38.5 10.5z" />
    <glyph glyph-name="less" unicode="&#x3c;" horiz-adv-x="854" 
d="M762 350q-50 87 -103 216.5t-53 164.5q0 49 42 108t108 103q123 85 188 105t96 -17q23 -26 8.5 -53.5t-57.5 -36.5q-47 -9 -136.5 -68.5t-115.5 -99.5q-19 -30 -8.5 -66t76.5 -176q39 -83 64 -150t20 -79q-10 -26 -31.5 -29t-48 18t-49.5 60z" />
    <glyph glyph-name="equal" unicode="=" horiz-adv-x="964" 
d="M920 889q74 4 86 4q45 0 59 -8t27 -37t11.5 -44t-18.5 -32t-30 -18.5t-35 10.5q-60 32 -164 12.5t-147 -71.5q-18 -24 -30.5 -27t-39.5 8q-19 8 -22 46t14 63q25 37 103.5 62.5t185.5 31.5zM934 580q47 0 64.5 -12t17.5 -40v-2q0 -23 -12 -30q-19 -13 -175 -38
q-15 -3 -49 -8h-1h-1l-1 -1h-1h-1h-1h-1h-1l-1 -1h-1h-1h-1h-1h-1l-1 -1h-1h-1h-1h-1h-1l-1 -1h-1h-2q-164 -26 -196 -26t-54 26q-14 17 -12.5 29.5t20.5 32.5q17 19 68 31.5t168 25.5q161 15 184 15z" />
    <glyph glyph-name="greater" unicode="&#x3e;" horiz-adv-x="677" 
d="M195 231q-23 23 10 69.5t160 170.5q182 176 182 217t-82 123q-61 61 -75.5 94.5t11.5 50.5q32 20 81 -7.5t102 -94.5q67 -85 72.5 -150t-49 -144t-195.5 -210q-99 -92 -145.5 -117.5t-71.5 -1.5z" />
    <glyph glyph-name="question" unicode="?" horiz-adv-x="997" 
d="M967 1417q94 3 118 -14q34 -29 25.5 -92.5t-57.5 -130.5q-60 -82 -316 -365q-292 -323 -352 -403q-68 -86 -99.5 -108.5t-54.5 -0.5q-40 41 43 160.5t365 429.5q194 209 270 298.5t76 106.5q0 11 -26 13t-68.5 -4t-90 -16.5t-95 -26.5t-80.5 -33q-49 -25 -55.5 -42
t24.5 -42q27 -22 22.5 -61.5t-34.5 -43.5q-34 -8 -89 44t-55 92q0 49 65.5 107t155.5 89q56 19 144 31t164 12zM-16 -100q0 35 22 63.5t49 30.5q11 0 15 -2q23 -10 34 -10q7 -3 7.5 -22.5t-6 -46t-15.5 -36.5q-22 -22 -65 -22q-23 0 -32 9.5t-9 35.5z" />
    <glyph glyph-name="at" unicode="@" horiz-adv-x="1708" 
d="M1593 1579q49 4 68 2q108 -1 168 -47t82 -143q27 -125 -63.5 -341t-245 -413t-299.5 -272q-68 -34 -150.5 -39.5t-118.5 22.5q-33 29 -53 84l-25 57l-149 -90q-109 -67 -172.5 -82.5t-93.5 15.5q-92 92 209 381q247 239 329 157q25 -25 21 -84t-33 -96q-23 -30 -25 -43
t15 -37q10 -13 18 -38.5t8 -45.5q0 -86 67 -84q85 3 224 134q26 24 51 51q107 115 192 249t132 263q40 109 41.5 175t-33.5 109q-52 65 -211 27t-336 -158q-174 -119 -380 -337.5t-357.5 -443t-179.5 -357.5q-12 -59 9.5 -107t70.5 -74q31 -18 42.5 -33t8.5 -36
q-6 -40 -52 -44t-102 31q-92 60 -97.5 193.5t77.5 300.5q107 215 377.5 526.5t476.5 458.5q270 194 489 209zM938 627q11 8 20 38.5t9 54.5t-9 28q-11 0 -134.5 -124.5t-123.5 -136.5q0 -6 41.5 16t99 58t97.5 66z" />
    <glyph glyph-name="A" unicode="A" horiz-adv-x="1472" 
d="M1815 1798q42 0 57 -59q6 -27 -14 -85t-76 -173q-21 -44 -49.5 -104t-41 -86.5t-12.5 -28.5q0 -9 37 -9q42 0 85 -23t52 -50q14 -46 -12 -57.5t-121 -2.5l-123 10l-149 -307q-144 -295 -176.5 -376.5t-30.5 -143.5q1 -39 -7.5 -59t-35.5 -39q-28 -17 -42.5 -18.5
t-31.5 12.5q-49 42 -1.5 193.5t212.5 481.5l111 222l-62 -13q-52 -9 -208 -57l-150 -45l-160 -186q-231 -268 -386 -487.5t-130 -244.5q39 -39 -10 -92q-22 -22 -73 -27.5t-68 11.5q-48 48 67 238q68 110 201.5 292.5t224.5 290.5q70 82 61 95q-1 1 -3 1q-36 0 -133.5 -66.5
t-116.5 -103.5q-25 -50 -68 -50.5t-55 48.5q-6 27 0.5 47t30.5 46q45 48 168.5 119.5t238.5 115.5q82 32 145 79.5t220 192.5q297 277 437 387.5t198 110.5zM1677 1575q-12 -3 -108.5 -87t-225.5 -204l-126 -119l98 25q29 6 83 19t68 16q30 7 55 40.5t76 135.5
q82 160 82 174h-2z" />
    <glyph glyph-name="B" unicode="B" horiz-adv-x="1441" 
d="M1470 1491q89 2 133.5 -33t32.5 -100q-14 -66 -105 -173.5t-222 -211.5l-158 -129l80 -8q34 -4 70 -17.5t51 -27.5q86 -78 -14.5 -194t-366.5 -247q-193 -95 -343.5 -160t-176.5 -65q-23 0 -72.5 -99.5t-52.5 -154.5q-4 -60 -43 -82.5t-74 12.5q-28 28 -17 89.5t66 172.5
q71 148 213 393.5t268 438.5q59 91 96 152t33 61q-14 0 -87 -65.5t-105 -106.5q-17 -21 -31.5 -58.5t-19.5 -68.5q-6 -47 -16.5 -60.5t-39.5 -13.5q-31 0 -39.5 13t-11.5 65q-6 77 33 139q40 66 164 179.5t209 160.5q39 22 81 54t62 55q50 56 78 39q28 -15 137 16
q110 35 188 35zM1520 1386l-64 -12q-82 -15 -167 -43t-128 -55q-40 -24 -205 -269.5t-304 -481.5t-115 -236q19 0 282 127q190 92 316.5 170t126.5 104q0 23 -68.5 26t-169.5 -16q-110 -20 -155.5 -10t-45.5 53q0 33 191 166q160 108 302.5 234t174.5 188z" />
    <glyph glyph-name="C" unicode="C" horiz-adv-x="962" 
d="M688 254q-82 -29 -198 -35.5t-168 14.5q-117 51 -117 222q0 66 13 111t56 130q80 154 224.5 336.5t302 331t272.5 207.5q51 26 106 28.5t78 -20.5q62 -62 -43.5 -210.5t-367.5 -371.5q-110 -92 -146.5 -114.5t-58.5 -10.5q-15 7 -25 21t-10 25q0 10 47 56.5t115 104.5
q177 151 293 285q72 84 45 79q-12 -2 -49 -28q-137 -96 -337 -318.5t-296 -387.5q-95 -162 -104 -248.5t65 -116.5q78 -32 217.5 10.5t327.5 157.5q148 87 183 76q20 -7 20 -41q0 -49 -145.5 -144.5t-299.5 -148.5z" />
    <glyph glyph-name="D" unicode="D" horiz-adv-x="1095" 
d="M973 1507q104 3 184 -39q163 -83 144 -269.5t-214 -424.5q-87 -106 -296 -302t-334 -288q-46 -35 -81 -69.5t-38 -48.5q-11 -40 -66 -46q-51 -7 -67 9q-19 19 -9 93t44 171q51 139 177 410.5t218 439.5q104 190 104 196q0 10 -60 -21.5t-132 -77t-101 -71.5
q-196 -178 -79 -270q47 -36 34 -68q-12 -32 -55.5 -30t-87.5 37q-29 23 -38 45t-9 73q0 33 10.5 77t24.5 73q58 115 234 231.5t345 151.5q83 18 148 18zM975 1382q-99 0 -104 -16q-1 -4 1 -10q3 -9 -13 -48.5t-42 -82.5q-89 -147 -265.5 -518t-176.5 -410q0 -18 48 18
q38 29 142 119q374 320 522.5 558.5t42.5 344.5q-28 28 -56.5 36.5t-98.5 8.5z" />
    <glyph glyph-name="E" unicode="E" horiz-adv-x="886" 
d="M313 242q-92 41 -119 152t19 259q28 88 28 106.5t-28 43.5q-14 14 -24.5 32.5t-10.5 28.5q0 27 41 65t94 62q49 20 121 127t72 160q0 39 123 147q99 87 83 92q-15 5 -184 -75q-135 -65 -153 -107q-17 -38 -59 -44t-54 28q-25 63 62 135.5t272 144.5q287 111 569 111
q97 0 132.5 -7t60.5 -30q37 -36 37.5 -69.5t-35.5 -73.5q-31 -33 -40 -36t-40 7q-11 5 -20 21t-9 34q0 29 -13 36t-73 7q-84 0 -244.5 -29t-160.5 -44q0 -7 5 -12t11 -5q49 0 7 -81q-19 -38 -56 -87q-92 -124 -129 -186l-45 -70l45 13q103 29 194.5 37t131.5 -9
q40 -15 62 -50t3 -54q-5 -5 -54 -9.5t-108 -4.5q-115 -1 -222 -28t-142 -62q-32 -32 -89 -179.5t-65 -216.5q-8 -78 18.5 -128t75.5 -50q19 0 63.5 16t86.5 39q42 22 71 32.5t47.5 11t27 -9.5t8.5 -32q0 -37 -44 -76t-106 -63t-129.5 -33t-114.5 13z" />
    <glyph glyph-name="F" unicode="F" horiz-adv-x="1067" 
d="M205 -182q-69 110 176 661q88 199 80 207q-9 9 -87 -34t-95 -66q-19 -26 -51 -18t-44 42q-14 34 59 92t189 105q94 40 121.5 64.5t79.5 117.5q64 118 164 271q73 114 72 128q0 9 -21 3q-72 -22 -183.5 -84t-166.5 -111q-53 -45 -66.5 -69t-11.5 -68q3 -39 -3 -55t-26 -19
q-39 -8 -62.5 21.5t-23.5 87.5q0 68 65 141.5t167.5 134.5t233.5 110.5t259 75t248 21.5t197 -43q30 -15 40.5 -32.5t10.5 -53.5q0 -51 -33.5 -89t-67.5 -26q-11 5 -18.5 21t-7.5 35q0 41 -34 53t-151 12q-78 0 -108 -7.5t-55 -33.5q-58 -61 -188 -263t-118 -214
q7 -7 117 18q106 26 173.5 25.5t88.5 -25.5q30 -37 6 -58t-106 -32q-116 -12 -242 -51l-135 -39l-74 -156q-59 -129 -142.5 -338.5t-98.5 -267.5q-6 -28 -2.5 -41.5t20.5 -19.5q29 -10 28 -52.5t-32 -70.5q-29 -26 -78 -29.5t-63 19.5z" />
    <glyph glyph-name="G" unicode="G" horiz-adv-x="1413" 
d="M860 111q-28 28 -19 112.5t50 188.5l51 131l-96 -64q-160 -101 -220.5 -136.5t-142.5 -74.5q-107 -50 -187 -51t-120 43t-44.5 127t40.5 201q63 174 198.5 364.5t291.5 339.5t321 246.5t283 97.5q130 0 140 -92q11 -98 -113 -253q-126 -155 -330 -292q-150 -102 -189 -98
q-26 3 -26 49q0 26 27 53t104 78q140 95 229 181q74 70 133.5 157.5t44.5 102.5q-15 17 -111 -25.5t-198 -110.5q-167 -109 -336 -295.5t-277 -376t-108 -306.5q0 -43 8 -53.5t41 -10.5q107 0 479 246q163 110 169 125q2 6 -10 5q-5 0 -13 -1q-64 -11 -92 -39
q-35 -26 -71 -26t-56.5 26.5t-1.5 60.5q23 42 174.5 83.5t337.5 56.5q86 7 140.5 2.5t79.5 -21t25 -47.5t-19 -37.5t-114 -11.5q-54 -1 -92.5 -8t-38.5 -15q0 -18 -78 -149q-119 -199 -152 -324q-18 -71 9 -71q22 0 28.5 -32t-10.5 -52q-19 -23 -68 -24.5t-71 20.5z" />
    <glyph glyph-name="H" unicode="H" horiz-adv-x="1110" 
d="M195 113q-11 42 32.5 150.5t167.5 348.5q57 113 92.5 186.5t32.5 73.5q-5 0 -59 -26q-44 -23 -70 -10t-20 57q5 25 29.5 42.5t93.5 45.5q83 34 110 58.5t76 113.5q70 122 70 143q-5 38 8.5 65.5t66.5 84.5q62 66 91.5 76t50.5 -29q11 -19 -7 -65.5t-81 -161.5
q-51 -94 -76 -143.5t-21 -49.5q13 0 111 25q147 36 151 37q26 6 55 36.5t70 96.5q99 158 218 320t147 177q39 19 63 -2q31 -25 24 -53.5t-54 -75.5q-50 -53 -185 -252l-127 -192l62 -8q42 -6 60.5 -26.5t6 -44t-52.5 -36.5q-55 -20 -100 -20q-38 0 -77.5 -55t-145.5 -255
q-221 -422 -246 -569q-10 -54 -30.5 -69t-57.5 4q-56 26 -10.5 174.5t204.5 453.5q37 69 66 130t42.5 95.5t8.5 34.5q-31 0 -150.5 -33t-136.5 -46q-25 -20 -187.5 -350.5t-184.5 -405.5q-15 -52 -28.5 -68.5t-43.5 -21.5q-29 -3 -41 5t-18 34z" />
    <glyph glyph-name="I" unicode="I" 
d="M408 -63q-30 28 -16.5 79.5t81.5 169.5q67 117 68 131q-4 9 -21 9q-29 0 -67 -11t-63 -26.5t-21 -26.5q11 -27 -12 -45.5t-62.5 -17.5t-69.5 24q-32 22 -20 70q21 87 305 151q59 12 102.5 28.5t46.5 27.5q10 24 265 418q66 100 126.5 194.5t92.5 145.5t31 51
q-30 0 -75.5 -27.5t-49.5 -48.5q-6 -22 -20.5 -28t-51.5 -3q-38 5 -50.5 15t-15.5 40q-6 49 53.5 86.5t225.5 90.5q276 89 443 105t188 -44q15 -43 -13 -69.5t-67 -4.5q-41 20 -193 -12l-153 -33l-64 -102q-69 -108 -106 -137q-41 -33 -236 -338l-190 -299l125 -6
q105 -4 139 -26.5t20 -78.5q-6 -25 -19 -35t-38 -10q-17 0 -33.5 6.5t-21.5 14.5q-11 19 -131 10q-79 -6 -102 -16q-34 -17 -73 -82q-20 -33 -85 -160q-38 -75 -73 -133t-46 -64q-9 -6 -25 -0.5t-28 17.5z" />
    <glyph glyph-name="J" unicode="J" horiz-adv-x="997" 
d="M369 25q-54 -29 -107 -26t-72 34q-32 62 2.5 180.5t122.5 245.5q57 82 130.5 134t105.5 32q40 -26 31 -53.5t-78 -90.5q-68 -63 -139.5 -185.5t-59.5 -156.5q5 -15 81 56q22 21 46 45q160 163 334.5 415.5t265.5 452.5q34 74 40 102t-9 54q-19 43 -8 61t0 18
q-17 -1 -140 -63q-259 -130 -274 -190q-9 -31 -44 -34.5t-60 25.5q-35 43 27.5 108.5t230.5 160.5q104 61 300.5 138t247.5 77q61 0 86 -28.5t3 -74.5q-20 -42 -50.5 -54.5t-64.5 7.5q-38 25 -63 7.5t-25 -68.5q0 -126 -162.5 -435.5t-353.5 -547.5q-85 -105 -194 -214.5
t-150 -131.5z" />
    <glyph glyph-name="K" unicode="K" horiz-adv-x="1187" 
d="M246 -164q-23 9 -32 25.5t-9 50.5q0 52 92.5 247.5t214.5 399.5q46 78 78.5 144t32.5 81t18 43.5t43 51.5t94.5 117t145.5 208q180 276 245 344q44 52 61.5 61.5t37.5 -7.5q31 -26 26 -57t-49 -89q-49 -63 -151.5 -211.5t-122.5 -187.5q-14 -28 -11.5 -30.5t33.5 7.5
q44 18 303 148q103 53 190 89.5t99 33.5q13 -1 22 -15.5t9 -34.5q0 -12 -7.5 -23.5t-33 -30t-61.5 -39t-107.5 -57t-155.5 -76.5t-219 -105q-88 -41 -159 -83.5t-80 -58.5q-15 -24 -7.5 -38t52.5 -50q63 -49 329 -213q262 -165 271 -186q10 -29 -17 -53t-59 -15
q-34 11 -218 121t-315 199l-131 88l-116 -205q-138 -237 -182.5 -338t-24.5 -133q14 -23 6.5 -50t-29 -46t-50 -29t-56.5 2z" />
    <glyph glyph-name="L" unicode="L" horiz-adv-x="882" 
d="M203 -317q-38 38 53 268q57 145 270.5 574.5t325.5 625.5q42 73 72 138.5t30 80.5q2 16 28.5 66t61.5 100q51 73 79 100t53 27q45 0 46 -33q1 -50 -110 -257q-31 -58 -78 -142q-175 -315 -386.5 -738.5t-282.5 -603.5q-26 -67 -53.5 -126.5t-35.5 -69.5
q-15 -18 -37.5 -21t-35.5 11z" />
    <glyph glyph-name="M" unicode="M" horiz-adv-x="1748" 
d="M1151 -8q-23 25 13.5 103.5t181.5 318.5q391 645 483 819q20 39 8 39q-22 0 -200.5 -186t-297.5 -334q-156 -191 -221.5 -252t-105.5 -51q-22 6 -33.5 19.5t-12 42t10.5 69t36 105t61.5 146t90.5 195.5q100 217 92 225q-15 15 -157 -129.5t-323.5 -355.5t-301.5 -373
q-115 -155 -169 -193.5t-89 9.5q-10 13 -14.5 34t0.5 36q29 101 271.5 547t332.5 565q57 75 106.5 91t56.5 -27.5t-30 -125.5q-18 -32 -37 -54t-29 -22q-11 0 -39 -36t-57 -87q-125 -211 -200 -371q-26 -56 -13 -42q174 216 434.5 473t331.5 283q47 18 84 -3
q43 -22 22.5 -108t-122.5 -309q-123 -259 -115 -267q1 -1 11.5 11t28 33.5t36.5 46.5q75 98 277.5 300.5t279.5 256.5q69 46 109.5 54t66.5 -20q16 -16 19 -39.5t-12.5 -71.5t-46.5 -112t-92 -174t-140 -243.5t-199 -333.5q-232 -387 -297 -466q-50 -60 -77 -46q-7 4 -13 10
z" />
    <glyph glyph-name="N" unicode="N" horiz-adv-x="1384" 
d="M207 61q-14 29 -10 58.5t30 93.5q41 100 166.5 350.5t227.5 435.5q80 147 167 310q66 124 138.5 208.5t109.5 79.5q52 -8 37 -60q-14 -47 -86 -151q-53 -77 -171 -283t-210 -382t-80 -176q4 0 154 176q191 233 479 496.5t375 285.5q102 25 111 -88q3 -38 -36 -128
t-159 -324q-367 -720 -367 -834q0 -48 -26 -73t-64 -13q-36 12 -38.5 61t33.5 154t108.5 262.5t193.5 397.5q173 336 191 378l24 54l-78 -62q-244 -193 -488.5 -461.5t-463.5 -582.5q-135 -194 -193 -223q-46 -23 -75 40z" />
    <glyph glyph-name="O" unicode="O" 
d="M817 1399q33 -3 55 -31q26 -35 84 -29q59 9 109 -36q36 -30 44.5 -54.5t6.5 -97.5q0 -106 -63 -252q-62 -150 -62 -164q0 -8 16.5 -15.5t39.5 -10.5q32 -6 42.5 -17t10.5 -39q0 -32 -13.5 -38.5t-76.5 -6.5h-92l-103 -155q-137 -205 -250 -302.5t-215 -97.5q-45 0 -68 10
t-46 39q-26 34 -31.5 67t0.5 130q9 172 105 412t237 444q170 244 270 244zM956 1212q-29 -3 -73 -36q-78 -60 -89.5 -135t40.5 -185q19 -43 26.5 -47.5t24.5 18.5q17 22 63 136q77 202 34 242q-10 9 -26 7zM705 1163q-10 0 -66 -78q-96 -140 -199 -383.5t-123 -379.5
q-9 -60 5 -110t40 -50q18 0 95 59q63 50 162.5 173.5t148.5 215.5l41 78l-41 43q-63 68 -88.5 198t12.5 199q18 35 13 35z" />
    <glyph glyph-name="P" unicode="P" horiz-adv-x="1220" 
d="M1204 1561q95 0 162 -23q133 -51 165.5 -159.5t-44.5 -241.5q-85 -148 -313 -359.5t-474 -371.5l-174 -113l-106 -213q-108 -209 -105 -275q1 -60 -29.5 -79.5t-74.5 12.5q-42 28 -26.5 100t102.5 252q38 78 64.5 149t25.5 91q-3 53 39 69q40 19 188 279
q134 233 290.5 481.5t178.5 263.5q7 6 -7 7q-14 2 -44 -3q-80 -14 -165.5 -62t-143.5 -112q-46 -52 -56 -77.5t-6 -81.5q3 -54 -1.5 -70.5t-24.5 -19.5q-14 -3 -32 1t-28 13q-26 22 -26 103t26 132q32 63 132 144t184 112q145 55 323 52zM1157 1452q-51 0 -37 -13l4 -3
q39 -22 26 -66.5t-99 -177.5q-126 -200 -211 -348q-82 -141 -142 -240q-28 -50 -20 -59q10 0 143 94q143 108 339 308t233 276q36 75 27.5 116t-66.5 72q-30 15 -91.5 27t-105.5 14z" />
    <glyph glyph-name="Q" unicode="Q" horiz-adv-x="1181" 
d="M897 -33q-47 15 -135.5 92.5t-116.5 128.5q-13 28 -29.5 26.5t-91.5 -38.5q-99 -49 -189 -52t-120 42q-35 51 -27 153t54 226q72 187 257.5 469.5t319.5 408.5q46 43 89.5 45.5t68.5 -36.5q19 -31 -34.5 -107.5t-100.5 -87.5q-57 -14 -180.5 -189.5t-232 -390
t-126.5 -327.5q-12 -77 20 -87.5t132 40.5l104 53v153q0 90 7.5 138.5t29.5 89.5q32 64 79.5 101.5t80.5 25.5q31 -12 30.5 -46.5t-32.5 -56.5q-37 -26 -56 -70t-30 -122q-14 -102 16 -104q30 0 125 92q252 246 377.5 487.5t85.5 402.5q-9 33 -20.5 39t-51.5 -2
q-92 -20 -130 -15.5t-38 32.5q0 37 65 77.5t122 40.5q58 0 118 -51q39 -36 50.5 -64.5t15.5 -105.5q12 -193 -112.5 -425.5t-372.5 -479.5l-1 -1l-1 -1l-1 -1l-1 -1l-1 -1l-1 -1l-1 -1l-1 -1l-1 -1l-1 -1l-1 -1l-1 -1l-1 -1l-1 -1l-1 -1l-1 -1l-1 -1l-1 -1l-1 -1l-2 -2
q-125 -125 -143 -152q-18 -26 -6 -49q3 -4 8 -13q32 -55 109.5 -110.5t121.5 -55.5q50 0 80 -13q35 -12 29 -47.5t-45 -50.5q-40 -15 -66 -14.5t-88 20.5z" />
    <glyph glyph-name="R" unicode="R" horiz-adv-x="1142" 
d="M156 -8q-48 46 88.5 336t394.5 686q44 68 72.5 121.5t23.5 58.5q-14 14 -157.5 -63.5t-204.5 -131.5q-48 -43 -57.5 -60t3.5 -36q23 -27 13 -55q-12 -34 -64.5 -30.5t-77.5 38.5q-16 27 -15.5 57t22.5 64.5t56 70t85 72t109.5 71.5t129 67.5t144.5 60.5t155.5 51.5
t161.5 38.5q295 56 419 -5q102 -51 44 -163q-30 -55 -108 -122t-291 -218q-99 -70 -191 -143.5t-120 -104.5q-51 -56 -59.5 -81t-4.5 -107q5 -65 23 -122t65 -148q54 -107 63 -138.5t-10 -50.5q-31 -31 -61 -11.5t-80 101.5q-92 152 -119.5 302.5t19.5 242.5q35 71 105 135
t265 203q383 271 383 317q0 9 -82.5 9.5t-179.5 -7t-133 -18.5q-42 -12 -191 -239t-303.5 -508.5t-211.5 -434.5q-41 -108 -76 -114q-38 -4 -47 8z" />
    <glyph glyph-name="S" unicode="S" horiz-adv-x="1034" 
d="M338 -90q-25 9 -58 33t-55 49q-70 82 -53.5 196.5t113.5 217.5q51 54 77.5 59t51.5 -33q10 -18 3.5 -37.5t-34.5 -58.5q-120 -156 -82 -236q32 -72 122.5 -80t213.5 50q110 53 187 128t71 124q-3 28 -24.5 48t-79 49t-199.5 91q-55 25 -104 55.5t-64 48.5
q-31 40 -34.5 111.5t24.5 124.5q29 56 178.5 191t337.5 277t319 218q62 35 110.5 41t68.5 -13.5t9.5 -61t-57.5 -93.5q-68 -77 -129 -203t-61 -192q0 -58 -23.5 -78t-58.5 8q-35 30 -26 116t55 179q15 28 27 55t18 43t4 17q-4 5 -112.5 -77.5t-238.5 -189t-186 -159.5
q-46 -41 -86 -88t-49 -68q-15 -34 -11 -48.5t36 -43.5q47 -40 180 -90q131 -49 193 -87.5t87 -86.5q43 -82 17.5 -156.5t-129.5 -171.5q-123 -116 -278.5 -166t-270.5 -12z" />
    <glyph glyph-name="T" unicode="T" horiz-adv-x="782" 
d="M211 51q-23 42 -18 123t36 174q58 176 227.5 472t303.5 458q72 87 65 94q-10 10 -135.5 -21t-142.5 -48q-32 -32 -98 -40t-91 17q-17 17 -19 30t9 31q34 54 262 110t477 71q165 9 226 -11.5t61 -85.5q0 -43 -26.5 -52.5t-69.5 18.5q-29 19 -65.5 22.5t-125.5 -4.5
q-97 -9 -119 -16.5t-18 -30.5q9 -31 -23.5 -88t-64.5 -66q-38 -13 -157 -203.5t-233.5 -417.5t-141.5 -333q-18 -72 -16.5 -90t26.5 -39q44 -35 30.5 -67.5t-73.5 -37.5q-39 -3 -57.5 3.5t-28.5 27.5z" />
    <glyph glyph-name="U" unicode="U" horiz-adv-x="1359" 
d="M823 -72q-42 42 2.5 194.5t188.5 459.5l116 245l-131 -147q-38 -41 -146 -160.5t-153 -167.5q-260 -285 -364 -311q-113 -28 -151 60.5t8 271.5q28 105 157 365.5t232 418.5q257 396 348 289q17 -27 11 -63.5t-33.5 -70.5t-59.5 -40q-52 -9 -135 -127t-209 -363
q-165 -320 -205 -506q-26 -114 16 -114q52 0 1065 1118q117 127 163.5 155.5t78.5 -8.5q14 -20 2.5 -46.5t-70.5 -112.5q-135 -194 -295 -489.5t-255 -521t-60 -237.5q22 -6 22 -38t-22 -54q-22 -20 -60.5 -20t-60.5 20z" />
    <glyph glyph-name="V" unicode="V" horiz-adv-x="1130" 
d="M223 104q-26 29 -28.5 99.5t20.5 148.5q45 173 367 781q129 244 170.5 309.5t66.5 62.5q15 -1 28.5 -13t16.5 -26q6 -29 -41 -138t-96 -181q-62 -90 -169.5 -314.5t-185 -419.5t-61.5 -210q11 -11 86.5 48.5t159.5 145.5q201 204 608 707q198 242 203 242q26 0 45 -20
t19 -46q0 -66 -521 -672q-308 -357 -462 -470t-226 -34z" />
    <glyph glyph-name="W" unicode="W" horiz-adv-x="1595" 
d="M819 33q-79 89 60 510q62 188 54 201q-1 1 -3 -1q-118 -138 -256 -305q-97 -116 -184 -210t-115 -113q-94 -63 -142 -36.5t-38 136.5q10 115 135.5 348.5t410.5 667.5q127 194 181 251.5t88 35.5q29 -18 7.5 -72t-108.5 -180q-202 -297 -397 -632.5t-195 -385.5
q0 -25 68 49q72 77 315 367q299 358 334 389q29 23 75 6t46 -51q0 -32 -100 -334q-77 -228 -117 -372.5t-29 -156.5q12 -12 48.5 25t105 131.5t169 247t243.5 377.5q310 485 325 497q22 14 47.5 7t40.5 -31q14 -22 -160.5 -310.5t-386 -599t-290.5 -387.5
q-155 -152 -232 -69z" />
    <glyph glyph-name="X" unicode="X" horiz-adv-x="1245" 
d="M188 2q-15 15 -19.5 29.5t3.5 37t28 48.5t61 68.5t93.5 92t134.5 123.5l246 224l-8 110q-12 162 30 369t103 285q31 38 72 46t69 -20q26 -26 19.5 -50.5t-43.5 -41.5q-26 -10 -44 -40.5t-40 -98.5q-11 -34 -21.5 -92t-17.5 -119.5t-11.5 -117.5t-3 -92t8.5 -36
q23 0 481 406q111 99 155.5 147.5t39.5 65.5q-9 31 20 59.5t90 48.5q54 19 85.5 4t31.5 -59q0 -53 -606 -588q-19 -17 -54 -47q-72 -62 -100.5 -87t-60 -62.5t-36 -51.5t-3 -47t13.5 -56.5t37 -73.5l19 -38q64 -130 131 -182q43 -32 76.5 -40.5t125.5 -8.5q98 0 119.5 -6
t24.5 -35q6 -40 -40.5 -59t-146.5 -19q-95 0 -150.5 21.5t-119.5 84.5q-49 45 -122 175t-73 170q0 9 -5.5 15.5t-12.5 6.5q-23 0 -205.5 -170t-204.5 -213q-20 -40 -60.5 -74t-66.5 -34q-21 0 -43 22z" />
    <glyph glyph-name="Y" unicode="Y" horiz-adv-x="1042" 
d="M227 -342q-22 22 -22 51q0 34 194.5 362t468.5 756l70 107l-129 -109q-215 -181 -355.5 -201t-174.5 126q-23 103 31.5 293t148.5 335q76 115 136 124q47 7 60 -60q4 -20 4 -47q0 -45 -11 -75.5t-29 -37.5t-41 10q-9 6 -16.5 7t-17.5 -11.5t-22.5 -37t-32.5 -68.5
q-51 -110 -79.5 -218.5t-20.5 -162.5q4 -29 16.5 -37t49.5 -6q72 3 210.5 116t389.5 373q216 224 269.5 270t80.5 31q15 -7 26 -20.5t11 -24.5t-71 -127t-171 -268q-559 -852 -885 -1436q-14 -27 -40 -31t-48 17z" />
    <glyph glyph-name="Z" unicode="Z" horiz-adv-x="1275" 
d="M358 -20q-54 12 -106.5 44.5t-75.5 69.5q-40 63 40.5 183.5t262.5 273.5l107 88l-78 -12q-119 -19 -182 -66q-29 -18 -76 -8q-28 8 -38.5 20.5t-10.5 38.5q0 46 68.5 72t269.5 55l217 31l217 158q200 145 346 270t174 174q10 27 14 43.5t-20.5 25.5t-64 12t-117.5 3
q-106 0 -259 -24t-153 -41q0 -10 27 -37q12 -12 18.5 -30t3.5 -30q-6 -35 -44 -33.5t-89 39.5q-111 86 -29 157q95 80 394 108q244 23 360 -20.5t96 -149.5q-12 -68 -131 -193t-305 -264l-193 -145l193 -13q150 -9 190.5 -24t32.5 -58q-4 -23 -43.5 -27t-218.5 -1
q-252 7 -303 -8q-46 -14 -252 -177q-144 -116 -226.5 -204t-82.5 -127q0 -29 72.5 -46t188 -16t232.5 21q74 12 106 12t44 -12q25 -25 -1 -57t-87 -52q-65 -21 -241 -29.5t-247 5.5z" />
    <glyph glyph-name="bracketleft" unicode="[" horiz-adv-x="950" 
d="M494 -174q-121 -37 -177.5 -49.5t-87.5 -8.5t-53 27q-23 23 -22.5 65.5t23.5 111t77 175t134 246t198 334.5q270 455 383 647l157 275l80 4q66 4 133.5 -23t92.5 -67q13 -29 3.5 -64.5t-38.5 -65.5t-58 -30q-33 0 -38.5 9t2.5 52q8 63 -19 74q-49 19 -76.5 -1t-70.5 -105
q-60 -114 -299 -514q-265 -444 -417.5 -724.5t-137.5 -295.5q11 -5 209 57q81 25 129 36.5t78 12.5t40.5 -8.5t10.5 -30.5q0 -27 -19.5 -45t-71 -38t-165.5 -56z" />
    <glyph glyph-name="backslash" unicode="\" horiz-adv-x="663" 
d="M772 84q-26 32 -31.5 186.5t13.5 372.5q44 510 69 614q17 70 44 71q11 0 28 -11q29 -17 29 -70.5t-31 -345.5q-33 -330 -33 -563q-3 -177 -8.5 -226.5t-24.5 -52.5q-12 -3 -28 5t-27 20z" />
    <glyph glyph-name="bracketright" unicode="]" horiz-adv-x="937" 
d="M-631 -240q-99 13 -117 43q-31 49 22 64q47 12 173 8q119 -3 152 2.5t65 34.5q36 32 255.5 423.5t419.5 774.5t187 395q-12 12 -148.5 -44.5t-158.5 -82.5q-19 -25 -31 -28.5t-32 8.5q-82 52 4 121q66 53 217 102q223 75 276 47q42 -21 9 -115q-28 -75 -230 -476
t-340 -654q-166 -302 -245 -430.5t-117 -157.5q-36 -27 -143.5 -37t-217.5 2z" />
    <glyph glyph-name="asciicircum" unicode="^" horiz-adv-x="555" 
d="M858 1098q-10 39 -14 131l-6 92l-97 -98q-116 -114 -148 -78q-11 12 -15 41q-3 29 27 65.5t134 128.5q168 150 181 150q7 0 45 -25q24 -17 25.5 -42.5t-13.5 -121.5q-21 -136 -21 -190q5 -63 -2.5 -78.5t-42.5 -15.5q-45 0 -53 41z" />
    <glyph glyph-name="underscore" unicode="_" horiz-adv-x="876" 
d="M209 -223q-15 13 -11.5 38t25.5 48q30 29 166.5 70t276 65t176.5 10q32 -12 27 -48t-40 -48q-41 -14 -149 -29q-46 -5 -126 -24t-144 -41q-131 -43 -159 -48.5t-42 7.5z" />
    <glyph glyph-name="grave" unicode="`" horiz-adv-x="323" 
d="M219 1278q-20 20 -22 159.5t18 190.5q13 40 42.5 56.5t49.5 -3.5q6 -8 7 -68.5t-5 -148.5q-8 -118 -16 -158.5t-25 -43.5q-10 -3 -25 2t-24 14z" />
    <glyph glyph-name="a" unicode="a" horiz-adv-x="925" 
d="M600 414q-280 -146 -330 -54q-45 83 27 236q42 91 31 92l-18 -12q-19 -12 -46 -30l-51 -34q-84 -57 -142 -69t-79 22q-25 37 1.5 92.5t115.5 151.5q124 133 226.5 192.5t141.5 20.5q16 -12 80 -12q37 0 55 -10t17 -35t-20 -64t-58 -100q-71 -109 -124.5 -219.5
t-41.5 -122.5q13 -13 183.5 77t322.5 191q49 33 85 55.5t65 38t48 22.5t32.5 7t21 -6t12.5 -19q17 -46 -140.5 -162.5t-414.5 -248.5z" />
    <glyph glyph-name="b" unicode="b" horiz-adv-x="880" 
d="M397 1774q15 6 29 6q45 1 37 -49q-8 -54 -70 -134q-52 -70 -179 -280.5t-230 -396.5l-70 -127l145 127q148 129 232 186q95 66 162 60t67 -81q0 -31 -39 -108.5t-86 -138.5q-38 -52 -31 -55q3 -1 21 5q26 11 150 43q79 22 100.5 21.5t44.5 -23.5q35 -35 8 -64.5
t-115 -49.5q-133 -31 -299 -102t-266 -140q-100 -71 -153.5 -86t-75.5 23q-11 20 -37 -9q-18 -19 -53 -69q-79 -120 -158 -264q-56 -102 -79.5 -131t-51.5 -29q-19 0 -34.5 7.5t-20.5 18.5q-7 19 -4 33q10 44 175 347q78 144 371 677q161 290 318 531.5t192 251.5zM365 1008
l-64 -45q-68 -52 -235 -215q-136 -134 -138 -144q-1 -4 10 0q10 4 35 17q34 17 85 54.5t87 72.5q39 34 85.5 85t72.5 87z" />
    <glyph glyph-name="c" unicode="c" horiz-adv-x="573" 
d="M438 467q-159 -78 -297.5 -109.5t-203.5 -5.5q-40 17 -57.5 63.5t-2.5 100.5q24 85 144.5 230.5t254.5 257.5t193 112q46 0 67 -27t11 -70.5t-49 -88.5q-53 -60 -112 -90t-91 -13q-19 9 -45 -8.5t-80 -79.5q-77 -87 -132 -174t-42 -100q19 -17 144 20t251 97
q190 93 224 64q10 -9 10 -28q0 -60 -187 -151z" />
    <glyph glyph-name="d" unicode="d" horiz-adv-x="749" 
d="M825 1305q116 151 176 151q16 0 27 -8q31 -20 9.5 -72.5t-97.5 -144.5q-133 -163 -262 -409.5t-232 -540.5q-57 -166 -47 -197q7 -28 -2 -52.5t-26.5 -37t-41 -11t-42.5 20.5q-38 38 -2 181.5t153 418.5l66 152l-125 -121q-119 -117 -210 -184.5t-130 -67.5
q-40 0 -62 23.5t-22 64.5q0 53 68.5 169.5t150.5 201.5q62 64 92.5 84t65.5 20q60 0 84 -37q19 -26 41.5 -10.5t124.5 123.5q148 160 243 283zM281 793l-56 -64q-62 -75 -82 -119l-28 -55l61 59q26 25 50.5 59.5t33.5 59.5z" />
    <glyph glyph-name="e" unicode="e" horiz-adv-x="759" 
d="M74 397q-10 5 -25.5 24.5t-25.5 41.5q-35 67 -4 160.5t120 187.5q117 123 217 123q79 0 95 -59t-39 -129q-41 -53 -107 -87q-70 -36 -117 -36q-27 0 -39 -9.5t-18 -35.5q-4 -20 -2 -40t10 -28q25 -25 176.5 1t323.5 85q80 27 126 40t75 14t39 -9.5t10 -34.5
q0 -39 -99.5 -87.5t-246.5 -84.5t-273 -41q-180 -4 -196 4z" />
    <glyph glyph-name="f" unicode="f" horiz-adv-x="593" 
d="M-768 -252q-20 42 19 159t128 283q62 114 71 144.5t-11 50.5q-60 63 74 121q50 22 87 61.5t113 151.5q104 155 251 327.5t202 204.5q29 17 47 19.5t35 -8.5q79 -49 -17 -199q-58 -86 -77 -145q-15 -45 -101.5 -109t-134.5 -66q-39 0 -90 -73q-44 -62 -37 -67q4 -2 21 3
q139 44 321.5 58t208.5 -17q40 -49 -18 -70q-39 -15 -134 -22q-132 -10 -292 -47t-203 -66q-34 -22 -134.5 -185t-144.5 -269q-39 -82 -28 -135q12 -49 -27 -97q-35 -45 -72.5 -47.5t-56.5 39.5z" />
    <glyph glyph-name="g" unicode="g" horiz-adv-x="675" 
d="M-631 -227q-12 28 -6 52.5t37 82.5q45 85 130 182t185 180q40 32 81.5 73.5t60.5 66.5q84 130 132 231q15 34 9 31q-3 -2 -23 -15.5t-53.5 -36t-62.5 -42.5q-97 -65 -139 -77.5t-70 15.5q-40 40 -14 94t135 158q121 117 194 162t111 28q36 -16 98 -16q35 -1 51.5 -12.5
t16 -39.5t-19 -73t-56.5 -115q-84 -150 -84 -161q0 -9 70 32q262 165 329 124q20 -13 19 -44q0 -25 -25 -44.5t-98 -53.5q-129 -65 -287 -168q-110 -72 -160 -120.5t-129 -162.5q-103 -147 -216.5 -260.5t-155.5 -113.5q-17 0 -34 12t-26 31z" />
    <glyph glyph-name="h" unicode="h" horiz-adv-x="925" 
d="M-152 264q-31 32 26.5 153.5t270.5 481.5q196 324 226 393q29 62 84 122.5t75 53.5q36 -12 38 -36q3 -39 -79 -184l-96 -165q-192 -323 -188 -331q8 -8 74 20q101 41 147.5 13.5t46.5 -130.5v-88l217 76q157 54 191.5 60t58.5 -19q19 -19 21 -35t-14 -32t-50 -31.5
t-88 -32.5q-126 -41 -252 -90q-124 -47 -168 -37q-40 9 -52 54t7 112q19 69 12 76q-10 10 -77.5 -32.5t-128.5 -96.5q-76 -73 -154 -181q-95 -144 -148 -94z" />
    <glyph glyph-name="i" unicode="i" horiz-adv-x="528" 
d="M369 1114q20 -5 26 -8q29 -17 27.5 -40.5t-33.5 -61.5q-26 -32 -65 -39t-54 18q-25 39 13.5 86.5t85.5 44.5zM203 887h10q44 -6 45.5 -57t-39.5 -91q-35 -32 -97 -125t-54 -102q8 -4 237 59q234 68 258 58q24 -9 25 -44.5t-23 -54.5q-26 -20 -239 -75.5t-267 -55.5
q-65 0 -86 21q-80 80 138 385q59 79 92 82z" />
    <glyph glyph-name="j" unicode="j" horiz-adv-x="528" 
d="M-205 1182q43 0 54 -18.5t-9 -61.5q-17 -36 -50 -45t-48 18q-12 21 -2 64q11 43 55 43zM-287 891q32 0 54.5 -35.5t13.5 -69.5l-9 -36t-10 -43l-10 -50l154 72q130 61 174.5 64t48.5 -50q2 -18 -1.5 -28t-31 -29t-67 -39.5t-129.5 -64.5l-238 -115l-94 -145
q-80 -123 -191.5 -245.5t-211.5 -200t-150 -77.5q-39 0 -62 23t-20 80.5t29 97.5q102 150 228.5 271t297.5 231q57 36 83.5 67t49.5 88q26 63 28.5 82.5t-16.5 28.5q-30 21 -29 48.5t33.5 51t75.5 23.5zM-627 260q-3 3 -30 -18q-41 -29 -104 -93.5t-116 -130.5
q-27 -33 -10 -25q33 17 130 113q46 46 75 80q62 74 55 74z" />
    <glyph glyph-name="k" unicode="k" horiz-adv-x="835" 
d="M-311 119q-25 25 4.5 108.5t130.5 278.5q137 268 305 550t240 367q77 86 116 86q47 0 54 -33t-33 -71q-63 -58 -195 -270t-291 -508l-96 -183l135 125q132 125 183 191q72 101 158 141q75 35 103 -5q11 -15 11 -42q0 -29 -18 -55t-66 -64l-84 -69l43 -23q39 -20 150 -43
q43 -7 82.5 -19t48.5 -20q26 -22 25 -46.5t-29 -39.5q-31 -17 -160 9t-189 61l-65 39l-117 -115q-70 -70 -235 -240q-85 -85 -134 -110.5t-77 0.5z" />
    <glyph glyph-name="l" unicode="l" horiz-adv-x="454" 
d="M-485 -29q-5 12 3 45.5t23 65.5q32 66 249 446.5t302 520.5q29 47 50.5 91.5t21.5 57.5q0 14 22 53t52 76q46 58 69 74.5t53 13.5q21 -3 37 -13t17 -22q6 -24 -101 -200q-127 -199 -369.5 -629.5t-308.5 -570.5q-14 -29 -61.5 -33t-58.5 24z" />
    <glyph glyph-name="m" unicode="m" horiz-adv-x="1112" 
d="M-104 446q-26 26 6 96.5t145 231.5q95 134 139 184t66 50q30 0 40 -18t-1.5 -51.5t-42.5 -78.5q-54 -73 -45 -76q8 -2 65 33q89 54 146.5 30t48.5 -112q-6 -45 -1.5 -50.5t30.5 13.5q149 107 211 140t108 30q59 -5 69 -42.5t-22 -131.5q-29 -85 -8 -102.5t127 4.5
q111 24 135 2q50 -40 3 -78q-56 -45 -190 -49h-18q-109 0 -147 29.5t-43 115.5l-6 91l-127 -99q-149 -117 -183 -136.5t-71 -10.5q-41 10 -45.5 48.5t24.5 123.5q11 33 16 54.5t1 21.5q-26 0 -244 -187q-142 -120 -186 -76z" />
    <glyph glyph-name="n" unicode="n" horiz-adv-x="796" 
d="M133 555q-166 -166 -224 -176q-33 -6 -48 31q-8 20 55 145.5t141 249t107 141.5q40 25 59 -10q20 -37 -4 -90q-6 -13 -14 -25q-27 -37 -17 -37q12 0 84 52q74 55 136 55q63 0 74 -47t-27 -148q-39 -93 -39 -116q0 -27 55 -8q39 14 125 55q203 91 211 18
q0 -30 -42.5 -65.5t-104.5 -62.5t-132.5 -47t-126.5 -19.5t-86 20.5q-25 20 -27.5 79.5t19.5 113.5q18 49 10 57q-9 9 -184 -166z" />
    <glyph glyph-name="o" unicode="o" horiz-adv-x="546" 
d="M358 924q43 -3 58 -45q13 -35 -14.5 -123t-73.5 -164q-74 -115 -184.5 -166.5t-163.5 4.5q-34 37 -29 87t51 128q43 75 128.5 160.5t119.5 85.5q31 0 61 20q18 13 47 13zM256 754q-10 3 -39 -23q-35 -31 -88 -102t-53 -88q0 -24 52 14q62 47 99 104q18 26 27.5 48.5
t9 33.5t-7.5 13z" />
    <glyph glyph-name="p" unicode="p" horiz-adv-x="964" 
d="M-674 -172q-10 26 64 177.5t278 520.5q153 282 209 392q53 108 87.5 150t66.5 38q17 -3 30.5 -14.5t14.5 -24.5q3 -12 -39.5 -101t-102.5 -196q-145 -266 -145 -272q0 -2 20.5 12.5t57.5 43.5t78 62q152 123 297.5 200t214.5 71q98 -8 97 -73q0 -75 -126 -184
q-53 -45 -119 -89l-1 -1h-1l-1 -1l-1 -1q-92 -58 -112 -62q-19 -4 -41 17l-7 7q-32 31 -9.5 63t118.5 94q123 77 113 81q-6 3 -82 -38q-189 -103 -391.5 -298.5t-348.5 -417.5q-75 -113 -107.5 -150t-58.5 -37q-17 0 -32.5 9.5t-20.5 21.5z" />
    <glyph glyph-name="q" unicode="q" horiz-adv-x="630" 
d="M-31 -106q-9 7 -15.5 26.5t-6.5 36.5q0 46 61.5 196t147.5 314l100 186l-72 -47q-47 -31 -87 -39.5t-64.5 6.5t-28.5 52q-3 31 13.5 59t68.5 82q91 93 198 163t158 70q52 0 86 19t63.5 6t29.5 -45q0 -14 -29 -62t-68 -100q-147 -193 -292.5 -474.5t-143.5 -369.5
q3 -67 -37.5 -93.5t-81.5 14.5z" />
    <glyph glyph-name="r" unicode="r" horiz-adv-x="694" 
d="M94 391q-16 -3 -61 17q-19 10 -25 18.5t-5.5 24t7.5 51.5q14 71 85.5 258.5t94.5 212.5q39 45 74 22q31 -21 26 -71q-2 -33 -24 -64q-42 -65 -53 -102q-9 -26 -4 -26t53 59q54 64 98.5 75.5t151.5 -10.5q43 -9 90 -16q9 -2 17.5 -15t11.5 -32q8 -46 -34 -63.5t-114 1.5
q-73 18 -100 6q-26 -13 -147 -178q-48 -67 -90.5 -116.5t-51.5 -51.5z" />
    <glyph glyph-name="s" unicode="s" horiz-adv-x="720" 
d="M-252 186q-18 36 -18 56q0 26 76 102t137 111q77 48 77 55q0 10 -36 55q-32 41 -34.5 96.5t25.5 110.5q26 49 148 151t201 140q76 37 115.5 20.5t33.5 -82.5q-4 -39 -15.5 -48t-56.5 -9q-55 -1 -149.5 -64t-151.5 -137q-26 -37 -31.5 -56.5t5.5 -39.5q17 -32 29 -45
t37.5 -15t57.5 8.5t97 37.5q137 57 253.5 88t149.5 20q28 -8 32 -40.5t-21 -51.5q-9 -8 -51.5 -22.5t-90.5 -26.5q-138 -37 -259.5 -98t-131.5 -99q-19 -59 -70.5 -113t-123.5 -91q-86 -43 -150 -46.5t-84 33.5z" />
    <glyph glyph-name="t" unicode="t" horiz-adv-x="417" 
d="M-289 86q-16 31 -2 88q15 53 102 264t181 422q104 234 94 244q-12 12 -111.5 -24t-128.5 -64q-35 -32 -66.5 -23.5t-31.5 51.5q0 54 75 98t218 75q58 12 91.5 35t72 76.5t121.5 189.5q45 76 75.5 119.5t54.5 65t40.5 19.5t33.5 -22q25 -31 2.5 -89t-110.5 -188l-109 -159
l170 -11q137 -9 201 -35t64 -73q0 -40 -27 -46t-103 17q-69 21 -175.5 27t-159.5 -8q-59 -17 -363 -764q-112 -276 -125 -295q-15 -25 -41 -22t-43 32z" />
    <glyph glyph-name="u" unicode="u" horiz-adv-x="751" 
d="M70 389q-41 30 -41 82q0 51 37 146.5t86 175t79 88.5q28 9 58 -2t39 -35q9 -28 -2.5 -55t-34.5 -27q-47 0 -115 -178l-39 -97l41 23q46 24 160.5 137t138.5 156q23 51 70 51q38 0 53.5 -34.5t-6.5 -74.5q-21 -38 -18.5 -82t26.5 -53q12 -4 53 4t86 23q94 31 129 25
t29 -50q-6 -45 -90 -84t-176 -39q-60 0 -85.5 9.5t-55.5 40.5l-46 49l-67 -66q-113 -105 -185 -136.5t-124 3.5z" />
    <glyph glyph-name="v" unicode="v" horiz-adv-x="704" 
d="M168 510q-61 58 45 289q88 195 147 76q1 -2 2 -5q12 -29 9.5 -45.5t-23.5 -40.5q-30 -33 -56.5 -88.5t-17.5 -64.5q2 -2 29.5 11.5t74.5 40.5t97 58q162 100 218.5 122t80.5 -7q25 -29 6.5 -57.5t-90.5 -69.5q-184 -106 -258 -149q-137 -81 -183 -93.5t-81 23.5z" />
    <glyph glyph-name="w" unicode="w" horiz-adv-x="972" 
d="M158 528q-22 25 -24.5 45.5t9.5 77.5q23 97 40 155.5t33.5 91.5t32 41.5t36.5 0.5q28 -10 28 -64.5t-28 -136.5q-31 -90 -21 -96q9 -9 121 92q44 41 84 71t51 30q79 0 51 -136q-6 -34 -7 -58t3 -24q22 0 103.5 61.5t154.5 133.5q135 129 166 76q7 -12 10 -33
q5 -25 -19 -58.5t-93 -99.5q-155 -149 -278 -187.5t-158 52.5l-19 49l-88 -61q-78 -52 -115.5 -56.5t-72.5 33.5z" />
    <glyph glyph-name="x" unicode="x" horiz-adv-x="761" 
d="M-158 408q-14 35 11 64t120 87q27 16 65 39.5t59 36t26 16.5q15 8 14.5 22.5t-18.5 49.5q-28 54 -28 118t28 87q34 28 62 3t28 -83q0 -34 4 -53.5t12.5 -29.5t25.5 -6.5t40 15t59 35.5q160 106 172 16q3 -20 -16.5 -42t-69.5 -54q-91 -61 -100 -76q-9 -14 21 -37.5
t79.5 -43t91.5 -23.5q50 -5 77.5 -24t27 -39t-29.5 -36t-79 -16q-132 0 -245 98l-56 48l-153 -101q-118 -76 -167 -91.5t-61 20.5z" />
    <glyph glyph-name="y" unicode="y" horiz-adv-x="1024" 
d="M76 -55q-26 26 8.5 82.5t151.5 179.5q74 77 191.5 219t203 256t78.5 121q-4 7 -136 -68q-162 -95 -255 -118t-134 22q-36 42 -24.5 96t78.5 158q111 178 172 141q19 -11 18 -54.5t-20 -55.5t-72 -86q-70 -95 -48 -102q25 -9 230 106l49 28q178 102 253 126t91 -17
q15 -37 -12 -97.5t-117 -193.5q-31 -46 -56.5 -86t-39.5 -63t-12 -23q14 0 78 43q248 156 376 169q71 5 78 -40q2 -22 -35.5 -47.5t-156.5 -83.5q-215 -104 -428.5 -250t-309.5 -254q-75 -85 -122.5 -111t-77.5 3z" />
    <glyph glyph-name="z" unicode="z" horiz-adv-x="815" 
d="M229 371q-98 -11 -133 14q-44 34 -15 87.5t142 145.5q204 171 164 194q-19 11 -96 -17q-85 -30 -107 -19q-28 9 -24 53.5t33 59.5q44 23 132.5 29t123.5 -13q84 -46 69.5 -114.5t-133.5 -184.5l-117 -112l113 26q144 32 319 80q205 56 224 45q18 -11 18 -55
q0 -27 -20.5 -41t-94.5 -39q-119 -38 -314.5 -84t-283.5 -55z" />
    <glyph glyph-name="braceleft" unicode="{" horiz-adv-x="1288" 
d="M176 -573q-159 114 344 794q88 119 88 131q0 2 -14 -0.5t-40 -10.5t-54 -19q-94 -34 -133 -23t-45 72q-6 43 49.5 127.5t208.5 265.5q273 325 526 571t389 316q59 32 85 37t56 -9q56 -26 49.5 -98.5t-73.5 -171.5q-72 -107 -163.5 -194.5t-123.5 -81.5q-61 11 -20 79
q26 42 96 117q120 134 147 187l29 53l-61 -33q-63 -35 -289.5 -261t-447.5 -471t-269 -327q-8 -14 32 -2q20 5 50 17q39 17 83 26t68 6q35 -3 50.5 -17t12.5 -42.5t-24.5 -70.5t-62.5 -103q-28 -42 -114 -165.5t-118 -170.5q-225 -332 -225 -391q0 -34 128 56q37 26 81 61
q85 64 129 77t57 -22q11 -29 -61.5 -103t-177.5 -141q-101 -66 -152 -79.5t-90 14.5z" />
    <glyph glyph-name="bar" unicode="|" horiz-adv-x="997" 
d="M195 -371q-14 39 71 257t568 1380q213 511 227 536q6 11 23.5 19t35.5 8q29 0 36 -10.5t5 -53.5q-4 -62 -41 -135q-26 -51 -354 -845.5t-424 -1038.5q-31 -82 -50 -111t-44 -32q-40 -6 -53 26z" />
    <glyph glyph-name="braceright" unicode="}" horiz-adv-x="964" 
d="M-977 -610q-14 36 4.5 58.5t73.5 37.5q70 22 267 181t349 317q126 131 138 153q10 18 -11 22q-5 2 -18 3q-92 10 -101 62q-12 71 125 280q87 133 271 379q442 595 442 633q0 11 -47 -4.5t-111.5 -46.5t-113.5 -62q-98 -66 -144 -115q-31 -30 -56.5 -39.5t-40.5 4
t-15 47.5q0 47 92.5 124.5t226.5 142.5q131 62 196 77.5t105 -6.5q26 -13 31.5 -31t-0.5 -69q-7 -70 -101.5 -219.5t-326.5 -458.5q-350 -465 -379 -538q-2 -7 -1 -11t6.5 -6.5t15.5 -2t26 2.5q79 12 99.5 -35.5t-25.5 -138.5q-36 -71 -164 -206.5t-288.5 -273.5
t-284.5 -218q-86 -55 -156.5 -67.5t-83.5 24.5z" />
    <glyph glyph-name="asciitilde" unicode="~" horiz-adv-x="1073" 
d="M182 414q-38 38 26.5 107.5t199.5 135.5q85 40 133 27t86 -86l37 -74l90 11q94 12 141 38q54 28 90 27t47 -29q14 -35 -28 -70.5t-120 -58t-163 -22.5q-64 0 -91 8.5t-59 40.5q-49 53 -59 76q-8 18 -34 14.5t-67.5 -30t-82.5 -66.5q-48 -43 -86.5 -56.5t-59.5 7.5z" />
    <glyph glyph-name="nbspace" unicode="&#xa0;" horiz-adv-x="645" 
 />
    <glyph glyph-name="exclamdown" unicode="&#xa1;" horiz-adv-x="718" 
d="M336 16q-89 -92 -125 -86q-20 3 -30 10.5t-10.5 27.5t8 47.5t30 76t52 107.5t77.5 147q184 345 248 496q76 174 110 193q24 13 47 -31q23 -43 -47 -214.5t-217 -431.5q-45 -81 -59 -121.5t-8 -72.5q6 -34 -7.5 -60.5t-68.5 -87.5zM788 1290q-23 -10 -49 -10q-28 1 -40 19
t0 45.5t46 52.5q56 44 78 90q17 37 45 51.5t47 -4.5q20 -18 14 -54t-24 -73.5t-50.5 -70.5t-66.5 -46z" />
    <glyph glyph-name="cent" unicode="&#xa2;" horiz-adv-x="1075" 
d="M1243 1702h14q46 -6 55 -44.5t-30 -64.5q-14 -11 -57.5 -70t-87.5 -128l-113 -172l59 -13q57 -12 81 -46.5t24 -102.5q0 -49 -20 -80.5t-105 -118.5q-95 -94 -130 -108.5t-61 28.5q-12 18 6.5 44.5t88.5 93.5q138 132 112 169q-11 18 -59 9q-57 -12 -94 -64.5
t-172 -314.5q-91 -172 -116.5 -235t-10.5 -74q23 -15 95 -5.5t122 35.5q77 40 117 18q35 -19 6 -69l-6 -10q-32 -45 -119.5 -70.5t-188.5 -19.5l-116 6l-113 -254q-108 -249 -137 -297q-20 -31 -44.5 -39.5t-41.5 10.5q-21 21 -3 88.5t87 229.5q90 213 129 284
q21 42 20 59.5t-28 67.5q-35 66 -35 159t35 171q37 79 145.5 184t206.5 156q68 35 99.5 68t86.5 125q74 124 174 270q54 76 77.5 100t47.5 25zM723 952q-22 -6 -99.5 -92t-97.5 -127q-13 -26 -22 -79t-9 -89.5t9 -42.5q2 0 19 27.5t45 78.5t55 105q110 211 106 219h-6z" />
    <glyph glyph-name="sterling" unicode="&#xa3;" horiz-adv-x="1259" 
d="M195 -33q-54 54 -13 118.5t170 127.5q60 29 97.5 67.5t109.5 145.5q115 172 115 186q0 18 -53 -2q-49 -20 -78 -47q-34 -29 -66.5 -18.5t-36.5 53.5q-5 43 42 73.5t173 67.5q35 10 50 16.5t30.5 14.5t28 28t24 39.5t35.5 67.5q52 98 158 328q107 228 219.5 332t183.5 39
q54 -47 25 -142.5t-147 -261.5q-82 -115 -88 -115l-35 13q-36 14 -22 63.5t85 155.5q90 140 90 156q0 23 -41 -19q-38 -37 -69 -88q-26 -43 -140 -290.5t-114 -262.5q0 -10 133 -10q86 0 109 -5.5t28 -27.5q7 -35 -22.5 -50t-126.5 -26q-77 -7 -113 -12t-63 -15t-36 -21.5
t-18 -35.5q-20 -49 -119 -198l-96 -148l203 15q249 16 285 11q25 -4 30 -22q1 -4 2 -14q8 -45 -49.5 -63t-257.5 -33q-75 -7 -104.5 -9t-78 -8t-62.5 -8.5t-44 -10t-37.5 -12.5t-28.5 -18t-32 -23.5l-33 -31.5q-87 -80 -104 -80q-20 0 -43 -10q-10 -4 -26.5 2t-28.5 18z" />
    <glyph glyph-name="yen" unicode="&#xa5;" horiz-adv-x="962" 
d="M1090 1444h4q49 -19 34.5 -59.5t-104.5 -139.5l-121 -131l101 -10q77 -8 107 -28.5t17 -55.5q-10 -24 -22 -27q-32 0 -131 -6q-85 -3 -115 -16t-94 -74l-90 -84h78q78 0 90 -29q14 -35 -25.5 -60t-122.5 -34l-104 -10l-78 -166q-73 -157 -116.5 -284t-32.5 -156
q17 -44 -22 -68t-73 10q-79 79 103 476q57 121 57 133q0 20 -55 -5q-30 -14 -62 -36q-69 -44 -94 -37q-22 9 -24 51t18 64q17 17 -8 40q-46 38 -22.5 99t104.5 112q50 32 60.5 52.5t10.5 81.5q0 72 26.5 184t49.5 141q20 25 55.5 22.5t45.5 -30.5q5 -12 -3.5 -54t-25.5 -85
q-39 -119 -39 -168v-58l100 31q67 20 120 60.5t179 166.5q187 187 224 187zM475 834q-41 6 -63 6q-36 -2 -76 -29q-21 -15 -36 -36.5t-15 -35.5q0 -22 10 -24q13 -2 104 28q109 36 140 58q19 17 -16 25q-17 4 -48 8z" />
    <glyph glyph-name="copyright" unicode="&#xa9;" horiz-adv-x="1284" 
d="M621 1257q102 100 217.5 168t185.5 68q56 0 109 -29q54 -25 67 -6q19 31 61.5 10.5t71.5 -75.5q54 -102 30.5 -289t-114.5 -365q-53 -105 -149.5 -235.5t-177.5 -204.5q-158 -145 -334 -200.5t-277 7.5v3q-62 39 -91 91t-36 142q-19 196 103 451t334 464zM1098 1319
q-12 30 -28.5 47t-31.5 16q-86 0 -240.5 -127.5t-273.5 -296.5q-72 -101 -124 -215t-75 -213.5t-16.5 -180.5t45.5 -120q34 -35 117 -27t176 54q99 50 228.5 179.5t199.5 250.5q108 184 153 363.5t5 271.5l-23 53l-10 -53q-8 -40 -26 -54.5t-39 -0.5t-37 53zM412 670
q33 71 114.5 152.5t170.5 136t143 55.5q14 0 20 -2q66 -15 58.5 -72.5t-89.5 -161.5q-48 -61 -104 -67q-40 -4 -46 26q-5 26 23 66q19 28 16 28q-3 1 -46 -36q-104 -86 -152.5 -178.5t-11.5 -135.5q16 -19 35.5 -22.5t52 6.5t104.5 39q84 32 106.5 35t43.5 -19q32 -32 6 -64
t-115 -69q-102 -42 -188.5 -41t-128.5 45q-41 41 -45 123t33 156z" />
    <glyph glyph-name="softhyphen" unicode="&#xad;" horiz-adv-x="0" 
 />
    <glyph glyph-name="registered" unicode="&#xae;" horiz-adv-x="1230" 
d="M1137 1511q50 0 94 -47q29 -31 37.5 -67.5t13.5 -145.5q9 -317 -154 -661q-29 -59 -49 -114.5t-20 -74.5q-3 -44 -37 -53q-14 -2 -58.5 -29.5t-91.5 -64.5q-138 -106 -288.5 -149.5t-251.5 -6.5q-70 26 -106 62t-62 106q-37 91 -23 222.5t62 269t134 278.5t193 250
q101 104 172.5 136t135.5 1q37 -17 51.5 -64t-6.5 -85q-19 -37 -49.5 -31.5t-36.5 45.5q-6 47 -41 35q-31 -10 -99 -70q-102 -90 -205 -259t-159 -337q-34 -101 -34 -214t34 -162l35 -54l10 64q11 56 42.5 119.5t115.5 197.5q79 132 79 176q0 63 96 127.5t216 81.5
q83 12 122.5 -8.5t39.5 -75.5q0 -33 -23 -68t-88 -102q-109 -116 -109 -133t46 -56.5t65 -39.5t76 131t94 258q64 221 59 355t-79 145q-47 6 -49 39q-3 33 35 56q27 17 61 17zM879 872q-17 0 -58 -20q-38 -17 -129.5 -152t-187.5 -317q-80 -153 -101 -170q-16 -12 11 -12
q61 1 172 36q44 14 71 27q93 47 144 88l55 45l-78 84q-55 60 -68.5 98.5t8 79.5t89.5 109q91 93 78 102q-2 2 -6 2z" />
    <glyph glyph-name="questiondown" unicode="&#xbf;" horiz-adv-x="997" 
d="M111 -145q-100 0 -119 16q-34 29 -25 91.5t58 129.5q25 36 118 143.5t197 221.5q280 310 352 403q68 86 99.5 108.5t54.5 0.5q40 -40 -43.5 -160.5t-364.5 -427.5q-346 -374 -346 -408q0 -11 26.5 -13t68.5 4.5t90 17.5t95.5 26.5t80.5 32.5q49 26 55 43t-25 43
q-26 22 -22 60t35 44q34 6 88.5 -46t54.5 -91q0 -49 -65.5 -106t-155.5 -88q-119 -41 -307 -45zM1094 1374q0 -35 -22.5 -64.5t-49.5 -31.5q-10 0 -14 2q-23 10 -33 10q-9 0 -9 22.5t6 48.5t15 36q20 20 66 20q23 0 32 -9t9 -34z" />
    <glyph glyph-name="Agrave" unicode="&#xc0;" horiz-adv-x="1472" 
d="M1815 1798q42 0 57 -59q6 -27 -14 -85t-76 -173q-21 -44 -49.5 -104t-41 -86.5t-12.5 -28.5q0 -9 37 -9q42 0 85 -23t52 -50q14 -46 -12 -57.5t-121 -2.5l-123 10l-149 -307q-144 -295 -176.5 -376.5t-30.5 -143.5q1 -39 -7.5 -59t-35.5 -39q-28 -17 -42.5 -18.5
t-31.5 12.5q-49 42 -1.5 193.5t212.5 481.5l111 222l-62 -13q-52 -9 -208 -57l-150 -45l-160 -186q-231 -268 -386 -487.5t-130 -244.5q39 -39 -10 -92q-22 -22 -73 -27.5t-68 11.5q-48 48 67 238q68 110 201.5 292.5t224.5 290.5q70 82 61 95q-1 1 -3 1q-36 0 -133.5 -66.5
t-116.5 -103.5q-25 -50 -68 -50.5t-55 48.5q-6 27 0.5 47t30.5 46q45 48 168.5 119.5t238.5 115.5q82 32 145 79.5t220 192.5q297 277 437 387.5t198 110.5zM1677 1575q-12 -3 -108.5 -87t-225.5 -204l-126 -119l98 25q29 6 83 19t68 16q30 7 55 40.5t76 135.5
q82 160 82 174h-2zM1702 1876q-6 -38 -39 -35.5t-64 45.5q-43 67 -73 137q-22 51 -24.5 72t11.5 41q26 33 52 23q18 -7 53 -68t61.5 -127.5t22.5 -87.5z" />
    <glyph glyph-name="Aacute" unicode="&#xc1;" horiz-adv-x="1472" 
d="M1815 1798q42 0 57 -59q6 -27 -14 -85t-76 -173q-21 -44 -49.5 -104t-41 -86.5t-12.5 -28.5q0 -9 37 -9q42 0 85 -23t52 -50q14 -46 -12 -57.5t-121 -2.5l-123 10l-149 -307q-144 -295 -176.5 -376.5t-30.5 -143.5q1 -39 -7.5 -59t-35.5 -39q-28 -17 -42.5 -18.5
t-31.5 12.5q-49 42 -1.5 193.5t212.5 481.5l111 222l-62 -13q-52 -9 -208 -57l-150 -45l-160 -186q-231 -268 -386 -487.5t-130 -244.5q39 -39 -10 -92q-22 -22 -73 -27.5t-68 11.5q-48 48 67 238q68 110 201.5 292.5t224.5 290.5q70 82 61 95q-1 1 -3 1q-36 0 -133.5 -66.5
t-116.5 -103.5q-25 -50 -68 -50.5t-55 48.5q-6 27 0.5 47t30.5 46q45 48 168.5 119.5t238.5 115.5q82 32 145 79.5t220 192.5q297 277 437 387.5t198 110.5zM1677 1575q-12 -3 -108.5 -87t-225.5 -204l-126 -119l98 25q29 6 83 19t68 16q30 7 55 40.5t76 135.5
q82 160 82 174h-2zM1673 1872q-23 22 -1.5 62t95.5 114q106 106 142 100q65 -12 10 -93q-24 -34 -72 -85q-74 -77 -112 -99t-62 1z" />
    <glyph glyph-name="Acircumflex" unicode="&#xc2;" horiz-adv-x="1472" 
d="M1815 1798q42 0 57 -59q6 -27 -14 -85t-76 -173q-21 -44 -49.5 -104t-41 -86.5t-12.5 -28.5q0 -9 37 -9q42 0 85 -23t52 -50q14 -46 -12 -57.5t-121 -2.5l-123 10l-149 -307q-144 -295 -176.5 -376.5t-30.5 -143.5q1 -39 -7.5 -59t-35.5 -39q-28 -17 -42.5 -18.5
t-31.5 12.5q-49 42 -1.5 193.5t212.5 481.5l111 222l-62 -13q-52 -9 -208 -57l-150 -45l-160 -186q-231 -268 -386 -487.5t-130 -244.5q39 -39 -10 -92q-22 -22 -73 -27.5t-68 11.5q-48 48 67 238q68 110 201.5 292.5t224.5 290.5q70 82 61 95q-1 1 -3 1q-36 0 -133.5 -66.5
t-116.5 -103.5q-25 -50 -68 -50.5t-55 48.5q-6 27 0.5 47t30.5 46q45 48 168.5 119.5t238.5 115.5q82 32 145 79.5t220 192.5q297 277 437 387.5t198 110.5zM1677 1575q-12 -3 -108.5 -87t-225.5 -204l-126 -119l98 25q29 6 83 19t68 16q30 7 55 40.5t76 135.5
q82 160 82 174h-2zM1933 1907q-26 65 -26 84q0 17 -10 16q-17 -3 -95 -63q-66 -51 -91 -54.5t-48 33.5q-12 19 3.5 42.5t76.5 78.5q87 79 123.5 96.5t75.5 -2.5q28 -15 70 -117t36 -139q-2 -11 -16 -21.5t-31 -13.5q-25 -3 -39 9.5t-29 50.5z" />
    <glyph glyph-name="Atilde" unicode="&#xc3;" horiz-adv-x="1472" 
d="M1815 1798q42 0 57 -59q6 -27 -14 -85t-76 -173q-21 -44 -49.5 -104t-41 -86.5t-12.5 -28.5q0 -9 37 -9q42 0 85 -23t52 -50q14 -46 -12 -57.5t-121 -2.5l-123 10l-149 -307q-144 -295 -176.5 -376.5t-30.5 -143.5q1 -39 -7.5 -59t-35.5 -39q-28 -17 -42.5 -18.5
t-31.5 12.5q-49 42 -1.5 193.5t212.5 481.5l111 222l-62 -13q-52 -9 -208 -57l-150 -45l-160 -186q-231 -268 -386 -487.5t-130 -244.5q39 -39 -10 -92q-22 -22 -73 -27.5t-68 11.5q-48 48 67 238q68 110 201.5 292.5t224.5 290.5q70 82 61 95q-1 1 -3 1q-36 0 -133.5 -66.5
t-116.5 -103.5q-25 -50 -68 -50.5t-55 48.5q-6 27 0.5 47t30.5 46q45 48 168.5 119.5t238.5 115.5q82 32 145 79.5t220 192.5q297 277 437 387.5t198 110.5zM1677 1575q-12 -3 -108.5 -87t-225.5 -204l-126 -119l98 25q29 6 83 19t68 16q30 7 55 40.5t76 135.5
q82 160 82 174h-2zM1640 1892q-15 33 -4 74q9 38 61.5 94t78.5 56q22 0 60 -35.5t38 -55.5q0 -16 24 -18.5t55 8t50 29.5q27 27 54.5 32.5t45 -11t17.5 -50.5q0 -32 -13 -49.5t-51 -36.5q-66 -34 -143.5 -32.5t-112.5 36.5q-35 36 -44 33.5t-19 -51.5q-9 -46 -43 -54.5
t-54 31.5z" />
    <glyph glyph-name="Adieresis" unicode="&#xc4;" horiz-adv-x="1472" 
d="M1815 1798q42 0 57 -59q6 -27 -14 -85t-76 -173q-21 -44 -49.5 -104t-41 -86.5t-12.5 -28.5q0 -9 37 -9q42 0 85 -23t52 -50q14 -46 -12 -57.5t-121 -2.5l-123 10l-149 -307q-144 -295 -176.5 -376.5t-30.5 -143.5q1 -39 -7.5 -59t-35.5 -39q-28 -17 -42.5 -18.5
t-31.5 12.5q-49 42 -1.5 193.5t212.5 481.5l111 222l-62 -13q-52 -9 -208 -57l-150 -45l-160 -186q-231 -268 -386 -487.5t-130 -244.5q39 -39 -10 -92q-22 -22 -73 -27.5t-68 11.5q-48 48 67 238q68 110 201.5 292.5t224.5 290.5q70 82 61 95q-1 1 -3 1q-36 0 -133.5 -66.5
t-116.5 -103.5q-25 -50 -68 -50.5t-55 48.5q-6 27 0.5 47t30.5 46q45 48 168.5 119.5t238.5 115.5q82 32 145 79.5t220 192.5q297 277 437 387.5t198 110.5zM1677 1575q-12 -3 -108.5 -87t-225.5 -204l-126 -119l98 25q29 6 83 19t68 16q30 7 55 40.5t76 135.5
q82 160 82 174h-2zM1657 2019q40 -2 59 -51t-14 -84q-19 -19 -50 -22t-44 12q-17 17 -11.5 66.5t25.5 66.5q18 12 35 12zM2050 2015q44 0 55.5 -8.5t14.5 -44.5q6 -48 -34 -84q-36 -30 -65 -14q-12 6 -18 22q-9 26 -12 76q-3 38 5.5 45.5t53.5 7.5z" />
    <glyph glyph-name="Aring" unicode="&#xc5;" horiz-adv-x="1472" 
d="M1815 1798q42 0 57 -59q6 -27 -14 -85t-76 -173q-21 -44 -49.5 -104t-41 -86.5t-12.5 -28.5q0 -9 37 -9q42 0 85 -23t52 -50q14 -46 -12 -57.5t-121 -2.5l-123 10l-149 -307q-144 -295 -176.5 -376.5t-30.5 -143.5q1 -39 -7.5 -59t-35.5 -39q-28 -17 -42.5 -18.5
t-31.5 12.5q-49 42 -1.5 193.5t212.5 481.5l111 222l-62 -13q-52 -9 -208 -57l-150 -45l-160 -186q-231 -268 -386 -487.5t-130 -244.5q39 -39 -10 -92q-22 -22 -73 -27.5t-68 11.5q-48 48 67 238q68 110 201.5 292.5t224.5 290.5q70 82 61 95q-1 1 -3 1q-36 0 -133.5 -66.5
t-116.5 -103.5q-25 -50 -68 -50.5t-55 48.5q-6 27 0.5 47t30.5 46q45 48 168.5 119.5t238.5 115.5q82 32 145 79.5t220 192.5q297 277 437 387.5t198 110.5zM1677 1575q-12 -3 -108.5 -87t-225.5 -204l-126 -119l98 25q29 6 83 19t68 16q30 7 55 40.5t76 135.5
q82 160 82 174h-2zM1751 2066q32 47 77 79t79 32q12 0 18 -2q37 -12 75 -77t38 -116q-1 -60 -26.5 -93.5t-88.5 -59.5q-52 -22 -71 -24t-50 10q-73 26 -88.5 100.5t37.5 150.5zM1911 1956q20 25 10.5 53.5t-37.5 28.5q-20 0 -42.5 -31t-22.5 -59q0 -14 17 -18t39.5 3.5
t35.5 22.5z" />
    <glyph glyph-name="AE" unicode="&#xc6;" horiz-adv-x="1972" 
d="M870 883q631 555 746 555q11 0 23 -7.5t16 -17.5q9 -17 33.5 -17t99.5 17q175 37 288 19t113 -82q0 -28 -31.5 -61.5t-56.5 -33.5q-7 0 -19.5 12t-21.5 27q-14 27 -34.5 31.5t-92.5 -4.5q-117 -12 -233.5 -47.5t-138.5 -65.5q-30 -41 -111 -177t-88 -159q-6 -16 12 -18
q26 -1 164 23q188 32 344.5 33.5t167.5 -29.5q17 -41 -18.5 -60.5t-130.5 -19.5q-121 -4 -312 -33q-91 -14 -129 -23t-52 -19t-17 -30q-1 -17 -9.5 -29t-17.5 -14q-14 0 -68 -4q-75 -3 -102 -233q-7 -60 1 -83t52 -69q67 -66 151 -66t208 66q97 54 138 60.5t52 -27.5
q12 -31 -31 -73t-135 -89q-96 -48 -205.5 -58t-173.5 23q-101 56 -147 140q-22 43 -24.5 149.5t16.5 173.5q18 64 12 70q-8 6 -168.5 -22.5t-212.5 -45.5q-38 -13 -125 -86t-160.5 -153t-79.5 -109q-6 -33 -32 -50.5t-53.5 -17t-49.5 19.5t-22 52q0 15 26.5 54t63.5 77
q62 67 71.5 85.5t-10.5 39.5q-74 74 138 146q83 28 146.5 72t229.5 188zM1329 1108h-2q-22 -4 -234 -186t-214 -197q4 -6 33.5 -1.5t82.5 19.5t107 35q62 23 87.5 51t82.5 134q77 142 57 145z" />
    <glyph glyph-name="Ccedilla" unicode="&#xc7;" horiz-adv-x="962" 
d="M369 223q-20 2 -47 10q-117 53 -117 222q0 68 14 114q17 52 55 127q134 246 373 510q234 257 426 365q48 25 107 28q48 3 77 -20q119 -131 -411 -582q-86 -71 -111 -88q-44 -33 -59 -37q-20 -9 -35 0q-17 10 -25 23q-10 13 -10 23t47 57q50 50 115 104q115 101 217 203
q93 93 121 141q13 22 3 21q-11 -1 -52 -29q-158 -116 -336 -317q-182 -202 -297 -389q-187 -313 -39 -365q163 -61 545 168q203 132 203 35q0 -49 -142 -141q-140 -94 -303 -152q-73 -24 -166 -33q6 -7 17.5 -21.5t17.5 -21.5q31 -42 35 -72q3 -39 -31 -65q-37 -29 -141 -68
q-72 -28 -105 -32q-30 -3 -39 14q-24 35 -8 57q17 24 90 58q52 25 74 39q23 13 25 20q3 8 -13 14q-2 1 -24 23q-12 10 -37 39q-6 6 -14 18z" />
    <glyph glyph-name="Egrave" unicode="&#xc8;" horiz-adv-x="886" 
d="M313 242q-92 41 -119 152t19 259q28 88 28 106.5t-28 43.5q-14 14 -24.5 32.5t-10.5 28.5q0 27 41 65t94 62q49 20 121 127t72 160q0 39 123 147q99 87 83 92q-15 5 -184 -75q-135 -65 -153 -107q-17 -38 -59 -44t-54 28q-25 63 62 135.5t272 144.5q287 111 569 111
q97 0 132.5 -7t60.5 -30q37 -36 37.5 -69.5t-35.5 -73.5q-31 -33 -40 -36t-40 7q-11 5 -20 21t-9 34q0 29 -13 36t-73 7q-84 0 -244.5 -29t-160.5 -44q0 -7 5 -12t11 -5q49 0 7 -81q-19 -38 -56 -87q-92 -124 -129 -186l-45 -70l45 13q103 29 194.5 37t131.5 -9
q40 -15 62 -50t3 -54q-5 -5 -54 -9.5t-108 -4.5q-115 -1 -222 -28t-142 -62q-32 -32 -89 -179.5t-65 -216.5q-8 -78 18.5 -128t75.5 -50q19 0 63.5 16t86.5 39q42 22 71 32.5t47.5 11t27 -9.5t8.5 -32q0 -37 -44 -76t-106 -63t-129.5 -33t-114.5 13zM1057 1812
q-6 -38 -39 -35t-64 46q-43 67 -73 137q-22 51 -24.5 72t11.5 41q25 32 52 22q18 -7 53 -68t61.5 -127.5t22.5 -87.5z" />
    <glyph glyph-name="Eacute" unicode="&#xc9;" horiz-adv-x="886" 
d="M313 242q-92 41 -119 152t19 259q28 88 28 106.5t-28 43.5q-14 14 -24.5 32.5t-10.5 28.5q0 27 41 65t94 62q49 20 121 127t72 160q0 39 123 147q99 87 83 92q-15 5 -184 -75q-135 -65 -153 -107q-17 -38 -59 -44t-54 28q-25 63 62 135.5t272 144.5q287 111 569 111
q97 0 132.5 -7t60.5 -30q37 -36 37.5 -69.5t-35.5 -73.5q-31 -33 -40 -36t-40 7q-11 5 -20 21t-9 34q0 29 -13 36t-73 7q-84 0 -244.5 -29t-160.5 -44q0 -7 5 -12t11 -5q49 0 7 -81q-19 -38 -56 -87q-92 -124 -129 -186l-45 -70l45 13q103 29 194.5 37t131.5 -9
q40 -15 62 -50t3 -54q-5 -5 -54 -9.5t-108 -4.5q-115 -1 -222 -28t-142 -62q-32 -32 -89 -179.5t-65 -216.5q-8 -78 18.5 -128t75.5 -50q19 0 63.5 16t86.5 39q42 22 71 32.5t47.5 11t27 -9.5t8.5 -32q0 -37 -44 -76t-106 -63t-129.5 -33t-114.5 13zM721 1757
q-23 22 -1.5 62t95.5 114q107 107 141 101q70 -13 1 -106q-23 -31 -62 -73q-74 -77 -112 -99t-62 1z" />
    <glyph glyph-name="Ecircumflex" unicode="&#xca;" horiz-adv-x="886" 
d="M313 242q-92 41 -119 152t19 259q28 88 28 106.5t-28 43.5q-14 14 -24.5 32.5t-10.5 28.5q0 27 41 65t94 62q49 20 121 127t72 160q0 39 123 147q99 87 83 92q-15 5 -184 -75q-135 -65 -153 -107q-17 -38 -59 -44t-54 28q-25 63 62 135.5t272 144.5q287 111 569 111
q97 0 132.5 -7t60.5 -30q37 -36 37.5 -69.5t-35.5 -73.5q-31 -33 -40 -36t-40 7q-11 5 -20 21t-9 34q0 29 -13 36t-73 7q-84 0 -244.5 -29t-160.5 -44q0 -7 5 -12t11 -5q49 0 7 -81q-19 -38 -56 -87q-92 -124 -129 -186l-45 -70l45 13q103 29 194.5 37t131.5 -9
q40 -15 62 -50t3 -54q-5 -5 -54 -9.5t-108 -4.5q-115 -1 -222 -28t-142 -62q-32 -32 -89 -179.5t-65 -216.5q-8 -78 18.5 -128t75.5 -50q19 0 63.5 16t86.5 39q42 22 71 32.5t47.5 11t27 -9.5t8.5 -32q0 -37 -44 -76t-106 -63t-129.5 -33t-114.5 13zM1065 1837
q-27 68 -27 84q0 17 -9 16q-15 -1 -95 -63q-66 -51 -91 -54.5t-48 33.5q-12 19 3 42.5t76 78.5q87 79 123.5 96.5t75.5 -2.5q28 -15 70.5 -117t36.5 -139q-2 -11 -16 -21t-31 -13q-25 -3 -39 9t-29 50z" />
    <glyph glyph-name="Edieresis" unicode="&#xcb;" horiz-adv-x="886" 
d="M313 242q-92 41 -119 152t19 259q28 88 28 106.5t-28 43.5q-14 14 -24.5 32.5t-10.5 28.5q0 27 41 65t94 62q49 20 121 127t72 160q0 39 123 147q99 87 83 92q-15 5 -184 -75q-135 -65 -153 -107q-17 -38 -59 -44t-54 28q-25 63 62 135.5t272 144.5q287 111 569 111
q97 0 132.5 -7t60.5 -30q37 -36 37.5 -69.5t-35.5 -73.5q-31 -33 -40 -36t-40 7q-11 5 -20 21t-9 34q0 29 -13 36t-73 7q-84 0 -244.5 -29t-160.5 -44q0 -7 5 -12t11 -5q49 0 7 -81q-19 -38 -56 -87q-92 -124 -129 -186l-45 -70l45 13q103 29 194.5 37t131.5 -9
q40 -15 62 -50t3 -54q-5 -5 -54 -9.5t-108 -4.5q-115 -1 -222 -28t-142 -62q-32 -32 -89 -179.5t-65 -216.5q-8 -78 18.5 -128t75.5 -50q19 0 63.5 16t86.5 39q42 22 71 32.5t47.5 11t27 -9.5t8.5 -32q0 -37 -44 -76t-106 -63t-129.5 -33t-114.5 13zM780 1950q40 -2 59 -51
t-14 -84q-19 -19 -49.5 -22.5t-44.5 11.5q-17 17 -11.5 66.5t25.5 66.5q19 13 35 13zM1174 1946q43 0 54.5 -9t14.5 -45q6 -48 -34 -83q-36 -31 -65 -14q-12 6 -18 22q-9 26 -12 75q-3 38 6 46t54 8z" />
    <glyph glyph-name="Igrave" unicode="&#xcc;" 
d="M408 -63q-30 28 -16.5 79.5t81.5 169.5q67 117 68 131q-4 9 -21 9q-29 0 -67 -11t-63 -26.5t-21 -26.5q11 -27 -12 -45.5t-62.5 -17.5t-69.5 24q-32 22 -20 70q21 87 305 151q59 12 102.5 28.5t46.5 27.5q10 24 265 418q66 100 126.5 194.5t92.5 145.5t31 51
q-30 0 -75.5 -27.5t-49.5 -48.5q-6 -22 -20.5 -28t-51.5 -3q-38 5 -50.5 15t-15.5 40q-6 49 53.5 86.5t225.5 90.5q276 89 443 105t188 -44q15 -43 -13 -69.5t-67 -4.5q-41 20 -193 -12l-153 -33l-64 -102q-69 -108 -106 -137q-41 -33 -236 -338l-190 -299l125 -6
q105 -4 139 -26.5t20 -78.5q-6 -25 -19 -35t-38 -10q-17 0 -33.5 6.5t-21.5 14.5q-11 19 -131 10q-79 -6 -102 -16q-34 -17 -73 -82q-20 -33 -85 -160q-38 -75 -73 -133t-46 -64q-9 -6 -25 -0.5t-28 17.5zM1372 1632q-6 -38 -38.5 -35.5t-63.5 45.5q-45 70 -74 138
q-22 50 -24 71t12 41q11 14 25 20.5t26 2.5q18 -7 53 -68t61.5 -127.5t22.5 -87.5z" />
    <glyph glyph-name="Iacute" unicode="&#xcd;" 
d="M408 -63q-30 28 -16.5 79.5t81.5 169.5q67 117 68 131q-4 9 -21 9q-29 0 -67 -11t-63 -26.5t-21 -26.5q11 -27 -12 -45.5t-62.5 -17.5t-69.5 24q-32 22 -20 70q21 87 305 151q59 12 102.5 28.5t46.5 27.5q10 24 265 418q66 100 126.5 194.5t92.5 145.5t31 51
q-30 0 -75.5 -27.5t-49.5 -48.5q-6 -22 -20.5 -28t-51.5 -3q-38 5 -50.5 15t-15.5 40q-6 49 53.5 86.5t225.5 90.5q276 89 443 105t188 -44q15 -43 -13 -69.5t-67 -4.5q-41 20 -193 -12l-153 -33l-64 -102q-69 -108 -106 -137q-41 -33 -236 -338l-190 -299l125 -6
q105 -4 139 -26.5t20 -78.5q-6 -25 -19 -35t-38 -10q-17 0 -33.5 6.5t-21.5 14.5q-11 19 -131 10q-79 -6 -102 -16q-34 -17 -73 -82q-20 -33 -85 -160q-38 -75 -73 -133t-46 -64q-9 -6 -25 -0.5t-28 17.5zM1190 1577q-23 22 -1.5 62t95.5 114q106 106 141 100q67 -13 8 -97
q-24 -33 -69 -81q-74 -77 -112 -99t-62 1z" />
    <glyph glyph-name="Icircumflex" unicode="&#xce;" 
d="M408 -63q-30 28 -16.5 79.5t81.5 169.5q67 117 68 131q-4 9 -21 9q-29 0 -67 -11t-63 -26.5t-21 -26.5q11 -27 -12 -45.5t-62.5 -17.5t-69.5 24q-32 22 -20 70q21 87 305 151q59 12 102.5 28.5t46.5 27.5q10 24 265 418q66 100 126.5 194.5t92.5 145.5t31 51
q-30 0 -75.5 -27.5t-49.5 -48.5q-6 -22 -20.5 -28t-51.5 -3q-38 5 -50.5 15t-15.5 40q-6 49 53.5 86.5t225.5 90.5q276 89 443 105t188 -44q15 -43 -13 -69.5t-67 -4.5q-41 20 -193 -12l-153 -33l-64 -102q-69 -108 -106 -137q-41 -33 -236 -338l-190 -299l125 -6
q105 -4 139 -26.5t20 -78.5q-6 -25 -19 -35t-38 -10q-17 0 -33.5 6.5t-21.5 14.5q-11 19 -131 10q-79 -6 -102 -16q-34 -17 -73 -82q-20 -33 -85 -160q-38 -75 -73 -133t-46 -64q-9 -6 -25 -0.5t-28 17.5zM1526 1649q-27 67 -27 84t-9 16q-15 -1 -95 -63
q-66 -51 -91.5 -54.5t-48.5 33.5q-12 19 3.5 42.5t76.5 78.5q87 79 123.5 96.5t75.5 -2.5q28 -15 70 -117t36 -139q-2 -11 -16 -21.5t-31 -13.5q-25 -3 -38.5 9.5t-28.5 50.5z" />
    <glyph glyph-name="Idieresis" unicode="&#xcf;" 
d="M408 -63q-30 28 -16.5 79.5t81.5 169.5q67 117 68 131q-4 9 -21 9q-29 0 -67 -11t-63 -26.5t-21 -26.5q11 -27 -12 -45.5t-62.5 -17.5t-69.5 24q-32 22 -20 70q21 87 305 151q59 12 102.5 28.5t46.5 27.5q10 24 265 418q66 100 126.5 194.5t92.5 145.5t31 51
q-30 0 -75.5 -27.5t-49.5 -48.5q-6 -22 -20.5 -28t-51.5 -3q-38 5 -50.5 15t-15.5 40q-6 49 53.5 86.5t225.5 90.5q276 89 443 105t188 -44q15 -43 -13 -69.5t-67 -4.5q-41 20 -193 -12l-153 -33l-64 -102q-69 -108 -106 -137q-41 -33 -236 -338l-190 -299l125 -6
q105 -4 139 -26.5t20 -78.5q-6 -25 -19 -35t-38 -10q-17 0 -33.5 6.5t-21.5 14.5q-11 19 -131 10q-79 -6 -102 -16q-34 -17 -73 -82q-20 -33 -85 -160q-38 -75 -73 -133t-46 -64q-9 -6 -25 -0.5t-28 17.5zM1255 1786q40 -2 59 -51t-14 -84q-19 -19 -49.5 -22.5t-44.5 11.5
q-17 17 -11 67t26 67q18 12 34 12zM1649 1782q43 0 54.5 -8.5t14.5 -44.5q6 -48 -33 -83q-36 -32 -65 -15q-12 6 -18 22q-10 29 -13 76q-3 38 6 45.5t54 7.5z" />
    <glyph glyph-name="Eth" unicode="&#xd0;" horiz-adv-x="1095" 
d="M479 682q-26 -50 -80 -170q-86 -192 -86 -215q0 -15 41 12q15 10 150 125q377 321 524 559q144 235 41 344q-25 28 -55 37q-27 8 -101 8q-67 0 -88 -6q-22 -6 -14 -20q3 -9 -12 -47q-10 -27 -43 -84q-54 -91 -166 -316q-44 -85 -51 -100q130 19 168 8q29 -15 26 -49
q-3 -31 -39 -47q-11 -4 -61 -14q-47 -10 -88 -15q-45 -5 -66 -10zM389 778q106 219 184 365q47 80 76 137q8 17 15.5 31.5t10.5 20.5t3 7q-2 4 -9.5 2t-27.5 -10q-11 -5 -24.5 -12.5t-31.5 -18t-30 -16.5q-30 -17 -98 -61q-68 -50 -72 -54q-197 -176 -80 -270q47 -38 35 -68
q-14 -33 -55 -30q-42 3 -88 37q-28 22 -37 45q-10 27 -10 73q0 26 10 78q9 46 24 72q67 119 236 233q167 109 344 150q82 15 147 18q108 3 185 -39q161 -84 143 -268q-18 -181 -213 -426q-99 -120 -295 -301q-187 -176 -336 -289q-50 -37 -80 -67q-36 -36 -39 -51
q-10 -43 -65 -46q-22 -3 -41 0q-21 3 -27 9q-17 20 -8 94t43 170q56 150 150 350l-54 -16q-16 -5 -37.5 -13t-36.5 -12.5t-26 -7.5q-50 -15 -57 -16q-27 -4 -29 -3q-9 3 -14 11q-17 17 -11 39q3 22 25 47q33 28 172 71q107 30 129 35z" />
    <glyph glyph-name="Ntilde" unicode="&#xd1;" horiz-adv-x="1384" 
d="M207 61q-14 29 -10 58.5t30 93.5q41 100 166.5 350.5t227.5 435.5q80 147 167 310q66 124 138.5 208.5t109.5 79.5q52 -8 37 -60q-14 -47 -86 -151q-53 -77 -171 -283t-210 -382t-80 -176q4 0 154 176q191 233 479 496.5t375 285.5q102 25 111 -88q3 -38 -36 -128
t-159 -324q-367 -720 -367 -834q0 -48 -26 -73t-64 -13q-36 12 -38.5 61t33.5 154t108.5 262.5t193.5 397.5q173 336 191 378l24 54l-78 -62q-244 -193 -488.5 -461.5t-463.5 -582.5q-135 -194 -193 -223q-46 -23 -75 40zM1219 1610q-15 34 -5 73q9 38 61.5 94t78.5 56
q22 0 60 -35t38 -55q0 -16 24 -19t55 7.5t50 29.5q41 42 79 33t38 -61q0 -32 -13 -49.5t-51 -36.5q-66 -34 -143.5 -32.5t-112.5 36.5q-16 16 -23.5 22t-14.5 10.5t-10.5 -3t-6.5 -16.5t-8 -32q-9 -46 -42.5 -54t-53.5 32z" />
    <glyph glyph-name="Ograve" unicode="&#xd2;" 
d="M817 1399q33 -3 55 -31q26 -35 84 -29q59 9 109 -36q36 -30 44.5 -54.5t6.5 -97.5q0 -106 -63 -252q-62 -150 -62 -164q0 -8 16.5 -15.5t39.5 -10.5q32 -6 42.5 -17t10.5 -39q0 -32 -13.5 -38.5t-76.5 -6.5h-92l-103 -155q-137 -205 -250 -302.5t-215 -97.5q-45 0 -68 10
t-46 39q-26 34 -31.5 67t0.5 130q9 172 105 412t237 444q170 244 270 244zM956 1212q-29 -3 -73 -36q-78 -60 -89.5 -135t40.5 -185q19 -43 26.5 -47.5t24.5 18.5q17 22 63 136q77 202 34 242q-10 9 -26 7zM705 1163q-10 0 -66 -78q-96 -140 -199 -383.5t-123 -379.5
q-9 -60 5 -110t40 -50q18 0 95 59q63 50 162.5 173.5t148.5 215.5l41 78l-41 43q-63 68 -88.5 198t12.5 199q18 35 13 35zM940 1505q-6 -38 -38.5 -35t-63.5 46q-46 71 -74 137q-22 50 -24 71t12 41q11 14 25 20.5t26 2.5q18 -7 53 -68t61.5 -127.5t22.5 -87.5z" />
    <glyph glyph-name="Oacute" unicode="&#xd3;" 
d="M817 1399q33 -3 55 -31q26 -35 84 -29q59 9 109 -36q36 -30 44.5 -54.5t6.5 -97.5q0 -106 -63 -252q-62 -150 -62 -164q0 -8 16.5 -15.5t39.5 -10.5q32 -6 42.5 -17t10.5 -39q0 -32 -13.5 -38.5t-76.5 -6.5h-92l-103 -155q-137 -205 -250 -302.5t-215 -97.5q-45 0 -68 10
t-46 39q-26 34 -31.5 67t0.5 130q9 172 105 412t237 444q170 244 270 244zM956 1212q-29 -3 -73 -36q-78 -60 -89.5 -135t40.5 -185q19 -43 26.5 -47.5t24.5 18.5q17 22 63 136q77 202 34 242q-10 9 -26 7zM705 1163q-10 0 -66 -78q-96 -140 -199 -383.5t-123 -379.5
q-9 -60 5 -110t40 -50q18 0 95 59q63 50 162.5 173.5t148.5 215.5l41 78l-41 43q-63 68 -88.5 198t12.5 199q18 35 13 35zM793 1499q-23 22 -1.5 62t95.5 114q107 107 141 101q70 -13 1 -106q-23 -31 -62 -73q-74 -77 -112 -99t-62 1z" />
    <glyph glyph-name="Ocircumflex" unicode="&#xd4;" 
d="M817 1399q33 -3 55 -31q26 -35 84 -29q59 9 109 -36q36 -30 44.5 -54.5t6.5 -97.5q0 -106 -63 -252q-62 -150 -62 -164q0 -8 16.5 -15.5t39.5 -10.5q32 -6 42.5 -17t10.5 -39q0 -32 -13.5 -38.5t-76.5 -6.5h-92l-103 -155q-137 -205 -250 -302.5t-215 -97.5q-45 0 -68 10
t-46 39q-26 34 -31.5 67t0.5 130q9 172 105 412t237 444q170 244 270 244zM956 1212q-29 -3 -73 -36q-78 -60 -89.5 -135t40.5 -185q19 -43 26.5 -47.5t24.5 18.5q17 22 63 136q77 202 34 242q-10 9 -26 7zM705 1163q-10 0 -66 -78q-96 -140 -199 -383.5t-123 -379.5
q-9 -60 5 -110t40 -50q18 0 95 59q63 50 162.5 173.5t148.5 215.5l41 78l-41 43q-63 68 -88.5 198t12.5 199q18 35 13 35zM1077 1499q-26 65 -26 84q0 17 -10 16q-17 -3 -95 -63q-65 -51 -90.5 -54t-48.5 34q-12 19 3.5 41.5t76.5 78.5q88 79 123 96.5t75 -1.5
q28 -15 70.5 -117t36.5 -139q-2 -11 -16 -21.5t-31 -13.5q-25 -3 -39 9t-29 50z" />
    <glyph glyph-name="Otilde" unicode="&#xd5;" 
d="M817 1399q33 -3 55 -31q26 -35 84 -29q59 9 109 -36q36 -30 44.5 -54.5t6.5 -97.5q0 -106 -63 -252q-62 -150 -62 -164q0 -8 16.5 -15.5t39.5 -10.5q32 -6 42.5 -17t10.5 -39q0 -32 -13.5 -38.5t-76.5 -6.5h-92l-103 -155q-137 -205 -250 -302.5t-215 -97.5q-45 0 -68 10
t-46 39q-26 34 -31.5 67t0.5 130q9 172 105 412t237 444q170 244 270 244zM956 1212q-29 -3 -73 -36q-78 -60 -89.5 -135t40.5 -185q19 -43 26.5 -47.5t24.5 18.5q17 22 63 136q77 202 34 242q-10 9 -26 7zM705 1163q-10 0 -66 -78q-96 -140 -199 -383.5t-123 -379.5
q-9 -60 5 -110t40 -50q18 0 95 59q63 50 162.5 173.5t148.5 215.5l41 78l-41 43q-63 68 -88.5 198t12.5 199q18 35 13 35zM831 1481q-15 33 -4 73q9 38 61.5 94t78.5 56q22 0 60 -35t38 -55q0 -16 24 -19t55 7.5t50 29.5q41 42 79 33t38 -61q0 -32 -13 -49.5t-51 -36.5
q-66 -34 -143.5 -32.5t-112.5 36.5q-16 16 -23.5 22t-14.5 10.5t-10.5 -3t-6.5 -16.5t-8 -32q-9 -46 -43 -54t-54 32z" />
    <glyph glyph-name="Odieresis" unicode="&#xd6;" 
d="M817 1399q33 -3 55 -31q26 -35 84 -29q59 9 109 -36q36 -30 44.5 -54.5t6.5 -97.5q0 -106 -63 -252q-62 -150 -62 -164q0 -8 16.5 -15.5t39.5 -10.5q32 -6 42.5 -17t10.5 -39q0 -32 -13.5 -38.5t-76.5 -6.5h-92l-103 -155q-137 -205 -250 -302.5t-215 -97.5q-45 0 -68 10
t-46 39q-26 34 -31.5 67t0.5 130q9 172 105 412t237 444q170 244 270 244zM956 1212q-29 -3 -73 -36q-78 -60 -89.5 -135t40.5 -185q19 -43 26.5 -47.5t24.5 18.5q17 22 63 136q77 202 34 242q-10 9 -26 7zM705 1163q-10 0 -66 -78q-96 -140 -199 -383.5t-123 -379.5
q-9 -60 5 -110t40 -50q18 0 95 59q63 50 162.5 173.5t148.5 215.5l41 78l-41 43q-63 68 -88.5 198t12.5 199q18 35 13 35zM831 1628q40 -2 59.5 -51t-13.5 -84q-19 -19 -50.5 -22t-44.5 12q-17 17 -11 66.5t26 66.5q18 12 34 12zM1225 1624q43 0 54.5 -8.5t14.5 -44.5
q6 -48 -33 -83q-36 -32 -65 -15q-12 6 -18 22q-10 29 -13 76q-3 38 6 45.5t54 7.5z" />
    <glyph glyph-name="Oslash" unicode="&#xd8;" 
d="M621 872q-10 30 -13 56q-24 124 13 200q18 35 12 35q-12 0 -66 -78q-99 -145 -196 -383q-98 -228 -125 -380q-9 -64 6 -111q6 -25 16 -39l58 115q29 58 97.5 193.5t106.5 211.5q49 100 91 180zM690 739q-42 -86 -116 -234l-97 -194q7 9 31.5 37t38.5 47q93 115 149 215
l41 78l-41 43q-1 1 -3 4t-3 4zM854 1339q25 49 71.5 140t67.5 131q75 147 84 162q9 9 27 18q17 7 35 4q26 0 35 -12q6 -14 0 -53q-4 -33 -17 -66q-4 -10 -33 -68q-10 -16 -139 -268l-6 -12q2 -2 7 -6t7 -6q37 -29 45 -54q9 -27 6 -98q0 -108 -63 -252q-31 -70 -43 -108
q-18 -46 -18 -56q0 -4 16 -14q15 -9 39 -12q28 -6 43 -17q10 -13 10 -39q0 -18 -4 -30q-7 -10 -25 -13q-12 -2 -61 -2h-92l-103 -155q-220 -333 -389 -387q-23 -48 -55 -113.5t-52.5 -108t-35.5 -71.5q-36 -80 -57 -107q-22 -28 -45 -28q-42 -3 -54 28q-2 6 -2 27
q0 10 13 47q1 3 40 96q2 5 82 174q10 18 25 51l-2 2q-24 9 -47 39q-19 22 -25 43q-8 19 -8 56q-2 19 2 98q12 176 107 412q91 232 235 444q170 244 270 244q31 -3 56 -31q23 -26 53 -29zM918 1196q-22 -44 -76.5 -153.5t-85.5 -172.5q1 -2 3 -7t3 -7q18 -43 29 -47
q7 -2 22 18q19 32 29 54q30 68 35 82q67 184 41 233z" />
    <glyph glyph-name="Ugrave" unicode="&#xd9;" horiz-adv-x="1359" 
d="M823 -72q-42 42 2.5 194.5t188.5 459.5l116 245l-131 -147q-38 -41 -146 -160.5t-153 -167.5q-260 -285 -364 -311q-113 -28 -151 60.5t8 271.5q28 105 157 365.5t232 418.5q257 396 348 289q17 -27 11 -63.5t-33.5 -70.5t-59.5 -40q-52 -9 -135 -127t-209 -363
q-165 -320 -205 -506q-26 -114 16 -114q52 0 1065 1118q117 127 163.5 155.5t78.5 -8.5q14 -20 2.5 -46.5t-70.5 -112.5q-135 -194 -295 -489.5t-255 -521t-60 -237.5q22 -6 22 -38t-22 -54q-22 -20 -60.5 -20t-60.5 20zM1255 1559q-6 -38 -38.5 -35.5t-63.5 45.5
q-46 71 -74 137q-21 50 -23.5 71.5t11.5 41.5q25 32 51 22q18 -7 53 -68t61.5 -127t22.5 -87z" />
    <glyph glyph-name="Uacute" unicode="&#xda;" horiz-adv-x="1359" 
d="M823 -72q-42 42 2.5 194.5t188.5 459.5l116 245l-131 -147q-38 -41 -146 -160.5t-153 -167.5q-260 -285 -364 -311q-113 -28 -151 60.5t8 271.5q28 105 157 365.5t232 418.5q257 396 348 289q17 -27 11 -63.5t-33.5 -70.5t-59.5 -40q-52 -9 -135 -127t-209 -363
q-165 -320 -205 -506q-26 -114 16 -114q52 0 1065 1118q117 127 163.5 155.5t78.5 -8.5q14 -20 2.5 -46.5t-70.5 -112.5q-135 -194 -295 -489.5t-255 -521t-60 -237.5q22 -6 22 -38t-22 -54q-22 -20 -60.5 -20t-60.5 20zM1174 1540q-23 22 -1.5 62t95.5 114q107 107 141 101
q70 -13 1 -106q-23 -31 -62 -73q-74 -77 -112 -99t-62 1z" />
    <glyph glyph-name="Ucircumflex" unicode="&#xdb;" horiz-adv-x="1359" 
d="M823 -72q-42 42 2.5 194.5t188.5 459.5l116 245l-131 -147q-38 -41 -146 -160.5t-153 -167.5q-260 -285 -364 -311q-113 -28 -151 60.5t8 271.5q28 105 157 365.5t232 418.5q257 396 348 289q17 -27 11 -63.5t-33.5 -70.5t-59.5 -40q-52 -9 -135 -127t-209 -363
q-165 -320 -205 -506q-26 -114 16 -114q52 0 1065 1118q117 127 163.5 155.5t78.5 -8.5q14 -20 2.5 -46.5t-70.5 -112.5q-135 -194 -295 -489.5t-255 -521t-60 -237.5q22 -6 22 -38t-22 -54q-22 -20 -60.5 -20t-60.5 20zM1333 1585q-26 65 -26 84q0 17 -10 16
q-17 -3 -95 -63q-65 -51 -90.5 -54t-48.5 34q-12 19 3.5 41.5t76.5 78.5q88 79 123 96.5t75 -1.5q28 -15 70.5 -117t36.5 -139q-2 -11 -16 -21.5t-31 -13.5q-25 -3 -39 9t-29 50z" />
    <glyph glyph-name="Udieresis" unicode="&#xdc;" horiz-adv-x="1359" 
d="M823 -72q-42 42 2.5 194.5t188.5 459.5l116 245l-131 -147q-38 -41 -146 -160.5t-153 -167.5q-260 -285 -364 -311q-113 -28 -151 60.5t8 271.5q28 105 157 365.5t232 418.5q257 396 348 289q17 -27 11 -63.5t-33.5 -70.5t-59.5 -40q-52 -9 -135 -127t-209 -363
q-165 -320 -205 -506q-26 -114 16 -114q52 0 1065 1118q117 127 163.5 155.5t78.5 -8.5q14 -20 2.5 -46.5t-70.5 -112.5q-135 -194 -295 -489.5t-255 -521t-60 -237.5q22 -6 22 -38t-22 -54q-22 -20 -60.5 -20t-60.5 20zM1083 1671q40 -2 59 -51t-14 -84q-19 -19 -50 -22
t-44 12q-17 17 -11 66.5t26 66.5q18 12 34 12zM1477 1667q43 0 54.5 -8.5t14.5 -44.5q6 -48 -33 -83q-36 -32 -65 -15q-12 6 -18 22q-10 29 -13 76q-3 38 6 45.5t54 7.5z" />
    <glyph glyph-name="Yacute" unicode="&#xdd;" horiz-adv-x="1042" 
d="M227 -342q-22 22 -22 51q0 34 194.5 362t468.5 756l70 107l-129 -109q-215 -181 -355.5 -201t-174.5 126q-23 103 31.5 293t148.5 335q76 115 136 124q47 7 60 -60q4 -20 4 -47q0 -45 -11 -75.5t-29 -37.5t-41 10q-9 6 -16.5 7t-17.5 -11.5t-22.5 -37t-32.5 -68.5
q-51 -110 -79.5 -218.5t-20.5 -162.5q4 -29 16.5 -37t49.5 -6q72 3 210.5 116t389.5 373q216 224 269.5 270t80.5 31q15 -7 26 -20.5t11 -24.5t-71 -127t-171 -268q-559 -852 -885 -1436q-14 -27 -40 -31t-48 17zM891 1559q-23 22 -1.5 62t95.5 114q106 106 141 100
q67 -13 8 -97q-24 -33 -69 -81q-74 -77 -112 -99t-62 1z" />
    <glyph glyph-name="agrave" unicode="&#xe0;" horiz-adv-x="925" 
d="M600 414q-280 -146 -330 -54q-45 83 27 236q42 91 31 92l-18 -12q-19 -12 -46 -30l-51 -34q-84 -57 -142 -69t-79 22q-25 37 1.5 92.5t115.5 151.5q124 133 226.5 192.5t141.5 20.5q16 -12 80 -12q37 0 55 -10t17 -35t-20 -64t-58 -100q-71 -109 -124.5 -219.5
t-41.5 -122.5q13 -13 183.5 77t322.5 191q49 33 85 55.5t65 38t48 22.5t32.5 7t21 -6t12.5 -19q17 -46 -140.5 -162.5t-414.5 -248.5zM582 1186q-6 -38 -39 -35.5t-64 45.5q-43 67 -73 137q-22 51 -24.5 72t11.5 41q25 32 51 22q28 -10 86 -130t52 -152z" />
    <glyph glyph-name="aacute" unicode="&#xe1;" horiz-adv-x="925" 
d="M600 414q-280 -146 -330 -54q-45 83 27 236q42 91 31 92l-18 -12q-19 -12 -46 -30l-51 -34q-84 -57 -142 -69t-79 22q-25 37 1.5 92.5t115.5 151.5q124 133 226.5 192.5t141.5 20.5q16 -12 80 -12q37 0 55 -10t17 -35t-20 -64t-58 -100q-71 -109 -124.5 -219.5
t-41.5 -122.5q13 -13 183.5 77t322.5 191q49 33 85 55.5t65 38t48 22.5t32.5 7t21 -6t12.5 -19q17 -46 -140.5 -162.5t-414.5 -248.5zM387 1171q-23 22 -1.5 62.5t95.5 114.5q106 106 142 100q65 -12 10 -93q-25 -35 -72 -85q-75 -78 -112.5 -99.5t-61.5 0.5z" />
    <glyph glyph-name="acircumflex" unicode="&#xe2;" horiz-adv-x="925" 
d="M600 414q-280 -146 -330 -54q-45 83 27 236q42 91 31 92l-18 -12q-19 -12 -46 -30l-51 -34q-84 -57 -142 -69t-79 22q-25 37 1.5 92.5t115.5 151.5q124 133 226.5 192.5t141.5 20.5q16 -12 80 -12q37 0 55 -10t17 -35t-20 -64t-58 -100q-71 -109 -124.5 -219.5
t-41.5 -122.5q13 -13 183.5 77t322.5 191q49 33 85 55.5t65 38t48 22.5t32.5 7t21 -6t12.5 -19q17 -46 -140.5 -162.5t-414.5 -248.5zM600 1153q-27 67 -27 84t-9 16q-15 -1 -95 -63q-66 -51 -91 -54.5t-48 33.5q-12 19 3.5 42.5t76.5 78.5q87 79 123 96t75 -2
q28 -15 70.5 -117t36.5 -139q-2 -11 -16 -21t-31 -13q-25 -3 -39 9t-29 50z" />
    <glyph glyph-name="atilde" unicode="&#xe3;" horiz-adv-x="925" 
d="M600 414q-280 -146 -330 -54q-45 83 27 236q42 91 31 92l-18 -12q-19 -12 -46 -30l-51 -34q-84 -57 -142 -69t-79 22q-25 37 1.5 92.5t115.5 151.5q124 133 226.5 192.5t141.5 20.5q16 -12 80 -12q37 0 55 -10t17 -35t-20 -64t-58 -100q-71 -109 -124.5 -219.5
t-41.5 -122.5q13 -13 183.5 77t322.5 191q49 33 85 55.5t65 38t48 22.5t32.5 7t21 -6t12.5 -19q17 -46 -140.5 -162.5t-414.5 -248.5zM420 1149q-15 33 -4 74q9 38 61 93.5t78 55.5q22 0 60 -35t38 -55q0 -16 24 -19t55 7.5t50 29.5q41 42 79 33t38 -61q0 -33 -12.5 -50
t-50.5 -36q-66 -34 -143.5 -32.5t-112.5 36.5q-14 14 -20.5 20t-14 10t-10 3t-7 -8t-6.5 -16t-6 -28q-9 -46 -42.5 -54t-53.5 32z" />
    <glyph glyph-name="adieresis" unicode="&#xe4;" horiz-adv-x="925" 
d="M600 414q-280 -146 -330 -54q-45 83 27 236q42 91 31 92l-18 -12q-19 -12 -46 -30l-51 -34q-84 -57 -142 -69t-79 22q-25 37 1.5 92.5t115.5 151.5q124 133 226.5 192.5t141.5 20.5q16 -12 80 -12q37 0 55 -10t17 -35t-20 -64t-58 -100q-71 -109 -124.5 -219.5
t-41.5 -122.5q13 -13 183.5 77t322.5 191q49 33 85 55.5t65 38t48 22.5t32.5 7t21 -6t12.5 -19q17 -46 -140.5 -162.5t-414.5 -248.5zM371 1290q40 -2 59 -51t-14 -84q-19 -19 -50 -22t-44 12q-17 17 -11.5 66.5t25.5 66.5q18 12 35 12zM670 1280q43 0 54.5 -8.5t14.5 -44.5
q6 -48 -33 -83q-36 -32 -65 -15q-12 6 -18 22q-10 29 -13 76q-3 38 6 45.5t54 7.5z" />
    <glyph glyph-name="aring" unicode="&#xe5;" horiz-adv-x="925" 
d="M600 414q-280 -146 -330 -54q-45 83 27 236q42 91 31 92l-18 -12q-19 -12 -46 -30l-51 -34q-84 -57 -142 -69t-79 22q-25 37 1.5 92.5t115.5 151.5q124 133 226.5 192.5t141.5 20.5q16 -12 80 -12q37 0 55 -10t17 -35t-20 -64t-58 -100q-71 -109 -124.5 -219.5
t-41.5 -122.5q13 -13 183.5 77t322.5 191q49 33 85 55.5t65 38t48 22.5t32.5 7t21 -6t12.5 -19q17 -46 -140.5 -162.5t-414.5 -248.5zM584 1300q32 47 76.5 79t78.5 32q13 0 19 -2q37 -12 74.5 -76.5t37.5 -115.5q-2 -60 -26.5 -94t-87.5 -60q-52 -22 -71 -24t-50 10
q-73 26 -88.5 100.5t37.5 150.5zM743 1190q20 25 11 53.5t-37 28.5q-20 0 -43 -31t-23 -59q0 -14 17 -18t39.5 3.5t35.5 22.5z" />
    <glyph glyph-name="ae" unicode="&#xe6;" horiz-adv-x="1492" 
d="M1010 930q102 68 186 65q82 -3 100 -75q10 -47 -12 -101q-21 -50 -81.5 -103t-131.5 -85t-121 -27q-40 4 -49 -4.5t-12 -54.5q-7 -76 36.5 -117t125 -37.5t180.5 51.5q92 43 125 47t47 -28q14 -37 -41.5 -82t-148.5 -76t-179 -31q-101 0 -156 33.5t-92 116.5l-41 92
l-51 -119q-42 -102 -73 -198q-12 -43 -26 -62t-36 -22q-37 -7 -51 24q-32 87 90 342l82 172l-135 -96q-436 -316 -504 -193q-12 22 -12 56q0 94 233 315q319 299 434 221q18 -11 30.5 -29.5t12.5 -35.5q0 -27 4.5 -28.5t26.5 18.5q81 68 131 24q21 -18 38 -13.5t71 40.5z
M1165 874q-20 0 -70.5 -33t-80.5 -65q-45 -48 -19 -49q30 1 105 55q72 54 77 81q-1 10 -12 11zM578 838q-5 0 -93 -62q-48 -37 -126.5 -110.5t-133 -133t-41.5 -59.5q17 0 183 109q161 107 190 134.5t27 71.5q0 50 -6 50z" />
    <glyph glyph-name="ccedilla" unicode="&#xe7;" horiz-adv-x="573" 
d="M12 342q-39 0 -69 10q-44 19 -58 64q-16 49 -2 100q36 99 150 236q114 135 250 252q130 112 192 112q71 0 80 -57t-51 -129q-59 -65 -113 -90q-58 -27 -90 -13q-19 10 -43 -8q-25 -16 -82 -80q-74 -82 -131 -172q-53 -83 -43 -102q23 -14 143 20q114 33 252 97
q234 120 234 36q0 -63 -187 -151q-173 -81 -299 -109q40 -40 66 -75q31 -42 35 -72q3 -39 -31 -66q-35 -27 -141 -67q-76 -30 -105 -33q-30 -3 -39 14q-24 35 -8 58q16 22 90 57q52 25 74 39q23 13 25 20q3 9 -13 15q-4 2 -24 22q-13 10 -37 39q-19 22 -25 33z" />
    <glyph glyph-name="egrave" unicode="&#xe8;" horiz-adv-x="759" 
d="M74 397q-10 5 -25.5 24.5t-25.5 41.5q-35 67 -4 160.5t120 187.5q117 123 217 123q79 0 95 -59t-39 -129q-41 -53 -107 -87q-70 -36 -117 -36q-27 0 -39 -9.5t-18 -35.5q-4 -20 -2 -40t10 -28q25 -25 176.5 1t323.5 85q80 27 126 40t75 14t39 -9.5t10 -34.5
q0 -39 -99.5 -87.5t-246.5 -84.5t-273 -41q-180 -4 -196 4zM373 1047q-6 -38 -39 -35.5t-64 45.5q-43 67 -73 137q-22 51 -24.5 72t11.5 41q25 32 52 22q18 -7 53 -68t61.5 -127t22.5 -87z" />
    <glyph glyph-name="eacute" unicode="&#xe9;" horiz-adv-x="759" 
d="M74 397q-10 5 -25.5 24.5t-25.5 41.5q-35 67 -4 160.5t120 187.5q117 123 217 123q79 0 95 -59t-39 -129q-41 -53 -107 -87q-70 -36 -117 -36q-27 0 -39 -9.5t-18 -35.5q-4 -20 -2 -40t10 -28q25 -25 176.5 1t323.5 85q80 27 126 40t75 14t39 -9.5t10 -34.5
q0 -39 -99.5 -87.5t-246.5 -84.5t-273 -41q-180 -4 -196 4zM295 1026q-23 22 -1.5 62t95.5 114q107 107 141 101q70 -13 1 -106q-23 -31 -62 -73q-74 -77 -112 -99t-62 1z" />
    <glyph glyph-name="ecircumflex" unicode="&#xea;" horiz-adv-x="759" 
d="M74 397q-10 5 -25.5 24.5t-25.5 41.5q-35 67 -4 160.5t120 187.5q117 123 217 123q79 0 95 -59t-39 -129q-41 -53 -107 -87q-70 -36 -117 -36q-27 0 -39 -9.5t-18 -35.5q-4 -20 -2 -40t10 -28q25 -25 176.5 1t323.5 85q80 27 126 40t75 14t39 -9.5t10 -34.5
q0 -39 -99.5 -87.5t-246.5 -84.5t-273 -41q-180 -4 -196 4zM485 1038q-26 65 -26 84q0 17 -10 16q-17 -3 -95 -63q-65 -51 -90.5 -54t-48.5 34q-12 19 3.5 42.5t76.5 78.5q87 79 123.5 96.5t75.5 -2.5q28 -15 70 -117t36 -139q-2 -11 -16 -21.5t-31 -13.5q-25 -3 -39 9
t-29 50z" />
    <glyph glyph-name="edieresis" unicode="&#xeb;" horiz-adv-x="759" 
d="M74 397q-10 5 -25.5 24.5t-25.5 41.5q-35 67 -4 160.5t120 187.5q117 123 217 123q79 0 95 -59t-39 -129q-41 -53 -107 -87q-70 -36 -117 -36q-27 0 -39 -9.5t-18 -35.5q-4 -20 -2 -40t10 -28q25 -25 176.5 1t323.5 85q80 27 126 40t75 14t39 -9.5t10 -34.5
q0 -39 -99.5 -87.5t-246.5 -84.5t-273 -41q-180 -4 -196 4zM303 1171q40 -2 59 -51t-14 -84q-19 -19 -50 -22t-44 12q-17 17 -11.5 66.5t25.5 66.5q18 12 35 12zM602 1161q44 0 55.5 -8.5t14.5 -44.5q6 -48 -34 -84q-36 -30 -65 -14q-12 6 -18 22q-9 26 -12 76
q-3 38 5.5 45.5t53.5 7.5z" />
    <glyph glyph-name="igrave" unicode="&#xec;" horiz-adv-x="528" 
d="M203 887h10q44 -6 45.5 -57t-39.5 -91q-35 -32 -97 -125t-54 -102q8 -4 237 59q234 68 258 58q24 -9 25 -44.5t-23 -54.5q-26 -20 -239 -75.5t-267 -55.5q-65 0 -86 21q-80 80 138 385q59 79 92 82zM334 1001q-6 -38 -39 -35t-64 46q-43 67 -73 137q-22 51 -24.5 72
t11.5 41q25 32 52 22q18 -7 53 -68t61.5 -127.5t22.5 -87.5z" />
    <glyph glyph-name="iacute" unicode="&#xed;" horiz-adv-x="528" 
d="M203 887h10q44 -6 45.5 -57t-39.5 -91q-35 -32 -97 -125t-54 -102q8 -4 237 59q234 68 258 58q24 -9 25 -44.5t-23 -54.5q-26 -20 -239 -75.5t-267 -55.5q-65 0 -86 21q-80 80 138 385q59 79 92 82zM162 997q-23 22 -1.5 62.5t95.5 114.5q106 106 141 100q67 -13 8 -97
q-24 -33 -69 -81q-75 -78 -112.5 -99.5t-61.5 0.5z" />
    <glyph glyph-name="icircumflex" unicode="&#xee;" horiz-adv-x="528" 
d="M203 887h10q44 -6 45.5 -57t-39.5 -91q-35 -32 -97 -125t-54 -102q8 -4 237 59q234 68 258 58q24 -9 25 -44.5t-23 -54.5q-26 -20 -239 -75.5t-267 -55.5q-65 0 -86 21q-80 80 138 385q59 79 92 82zM356 950q-26 65 -26 84q0 17 -10 16q-15 -1 -95 -63q-65 -51 -90.5 -54
t-48.5 34q-12 19 3.5 42t76.5 78q87 79 123.5 96.5t75.5 -1.5q28 -15 70 -117t36 -139q-2 -11 -16 -21.5t-31 -13.5q-25 -3 -39 9t-29 50z" />
    <glyph glyph-name="idieresis" unicode="&#xef;" horiz-adv-x="528" 
d="M203 887h10q44 -6 45.5 -57t-39.5 -91q-35 -32 -97 -125t-54 -102q8 -4 237 59q234 68 258 58q24 -9 25 -44.5t-23 -54.5q-26 -20 -239 -75.5t-267 -55.5q-65 0 -86 21q-80 80 138 385q59 79 92 82zM133 1110q40 -2 59 -51t-14 -84q-19 -19 -50 -22t-44 12
q-17 17 -11.5 66.5t25.5 66.5q18 12 35 12zM432 1100q44 0 55.5 -8.5t14.5 -44.5q6 -48 -34 -84q-36 -30 -65 -14q-12 6 -18 22q-9 26 -12 76q-3 38 5.5 45.5t53.5 7.5z" />
    <glyph glyph-name="eth" unicode="&#xf0;" horiz-adv-x="1060" 
d="M780 1272q32 0 62 -19.5t41 -52.5q5 -18 129 2q107 19 142.5 10.5t29.5 -51.5q-3 -26 -28.5 -38t-117.5 -31q-138 -28 -147 -37q-6 -6 -39 -135q-56 -206 -176 -383.5t-250 -243.5q-132 -68 -190 -4q-31 35 -31 80q0 72 115.5 243.5t199.5 223.5q55 35 83.5 36.5
t58.5 -26.5q23 -21 31.5 -13t27.5 70q10 36 13 64.5t-3 29.5q-11 5 -106 -32q-156 -68 -144 22q3 23 31.5 43t101.5 51q10 5 29 13q102 45 107 53q3 5 -12 14q-2 1 -3 2q-9 6 -14.5 23.5t-3.5 36.5q9 49 63 49zM522 676q-21 -3 -94 -117q-118 -179 -88 -180q20 0 109 78
q47 42 75.5 75t36 54t-5.5 30q-17 10 -25 50q-3 10 -8 10z" />
    <glyph glyph-name="ntilde" unicode="&#xf1;" horiz-adv-x="796" 
d="M133 555q-166 -166 -224 -176q-33 -6 -48 31q-8 20 55 145.5t141 249t107 141.5q40 25 59 -10q20 -37 -4 -90q-6 -13 -14 -25q-27 -37 -17 -37q12 0 84 52q74 55 136 55q63 0 74 -47t-27 -148q-39 -93 -39 -116q0 -27 55 -8q39 14 125 55q203 91 211 18
q0 -30 -42.5 -65.5t-104.5 -62.5t-132.5 -47t-126.5 -19.5t-86 20.5q-25 20 -27.5 79.5t19.5 113.5q18 49 10 57q-9 9 -184 -166zM240 1049q-15 33 -4 73q9 38 61 94t78 56q22 0 60 -35t38 -55q0 -16 24 -19t55 7.5t50 29.5q27 27 54.5 32.5t45 -11t17.5 -50.5
q0 -32 -13 -49.5t-51 -36.5q-66 -34 -143.5 -32t-112.5 37q-16 16 -23.5 22t-14.5 10.5t-10.5 -3t-6.5 -16.5t-8 -32q-9 -46 -42.5 -54t-53.5 32z" />
    <glyph glyph-name="ograve" unicode="&#xf2;" horiz-adv-x="546" 
d="M358 924q43 -3 58 -45q13 -35 -14.5 -123t-73.5 -164q-74 -115 -184.5 -166.5t-163.5 4.5q-34 37 -29 87t51 128q43 75 128.5 160.5t119.5 85.5q31 0 61 20q18 13 47 13zM256 754q-10 3 -39 -23q-35 -31 -88 -102t-53 -88q0 -24 52 14q62 47 99 104q18 26 27.5 48.5
t9 33.5t-7.5 13zM336 1053q-6 -38 -39 -35.5t-64 45.5q-43 67 -73 137q-22 51 -24.5 72t11.5 41q25 32 52 22q18 -7 53 -68t61.5 -127t22.5 -87z" />
    <glyph glyph-name="oacute" unicode="&#xf3;" horiz-adv-x="546" 
d="M358 924q43 -3 58 -45q13 -35 -14.5 -123t-73.5 -164q-74 -115 -184.5 -166.5t-163.5 4.5q-34 37 -29 87t51 128q43 75 128.5 160.5t119.5 85.5q31 0 61 20q18 13 47 13zM256 754q-10 3 -39 -23q-35 -31 -88 -102t-53 -88q0 -24 52 14q62 47 99 104q18 26 27.5 48.5
t9 33.5t-7.5 13zM217 1008q-23 22 -1.5 62t95.5 114q106 106 142 100q65 -12 10 -93q-25 -35 -72 -85q-74 -77 -112 -99t-62 1z" />
    <glyph glyph-name="ocircumflex" unicode="&#xf4;" horiz-adv-x="546" 
d="M358 924q43 -3 58 -45q13 -35 -14.5 -123t-73.5 -164q-74 -115 -184.5 -166.5t-163.5 4.5q-34 37 -29 87t51 128q43 75 128.5 160.5t119.5 85.5q31 0 61 20q18 13 47 13zM256 754q-10 3 -39 -23q-35 -31 -88 -102t-53 -88q0 -24 52 14q62 47 99 104q18 26 27.5 48.5
t9 33.5t-7.5 13zM494 999q-27 67 -27 84t-10 16q-17 -3 -95 -63q-65 -51 -90.5 -54t-48.5 34q-12 19 3.5 42.5t76.5 78.5q87 79 123.5 96.5t75.5 -2.5q28 -15 70 -117t36 -139q-2 -11 -16 -21.5t-31 -13.5q-25 -3 -38.5 9t-28.5 50z" />
    <glyph glyph-name="otilde" unicode="&#xf5;" horiz-adv-x="546" 
d="M358 924q43 -3 58 -45q13 -35 -14.5 -123t-73.5 -164q-74 -115 -184.5 -166.5t-163.5 4.5q-34 37 -29 87t51 128q43 75 128.5 160.5t119.5 85.5q31 0 61 20q18 13 47 13zM256 754q-10 3 -39 -23q-35 -31 -88 -102t-53 -88q0 -24 52 14q62 47 99 104q18 26 27.5 48.5
t9 33.5t-7.5 13zM215 1024q-15 33 -4 74q9 38 61 93.5t78 55.5q22 0 60.5 -35t38.5 -55q0 -16 24 -18.5t55 8t50 29.5q27 27 54 32.5t44.5 -11t17.5 -50.5q0 -33 -12.5 -50t-50.5 -36q-66 -34 -143.5 -32.5t-112.5 36.5q-35 36 -44.5 33.5t-19.5 -51.5q-9 -46 -42.5 -54.5
t-53.5 31.5z" />
    <glyph glyph-name="odieresis" unicode="&#xf6;" horiz-adv-x="546" 
d="M358 924q43 -3 58 -45q13 -35 -14.5 -123t-73.5 -164q-74 -115 -184.5 -166.5t-163.5 4.5q-34 37 -29 87t51 128q43 75 128.5 160.5t119.5 85.5q31 0 61 20q18 13 47 13zM256 754q-10 3 -39 -23q-35 -31 -88 -102t-53 -88q0 -24 52 14q62 47 99 104q18 26 27.5 48.5
t9 33.5t-7.5 13zM240 1120q40 -2 59 -51t-14 -84q-19 -19 -50.5 -22t-44.5 12q-17 17 -11 66.5t26 66.5q18 12 35 12zM539 1110q43 0 54.5 -8.5t14.5 -44.5q6 -48 -33 -83q-36 -32 -65 -15q-12 6 -18 22q-10 29 -13 76q-3 38 6 45.5t54 7.5z" />
    <glyph glyph-name="oslash" unicode="&#xf8;" horiz-adv-x="546" 
d="M137 754q-10 3 -39 -23q-20 -17 -57 -61q-32 -37 -57 -80q-27 -40 -27 -49q0 -19 29 0q32 18 63 49q44 44 60 69q56 89 28 95zM162 897q10 25 43 66q61 71 88 92q35 27 57 30q25 0 51 -20q19 -11 21 -16q4 -11 -10 -25q-5 -6 -54 -55q-28 -28 -49 -58q-12 -16 -16 -22
l4 -10q12 -42 -14 -123q-28 -85 -74 -164q-79 -117 -184 -166q-46 -21 -74 -23l-21 -20q-31 -31 -49 -57q-23 -33 -39 -62q-17 -38 -28 -49q-14 -11 -29 -2q-13 3 -25 12q-6 4 -13.5 9.5t-8.5 5.5q-40 43 39 137q47 54 67 74q-38 65 39 194q25 45 80 109q52 59 98 96
q47 41 70 41q11 0 29 6h2z" />
    <glyph glyph-name="ugrave" unicode="&#xf9;" horiz-adv-x="751" 
d="M70 389q-41 30 -41 82q0 51 37 146.5t86 175t79 88.5q28 9 58 -2t39 -35q9 -28 -2.5 -55t-34.5 -27q-47 0 -115 -178l-39 -97l41 23q46 24 160.5 137t138.5 156q23 51 70 51q38 0 53.5 -34.5t-6.5 -74.5q-21 -38 -18.5 -82t26.5 -53q12 -4 53 4t86 23q94 31 129 25
t29 -50q-6 -45 -90 -84t-176 -39q-60 0 -85.5 9.5t-55.5 40.5l-46 49l-67 -66q-113 -105 -185 -136.5t-124 3.5zM453 963q-6 -38 -39 -35.5t-64 45.5q-46 71 -74 137q-21 50 -23.5 71.5t11.5 41.5q25 32 51 22q28 -10 86 -130t52 -152z" />
    <glyph glyph-name="uacute" unicode="&#xfa;" horiz-adv-x="751" 
d="M70 389q-41 30 -41 82q0 51 37 146.5t86 175t79 88.5q28 9 58 -2t39 -35q9 -28 -2.5 -55t-34.5 -27q-47 0 -115 -178l-39 -97l41 23q46 24 160.5 137t138.5 156q23 51 70 51q38 0 53.5 -34.5t-6.5 -74.5q-21 -38 -18.5 -82t26.5 -53q12 -4 53 4t86 23q94 31 129 25
t29 -50q-6 -45 -90 -84t-176 -39q-60 0 -85.5 9.5t-55.5 40.5l-46 49l-67 -66q-113 -105 -185 -136.5t-124 3.5zM393 932q-23 22 -1.5 62t95.5 114q106 106 142 100q65 -12 10 -93q-25 -35 -72 -85q-74 -77 -112 -99t-62 1z" />
    <glyph glyph-name="ucircumflex" unicode="&#xfb;" horiz-adv-x="751" 
d="M70 389q-41 30 -41 82q0 51 37 146.5t86 175t79 88.5q28 9 58 -2t39 -35q9 -28 -2.5 -55t-34.5 -27q-47 0 -115 -178l-39 -97l41 23q46 24 160.5 137t138.5 156q23 51 70 51q38 0 53.5 -34.5t-6.5 -74.5q-21 -38 -18.5 -82t26.5 -53q12 -4 53 4t86 23q94 31 129 25
t29 -50q-6 -45 -90 -84t-176 -39q-60 0 -85.5 9.5t-55.5 40.5l-46 49l-67 -66q-113 -105 -185 -136.5t-124 3.5zM594 995q-27 67 -27 84t-9 16q-15 -1 -95 -63q-65 -51 -90.5 -54t-48.5 34q-12 19 3 42.5t76 78.5q87 79 123.5 96.5t75.5 -2.5q28 -15 70.5 -117t36.5 -139
q-2 -11 -16 -21.5t-31 -13.5q-25 -3 -39 9t-29 50z" />
    <glyph glyph-name="udieresis" unicode="&#xfc;" horiz-adv-x="751" 
d="M70 389q-41 30 -41 82q0 51 37 146.5t86 175t79 88.5q28 9 58 -2t39 -35q9 -28 -2.5 -55t-34.5 -27q-47 0 -115 -178l-39 -97l41 23q46 24 160.5 137t138.5 156q23 51 70 51q38 0 53.5 -34.5t-6.5 -74.5q-21 -38 -18.5 -82t26.5 -53q12 -4 53 4t86 23q94 31 129 25
t29 -50q-6 -45 -90 -84t-176 -39q-60 0 -85.5 9.5t-55.5 40.5l-46 49l-67 -66q-113 -105 -185 -136.5t-124 3.5zM352 1102q40 -2 59 -51t-14 -84q-19 -19 -49.5 -22.5t-44.5 11.5q-17 17 -11.5 67t25.5 67q18 12 35 12zM651 1092q43 0 55 -9t15 -45q6 -48 -34 -83
q-36 -31 -65 -14q-12 6 -18 22q-9 26 -12 75q-3 38 6 46t53 8z" />
    <glyph glyph-name="yacute" unicode="&#xfd;" horiz-adv-x="1024" 
d="M76 -55q-26 26 8.5 82.5t151.5 179.5q74 77 191.5 219t203 256t78.5 121q-4 7 -136 -68q-162 -95 -255 -118t-134 22q-36 42 -24.5 96t78.5 158q111 178 172 141q19 -11 18 -54.5t-20 -55.5t-72 -86q-70 -95 -48 -102q25 -9 230 106l49 28q178 102 253 126t91 -17
q15 -37 -12 -97.5t-117 -193.5q-31 -46 -56.5 -86t-39.5 -63t-12 -23q14 0 78 43q248 156 376 169q71 5 78 -40q2 -22 -35.5 -47.5t-156.5 -83.5q-215 -104 -428.5 -250t-309.5 -254q-75 -85 -122.5 -111t-77.5 3zM561 1053q-23 22 -1.5 62t95.5 114q106 106 142 100
q65 -12 10 -93q-25 -35 -72 -85q-74 -77 -112 -99t-62 1z" />
    <glyph glyph-name="ydieresis" unicode="&#xff;" horiz-adv-x="1024" 
d="M76 -55q-26 26 8.5 82.5t151.5 179.5q74 77 191.5 219t203 256t78.5 121q-4 7 -136 -68q-162 -95 -255 -118t-134 22q-36 42 -24.5 96t78.5 158q111 178 172 141q19 -11 18 -54.5t-20 -55.5t-72 -86q-70 -95 -48 -102q25 -9 230 106l49 28q178 102 253 126t91 -17
q15 -37 -12 -97.5t-117 -193.5q-31 -46 -56.5 -86t-39.5 -63t-12 -23q14 0 78 43q248 156 376 169q71 5 78 -40q2 -22 -35.5 -47.5t-156.5 -83.5q-215 -104 -428.5 -250t-309.5 -254q-75 -85 -122.5 -111t-77.5 3zM541 1255q40 -2 59 -51t-14 -84q-19 -19 -50 -22t-44 12
q-17 17 -11.5 66.5t25.5 66.5q18 12 35 12zM840 1245q43 0 54.5 -8.5t14.5 -44.5q6 -48 -33 -83q-36 -32 -65 -15q-12 6 -18 22q-10 29 -13 76q-3 38 6 45.5t54 7.5z" />
    <glyph glyph-name="OE" unicode="&#x152;" horiz-adv-x="1441" 
d="M1585 1530q77 0 106 -8t58 -37q80 -83 0 -166q-44 -44 -74 -33t-24 68q4 41 -5 49.5t-59 13.5q-124 9 -247.5 -72t-233.5 -245q-70 -104 -129 -203.5t-53 -103.5q4 -8 145 41q158 51 186 21q11 -13 7 -40q-3 -25 -34.5 -42.5t-131.5 -51.5q-132 -44 -141 -60q-4 -8 8 -16
q25 -18 28.5 -35.5t-19 -46t-69 -66t-131.5 -98.5q-41 -29 -51.5 -135.5t24.5 -140.5q47 -47 140.5 -24t193.5 108q34 28 64 44t41 11q51 -20 12.5 -88.5t-128.5 -127.5q-57 -37 -114 -54q-88 -25 -129 -25.5t-96 23.5q-69 31 -98 76.5t-35 134.5l-8 106l-121 -10
q-71 -6 -109.5 -1.5t-70.5 21.5q-100 51 -117.5 188t57.5 286q71 141 216 298.5t296.5 262t239.5 104.5q40 0 59.5 -10t38.5 -39q7 -12 16 -26t14.5 -22.5t6.5 -10.5q7 -7 78 61q31 31 65.5 53t57.5 23q60 8 104 26q51 19 166 19zM983 1343q-5 5 -6 5q-29 5 -129 -65
t-205 -169q-215 -206 -305.5 -384.5t-26.5 -270.5q26 -37 102 -41t158 28q53 22 82 63t29 93q0 34 43 96q37 46 92 154q31 63 35 81t-14 25q-34 13 -22 54t75 127q60 77 84.5 133t7.5 71z" />
    <glyph glyph-name="oe" unicode="&#x153;" horiz-adv-x="1079" 
d="M1024 1075q66 0 89.5 -25t23.5 -96t-52.5 -146.5t-128.5 -115.5q-65 -32 -106 -34t-84 26q-31 20 -40 14t-24 -57q-20 -68 -20 -136t20 -112q31 -66 121.5 -77.5t190.5 38.5q114 55 135 0q11 -27 -13 -56t-69 -51t-103 -39t-115.5 -18t-105.5 11q-55 17 -103 74t-67 126
l-20 72l-70 -55q-92 -74 -179.5 -76t-104.5 68q-26 112 82 276q124 188 243 263q106 67 151 7q6 -8 11 -18l21 -45l67 61q71 65 129 93t121 28zM1016 961q-19 0 -55.5 -17t-69.5 -43q-70 -53 -47 -133q3 -10 34 9t66 49.5t49 52.5q35 64 35 73t-12 9zM547 813q-27 2 -84 -67
t-109 -166q-59 -109 -51 -121q7 -11 80 33q37 24 77.5 73t66 98.5t36.5 93t-10 54.5q-2 2 -6 2z" />
    <glyph glyph-name="Ydieresis" unicode="&#x178;" horiz-adv-x="1042" 
d="M227 -342q-22 22 -22 51q0 34 194.5 362t468.5 756l70 107l-129 -109q-215 -181 -355.5 -201t-174.5 126q-23 103 31.5 293t148.5 335q76 115 136 124q47 7 60 -60q4 -20 4 -47q0 -45 -11 -75.5t-29 -37.5t-41 10q-9 6 -16.5 7t-17.5 -11.5t-22.5 -37t-32.5 -68.5
q-51 -110 -79.5 -218.5t-20.5 -162.5q4 -29 16.5 -37t49.5 -6q72 3 210.5 116t389.5 373q216 224 269.5 270t80.5 31q15 -7 26 -20.5t11 -24.5t-71 -127t-171 -268q-559 -852 -885 -1436q-14 -27 -40 -31t-48 17zM797 1780q40 -2 59 -51t-14 -84q-19 -19 -49.5 -22.5
t-44.5 11.5q-17 17 -11.5 66.5t25.5 66.5q20 13 35 13zM1190 1776q43 0 55 -9t15 -45q6 -48 -34 -83q-36 -31 -65 -14q-12 6 -18 22q-10 30 -13 75q-3 38 6 46t54 8z" />
    <glyph glyph-name="Euro" unicode="&#x20ac;" horiz-adv-x="1136" 
d="M1339 1462q42 0 64 -22q101 -87 -78 -320q-45 -59 -49 -73.5t20 -30.5q31 -20 33 -54t-26 -59q-17 -13 -31.5 -13t-42.5 13q-36 20 -163.5 13.5t-170.5 -29.5q-12 -8 -36 -39.5t-44 -67.5l-49 -90l154 8q103 7 130.5 3.5t36.5 -25.5q14 -35 -26 -56.5t-141 -31.5
q-96 -9 -137 -21t-58.5 -34t-24.5 -72q-19 -129 39.5 -207t173.5 -78q150 0 279 100q51 38 89 40t44 -33q8 -36 -42.5 -86.5t-137.5 -92.5q-211 -106 -393 -18q-168 83 -168 307q0 82 -6 96t-35 5q-68 -21 -149.5 -61.5t-98.5 -61.5q-26 -32 -59.5 -29.5t-45.5 37.5
q-14 44 45.5 91t204.5 105q89 36 122 53.5t51 37t40 65.5q42 85 31 96q-12 12 -95.5 -25t-96.5 -63q-15 -29 -59.5 -35t-59.5 19q-11 18 0 65q9 37 107.5 90.5t215.5 82.5q54 13 85 34.5t71 71.5q146 186 275 289.5t212 105.5zM1247 1210q75 94 64 117q-2 4 -8 4
q-5 2 -25 -6q-39 -22 -133.5 -110t-124.5 -132l-39 -51h43q47 0 80 10q17 4 34 19t25 31q22 41 84 118z" />
    <glyph glyph-name="unie96a" unicode="&#xe96a;" horiz-adv-x="407" 
d="M399 -27q-6 -38 -38.5 -35t-63.5 46q-46 71 -74 137q-22 50 -24 71t12 41q11 14 25 20.5t26 2.5q18 -7 53 -68t61.5 -127.5t22.5 -87.5z" />
    <glyph glyph-name="unie96b" unicode="&#xe96b;" horiz-adv-x="489" 
d="M199 0q-23 22 -1.5 62t95.5 114q106 106 141 100q67 -13 8 -97q-24 -33 -69 -81q-74 -77 -112 -99t-62 1z" />
    <glyph glyph-name="unie96c" unicode="&#xe96c;" horiz-adv-x="595" 
d="M471 49q-27 68 -27 84q0 17 -9 16q-15 -1 -95 -63q-65 -51 -90.5 -54t-48.5 34q-12 19 3.5 41.5t76.5 78.5q88 79 123 96.5t75 -1.5q28 -15 70.5 -117t36.5 -139q-2 -11 -16 -21.5t-31 -13.5q-25 -3 -39 9t-29 50z" />
    <glyph glyph-name="unie96d" unicode="&#xe96d;" horiz-adv-x="692" 
d="M211 55q-15 33 -4 74q9 38 61 94t78 56q22 0 60 -35.5t38 -55.5q0 -16 24 -18.5t55 8t50 29.5q27 27 54.5 32.5t45 -11t17.5 -50.5q0 -33 -12.5 -50t-50.5 -36q-66 -34 -143.5 -32.5t-112.5 36.5q-35 36 -44.5 33.5t-19.5 -51.5q-9 -46 -42.5 -54.5t-53.5 31.5z" />
    <glyph glyph-name="unie96e" unicode="&#xe96e;" horiz-adv-x="731" 
d="M256 291q40 -2 59 -51t-14 -84q-19 -19 -49.5 -22.5t-44.5 11.5q-17 17 -11.5 67t25.5 67q18 12 35 12zM649 287q43 0 55 -9t15 -45q6 -48 -34 -83q-36 -31 -65 -14q-12 6 -18 22q-9 26 -12 75q-3 38 6 46t53 8z" />
    <glyph glyph-name="unie96f" unicode="&#xe96f;" horiz-adv-x="532" 
d="M217 307q32 47 77 79t79 32q12 0 18 -2q37 -12 75 -77t38 -116q-1 -60 -26.5 -93.5t-88.5 -59.5q-53 -22 -71.5 -24.5t-49.5 9.5q-73 26 -88.5 101t37.5 151zM377 197q20 25 10.5 53.5t-37.5 28.5q-20 0 -42.5 -31.5t-22.5 -59.5q0 -14 17 -17.5t39.5 4t35.5 22.5z" />
    <glyph glyph-name="nonmarkingreturn.1" horiz-adv-x="0" 
 />
  </font>
</defs>
</svg>
