<svg width="56" height="45" viewBox="0 0 56 45" fill="none" xmlns="http://www.w3.org/2000/svg">
<path d="M48.7098 22.1583C46.6219 22.75 43.8781 23.8097 41.0283 25.8168L40.0783 24.5745C40.34 23.9045 40.2764 23.0807 39.7786 22.4545L38.0289 20.158C37.5372 19.4319 36.726 19.1175 35.9593 19.2274L34.3915 17.0819C36.255 16.1277 38.6462 16.1278 41.1884 17.0121C43.7424 17.9004 46.3999 19.6681 48.7098 22.1583Z" fill="#EDB842" stroke="#EDB842"/>
<path d="M30.6465 24.9623C30.4873 22.2673 31.1539 19.9336 32.6064 18.3512L34.179 20.5031C34.0632 20.8036 34.0128 21.1361 34.0252 21.4595C34.0421 21.899 34.177 22.3642 34.4746 22.7388L36.2243 25.0353C36.7119 25.7553 37.5371 26.0898 38.329 25.8901L39.2435 27.0859C37.282 28.7223 35.3403 30.8726 33.6391 33.6085C31.8095 30.7241 30.8072 27.6813 30.6465 24.9623Z" fill="#EDB842" stroke="#EDB842"/>
<path d="M50.2925 24.1342C50.4586 24.328 50.6133 24.5088 50.7672 24.7138C53.3076 28.1192 54.7242 31.8293 54.9639 35.0783C55.2039 38.3314 54.2658 41.0554 52.1876 42.6267C50.109 44.1983 47.2193 44.3638 44.1536 43.2442C41.0921 42.126 37.9189 39.7423 35.3801 36.3393L35.3585 36.3103L35.3329 36.2848C35.1186 36.0704 34.955 35.7896 34.7781 35.4456C39.5089 27.5121 45.9981 24.7907 49.9831 23.7669C50.0875 23.8951 50.1901 24.0148 50.2886 24.1297L50.2925 24.1342Z" fill="#EDB842" stroke="#EDB842"/>
<path d="M36.7526 21.0369L36.7668 21.0607L36.7836 21.0827L38.5442 23.3936C38.6303 23.5091 38.6821 23.686 38.6658 23.8571C38.6503 24.0194 38.58 24.1368 38.4658 24.2053C38.0998 24.4249 37.7345 24.3181 37.5813 24.1138L37.5813 24.1138L37.579 24.1108L35.8184 21.7999C35.7323 21.6844 35.6805 21.5075 35.6968 21.3364C35.7123 21.1741 35.7826 21.0567 35.8968 20.9882L35.9189 20.9749L35.9396 20.9595C36.0551 20.8728 36.2327 20.8206 36.4043 20.8369C36.5667 20.8524 36.684 20.9227 36.7526 21.0369Z" fill="#EDB842" stroke="#EDB842"/>
<path d="M19.0812 14.0932C19.0468 14.0457 18.9809 13.9619 18.8893 13.8455C18.3523 13.163 16.9336 11.3596 15.8221 9.18199C15.1604 7.88568 14.6393 6.50932 14.5007 5.23254C14.3635 3.96895 14.6029 2.84459 15.4075 1.96402C16.0837 1.29049 16.8015 0.942387 17.6768 1.00789C16.9021 1.0107 16.1144 1.27448 15.4637 1.92519L15.4547 1.93417L15.4462 1.9436C14.5357 2.95169 14.381 4.25783 14.5924 5.55618C14.8034 6.85135 15.3872 8.20944 16.0529 9.42866C16.7216 10.6535 17.4897 11.7682 18.0953 12.5815C18.693 13.3841 19.1523 13.9195 19.2079 13.9751C19.2069 13.9741 19.2088 13.9764 19.2133 13.9819C19.2385 14.0125 19.3455 14.1425 19.5006 14.3678C19.6755 14.6221 19.8964 14.9763 20.104 15.3979C20.5241 16.2511 20.8639 17.3289 20.7179 18.3995L20.7164 18.4106L20.7154 18.4218C20.6201 19.4701 20.1579 20.2306 19.2626 20.9293C18.5963 21.4024 17.8475 21.587 17.1007 21.4961C16.3887 21.3751 15.5936 20.9928 14.6459 20.2631C13.6945 19.5305 12.6174 18.4697 11.3461 17.0343C8.80393 14.1641 5.54445 9.86494 1.03005 3.86414C1.01291 3.83654 1.00564 3.81571 1.00254 3.80282L1.02636 3.79091L1.04673 3.77054C1.05305 3.77346 1.06021 3.77714 1.06814 3.78172C1.08686 3.79256 1.10678 3.80677 1.12644 3.82397C5.07534 9.08908 8.2726 13.3333 10.8553 16.3165C12.1494 17.8113 13.3024 19.0052 14.3298 19.8569C15.3413 20.6955 16.2849 21.2486 17.1632 21.3825C17.8591 21.5183 18.5547 21.3664 19.2131 20.8397L19.2131 20.8398L19.2208 20.8334C19.9686 20.2102 20.478 19.3309 20.6071 18.4276L20.6072 18.4277L20.6087 18.4153C20.7364 17.33 20.3235 16.2296 19.9245 15.4458C19.7205 15.0452 19.5099 14.7076 19.3502 14.4698C19.2701 14.3506 19.2024 14.2558 19.1539 14.1899C19.1297 14.1569 19.1102 14.1311 19.0964 14.113L19.0812 14.0932ZM22.511 3.73661C22.047 3.28728 21.5317 2.8324 20.9893 2.42664C21.5151 2.81394 22.0179 3.24824 22.4793 3.68716C23.1709 4.34525 23.7599 5.00476 24.1825 5.51319C24.3935 5.76718 24.5619 5.98204 24.6797 6.13841C24.7388 6.21676 24.7841 6.2791 24.8152 6.32341C24.8359 6.35295 24.8456 6.36782 24.8484 6.37195L24.8615 6.39827L24.8896 6.43529L32.1578 16.0161L32.1668 16.0279C32.1637 16.0349 32.1597 16.0429 32.1544 16.0519C32.1468 16.0651 32.1374 16.0789 32.1265 16.0929C32.121 16.0902 32.1148 16.087 32.1081 16.0831C32.0894 16.0722 32.0694 16.058 32.0498 16.0408L24.8376 6.42456C24.835 6.41988 24.8327 6.41574 24.8307 6.41221C24.8153 6.38509 24.7974 6.35714 24.7807 6.33198C24.746 6.27988 24.6989 6.21351 24.6422 6.13687C24.528 5.98241 24.3645 5.77237 24.1611 5.52583C23.7545 5.03288 23.1809 4.38537 22.511 3.73661Z" fill="#EDB842" stroke="#EDB842"/>
</svg>
