<svg width="56" height="34" viewBox="0 0 56 34" fill="none" xmlns="http://www.w3.org/2000/svg">
<mask id="path-1-inside-1_2318_2188" fill="white">
<path d="M27.146 32.325C28.2217 32.1714 29.2975 31.864 30.2195 31.5566L27.146 32.325Z"/>
</mask>
<path d="M27.146 32.325C28.2217 32.1714 29.2975 31.864 30.2195 31.5566L27.146 32.325Z" fill="#EDB842"/>
<path d="M27.2874 33.315C28.448 33.1492 29.5879 32.8213 30.5358 32.5053L29.9033 30.608C29.0071 30.9067 27.9955 31.1935 27.0046 31.3351L27.2874 33.315Z" fill="#EDB842" mask="url(#path-1-inside-1_2318_2188)"/>
<mask id="path-3-inside-2_2318_2188" fill="white">
<path d="M30.3737 31.5572C30.8348 31.4035 30.9884 30.9425 30.8347 30.4815C30.6811 30.0205 30.22 29.8668 29.759 30.0205C28.8369 30.3278 27.7612 30.6352 26.9928 30.7888C26.2244 30.9425 25.456 30.7888 24.995 30.4815C23.4582 29.4057 14.3913 21.5682 12.3935 19.8777L15.7744 7.1225L16.6964 6.81515C21.1531 6.96882 23.4582 6.81515 25.1487 6.50779C28.0686 6.20044 29.298 6.04676 38.0576 8.81295L43.2826 21.4145C43.129 21.5682 42.9753 21.7219 42.8216 21.7219C42.5142 21.8755 42.2069 22.1829 41.7459 22.4903C41.4385 22.7976 41.2848 23.2586 41.5922 23.566C41.8995 23.8734 42.3606 24.027 42.6679 23.7197C42.9753 23.4123 43.2826 23.2586 43.7437 22.9513C44.051 22.6439 44.3584 22.4903 44.6657 22.3366C44.9731 22.1829 45.1268 21.7219 44.9731 21.2608L44.2047 21.5682L44.9731 21.2608L39.287 7.73721C39.1333 7.42986 38.9797 7.27618 38.826 7.27618L38.6723 8.19824L38.9797 7.42986C29.6053 4.50998 28.3759 4.50998 25.1487 4.97102C23.3046 5.12469 21.1531 5.27837 16.6964 5.12469C16.5427 5.12469 16.3891 5.12469 16.3891 5.12469L14.8523 5.7394C14.5449 5.89308 14.3913 6.04676 14.2376 6.35411L15.006 6.50779L14.2376 6.35411L10.8567 19.8777C10.703 20.1851 10.8567 20.4924 11.164 20.7998L11.6251 20.1851L11.164 20.7998C11.164 20.7998 22.3825 30.4815 24.2266 31.8646C24.995 32.4793 26.0707 32.633 27.3002 32.4793"/>
</mask>
<path d="M30.3737 31.5572C30.8348 31.4035 30.9884 30.9425 30.8347 30.4815C30.6811 30.0205 30.22 29.8668 29.759 30.0205C28.8369 30.3278 27.7612 30.6352 26.9928 30.7888C26.2244 30.9425 25.456 30.7888 24.995 30.4815C23.4582 29.4057 14.3913 21.5682 12.3935 19.8777L15.7744 7.1225L16.6964 6.81515C21.1531 6.96882 23.4582 6.81515 25.1487 6.50779C28.0686 6.20044 29.298 6.04676 38.0576 8.81295L43.2826 21.4145C43.129 21.5682 42.9753 21.7219 42.8216 21.7219C42.5142 21.8755 42.2069 22.1829 41.7459 22.4903C41.4385 22.7976 41.2848 23.2586 41.5922 23.566C41.8995 23.8734 42.3606 24.027 42.6679 23.7197C42.9753 23.4123 43.2826 23.2586 43.7437 22.9513C44.051 22.6439 44.3584 22.4903 44.6657 22.3366C44.9731 22.1829 45.1268 21.7219 44.9731 21.2608L44.2047 21.5682L44.9731 21.2608L39.287 7.73721C39.1333 7.42986 38.9797 7.27618 38.826 7.27618L38.6723 8.19824L38.9797 7.42986C29.6053 4.50998 28.3759 4.50998 25.1487 4.97102C23.3046 5.12469 21.1531 5.27837 16.6964 5.12469C16.5427 5.12469 16.3891 5.12469 16.3891 5.12469L14.8523 5.7394C14.5449 5.89308 14.3913 6.04676 14.2376 6.35411L15.006 6.50779L14.2376 6.35411L10.8567 19.8777C10.703 20.1851 10.8567 20.4924 11.164 20.7998L11.6251 20.1851L11.164 20.7998C11.164 20.7998 22.3825 30.4815 24.2266 31.8646C24.995 32.4793 26.0707 32.633 27.3002 32.4793" fill="#EDB842"/>
<path d="M24.995 30.4815L24.4215 31.3007L24.4309 31.3072L24.4403 31.3135L24.995 30.4815ZM12.3935 19.8777L11.4268 19.6215L11.2648 20.2327L11.7475 20.6411L12.3935 19.8777ZM15.7744 7.1225L15.4581 6.17382L14.946 6.34452L14.8077 6.86629L15.7744 7.1225ZM16.6964 6.81515L16.7309 5.81574L16.551 5.80954L16.3802 5.86646L16.6964 6.81515ZM25.1487 6.50779L25.044 5.51329L25.0067 5.51721L24.9698 5.52392L25.1487 6.50779ZM38.0576 8.81295L38.9813 8.42994L38.8029 7.99964L38.3587 7.85937L38.0576 8.81295ZM43.2826 21.4145L43.9897 22.1216L44.4624 21.649L44.2064 21.0315L43.2826 21.4145ZM42.8216 21.7219V20.7219H42.5855L42.3744 20.8274L42.8216 21.7219ZM41.7459 22.4903L41.1912 21.6582L41.1088 21.7131L41.0387 21.7831L41.7459 22.4903ZM43.7437 22.9513L44.2984 23.7833L44.3808 23.7284L44.4508 23.6584L43.7437 22.9513ZM44.9731 21.2608L45.9218 20.9446L45.5864 19.9385L44.6017 20.3324L44.9731 21.2608ZM44.9731 21.2608L45.3445 22.1893L46.2894 21.8114L45.8949 20.8732L44.9731 21.2608ZM39.287 7.73721L40.2088 7.34962L40.1961 7.31936L40.1814 7.29L39.287 7.73721ZM38.826 7.27618V6.27618H37.9789L37.8396 7.11178L38.826 7.27618ZM38.6723 8.19824L37.6859 8.03384L39.6008 8.56964L38.6723 8.19824ZM38.9797 7.42986L39.9081 7.80125L40.3099 6.79681L39.277 6.4751L38.9797 7.42986ZM25.1487 4.97102L25.2317 5.96756L25.261 5.96512L25.2901 5.96097L25.1487 4.97102ZM16.6964 5.12469L16.7309 4.12529L16.7137 4.12469H16.6964V5.12469ZM16.3891 5.12469V4.12469H16.1965L16.0177 4.19622L16.3891 5.12469ZM14.8523 5.7394L14.4809 4.81093L14.4423 4.82637L14.4051 4.84498L14.8523 5.7394ZM14.2376 6.35411L13.3432 5.9069L12.7576 7.07793L14.0415 7.33469L14.2376 6.35411ZM14.2376 6.35411L14.4337 5.37353L13.4987 5.18653L13.2674 6.11158L14.2376 6.35411ZM10.8567 19.8777L11.7511 20.325L11.8002 20.2268L11.8268 20.1203L10.8567 19.8777ZM11.164 20.7998L10.4569 21.5069L11.2722 22.3222L11.964 21.3998L11.164 20.7998ZM11.164 20.7998L10.364 20.1998L9.80378 20.9468L10.5107 21.5569L11.164 20.7998ZM24.2266 31.8646L24.8513 31.0837L24.8391 31.074L24.8266 31.0646L24.2266 31.8646ZM30.6899 32.5059C31.1955 32.3374 31.5756 31.9751 31.7632 31.506C31.9428 31.0571 31.9213 30.579 31.7834 30.1653L29.8861 30.7977C29.9018 30.845 29.8804 30.8279 29.9063 30.7632C29.9198 30.7293 29.9435 30.6919 29.9779 30.6596C30.0126 30.6271 30.044 30.613 30.0575 30.6085L30.6899 32.5059ZM31.7834 30.1653C31.6149 29.6597 31.2526 29.2796 30.7835 29.092C30.3347 28.9124 29.8565 28.9339 29.4428 29.0718L30.0752 30.9691C30.1225 30.9534 30.1054 30.9748 30.0407 30.9489C30.0069 30.9354 29.9694 30.9117 29.9371 30.8773C29.9047 30.8426 29.8906 30.8112 29.8861 30.7977L31.7834 30.1653ZM29.4428 29.0718C28.5412 29.3723 27.5087 29.6659 26.7967 29.8083L27.1889 31.7694C28.0137 31.6045 29.1327 31.2833 30.0752 30.9691L29.4428 29.0718ZM26.7967 29.8083C26.2442 29.9188 25.7552 29.7864 25.5497 29.6494L24.4403 31.3135C25.1569 31.7913 26.2047 31.9663 27.1889 31.7694L26.7967 29.8083ZM25.5685 29.6623C24.8501 29.1594 22.2499 26.976 19.5152 24.6486C16.8181 22.3532 14.0362 19.9578 13.0394 19.1144L11.7475 20.6411C12.7485 21.4882 15.499 23.8567 18.219 26.1717C20.9015 28.4546 23.6031 30.7278 24.4215 31.3007L25.5685 29.6623ZM13.3601 20.1339L16.741 7.37871L14.8077 6.86629L11.4268 19.6215L13.3601 20.1339ZM16.0906 8.07118L17.0126 7.76383L16.3802 5.86646L15.4581 6.17382L16.0906 8.07118ZM16.662 7.81455C21.1445 7.96912 23.5328 7.81798 25.3276 7.49166L24.9698 5.52392C23.3836 5.81232 21.1616 5.96852 16.7309 5.81574L16.662 7.81455ZM25.2534 7.5023C26.6987 7.35016 27.6291 7.2478 29.2628 7.49641C30.9462 7.75258 33.3783 8.38397 37.7565 9.76654L38.3587 7.85937C33.9772 6.47574 31.4149 5.80088 29.5637 5.51917C27.6628 5.22991 26.5186 5.35807 25.044 5.51329L25.2534 7.5023ZM37.1339 9.19597L42.3589 21.7975L44.2064 21.0315L38.9813 8.42994L37.1339 9.19597ZM42.5755 20.7074C42.5349 20.748 42.508 20.7748 42.4834 20.7978C42.4592 20.8205 42.4502 20.8272 42.4521 20.8258C42.4529 20.8252 42.482 20.8029 42.536 20.7793C42.5923 20.7547 42.6912 20.7219 42.8216 20.7219V22.7219C43.2247 22.7219 43.5178 22.5265 43.6521 22.4258C43.7969 22.3172 43.926 22.1854 43.9897 22.1216L42.5755 20.7074ZM42.3744 20.8274C42.1193 20.955 41.8918 21.1312 41.7274 21.2591C41.5421 21.4032 41.384 21.5297 41.1912 21.6582L42.3006 23.3223C42.5688 23.1435 42.7948 22.9626 42.9553 22.8378C43.1367 22.6967 43.2166 22.6424 43.2688 22.6163L42.3744 20.8274ZM41.0387 21.7831C40.7802 22.0417 40.5437 22.4032 40.4579 22.832C40.3652 23.2957 40.4571 23.8451 40.8851 24.2731L42.2993 22.8589C42.3454 22.905 42.3885 22.9739 42.4104 23.057C42.4309 23.135 42.4249 23.1951 42.4191 23.2242C42.4136 23.2518 42.4073 23.258 42.4144 23.2458C42.421 23.2344 42.4338 23.2165 42.453 23.1974L41.0387 21.7831ZM40.8851 24.2731C41.1436 24.5317 41.5051 24.7682 41.9339 24.8539C42.3976 24.9467 42.9471 24.8548 43.375 24.4268L41.9608 23.0126C42.0069 22.9665 42.0758 22.9233 42.1589 22.9015C42.2369 22.8809 42.297 22.8869 42.3262 22.8928C42.3537 22.8983 42.3599 22.9045 42.3477 22.8975C42.3364 22.8909 42.3185 22.8781 42.2993 22.8589L40.8851 24.2731ZM43.375 24.4268C43.589 24.2128 43.7275 24.1639 44.2984 23.7833L43.189 22.1192C42.8378 22.3534 42.3615 22.6119 41.9608 23.0126L43.375 24.4268ZM44.4508 23.6584C44.632 23.4772 44.806 23.3845 45.1129 23.231L44.2185 21.4421C43.9108 21.596 43.47 21.8107 43.0366 22.2442L44.4508 23.6584ZM45.1129 23.231C46.0156 22.7797 46.1731 21.6986 45.9218 20.9446L44.0244 21.5771C44.039 21.621 44.0303 21.6406 44.0345 21.6266C44.0362 21.6208 44.0699 21.5164 44.2185 21.4421L45.1129 23.231ZM44.6017 20.3324L43.8333 20.6397L44.5761 22.4967L45.3445 22.1893L44.6017 20.3324ZM44.5761 22.4967L45.3445 22.1893L44.6017 20.3324L43.8333 20.6397L44.5761 22.4967ZM45.8949 20.8732L40.2088 7.34962L38.3652 8.1248L44.0513 21.6484L45.8949 20.8732ZM40.1814 7.29C40.0811 7.08926 39.9474 6.86812 39.7636 6.68433C39.5778 6.49849 39.2616 6.27618 38.826 6.27618V8.27618C38.5441 8.27618 38.3815 8.1307 38.3494 8.09854C38.3193 8.06843 38.3393 8.0778 38.3926 8.18442L40.1814 7.29ZM37.8396 7.11178L37.6859 8.03384L39.6587 8.36264L39.8124 7.44058L37.8396 7.11178ZM39.6008 8.56964L39.9081 7.80125L38.0512 7.05846L37.7438 7.82685L39.6008 8.56964ZM39.277 6.4751C34.5983 5.01778 31.8825 4.26604 29.9201 3.94566C27.8944 3.61493 26.6662 3.74407 25.0073 3.98107L25.2901 5.96097C26.8583 5.73693 27.8585 5.63556 29.5979 5.91953C31.4007 6.21386 33.9867 6.92206 38.6823 8.38461L39.277 6.4751ZM25.0656 3.97447C23.2542 4.12543 21.1424 4.27741 16.7309 4.12529L16.662 6.1241C21.1637 6.27933 23.3549 6.12396 25.2317 5.96756L25.0656 3.97447ZM16.6964 4.12469C16.6961 4.12469 16.6958 4.12469 16.6955 4.12469C16.6952 4.12469 16.6949 4.12469 16.6946 4.12469C16.6943 4.12469 16.694 4.12469 16.6937 4.12469C16.6934 4.12469 16.6931 4.12469 16.6928 4.12469C16.6925 4.12469 16.6922 4.12469 16.6919 4.12469C16.6916 4.12469 16.6913 4.12469 16.691 4.12469C16.6907 4.12469 16.6904 4.12469 16.6901 4.12469C16.6898 4.12469 16.6895 4.12469 16.6892 4.12469C16.6889 4.12469 16.6886 4.12469 16.6883 4.12469C16.688 4.12469 16.6877 4.12469 16.6874 4.12469C16.6871 4.12469 16.6868 4.12469 16.6865 4.12469C16.6862 4.12469 16.6859 4.12469 16.6856 4.12469C16.6853 4.12469 16.685 4.12469 16.6847 4.12469C16.6844 4.12469 16.6841 4.12469 16.6838 4.12469C16.6835 4.12469 16.6832 4.12469 16.6829 4.12469C16.6826 4.12469 16.6823 4.12469 16.682 4.12469C16.6817 4.12469 16.6814 4.12469 16.6811 4.12469C16.6808 4.12469 16.6805 4.12469 16.6802 4.12469C16.6799 4.12469 16.6796 4.12469 16.6793 4.12469C16.679 4.12469 16.6787 4.12469 16.6784 4.12469C16.6781 4.12469 16.6778 4.12469 16.6775 4.12469C16.6772 4.12469 16.6769 4.12469 16.6766 4.12469C16.6763 4.12469 16.676 4.12469 16.6757 4.12469C16.6754 4.12469 16.6751 4.12469 16.6748 4.12469C16.6745 4.12469 16.6742 4.12469 16.6739 4.12469C16.6736 4.12469 16.6733 4.12469 16.673 4.12469C16.6727 4.12469 16.6724 4.12469 16.6721 4.12469C16.6718 4.12469 16.6715 4.12469 16.6712 4.12469C16.6709 4.12469 16.6706 4.12469 16.6703 4.12469C16.67 4.12469 16.6697 4.12469 16.6694 4.12469C16.6691 4.12469 16.6688 4.12469 16.6685 4.12469C16.6682 4.12469 16.6679 4.12469 16.6676 4.12469C16.6673 4.12469 16.667 4.12469 16.6667 4.12469C16.6664 4.12469 16.6661 4.12469 16.6659 4.12469C16.6656 4.12469 16.6653 4.12469 16.665 4.12469C16.6647 4.12469 16.6644 4.12469 16.6641 4.12469C16.6638 4.12469 16.6635 4.12469 16.6632 4.12469C16.6629 4.12469 16.6626 4.12469 16.6623 4.12469C16.662 4.12469 16.6617 4.12469 16.6614 4.12469C16.6611 4.12469 16.6608 4.12469 16.6605 4.12469C16.6602 4.12469 16.6599 4.12469 16.6596 4.12469C16.6593 4.12469 16.659 4.12469 16.6587 4.12469C16.6584 4.12469 16.6581 4.12469 16.6578 4.12469C16.6575 4.12469 16.6572 4.12469 16.6569 4.12469C16.6566 4.12469 16.6563 4.12469 16.656 4.12469C16.6557 4.12469 16.6554 4.12469 16.6551 4.12469C16.6548 4.12469 16.6545 4.12469 16.6542 4.12469C16.6539 4.12469 16.6536 4.12469 16.6533 4.12469C16.653 4.12469 16.6527 4.12469 16.6524 4.12469C16.6521 4.12469 16.6518 4.12469 16.6515 4.12469C16.6512 4.12469 16.6509 4.12469 16.6506 4.12469C16.6504 4.12469 16.6501 4.12469 16.6498 4.12469C16.6495 4.12469 16.6492 4.12469 16.6489 4.12469C16.6486 4.12469 16.6483 4.12469 16.648 4.12469C16.6477 4.12469 16.6474 4.12469 16.6471 4.12469C16.6468 4.12469 16.6465 4.12469 16.6462 4.12469C16.6459 4.12469 16.6456 4.12469 16.6453 4.12469C16.645 4.12469 16.6447 4.12469 16.6444 4.12469C16.6441 4.12469 16.6438 4.12469 16.6435 4.12469C16.6432 4.12469 16.6429 4.12469 16.6426 4.12469C16.6423 4.12469 16.642 4.12469 16.6418 4.12469C16.6415 4.12469 16.6412 4.12469 16.6409 4.12469C16.6406 4.12469 16.6403 4.12469 16.64 4.12469C16.6397 4.12469 16.6394 4.12469 16.6391 4.12469C16.6388 4.12469 16.6385 4.12469 16.6382 4.12469C16.6379 4.12469 16.6376 4.12469 16.6373 4.12469C16.637 4.12469 16.6367 4.12469 16.6364 4.12469C16.6361 4.12469 16.6358 4.12469 16.6356 4.12469C16.6353 4.12469 16.635 4.12469 16.6347 4.12469C16.6344 4.12469 16.6341 4.12469 16.6338 4.12469C16.6335 4.12469 16.6332 4.12469 16.6329 4.12469C16.6326 4.12469 16.6323 4.12469 16.632 4.12469C16.6317 4.12469 16.6314 4.12469 16.6311 4.12469C16.6308 4.12469 16.6305 4.12469 16.6303 4.12469C16.63 4.12469 16.6297 4.12469 16.6294 4.12469C16.6291 4.12469 16.6288 4.12469 16.6285 4.12469C16.6282 4.12469 16.6279 4.12469 16.6276 4.12469C16.6273 4.12469 16.627 4.12469 16.6267 4.12469C16.6264 4.12469 16.6261 4.12469 16.6258 4.12469C16.6256 4.12469 16.6253 4.12469 16.625 4.12469C16.6247 4.12469 16.6244 4.12469 16.6241 4.12469C16.6238 4.12469 16.6235 4.12469 16.6232 4.12469C16.6229 4.12469 16.6226 4.12469 16.6223 4.12469C16.622 4.12469 16.6218 4.12469 16.6215 4.12469C16.6212 4.12469 16.6209 4.12469 16.6206 4.12469C16.6203 4.12469 16.62 4.12469 16.6197 4.12469C16.6194 4.12469 16.6191 4.12469 16.6188 4.12469C16.6185 4.12469 16.6183 4.12469 16.618 4.12469C16.6177 4.12469 16.6174 4.12469 16.6171 4.12469C16.6168 4.12469 16.6165 4.12469 16.6162 4.12469C16.6159 4.12469 16.6156 4.12469 16.6153 4.12469C16.6151 4.12469 16.6148 4.12469 16.6145 4.12469C16.6142 4.12469 16.6139 4.12469 16.6136 4.12469C16.6133 4.12469 16.613 4.12469 16.6127 4.12469C16.6124 4.12469 16.6121 4.12469 16.6119 4.12469C16.6116 4.12469 16.6113 4.12469 16.611 4.12469C16.6107 4.12469 16.6104 4.12469 16.6101 4.12469C16.6098 4.12469 16.6095 4.12469 16.6093 4.12469C16.609 4.12469 16.6087 4.12469 16.6084 4.12469C16.6081 4.12469 16.6078 4.12469 16.6075 4.12469C16.6072 4.12469 16.6069 4.12469 16.6067 4.12469C16.6064 4.12469 16.6061 4.12469 16.6058 4.12469C16.6055 4.12469 16.6052 4.12469 16.6049 4.12469C16.6046 4.12469 16.6043 4.12469 16.6041 4.12469C16.6038 4.12469 16.6035 4.12469 16.6032 4.12469C16.6029 4.12469 16.6026 4.12469 16.6023 4.12469C16.602 4.12469 16.6018 4.12469 16.6015 4.12469C16.6012 4.12469 16.6009 4.12469 16.6006 4.12469C16.6003 4.12469 16.6 4.12469 16.5998 4.12469C16.5995 4.12469 16.5992 4.12469 16.5989 4.12469C16.5986 4.12469 16.5983 4.12469 16.598 4.12469C16.5978 4.12469 16.5975 4.12469 16.5972 4.12469C16.5969 4.12469 16.5966 4.12469 16.5963 4.12469C16.596 4.12469 16.5958 4.12469 16.5955 4.12469C16.5952 4.12469 16.5949 4.12469 16.5946 4.12469C16.5943 4.12469 16.594 4.12469 16.5938 4.12469C16.5935 4.12469 16.5932 4.12469 16.5929 4.12469C16.5926 4.12469 16.5923 4.12469 16.592 4.12469C16.5918 4.12469 16.5915 4.12469 16.5912 4.12469C16.5909 4.12469 16.5906 4.12469 16.5903 4.12469C16.5901 4.12469 16.5898 4.12469 16.5895 4.12469C16.5892 4.12469 16.5889 4.12469 16.5886 4.12469C16.5884 4.12469 16.5881 4.12469 16.5878 4.12469C16.5875 4.12469 16.5872 4.12469 16.5869 4.12469C16.5867 4.12469 16.5864 4.12469 16.5861 4.12469C16.5858 4.12469 16.5855 4.12469 16.5853 4.12469C16.585 4.12469 16.5847 4.12469 16.5844 4.12469C16.5841 4.12469 16.5838 4.12469 16.5836 4.12469C16.5833 4.12469 16.583 4.12469 16.5827 4.12469C16.5824 4.12469 16.5822 4.12469 16.5819 4.12469C16.5816 4.12469 16.5813 4.12469 16.581 4.12469C16.5808 4.12469 16.5805 4.12469 16.5802 4.12469C16.5799 4.12469 16.5796 4.12469 16.5794 4.12469C16.5791 4.12469 16.5788 4.12469 16.5785 4.12469C16.5782 4.12469 16.578 4.12469 16.5777 4.12469C16.5774 4.12469 16.5771 4.12469 16.5768 4.12469C16.5766 4.12469 16.5763 4.12469 16.576 4.12469C16.5757 4.12469 16.5754 4.12469 16.5752 4.12469C16.5749 4.12469 16.5746 4.12469 16.5743 4.12469C16.5741 4.12469 16.5738 4.12469 16.5735 4.12469C16.5732 4.12469 16.5729 4.12469 16.5727 4.12469C16.5724 4.12469 16.5721 4.12469 16.5718 4.12469C16.5716 4.12469 16.5713 4.12469 16.571 4.12469C16.5707 4.12469 16.5705 4.12469 16.5702 4.12469C16.5699 4.12469 16.5696 4.12469 16.5693 4.12469C16.5691 4.12469 16.5688 4.12469 16.5685 4.12469C16.5682 4.12469 16.568 4.12469 16.5677 4.12469C16.5674 4.12469 16.5671 4.12469 16.5669 4.12469C16.5666 4.12469 16.5663 4.12469 16.566 4.12469C16.5658 4.12469 16.5655 4.12469 16.5652 4.12469C16.5649 4.12469 16.5647 4.12469 16.5644 4.12469C16.5641 4.12469 16.5638 4.12469 16.5636 4.12469C16.5633 4.12469 16.563 4.12469 16.5628 4.12469C16.5625 4.12469 16.5622 4.12469 16.5619 4.12469C16.5617 4.12469 16.5614 4.12469 16.5611 4.12469C16.5608 4.12469 16.5606 4.12469 16.5603 4.12469C16.56 4.12469 16.5598 4.12469 16.5595 4.12469C16.5592 4.12469 16.5589 4.12469 16.5587 4.12469C16.5584 4.12469 16.5581 4.12469 16.5579 4.12469C16.5576 4.12469 16.5573 4.12469 16.557 4.12469C16.5568 4.12469 16.5565 4.12469 16.5562 4.12469C16.556 4.12469 16.5557 4.12469 16.5554 4.12469C16.5551 4.12469 16.5549 4.12469 16.5546 4.12469C16.5543 4.12469 16.5541 4.12469 16.5538 4.12469C16.5535 4.12469 16.5533 4.12469 16.553 4.12469C16.5527 4.12469 16.5525 4.12469 16.5522 4.12469C16.5519 4.12469 16.5516 4.12469 16.5514 4.12469C16.5511 4.12469 16.5508 4.12469 16.5506 4.12469C16.5503 4.12469 16.55 4.12469 16.5498 4.12469C16.5495 4.12469 16.5492 4.12469 16.549 4.12469C16.5487 4.12469 16.5484 4.12469 16.5482 4.12469C16.5479 4.12469 16.5476 4.12469 16.5474 4.12469C16.5471 4.12469 16.5468 4.12469 16.5466 4.12469C16.5463 4.12469 16.546 4.12469 16.5458 4.12469C16.5455 4.12469 16.5452 4.12469 16.545 4.12469C16.5447 4.12469 16.5444 4.12469 16.5442 4.12469C16.5439 4.12469 16.5437 4.12469 16.5434 4.12469C16.5431 4.12469 16.5429 4.12469 16.5426 4.12469C16.5423 4.12469 16.5421 4.12469 16.5418 4.12469C16.5415 4.12469 16.5413 4.12469 16.541 4.12469C16.5408 4.12469 16.5405 4.12469 16.5402 4.12469C16.54 4.12469 16.5397 4.12469 16.5394 4.12469C16.5392 4.12469 16.5389 4.12469 16.5387 4.12469C16.5384 4.12469 16.5381 4.12469 16.5379 4.12469C16.5376 4.12469 16.5373 4.12469 16.5371 4.12469C16.5368 4.12469 16.5366 4.12469 16.5363 4.12469C16.536 4.12469 16.5358 4.12469 16.5355 4.12469C16.5353 4.12469 16.535 4.12469 16.5347 4.12469C16.5345 4.12469 16.5342 4.12469 16.534 4.12469C16.5337 4.12469 16.5334 4.12469 16.5332 4.12469C16.5329 4.12469 16.5327 4.12469 16.5324 4.12469C16.5322 4.12469 16.5319 4.12469 16.5316 4.12469C16.5314 4.12469 16.5311 4.12469 16.5309 4.12469C16.5306 4.12469 16.5303 4.12469 16.5301 4.12469C16.5298 4.12469 16.5296 4.12469 16.5293 4.12469C16.5291 4.12469 16.5288 4.12469 16.5286 4.12469C16.5283 4.12469 16.528 4.12469 16.5278 4.12469C16.5275 4.12469 16.5273 4.12469 16.527 4.12469C16.5268 4.12469 16.5265 4.12469 16.5263 4.12469C16.526 4.12469 16.5257 4.12469 16.5255 4.12469C16.5252 4.12469 16.525 4.12469 16.5247 4.12469C16.5245 4.12469 16.5242 4.12469 16.524 4.12469C16.5237 4.12469 16.5235 4.12469 16.5232 4.12469C16.523 4.12469 16.5227 4.12469 16.5224 4.12469C16.5222 4.12469 16.5219 4.12469 16.5217 4.12469C16.5214 4.12469 16.5212 4.12469 16.5209 4.12469C16.5207 4.12469 16.5204 4.12469 16.5202 4.12469C16.5199 4.12469 16.5197 4.12469 16.5194 4.12469C16.5192 4.12469 16.5189 4.12469 16.5187 4.12469C16.5184 4.12469 16.5182 4.12469 16.5179 4.12469C16.5177 4.12469 16.5174 4.12469 16.5172 4.12469C16.5169 4.12469 16.5167 4.12469 16.5164 4.12469C16.5162 4.12469 16.5159 4.12469 16.5157 4.12469C16.5154 4.12469 16.5152 4.12469 16.5149 4.12469C16.5147 4.12469 16.5144 4.12469 16.5142 4.12469C16.514 4.12469 16.5137 4.12469 16.5135 4.12469C16.5132 4.12469 16.513 4.12469 16.5127 4.12469C16.5125 4.12469 16.5122 4.12469 16.512 4.12469C16.5117 4.12469 16.5115 4.12469 16.5112 4.12469C16.511 4.12469 16.5108 4.12469 16.5105 4.12469C16.5103 4.12469 16.51 4.12469 16.5098 4.12469C16.5095 4.12469 16.5093 4.12469 16.509 4.12469C16.5088 4.12469 16.5086 4.12469 16.5083 4.12469C16.5081 4.12469 16.5078 4.12469 16.5076 4.12469C16.5073 4.12469 16.5071 4.12469 16.5069 4.12469C16.5066 4.12469 16.5064 4.12469 16.5061 4.12469C16.5059 4.12469 16.5057 4.12469 16.5054 4.12469C16.5052 4.12469 16.5049 4.12469 16.5047 4.12469C16.5044 4.12469 16.5042 4.12469 16.504 4.12469C16.5037 4.12469 16.5035 4.12469 16.5032 4.12469C16.503 4.12469 16.5028 4.12469 16.5025 4.12469C16.5023 4.12469 16.5021 4.12469 16.5018 4.12469C16.5016 4.12469 16.5013 4.12469 16.5011 4.12469C16.5009 4.12469 16.5006 4.12469 16.5004 4.12469C16.5001 4.12469 16.4999 4.12469 16.4997 4.12469C16.4994 4.12469 16.4992 4.12469 16.499 4.12469C16.4987 4.12469 16.4985 4.12469 16.4983 4.12469C16.498 4.12469 16.4978 4.12469 16.4975 4.12469C16.4973 4.12469 16.4971 4.12469 16.4968 4.12469C16.4966 4.12469 16.4964 4.12469 16.4961 4.12469C16.4959 4.12469 16.4957 4.12469 16.4954 4.12469C16.4952 4.12469 16.495 4.12469 16.4947 4.12469C16.4945 4.12469 16.4943 4.12469 16.494 4.12469C16.4938 4.12469 16.4936 4.12469 16.4933 4.12469C16.4931 4.12469 16.4929 4.12469 16.4926 4.12469C16.4924 4.12469 16.4922 4.12469 16.492 4.12469C16.4917 4.12469 16.4915 4.12469 16.4913 4.12469C16.491 4.12469 16.4908 4.12469 16.4906 4.12469C16.4903 4.12469 16.4901 4.12469 16.4899 4.12469C16.4897 4.12469 16.4894 4.12469 16.4892 4.12469C16.489 4.12469 16.4887 4.12469 16.4885 4.12469C16.4883 4.12469 16.4881 4.12469 16.4878 4.12469C16.4876 4.12469 16.4874 4.12469 16.4871 4.12469C16.4869 4.12469 16.4867 4.12469 16.4865 4.12469C16.4862 4.12469 16.486 4.12469 16.4858 4.12469C16.4856 4.12469 16.4853 4.12469 16.4851 4.12469C16.4849 4.12469 16.4847 4.12469 16.4844 4.12469C16.4842 4.12469 16.484 4.12469 16.4838 4.12469C16.4835 4.12469 16.4833 4.12469 16.4831 4.12469C16.4829 4.12469 16.4826 4.12469 16.4824 4.12469C16.4822 4.12469 16.482 4.12469 16.4818 4.12469C16.4815 4.12469 16.4813 4.12469 16.4811 4.12469C16.4809 4.12469 16.4807 4.12469 16.4804 4.12469C16.4802 4.12469 16.48 4.12469 16.4798 4.12469C16.4795 4.12469 16.4793 4.12469 16.4791 4.12469C16.4789 4.12469 16.4787 4.12469 16.4784 4.12469C16.4782 4.12469 16.478 4.12469 16.4778 4.12469C16.4776 4.12469 16.4774 4.12469 16.4771 4.12469C16.4769 4.12469 16.4767 4.12469 16.4765 4.12469C16.4763 4.12469 16.4761 4.12469 16.4758 4.12469C16.4756 4.12469 16.4754 4.12469 16.4752 4.12469C16.475 4.12469 16.4748 4.12469 16.4745 4.12469C16.4743 4.12469 16.4741 4.12469 16.4739 4.12469C16.4737 4.12469 16.4735 4.12469 16.4732 4.12469C16.473 4.12469 16.4728 4.12469 16.4726 4.12469C16.4724 4.12469 16.4722 4.12469 16.472 4.12469C16.4718 4.12469 16.4715 4.12469 16.4713 4.12469C16.4711 4.12469 16.4709 4.12469 16.4707 4.12469C16.4705 4.12469 16.4703 4.12469 16.4701 4.12469C16.4698 4.12469 16.4696 4.12469 16.4694 4.12469C16.4692 4.12469 16.469 4.12469 16.4688 4.12469C16.4686 4.12469 16.4684 4.12469 16.4682 4.12469C16.468 4.12469 16.4678 4.12469 16.4675 4.12469C16.4673 4.12469 16.4671 4.12469 16.4669 4.12469C16.4667 4.12469 16.4665 4.12469 16.4663 4.12469C16.4661 4.12469 16.4659 4.12469 16.4657 4.12469C16.4655 4.12469 16.4653 4.12469 16.4651 4.12469C16.4649 4.12469 16.4646 4.12469 16.4644 4.12469C16.4642 4.12469 16.464 4.12469 16.4638 4.12469C16.4636 4.12469 16.4634 4.12469 16.4632 4.12469C16.463 4.12469 16.4628 4.12469 16.4626 4.12469C16.4624 4.12469 16.4622 4.12469 16.462 4.12469C16.4618 4.12469 16.4616 4.12469 16.4614 4.12469C16.4612 4.12469 16.461 4.12469 16.4608 4.12469C16.4606 4.12469 16.4604 4.12469 16.4602 4.12469C16.46 4.12469 16.4598 4.12469 16.4596 4.12469C16.4594 4.12469 16.4592 4.12469 16.459 4.12469C16.4588 4.12469 16.4586 4.12469 16.4584 4.12469C16.4582 4.12469 16.458 4.12469 16.4578 4.12469C16.4576 4.12469 16.4574 4.12469 16.4572 4.12469C16.457 4.12469 16.4568 4.12469 16.4566 4.12469C16.4564 4.12469 16.4562 4.12469 16.456 4.12469C16.4558 4.12469 16.4556 4.12469 16.4554 4.12469C16.4552 4.12469 16.455 4.12469 16.4549 4.12469C16.4547 4.12469 16.4545 4.12469 16.4543 4.12469C16.4541 4.12469 16.4539 4.12469 16.4537 4.12469C16.4535 4.12469 16.4533 4.12469 16.4531 4.12469C16.4529 4.12469 16.4527 4.12469 16.4525 4.12469C16.4523 4.12469 16.4522 4.12469 16.452 4.12469C16.4518 4.12469 16.4516 4.12469 16.4514 4.12469C16.4512 4.12469 16.451 4.12469 16.4508 4.12469C16.4506 4.12469 16.4504 4.12469 16.4503 4.12469C16.4501 4.12469 16.4499 4.12469 16.4497 4.12469C16.4495 4.12469 16.4493 4.12469 16.4491 4.12469C16.4489 4.12469 16.4488 4.12469 16.4486 4.12469C16.4484 4.12469 16.4482 4.12469 16.448 4.12469C16.4478 4.12469 16.4476 4.12469 16.4474 4.12469C16.4473 4.12469 16.4471 4.12469 16.4469 4.12469C16.4467 4.12469 16.4465 4.12469 16.4463 4.12469C16.4462 4.12469 16.446 4.12469 16.4458 4.12469C16.4456 4.12469 16.4454 4.12469 16.4452 4.12469C16.4451 4.12469 16.4449 4.12469 16.4447 4.12469C16.4445 4.12469 16.4443 4.12469 16.4442 4.12469C16.444 4.12469 16.4438 4.12469 16.4436 4.12469C16.4434 4.12469 16.4433 4.12469 16.4431 4.12469C16.4429 4.12469 16.4427 4.12469 16.4425 4.12469C16.4424 4.12469 16.4422 4.12469 16.442 4.12469C16.4418 4.12469 16.4417 4.12469 16.4415 4.12469C16.4413 4.12469 16.4411 4.12469 16.4409 4.12469C16.4408 4.12469 16.4406 4.12469 16.4404 4.12469C16.4402 4.12469 16.4401 4.12469 16.4399 4.12469C16.4397 4.12469 16.4395 4.12469 16.4394 4.12469C16.4392 4.12469 16.439 4.12469 16.4388 4.12469C16.4387 4.12469 16.4385 4.12469 16.4383 4.12469C16.4382 4.12469 16.438 4.12469 16.4378 4.12469C16.4376 4.12469 16.4375 4.12469 16.4373 4.12469C16.4371 4.12469 16.437 4.12469 16.4368 4.12469C16.4366 4.12469 16.4364 4.12469 16.4363 4.12469C16.4361 4.12469 16.4359 4.12469 16.4358 4.12469C16.4356 4.12469 16.4354 4.12469 16.4353 4.12469C16.4351 4.12469 16.4349 4.12469 16.4348 4.12469C16.4346 4.12469 16.4344 4.12469 16.4343 4.12469C16.4341 4.12469 16.4339 4.12469 16.4338 4.12469C16.4336 4.12469 16.4334 4.12469 16.4333 4.12469C16.4331 4.12469 16.4329 4.12469 16.4328 4.12469C16.4326 4.12469 16.4325 4.12469 16.4323 4.12469C16.4321 4.12469 16.432 4.12469 16.4318 4.12469C16.4316 4.12469 16.4315 4.12469 16.4313 4.12469C16.4312 4.12469 16.431 4.12469 16.4308 4.12469C16.4307 4.12469 16.4305 4.12469 16.4304 4.12469C16.4302 4.12469 16.43 4.12469 16.4299 4.12469C16.4297 4.12469 16.4296 4.12469 16.4294 4.12469C16.4292 4.12469 16.4291 4.12469 16.4289 4.12469C16.4288 4.12469 16.4286 4.12469 16.4285 4.12469C16.4283 4.12469 16.4281 4.12469 16.428 4.12469C16.4278 4.12469 16.4277 4.12469 16.4275 4.12469C16.4274 4.12469 16.4272 4.12469 16.4271 4.12469C16.4269 4.12469 16.4267 4.12469 16.4266 4.12469C16.4264 4.12469 16.4263 4.12469 16.4261 4.12469C16.426 4.12469 16.4258 4.12469 16.4257 4.12469C16.4255 4.12469 16.4254 4.12469 16.4252 4.12469C16.4251 4.12469 16.4249 4.12469 16.4248 4.12469C16.4246 4.12469 16.4245 4.12469 16.4243 4.12469C16.4242 4.12469 16.424 4.12469 16.4239 4.12469C16.4237 4.12469 16.4236 4.12469 16.4234 4.12469C16.4233 4.12469 16.4231 4.12469 16.423 4.12469C16.4228 4.12469 16.4227 4.12469 16.4226 4.12469C16.4224 4.12469 16.4223 4.12469 16.4221 4.12469C16.422 4.12469 16.4218 4.12469 16.4217 4.12469C16.4215 4.12469 16.4214 4.12469 16.4212 4.12469C16.4211 4.12469 16.421 4.12469 16.4208 4.12469C16.4207 4.12469 16.4205 4.12469 16.4204 4.12469C16.4203 4.12469 16.4201 4.12469 16.42 4.12469C16.4198 4.12469 16.4197 4.12469 16.4195 4.12469C16.4194 4.12469 16.4193 4.12469 16.4191 4.12469C16.419 4.12469 16.4189 4.12469 16.4187 4.12469C16.4186 4.12469 16.4184 4.12469 16.4183 4.12469C16.4182 4.12469 16.418 4.12469 16.4179 4.12469C16.4178 4.12469 16.4176 4.12469 16.4175 4.12469C16.4173 4.12469 16.4172 4.12469 16.4171 4.12469C16.4169 4.12469 16.4168 4.12469 16.4167 4.12469C16.4165 4.12469 16.4164 4.12469 16.4163 4.12469C16.4161 4.12469 16.416 4.12469 16.4159 4.12469C16.4157 4.12469 16.4156 4.12469 16.4155 4.12469C16.4153 4.12469 16.4152 4.12469 16.4151 4.12469C16.415 4.12469 16.4148 4.12469 16.4147 4.12469C16.4146 4.12469 16.4144 4.12469 16.4143 4.12469C16.4142 4.12469 16.4141 4.12469 16.4139 4.12469C16.4138 4.12469 16.4137 4.12469 16.4135 4.12469C16.4134 4.12469 16.4133 4.12469 16.4132 4.12469C16.413 4.12469 16.4129 4.12469 16.4128 4.12469C16.4127 4.12469 16.4125 4.12469 16.4124 4.12469C16.4123 4.12469 16.4122 4.12469 16.412 4.12469C16.4119 4.12469 16.4118 4.12469 16.4117 4.12469C16.4115 4.12469 16.4114 4.12469 16.4113 4.12469C16.4112 4.12469 16.4111 4.12469 16.4109 4.12469C16.4108 4.12469 16.4107 4.12469 16.4106 4.12469C16.4105 4.12469 16.4103 4.12469 16.4102 4.12469C16.4101 4.12469 16.41 4.12469 16.4099 4.12469C16.4098 4.12469 16.4096 4.12469 16.4095 4.12469C16.4094 4.12469 16.4093 4.12469 16.4092 4.12469C16.4091 4.12469 16.4089 4.12469 16.4088 4.12469C16.4087 4.12469 16.4086 4.12469 16.4085 4.12469C16.4084 4.12469 16.4082 4.12469 16.4081 4.12469C16.408 4.12469 16.4079 4.12469 16.4078 4.12469C16.4077 4.12469 16.4076 4.12469 16.4075 4.12469C16.4074 4.12469 16.4072 4.12469 16.4071 4.12469C16.407 4.12469 16.4069 4.12469 16.4068 4.12469C16.4067 4.12469 16.4066 4.12469 16.4065 4.12469C16.4064 4.12469 16.4063 4.12469 16.4061 4.12469C16.406 4.12469 16.4059 4.12469 16.4058 4.12469C16.4057 4.12469 16.4056 4.12469 16.4055 4.12469C16.4054 4.12469 16.4053 4.12469 16.4052 4.12469C16.4051 4.12469 16.405 4.12469 16.4049 4.12469C16.4048 4.12469 16.4047 4.12469 16.4046 4.12469C16.4045 4.12469 16.4044 4.12469 16.4043 4.12469C16.4042 4.12469 16.4041 4.12469 16.404 4.12469C16.4039 4.12469 16.4038 4.12469 16.4037 4.12469C16.4036 4.12469 16.4035 4.12469 16.4034 4.12469C16.4033 4.12469 16.4032 4.12469 16.4031 4.12469C16.403 4.12469 16.4029 4.12469 16.4028 4.12469C16.4027 4.12469 16.4026 4.12469 16.4025 4.12469C16.4024 4.12469 16.4023 4.12469 16.4022 4.12469C16.4021 4.12469 16.402 4.12469 16.4019 4.12469C16.4018 4.12469 16.4017 4.12469 16.4016 4.12469C16.4015 4.12469 16.4014 4.12469 16.4013 4.12469C16.4013 4.12469 16.4012 4.12469 16.4011 4.12469C16.401 4.12469 16.4009 4.12469 16.4008 4.12469C16.4007 4.12469 16.4006 4.12469 16.4005 4.12469C16.4004 4.12469 16.4003 4.12469 16.4003 4.12469C16.4002 4.12469 16.4001 4.12469 16.4 4.12469C16.3999 4.12469 16.3998 4.12469 16.3997 4.12469C16.3996 4.12469 16.3996 4.12469 16.3995 4.12469C16.3994 4.12469 16.3993 4.12469 16.3992 4.12469C16.3991 4.12469 16.3991 4.12469 16.399 4.12469C16.3989 4.12469 16.3988 4.12469 16.3987 4.12469C16.3986 4.12469 16.3986 4.12469 16.3985 4.12469C16.3984 4.12469 16.3983 4.12469 16.3982 4.12469C16.3982 4.12469 16.3981 4.12469 16.398 4.12469C16.3979 4.12469 16.3978 4.12469 16.3978 4.12469C16.3977 4.12469 16.3976 4.12469 16.3975 4.12469C16.3974 4.12469 16.3974 4.12469 16.3973 4.12469C16.3972 4.12469 16.3971 4.12469 16.3971 4.12469C16.397 4.12469 16.3969 4.12469 16.3968 4.12469C16.3968 4.12469 16.3967 4.12469 16.3966 4.12469C16.3965 4.12469 16.3965 4.12469 16.3964 4.12469C16.3963 4.12469 16.3963 4.12469 16.3962 4.12469C16.3961 4.12469 16.396 4.12469 16.396 4.12469C16.3959 4.12469 16.3958 4.12469 16.3958 4.12469C16.3957 4.12469 16.3956 4.12469 16.3956 4.12469C16.3955 4.12469 16.3954 4.12469 16.3953 4.12469C16.3953 4.12469 16.3952 4.12469 16.3951 4.12469C16.3951 4.12469 16.395 4.12469 16.395 4.12469C16.3949 4.12469 16.3948 4.12469 16.3948 4.12469C16.3947 4.12469 16.3946 4.12469 16.3946 4.12469C16.3945 4.12469 16.3944 4.12469 16.3944 4.12469C16.3943 4.12469 16.3943 4.12469 16.3942 4.12469C16.3941 4.12469 16.3941 4.12469 16.394 4.12469C16.394 4.12469 16.3939 4.12469 16.3938 4.12469C16.3938 4.12469 16.3937 4.12469 16.3937 4.12469C16.3936 4.12469 16.3935 4.12469 16.3935 4.12469C16.3934 4.12469 16.3934 4.12469 16.3933 4.12469C16.3933 4.12469 16.3932 4.12469 16.3932 4.12469C16.3931 4.12469 16.393 4.12469 16.393 4.12469C16.3929 4.12469 16.3929 4.12469 16.3928 4.12469C16.3928 4.12469 16.3927 4.12469 16.3927 4.12469C16.3926 4.12469 16.3926 4.12469 16.3925 4.12469C16.3925 4.12469 16.3924 4.12469 16.3924 4.12469C16.3923 4.12469 16.3923 4.12469 16.3922 4.12469C16.3922 4.12469 16.3921 4.12469 16.3921 4.12469C16.392 4.12469 16.392 4.12469 16.3919 4.12469C16.3919 4.12469 16.3919 4.12469 16.3918 4.12469C16.3918 4.12469 16.3917 4.12469 16.3917 4.12469C16.3916 4.12469 16.3916 4.12469 16.3915 4.12469C16.3915 4.12469 16.3915 4.12469 16.3914 4.12469C16.3914 4.12469 16.3913 4.12469 16.3913 4.12469C16.3913 4.12469 16.3912 4.12469 16.3912 4.12469C16.3911 4.12469 16.3911 4.12469 16.3911 4.12469C16.391 4.12469 16.391 4.12469 16.3909 4.12469C16.3909 4.12469 16.3909 4.12469 16.3908 4.12469C16.3908 4.12469 16.3908 4.12469 16.3907 4.12469C16.3907 4.12469 16.3907 4.12469 16.3906 4.12469C16.3906 4.12469 16.3905 4.12469 16.3905 4.12469C16.3905 4.12469 16.3905 4.12469 16.3904 4.12469C16.3904 4.12469 16.3904 4.12469 16.3903 4.12469C16.3903 4.12469 16.3903 4.12469 16.3902 4.12469C16.3902 4.12469 16.3902 4.12469 16.3901 4.12469C16.3901 4.12469 16.3901 4.12469 16.3901 4.12469C16.39 4.12469 16.39 4.12469 16.39 4.12469C16.39 4.12469 16.3899 4.12469 16.3899 4.12469C16.3899 4.12469 16.3899 4.12469 16.3898 4.12469C16.3898 4.12469 16.3898 4.12469 16.3898 4.12469C16.3897 4.12469 16.3897 4.12469 16.3897 4.12469C16.3897 4.12469 16.3896 4.12469 16.3896 4.12469C16.3896 4.12469 16.3896 4.12469 16.3896 4.12469C16.3895 4.12469 16.3895 4.12469 16.3895 4.12469C16.3895 4.12469 16.3895 4.12469 16.3895 4.12469C16.3894 4.12469 16.3894 4.12469 16.3894 4.12469C16.3894 4.12469 16.3894 4.12469 16.3894 4.12469C16.3893 4.12469 16.3893 4.12469 16.3893 4.12469C16.3893 4.12469 16.3893 4.12469 16.3893 4.12469C16.3893 4.12469 16.3893 4.12469 16.3892 4.12469C16.3892 4.12469 16.3892 4.12469 16.3892 4.12469C16.3892 4.12469 16.3892 4.12469 16.3892 4.12469C16.3892 4.12469 16.3892 4.12469 16.3892 4.12469C16.3891 4.12469 16.3891 4.12469 16.3891 4.12469C16.3891 4.12469 16.3891 4.12469 16.3891 4.12469C16.3891 4.12469 16.3891 4.12469 16.3891 4.12469C16.3891 4.12469 16.3891 4.12469 16.3891 4.12469C16.3891 4.12469 16.3891 4.12469 16.3891 4.12469C16.3891 4.12469 16.3891 4.12469 16.3891 4.12469C16.3891 4.12469 16.3891 4.12469 16.3891 5.12469C16.3891 6.12469 16.3891 6.12469 16.3891 6.12469C16.3891 6.12469 16.3891 6.12469 16.3891 6.12469C16.3891 6.12469 16.3891 6.12469 16.3891 6.12469C16.3891 6.12469 16.3891 6.12469 16.3891 6.12469C16.3891 6.12469 16.3891 6.12469 16.3891 6.12469C16.3891 6.12469 16.3891 6.12469 16.3891 6.12469C16.3891 6.12469 16.3891 6.12469 16.3892 6.12469C16.3892 6.12469 16.3892 6.12469 16.3892 6.12469C16.3892 6.12469 16.3892 6.12469 16.3892 6.12469C16.3892 6.12469 16.3892 6.12469 16.3892 6.12469C16.3893 6.12469 16.3893 6.12469 16.3893 6.12469C16.3893 6.12469 16.3893 6.12469 16.3893 6.12469C16.3893 6.12469 16.3893 6.12469 16.3894 6.12469C16.3894 6.12469 16.3894 6.12469 16.3894 6.12469C16.3894 6.12469 16.3894 6.12469 16.3895 6.12469C16.3895 6.12469 16.3895 6.12469 16.3895 6.12469C16.3895 6.12469 16.3895 6.12469 16.3896 6.12469C16.3896 6.12469 16.3896 6.12469 16.3896 6.12469C16.3896 6.12469 16.3897 6.12469 16.3897 6.12469C16.3897 6.12469 16.3897 6.12469 16.3898 6.12469C16.3898 6.12469 16.3898 6.12469 16.3898 6.12469C16.3899 6.12469 16.3899 6.12469 16.3899 6.12469C16.3899 6.12469 16.39 6.12469 16.39 6.12469C16.39 6.12469 16.39 6.12469 16.3901 6.12469C16.3901 6.12469 16.3901 6.12469 16.3901 6.12469C16.3902 6.12469 16.3902 6.12469 16.3902 6.12469C16.3903 6.12469 16.3903 6.12469 16.3903 6.12469C16.3904 6.12469 16.3904 6.12469 16.3904 6.12469C16.3905 6.12469 16.3905 6.12469 16.3905 6.12469C16.3905 6.12469 16.3906 6.12469 16.3906 6.12469C16.3907 6.12469 16.3907 6.12469 16.3907 6.12469C16.3908 6.12469 16.3908 6.12469 16.3908 6.12469C16.3909 6.12469 16.3909 6.12469 16.3909 6.12469C16.391 6.12469 16.391 6.12469 16.3911 6.12469C16.3911 6.12469 16.3911 6.12469 16.3912 6.12469C16.3912 6.12469 16.3913 6.12469 16.3913 6.12469C16.3913 6.12469 16.3914 6.12469 16.3914 6.12469C16.3915 6.12469 16.3915 6.12469 16.3915 6.12469C16.3916 6.12469 16.3916 6.12469 16.3917 6.12469C16.3917 6.12469 16.3918 6.12469 16.3918 6.12469C16.3919 6.12469 16.3919 6.12469 16.3919 6.12469C16.392 6.12469 16.392 6.12469 16.3921 6.12469C16.3921 6.12469 16.3922 6.12469 16.3922 6.12469C16.3923 6.12469 16.3923 6.12469 16.3924 6.12469C16.3924 6.12469 16.3925 6.12469 16.3925 6.12469C16.3926 6.12469 16.3926 6.12469 16.3927 6.12469C16.3927 6.12469 16.3928 6.12469 16.3928 6.12469C16.3929 6.12469 16.3929 6.12469 16.393 6.12469C16.393 6.12469 16.3931 6.12469 16.3932 6.12469C16.3932 6.12469 16.3933 6.12469 16.3933 6.12469C16.3934 6.12469 16.3934 6.12469 16.3935 6.12469C16.3935 6.12469 16.3936 6.12469 16.3937 6.12469C16.3937 6.12469 16.3938 6.12469 16.3938 6.12469C16.3939 6.12469 16.394 6.12469 16.394 6.12469C16.3941 6.12469 16.3941 6.12469 16.3942 6.12469C16.3943 6.12469 16.3943 6.12469 16.3944 6.12469C16.3944 6.12469 16.3945 6.12469 16.3946 6.12469C16.3946 6.12469 16.3947 6.12469 16.3948 6.12469C16.3948 6.12469 16.3949 6.12469 16.395 6.12469C16.395 6.12469 16.3951 6.12469 16.3951 6.12469C16.3952 6.12469 16.3953 6.12469 16.3953 6.12469C16.3954 6.12469 16.3955 6.12469 16.3956 6.12469C16.3956 6.12469 16.3957 6.12469 16.3958 6.12469C16.3958 6.12469 16.3959 6.12469 16.396 6.12469C16.396 6.12469 16.3961 6.12469 16.3962 6.12469C16.3963 6.12469 16.3963 6.12469 16.3964 6.12469C16.3965 6.12469 16.3965 6.12469 16.3966 6.12469C16.3967 6.12469 16.3968 6.12469 16.3968 6.12469C16.3969 6.12469 16.397 6.12469 16.3971 6.12469C16.3971 6.12469 16.3972 6.12469 16.3973 6.12469C16.3974 6.12469 16.3974 6.12469 16.3975 6.12469C16.3976 6.12469 16.3977 6.12469 16.3978 6.12469C16.3978 6.12469 16.3979 6.12469 16.398 6.12469C16.3981 6.12469 16.3982 6.12469 16.3982 6.12469C16.3983 6.12469 16.3984 6.12469 16.3985 6.12469C16.3986 6.12469 16.3986 6.12469 16.3987 6.12469C16.3988 6.12469 16.3989 6.12469 16.399 6.12469C16.3991 6.12469 16.3991 6.12469 16.3992 6.12469C16.3993 6.12469 16.3994 6.12469 16.3995 6.12469C16.3996 6.12469 16.3996 6.12469 16.3997 6.12469C16.3998 6.12469 16.3999 6.12469 16.4 6.12469C16.4001 6.12469 16.4002 6.12469 16.4003 6.12469C16.4003 6.12469 16.4004 6.12469 16.4005 6.12469C16.4006 6.12469 16.4007 6.12469 16.4008 6.12469C16.4009 6.12469 16.401 6.12469 16.4011 6.12469C16.4012 6.12469 16.4013 6.12469 16.4013 6.12469C16.4014 6.12469 16.4015 6.12469 16.4016 6.12469C16.4017 6.12469 16.4018 6.12469 16.4019 6.12469C16.402 6.12469 16.4021 6.12469 16.4022 6.12469C16.4023 6.12469 16.4024 6.12469 16.4025 6.12469C16.4026 6.12469 16.4027 6.12469 16.4028 6.12469C16.4029 6.12469 16.403 6.12469 16.4031 6.12469C16.4032 6.12469 16.4033 6.12469 16.4034 6.12469C16.4035 6.12469 16.4036 6.12469 16.4037 6.12469C16.4038 6.12469 16.4039 6.12469 16.404 6.12469C16.4041 6.12469 16.4042 6.12469 16.4043 6.12469C16.4044 6.12469 16.4045 6.12469 16.4046 6.12469C16.4047 6.12469 16.4048 6.12469 16.4049 6.12469C16.405 6.12469 16.4051 6.12469 16.4052 6.12469C16.4053 6.12469 16.4054 6.12469 16.4055 6.12469C16.4056 6.12469 16.4057 6.12469 16.4058 6.12469C16.4059 6.12469 16.406 6.12469 16.4061 6.12469C16.4063 6.12469 16.4064 6.12469 16.4065 6.12469C16.4066 6.12469 16.4067 6.12469 16.4068 6.12469C16.4069 6.12469 16.407 6.12469 16.4071 6.12469C16.4072 6.12469 16.4074 6.12469 16.4075 6.12469C16.4076 6.12469 16.4077 6.12469 16.4078 6.12469C16.4079 6.12469 16.408 6.12469 16.4081 6.12469C16.4082 6.12469 16.4084 6.12469 16.4085 6.12469C16.4086 6.12469 16.4087 6.12469 16.4088 6.12469C16.4089 6.12469 16.4091 6.12469 16.4092 6.12469C16.4093 6.12469 16.4094 6.12469 16.4095 6.12469C16.4096 6.12469 16.4098 6.12469 16.4099 6.12469C16.41 6.12469 16.4101 6.12469 16.4102 6.12469C16.4103 6.12469 16.4105 6.12469 16.4106 6.12469C16.4107 6.12469 16.4108 6.12469 16.4109 6.12469C16.4111 6.12469 16.4112 6.12469 16.4113 6.12469C16.4114 6.12469 16.4115 6.12469 16.4117 6.12469C16.4118 6.12469 16.4119 6.12469 16.412 6.12469C16.4122 6.12469 16.4123 6.12469 16.4124 6.12469C16.4125 6.12469 16.4127 6.12469 16.4128 6.12469C16.4129 6.12469 16.413 6.12469 16.4132 6.12469C16.4133 6.12469 16.4134 6.12469 16.4135 6.12469C16.4137 6.12469 16.4138 6.12469 16.4139 6.12469C16.4141 6.12469 16.4142 6.12469 16.4143 6.12469C16.4144 6.12469 16.4146 6.12469 16.4147 6.12469C16.4148 6.12469 16.415 6.12469 16.4151 6.12469C16.4152 6.12469 16.4153 6.12469 16.4155 6.12469C16.4156 6.12469 16.4157 6.12469 16.4159 6.12469C16.416 6.12469 16.4161 6.12469 16.4163 6.12469C16.4164 6.12469 16.4165 6.12469 16.4167 6.12469C16.4168 6.12469 16.4169 6.12469 16.4171 6.12469C16.4172 6.12469 16.4173 6.12469 16.4175 6.12469C16.4176 6.12469 16.4178 6.12469 16.4179 6.12469C16.418 6.12469 16.4182 6.12469 16.4183 6.12469C16.4184 6.12469 16.4186 6.12469 16.4187 6.12469C16.4189 6.12469 16.419 6.12469 16.4191 6.12469C16.4193 6.12469 16.4194 6.12469 16.4195 6.12469C16.4197 6.12469 16.4198 6.12469 16.42 6.12469C16.4201 6.12469 16.4203 6.12469 16.4204 6.12469C16.4205 6.12469 16.4207 6.12469 16.4208 6.12469C16.421 6.12469 16.4211 6.12469 16.4212 6.12469C16.4214 6.12469 16.4215 6.12469 16.4217 6.12469C16.4218 6.12469 16.422 6.12469 16.4221 6.12469C16.4223 6.12469 16.4224 6.12469 16.4226 6.12469C16.4227 6.12469 16.4228 6.12469 16.423 6.12469C16.4231 6.12469 16.4233 6.12469 16.4234 6.12469C16.4236 6.12469 16.4237 6.12469 16.4239 6.12469C16.424 6.12469 16.4242 6.12469 16.4243 6.12469C16.4245 6.12469 16.4246 6.12469 16.4248 6.12469C16.4249 6.12469 16.4251 6.12469 16.4252 6.12469C16.4254 6.12469 16.4255 6.12469 16.4257 6.12469C16.4258 6.12469 16.426 6.12469 16.4261 6.12469C16.4263 6.12469 16.4264 6.12469 16.4266 6.12469C16.4267 6.12469 16.4269 6.12469 16.4271 6.12469C16.4272 6.12469 16.4274 6.12469 16.4275 6.12469C16.4277 6.12469 16.4278 6.12469 16.428 6.12469C16.4281 6.12469 16.4283 6.12469 16.4285 6.12469C16.4286 6.12469 16.4288 6.12469 16.4289 6.12469C16.4291 6.12469 16.4292 6.12469 16.4294 6.12469C16.4296 6.12469 16.4297 6.12469 16.4299 6.12469C16.43 6.12469 16.4302 6.12469 16.4304 6.12469C16.4305 6.12469 16.4307 6.12469 16.4308 6.12469C16.431 6.12469 16.4312 6.12469 16.4313 6.12469C16.4315 6.12469 16.4316 6.12469 16.4318 6.12469C16.432 6.12469 16.4321 6.12469 16.4323 6.12469C16.4325 6.12469 16.4326 6.12469 16.4328 6.12469C16.4329 6.12469 16.4331 6.12469 16.4333 6.12469C16.4334 6.12469 16.4336 6.12469 16.4338 6.12469C16.4339 6.12469 16.4341 6.12469 16.4343 6.12469C16.4344 6.12469 16.4346 6.12469 16.4348 6.12469C16.4349 6.12469 16.4351 6.12469 16.4353 6.12469C16.4354 6.12469 16.4356 6.12469 16.4358 6.12469C16.4359 6.12469 16.4361 6.12469 16.4363 6.12469C16.4364 6.12469 16.4366 6.12469 16.4368 6.12469C16.437 6.12469 16.4371 6.12469 16.4373 6.12469C16.4375 6.12469 16.4376 6.12469 16.4378 6.12469C16.438 6.12469 16.4382 6.12469 16.4383 6.12469C16.4385 6.12469 16.4387 6.12469 16.4388 6.12469C16.439 6.12469 16.4392 6.12469 16.4394 6.12469C16.4395 6.12469 16.4397 6.12469 16.4399 6.12469C16.4401 6.12469 16.4402 6.12469 16.4404 6.12469C16.4406 6.12469 16.4408 6.12469 16.4409 6.12469C16.4411 6.12469 16.4413 6.12469 16.4415 6.12469C16.4417 6.12469 16.4418 6.12469 16.442 6.12469C16.4422 6.12469 16.4424 6.12469 16.4425 6.12469C16.4427 6.12469 16.4429 6.12469 16.4431 6.12469C16.4433 6.12469 16.4434 6.12469 16.4436 6.12469C16.4438 6.12469 16.444 6.12469 16.4442 6.12469C16.4443 6.12469 16.4445 6.12469 16.4447 6.12469C16.4449 6.12469 16.4451 6.12469 16.4452 6.12469C16.4454 6.12469 16.4456 6.12469 16.4458 6.12469C16.446 6.12469 16.4462 6.12469 16.4463 6.12469C16.4465 6.12469 16.4467 6.12469 16.4469 6.12469C16.4471 6.12469 16.4473 6.12469 16.4474 6.12469C16.4476 6.12469 16.4478 6.12469 16.448 6.12469C16.4482 6.12469 16.4484 6.12469 16.4486 6.12469C16.4488 6.12469 16.4489 6.12469 16.4491 6.12469C16.4493 6.12469 16.4495 6.12469 16.4497 6.12469C16.4499 6.12469 16.4501 6.12469 16.4503 6.12469C16.4504 6.12469 16.4506 6.12469 16.4508 6.12469C16.451 6.12469 16.4512 6.12469 16.4514 6.12469C16.4516 6.12469 16.4518 6.12469 16.452 6.12469C16.4522 6.12469 16.4523 6.12469 16.4525 6.12469C16.4527 6.12469 16.4529 6.12469 16.4531 6.12469C16.4533 6.12469 16.4535 6.12469 16.4537 6.12469C16.4539 6.12469 16.4541 6.12469 16.4543 6.12469C16.4545 6.12469 16.4547 6.12469 16.4549 6.12469C16.455 6.12469 16.4552 6.12469 16.4554 6.12469C16.4556 6.12469 16.4558 6.12469 16.456 6.12469C16.4562 6.12469 16.4564 6.12469 16.4566 6.12469C16.4568 6.12469 16.457 6.12469 16.4572 6.12469C16.4574 6.12469 16.4576 6.12469 16.4578 6.12469C16.458 6.12469 16.4582 6.12469 16.4584 6.12469C16.4586 6.12469 16.4588 6.12469 16.459 6.12469C16.4592 6.12469 16.4594 6.12469 16.4596 6.12469C16.4598 6.12469 16.46 6.12469 16.4602 6.12469C16.4604 6.12469 16.4606 6.12469 16.4608 6.12469C16.461 6.12469 16.4612 6.12469 16.4614 6.12469C16.4616 6.12469 16.4618 6.12469 16.462 6.12469C16.4622 6.12469 16.4624 6.12469 16.4626 6.12469C16.4628 6.12469 16.463 6.12469 16.4632 6.12469C16.4634 6.12469 16.4636 6.12469 16.4638 6.12469C16.464 6.12469 16.4642 6.12469 16.4644 6.12469C16.4646 6.12469 16.4649 6.12469 16.4651 6.12469C16.4653 6.12469 16.4655 6.12469 16.4657 6.12469C16.4659 6.12469 16.4661 6.12469 16.4663 6.12469C16.4665 6.12469 16.4667 6.12469 16.4669 6.12469C16.4671 6.12469 16.4673 6.12469 16.4675 6.12469C16.4678 6.12469 16.468 6.12469 16.4682 6.12469C16.4684 6.12469 16.4686 6.12469 16.4688 6.12469C16.469 6.12469 16.4692 6.12469 16.4694 6.12469C16.4696 6.12469 16.4698 6.12469 16.4701 6.12469C16.4703 6.12469 16.4705 6.12469 16.4707 6.12469C16.4709 6.12469 16.4711 6.12469 16.4713 6.12469C16.4715 6.12469 16.4718 6.12469 16.472 6.12469C16.4722 6.12469 16.4724 6.12469 16.4726 6.12469C16.4728 6.12469 16.473 6.12469 16.4732 6.12469C16.4735 6.12469 16.4737 6.12469 16.4739 6.12469C16.4741 6.12469 16.4743 6.12469 16.4745 6.12469C16.4748 6.12469 16.475 6.12469 16.4752 6.12469C16.4754 6.12469 16.4756 6.12469 16.4758 6.12469C16.4761 6.12469 16.4763 6.12469 16.4765 6.12469C16.4767 6.12469 16.4769 6.12469 16.4771 6.12469C16.4774 6.12469 16.4776 6.12469 16.4778 6.12469C16.478 6.12469 16.4782 6.12469 16.4784 6.12469C16.4787 6.12469 16.4789 6.12469 16.4791 6.12469C16.4793 6.12469 16.4795 6.12469 16.4798 6.12469C16.48 6.12469 16.4802 6.12469 16.4804 6.12469C16.4807 6.12469 16.4809 6.12469 16.4811 6.12469C16.4813 6.12469 16.4815 6.12469 16.4818 6.12469C16.482 6.12469 16.4822 6.12469 16.4824 6.12469C16.4826 6.12469 16.4829 6.12469 16.4831 6.12469C16.4833 6.12469 16.4835 6.12469 16.4838 6.12469C16.484 6.12469 16.4842 6.12469 16.4844 6.12469C16.4847 6.12469 16.4849 6.12469 16.4851 6.12469C16.4853 6.12469 16.4856 6.12469 16.4858 6.12469C16.486 6.12469 16.4862 6.12469 16.4865 6.12469C16.4867 6.12469 16.4869 6.12469 16.4871 6.12469C16.4874 6.12469 16.4876 6.12469 16.4878 6.12469C16.4881 6.12469 16.4883 6.12469 16.4885 6.12469C16.4887 6.12469 16.489 6.12469 16.4892 6.12469C16.4894 6.12469 16.4897 6.12469 16.4899 6.12469C16.4901 6.12469 16.4903 6.12469 16.4906 6.12469C16.4908 6.12469 16.491 6.12469 16.4913 6.12469C16.4915 6.12469 16.4917 6.12469 16.492 6.12469C16.4922 6.12469 16.4924 6.12469 16.4926 6.12469C16.4929 6.12469 16.4931 6.12469 16.4933 6.12469C16.4936 6.12469 16.4938 6.12469 16.494 6.12469C16.4943 6.12469 16.4945 6.12469 16.4947 6.12469C16.495 6.12469 16.4952 6.12469 16.4954 6.12469C16.4957 6.12469 16.4959 6.12469 16.4961 6.12469C16.4964 6.12469 16.4966 6.12469 16.4968 6.12469C16.4971 6.12469 16.4973 6.12469 16.4975 6.12469C16.4978 6.12469 16.498 6.12469 16.4983 6.12469C16.4985 6.12469 16.4987 6.12469 16.499 6.12469C16.4992 6.12469 16.4994 6.12469 16.4997 6.12469C16.4999 6.12469 16.5001 6.12469 16.5004 6.12469C16.5006 6.12469 16.5009 6.12469 16.5011 6.12469C16.5013 6.12469 16.5016 6.12469 16.5018 6.12469C16.5021 6.12469 16.5023 6.12469 16.5025 6.12469C16.5028 6.12469 16.503 6.12469 16.5032 6.12469C16.5035 6.12469 16.5037 6.12469 16.504 6.12469C16.5042 6.12469 16.5044 6.12469 16.5047 6.12469C16.5049 6.12469 16.5052 6.12469 16.5054 6.12469C16.5057 6.12469 16.5059 6.12469 16.5061 6.12469C16.5064 6.12469 16.5066 6.12469 16.5069 6.12469C16.5071 6.12469 16.5073 6.12469 16.5076 6.12469C16.5078 6.12469 16.5081 6.12469 16.5083 6.12469C16.5086 6.12469 16.5088 6.12469 16.509 6.12469C16.5093 6.12469 16.5095 6.12469 16.5098 6.12469C16.51 6.12469 16.5103 6.12469 16.5105 6.12469C16.5108 6.12469 16.511 6.12469 16.5112 6.12469C16.5115 6.12469 16.5117 6.12469 16.512 6.12469C16.5122 6.12469 16.5125 6.12469 16.5127 6.12469C16.513 6.12469 16.5132 6.12469 16.5135 6.12469C16.5137 6.12469 16.514 6.12469 16.5142 6.12469C16.5144 6.12469 16.5147 6.12469 16.5149 6.12469C16.5152 6.12469 16.5154 6.12469 16.5157 6.12469C16.5159 6.12469 16.5162 6.12469 16.5164 6.12469C16.5167 6.12469 16.5169 6.12469 16.5172 6.12469C16.5174 6.12469 16.5177 6.12469 16.5179 6.12469C16.5182 6.12469 16.5184 6.12469 16.5187 6.12469C16.5189 6.12469 16.5192 6.12469 16.5194 6.12469C16.5197 6.12469 16.5199 6.12469 16.5202 6.12469C16.5204 6.12469 16.5207 6.12469 16.5209 6.12469C16.5212 6.12469 16.5214 6.12469 16.5217 6.12469C16.5219 6.12469 16.5222 6.12469 16.5224 6.12469C16.5227 6.12469 16.523 6.12469 16.5232 6.12469C16.5235 6.12469 16.5237 6.12469 16.524 6.12469C16.5242 6.12469 16.5245 6.12469 16.5247 6.12469C16.525 6.12469 16.5252 6.12469 16.5255 6.12469C16.5257 6.12469 16.526 6.12469 16.5263 6.12469C16.5265 6.12469 16.5268 6.12469 16.527 6.12469C16.5273 6.12469 16.5275 6.12469 16.5278 6.12469C16.528 6.12469 16.5283 6.12469 16.5286 6.12469C16.5288 6.12469 16.5291 6.12469 16.5293 6.12469C16.5296 6.12469 16.5298 6.12469 16.5301 6.12469C16.5303 6.12469 16.5306 6.12469 16.5309 6.12469C16.5311 6.12469 16.5314 6.12469 16.5316 6.12469C16.5319 6.12469 16.5322 6.12469 16.5324 6.12469C16.5327 6.12469 16.5329 6.12469 16.5332 6.12469C16.5334 6.12469 16.5337 6.12469 16.534 6.12469C16.5342 6.12469 16.5345 6.12469 16.5347 6.12469C16.535 6.12469 16.5353 6.12469 16.5355 6.12469C16.5358 6.12469 16.536 6.12469 16.5363 6.12469C16.5366 6.12469 16.5368 6.12469 16.5371 6.12469C16.5373 6.12469 16.5376 6.12469 16.5379 6.12469C16.5381 6.12469 16.5384 6.12469 16.5387 6.12469C16.5389 6.12469 16.5392 6.12469 16.5394 6.12469C16.5397 6.12469 16.54 6.12469 16.5402 6.12469C16.5405 6.12469 16.5408 6.12469 16.541 6.12469C16.5413 6.12469 16.5415 6.12469 16.5418 6.12469C16.5421 6.12469 16.5423 6.12469 16.5426 6.12469C16.5429 6.12469 16.5431 6.12469 16.5434 6.12469C16.5437 6.12469 16.5439 6.12469 16.5442 6.12469C16.5444 6.12469 16.5447 6.12469 16.545 6.12469C16.5452 6.12469 16.5455 6.12469 16.5458 6.12469C16.546 6.12469 16.5463 6.12469 16.5466 6.12469C16.5468 6.12469 16.5471 6.12469 16.5474 6.12469C16.5476 6.12469 16.5479 6.12469 16.5482 6.12469C16.5484 6.12469 16.5487 6.12469 16.549 6.12469C16.5492 6.12469 16.5495 6.12469 16.5498 6.12469C16.55 6.12469 16.5503 6.12469 16.5506 6.12469C16.5508 6.12469 16.5511 6.12469 16.5514 6.12469C16.5516 6.12469 16.5519 6.12469 16.5522 6.12469C16.5525 6.12469 16.5527 6.12469 16.553 6.12469C16.5533 6.12469 16.5535 6.12469 16.5538 6.12469C16.5541 6.12469 16.5543 6.12469 16.5546 6.12469C16.5549 6.12469 16.5551 6.12469 16.5554 6.12469C16.5557 6.12469 16.556 6.12469 16.5562 6.12469C16.5565 6.12469 16.5568 6.12469 16.557 6.12469C16.5573 6.12469 16.5576 6.12469 16.5579 6.12469C16.5581 6.12469 16.5584 6.12469 16.5587 6.12469C16.5589 6.12469 16.5592 6.12469 16.5595 6.12469C16.5598 6.12469 16.56 6.12469 16.5603 6.12469C16.5606 6.12469 16.5608 6.12469 16.5611 6.12469C16.5614 6.12469 16.5617 6.12469 16.5619 6.12469C16.5622 6.12469 16.5625 6.12469 16.5628 6.12469C16.563 6.12469 16.5633 6.12469 16.5636 6.12469C16.5638 6.12469 16.5641 6.12469 16.5644 6.12469C16.5647 6.12469 16.5649 6.12469 16.5652 6.12469C16.5655 6.12469 16.5658 6.12469 16.566 6.12469C16.5663 6.12469 16.5666 6.12469 16.5669 6.12469C16.5671 6.12469 16.5674 6.12469 16.5677 6.12469C16.568 6.12469 16.5682 6.12469 16.5685 6.12469C16.5688 6.12469 16.5691 6.12469 16.5693 6.12469C16.5696 6.12469 16.5699 6.12469 16.5702 6.12469C16.5705 6.12469 16.5707 6.12469 16.571 6.12469C16.5713 6.12469 16.5716 6.12469 16.5718 6.12469C16.5721 6.12469 16.5724 6.12469 16.5727 6.12469C16.5729 6.12469 16.5732 6.12469 16.5735 6.12469C16.5738 6.12469 16.5741 6.12469 16.5743 6.12469C16.5746 6.12469 16.5749 6.12469 16.5752 6.12469C16.5754 6.12469 16.5757 6.12469 16.576 6.12469C16.5763 6.12469 16.5766 6.12469 16.5768 6.12469C16.5771 6.12469 16.5774 6.12469 16.5777 6.12469C16.578 6.12469 16.5782 6.12469 16.5785 6.12469C16.5788 6.12469 16.5791 6.12469 16.5794 6.12469C16.5796 6.12469 16.5799 6.12469 16.5802 6.12469C16.5805 6.12469 16.5808 6.12469 16.581 6.12469C16.5813 6.12469 16.5816 6.12469 16.5819 6.12469C16.5822 6.12469 16.5824 6.12469 16.5827 6.12469C16.583 6.12469 16.5833 6.12469 16.5836 6.12469C16.5838 6.12469 16.5841 6.12469 16.5844 6.12469C16.5847 6.12469 16.585 6.12469 16.5853 6.12469C16.5855 6.12469 16.5858 6.12469 16.5861 6.12469C16.5864 6.12469 16.5867 6.12469 16.5869 6.12469C16.5872 6.12469 16.5875 6.12469 16.5878 6.12469C16.5881 6.12469 16.5884 6.12469 16.5886 6.12469C16.5889 6.12469 16.5892 6.12469 16.5895 6.12469C16.5898 6.12469 16.5901 6.12469 16.5903 6.12469C16.5906 6.12469 16.5909 6.12469 16.5912 6.12469C16.5915 6.12469 16.5918 6.12469 16.592 6.12469C16.5923 6.12469 16.5926 6.12469 16.5929 6.12469C16.5932 6.12469 16.5935 6.12469 16.5938 6.12469C16.594 6.12469 16.5943 6.12469 16.5946 6.12469C16.5949 6.12469 16.5952 6.12469 16.5955 6.12469C16.5958 6.12469 16.596 6.12469 16.5963 6.12469C16.5966 6.12469 16.5969 6.12469 16.5972 6.12469C16.5975 6.12469 16.5978 6.12469 16.598 6.12469C16.5983 6.12469 16.5986 6.12469 16.5989 6.12469C16.5992 6.12469 16.5995 6.12469 16.5998 6.12469C16.6 6.12469 16.6003 6.12469 16.6006 6.12469C16.6009 6.12469 16.6012 6.12469 16.6015 6.12469C16.6018 6.12469 16.602 6.12469 16.6023 6.12469C16.6026 6.12469 16.6029 6.12469 16.6032 6.12469C16.6035 6.12469 16.6038 6.12469 16.6041 6.12469C16.6043 6.12469 16.6046 6.12469 16.6049 6.12469C16.6052 6.12469 16.6055 6.12469 16.6058 6.12469C16.6061 6.12469 16.6064 6.12469 16.6067 6.12469C16.6069 6.12469 16.6072 6.12469 16.6075 6.12469C16.6078 6.12469 16.6081 6.12469 16.6084 6.12469C16.6087 6.12469 16.609 6.12469 16.6093 6.12469C16.6095 6.12469 16.6098 6.12469 16.6101 6.12469C16.6104 6.12469 16.6107 6.12469 16.611 6.12469C16.6113 6.12469 16.6116 6.12469 16.6119 6.12469C16.6121 6.12469 16.6124 6.12469 16.6127 6.12469C16.613 6.12469 16.6133 6.12469 16.6136 6.12469C16.6139 6.12469 16.6142 6.12469 16.6145 6.12469C16.6148 6.12469 16.6151 6.12469 16.6153 6.12469C16.6156 6.12469 16.6159 6.12469 16.6162 6.12469C16.6165 6.12469 16.6168 6.12469 16.6171 6.12469C16.6174 6.12469 16.6177 6.12469 16.618 6.12469C16.6183 6.12469 16.6185 6.12469 16.6188 6.12469C16.6191 6.12469 16.6194 6.12469 16.6197 6.12469C16.62 6.12469 16.6203 6.12469 16.6206 6.12469C16.6209 6.12469 16.6212 6.12469 16.6215 6.12469C16.6218 6.12469 16.622 6.12469 16.6223 6.12469C16.6226 6.12469 16.6229 6.12469 16.6232 6.12469C16.6235 6.12469 16.6238 6.12469 16.6241 6.12469C16.6244 6.12469 16.6247 6.12469 16.625 6.12469C16.6253 6.12469 16.6256 6.12469 16.6258 6.12469C16.6261 6.12469 16.6264 6.12469 16.6267 6.12469C16.627 6.12469 16.6273 6.12469 16.6276 6.12469C16.6279 6.12469 16.6282 6.12469 16.6285 6.12469C16.6288 6.12469 16.6291 6.12469 16.6294 6.12469C16.6297 6.12469 16.63 6.12469 16.6303 6.12469C16.6305 6.12469 16.6308 6.12469 16.6311 6.12469C16.6314 6.12469 16.6317 6.12469 16.632 6.12469C16.6323 6.12469 16.6326 6.12469 16.6329 6.12469C16.6332 6.12469 16.6335 6.12469 16.6338 6.12469C16.6341 6.12469 16.6344 6.12469 16.6347 6.12469C16.635 6.12469 16.6353 6.12469 16.6356 6.12469C16.6358 6.12469 16.6361 6.12469 16.6364 6.12469C16.6367 6.12469 16.637 6.12469 16.6373 6.12469C16.6376 6.12469 16.6379 6.12469 16.6382 6.12469C16.6385 6.12469 16.6388 6.12469 16.6391 6.12469C16.6394 6.12469 16.6397 6.12469 16.64 6.12469C16.6403 6.12469 16.6406 6.12469 16.6409 6.12469C16.6412 6.12469 16.6415 6.12469 16.6418 6.12469C16.642 6.12469 16.6423 6.12469 16.6426 6.12469C16.6429 6.12469 16.6432 6.12469 16.6435 6.12469C16.6438 6.12469 16.6441 6.12469 16.6444 6.12469C16.6447 6.12469 16.645 6.12469 16.6453 6.12469C16.6456 6.12469 16.6459 6.12469 16.6462 6.12469C16.6465 6.12469 16.6468 6.12469 16.6471 6.12469C16.6474 6.12469 16.6477 6.12469 16.648 6.12469C16.6483 6.12469 16.6486 6.12469 16.6489 6.12469C16.6492 6.12469 16.6495 6.12469 16.6498 6.12469C16.6501 6.12469 16.6504 6.12469 16.6506 6.12469C16.6509 6.12469 16.6512 6.12469 16.6515 6.12469C16.6518 6.12469 16.6521 6.12469 16.6524 6.12469C16.6527 6.12469 16.653 6.12469 16.6533 6.12469C16.6536 6.12469 16.6539 6.12469 16.6542 6.12469C16.6545 6.12469 16.6548 6.12469 16.6551 6.12469C16.6554 6.12469 16.6557 6.12469 16.656 6.12469C16.6563 6.12469 16.6566 6.12469 16.6569 6.12469C16.6572 6.12469 16.6575 6.12469 16.6578 6.12469C16.6581 6.12469 16.6584 6.12469 16.6587 6.12469C16.659 6.12469 16.6593 6.12469 16.6596 6.12469C16.6599 6.12469 16.6602 6.12469 16.6605 6.12469C16.6608 6.12469 16.6611 6.12469 16.6614 6.12469C16.6617 6.12469 16.662 6.12469 16.6623 6.12469C16.6626 6.12469 16.6629 6.12469 16.6632 6.12469C16.6635 6.12469 16.6638 6.12469 16.6641 6.12469C16.6644 6.12469 16.6647 6.12469 16.665 6.12469C16.6653 6.12469 16.6656 6.12469 16.6659 6.12469C16.6661 6.12469 16.6664 6.12469 16.6667 6.12469C16.667 6.12469 16.6673 6.12469 16.6676 6.12469C16.6679 6.12469 16.6682 6.12469 16.6685 6.12469C16.6688 6.12469 16.6691 6.12469 16.6694 6.12469C16.6697 6.12469 16.67 6.12469 16.6703 6.12469C16.6706 6.12469 16.6709 6.12469 16.6712 6.12469C16.6715 6.12469 16.6718 6.12469 16.6721 6.12469C16.6724 6.12469 16.6727 6.12469 16.673 6.12469C16.6733 6.12469 16.6736 6.12469 16.6739 6.12469C16.6742 6.12469 16.6745 6.12469 16.6748 6.12469C16.6751 6.12469 16.6754 6.12469 16.6757 6.12469C16.676 6.12469 16.6763 6.12469 16.6766 6.12469C16.6769 6.12469 16.6772 6.12469 16.6775 6.12469C16.6778 6.12469 16.6781 6.12469 16.6784 6.12469C16.6787 6.12469 16.679 6.12469 16.6793 6.12469C16.6796 6.12469 16.6799 6.12469 16.6802 6.12469C16.6805 6.12469 16.6808 6.12469 16.6811 6.12469C16.6814 6.12469 16.6817 6.12469 16.682 6.12469C16.6823 6.12469 16.6826 6.12469 16.6829 6.12469C16.6832 6.12469 16.6835 6.12469 16.6838 6.12469C16.6841 6.12469 16.6844 6.12469 16.6847 6.12469C16.685 6.12469 16.6853 6.12469 16.6856 6.12469C16.6859 6.12469 16.6862 6.12469 16.6865 6.12469C16.6868 6.12469 16.6871 6.12469 16.6874 6.12469C16.6877 6.12469 16.688 6.12469 16.6883 6.12469C16.6886 6.12469 16.6889 6.12469 16.6892 6.12469C16.6895 6.12469 16.6898 6.12469 16.6901 6.12469C16.6904 6.12469 16.6907 6.12469 16.691 6.12469C16.6913 6.12469 16.6916 6.12469 16.6919 6.12469C16.6922 6.12469 16.6925 6.12469 16.6928 6.12469C16.6931 6.12469 16.6934 6.12469 16.6937 6.12469C16.694 6.12469 16.6943 6.12469 16.6946 6.12469C16.6949 6.12469 16.6952 6.12469 16.6955 6.12469C16.6958 6.12469 16.6961 6.12469 16.6964 6.12469V4.12469ZM16.0177 4.19622L14.4809 4.81093L15.2237 6.66788L16.7605 6.05317L16.0177 4.19622ZM14.4051 4.84498C14.1911 4.95197 13.9762 5.08606 13.7802 5.28202C13.5842 5.47799 13.4501 5.69291 13.3432 5.9069L15.132 6.80133C15.1559 6.75363 15.1723 6.72682 15.1822 6.71232C15.1869 6.70533 15.1901 6.70126 15.1918 6.69925C15.1933 6.69731 15.1942 6.6965 15.1944 6.69624C15.1947 6.69598 15.1955 6.69517 15.1974 6.69358C15.1994 6.69193 15.2035 6.68875 15.2105 6.68399C15.225 6.67413 15.2518 6.65768 15.2995 6.63383L14.4051 4.84498ZM14.0415 7.33469L14.8099 7.48837L15.2021 5.52721L14.4337 5.37353L14.0415 7.33469ZM15.2021 5.52721L14.4337 5.37353L14.0415 7.33469L14.8099 7.48837L15.2021 5.52721ZM13.2674 6.11158L9.88653 19.6352L11.8268 20.1203L15.2077 6.59665L13.2674 6.11158ZM9.96225 19.4305C9.7476 19.8598 9.75696 20.3054 9.90114 20.6899C10.0305 21.0348 10.2574 21.3074 10.4569 21.5069L11.8711 20.0927C11.8224 20.044 11.793 20.0083 11.7767 19.9856C11.7602 19.9626 11.7647 19.9635 11.7738 19.9876C11.7838 20.0144 11.7984 20.0676 11.7962 20.1395C11.7938 20.2139 11.7744 20.2784 11.7511 20.325L9.96225 19.4305ZM11.964 21.3998L12.4251 20.7851L10.8251 19.5851L10.364 20.1998L11.964 21.3998ZM10.8251 19.5851L10.364 20.1998L11.964 21.3998L12.4251 20.7851L10.8251 19.5851ZM11.164 20.7998C10.5107 21.5569 10.5107 21.5569 10.5108 21.557C10.5109 21.557 10.511 21.5572 10.5112 21.5573C10.5116 21.5576 10.5121 21.5581 10.5128 21.5586C10.5141 21.5598 10.5162 21.5616 10.5189 21.5639C10.5243 21.5686 10.5324 21.5756 10.543 21.5848C10.5644 21.6032 10.596 21.6305 10.6374 21.6662C10.7201 21.7375 10.8416 21.8422 10.9969 21.9761C11.3075 22.2437 11.7531 22.6275 12.2937 23.0924C13.3747 24.0221 14.8355 25.2762 16.3542 26.5738C19.3723 29.1526 22.6717 31.9484 23.6266 32.6646L24.8266 31.0646C23.9374 30.3977 20.7055 27.6611 17.6534 25.0533C16.1369 23.7575 14.6778 22.5048 13.5978 21.576C13.0578 21.1116 12.6126 20.7282 12.3025 20.461C12.1474 20.3273 12.0261 20.2227 11.9436 20.1516C11.9023 20.116 11.8707 20.0888 11.8495 20.0704C11.8389 20.0613 11.8308 20.0544 11.8255 20.0497C11.8228 20.0474 11.8207 20.0456 11.8194 20.0445C11.8187 20.0439 11.8182 20.0435 11.8179 20.0432C11.8177 20.043 11.8176 20.0429 11.8175 20.0428C11.8174 20.0428 11.8174 20.0427 11.164 20.7998ZM23.6019 32.6454C24.6737 33.5029 26.0734 33.6404 27.4242 33.4716L27.1761 31.487C26.0681 31.6255 25.3163 31.4557 24.8513 31.0837L23.6019 32.6454Z" fill="#EDB842" mask="url(#path-3-inside-2_2318_2188)"/>
<path d="M22.9973 6.66125C23.3047 6.35389 23.151 5.73918 22.8436 5.5855C22.5363 5.27815 21.9216 5.43183 21.7679 5.73918C21.7679 5.73918 16.3892 13.7304 20.9995 16.0356C20.9995 16.0356 20.9995 16.0356 21.1532 16.0356C22.9973 16.804 24.3804 15.7282 25.9172 14.6525C28.0687 13.1157 30.5275 11.1179 34.9842 16.9576C34.9842 16.9576 34.9842 16.9576 35.1378 17.1113C35.7525 17.726 41.1313 23.2584 41.746 24.7952C41.8996 25.1025 41.8996 25.4099 41.8996 25.5636C41.8996 25.8709 41.746 26.0246 41.5923 26.1783C41.4386 26.332 41.1313 26.4856 40.8239 26.4856C40.3629 26.4856 39.7482 26.4856 38.9798 26.0246L32.8327 19.7238C32.5253 19.4165 32.0643 19.4165 31.7569 19.7238C31.4496 20.0312 31.4496 20.4922 31.7569 20.7996L38.0577 27.254C38.0577 27.254 38.2114 27.4077 38.3651 27.4077C39.4408 27.8687 40.5166 28.1761 41.2849 28.0224C42.0533 27.8687 42.668 27.7151 42.9754 27.254C43.4364 26.793 43.7438 26.332 43.7438 25.7173C43.8975 25.1025 43.7438 24.4878 43.5901 23.8731C42.8217 22.1827 37.1356 16.1893 36.6746 15.7282C31.2959 8.81273 28.0687 11.1179 25.4562 13.1157C24.3804 14.0378 23.3047 14.8062 22.3826 14.3451C18.6943 13.1157 22.9973 6.66125 22.9973 6.66125Z" fill="#EDB842"/>
<path d="M29.2984 23.4122C28.9911 23.1048 28.5301 23.1048 28.2227 23.4122C27.9153 23.7195 27.9153 24.1805 28.2227 24.4879L34.0624 30.0203C34.6772 30.4813 35.4455 30.7887 36.3676 30.7887C36.8286 30.7887 37.4434 30.635 37.7507 30.4813C38.2117 30.174 38.6728 29.8666 38.8265 29.2519C39.1338 28.6372 39.1338 27.7151 38.6728 26.4857C38.5191 26.0247 38.0581 25.871 37.597 26.0247C37.2897 26.1784 37.136 26.6394 37.2897 27.1004C37.597 27.8688 37.597 28.3298 37.4434 28.7909C37.4434 28.9445 37.2897 29.0982 37.136 29.2519C36.9823 29.4056 36.675 29.4056 36.3676 29.4056C35.9066 29.4056 35.4455 29.2519 35.1382 28.9445L29.2984 23.4122Z" fill="#EDB842"/>
<path d="M30.6813 32.4797C31.296 32.7871 35.138 34.6312 35.4453 29.7135C35.4453 29.2525 35.138 28.9451 34.6769 28.7914C34.2159 28.7914 33.9085 29.0988 33.7549 29.5598C33.6012 32.0187 31.757 31.2503 31.296 30.9429L27.3004 26.9473C26.993 26.64 26.532 26.64 26.2247 26.9473C25.9173 27.2547 25.9173 27.7157 26.2247 28.0231L30.374 32.0187L30.9887 31.404L30.374 32.0187C30.5276 32.326 30.6813 32.4797 30.6813 32.4797Z" fill="#EDB842"/>
<path d="M14.0839 4.04844L7.16842 2.20431C7.01474 2.05063 6.70739 2.20431 6.55371 2.20431C6.40003 2.35799 6.24636 2.51166 6.24636 2.66534L2.09706 18.4941C2.09706 18.6478 2.09706 18.9552 2.25074 19.1088C2.40442 19.2625 2.5581 19.4162 2.71177 19.4162L9.62726 21.2603C9.78094 21.2603 10.0883 21.2603 10.242 21.1066C10.3956 20.953 10.5493 20.7993 10.5493 20.6456L14.6986 5.12418C14.6986 4.97051 14.6986 4.66315 14.5449 4.50947C14.5449 4.20212 14.2376 4.04844 14.0839 4.04844ZM7.62945 0.667535L14.5449 2.51166C15.1597 2.66534 15.6207 3.12637 15.928 3.58741C16.2354 4.20212 16.3891 4.81683 16.2354 5.43154L12.0861 21.2603C11.9324 21.875 11.4714 22.4897 11.0104 22.7971C10.5493 23.1045 9.78094 23.2581 9.16623 23.1045L2.25074 21.2603C1.63603 21.1066 1.175 20.6456 0.867644 20.1846C0.560288 19.5699 0.406611 18.9552 0.560288 18.3405L4.70958 2.35799C4.86326 1.74328 5.32429 1.12857 5.78532 0.821212C6.24636 0.513857 6.86107 0.36018 7.62945 0.667535Z" fill="#EDB842"/>
<path d="M6.55392 16.8051C6.40025 16.6514 6.24657 16.6514 6.09289 16.6514C5.93921 16.6514 5.78554 16.6514 5.63186 16.8051C5.47818 16.9587 5.47818 17.1124 5.47818 17.2661C5.47818 17.4198 5.47818 17.5735 5.63186 17.7271C5.78554 17.8808 5.93921 17.8808 6.09289 17.8808C6.24657 17.8808 6.40025 17.8808 6.55392 17.7271C6.55392 17.5735 6.7076 17.4198 6.7076 17.2661C6.7076 16.9587 6.55392 16.8051 6.55392 16.8051ZM6.09289 14.9609C6.7076 14.9609 7.32231 15.2683 7.62967 15.5756C8.0907 16.0367 8.24438 16.4977 8.24438 17.1124C8.24438 17.7271 7.93702 18.3418 7.62967 18.6492C7.16863 19.1102 6.7076 19.2639 6.09289 19.2639C5.47818 19.2639 4.86347 18.9566 4.55612 18.6492C4.09508 18.1882 3.94141 17.7271 3.94141 17.1124C3.94141 16.4977 4.24876 15.883 4.55612 15.5756C4.86347 15.1146 5.47818 14.9609 6.09289 14.9609Z" fill="#EDB842"/>
<path d="M38.9795 4.66211L45.5876 1.74224C46.2023 1.43488 46.817 1.43488 47.4317 1.74224C48.0464 1.89591 48.5075 2.35694 48.8148 2.97166L55.2693 17.8784C55.5766 18.4931 55.5766 19.1078 55.2693 19.7225C55.1156 20.3372 54.6546 20.7982 54.0399 21.1056L47.4317 24.0255C46.817 24.3328 46.2023 24.3328 45.5876 24.0255C44.9729 23.8718 44.5119 23.4108 44.2045 22.7961L37.75 7.73566C37.4427 7.12095 37.4427 6.50624 37.75 5.89153C37.9037 5.43049 38.3648 4.96946 38.9795 4.66211ZM46.2023 3.27901L39.5942 6.19888C39.4405 6.35256 39.2868 6.50624 39.1331 6.65991C39.1331 6.81359 38.9795 7.12095 39.1331 7.27462L45.5876 22.335C45.7413 22.4887 45.895 22.6424 46.0486 22.7961C46.2023 22.9497 46.5097 22.9497 46.6633 22.7961L53.2715 19.8762C53.4252 19.7225 53.5788 19.5688 53.7325 19.4151C53.7325 19.2615 53.8862 18.9541 53.7325 18.8004L47.1244 3.58636C46.9707 3.43269 46.817 3.27901 46.6633 3.12533C46.5097 3.12533 46.356 3.12533 46.2023 3.27901Z" fill="#EDB842"/>
<path d="M47.5855 16.6496C47.8929 16.1886 48.5076 15.8812 48.9686 15.7276C49.5834 15.5739 50.1981 15.7276 50.6591 16.1886C51.1201 16.4959 51.4275 17.1106 51.5812 17.7254C51.7348 18.3401 51.5812 18.9548 51.1201 19.4158C50.8128 19.8768 50.1981 20.1842 49.737 20.3379C49.1223 20.4916 48.5076 20.3379 48.0466 19.8768C47.5855 19.5695 47.2782 18.9548 47.1245 18.3401C47.1245 17.5717 47.2782 17.1106 47.5855 16.6496ZM49.276 17.2643C49.1223 17.2643 48.9686 17.418 48.815 17.5717C48.6613 17.7254 48.6613 17.879 48.6613 18.0327C48.6613 18.1864 48.815 18.3401 48.9686 18.4937C49.1223 18.6474 49.276 18.6474 49.4297 18.6474C49.5834 18.6474 49.737 18.4937 49.8907 18.3401C50.0444 18.1864 50.0444 18.0327 50.0444 17.879C50.0444 17.7254 49.8907 17.5717 49.737 17.418C49.5834 17.2643 49.4297 17.2643 49.276 17.2643Z" fill="#EDB842"/>
</svg>
