<svg width="56" height="42" viewBox="0 0 56 42" fill="none" xmlns="http://www.w3.org/2000/svg">
<path d="M52.5742 15.1857L52.5885 15.1941L52.6033 15.2015C52.8349 15.3173 52.857 15.4333 52.857 15.4831C52.857 15.5553 52.8097 15.7211 52.5603 15.9188C52.232 16.0823 51.976 16.1979 51.59 16.1979C51.2308 16.1979 50.9954 16.1909 50.7663 16.0803L27.1039 2.30669L26.8524 2.16027L26.6009 2.30669L2.93811 16.0805C2.66879 16.2119 2.31988 16.2824 1.98641 16.2649C1.64247 16.2468 1.38042 16.14 1.23141 15.991L0.880598 16.3418L1.23141 15.991C1.03927 15.7988 0.992924 15.6252 1.0009 15.5215C1.00721 15.4395 1.05291 15.3141 1.27816 15.2015L1.28966 15.1957L1.30085 15.1894L10.6658 9.88845L10.9195 9.74484V9.45332V3.4456C10.9195 3.03142 11.1557 2.59492 11.657 2.24214C12.157 1.89032 12.892 1.64853 13.7768 1.64853C14.6615 1.64853 15.3966 1.89032 15.8965 2.24214C16.3979 2.59492 16.634 3.03142 16.634 3.4456V5.38927V6.25729L17.3849 5.82179L26.2198 0.697562L26.2333 0.68973L26.2463 0.681071C26.5866 0.454149 27.2635 0.417116 27.8517 0.70534L52.5742 15.1857Z" stroke="#EDB842"/>
<path d="M37.7451 32.5673L37.8862 32.5849L38.0155 32.5257C42.2267 30.5956 46.4365 28.4922 50.6375 26.3917C51.7024 26.4396 52.5541 26.5666 53.2135 26.7634C53.9006 26.9685 54.3467 27.2397 54.6173 27.5442C55.0978 28.0847 55.1728 28.9285 54.5658 30.289C48.646 33.2459 42.7255 36.0329 36.7989 38.8219C33.7868 38.9845 30.3976 38.8034 26.9633 38.6199C25.1076 38.5208 23.2387 38.4209 21.4091 38.3742C18.8043 38.3077 16.2921 38.351 14.0667 38.6718C12.0642 38.9604 10.2585 39.4782 8.81833 40.371C6.35071 36.1046 3.88342 31.9867 1.41822 27.8778C3.08162 27.1234 4.74153 26.3559 6.39947 25.5893C9.99988 23.9246 13.591 22.2642 17.1885 20.7517C20.4113 21.3601 23.6336 21.9261 26.8522 22.4916L26.8538 22.4919C30.0935 23.061 33.3296 23.6295 36.5652 24.2409C37.1594 24.605 37.5551 24.9396 37.7941 25.24C38.0376 25.546 38.1008 25.7919 38.0823 25.9961C38.0628 26.2098 37.9455 26.4684 37.6524 26.7758C37.3718 27.07 36.9567 27.3806 36.3991 27.7053C35.9908 27.766 35.4337 27.7548 34.7515 27.6834C34.0307 27.608 33.2068 27.4695 32.3317 27.3033C31.7602 27.1947 31.1644 27.0737 30.5645 26.9518C29.3482 26.7046 28.1152 26.4541 27.034 26.2975C26.2233 26.1801 25.4652 26.11 24.8345 26.1364C24.233 26.1616 23.6191 26.2776 23.2272 26.6565C22.7717 27.0969 22.7701 27.7139 23.0067 28.3391C23.2404 28.9566 23.7443 29.7108 24.528 30.6288L24.6463 30.7674L24.826 30.7974C28.6549 31.4355 32.6267 31.9299 36.4718 32.4086C36.8979 32.4616 37.3225 32.5145 37.7451 32.5673Z" fill="#EDB842" stroke="#EDB842"/>
</svg>
