<svg width="56" height="54" viewBox="0 0 56 54" fill="none" xmlns="http://www.w3.org/2000/svg">
<path d="M17.4569 52.802L21.8074 49.9952C21.8922 50.0286 21.9971 50.0689 22.1205 50.1144C22.4755 50.2452 22.9839 50.4187 23.6031 50.5921C24.8383 50.938 26.53 51.2876 28.3315 51.2876V51.2877L28.3419 51.2875C37.8918 51.0885 45.4651 43.5225 45.4651 33.9606C45.4651 24.4043 37.7019 16.6336 28.3315 16.6336C18.764 16.6336 11.1979 24.4082 11.1979 33.9606V52.802H7.82965C6.97724 52.802 6.39551 52.0918 6.39551 51.3678V27.5779C6.39551 26.1094 5.17154 25.1438 3.96138 25.1438H1.447C1.25014 25.1438 1.11543 25.1136 1.0374 25.0806C1.02862 25.0768 1.02103 25.0733 1.0145 25.0701C1.01628 25.0663 1.01828 25.0623 1.02051 25.058C1.06149 24.979 1.16172 24.849 1.37252 24.6803L1.38468 24.6706L1.39622 24.6601L13.9681 13.2487L14.1321 13.0999V12.8785V5.72217C14.1321 5.22466 14.4885 4.86828 14.986 4.86828H17.5003C17.9979 4.86828 18.3542 5.22466 18.3542 5.72217V8.04314V9.16582L19.1887 8.41478L26.9253 1.45189L26.935 1.44309L26.9443 1.43379C27.5227 0.855402 28.3666 0.855402 28.945 1.43379L28.9541 1.44287L28.9636 1.45147L54.6778 24.6522C54.8116 24.7872 54.8962 24.9008 54.9457 24.9873C54.8916 24.9852 54.8217 24.9777 54.7338 24.9601L54.6853 24.9504H54.6358H52.7017C51.2331 24.9504 50.2675 26.1744 50.2675 27.3845V51.3678C50.2675 52.2202 49.5574 52.802 48.8334 52.802H17.4569ZM0.978333 25.0469C0.978377 25.0469 0.978907 25.0473 0.979792 25.0484C0.97873 25.0474 0.978288 25.0469 0.978333 25.0469ZM1.0002 25.1079C1.00011 25.1097 0.99993 25.1106 0.99986 25.1106L1.0002 25.1079Z" fill="#EDB842" stroke="#EDB842"/>
<path d="M18.0801 32.8L24.6561 40.5366L38.1951 28.5449" stroke="#EDB842" stroke-width="2.288"/>
</svg>
