<svg width="46" height="46" viewBox="0 0 46 46" fill="none" xmlns="http://www.w3.org/2000/svg">
<path d="M25.1232 6.56676C24.291 5.56812 23.4573 4.56767 22.5073 3.45086C24.8023 3.08682 27.0613 2.68816 29.3155 2.29036L29.3181 2.2899C31.5863 1.88963 33.8496 1.49025 36.1469 1.12625C34.5516 5.36078 32.9473 9.46488 31.1937 13.8589C30.8655 13.4376 30.5394 13.0463 30.2186 12.6613L30.2142 12.656C29.714 12.0558 29.2265 11.4705 28.7398 10.7891L28.4584 10.3951L28.0556 10.6637C27.6034 10.9651 27.1616 11.2554 26.7276 11.5404C25.4568 12.3752 24.2536 13.1657 23.0553 14.0636C17.3136 17.8235 11.1882 20.5864 4.47889 21.9679C3.56625 22.1501 2.78589 22.0506 2.20707 21.7612C1.63643 21.4758 1.23475 20.9946 1.07121 20.3405C0.906184 19.6803 1.03208 19.0939 1.40235 18.6262C1.78078 18.1482 2.45541 17.7447 3.47022 17.5602L3.47024 17.5602L3.47884 17.5585C11.5669 15.9409 18.4227 11.9 25.0257 7.29795L25.4728 6.98633L25.1239 6.56766L25.1232 6.56676Z" fill="#EDB842" stroke="#EDB842"/>
<path d="M44.8004 29.667V29.6436V29.667ZM44.8004 29.667V29.6903M44.8004 29.667V29.6903M44.8004 29.6903V29.7137M44.8004 29.6903V29.7137M44.8004 29.7137V29.7371M44.8004 29.7137V29.7371M44.8004 29.7371V29.7605M44.8004 29.7371V29.7605M44.8004 29.7605V29.7838M44.8004 29.7605V29.7838M44.8004 29.7838V29.8072M44.8004 29.7838V29.8072M44.8004 29.8072V29.8306M44.8004 29.8072V29.8306M44.8004 29.8306V29.8539M44.8004 29.8306V29.8539M44.8004 29.8539V29.8773M44.8004 29.8539V29.8773M44.8004 29.8773V29.9006M44.8004 29.8773V29.9006M44.8004 29.9006V29.9239M44.8004 29.9006V29.9239M44.8004 29.9239V29.9473M44.8004 29.9239V29.9473M44.8004 29.9473V29.9706M44.8004 29.9473V29.9706M44.8004 29.9706V29.9939M44.8004 29.9706V29.9939M44.8004 29.9939V30.0173M44.8004 29.9939V30.0173M44.8004 30.0173V30.0406M44.8004 30.0173V30.0406M44.8004 30.0406V30.0639M44.8004 30.0406V30.0639M44.8004 30.0639V30.0872M44.8004 30.0639V30.0872M44.8004 30.0872V30.1105M44.8004 30.0872V30.1105M44.8004 30.1105V30.1338M44.8004 30.1105V30.1338M44.8004 30.1338V30.1571M44.8004 30.1338V30.1571M44.8004 30.1571V30.1804M44.8004 30.1571V30.1804M44.8004 30.1804V30.2037M44.8004 30.1804V30.2037M44.8004 30.2037V30.227M44.8004 30.2037V30.227M44.8004 30.227V30.2503M44.8004 30.227V30.2503M44.8004 30.2503V30.2736M44.8004 30.2503V30.2736M44.8004 30.2736V30.2968M44.8004 30.2736V30.2968M44.8004 30.2968V30.3201M44.8004 30.2968V30.3201M44.8004 30.3201V30.3434M44.8004 30.3201V30.3434M44.8004 30.3434V30.3666M44.8004 30.3434V30.3666M44.8004 30.3666V30.3899M44.8004 30.3666V30.3899M44.8004 30.3899V30.4131M44.8004 30.3899V30.4131M44.8004 30.4131V30.4364M44.8004 30.4131V30.4364M44.8004 30.4364V30.4596M44.8004 30.4364V30.4596M44.8004 30.4596V30.4829M44.8004 30.4596V30.4829M44.8004 30.4829V30.5061M44.8004 30.4829V30.5061M44.8004 30.5061V30.5293M44.8004 30.5061V30.5293M44.8004 30.5293V30.5526M44.8004 30.5293V30.5526M44.8004 30.5526V30.5758M44.8004 30.5526V30.5758M44.8004 30.5758V30.599M44.8004 30.5758V30.599M44.8004 30.599V30.6222M44.8004 30.599V30.6222M44.8004 30.6222V30.6455M44.8004 30.6222V30.6455M44.8004 30.6455V30.6687M44.8004 30.6455V30.6687M44.8004 30.6687V30.6919M44.8004 30.6687V30.6919M44.8004 30.6919V30.7151M44.8004 30.6919V30.7151M44.8004 30.7151V30.7383M44.8004 30.7151V30.7383M44.8004 30.7383V30.7615M44.8004 30.7383V30.7615M44.8004 30.7615V30.7847M44.8004 30.7615V30.7847M44.8004 30.7847V30.8079M44.8004 30.7847V30.8079M44.8004 30.8079V30.831M44.8004 30.8079V30.831M44.8004 30.831V30.8542M44.8004 30.831V30.8542M44.8004 30.8542V30.8774M44.8004 30.8542V30.8774M44.8004 30.8774V30.9006M44.8004 30.8774V30.9006M44.8004 30.9006V30.9237M44.8004 30.9006V30.9237M44.8004 30.9237V30.9469M44.8004 30.9237V30.9469M44.8004 30.9469V30.9701M44.8004 30.9469V30.9701M44.8004 30.9701V30.9932M44.8004 30.9701V30.9932M44.8004 30.9932V31.0164M44.8004 30.9932V31.0164M44.8004 31.0164V31.0395M44.8004 31.0164V31.0395M44.8004 31.0395V31.0627M44.8004 31.0395V31.0627M44.8004 31.0627V31.0858M44.8004 31.0627V31.0858M44.8004 31.0858V31.109M44.8004 31.0858V31.109M44.8004 31.109V31.1321M44.8004 31.109V31.1321M44.8004 31.1321V31.1552M44.8004 31.1321V31.1552M44.8004 31.1552V31.1784M44.8004 31.1552V31.1784M44.8004 31.1784V31.2015M44.8004 31.1784V31.2015M44.8004 31.2015V31.2246M44.8004 31.2015V31.2246M44.8004 31.2246V31.2478M44.8004 31.2246V31.2478M44.8004 31.2478V31.2709M44.8004 31.2478V31.2709M44.8004 31.2709V31.294M44.8004 31.2709V31.294M44.8004 31.294V31.3171M44.8004 31.294V31.3171M44.8004 31.3171V31.3402M44.8004 31.3171V31.3402M44.8004 31.3402V31.3633M44.8004 31.3402V31.3633M44.8004 31.3633V31.3864M44.8004 31.3633V31.3864M44.8004 31.3864V31.4095M44.8004 31.3864V31.4095M44.8004 31.4095V31.4326M44.8004 31.4095V31.4326M44.8004 31.4326V31.4557M44.8004 31.4326V31.4557M44.8004 31.4557V31.4788M44.8004 31.4557V31.4788M44.8004 31.4788V31.5019M44.8004 31.4788V31.5019M44.8004 31.5019V31.525M44.8004 31.5019V31.525M44.8004 31.525V31.548M44.8004 31.525V31.548M44.8004 31.548V31.5711M44.8004 31.548V31.5711M44.8004 31.5711V31.5942M44.8004 31.5711V31.5942M44.8004 31.5942V31.6173M44.8004 31.5942V31.6173M44.8004 31.6173V31.6403M44.8004 31.6173V31.6403M44.8004 31.6403V31.6634M44.8004 31.6403V31.6634M44.8004 31.6634V31.6864M44.8004 31.6634V31.6864M44.8004 31.6864V31.7095M44.8004 31.6864V31.7095M44.8004 31.7095V31.7326M44.8004 31.7095V31.7326M44.8004 31.7326V31.7556M44.8004 31.7326V31.7556M44.8004 31.7556V31.7787M44.8004 31.7556V31.7787M44.8004 31.7787V31.8017M44.8004 31.7787V31.8017M44.8004 31.8017V31.8248M44.8004 31.8017V31.8248M44.8004 31.8248V31.8478M44.8004 31.8248V31.8478M44.8004 31.8478V31.8708M44.8004 31.8478V31.8708M44.8004 31.8708V31.8939M44.8004 31.8708V31.8939M44.8004 31.8939V31.9169M44.8004 31.8939V31.9169M44.8004 31.9169V31.9399M44.8004 31.9169V31.9399M44.8004 31.9399V31.963M44.8004 31.9399V31.963M44.8004 31.963V31.986M44.8004 31.963V31.986M44.8004 31.986V32.009M44.8004 31.986V32.009M44.8004 32.009V32.032M44.8004 32.009V32.032M44.8004 32.032V32.055M44.8004 32.032V32.055M44.8004 32.055V32.078M44.8004 32.055V32.078M44.8004 32.078V32.1011M44.8004 32.078V32.1011M44.8004 32.1011V32.1241M44.8004 32.1011V32.1241M44.8004 32.1241V32.1471M44.8004 32.1241V32.1471M44.8004 32.1471V32.1701M44.8004 32.1471V32.1701M44.8004 32.1701V32.1931M44.8004 32.1701V32.1931M44.8004 32.1931V32.2161M44.8004 32.1931V32.2161M44.8004 32.2161V32.2391M44.8004 32.2161V32.2391M44.8004 32.2391V32.262M44.8004 32.2391V32.262M44.8004 32.262V32.285M44.8004 32.262V32.285M44.8004 32.285V32.308M44.8004 32.285V32.308M44.8004 32.308V32.331M44.8004 32.308V32.331M44.8004 32.331V32.354M44.8004 32.331V32.354M44.8004 32.354V32.377M44.8004 32.354V32.377M44.8004 32.377V32.3999M44.8004 32.377V32.3999M44.8004 32.3999V32.4229M44.8004 32.3999V32.4229M44.8004 32.4229V32.4459M44.8004 32.4229V32.4459M44.8004 32.4459V32.4689M44.8004 32.4459V32.4689M44.8004 32.4689V32.4918M44.8004 32.4689V32.4918M44.8004 32.4918V32.5148M44.8004 32.4918V32.5148M44.8004 32.5148V32.5378M44.8004 32.5148V32.5378M44.8004 32.5378V32.5607M44.8004 32.5378V32.5607M44.8004 32.5607V32.5837M44.8004 32.5607V32.5837M44.8004 32.5837V32.6066M44.8004 32.5837V32.6066M44.8004 32.6066V32.6296M44.8004 32.6066V32.6296M44.8004 32.6296V32.6525M44.8004 32.6296V32.6525M44.8004 32.6525V32.6755M44.8004 32.6525V32.6755M44.8004 32.6755V32.6984M44.8004 32.6755V32.6984M44.8004 32.6984V32.7214M44.8004 32.6984V32.7214M44.8004 32.7214V32.7443M44.8004 32.7214V32.7443M44.8004 32.7443V32.7673M44.8004 32.7443V32.7673M44.8004 32.7673V32.7902M44.8004 32.7673V32.7902M44.8004 32.7902V32.8131M44.8004 32.7902V32.8131M44.8004 32.8131V32.8361M44.8004 32.8131V32.8361M44.8004 32.8361V32.859M44.8004 32.8361V32.859M44.8004 32.859V32.8819M44.8004 32.859V32.8819M44.8004 32.8819V32.9048M44.8004 32.8819V32.9048M44.8004 32.9048V32.9278M44.8004 32.9048V32.9278M44.8004 32.9278V32.9507M44.8004 32.9278V32.9507M44.8004 32.9507V32.9736M44.8004 32.9507V32.9736M44.8004 32.9736V32.9965M44.8004 32.9736V32.9965M44.8004 32.9965V33.0194M44.8004 32.9965V33.0194M44.8004 33.0194V33.0424M44.8004 33.0194V33.0424M44.8004 33.0424V33.0653M44.8004 33.0424V33.0653M44.8004 33.0653V33.0882M44.8004 33.0653V33.0882M44.8004 33.0882V33.1111M44.8004 33.0882V33.1111M44.8004 33.1111V33.134M44.8004 33.1111V33.134M44.8004 33.134V33.1569M44.8004 33.134V33.1569M44.8004 33.1569V33.1798M44.8004 33.1569V33.1798M44.8004 33.1798V33.2027M44.8004 33.1798V33.2027M44.8004 33.2027V33.2256M44.8004 33.2027V33.2256M44.8004 33.2256V33.2485M44.8004 33.2256V33.2485M44.8004 33.2485V33.2714M44.8004 33.2485V33.2714M44.8004 33.2714V33.2943M44.8004 33.2714V33.2943M44.8004 33.2943V33.3172M44.8004 33.2943V33.3172M44.8004 33.3172V33.3401M44.8004 33.3172V33.3401M44.8004 33.3401V33.363M44.8004 33.3401V33.363M44.8004 33.363V33.3859M44.8004 33.363V33.3859M44.8004 33.3859V33.4087M44.8004 33.3859V33.4087M44.8004 33.4087V33.4316M44.8004 33.4087V33.4316M44.8004 33.4316V33.4545M44.8004 33.4316V33.4545M44.8004 33.4545V33.4774M44.8004 33.4545V33.4774M44.8004 33.4774V33.5003M44.8004 33.4774V33.5003M44.8004 33.5003V33.5231M44.8004 33.5003V33.5231M44.8004 33.5231V33.546M44.8004 33.5231V33.546M44.8004 33.546V33.5689M44.8004 33.546V33.5689M44.8004 33.5689V33.5918M44.8004 33.5689V33.5918M44.8004 33.5918V33.6146M44.8004 33.5918V33.6146M44.8004 33.6146V33.6375M44.8004 33.6146V33.6375M44.8004 33.6375V33.6604M44.8004 33.6375V33.6604M44.8004 33.6604V33.6833M44.8004 33.6604V33.6833M44.8004 33.6833V33.7061M44.8004 33.6833V33.7061M44.8004 33.7061V33.729M44.8004 33.7061V33.729M44.8004 33.729V33.7518M44.8004 33.729V33.7518M44.8004 33.7518V33.7747M44.8004 33.7518V33.7747M44.8004 33.7747V33.7976M44.8004 33.7747V33.7976M44.8004 33.7976V33.8204M44.8004 33.7976V33.8204M44.8004 33.8204V33.8433M44.8004 33.8204V33.8433M44.8004 33.8433V33.8661M44.8004 33.8433V33.8661M44.8004 33.8661V33.889M44.8004 33.8661V33.889M44.8004 33.889V33.9118M44.8004 33.889V33.9118M44.8004 33.9118V33.9347M44.8004 33.9118V33.9347M44.8004 33.9347V33.9575M44.8004 33.9347V33.9575M44.8004 33.9575V33.9804M44.8004 33.9575V33.9804M44.8004 33.9804V34.0032M44.8004 33.9804V34.0032M44.8004 34.0032V34.0261M44.8004 34.0032V34.0261M44.8004 34.0261V34.0489M44.8004 34.0261V34.0489M44.8004 34.0489V34.0718M44.8004 34.0489V34.0718M44.8004 34.0718V34.0946M44.8004 34.0718V34.0946M44.8004 34.0946V34.1175M44.8004 34.0946V34.1175M44.8004 34.1175V34.1403M44.8004 34.1175V34.1403M44.8004 34.1403V34.1632M44.8004 34.1403V34.1632M44.8004 34.1632V34.186M44.8004 34.1632V34.186M44.8004 34.186V34.2088M44.8004 34.186V34.2088M44.8004 34.2088V34.2317M44.8004 34.2088V34.2317M44.8004 34.2317V34.2545M44.8004 34.2317V34.2545M44.8004 34.2545V34.2773M44.8004 34.2545V34.2773M44.8004 34.2773V34.3002M44.8004 34.2773V34.3002M44.8004 34.3002V34.323M44.8004 34.3002V34.323M44.8004 34.323V34.3458M44.8004 34.323V34.3458M44.8004 34.3458V34.3687M44.8004 34.3458V34.3687M44.8004 34.3687V34.3915M44.8004 34.3687V34.3915M44.8004 34.3915V34.4143M44.8004 34.3915V34.4143M44.8004 34.4143V34.4372M44.8004 34.4143V34.4372M44.8004 34.4372V34.46M44.8004 34.4372V34.46M44.8004 34.46V34.4828M44.8004 34.46V34.4828M44.8004 34.4828V34.5056M44.8004 34.4828V34.5056M44.8004 34.5056V34.5285M44.8004 34.5056V34.5285M44.8004 34.5285V34.5513M44.8004 34.5285V34.5513M44.8004 34.5513V34.5741M44.8004 34.5513V34.5741M44.8004 34.5741V34.5969M44.8004 34.5741V34.5969M44.8004 34.5969V34.6198M44.8004 34.5969V34.6198M44.8004 34.6198V34.6426M44.8004 34.6198V34.6426M44.8004 34.6426V34.6654M44.8004 34.6426V34.6654M44.8004 34.6654V34.6882M44.8004 34.6654V34.6882M44.8004 34.6882V34.711M44.8004 34.6882V34.711M44.8004 34.711V34.7339M44.8004 34.711V34.7339M44.8004 34.7339V34.7567M44.8004 34.7339V34.7567M44.8004 34.7567V34.7795M44.8004 34.7567V34.7795M44.8004 34.7795V34.8023M44.8004 34.7795V34.8023M44.8004 34.8023V34.8251M44.8004 34.8023V34.8251M44.8004 34.8251V34.8479M44.8004 34.8251V34.8479M44.8004 34.8479V34.8708M44.8004 34.8479V34.8708M44.8004 34.8708V34.8936M44.8004 34.8708V34.8936M44.8004 34.8936V34.9164M44.8004 34.8936V34.9164M44.8004 34.9164V34.9392M44.8004 34.9164V34.9392M44.8004 34.9392V34.962M44.8004 34.9392V34.962M44.8004 34.962V34.9848M44.8004 34.962V34.9848M44.8004 34.9848V35.0077M44.8004 34.9848V35.0077M44.8004 35.0077V35.0305M44.8004 35.0077V35.0305M44.8004 35.0305V35.0533M44.8004 35.0305V35.0533M44.8004 35.0533V35.0761M44.8004 35.0533V35.0761M44.8004 35.0761V35.0989M44.8004 35.0761V35.0989M44.8004 35.0989V35.1217M44.8004 35.0989V35.1217M44.8004 35.1217V35.1445M44.8004 35.1217V35.1445M44.8004 35.1445V35.1673M44.8004 35.1445V35.1673M44.8004 35.1673V35.1901M44.8004 35.1673V35.1901M44.8004 35.1901V35.2129M44.8004 35.1901V35.2129M44.8004 35.2129V35.2358M44.8004 35.2129V35.2358M44.8004 35.2358V35.2586M44.8004 35.2358V35.2586M44.8004 35.2586V35.2814M44.8004 35.2586V35.2814M44.8004 35.2814V35.3042M44.8004 35.2814V35.3042M44.8004 35.3042V35.327M44.8004 35.3042V35.327M44.8004 35.327V35.3498M44.8004 35.327V35.3498M44.8004 35.3498V35.3726M44.8004 35.3498V35.3726M44.8004 35.3726V35.3954M44.8004 35.3726V35.3954M44.8004 35.3954V35.4182M44.8004 35.3954V35.4182M44.8004 35.4182V35.441M44.8004 35.4182V35.441M44.8004 35.441V35.4638M44.8004 35.441V35.4638M44.8004 35.4638V35.4867M44.8004 35.4638V35.4867M44.8004 35.4867V35.5095M44.8004 35.4867V35.5095M44.8004 35.5095V35.5323M44.8004 35.5095V35.5323M44.8004 35.5323V35.5551M44.8004 35.5323V35.5551M44.8004 35.5551V35.5779M44.8004 35.5551V35.5779M44.8004 35.5779V35.6007M44.8004 35.5779V35.6007M44.8004 35.6007V35.6235M44.8004 35.6007V35.6235M44.8004 35.6235V35.6463M44.8004 35.6235V35.6463M44.8004 35.6463V35.6691M44.8004 35.6463V35.6691M44.8004 35.6691V35.6919M44.8004 35.6691V35.6919M44.8004 35.6919V35.7147M44.8004 35.6919V35.7147M44.8004 35.7147V35.7375M44.8004 35.7147V35.7375M44.8004 35.7375V35.7603M44.8004 35.7375V35.7603M44.8004 35.7603V35.7832M44.8004 35.7603V35.7832M44.8004 35.7832V35.806M44.8004 35.7832V35.806M44.8004 35.806V35.8288M44.8004 35.806V35.8288M44.8004 35.8288V35.8516M44.8004 35.8288V35.8516M44.8004 35.8516V35.8744M44.8004 35.8516V35.8744M44.8004 35.8744V35.8972M44.8004 35.8744V35.8972M44.8004 35.8972V35.92M44.8004 35.8972V35.92M44.8004 35.92V35.9428M44.8004 35.92V35.9428M44.8004 35.9428V35.9656M44.8004 35.9428V35.9656M44.8004 35.9656V35.9884M44.8004 35.9656V35.9884M44.8004 35.9884V36.0113M44.8004 35.9884V36.0113M44.8004 36.0113V36.0341M44.8004 36.0113V36.0341M44.8004 36.0341V36.0569M44.8004 36.0341V36.0569M44.8004 36.0569V36.0797M44.8004 36.0569V36.0797M44.8004 36.0797V36.1025M44.8004 36.0797V36.1025M44.8004 36.1025V36.1253M44.8004 36.1025V36.1253M44.8004 36.1253V36.1481M44.8004 36.1253V36.1481M44.8004 36.1481V36.1709M44.8004 36.1481V36.1709M44.8004 36.1709V36.1938M44.8004 36.1709V36.1938M44.8004 36.1938V36.2166M44.8004 36.1938V36.2166M44.8004 36.2166V36.2394M44.8004 36.2166V36.2394M44.8004 36.2394V36.2622M44.8004 36.2394V36.2622M44.8004 36.2622V36.285M44.8004 36.2622V36.285M44.8004 36.285V36.3078M44.8004 36.285V36.3078M44.8004 36.3078V36.3307M44.8004 36.3078V36.3307M44.8004 36.3307V36.3535M44.8004 36.3307V36.3535M44.8004 36.3535V36.3763M44.8004 36.3535V36.3763M44.8004 36.3763V36.3991M44.8004 36.3763V36.3991M44.8004 36.3991V36.4219M44.8004 36.3991V36.4219M44.8004 36.4219V36.4448M44.8004 36.4219V36.4448M44.8004 36.4448V36.4676M44.8004 36.4448V36.4676M44.8004 36.4676V36.4904M44.8004 36.4676V36.4904M44.8004 36.4904V36.5132M44.8004 36.4904V36.5132M44.8004 36.5132V36.5361M44.8004 36.5132V36.5361M44.8004 36.5361V36.5589M44.8004 36.5361V36.5589M44.8004 36.5589V36.5817M44.8004 36.5589V36.5817M44.8004 36.5817V36.6045M44.8004 36.5817V36.6045M44.8004 36.6045V36.6274M44.8004 36.6045V36.6274M44.8004 36.6274V36.6502M44.8004 36.6274V36.6502M44.8004 36.6502V36.673M44.8004 36.6502V36.673M44.8004 36.673V36.6959M44.8004 36.673V36.6959M44.8004 36.6959V36.7187M44.8004 36.6959V36.7187M44.8004 36.7187V36.7415M44.8004 36.7187V36.7415M44.8004 36.7415V36.7644M44.8004 36.7415V36.7644M44.8004 36.7644V36.7872M44.8004 36.7644V36.7872M44.8004 36.7872V36.81M44.8004 36.7872V36.81M44.8004 36.81V36.8329M44.8004 36.81V36.8329M44.8004 36.8329V36.8557M44.8004 36.8329V36.8557M44.8004 36.8557V36.8785M44.8004 36.8557V36.8785M44.8004 36.8785V36.9014M44.8004 36.8785V36.9014M44.8004 36.9014V36.9242M44.8004 36.9014V36.9242M44.8004 36.9242V36.9471M44.8004 36.9242V36.9471M44.8004 36.9471V36.9699M44.8004 36.9471V36.9699M44.8004 36.9699V36.9927M44.8004 36.9699V36.9927M44.8004 36.9927V37.0156M44.8004 36.9927V37.0156M44.8004 37.0156V37.0384M44.8004 37.0156V37.0384M44.8004 37.0384V37.0613M44.8004 37.0384V37.0613M44.8004 37.0613V37.0841M44.8004 37.0613V37.0841M44.8004 37.0841V37.107M44.8004 37.0841V37.107M44.8004 37.107V37.1298M44.8004 37.107V37.1298M44.8004 37.1298V37.1527M44.8004 37.1298V37.1527M44.8004 37.1527V37.1755M44.8004 37.1527V37.1755M44.8004 37.1755V37.1984M44.8004 37.1755V37.1984M44.8004 37.1984V37.2212M44.8004 37.1984V37.2212M44.8004 37.2212V37.2441M44.8004 37.2212V37.2441M44.8004 37.2441V37.267M44.8004 37.2441V37.267M44.8004 37.267V37.2898M44.8004 37.267V37.2898M44.8004 37.2898V37.3127M44.8004 37.2898V37.3127M44.8004 37.3127V37.3356M44.8004 37.3127V37.3356M44.8004 37.3356V37.3584M44.8004 37.3356V37.3584M44.8004 37.3584V37.3813M44.8004 37.3584V37.3813M44.8004 37.3813V37.4041M44.8004 37.3813V37.4041M44.8004 37.4041V37.427M44.8004 37.4041V37.427M44.8004 37.427V37.4499M44.8004 37.427V37.4499M44.8004 37.4499V37.4728M44.8004 37.4499V37.4728M44.8004 37.4728V37.4956M44.8004 37.4728V37.4956M44.8004 37.4956V37.5185M44.8004 37.4956V37.5185M44.8004 37.5185V37.5414M44.8004 37.5185V37.5414M44.8004 37.5414V37.5643M44.8004 37.5414V37.5643M44.8004 37.5643V37.5871M44.8004 37.5643V37.5871M44.8004 37.5871V37.61M44.8004 37.5871V37.61M44.8004 37.61V37.6329M44.8004 37.61V37.6329M44.8004 37.6329V37.6558M44.8004 37.6329V37.6558M44.8004 37.6558V37.6787M44.8004 37.6558V37.6787M44.8004 37.6787V37.7016M44.8004 37.6787V37.7016M44.8004 37.7016V37.7244M44.8004 37.7016V37.7244M44.8004 37.7244V37.7473M44.8004 37.7244V37.7473M44.8004 37.7473V37.7702M44.8004 37.7473V37.7702M44.8004 37.7702V37.7931M44.8004 37.7702V37.7931M44.8004 37.7931V37.816M44.8004 37.7931V37.816M44.8004 37.816V37.8389M44.8004 37.816V37.8389M44.8004 37.8389V37.8618M44.8004 37.8389V37.8618M44.8004 37.8618V37.8847M44.8004 37.8618V37.8847M44.8004 37.8847V37.9076M44.8004 37.8847V37.9076M44.8004 37.9076V37.9305M44.8004 37.9076V37.9305M44.8004 37.9305V37.9534M44.8004 37.9305V37.9534M44.8004 37.9534V37.9763M44.8004 37.9534V37.9763M44.8004 37.9763V37.9993M44.8004 37.9763V37.9993M44.8004 37.9993V38.0222M44.8004 37.9993V38.0222M44.8004 38.0222V38.0451M44.8004 38.0222V38.0451M44.8004 38.0451V38.068M44.8004 38.0451V38.068M44.8004 38.068V38.0909M44.8004 38.068V38.0909M44.8004 38.0909V38.1138M44.8004 38.0909V38.1138M44.8004 38.1138V38.1368M44.8004 38.1138V38.1368M44.8004 38.1368V38.1597M44.8004 38.1368V38.1597M44.8004 38.1597V38.1826M44.8004 38.1597V38.1826M44.8004 38.1826V38.2055M44.8004 38.1826V38.2055M44.8004 38.2055V38.2285M44.8004 38.2055V38.2285M44.8004 38.2285V38.2514M44.8004 38.2285V38.2514M44.8004 38.2514V38.2743M44.8004 38.2514V38.2743M44.8004 38.2743V38.2973M44.8004 38.2743V38.2973M44.8004 38.2973V38.3202M44.8004 38.2973V38.3202M44.8004 38.3202V38.3432M44.8004 38.3202V38.3432M44.8004 38.3432V38.3661M44.8004 38.3432V38.3661M44.8004 38.3661V38.3891M44.8004 38.3661V38.3891M44.8004 38.3891V38.412M44.8004 38.3891V38.412M44.8004 38.412V38.435M44.8004 38.412V38.435M44.8004 38.435V38.4579M44.8004 38.435V38.4579M44.8004 38.4579V38.4809M44.8004 38.4579V38.4809M44.8004 38.4809V38.5038M44.8004 38.4809V38.5038M44.8004 38.5038V38.5268M44.8004 38.5038V38.5268M44.8004 38.5268V38.5497M44.8004 38.5268V38.5497M44.8004 38.5497V38.5727M44.8004 38.5497V38.5727M44.8004 38.5727V38.5957M44.8004 38.5727V38.5957M44.8004 38.5957V38.6186M44.8004 38.5957V38.6186M44.8004 38.6186V38.6416M44.8004 38.6186V38.6416M44.8004 38.6416V38.6646M44.8004 38.6416V38.6646M44.8004 38.6646V38.6876M44.8004 38.6646V38.6876M44.8004 38.6876V38.7105M44.8004 38.6876V38.7105M44.8004 38.7105V38.7335M44.8004 38.7105V38.7335M44.8004 38.7335V38.7565M44.8004 38.7335V38.7565M44.8004 38.7565V38.7795M44.8004 38.7565V38.7795M44.8004 38.7795V38.8025M44.8004 38.7795V38.8025M44.8004 38.8025V38.8255M44.8004 38.8025V38.8255M44.8004 38.8255V38.8485M44.8004 38.8255V38.8485M44.8004 38.8485V38.8715M44.8004 38.8485V38.8715M44.8004 38.8715V38.8945M44.8004 38.8715V38.8945M44.8004 38.8945V38.9175M44.8004 38.8945V38.9175M44.8004 38.9175V38.9405M44.8004 38.9175V38.9405M44.8004 38.9405V38.9635M44.8004 38.9405V38.9635M44.8004 38.9635V38.9865M44.8004 38.9635V38.9865M44.8004 38.9865V39.0095M44.8004 38.9865V39.0095M44.8004 39.0095V39.0325M44.8004 39.0095V39.0325M44.8004 39.0325V39.0555M44.8004 39.0325V39.0555M44.8004 39.0555V39.0786M44.8004 39.0555V39.0786M44.8004 39.0786V39.1016M44.8004 39.0786V39.1016M44.8004 39.1016V39.1246M44.8004 39.1016V39.1246M44.8004 39.1246V39.1476M44.8004 39.1246V39.1476M44.8004 39.1476V39.1707M44.8004 39.1476V39.1707M44.8004 39.1707V39.1937M44.8004 39.1707V39.1937M44.8004 39.1937V39.2167M44.8004 39.1937V39.2167M44.8004 39.2167V39.2398M44.8004 39.2167V39.2398M44.8004 39.2398V39.2628M44.8004 39.2398V39.2628M44.8004 39.2628V39.2859M44.8004 39.2628V39.2859M44.8004 39.2859V39.3089M44.8004 39.2859V39.3089M44.8004 39.3089V39.332M44.8004 39.3089V39.332M44.8004 39.332V39.355M44.8004 39.332V39.355M44.8004 39.355V39.3781M44.8004 39.355V39.3781M44.8004 39.3781V39.4011M44.8004 39.3781V39.4011M44.8004 39.4011V39.4242M44.8004 39.4011V39.4242M44.8004 39.4242V39.4473M44.8004 39.4242V39.4473M44.8004 39.4473V39.4703M44.8004 39.4473V39.4703M44.8004 39.4703V39.4934M44.8004 39.4703V39.4934M44.8004 39.4934V39.5165M44.8004 39.4934V39.5165M44.8004 39.5165V39.5396M44.8004 39.5165V39.5396M44.8004 39.5396V39.5627M44.8004 39.5396V39.5627M44.8004 39.5627V39.5857M44.8004 39.5627V39.5857M44.8004 39.5857V39.6088M44.8004 39.5857V39.6088M44.8004 39.6088V39.6319M44.8004 39.6088V39.6319M44.8004 39.6319V39.655M44.8004 39.6319V39.655M44.8004 39.655V39.6781M44.8004 39.655V39.6781M44.8004 39.6781V39.7012M44.8004 39.6781V39.7012M44.8004 39.7012V39.7243M44.8004 39.7012V39.7243M44.8004 39.7243V39.7474M44.8004 39.7243V39.7474M44.8004 39.7474V39.7705M44.8004 39.7474V39.7705M44.8004 39.7705V39.7937M44.8004 39.7705V39.7937M44.8004 39.7937V39.8168M44.8004 39.7937V39.8168M44.8004 39.8168V39.8399M44.8004 39.8168V39.8399M44.8004 39.8399V39.863M44.8004 39.8399V39.863M44.8004 39.863V39.8862M44.8004 39.863V39.8862M44.8004 39.8862V39.9093M44.8004 39.8862V39.9093M44.8004 39.9093V39.9324M44.8004 39.9093V39.9324M44.8004 39.9324V39.9556M44.8004 39.9324V39.9556M44.8004 39.9556V39.9787M44.8004 39.9556V39.9787M44.8004 39.9787V40.0018M44.8004 39.9787V40.0018M44.8004 40.0018V40.025M44.8004 40.0018V40.025M44.8004 40.025V40.0481M44.8004 40.025V40.0481M44.8004 40.0481V40.0713M44.8004 40.0481V40.0713M44.8004 40.0713V40.0945M44.8004 40.0713V40.0945M44.8004 40.0945V40.1176M44.8004 40.0945V40.1176M44.8004 40.1176V40.1408M44.8004 40.1176V40.1408M44.8004 40.1408V40.164M44.8004 40.1408V40.164M44.8004 40.164V40.1871M44.8004 40.164V40.1871M44.8004 40.1871V40.2103M44.8004 40.1871V40.2103M44.8004 40.2103V40.2335M44.8004 40.2103V40.2335M44.8004 40.2335V40.2567M44.8004 40.2335V40.2567M44.8004 40.2567V40.2799M44.8004 40.2567V40.2799M44.8004 40.2799V40.3031M44.8004 40.2799V40.3031M44.8004 40.3031V40.3263M44.8004 40.3031V40.3263M44.8004 40.3263V40.3495M44.8004 40.3263V40.3495M44.8004 40.3495V40.3727M44.8004 40.3495V40.3727M44.8004 40.3727V40.3959M44.8004 40.3727V40.3959M44.8004 40.3959V40.4191M44.8004 40.3959V40.4191M44.8004 40.4191V40.4423M44.8004 40.4191V40.4423M44.8004 40.4423V40.4655M44.8004 40.4423V40.4655M44.8004 40.4655V40.4887M44.8004 40.4655V40.4887M44.8004 40.4887V40.512M44.8004 40.4887V40.512M44.8004 40.512V40.5352M44.8004 40.512V40.5352M44.8004 40.5352V40.5584M44.8004 40.5352V40.5584M44.8004 40.5584V40.5817M44.8004 40.5584V40.5817M44.8004 40.5817V40.6049M44.8004 40.5817V40.6049M44.8004 40.6049V40.6281M44.8004 40.6049V40.6281M44.8004 40.6281V40.6514M44.8004 40.6281V40.6514M44.8004 40.6514V40.6746M44.8004 40.6514V40.6746M44.8004 40.6746V40.6979M44.8004 40.6746V40.6979M44.8004 40.6979V40.7212M44.8004 40.6979V40.7212M44.8004 40.7212V40.7444M44.8004 40.7212V40.7444M44.8004 40.7444V40.7677M44.8004 40.7444V40.7677M44.8004 40.7677V40.791M44.8004 40.7677V40.791M44.8004 40.791V40.8143M44.8004 40.791V40.8143M44.8004 40.8143V40.8375M44.8004 40.8143V40.8375M44.8004 40.8375V40.8608M44.8004 40.8375V40.8608M44.8004 40.8608V40.8841M44.8004 40.8608V40.8841M44.8004 40.8841V40.9074M44.8004 40.8841V40.9074M44.8004 40.9074V40.9307M44.8004 40.9074V40.9307M44.8004 40.9307V40.954M44.8004 40.9307V40.954M44.8004 40.954V40.9773M44.8004 40.954V40.9773M44.8004 40.9773V41.0006M44.8004 40.9773V41.0006M44.8004 41.0006V41.0239M44.8004 41.0006V41.0239M44.8004 41.0239V41.0473M44.8004 41.0239V41.0473M44.8004 41.0473V41.0706M44.8004 41.0473V41.0706M44.8004 41.0706V41.0939M44.8004 41.0706V41.0939M44.8004 41.0939V41.1172M44.8004 41.0939V41.1172M44.8004 41.1172V41.1406M44.8004 41.1172V41.1406M44.8004 41.1406V41.1639M44.8004 41.1406V41.1639M44.8004 41.1639V41.1873M44.8004 41.1639V41.1873M44.8004 41.1873V41.2106M44.8004 41.1873V41.2106M44.8004 41.2106V41.234M44.8004 41.2106V41.234M44.8004 41.234V41.2573M44.8004 41.234V41.2573M44.8004 41.2573V41.2807M44.8004 41.2573V41.2807M44.8004 41.2807V41.3041M44.8004 41.2807V41.3041M44.8004 41.3041V41.3274M44.8004 41.3041V41.3274M44.8004 41.3274V41.3508M44.8004 41.3274V41.3508M44.8004 41.3508V41.3742M44.8004 41.3508V41.3742M44.8004 41.3742V41.3976M44.8004 41.3742V41.3976M44.8004 41.3976V41.421M44.8004 41.3976V41.421M44.8004 41.421C44.8004 42.7802 44.5531 43.5073 44.1235 43.9369M44.8004 41.421L44.1235 43.9369M44.1235 43.9369C43.6871 44.3733 42.9549 44.6144 41.6879 44.7137M44.1235 43.9369L41.6879 44.7137M41.6879 44.7137H41.6863H41.6828H41.6792H41.6757H41.6722H41.6687H41.6652H41.6617H41.6582H41.6547H41.6512H41.6477H41.6442H41.6407H41.6371H41.6336H41.6301H41.6266H41.6231H41.6196H41.6161H41.6126H41.6091H41.6056H41.6021H41.5985H41.595H41.5915H41.588H41.5845H41.581H41.5775H41.574H41.5705H41.567H41.5635H41.5599H41.5564H41.5529H41.5494H41.5459H41.5424H41.5389H41.5354H41.5319H41.5284H41.5249H41.5213H41.5178H41.5143H41.5108H41.5073H41.5038H41.5003H41.4968H41.4933H41.4898H41.4863H41.4828H41.4792H41.4757H41.4722H41.4687H41.4652H41.4617H41.4582H41.4547H41.4512H41.4477H41.4442H41.4406H41.4371H41.4336H41.4301H41.4266H41.4231H41.4196H41.4161H41.4126H41.4091H41.4056H41.402H41.3985H41.395H41.3915H41.388H41.3845H41.381H41.3775H41.374H41.3705H41.367H41.3634H41.3599H41.3564H41.3529H41.3494H41.3459H41.3424H41.3389H41.3354H41.3319H41.3284H41.3248H41.3213H41.3178H41.3143H41.3108H41.3073H41.3038H41.3003H41.2968H41.2933H41.2898H41.2863H41.2827H41.2792H41.2757H41.2722H41.2687H41.2652H41.2617H41.2582H41.2547H41.2512H41.2477H41.2441H41.2406H41.2371H41.2336H41.2301H41.2266H41.2231H41.2196H41.2161H41.2126H41.2091H41.2055H41.202H41.1985H41.195H41.1915H41.188H41.1845H41.181H41.1775H41.174H41.1705H41.1669H41.1634H41.1599H41.1564H41.1529H41.1494H41.1459H41.1424H41.1389H41.1354H41.1319H41.1284H41.1248H41.1213H41.1178H41.1143H41.1108H41.1073H41.1038H41.1003H41.0968H41.0933H41.0898H41.0862H41.0827H41.0792H41.0757H41.0722H41.0687H41.0652H41.0617H41.0582H41.0547H41.0512H41.0476H41.0441H41.0406H41.0371H41.0336H41.0301H41.0266H41.0231H41.0196H41.0161H41.0126H41.009H41.0055H41.002H40.9985H40.995H40.9915H40.988H40.9845H40.981H40.9775H40.974H40.9705H40.9669H40.9634H40.9599H40.9564H40.9529H40.9494H40.9459H40.9424H40.9389H40.9354H40.9319H40.9283H40.9248H40.9213H40.9178H40.9143H40.9108H40.9073H40.9038H40.9003H40.8968H40.8933H40.8897H40.8862H40.8827H40.8792H40.8757H40.8722H40.8687H40.8652H40.8617H40.8582H40.8547H40.8511H40.8476H40.8441H40.8406H40.8371H40.8336H40.8301H40.8266H40.8231H40.8196H40.8161H40.8125H40.809H40.8055H40.802H40.7985H40.795H40.7915H40.788H40.7845H40.781H40.7775H40.774H40.7704H40.7669H40.7634H40.7599H40.7564H40.7529H40.7494H40.7459H40.7424H40.7389H40.7354H40.7318H40.7283H40.7248H40.7213H40.7178H40.7143H40.7108H40.7073H40.7038H40.7003H40.6968H40.6932H40.6897H40.6862H40.6827H40.6792H40.6757H40.6722H40.6687H40.6652H40.6617H40.6582H40.6546H40.6511H40.6476H40.6441H40.6406H40.6371H40.6336H40.6301H40.6266H40.6231H40.6196H40.6161H40.6125H40.609H40.6055H40.602H40.5985H40.595H40.5915H40.588H40.5845H40.581H40.5775H40.5739H40.5704H40.5669H40.5634H40.5599H40.5564H40.5529H40.5494H40.5459H40.5424H40.5389H40.5353H40.5318H40.5283H40.5248H40.5213H40.5178H40.5143H40.5108H40.5073H40.5038H40.5003H40.4967H40.4932H40.4897H40.4862H40.4827H40.4792H40.4757H40.4722H40.4687H40.4652H40.4617H40.4582H40.4546H40.4511H40.4476H40.4441H40.4406H40.4371H40.4336H40.4301H40.4266H40.4231H40.4196H40.416H40.4125H40.409H40.4055H40.402H40.3985H40.395H40.3915H40.388H40.3845H40.381H40.3774H40.3739H40.3704H40.3669H40.3634H40.3599H40.3564H40.3529H40.3494H40.3459H40.3424H40.3388H40.3353H40.3318H40.3283H40.3248H40.3213H40.3178H40.3143H40.3108H40.3073H40.3038H40.3002H40.2967H40.2932H40.2897H40.2862H40.2827H40.2792H40.2757H40.2722H40.2687H40.2652H40.2617H40.2581H40.2546H40.2511H40.2476H40.2441H40.2406H40.2371H40.2336H40.2301H40.2266H40.2231H40.2195H40.216H40.2125H40.209H40.2055H40.202H40.1985H40.195H40.1915H40.188H40.1845H40.1809H40.1774H40.1739H40.1704H40.1669H40.1634H40.1599H40.1564H40.1529H40.1494H40.1459H40.1423H40.1388H40.1353H40.1318H40.1283H40.1248H40.1213H40.1178H40.1143H40.1108H40.1073H40.1038H40.1002H40.0967H40.0932H40.0897H40.0862H40.0827H40.0792H40.0757H40.0722H40.0687H40.0652H40.0616H40.0581H40.0546H40.0511H40.0476H40.0441H40.0406H40.0371H40.0336H40.0301H40.0266H40.023H40.0195H40.016H40.0125H40.009H40.0055H40.002H39.9985H39.995H39.9915H39.988H39.9844H39.9809H39.9774H39.9739H39.9704H39.9669H39.9634H39.9599H39.9564H39.9529H39.9494H39.9459H39.9423H39.9391C39.1278 44.6193 38.5029 44.3516 38.0848 43.9534C37.6715 43.5598 37.4165 42.9979 37.4165 42.2194V42.1715V42.1235V42.0756V42.0276V41.9796V41.9316V41.8836V41.8357V41.7877V41.7397V41.6917V41.6437V41.5956V41.5476V41.4996V41.4516V41.4036V41.3555V41.3075V41.2595V41.2114V41.1634V41.1153V41.0672V41.0192V40.9711V40.923V40.875V40.8269V40.7788V40.7307V40.6826V40.6345V40.5864V40.5383V40.4902V40.4421V40.394V40.3459V40.2978V40.2497V40.2015V40.1534V40.1053V40.0571V40.009V39.9608V39.9127V39.8645V39.8164V39.7682V39.72V39.6719V39.6237V39.5755V39.5273V39.4791V39.431V39.3828V39.3346V39.2864V39.2382V39.19V39.1417V39.0935V39.0453V38.9971V38.9489V38.9007V38.8524V38.8042V38.756V38.7077V38.6595V38.6112V38.563V38.5147V38.4665V38.4182V38.3699V38.3217V38.2734V38.2251V38.1769V38.1286V38.0803V38.032V37.9837V37.9355V37.8872V37.8389V37.7906V37.7423V37.694V37.6457V37.5973V37.549V37.5007V37.4524V37.4041V37.3558V37.3074V37.2591V37.2108V37.1624V37.1141V37.0658V37.0174V36.9691V36.9207V36.8724V36.824V36.7757V36.7273V36.6789V36.6306V36.5822V36.5338V36.4855V36.4371V36.3887V36.3403V36.292V36.2436V36.1952V36.1468V36.0984V36.05V36.0016V35.9532V35.9048V35.8564V35.808V35.7596V35.7112V35.6628V35.6144V35.566V35.5176V35.4691V35.4207V35.3723V35.3239V35.2754V35.227V35.1786V35.1302V35.0817V35.0333V34.9848V34.9364V34.888V34.8395V34.7911V34.7426V34.6942V34.6457V34.5973V34.5488V34.5004V34.4519V34.4034V34.355V34.3065V34.258V34.2096V34.1611V34.1126V34.0642V34.0157V33.9672V33.9187V33.8703V33.8218V33.7733V33.7248V33.6763V33.6279V33.5794V33.5309V33.4824V33.4339V33.3854V33.3369V33.2884V33.2399V33.1914V33.1429V33.0944V33.0459V32.9974V32.9489V32.9004V32.8519V32.8034V32.7549V32.7064V32.6579V32.6094V32.5609V32.5124V32.4639V32.4153V32.3668V32.3183V32.2698V32.2213V32.1728V32.1242V32.0757V32.0272V31.9787V31.9301V31.8816V31.8331V31.7846V31.736V31.6875V31.639V31.5905V31.5419V31.4934V31.4449V31.3963V31.3478V31.2993V31.2508V31.2022V31.1537V31.1052V31.0566V31.0081V30.9596V30.911V30.8625V30.8139V30.7654V30.7169V30.6683V30.6198V30.5713V30.5227V30.4742V30.4256V30.3771V30.3286V30.28V30.2315V30.183V30.1344V30.0859V30.0373V29.9888V29.9403V29.8917V29.8432V29.7946V29.7461V29.6976V29.649V29.6005V29.5519V29.5034V29.4549V29.4063V29.3578V29.3092V29.2607V29.2122V29.1636V29.1151V29.0666V29.018V28.9695V28.9209V28.8724V28.8239V28.7753V28.7268V28.6783V28.6297V28.5812V28.5327V28.4841V28.4356V28.3871V28.3385V28.29V28.2415V28.1929V28.1444V28.0959V28.0474V27.9988V27.9503V27.9018V27.8533V27.8047V27.7562V27.7077V27.6592V27.6106V27.5621V27.5136V27.4651V27.4166V27.368V27.3195V27.271V27.2225V27.174V27.1255V27.077V27.0285V26.9799V26.9314V26.8829V26.8344V26.7859V26.7374V26.6889V26.6404V26.5919V26.5434V26.4949V26.4464V26.3979V26.3494V26.3009V26.2524V26.204V26.1555V26.107V26.0585V26.01V25.9615V25.913V25.8646V25.8161V25.7676V25.7191V25.6707V25.6222V25.5737V25.5252V25.4768V25.4283V25.3798V25.3314V25.2829V25.2345V25.186V25.1375V25.0891V25.0406V24.9922V24.9437V24.8953V24.8468V24.7984V24.75V24.7015V24.6531V24.6046V24.5562V24.5078V24.4593V24.4109V24.3625V24.3141V24.2656V24.2172V24.1688V24.1204V24.072V24.0236V23.9751V23.9267V23.8783V23.8299V23.7815V23.7331V23.6847V23.6363V23.5879V23.5395V23.4912V23.4428V23.3944V23.346V23.2976V23.2493V23.2009V23.1525V23.1041V23.0558V23.0074V22.9591V22.9107V22.8623V22.814V22.7656V22.7173V22.6689V22.6206V22.5723V22.5239V22.4756V22.4273V22.3789V22.3306V22.2823V22.234V22.1856V22.1373V22.089V22.0407V21.9924V21.9441V21.8958V21.8475V21.7992V21.7509V21.7026V21.6543V21.606V21.5578V21.5095V21.4612V21.4129V21.3647V21.3164V21.2681V21.2199V21.1716V21.1234V21.0751V21.0269V20.9786V20.9304V20.8822V20.8339V20.7857V20.7375V20.6893V20.641V20.5928V20.5446V20.4964V20.4482V20.4V20.3518V20.3036V20.2554V20.2072V20.159V20.1108V20.0627V20.0145V19.9663V19.9182V19.87V19.8218V19.7737V19.7255V19.6774V19.6292V19.5811V19.533V19.4848V19.4367V19.3886V19.3405V19.2923V19.2442V19.1961V19.148V19.0999V19.0518V19.0037V18.9556V18.9075V18.8595V18.8114V18.7633V18.7152V18.6672V18.6191V18.571V18.523V18.4749V18.4269V18.3789V18.3308V18.2828V18.2348V18.1867V18.1387V18.0907V18.0427V17.9947V17.9467V17.8987V17.8507V17.8027V17.7547V17.7067V17.6588V17.6108V17.5628V17.5149V17.4669C37.4165 16.6885 37.6715 16.1266 38.0848 15.733C38.5029 15.3348 39.1278 15.0671 39.9391 14.9727H39.9425H39.9461H39.9496H39.9532H39.9568H39.9603H39.9639H39.9675H39.9711H39.9747H39.9782H39.9818H39.9854H39.989H39.9927H39.9963H39.9999H40.0035H40.0071H40.0108H40.0144H40.018H40.0217H40.0253H40.029H40.0326H40.0363H40.04H40.0436H40.0473H40.051H40.0547H40.0584H40.0621H40.0658H40.0694H40.0732H40.0769H40.0806H40.0843H40.088H40.0917H40.0955H40.0992H40.1029H40.1067H40.1104H40.1142H40.1179H40.1217H40.1254H40.1292H40.133H40.1367H40.1405H40.1443H40.1481H40.1519H40.1557H40.1595H40.1633H40.1671H40.1709H40.1747H40.1785H40.1823H40.1862H40.19H40.1938H40.1976H40.2015H40.2053H40.2092H40.213H40.2169H40.2207H40.2246H40.2285H40.2323H40.2362H40.2401H40.244H40.2479H40.2518H40.2557H40.2595H40.2634H40.2674H40.2713H40.2752H40.2791H40.283H40.2869H40.2909H40.2948H40.2987H40.3027H40.3066H40.3105H40.3145H40.3184H40.3224H40.3264H40.3303H40.3343H40.3383H40.3422H40.3462H40.3502H40.3542H40.3582H40.3622H40.3662H40.3701H40.3741H40.3782H40.3822H40.3862H40.3902H40.3942H40.3982H40.4023H40.4063H40.4103H40.4144H40.4184H40.4224H40.4265H40.4305H40.4346H40.4386H40.4427H40.4468H40.4508H40.4549H40.459H40.463H40.4671H40.4712H40.4753H40.4794H40.4835H40.4876H40.4917H40.4958H40.4999H40.504H40.5081H40.5122H40.5163H40.5205H40.5246H40.5287H40.5328H40.537H40.5411H40.5452H40.5494H40.5535H40.5577H40.5618H40.566H40.5701H40.5743H40.5785H40.5826H40.5868H40.591H40.5952H40.5993H40.6035H40.6077H40.6119H40.6161H40.6203H40.6245H40.6287H40.6329H40.6371H40.6413H40.6455H40.6497H40.6539H40.6582H40.6624H40.6666H40.6708H40.6751H40.6793H40.6835H40.6878H40.692H40.6963H40.7005H40.7048H40.709H40.7133H40.7175H40.7218H40.7261H40.7303H40.7346H40.7389H40.7431H40.7474H40.7517H40.756H40.7603H40.7646H40.7689H40.7732H40.7774H40.7817H40.7861H40.7904H40.7947H40.799H40.8033H40.8076H40.8119H40.8162H40.8206H40.8249H40.8292H40.8335H40.8379H40.8422H40.8465H40.8509H40.8552H40.8596H40.8639H40.8683H40.8726H40.877H40.8813H40.8857H40.8901H40.8944H40.8988H40.9032H40.9075H40.9119H40.9163H40.9207H40.925H40.9294H40.9338H40.9382H40.9426H40.947H40.9514H40.9558H40.9602H40.9646H40.969H40.9734H40.9778H40.9822H40.9866H40.991H40.9954H40.9998H41.0043H41.0087H41.0131H41.0175H41.022H41.0264H41.0308H41.0353H41.0397H41.0441H41.0486H41.053H41.0575H41.0619H41.0664H41.0708H41.0753H41.0797H41.0842H41.0887H41.0931H41.0976H41.102H41.1065H41.111H41.1154H41.1199H41.1244H41.1289H41.1334H41.1378H41.1423H41.1468H41.1513H41.1558H41.1603H41.1648H41.1693H41.1737H41.1782H41.1827H41.1872H41.1917H41.1963H41.2008H41.2053H41.2098H41.2143H41.2188H41.2233H41.2278H41.2324H41.2369H41.2414H41.2459H41.2504H41.255H41.2595H41.264H41.2686H41.2731H41.2776H41.2822H41.2867H41.2912H41.2958H41.3003H41.3049H41.3094H41.314H41.3185H41.3231H41.3276H41.3322H41.3367H41.3413H41.3458H41.3504H41.355H41.3595H41.3641H41.3686H41.3732H41.3778H41.3823H41.3869H41.3915H41.3961H41.4006H41.4052H41.4098H41.4144H41.419H41.4235H41.4281H41.4327H41.4373H41.4419H41.4465H41.451H41.4556H41.4602H41.4648H41.4694H41.474H41.4786H41.4832H41.4878H41.4924H41.497H41.5016H41.5062H41.5108H41.5154H41.52H41.5246H41.5292H41.5339H41.5385H41.5431H41.5477H41.5523H41.5569H41.5615H41.5662H41.5708H41.5754H41.58H41.5846H41.5893H41.5939H41.5985H41.6031H41.6078H41.6124H41.617H41.6217H41.6263H41.6309H41.6356H41.6402H41.6448H41.6495H41.6541H41.6587H41.6634H41.668H41.6726H41.6773H41.6819H41.6866H41.6912H41.6959H41.7005H41.7051H41.7098H41.7144H41.7191H41.7237H41.7284H41.733H41.7377H41.7423H41.747H41.7516H41.7563H41.7609H41.7656H41.7703H41.7749H41.7796H41.7842H41.7889H41.7935H41.7982H41.8029H41.8075H41.8122H41.8168H41.8215H41.8262H41.8308H41.8355H41.8402H41.8448H41.8495H41.8541H41.8588H41.8635H41.8681H41.8728H41.8775H41.8821H41.8868H41.8915H41.8962H41.9008H41.9055H41.9102H41.9148H41.9195H41.9242H41.9288H41.9335H41.9382H41.9429H41.9475H41.9522H41.9569H41.9616H41.9662H41.9709H41.9756H41.9803H41.9849H41.9896H41.9943H41.999H42.0036H42.0083H42.013H42.0177H42.0223H42.027H42.0317H42.0364H42.0411H42.0457H42.0504H42.0551H42.0598H42.0644H42.0691H42.0738H42.0785H42.0832H42.0878H42.0925H42.0972H42.1019H42.1066L41.6879 44.7137Z" fill="#EDB842" stroke="#EDB842"/>
<path d="M34.1217 32.6388C34.1217 35.633 34.1217 38.6273 34.1217 41.6215C34.1217 44.017 33.1236 45.015 30.7282 45.015C29.9298 45.015 29.3309 45.015 28.5324 45.015C26.7359 44.8154 25.7378 43.8173 25.7378 42.0208C25.7378 35.633 25.7378 29.0457 25.7378 22.6579C25.7378 20.8614 26.9355 19.8633 28.5324 19.8633C29.3309 19.8633 30.1294 19.8633 30.7282 19.8633C32.924 19.8633 33.9221 20.8614 33.9221 23.0572C34.1217 26.251 34.1217 29.4449 34.1217 32.6388Z" fill="#EDB842"/>
<path d="M14.3599 35.234C14.3599 33.0382 14.3599 30.8424 14.3599 28.8462C14.3599 26.6504 15.3579 25.6523 17.5537 25.6523C18.3522 25.6523 19.1507 25.6523 19.7495 25.6523C21.5461 25.852 22.5442 26.85 22.5442 28.447C22.5442 33.0382 22.5442 37.6294 22.5442 42.2206C22.5442 44.0171 21.3465 45.0152 19.7495 45.2148C18.9511 45.2148 18.1526 45.2148 17.3541 45.2148C15.3579 45.2148 14.3599 44.0171 14.3599 42.2206C14.3599 39.6255 14.3599 37.4298 14.3599 35.234Z" fill="#EDB842"/>
<path d="M3.18155 38.0272C3.18155 36.8295 3.18155 35.4322 3.18155 34.2345C3.18155 32.2383 4.37925 31.2402 6.17581 31.2402C6.97428 31.2402 7.77274 31.2402 8.3716 31.2402C10.1681 31.2402 11.3659 32.2383 11.3659 34.2345C11.3659 37.0291 11.3659 39.6242 11.3659 42.4188C11.3659 44.2154 10.1681 45.2134 8.3716 45.2134C7.57313 45.2134 6.57504 45.2134 5.77657 45.2134C3.98002 45.0138 2.98193 44.0157 2.98193 42.2192C3.18155 40.6222 3.18155 39.4245 3.18155 38.0272Z" fill="#EDB842"/>
</svg>
