<svg width="56" height="36" viewBox="0 0 56 36" fill="none" xmlns="http://www.w3.org/2000/svg">
<path d="M16.5712 9.80314L16.587 9.79527L16.6021 9.7863L31.036 1.25013C31.3663 1.08537 31.5619 1 31.729 1C31.8484 1 31.9091 1.03763 31.9386 1.06718C31.9682 1.09674 32.0058 1.15741 32.0058 1.27684V11.8418V23.9605V34.5254C32.0058 34.6448 31.9682 34.7055 31.9386 34.7351C31.9091 34.7646 31.8484 34.8023 31.729 34.8023C31.5619 34.8023 31.3663 34.7169 31.036 34.5521L16.6049 26.0176C16.6045 26.0174 16.6041 26.0171 16.6038 26.0169C16.2727 25.818 15.9328 25.513 15.6795 25.1753C15.4189 24.8279 15.2939 24.5058 15.2939 24.2712V21.3192V14.483V11.5311C15.2939 10.9863 15.7665 10.2055 16.5712 9.80314Z" fill="#EDB842" stroke="#EDB842"/>
<path d="M9.30439 25.7023L14.5603 31.2278H10.0348L2.26876 23.1572C1.41832 22.1605 1 21.0357 1 19.7645V15.8803C1 13.0399 3.27113 10.7871 5.93785 10.7871H13.2062V24.8577H9.66667H8.50098L9.30439 25.7023Z" fill="#EDB842" stroke="#EDB842"/>
<path d="M38.4092 17.9004H55.4996" stroke="#EDB842" stroke-width="2.288"/>
<path d="M39.186 8.73542L49.5956 3.76367" stroke="#EDB842" stroke-width="2.288"/>
<path d="M39.186 27.3789L48.9742 31.8846" stroke="#EDB842" stroke-width="2.288"/>
</svg>
