<svg width="50" height="50" viewBox="0 0 50 50" fill="none" xmlns="http://www.w3.org/2000/svg">
<path d="M11.3039 3.80835V4.67741L12.0552 4.24061L18.3667 0.571145C18.6807 0.478903 19.1241 0.470726 19.6021 0.579971L37.2704 10.8865C37.3464 10.9407 37.3666 10.9999 37.3701 11.0279L37.3462 11.0359L37.3144 11.0518C36.9896 11.2142 36.8054 11.2948 36.6506 11.2948C36.4929 11.2948 36.4255 11.2935 36.3631 11.2831C36.315 11.2751 36.2551 11.2588 36.1482 11.2064L19.1547 1.30577L18.903 1.15912L18.6512 1.30577L1.64307 11.2149L1.63 11.2225L1.61742 11.2309C1.49599 11.3118 1.30296 11.3688 1.08133 11.3688C0.883064 11.3688 0.707677 11.3232 0.585972 11.2556C0.538928 11.2022 0.517678 11.162 0.50836 11.1376C0.498215 11.1111 0.499521 11.0975 0.501014 11.0893C0.504838 11.0683 0.533911 10.9891 0.681193 10.8878L7.32131 7.05133L7.57117 6.90697V6.6184V2.32938C7.57117 2.09463 7.70786 1.82519 8.04073 1.59363C8.37147 1.36355 8.86027 1.20251 9.43753 1.20251C10.0148 1.20251 10.5036 1.36355 10.8343 1.59363C11.1672 1.82519 11.3039 2.09463 11.3039 2.32938V3.80835Z" fill="#EDB842" stroke="#EDB842"/>
<path d="M36.7984 15.344C33.5447 13.4213 29.5514 14.6045 27.6288 17.8582L19.6423 31.6127C17.7197 34.8664 18.9028 38.8596 22.1566 40.7823L31.9178 46.4024C35.1715 48.3251 39.1648 47.1419 41.0874 43.8882L49.0739 30.1337C50.9965 26.88 49.8134 22.8867 46.5596 20.9641L36.7984 15.344Z" fill="white"/>
<path d="M11.0645 45.5155C11.0645 45.9591 12.5434 46.6986 14.9098 46.6986C17.2762 46.6986 18.7551 45.9591 18.7551 45.5155V38.1206C18.7551 37.6769 17.2762 36.7895 14.9098 36.7895C12.5434 36.7895 11.0645 37.6769 11.0645 38.1206V45.5155ZM15.0577 48.1776C12.5434 48.1776 9.8813 47.2902 9.7334 45.5155V37.9727V37.8248C10.0292 36.1979 12.5434 35.3105 15.0577 35.3105C17.572 35.3105 20.0862 36.1979 20.382 37.8248V37.9727V45.5155C20.2341 47.2902 17.572 48.1776 15.0577 48.1776Z" fill="#EDB842"/>
<path d="M15.0577 40.6355C12.3955 40.6355 9.7334 39.7481 9.7334 37.8254C9.7334 37.3817 10.0292 37.0859 10.4729 37.0859C10.9166 37.0859 11.2124 37.3817 11.2124 37.8254C11.2124 38.2691 12.5434 39.1565 15.0577 39.1565C17.572 39.1565 18.903 38.2691 18.903 37.8254C18.903 37.3817 19.1988 37.0859 19.6425 37.0859C20.0862 37.0859 20.382 37.3817 20.382 37.8254C20.382 39.7481 17.572 40.6355 15.0577 40.6355ZM15.0577 43.1497C12.3955 43.1497 9.7334 42.2623 9.7334 40.3397C9.7334 39.896 10.0292 39.6002 10.4729 39.6002C10.9166 39.6002 11.2124 39.896 11.2124 40.3397C11.2124 40.7834 12.5434 41.6708 15.0577 41.6708C17.572 41.6708 18.903 40.7834 18.903 40.3397C18.903 39.896 19.1988 39.6002 19.6425 39.6002C20.0862 39.6002 20.382 39.896 20.382 40.3397C20.382 42.2623 17.572 43.1497 15.0577 43.1497ZM15.0577 45.664C12.3955 45.664 9.7334 44.7766 9.7334 42.8539C9.7334 42.4102 10.0292 42.1144 10.4729 42.1144C10.9166 42.1144 11.2124 42.4102 11.2124 42.8539C11.2124 43.2976 12.5434 44.185 15.0577 44.185C17.572 44.185 18.903 43.2976 18.903 42.8539C18.903 42.4102 19.1988 42.1144 19.6425 42.1144C20.0862 42.1144 20.382 42.4102 20.382 42.8539C20.382 44.7766 17.572 45.664 15.0577 45.664Z" fill="#EDB842"/>
<path d="M29.2554 24.367C29.1075 24.367 29.1075 24.367 28.9596 24.5149L28.2201 25.846C28.0722 25.9938 28.2201 26.1417 28.368 26.2896L30.4386 27.4728C30.5865 27.4728 30.7344 27.4728 30.8823 27.3249L31.6218 25.9938C31.7697 25.846 31.6218 25.6981 31.4739 25.5502L29.2554 24.367C29.4033 24.367 29.2554 24.367 29.2554 24.367ZM30.5865 28.2123C30.4386 28.2123 30.2907 28.2123 30.1428 28.0644L28.0722 26.8812C27.6286 26.5854 27.4807 25.9938 27.7764 25.5502L28.5159 24.2191C28.6638 23.9233 28.9596 23.7754 29.4033 23.7754C29.5512 23.7754 29.6991 23.7754 29.847 23.9233L31.9176 25.1065C32.3613 25.4023 32.5092 25.9938 32.2134 26.4375L31.4739 27.7686C31.326 28.0644 31.0302 28.2123 30.5865 28.2123Z" fill="#EDB842"/>
<path d="M34.4322 27.324C34.2843 27.324 34.2843 27.324 34.1364 27.4719L33.3969 28.803C33.3969 28.9509 33.3969 29.0988 33.5448 29.2467L35.6154 30.4299C35.7633 30.4299 35.9112 30.4299 35.9112 30.282L36.6506 28.9509V28.803C36.6506 28.803 36.6506 28.6551 36.5027 28.6551L34.4322 27.324ZM35.7633 31.1693C35.6154 31.1693 35.4675 31.1693 35.3196 31.0214L33.249 29.8383C32.8053 29.5425 32.6574 28.9509 32.9532 28.5072L33.6927 27.1761C33.8406 26.8803 34.1364 26.7324 34.5801 26.7324C34.728 26.7324 34.8759 26.7324 35.0238 26.8803L37.0943 28.0635C37.3901 28.2114 37.538 28.3593 37.538 28.6551C37.538 28.9509 37.538 29.2467 37.3901 29.3946L36.6506 30.7256C36.3548 31.0214 36.0591 31.1693 35.7633 31.1693Z" fill="#EDB842"/>
<path d="M39.4604 30.283C39.3125 30.283 39.3125 30.283 39.1646 30.4309L38.4251 31.762V31.9099C38.4251 31.9099 38.4251 32.0578 38.573 32.0578L40.6435 33.2409C40.7914 33.2409 40.9393 33.2409 41.0872 33.093L41.8267 31.762C41.9746 31.6141 41.8267 31.4662 41.6788 31.3183L39.4604 30.283C39.6083 30.283 39.4604 30.283 39.4604 30.283ZM40.7914 34.1283C40.6435 34.1283 40.4956 34.1283 40.3477 33.9804L38.2772 32.7972C37.9814 32.6494 37.8335 32.5015 37.8335 32.2057C37.8335 31.9099 37.8335 31.6141 37.9814 31.4662L38.7209 30.1351C38.8688 29.8393 39.1646 29.6914 39.6083 29.6914C39.7562 29.6914 39.9041 29.6914 40.052 29.8393L42.1225 31.0225C42.5662 31.3183 42.7141 31.9099 42.4183 32.3536L41.6788 33.6846C41.5309 33.9804 41.2351 34.1283 40.7914 34.1283Z" fill="#EDB842"/>
<path d="M24.8189 32.2049C24.671 32.2049 24.671 32.2049 24.5231 32.3528L23.7836 33.6838C23.6357 33.8317 23.7836 33.9796 23.9315 34.1275L26.0021 35.3107C26.15 35.3107 26.2979 35.3107 26.4458 35.1628L27.1853 33.8317V33.6838C27.1853 33.6838 27.1853 33.5359 27.0374 33.5359L24.8189 32.2049ZM26.15 36.0502C26.0021 36.0502 25.8542 36.0502 25.7063 35.9023L23.6357 34.7191C23.192 34.4233 23.0441 33.8317 23.3399 33.388L24.0794 32.057C24.2273 31.7612 24.5231 31.6133 24.9668 31.6133C25.1147 31.6133 25.2626 31.6133 25.4105 31.7612L27.481 32.9444C27.7768 33.0923 27.9247 33.2402 27.9247 33.5359C27.9247 33.8317 27.9247 34.1275 27.7768 34.2754L27.0374 35.6065C26.7416 35.9023 26.4458 36.0502 26.15 36.0502Z" fill="#EDB842"/>
<path d="M27.0372 28.3592C26.8893 28.3592 26.8893 28.3592 26.7414 28.5071L26.0019 29.8381C25.854 29.986 26.0019 30.1339 26.1498 30.2818L28.2203 31.465C28.3682 31.465 28.5161 31.465 28.664 31.3171L29.4035 29.986V29.8381C29.4035 29.8381 29.4035 29.6902 29.2556 29.6902L27.0372 28.3592ZM28.3682 32.2045C28.2203 32.2045 28.0724 32.2045 27.9245 32.0566L25.854 30.8734C25.4103 30.5776 25.2624 29.986 25.5582 29.5423L26.2977 28.2113C26.4456 27.9155 26.7414 27.7676 27.1851 27.7676C27.333 27.7676 27.4809 27.7676 27.6288 27.9155L29.6993 29.0987C29.9951 29.2466 30.143 29.3944 30.143 29.6902C30.143 29.986 30.143 30.2818 29.9951 30.4297L29.2556 31.7608C29.1077 31.9087 28.664 32.2045 28.3682 32.2045Z" fill="#EDB842"/>
<path d="M22.4526 36.199C22.3047 36.199 22.3047 36.199 22.1568 36.3469L21.4173 37.678V37.8259C21.4173 37.8259 21.4173 37.9738 21.5652 37.9738L23.6357 39.157C23.7836 39.157 23.9315 39.157 24.0794 39.0091L24.8189 37.678C24.9668 37.5301 24.8189 37.3822 24.671 37.2343L22.4526 36.199C22.6004 36.199 22.6004 36.199 22.4526 36.199ZM23.7836 40.0443C23.6357 40.0443 23.4878 40.0443 23.3399 39.8964L21.2694 38.7133C20.9736 38.5654 20.8257 38.4175 20.8257 38.1217C20.8257 37.8259 20.8257 37.5301 20.9736 37.3822L21.7131 36.0511C21.861 35.7553 22.1568 35.6074 22.6004 35.6074C22.7483 35.6074 22.8962 35.6074 23.0441 35.7553L25.1147 36.9385C25.5584 37.2343 25.7063 37.8259 25.4105 38.2696L24.671 39.6006C24.5231 39.8964 24.2273 40.0443 23.7836 40.0443Z" fill="#EDB842"/>
<path d="M32.0658 31.3162C31.9179 31.3162 31.9179 31.3162 31.77 31.4641L31.0306 32.7952V32.9431C31.0306 32.9431 31.0306 33.091 31.1785 33.091L33.249 34.2741C33.3969 34.2741 33.5448 34.2741 33.6927 34.1262L34.4322 32.7952C34.5801 32.6473 34.4322 32.4994 34.2843 32.3515L32.0658 31.3162C32.2137 31.3162 32.2137 31.3162 32.0658 31.3162ZM33.3969 35.1615C33.249 35.1615 33.1011 35.1615 32.9532 35.0136L30.8827 33.8305C30.5869 33.6826 30.439 33.5347 30.439 33.2389C30.439 32.9431 30.439 32.6473 30.5869 32.4994L31.3263 31.1683C31.4742 30.8725 31.77 30.7246 32.2137 30.7246C32.3616 30.7246 32.5095 30.7246 32.6574 30.8725L34.728 32.0557C35.1717 32.3515 35.3196 32.9431 35.0238 33.3868L34.2843 34.7178C34.1364 34.8657 33.8406 35.1615 33.3969 35.1615Z" fill="#EDB842"/>
<path d="M29.8472 35.1619C29.6993 35.1619 29.6993 35.1619 29.5514 35.3098L28.8119 36.6409C28.8119 36.7888 28.8119 36.9367 28.9598 37.0846L31.0304 38.2677C31.1783 38.2677 31.3262 38.2677 31.4741 38.1198L32.2136 36.7888C32.3615 36.6409 32.2136 36.493 32.0657 36.3451L29.8472 35.1619C29.9951 35.3098 29.8472 35.1619 29.8472 35.1619ZM31.1783 39.0072C31.0304 39.0072 30.8825 39.0072 30.7346 38.8593L28.664 37.6762C28.2203 37.3804 28.0725 36.7888 28.3682 36.3451L29.1077 35.014C29.2556 34.7182 29.5514 34.5703 29.9951 34.5703C30.143 34.5703 30.2909 34.5703 30.4388 34.7182L32.5094 35.9014C32.9531 36.1972 33.101 36.7888 32.8052 37.2325L32.0657 38.5635C31.9178 38.8593 31.622 39.0072 31.1783 39.0072Z" fill="#EDB842"/>
<path d="M27.629 39.156C27.4811 39.156 27.4811 39.156 27.3332 39.3039L26.5937 40.635C26.5937 40.7829 26.5937 40.9308 26.7416 41.0787L28.8121 42.2619C28.96 42.2619 29.1079 42.2619 29.2558 42.114L29.9953 40.7829V40.635C29.9953 40.635 29.9953 40.4871 29.8474 40.4871L27.629 39.156ZM28.96 43.0014C28.8121 43.0014 28.6642 43.0014 28.5163 42.8535L26.4458 41.6703C26.0021 41.3745 25.8542 40.7829 26.15 40.3392L26.8895 39.0081C27.0374 38.7123 27.3332 38.5645 27.7769 38.5645C27.9247 38.5645 28.0726 38.5645 28.2205 38.7124L30.2911 39.8955C30.5869 40.0434 30.7348 40.1913 30.7348 40.4871C30.7348 40.7829 30.7348 41.0787 30.5869 41.2266L29.8474 42.5577C29.6995 42.8535 29.2558 43.0014 28.96 43.0014Z" fill="#EDB842"/>
<path d="M37.2421 34.2752C37.0942 34.2752 37.0942 34.2752 36.9463 34.4231L36.2068 35.7542V35.9021C36.2068 35.9021 36.2068 36.0499 36.3547 36.0499L38.4253 37.2331C38.5732 37.2331 38.7211 37.2331 38.869 37.0852L39.6085 35.7542V35.6063C39.6085 35.6063 39.6085 35.4584 39.4606 35.4584L37.2421 34.2752ZM38.5732 38.1205C38.4253 38.1205 38.2774 38.1205 38.1295 37.9726L36.0589 36.7894C35.7631 36.6415 35.6152 36.4936 35.6152 36.1978C35.6152 35.9021 35.6152 35.6063 35.7631 35.4584L36.5026 34.1273C36.6505 33.8315 36.9463 33.6836 37.39 33.6836C37.5379 33.6836 37.6858 33.6836 37.8337 33.8315L39.9043 35.0147C40.2 35.1626 40.3479 35.3105 40.3479 35.6063C40.3479 35.9021 40.3479 36.1978 40.2 36.3457L39.4606 37.6768C39.3127 37.8247 38.869 38.1205 38.5732 38.1205Z" fill="#EDB842"/>
<path d="M35.0237 38.2693C34.8758 38.2693 34.7279 38.4172 34.58 38.5651L31.77 43.4457C31.77 43.5936 31.6221 43.7415 31.77 43.8894C31.77 44.0373 31.9179 44.1852 32.0658 44.1852L33.8405 45.2205C33.8405 45.2205 33.9884 45.2205 34.1363 45.2205C34.2842 45.2205 34.4321 45.0726 34.58 44.9247L37.3901 40.0441C37.538 39.7483 37.3901 39.4525 37.2422 39.3046L35.3195 38.4172C35.1716 38.2693 35.1716 38.2693 35.0237 38.2693ZM33.9884 45.96C33.8405 45.96 33.5448 45.96 33.3969 45.8121L31.6221 44.7768C31.3263 44.6289 31.1784 44.3331 31.0305 44.0373C30.8826 43.7415 31.0305 43.4457 31.1784 43.1499L33.9884 38.2693C34.1363 37.8256 34.58 37.6777 35.0237 37.6777C35.1716 37.6777 35.4674 37.6777 35.6153 37.8256L37.3901 38.8609C37.9817 39.1567 38.1296 39.8962 37.8338 40.4878L35.0237 45.3684C34.7279 45.6642 34.4321 45.96 33.9884 45.96Z" fill="#EDB842"/>
<path d="M32.9532 18.5974C32.6574 18.5974 32.2137 18.7453 32.0658 19.0411L31.0305 20.8159C30.8826 21.1117 30.8826 21.2596 30.8826 21.5554C30.8826 21.8512 31.1784 21.9991 31.3263 22.147L42.4186 28.6545C42.5665 28.8024 42.7144 28.8024 42.8623 28.8024C43.1581 28.8024 43.6018 28.6545 43.7497 28.3587L44.7849 26.7318C45.0807 26.2881 44.9328 25.5486 44.3413 25.4007L33.249 18.8932C33.249 18.7453 33.1011 18.5974 32.9532 18.5974ZM43.0102 29.5418C42.7144 29.5418 42.4186 29.3939 42.1228 29.246L31.0305 22.8865C30.5868 22.5907 30.291 22.2949 30.291 21.8512C30.291 21.4075 30.291 20.9638 30.4389 20.5201L31.4742 18.8932C31.77 18.3017 32.3616 18.0059 32.9532 18.0059C33.249 18.0059 33.5448 18.1538 33.8405 18.3017L44.9328 24.8091C45.8202 25.2528 46.116 26.436 45.5244 27.1755L44.4891 28.8024C44.1934 29.246 43.6018 29.5418 43.0102 29.5418Z" fill="#EDB842"/>
<path d="M33.5449 49.2125C32.9533 49.2125 32.3617 49.0646 31.7701 48.7688L19.6426 41.6697C19.3468 41.5218 19.1989 41.0782 19.3468 40.6345C19.4947 40.3387 19.9384 40.1908 20.3821 40.3387L32.5096 47.4377C32.9533 47.7335 33.5449 47.7335 33.9886 47.5856C34.4323 47.4377 34.876 47.1419 35.1718 46.6982L46.412 27.1758C47.0035 26.1405 46.7078 24.9574 45.6725 24.3658L33.5449 17.2667C32.6575 16.6751 31.3264 16.9709 30.7349 18.0062L19.7905 37.2328C19.6426 37.5286 19.1989 37.6765 18.7552 37.5286C18.4594 37.3807 18.3115 36.937 18.4594 36.4933L29.4038 17.2667C30.2912 15.6398 32.5096 15.0482 34.1365 15.9356L46.2641 23.0347C47.8909 24.07 48.4825 26.1405 47.5951 27.7674L36.3549 47.2898C35.9113 48.0293 35.1718 48.6209 34.2844 48.9167C34.1365 49.0646 33.8407 49.2125 33.5449 49.2125Z" fill="#EDB842"/>
<path d="M12.1 15.7883C11.8042 15.7883 11.5084 15.4925 11.3605 15.1967L11.0647 13.422V13.2741C11.0647 12.9783 11.3605 12.6825 11.6563 12.5346C12.1 12.3867 12.3958 12.6825 12.5437 13.1262L12.8395 14.9009V15.0488C12.8395 15.3446 12.5437 15.6404 12.1 15.7883C12.2479 15.7883 12.1 15.7883 12.1 15.7883ZM16.5369 15.7883C16.389 15.7883 16.389 15.7883 16.5369 15.7883C16.0932 15.6404 15.7974 15.3446 15.7974 15.0488V14.9009L16.0932 13.1262C16.2411 12.6825 16.5369 12.5346 16.9806 12.5346C17.2764 12.5346 17.5722 12.9783 17.5722 13.2741V13.422L17.2764 15.1967C17.1285 15.4925 16.8327 15.7883 16.5369 15.7883ZM8.10678 17.4152C7.81098 17.4152 7.66308 17.2673 7.51519 17.1194L6.47991 15.6404C6.33201 15.4925 6.33201 15.3446 6.33201 15.1967C6.33201 14.9009 6.47991 14.753 6.6278 14.6051C7.07149 14.3093 7.51519 14.4572 7.66308 14.753L8.69836 16.232C8.84626 16.3799 8.84626 16.5278 8.84626 16.6757C8.84626 16.9715 8.69836 17.1194 8.55047 17.2673C8.25467 17.4152 8.10678 17.4152 8.10678 17.4152ZM20.5301 17.4152C20.3822 17.4152 20.2343 17.4152 20.0865 17.2673C19.9386 17.1194 19.7907 16.8236 19.7907 16.6757C19.7907 16.5278 19.7907 16.3799 19.9386 16.232L20.9738 14.753C21.2696 14.4572 21.7133 14.3093 22.0091 14.6051C22.157 14.753 22.157 15.0488 22.157 15.1967C22.157 15.3446 22.157 15.4925 22.0091 15.6404L20.9738 17.1194C20.9738 17.4152 20.678 17.4152 20.5301 17.4152ZM5.00093 20.521C4.85304 20.521 4.70514 20.521 4.55724 20.3731L3.07827 19.3378C2.93037 19.1899 2.78247 18.8941 2.78247 18.7462C2.78247 18.5984 2.78248 18.4505 2.93037 18.3026C3.07827 18.0068 3.66986 17.8589 3.96565 18.1547L5.44463 19.1899C5.59252 19.3378 5.74042 19.6336 5.74042 19.7815C5.74042 19.9294 5.74042 20.0773 5.59252 20.2252C5.44462 20.3731 5.14883 20.521 5.00093 20.521ZM23.636 20.6689C23.3402 20.6689 23.1923 20.521 23.0444 20.3731C22.8965 20.2252 22.8965 20.0773 22.8965 19.9294C22.8965 19.6336 23.0444 19.4857 23.1923 19.3378L24.6713 18.3026C24.9671 18.1547 25.4107 18.1547 25.7065 18.4505C25.8544 18.5984 25.8544 18.7462 25.8544 18.8941C25.8544 19.1899 25.7065 19.3378 25.5586 19.4857L24.0797 20.521C23.9318 20.521 23.7839 20.6689 23.636 20.6689ZM3.22617 24.6621C3.07827 24.6621 3.22617 24.6621 3.22617 24.6621L1.3035 24.2184C1.00771 24.2184 0.711914 23.7748 0.711914 23.479V23.3311C0.859811 22.8874 1.15561 22.7395 1.5993 22.7395L3.37406 23.0353C3.66986 23.0353 3.96565 23.479 3.96565 23.7748V23.9227C3.81776 24.3663 3.52196 24.6621 3.22617 24.6621ZM1.4514 29.3948C1.15561 29.3948 0.859811 29.0991 0.711914 28.8033V28.6554C0.711914 28.3596 1.00771 28.0638 1.3035 27.9159L3.07827 27.6201C3.52196 27.4722 3.81776 27.768 3.96565 28.2117V28.3596C3.96565 28.6554 3.66986 28.9512 3.37406 29.0991L1.4514 29.3948C1.5993 29.3948 1.5993 29.3948 1.4514 29.3948ZM3.37406 34.1276C3.07827 34.1276 2.93037 33.9797 2.78247 33.8318C2.63458 33.6839 2.63458 33.536 2.63458 33.3881C2.63458 33.0923 2.78248 32.9444 2.93037 32.7965L4.40934 31.7612C4.70514 31.4654 5.14883 31.6133 5.44463 31.9091C5.59252 32.057 5.59252 32.2049 5.59252 32.3528C5.59252 32.6486 5.44462 32.7965 5.29673 32.9444L3.81776 33.9797C3.66986 34.1276 3.52196 34.1276 3.37406 34.1276ZM6.9236 37.6771C6.7757 37.6771 6.6278 37.6771 6.47991 37.5292C6.33201 37.3813 6.18411 37.0855 6.18411 36.9376C6.18411 36.7897 6.18411 36.6418 6.33201 36.4939L7.36729 35.0149C7.66308 34.7192 8.10677 34.5713 8.40257 34.867C8.55047 35.0149 8.69836 35.3107 8.69836 35.4586C8.69836 35.6065 8.69836 35.7544 8.55047 35.9023L7.51519 37.3813C7.36729 37.6771 7.21939 37.6771 6.9236 37.6771Z" fill="#EDB842"/>
<path d="M10.177 20.2256C9.58539 20.2256 9.14169 20.3735 8.698 20.8172C8.25431 21.2609 8.10641 21.7046 8.10641 22.2962C8.10641 22.8878 8.25431 23.3314 8.698 23.7751C9.14169 24.2188 9.58539 24.3667 10.177 24.3667C10.7686 24.3667 11.2123 24.2188 11.6559 23.7751C12.0996 23.3314 12.2475 22.8878 12.2475 22.2962C12.2475 21.7046 12.0996 21.2609 11.6559 20.8172C11.3602 20.5214 10.7686 20.2256 10.177 20.2256ZM10.177 25.9936C9.28959 25.9936 8.40221 25.5499 7.66272 24.9583C6.92324 24.2188 6.62744 23.3314 6.62744 22.4441C6.62744 21.5567 6.92324 20.5214 7.66272 19.9298C8.40221 19.1903 9.28959 18.8945 10.177 18.8945C11.0644 18.8945 11.9517 19.3382 12.6912 19.9298C13.4307 20.6693 13.7265 21.5567 13.7265 22.4441C13.7265 23.3314 13.4307 24.3667 12.6912 24.9583C12.0996 25.5499 11.2123 25.9936 10.177 25.9936Z" fill="#EDB842"/>
<path d="M18.1633 28.3598C17.5717 28.3598 17.128 28.5077 16.6843 28.9514C16.2406 29.3951 16.0927 29.8388 16.0927 30.4304C16.0927 31.022 16.2406 31.4657 16.6843 31.9094C17.128 32.3531 17.5717 32.501 18.1633 32.501C18.7549 32.501 19.1986 32.3531 19.6423 31.9094C20.086 31.4657 20.2339 31.022 20.2339 30.4304C20.2339 29.8388 20.086 29.3951 19.6423 28.9514C19.3465 28.5077 18.7549 28.3598 18.1633 28.3598ZM18.1633 33.9799C17.2759 33.9799 16.3885 33.5362 15.6491 32.9446C14.9096 32.2052 14.6138 31.3178 14.6138 30.4304C14.6138 29.543 14.9096 28.5077 15.6491 27.9161C16.3885 27.1767 17.2759 26.8809 18.1633 26.8809C19.0507 26.8809 19.9381 27.3245 20.6776 27.9161C21.417 28.6556 21.7128 29.543 21.7128 30.4304C21.7128 31.3178 21.417 32.3531 20.6776 32.9446C20.086 33.6841 19.1986 33.9799 18.1633 33.9799Z" fill="#EDB842"/>
<path d="M9.43751 32.0579C9.28961 32.0579 9.14172 32.0579 8.99382 31.91C8.69802 31.6143 8.69802 31.1706 8.99382 30.8748L18.3113 21.4093C18.6071 21.1136 19.0508 21.1136 19.3466 21.4093C19.6424 21.7051 19.6424 22.1488 19.3466 22.4446L10.0291 31.91C9.8812 31.91 9.7333 32.0579 9.43751 32.0579Z" fill="#EDB842"/>
</svg>
