<svg width="56" height="31" viewBox="0 0 56 31" fill="none" xmlns="http://www.w3.org/2000/svg">
<path d="M48.6523 3.09076L48.6549 3.09258C55.2807 7.66748 57.0128 16.8161 52.4427 23.436C47.7071 30.2226 38.5621 31.7949 31.941 27.0656L31.9394 27.0644L28.025 24.2917L27.6053 23.9944L27.3199 24.4224L26.177 26.1368L21.7114 16.7871L32.0227 17.6231L30.7579 19.3479L30.4573 19.7578L30.8721 20.0516L34.7833 22.8221C34.7839 22.8225 34.7844 22.8228 34.7849 22.8232C39.1057 25.9329 44.9575 24.7063 48.04 20.4251L48.0402 20.4252L48.0477 20.4141C50.9662 16.1222 50.1134 10.2664 45.6395 7.1659C42.6878 5.03667 38.6673 4.93452 35.6186 6.54929L33.4553 2.08736C38.1371 -0.219918 44.0695 -0.117243 48.6523 3.09076Z" fill="#EDB842" stroke="#EDB842"/>
<path d="M10.1628 23.1521L10.1627 23.1522L10.17 23.157C13.1154 25.1206 17.14 25.3699 20.3377 23.7556L22.506 28.2278C17.8248 30.5348 11.8934 30.4324 7.31084 27.2257C0.676367 22.4852 -1.04673 13.3359 3.67781 6.72157L3.67915 6.71968C8.25303 0.253159 17.401 -1.47844 24.0203 3.2496L24.0219 3.25075L27.9363 6.02346L28.356 6.32076L28.6414 5.89279L29.7773 4.18886L34.0989 13.5291L23.7755 12.692L25.0403 10.9672L25.3409 10.5574L24.9261 10.2636L21.0149 7.49309C21.0143 7.49269 21.0138 7.4923 21.0132 7.4919C16.7127 4.3969 10.6847 5.42302 7.75049 9.73801C4.83272 14.0288 5.68309 20.0508 10.1628 23.1521Z" fill="#EDB842" stroke="#EDB842"/>
</svg>
