<svg width="56" height="53" viewBox="0 0 56 53" fill="none" xmlns="http://www.w3.org/2000/svg">
<path d="M47.325 41.8646L47.0346 42.2195L47.3632 42.5394L54.7111 49.6939C54.7118 49.6946 54.7124 49.6952 54.7131 49.6959C54.8872 49.8714 55 50.1665 55 50.5013C55 50.8374 54.8864 51.1334 54.7111 51.3087C54.714 51.3058 54.692 51.3263 54.6263 51.3603C54.5659 51.3915 54.4878 51.4243 54.3986 51.454C54.2139 51.5156 54.0272 51.5493 53.9037 51.5493C53.5241 51.5493 53.3278 51.5402 53.0963 51.3087L53.0964 51.3086L53.0869 51.2995L45.5407 44.1403L45.2344 43.8497L44.8966 44.1031C42.6695 45.7734 39.6814 46.712 36.6829 46.712C29.186 46.712 23.2515 41.0988 23.2515 34.248C23.2515 27.4015 29.3749 21.7841 36.6829 21.7841C44.1798 21.7841 50.1143 27.3972 50.1143 34.248C50.1143 37.024 49.0006 39.8166 47.325 41.8646ZM25.9279 14.7054V15.2376L26.4591 15.2044C29.5932 15.0085 32.6604 14.3711 34.986 13.2708C37.2938 12.1789 39.0065 10.5588 39.1172 8.34511L39.1293 8.10457L38.9487 7.94522C35.5722 4.96601 31.2115 3.18626 26.4694 2.79109L25.9279 2.74596V3.28936V14.7054ZM22.9138 15.2044L22.9294 15.2054H22.945H23.1385H23.6385V14.7054V3.28936V2.74596L23.097 2.79109C18.3419 3.18734 13.9905 5.16724 10.6307 7.93418L10.4485 8.08418V8.32014C10.4485 10.5483 12.1248 12.1774 14.4092 13.2699C16.712 14.3712 19.7803 15.0085 22.9138 15.2044ZM3.48533 21.2343L3.43036 21.7841H3.98285H22.945H23.445V21.2841V17.9947V17.5203L22.9713 17.4954C19.3508 17.3049 16.1222 16.5435 13.4737 15.4094C11.0355 14.2829 9.39651 12.8052 8.49339 10.9989L8.14051 10.2932L7.65301 10.9136C5.47024 13.6917 3.88244 17.2632 3.48533 21.2343ZM24.6865 0.5C36.4335 0.5 46.1367 8.55628 48.0879 19.2361H45.6115C44.9768 16.0395 43.6171 13.38 41.723 10.9177L41.2364 10.2851L40.8795 10.9989C39.89 12.978 37.884 14.5093 35.2843 15.5728C32.691 16.6338 29.5598 17.2061 26.4127 17.3015L25.9279 17.3162V17.8012V21.0293C24.6901 21.9439 23.6188 23.0078 22.7124 24.0734H3.98285H3.42746L3.4856 24.6258C3.8819 28.3907 5.27013 31.9653 7.65574 34.9474L8.14391 35.5576L8.49339 34.8586C10.062 31.7214 14.0484 29.6681 18.9622 28.8354V31.132C16.6752 31.6212 14.6298 32.3375 13.0975 33.3191C11.4729 34.3599 10.3663 35.7415 10.256 37.5062L10.2398 37.7655L10.4427 37.9278C13.3006 40.2141 16.8955 41.9523 20.7036 42.6071V44.8926C9.5924 43.1411 1 33.7895 1 22.832C1 10.5576 11.5845 0.5 24.6865 0.5ZM29.9107 35.296C29.181 35.296 28.6693 34.7089 28.6693 34.248C28.6693 30.1033 32.2849 26.6214 36.8764 26.6214C37.6062 26.6214 38.1179 27.2084 38.1179 27.6693C38.1179 28.0081 37.9875 28.2547 37.787 28.4244C37.5781 28.6011 37.2636 28.7172 36.8764 28.7172C33.7363 28.7172 31.1522 31.0326 31.1522 34.0545C31.1522 34.5179 31.0016 34.8118 30.8051 34.9932C30.602 35.1806 30.2973 35.296 29.9107 35.296ZM25.9279 34.248C25.9279 39.9664 30.8207 44.6161 36.8764 44.6161C42.7325 44.6161 47.825 39.9722 47.825 34.248C47.825 28.5296 42.9322 23.8799 36.8764 23.8799C30.8207 23.8799 25.9279 28.5296 25.9279 34.248Z" fill="#EDB842" stroke="#EDB842"/>
</svg>
