<svg width="100" height="64" viewBox="0 0 100 64" fill="none" xmlns="http://www.w3.org/2000/svg">
<rect width="100" height="64" rx="6" fill="#E5E5E5"/>
<path d="M36.5092 38H33.8729L37.8899 26.3636H41.0604L45.0717 38H42.4354L39.5206 29.0227H39.4297L36.5092 38ZM36.3445 33.4261H42.5717V35.3466H36.3445V33.4261ZM46.4723 38V26.3636H51.0632C51.9458 26.3636 52.6977 26.5322 53.3189 26.8693C53.9401 27.2027 54.4136 27.6667 54.7393 28.2614C55.0689 28.8523 55.2337 29.5341 55.2337 30.3068C55.2337 31.0795 55.067 31.7614 54.7337 32.3523C54.4003 32.9432 53.9174 33.4034 53.2848 33.733C52.656 34.0625 51.8946 34.2273 51.0007 34.2273H48.0746V32.2557H50.603C51.0765 32.2557 51.4666 32.1742 51.7734 32.0114C52.084 31.8447 52.3151 31.6155 52.4666 31.3239C52.6219 31.0284 52.6996 30.6894 52.6996 30.3068C52.6996 29.9205 52.6219 29.5833 52.4666 29.2955C52.3151 29.0038 52.084 28.7784 51.7734 28.6193C51.4628 28.4564 51.0689 28.375 50.5916 28.375H48.9325V38H46.4723ZM56.3885 28.392V26.3636H65.9453V28.392H62.3828V38H59.951V28.392H56.3885Z" fill="#737373"/>
</svg>
