<svg width="100" height="64" viewBox="0 0 100 64" fill="none" xmlns="http://www.w3.org/2000/svg">
<rect width="100" height="64" rx="6" fill="#E5E5E5"/>
<path d="M31.544 30.4375H29.0554C29.0099 30.1155 28.9171 29.8295 28.777 29.5795C28.6368 29.3258 28.4569 29.1098 28.2372 28.9318C28.0175 28.7538 27.7637 28.6174 27.4759 28.5227C27.1918 28.428 26.883 28.3807 26.5497 28.3807C25.9474 28.3807 25.4228 28.5303 24.9759 28.8295C24.5289 29.125 24.1823 29.5568 23.9361 30.125C23.6899 30.6894 23.5668 31.375 23.5668 32.1818C23.5668 33.0114 23.6899 33.7083 23.9361 34.2727C24.1861 34.8371 24.5346 35.2633 24.9815 35.5511C25.4285 35.839 25.9455 35.983 26.5327 35.983C26.8622 35.983 27.1671 35.9394 27.4474 35.8523C27.7315 35.7652 27.9834 35.6383 28.2031 35.4716C28.4228 35.3011 28.6046 35.0947 28.7486 34.8523C28.8963 34.6098 28.9986 34.3333 29.0554 34.0227L31.544 34.0341C31.4796 34.5682 31.3187 35.0833 31.0611 35.5795C30.8073 36.072 30.4645 36.5133 30.0327 36.9034C29.6046 37.2898 29.0933 37.5966 28.4986 37.8239C27.9077 38.0473 27.2391 38.1591 26.4929 38.1591C25.455 38.1591 24.527 37.9242 23.7088 37.4545C22.8944 36.9848 22.2505 36.3049 21.777 35.4148C21.3073 34.5246 21.0724 33.447 21.0724 32.1818C21.0724 30.9129 21.3111 29.8333 21.7884 28.9432C22.2656 28.053 22.9134 27.375 23.7315 26.9091C24.5497 26.4394 25.4702 26.2045 26.4929 26.2045C27.1671 26.2045 27.7921 26.2992 28.3679 26.4886C28.9474 26.678 29.4607 26.9545 29.9077 27.3182C30.3546 27.678 30.7183 28.1193 30.9986 28.642C31.2827 29.1648 31.4645 29.7633 31.544 30.4375ZM44.0014 32.1818C44.0014 33.4508 43.7609 34.5303 43.2798 35.4205C42.8026 36.3106 42.151 36.9905 41.3253 37.4602C40.5033 37.9261 39.5791 38.1591 38.5526 38.1591C37.5185 38.1591 36.5904 37.9242 35.7685 37.4545C34.9465 36.9848 34.2969 36.3049 33.8196 35.4148C33.3423 34.5246 33.1037 33.447 33.1037 32.1818C33.1037 30.9129 33.3423 29.8333 33.8196 28.9432C34.2969 28.053 34.9465 27.375 35.7685 26.9091C36.5904 26.4394 37.5185 26.2045 38.5526 26.2045C39.5791 26.2045 40.5033 26.4394 41.3253 26.9091C42.151 27.375 42.8026 28.053 43.2798 28.9432C43.7609 29.8333 44.0014 30.9129 44.0014 32.1818ZM41.5071 32.1818C41.5071 31.3598 41.384 30.6667 41.1378 30.1023C40.8954 29.5379 40.5526 29.1098 40.1094 28.8182C39.6662 28.5265 39.1473 28.3807 38.5526 28.3807C37.9579 28.3807 37.4389 28.5265 36.9957 28.8182C36.5526 29.1098 36.2079 29.5379 35.9616 30.1023C35.7192 30.6667 35.598 31.3598 35.598 32.1818C35.598 33.0038 35.7192 33.697 35.9616 34.2614C36.2079 34.8258 36.5526 35.2538 36.9957 35.5455C37.4389 35.8371 37.9579 35.983 38.5526 35.983C39.1473 35.983 39.6662 35.8371 40.1094 35.5455C40.5526 35.2538 40.8954 34.8258 41.1378 34.2614C41.384 33.697 41.5071 33.0038 41.5071 32.1818ZM55.5568 26.3636V38H53.4318L48.3693 30.6761H48.2841V38H45.8239V26.3636H47.983L53.0057 33.6818H53.108V26.3636H55.5568ZM61.7145 38H57.5895V26.3636H61.7486C62.919 26.3636 63.9266 26.5966 64.7713 27.0625C65.616 27.5246 66.2656 28.1894 66.7202 29.0568C67.1785 29.9242 67.4077 30.9621 67.4077 32.1705C67.4077 33.3826 67.1785 34.4242 66.7202 35.2955C66.2656 36.1667 65.6122 36.8352 64.7599 37.3011C63.9115 37.767 62.8963 38 61.7145 38ZM60.0497 35.892H61.6122C62.3395 35.892 62.9512 35.7633 63.4474 35.5057C63.9474 35.2443 64.3224 34.8409 64.5724 34.2955C64.8262 33.7462 64.9531 33.0379 64.9531 32.1705C64.9531 31.3106 64.8262 30.608 64.5724 30.0625C64.3224 29.517 63.9493 29.1155 63.4531 28.858C62.9569 28.6004 62.3452 28.4716 61.6179 28.4716H60.0497V35.892ZM79.9233 32.1818C79.9233 33.4508 79.6828 34.5303 79.2017 35.4205C78.7244 36.3106 78.0729 36.9905 77.2472 37.4602C76.4252 37.9261 75.5009 38.1591 74.4744 38.1591C73.4403 38.1591 72.5123 37.9242 71.6903 37.4545C70.8684 36.9848 70.2188 36.3049 69.7415 35.4148C69.2642 34.5246 69.0256 33.447 69.0256 32.1818C69.0256 30.9129 69.2642 29.8333 69.7415 28.9432C70.2188 28.053 70.8684 27.375 71.6903 26.9091C72.5123 26.4394 73.4403 26.2045 74.4744 26.2045C75.5009 26.2045 76.4252 26.4394 77.2472 26.9091C78.0729 27.375 78.7244 28.053 79.2017 28.9432C79.6828 29.8333 79.9233 30.9129 79.9233 32.1818ZM77.429 32.1818C77.429 31.3598 77.3059 30.6667 77.0597 30.1023C76.8172 29.5379 76.4744 29.1098 76.0312 28.8182C75.5881 28.5265 75.0691 28.3807 74.4744 28.3807C73.8797 28.3807 73.3608 28.5265 72.9176 28.8182C72.4744 29.1098 72.1297 29.5379 71.8835 30.1023C71.6411 30.6667 71.5199 31.3598 71.5199 32.1818C71.5199 33.0038 71.6411 33.697 71.8835 34.2614C72.1297 34.8258 72.4744 35.2538 72.9176 35.5455C73.3608 35.8371 73.8797 35.983 74.4744 35.983C75.0691 35.983 75.5881 35.8371 76.0312 35.5455C76.4744 35.2538 76.8172 34.8258 77.0597 34.2614C77.3059 33.697 77.429 33.0038 77.429 32.1818Z" fill="#737373"/>
</svg>
