<svg width="28" height="28" viewBox="0 0 28 28" fill="none" xmlns="http://www.w3.org/2000/svg">
<path d="M27.0983 9.84558C27.0769 9.08542 26.3152 8.39735 25.4898 8.41844C25.0919 8.4248 23.794 8.64412 23.8039 11.1986L23.8207 15.6754C23.8214 15.8863 23.7954 16.0852 23.7403 16.276C23.6751 16.1554 23.5915 16.0418 23.4897 15.94C22.943 15.3934 22.0457 15.3873 21.4476 15.9271C21.4354 15.9379 21.4242 15.9496 21.4136 15.962C20.6849 16.8238 19.7929 17.5754 19.0764 18.1793C18.8211 18.3945 18.5905 18.589 18.4003 18.7605C17.6213 19.4624 17.5177 20.441 17.5191 21.3055L17.527 26.9718C17.527 26.9875 17.5297 27.0026 17.5317 27.0178C17.5328 27.0265 17.5327 27.0356 17.5344 27.044C17.5386 27.0648 17.5453 27.0847 17.553 27.104C17.554 27.1064 17.5544 27.1092 17.5554 27.1116C17.6101 27.241 17.7382 27.3317 17.8874 27.3317H17.8879H22.4562H22.4563C22.4563 27.3317 22.4564 27.3317 22.4564 27.3317C22.6554 27.3317 22.8168 27.1702 22.8168 26.9713V23.9258L26.4387 20.3037C27.0468 19.6958 27.3558 18.9291 27.3319 18.0864L27.0983 9.84558ZM25.9292 19.7941L22.2017 23.5219C22.1342 23.5894 22.0961 23.6812 22.0961 23.7766V26.611H18.2473L18.2398 21.3046C18.2386 20.5633 18.3156 19.8068 18.8827 19.2959C19.068 19.1291 19.2925 18.9398 19.5407 18.7305C20.2727 18.1137 21.1821 17.3473 21.9467 16.4477C22.2646 16.1751 22.705 16.1747 22.9801 16.4496C23.2253 16.695 23.26 17.0723 23.0845 17.355L22.9665 17.4999L20.1061 20.3603C19.9654 20.5011 19.9654 20.7291 20.1061 20.8699C20.1765 20.9402 20.2687 20.9754 20.3609 20.9754C20.4531 20.9754 20.5454 20.9402 20.6157 20.8699L23.4897 17.9959C23.5573 17.9284 23.6167 17.8559 23.6683 17.7793L23.8588 17.5448C24.3207 16.9763 24.5441 16.3637 24.5415 15.6726L24.5246 11.1957C24.5197 9.91782 24.8847 9.14876 25.5013 9.13891C25.9309 9.14032 26.3675 9.49881 26.378 9.86594L26.6117 18.1068C26.63 18.7555 26.4003 19.3233 25.9292 19.7941Z" fill="#00634F" stroke="#00634F" stroke-width="0.3"/>
<path d="M22.3984 9.06468C22.3984 4.43363 18.6307 0.666016 13.9997 0.666016C9.36874 0.666016 5.60107 4.43363 5.60107 9.06468C5.60107 13.6956 9.36869 17.4632 13.9997 17.4632C18.6308 17.4632 22.3984 13.6956 22.3984 9.06468ZM21.6777 9.06468C21.6777 9.37931 21.6564 9.6889 21.6195 9.99369C20.8529 11.6915 18.8859 13.5432 18.3434 13.603C18.3415 13.5898 18.3396 13.5729 18.3389 13.5521C18.3218 13.1178 18.3368 12.7258 18.35 12.38C18.4002 11.0725 18.4363 10.128 16.6957 9.23999C16.0843 8.92796 15.7214 8.61759 15.6462 8.34212C15.5822 8.10754 15.7197 7.86587 15.9369 7.52358C16.1338 7.21369 16.374 6.83525 16.2638 6.43103C16.3093 6.35993 16.3947 6.26608 16.4538 6.22999C17.4204 6.5291 17.8521 6.25014 18.0247 6.05426C18.2204 5.83233 18.2608 5.52134 18.1301 5.24295C17.9617 4.88483 17.5713 4.67566 17.1109 4.68529C15.2871 4.73972 14.5776 4.30712 14.5206 3.91857C14.476 3.61592 14.7866 3.25675 15.1852 3.14977C15.9817 2.93612 16.5805 2.41206 17.0256 2.00935C19.7588 3.18597 21.6777 5.90509 21.6777 9.06468ZM8.84337 3.38076C9.85296 2.88607 9.97905 2.9705 10.2004 3.12415C10.5643 3.37727 10.9788 3.60133 11.9872 3.55185C12.0198 3.57357 12.1081 3.72816 12.1036 4.0342C12.097 4.49639 11.8675 5.17451 11.2433 5.56446C11.1621 5.61524 11.0732 5.66009 10.9826 5.70649C10.5791 5.91295 10.0263 6.19566 9.8677 7.00671C9.80785 7.31358 9.15895 7.68165 8.53134 8.0378C8.34389 8.14431 8.14847 8.2553 7.95066 8.37306C7.82446 8.44838 7.73952 8.5589 7.70644 8.68463C7.68207 8.6614 7.65483 8.63723 7.62457 8.61192C7.53941 8.54108 7.41082 8.4341 7.20764 8.2091C6.90399 7.87322 6.68561 7.53994 6.54826 7.21561C6.92066 5.71577 7.73384 4.38826 8.84337 3.38076ZM9.39358 9.25494C9.71806 9.28286 11.5457 9.81353 12.1038 10.4498C12.1641 10.5185 12.2347 10.6194 12.2279 10.7081C12.1697 11.4769 11.9905 11.8201 11.8007 12.1833C11.5741 12.6173 11.3397 13.0661 11.3017 14.0862C11.2723 14.8773 11.0291 15.1713 10.9483 15.1834C10.8559 15.2017 10.4127 14.9533 9.90171 13.5039C9.50733 12.3859 9.03738 11.9847 8.65967 11.6624C8.24228 11.3065 7.96686 11.0712 7.92931 9.73765C7.9253 9.5915 7.92415 9.47702 7.92342 9.38598C7.92295 9.33109 7.92222 9.28135 7.92061 9.23562C7.97176 9.27411 8.02972 9.30551 8.09233 9.32734C8.13946 9.34421 8.18967 9.34984 8.24014 9.34655L9.39358 9.25494ZM13.9997 16.7425C9.76619 16.7425 6.3218 13.2982 6.3218 9.06468C6.3218 8.80957 6.33493 8.55754 6.35936 8.30879C6.45529 8.43707 6.55795 8.56509 6.67306 8.69239C6.9105 8.95515 7.06863 9.08702 7.16316 9.16562C7.17655 9.17687 7.18826 9.18624 7.19884 9.19494C7.20144 9.24067 7.20212 9.31786 7.20285 9.39296C7.20379 9.48749 7.20498 9.60624 7.2092 9.75801C7.25212 11.2966 7.62613 11.728 8.19176 12.2108C8.53618 12.5048 8.89233 12.8086 9.22191 13.7438C9.84009 15.496 10.478 15.905 10.9388 15.905C10.9796 15.905 11.0191 15.9019 11.057 15.896C11.6231 15.81 11.9837 15.1434 12.022 14.113C12.0539 13.2558 12.2326 12.9135 12.4396 12.517C12.6446 12.1242 12.8771 11.6792 12.9468 10.7625C12.9684 10.4778 12.8562 10.2007 12.6134 9.93885C11.8341 9.09822 9.71879 8.53353 9.38775 8.53353C9.37811 8.53353 9.36874 8.534 9.3591 8.53473L9.07618 8.55723C9.85957 8.11004 10.4611 7.73046 10.5751 7.14488C10.6667 6.6778 10.951 6.53233 11.3109 6.34816C11.4202 6.29207 11.527 6.23696 11.6253 6.17571C12.6397 5.54202 12.9989 4.2829 12.75 3.47972C12.6207 3.06175 12.3315 2.82081 11.9746 2.83675C11.1065 2.8731 10.8423 2.69258 10.6117 2.53248C10.5005 2.45519 10.3962 2.39227 10.2861 2.34753C11.3874 1.73617 12.6534 1.38675 13.9997 1.38675C14.7853 1.38675 15.5434 1.50586 16.2577 1.72607C15.9055 2.02524 15.4911 2.32149 14.9985 2.45368C14.244 2.65602 13.7098 3.36034 13.8076 4.02368C13.8888 4.57535 14.4331 5.48858 17.133 5.40577C17.3324 5.39931 17.4227 5.47837 17.4528 5.51254C17.4826 5.54634 17.4858 5.57259 17.4858 5.5754C17.4673 5.60754 17.2435 5.72884 16.622 5.52733C16.3597 5.44181 16.0587 5.56238 15.7976 5.85764C15.6549 6.01884 15.4346 6.33014 15.562 6.60415C15.6063 6.69988 15.4587 6.93212 15.3285 7.13743C15.0923 7.50952 14.7981 7.97265 14.9508 8.53197C15.0867 9.02885 15.5369 9.45796 16.3681 9.88192C17.6984 10.5606 17.6768 11.1221 17.6298 12.3523C17.616 12.7113 17.6005 13.1183 17.6186 13.5805C17.6418 14.168 18.04 14.2886 18.1615 14.3116C18.2028 14.3193 18.2455 14.3231 18.2901 14.3231C18.9843 14.3231 20.059 13.3992 20.9519 12.3184C19.7249 14.9295 17.0706 16.7425 13.9997 16.7425Z" fill="#00634F" stroke="#00634F" stroke-width="0.3"/>
<path d="M9.59969 18.7622C9.40896 18.5905 9.17786 18.3955 8.92187 18.1799C8.20583 17.5762 7.31432 16.825 6.58609 15.9638C6.57551 15.9513 6.56426 15.9396 6.55208 15.9288C5.95405 15.3895 5.05692 15.3951 4.50999 15.9418C4.40817 16.0436 4.32442 16.1569 4.25921 16.2777C4.20431 16.0867 4.17801 15.888 4.17895 15.6771L4.19582 11.2003C4.20566 8.64586 2.9078 8.42648 2.50988 8.41992C2.50212 8.41992 2.49415 8.41992 2.48644 8.41992C1.67493 8.41992 0.922533 9.09419 0.901179 9.84727L0.667793 18.0884C0.643887 18.9309 0.952846 19.6975 1.56097 20.3054L5.18291 23.9273V26.973C5.18291 27.1719 5.34431 27.3333 5.54327 27.3333L10.1096 27.3331C10.1104 27.3331 10.111 27.3333 10.1119 27.3333H10.1123C10.2864 27.3333 10.4318 27.2098 10.4654 27.0454C10.4663 27.0408 10.4661 27.0357 10.4668 27.031C10.4699 27.0122 10.4727 26.9932 10.4727 26.9734L10.4807 21.3072C10.4821 20.4427 10.3784 19.4642 9.59969 18.7622ZM9.7525 26.6125L5.90364 26.6127V23.7782C5.90364 23.6827 5.86562 23.5909 5.79806 23.5234L2.0705 19.7959C1.59941 19.325 1.36972 18.7573 1.388 18.1086L1.62144 9.86768C1.63175 9.50404 2.06629 9.14039 2.4867 9.14039C2.49045 9.14039 2.49446 9.14065 2.49842 9.14065C3.11499 9.1505 3.48004 9.91956 3.47509 11.1975L3.45822 15.6743C3.4554 16.365 3.67874 16.9773 4.14093 17.5462L4.33072 17.7801C4.38233 17.8569 4.44192 17.9296 4.50973 17.9974L7.38395 20.8716C7.45432 20.9419 7.54656 20.9771 7.63874 20.9771C7.73093 20.9771 7.82317 20.9419 7.89354 20.8716C8.03432 20.7308 8.03432 20.5028 7.89354 20.362L5.03202 17.5005L4.91468 17.3559C4.73942 17.0732 4.77436 16.6964 5.01957 16.4513C5.29478 16.1763 5.73562 16.1768 6.05306 16.4494C6.81718 17.3484 7.72609 18.1144 8.4576 18.731C8.70651 18.9407 8.93151 19.1303 9.11708 19.2975C9.68411 19.8085 9.76109 20.5649 9.75989 21.3062L9.7525 26.6125Z" fill="#00634F" stroke="#00634F" stroke-width="0.3"/>
</svg>
