<svg width="24" height="24" viewBox="0 0 24 24" fill="none" xmlns="http://www.w3.org/2000/svg">
<path fill-rule="evenodd" clip-rule="evenodd" d="M11.6887 19.832C11.8876 20.056 12.2375 20.056 12.4364 19.832L18.8709 12.5879C19.1573 12.2654 18.9284 11.7558 18.4971 11.7558H16.0624C15.7863 11.7558 15.5624 11.532 15.5624 11.2558L15.5624 5.00576C15.5624 4.72962 15.3386 4.50576 15.0624 4.50576H9.06243C8.78629 4.50576 8.56243 4.72962 8.56243 5.00576V11.2558C8.56243 11.532 8.33857 11.7558 8.06243 11.7558H5.62806C5.19672 11.7558 4.96778 12.2654 5.25423 12.5879L11.6887 19.832L11.3149 20.1641L11.6887 19.832ZM13.184 20.4961C12.5873 21.168 11.5378 21.168 10.9411 20.4961L4.50658 13.252C3.64724 12.2845 4.33404 10.7558 5.62806 10.7558H7.56243V5.00576C7.56243 4.17733 8.234 3.50576 9.06243 3.50576H15.0624C15.8909 3.50576 16.5624 4.17734 16.5624 5.00576V10.7558H18.4971C19.7911 10.7558 20.4779 12.2845 19.6185 13.252L13.184 20.4961Z" fill="#171717"/>
</svg>
