<svg width="32" height="33" viewBox="0 0 32 33" fill="none" xmlns="http://www.w3.org/2000/svg">
<path d="M18.1763 4.24279C14.4567 4.24805 11.3604 7.10064 11.0492 10.8071C7.93716 11.1341 5.64211 13.8736 5.7964 16.9883C5.7964 17.7571 6.41969 18.3795 7.18851 18.3795H16.1662C17.0919 18.3874 17.6731 17.5248 17.5574 16.6525C17.553 13.6728 15.3229 11.1665 12.3642 10.8158C13.2864 3.52131 23.8307 4.05081 24.0183 11.3997V29.4462C24.0209 30.3009 25.3297 30.3097 25.3332 29.4462V11.3997C25.3288 7.44954 22.1273 4.24717 18.1763 4.24279V4.24279ZM16.2425 16.6525C16.2205 16.7209 16.3029 17.0742 16.1662 17.0645H7.18851C6.58012 10.8781 16.0776 10.296 16.2425 16.6525Z" fill="#EDB842" stroke="#EDB842" stroke-width="0.2"/>
<path d="M8.66492 19.655C7.79792 19.6787 8.03637 20.7157 8.00744 21.2812C8.00744 21.6441 8.30199 21.9387 8.66492 21.9387C9.53192 21.915 9.29347 20.8779 9.3224 20.3125C9.3224 19.9496 9.02785 19.655 8.66492 19.655Z" fill="#EDB842" stroke="#EDB842" stroke-width="0.2"/>
<path d="M11.6771 19.655C10.8101 19.6787 11.0486 20.7157 11.0196 21.2812C11.0196 21.6441 11.3142 21.9387 11.6771 21.9387C12.5441 21.915 12.3057 20.8779 12.3346 20.3125C12.3346 19.9496 12.0401 19.655 11.6771 19.655Z" fill="#EDB842" stroke="#EDB842" stroke-width="0.2"/>
<path d="M14.6884 19.655C13.8214 19.6787 14.0598 20.7157 14.0309 21.2812C14.0309 21.6441 14.3254 21.9387 14.6884 21.9387C15.5554 21.915 15.3169 20.8779 15.3458 20.3125C15.3458 19.9496 15.0513 19.655 14.6884 19.655Z" fill="#EDB842" stroke="#EDB842" stroke-width="0.2"/>
<path d="M9.3225 23.748C9.32075 23.386 9.02707 23.0941 8.66502 23.0941C7.79802 23.1177 8.03734 24.1557 8.00754 24.7211C8.00754 25.084 8.30209 25.3786 8.66502 25.3786C9.53377 25.3558 9.29269 24.3144 9.3225 23.748V23.748Z" fill="#EDB842" stroke="#EDB842" stroke-width="0.2"/>
<path d="M12.3342 23.748C12.3325 23.386 12.0388 23.0941 11.6767 23.0941C10.8097 23.1177 11.0491 24.1557 11.0193 24.7211C11.0193 25.084 11.3138 25.3786 11.6767 25.3786C12.5455 25.3558 12.3044 24.3144 12.3342 23.748V23.748Z" fill="#EDB842" stroke="#EDB842" stroke-width="0.2"/>
<path d="M15.3454 23.748C15.3437 23.386 15.05 23.0941 14.688 23.0941C13.821 23.1177 14.0603 24.1557 14.0305 24.7211C14.0305 25.084 14.325 25.3786 14.688 25.3786C15.5567 25.3558 15.3156 24.3144 15.3454 23.748V23.748Z" fill="#EDB842" stroke="#EDB842" stroke-width="0.2"/>
</svg>
