<svg width="32" height="33" viewBox="0 0 32 33" fill="none" xmlns="http://www.w3.org/2000/svg">
<path d="M26.5418 13.2132H26.0835V9.49225C26.082 8.20852 25.0568 7.16818 23.7918 7.16666H8.2085C6.9435 7.16818 5.91832 8.20852 5.91683 9.49225V13.2132H5.4585C3.1815 13.216 1.33625 15.0885 1.3335 17.3992V23.9109H2.25016V27.1667H4.54183V23.9109H27.4585V27.1667H29.7502V23.9109H30.6668V17.3992C30.6641 15.0885 28.8188 13.216 26.5418 13.2132ZM6.8335 9.49225C6.8335 8.72161 7.44909 8.0969 8.2085 8.0969H23.7918C24.5512 8.0969 25.1668 8.72161 25.1668 9.49225V13.2132H23.7918V11.3527C23.7918 10.5821 23.1762 9.95736 22.4168 9.95736H18.2918C17.5324 9.95736 16.9168 10.5821 16.9168 11.3527V13.2132H15.0835V11.3527C15.0835 10.5821 14.4679 9.95736 13.7085 9.95736H9.5835C8.82409 9.95736 8.2085 10.5821 8.2085 11.3527V13.2132H6.8335V9.49225ZM22.8752 11.3527V13.2132H17.8335V11.3527C17.8335 11.0959 18.0387 10.8876 18.2918 10.8876H22.4168C22.6699 10.8876 22.8752 11.0959 22.8752 11.3527ZM14.1668 11.3527V13.2132H9.12516V11.3527C9.12516 11.0959 9.33038 10.8876 9.5835 10.8876H13.7085C13.9616 10.8876 14.1668 11.0959 14.1668 11.3527ZM3.62516 26.2364H3.16683V23.9109H3.62516V26.2364ZM28.8335 26.2364H28.3752V23.9109H28.8335V26.2364ZM29.7502 22.9806H2.25016V20.655H29.7502V22.9806ZM29.7502 19.7248H2.25016V17.3992C2.25217 15.602 3.68744 14.1454 5.4585 14.1434H26.5418C28.3129 14.1454 29.7482 15.602 29.7502 17.3992V19.7248Z" fill="#EDB842" stroke="#EDB842" stroke-width="0.2"/>
</svg>
