<svg width="100" height="64" viewBox="0 0 100 64" fill="none" xmlns="http://www.w3.org/2000/svg">
<rect width="100" height="64" rx="6" fill="#E5E5E5"/>
<path d="M18.4176 38V26.3636H20.8778V35.9716H25.8665V38H18.4176ZM29.7983 38H27.1619L31.179 26.3636H34.3494L38.3608 38H35.7244L32.8097 29.0227H32.7188L29.7983 38ZM29.6335 33.4261H35.8608V35.3466H29.6335V33.4261ZM49.4943 26.3636V38H47.3693L42.3068 30.6761H42.2216V38H39.7614V26.3636H41.9205L46.9432 33.6818H47.0455V26.3636H49.4943ZM55.652 38H51.527V26.3636H55.6861C56.8565 26.3636 57.8641 26.5966 58.7088 27.0625C59.5535 27.5246 60.2031 28.1894 60.6577 29.0568C61.116 29.9242 61.3452 30.9621 61.3452 32.1705C61.3452 33.3826 61.116 34.4242 60.6577 35.2955C60.2031 36.1667 59.5497 36.8352 58.6974 37.3011C57.849 37.767 56.8338 38 55.652 38ZM53.9872 35.892H55.5497C56.277 35.892 56.8887 35.7633 57.3849 35.5057C57.8849 35.2443 58.2599 34.8409 58.5099 34.2955C58.7637 33.7462 58.8906 33.0379 58.8906 32.1705C58.8906 31.3106 58.7637 30.608 58.5099 30.0625C58.2599 29.517 57.8868 29.1155 57.3906 28.858C56.8944 28.6004 56.2827 28.4716 55.5554 28.4716H53.9872V35.892ZM63.1676 38V26.3636H71.0085V28.392H65.6278V31.1648H70.6051V33.1932H65.6278V35.9716H71.0312V38H63.1676ZM77.0895 38H72.9645V26.3636H77.1236C78.294 26.3636 79.3016 26.5966 80.1463 27.0625C80.991 27.5246 81.6406 28.1894 82.0952 29.0568C82.5535 29.9242 82.7827 30.9621 82.7827 32.1705C82.7827 33.3826 82.5535 34.4242 82.0952 35.2955C81.6406 36.1667 80.9872 36.8352 80.1349 37.3011C79.2865 37.767 78.2713 38 77.0895 38ZM75.4247 35.892H76.9872C77.7145 35.892 78.3262 35.7633 78.8224 35.5057C79.3224 35.2443 79.6974 34.8409 79.9474 34.2955C80.2012 33.7462 80.3281 33.0379 80.3281 32.1705C80.3281 31.3106 80.2012 30.608 79.9474 30.0625C79.6974 29.517 79.3243 29.1155 78.8281 28.858C78.3319 28.6004 77.7202 28.4716 76.9929 28.4716H75.4247V35.892Z" fill="#737373"/>
</svg>
