<svg width="28" height="28" viewBox="0 0 28 28" fill="none" xmlns="http://www.w3.org/2000/svg">
<mask id="path-1-inside-1_2318_8705" fill="white">
<path d="M14.0444 9.96916C14.4114 9.96916 14.7087 9.67171 14.7087 9.30489C14.7087 8.93807 14.4114 8.64062 14.0444 8.64062C11.1096 8.64062 8.73047 11.0198 8.73047 13.9547C8.73047 16.8895 11.1096 19.2687 14.0444 19.2687C16.9794 19.2687 19.3585 16.8895 19.3585 13.9547C19.3585 13.5877 19.0611 13.2905 18.6942 13.2905C18.3274 13.2905 18.03 13.5877 18.03 13.9547C18.03 16.1559 16.2457 17.9403 14.0444 17.9403C11.8433 17.9403 10.0588 16.1559 10.0588 13.9547C10.0588 11.7534 11.8433 9.96916 14.0444 9.96916Z"/>
</mask>
<path d="M14.0444 9.96916C14.4114 9.96916 14.7087 9.67171 14.7087 9.30489C14.7087 8.93807 14.4114 8.64062 14.0444 8.64062C11.1096 8.64062 8.73047 11.0198 8.73047 13.9547C8.73047 16.8895 11.1096 19.2687 14.0444 19.2687C16.9794 19.2687 19.3585 16.8895 19.3585 13.9547C19.3585 13.5877 19.0611 13.2905 18.6942 13.2905C18.3274 13.2905 18.03 13.5877 18.03 13.9547C18.03 16.1559 16.2457 17.9403 14.0444 17.9403C11.8433 17.9403 10.0588 16.1559 10.0588 13.9547C10.0588 11.7534 11.8433 9.96916 14.0444 9.96916Z" fill="#00634F"/>
<path d="M14.0444 11.3025C15.1481 11.3025 16.042 10.4078 16.042 9.30489H13.3753C13.3753 8.9356 13.6748 8.63582 14.0444 8.63582V11.3025ZM16.042 9.30489C16.042 8.20196 15.1481 7.30729 14.0444 7.30729V9.97396C13.6748 9.97396 13.3753 9.67418 13.3753 9.30489H16.042ZM14.0444 7.30729C10.3732 7.30729 7.39714 10.2834 7.39714 13.9547H10.0638C10.0638 11.7561 11.846 9.97396 14.0444 9.97396V7.30729ZM7.39714 13.9547C7.39714 17.6259 10.3732 20.602 14.0444 20.602V17.9353C11.846 17.9353 10.0638 16.1531 10.0638 13.9547H7.39714ZM14.0444 20.602C17.7157 20.602 20.6918 17.6259 20.6918 13.9547H18.0252C18.0252 16.1531 16.243 17.9353 14.0444 17.9353V20.602ZM20.6918 13.9547C20.6918 12.8511 19.7972 11.9572 18.6942 11.9572V14.6238C18.325 14.6238 18.0252 14.3244 18.0252 13.9547H20.6918ZM18.6942 11.9572C17.5913 11.9572 16.6966 12.8511 16.6966 13.9547H19.3633C19.3633 14.3244 19.0635 14.6238 18.6942 14.6238V11.9572ZM16.6966 13.9547C16.6966 15.4195 15.5093 16.607 14.0444 16.607V19.2737C16.9821 19.2737 19.3633 16.8922 19.3633 13.9547H16.6966ZM14.0444 16.607C12.5796 16.607 11.3921 15.4195 11.3921 13.9547H8.72546C8.72546 16.8923 11.1069 19.2737 14.0444 19.2737V16.607ZM11.3921 13.9547C11.3921 12.4898 12.5796 11.3025 14.0444 11.3025V8.63582C11.1069 8.63582 8.72546 11.017 8.72546 13.9547H11.3921Z" fill="#00634F" mask="url(#path-1-inside-1_2318_8705)"/>
<path d="M26.7185 10.0095C26.6032 9.66097 26.2272 9.47197 25.8785 9.58733C25.5379 9.70004 25.3483 10.0626 25.4498 10.4066C27.4363 16.7325 23.9186 23.471 17.5928 25.4575C11.2671 27.444 4.5286 23.9263 2.54211 17.6004C0.555413 11.2745 4.07327 4.53606 10.399 2.54957C12.7407 1.8143 15.2512 1.8143 17.5928 2.54957C17.9443 2.65557 18.3152 2.45659 18.4212 2.10503C18.5256 1.75876 18.3341 1.39275 17.9901 1.28085C10.966 -0.922921 3.4851 2.98475 1.28132 10.0091C-0.92245 17.0332 2.98542 24.5141 10.0095 26.7178C17.0339 28.9216 24.5145 25.0139 26.7183 17.9896C27.5333 15.392 27.5333 12.6071 26.7185 10.0095Z" fill="#00634F"/>
<path d="M15.3092 5.41268C15.3127 5.03446 15.0221 4.7183 14.6449 4.69002C14.4466 4.67314 14.248 4.65625 14.0443 4.65625C8.90824 4.65625 4.74463 8.81986 4.74463 13.956C4.74463 19.0919 8.90824 23.2555 14.0443 23.2555C19.1802 23.2555 23.3439 19.0919 23.3439 13.956C23.3439 13.7157 23.3292 13.4756 23.2997 13.2372C23.2466 12.8726 22.9081 12.6201 22.5435 12.6732C22.1789 12.7261 21.9264 13.0649 21.9793 13.4294C21.9814 13.4433 21.9838 13.4569 21.9866 13.4707C22.0011 13.6317 22.0153 13.7912 22.0153 13.9556C22.0155 18.358 18.4468 21.9267 14.0445 21.9272C9.64209 21.9274 6.07336 18.3584 6.07316 13.9562C6.07296 9.55391 9.64148 5.98498 14.0439 5.98478H14.0441C14.2089 5.98478 14.3686 5.99902 14.5292 6.01326L14.6537 6.02364C15.0008 6.03849 15.2941 5.76912 15.3088 5.42204C15.309 5.41878 15.309 5.41573 15.3092 5.41268Z" fill="#00634F"/>
<path d="M18.03 6.6477V9.0297L13.5749 13.4849C13.311 13.7398 13.3037 14.1603 13.5586 14.4242C13.8135 14.6881 14.234 14.6954 14.4979 14.4405C14.5034 14.4352 14.5089 14.4297 14.5142 14.4242L18.9693 9.96903H21.3513C21.5275 9.96903 21.6964 9.89904 21.8211 9.77433L25.8065 5.78873C26.0659 5.52934 26.0659 5.1088 25.8065 4.8494C25.682 4.72489 25.5131 4.65491 25.3369 4.65491H23.3441V2.66211C23.3441 2.29529 23.0467 1.99784 22.6797 1.99805C22.5037 1.99805 22.3348 2.06803 22.2103 2.19255L18.2247 6.17814C18.1 6.30265 18.03 6.47151 18.03 6.6477ZM19.3585 6.92277L22.0156 4.2657V5.31917C22.0156 5.68599 22.3131 5.98344 22.6799 5.98344H23.7333L21.0763 8.6405H19.3585V6.92277Z" fill="#00634F"/>
</svg>
