<svg width="44" height="44" viewBox="0 0 44 44" fill="none" xmlns="http://www.w3.org/2000/svg">
<path d="M33 13.127C32.89 13.1087 32.7616 13.1087 32.6516 13.127C30.1216 13.0353 28.105 10.9637 28.105 8.397C28.105 5.77533 30.2133 3.66699 32.835 3.66699C35.4566 3.66699 37.565 5.79366 37.565 8.397C37.5466 10.9637 35.53 13.0353 33 13.127Z" stroke="#34444C" stroke-width="1.5" stroke-linecap="round" stroke-linejoin="round"/>
<path d="M31.1116 26.474C33.6233 26.8956 36.3917 26.4556 38.335 25.154C40.92 23.4306 40.92 20.6073 38.335 18.884C36.3733 17.5823 33.5683 17.1423 31.0566 17.5823" stroke="#34444C" stroke-width="1.5" stroke-linecap="round" stroke-linejoin="round"/>
<path d="M10.945 13.127C11.055 13.1087 11.1833 13.1087 11.2933 13.127C13.8233 13.0353 15.84 10.9637 15.84 8.397C15.84 5.77533 13.7317 3.66699 11.11 3.66699C8.48834 3.66699 6.38 5.79366 6.38 8.397C6.39834 10.9637 8.41501 13.0353 10.945 13.127Z" stroke="#34444C" stroke-width="1.5" stroke-linecap="round" stroke-linejoin="round"/>
<path d="M12.8333 26.474C10.3217 26.8956 7.55335 26.4556 5.61001 25.154C3.02501 23.4306 3.02501 20.6073 5.61001 18.884C7.57168 17.5823 10.3767 17.1423 12.8883 17.5823" stroke="#34444C" stroke-width="1.5" stroke-linecap="round" stroke-linejoin="round"/>
<path d="M22 26.8213C21.89 26.803 21.7616 26.803 21.6516 26.8213C19.1216 26.7297 17.105 24.658 17.105 22.0913C17.105 19.4697 19.2133 17.3613 21.835 17.3613C24.4566 17.3613 26.565 19.488 26.565 22.0913C26.5466 24.658 24.53 26.748 22 26.8213Z" stroke="#34444C" stroke-width="1.5" stroke-linecap="round" stroke-linejoin="round"/>
<path d="M16.665 32.5962C14.08 34.3195 14.08 37.1428 16.665 38.8662C19.5983 40.8278 24.4017 40.8278 27.335 38.8662C29.92 37.1428 29.92 34.3195 27.335 32.5962C24.42 30.6528 19.5983 30.6528 16.665 32.5962Z" stroke="#34444C" stroke-width="1.5" stroke-linecap="round" stroke-linejoin="round"/>
</svg>
