<svg width="28" height="28" viewBox="0 0 28 28" fill="none" xmlns="http://www.w3.org/2000/svg">
<path d="M5.49957 10.1687C5.77407 8.84244 6.91063 7.85701 8.26308 7.77065C9.92397 7.66578 11.3597 8.93034 11.4646 10.5912C11.5047 11.2266 11.3474 11.8481 11.0081 12.3863M6.73328 10.4247C6.89058 9.66902 7.53519 9.07993 8.34327 9.02904C9.31174 8.96735 10.146 9.70295 10.2077 10.6714C10.2324 11.0539 10.1322 11.4147 9.94247 11.717M19.1876 17.2579L18.9193 16.8646C18.4412 16.1661 18.6448 15.2084 19.3665 14.7643C20.0666 14.334 20.9796 14.5576 21.4098 15.2577C25.4749 21.8781 27.3347 27.3327 27.3347 27.3327M16.6492 18.7044L14.0692 15.028C13.6251 14.3941 12.7415 14.2584 12.1277 14.7288C11.5509 15.1698 11.4214 15.9841 11.8331 16.5824L14.2574 20.1108L8.56842 12.0825C8.07802 11.3901 7.10339 11.2559 6.44336 11.791C5.84501 12.2768 5.72318 13.1435 6.16731 13.7757L13.1332 23.6994C13.5171 24.2469 13.0113 24.9763 12.3636 24.8082L10.3851 24.2931C9.73582 24.1235 9.06037 24.4566 8.79666 25.0735C8.47898 25.8183 8.88148 26.6742 9.65717 26.904L11.0991 27.3327M19.1861 17.2548L17.2969 14.4882C16.8204 13.7896 15.8519 13.64 15.1857 14.1613C14.5812 14.6347 14.4455 15.4968 14.8758 16.1321L16.6477 18.7538M1.94956 9.37448V11.4533M26.1349 20.6676C26.798 20.6676 27.3347 20.1309 27.3347 19.4678V1.86734C27.3347 1.20422 26.798 0.666016 26.1349 0.666016H1.86629C1.20471 0.666016 0.666504 1.20268 0.666504 1.86734V19.4678C0.666504 20.1309 1.20471 20.6676 1.86629 20.6676H9.22383L7.64931 18.4453H3.30202V2.88824H25.1125V18.4453" stroke="#00634F" stroke-width="0.8" stroke-linecap="round" stroke-linejoin="round"/>
</svg>
