<svg width="39" height="38" viewBox="0 0 39 38" fill="none" xmlns="http://www.w3.org/2000/svg">
<path d="M17.0821 8.94389L27.8461 18.0962L27.9788 21.8911H24.4044L24.368 19.8042L21.8659 19.7357L21.8573 17.3727L19.1347 17.3642V15.1532L16.898 15.0483L15.6737 13.9588M37.8332 28.201L36.7223 27.3341C34.4171 25.5383 31.6903 24.3333 28.7943 23.9566C27.4651 23.7832 25.5174 24.0636 24.0534 24.3269C18.925 25.2515 17.0414 26.2553 15.1921 28.5712C13.3429 30.8893 14.6185 32.0943 16.7825 31.7283C18.9464 31.3644 24.2995 29.3182 24.2995 29.3182M10.6931 26.8696C10.6931 26.8696 11.5963 24.9326 13.3343 24.9048C15.0723 24.8769 18.8351 25.5148 18.8351 25.5148M5.67812 29.1106C5.67812 29.1106 6.02487 26.2254 9.38741 26.6727C12.75 27.1222 15.708 27.9655 15.708 27.9655M34.6033 36.7218L30.5494 32.7899L19.3959 36.4586C19.3959 36.4586 17.8826 37.5545 14.5757 36.7133C11.2688 35.8721 1.96455 31.6127 1.96455 31.6127C1.96455 31.6127 0.787336 30.8272 1.29247 29.5943C1.7976 28.3615 3.22524 28.445 4.20768 28.781C5.18797 29.117 14.2675 30.5746 14.2675 30.5746M9.63356 6.31763C8.98288 7.08175 7.83563 7.17593 7.07151 6.52525C6.3074 5.87457 6.21322 4.72732 6.8639 3.9632C7.51458 3.19909 8.65968 3.10491 9.42594 3.75559C10.1901 4.40626 10.2842 5.55351 9.63356 6.31763V6.31763ZM15.7379 11.5081C13.3835 14.2756 9.23331 14.6116 6.46364 12.2593C3.69612 9.90492 3.36008 5.75471 5.71237 2.98505C8.0668 0.217525 12.2191 -0.120657 14.9867 2.23377C17.7542 4.5882 18.0902 8.73841 15.7379 11.5081V11.5081Z" stroke="#34444C" stroke-linecap="round" stroke-linejoin="round"/>
</svg>
