<svg width="39" height="38" viewBox="0 0 39 38" fill="none" xmlns="http://www.w3.org/2000/svg">
<path d="M17.0823 8.94389L27.8463 18.0962L27.979 21.8911H24.4045L24.3682 19.8042L21.866 19.7357L21.8575 17.3727L19.1349 17.3642V15.1532L16.8982 15.0483L15.6739 13.9588M37.8333 28.201L36.7225 27.3341C34.4173 25.5383 31.6904 24.3333 28.7945 23.9566C27.4653 23.7832 25.5175 24.0636 24.0535 24.3269C18.9252 25.2515 17.0416 26.2553 15.1923 28.5712C13.343 30.8893 14.6187 32.0943 16.7826 31.7283C18.9466 31.3644 24.2997 29.3182 24.2997 29.3182M10.6932 26.8696C10.6932 26.8696 11.5965 24.9326 13.3345 24.9048C15.0725 24.8769 18.8353 25.5148 18.8353 25.5148M5.67829 29.1106C5.67829 29.1106 6.02503 26.2254 9.38758 26.6727C12.7501 27.1222 15.7081 27.9655 15.7081 27.9655M34.6035 36.7218L30.5496 32.7899L19.396 36.4586C19.396 36.4586 17.8828 37.5545 14.5759 36.7133C11.269 35.8721 1.96472 31.6127 1.96472 31.6127C1.96472 31.6127 0.787504 30.8272 1.29264 29.5943C1.79777 28.3615 3.22541 28.445 4.20784 28.781C5.18814 29.117 14.2677 30.5746 14.2677 30.5746M9.63373 6.31763C8.98305 7.08175 7.8358 7.17593 7.07168 6.52525C6.30756 5.87457 6.21339 4.72732 6.86407 3.9632C7.51474 3.19909 8.65985 3.10491 9.42611 3.75559C10.1902 4.40626 10.2844 5.55351 9.63373 6.31763V6.31763ZM15.7381 11.5081C13.3837 14.2756 9.23347 14.6116 6.46381 12.2593C3.69629 9.90492 3.36025 5.75471 5.71254 2.98505C8.06696 0.217525 12.2193 -0.120657 14.9868 2.23377C17.7544 4.5882 18.0904 8.73841 15.7381 11.5081V11.5081Z" stroke="#34444C" stroke-linecap="round" stroke-linejoin="round"/>
</svg>
