<svg width="120" height="40" viewBox="0 0 120 40" fill="none" xmlns="http://www.w3.org/2000/svg">
<path d="M0 21.9374C0.88993 21.7543 1.20502 21.5457 1.46902 20.9921C1.73302 20.4429 1.91612 19.3656 1.91612 18.267V12.1056C1.91612 8.06899 1.78412 2.59742 1.57547 2.04813C1.36683 1.52439 1.10283 1.3413 0.447094 1.26039V1.05175C1.15393 1.00065 3.12114 0.502463 4.69661 0.00427246C4.69661 0.766461 4.69661 1.26465 4.64552 2.57613C4.61997 3.54696 4.61997 6.60423 4.61997 7.02152V18.2713C4.61997 20.9708 4.98616 21.6819 6.50628 21.9417V22.1759C5.11816 22.0992 4.33042 22.0694 3.27869 22.0694C2.22695 22.0694 1.49457 22.095 0 22.1759V21.9417L0 21.9374Z" fill="white"/>
<path d="M17.0065 12.8891C14.8051 8.66513 14.5922 8.40539 13.2041 7.9583V7.71985C14.7498 7.79649 15.6184 7.8263 16.5892 7.8263C17.6623 7.8263 18.318 7.80075 19.3697 7.71985V7.9583C18.5565 8.11585 18.2669 8.37559 18.2669 8.90358C18.2669 9.61042 18.45 10.032 20.0255 12.8891L23.1977 18.7098L24.8243 15.6441C26.6339 12.2334 27.3961 10.4237 27.3961 9.48268C27.3961 9.01003 27.1321 8.51184 26.7915 8.3032C26.5573 8.14565 26.37 8.09456 25.7951 7.96256V7.72411C27.1066 7.80075 27.8134 7.83056 28.6267 7.83056C29.4911 7.83056 30.1468 7.80501 30.9601 7.72411V7.96256C29.7295 8.37985 28.7843 9.82332 26.0549 14.9372L22.014 22.4654L17.0065 12.8934V12.8891Z" fill="white"/>
<path d="M56.2656 21.9374C57.1045 21.7543 57.3685 21.5968 57.6282 21.0177C57.8624 20.4684 58.0199 19.3656 58.0199 18.2627V12.1013C58.0199 9.42729 57.8879 3.64488 57.7602 2.59314C57.6537 1.67341 57.3131 1.36257 56.3721 1.25612V1.02193C57.0534 0.970832 59.0972 0.472642 60.5151 0C60.5151 0.732382 60.5151 1.26038 60.4896 2.57185C60.464 3.54269 60.4641 6.59996 60.4641 7.01724V11.8161C60.9878 10.5301 61.3795 9.89994 62.0906 9.274C63.1126 8.35853 64.556 7.85608 66.2081 7.85608C67.8603 7.85608 69.2782 8.35427 70.3257 9.274C71.5051 10.2959 71.9267 11.5052 71.9267 13.8642V18.2712C71.9267 19.7147 72.0842 20.6046 72.3738 21.2093C72.5824 21.6308 72.8209 21.7841 73.5022 21.9417V22.1759C72.2971 22.0992 71.586 22.0694 70.5641 22.0694C69.5422 22.0694 68.8055 22.095 67.4685 22.1759V21.9417C68.2009 21.7586 68.4649 21.5755 68.6991 21.0219C68.8822 20.5493 69.0397 19.3698 69.0397 18.267V13.8599C69.0397 10.6877 67.5707 8.74601 65.1862 8.74601C62.5633 8.74601 60.728 11.0794 60.728 14.4347V18.2627C60.728 19.5231 60.8856 20.6217 61.1751 21.2008C61.3582 21.6223 61.6222 21.7756 62.3035 21.9331V22.1673C61.0985 22.0907 60.3874 22.0609 59.391 22.0609C58.4457 22.0609 57.7134 22.0864 56.2699 22.1673V21.9331L56.2656 21.9374Z" fill="white"/>
<path d="M85.4546 12.6037C85.4546 9.92969 83.828 8.14557 81.3882 8.14557C79.0803 8.14557 77.3473 9.92969 76.9811 12.6037H85.4503H85.4546ZM76.8789 13.3106C76.8534 13.7023 76.8278 14.2303 76.8278 14.886C76.8278 16.4317 77.2196 18.0838 77.8753 19.2931C78.7141 20.8132 80.3918 21.7585 82.227 21.7585C84.2453 21.7585 86.2125 20.941 87.4474 19.2122C87.9456 18.5309 88.2607 17.8752 88.6268 16.7724L89.257 17.0874C88.052 20.8388 85.4802 22.4696 81.6266 22.4696C76.8789 22.4696 73.498 19.3485 73.498 14.9158C73.498 10.4832 76.9087 7.44299 81.4989 7.44299C83.8067 7.44299 85.906 8.28183 87.3707 9.83175C88.4182 10.9346 88.9718 12.0885 89.0484 13.3191H76.8789V13.3106Z" fill="white"/>
<path d="M89.2568 21.9374C90.1468 21.7798 90.4363 21.5967 90.7259 21.0176C91.0154 20.413 91.173 19.5486 91.173 18.2627V13.4894C91.173 9.26544 91.1474 9.16324 89.6784 8.6906V8.48196C91.2539 8.24351 92.3269 8.00931 93.9279 7.58777C93.8215 8.5075 93.8768 8.6097 93.8215 10.628L93.7959 11.6755C94.4516 10.5727 94.7412 10.1298 95.2394 9.55072C96.2102 8.3968 97.6239 7.60906 98.9907 7.68996L99.4634 7.71551L98.335 10.8622C97.9432 10.364 97.5472 10.1554 96.8915 10.1554C95.0052 10.1554 93.8768 12.1992 93.8768 15.6355V18.2584C93.8768 21.09 94.1919 21.6691 95.7887 21.9288V22.163C94.4772 22.0864 93.6639 22.0566 92.5611 22.0566C91.4582 22.0566 90.645 22.0821 89.2568 22.163V21.9288V21.9374Z" fill="white"/>
<path d="M111.416 12.6038C111.416 9.92979 109.789 8.14568 107.349 8.14568C105.041 8.14568 103.313 9.92979 102.942 12.6038H111.411H111.416ZM102.84 13.3107C102.814 13.7024 102.789 14.2304 102.789 14.8861C102.789 16.4318 103.181 18.0839 103.836 19.2932C104.675 20.8133 106.353 21.7586 108.188 21.7586C110.206 21.7586 112.173 20.7111 113.408 18.9781C113.907 18.2968 114.222 17.6411 114.588 16.5383L115.218 16.8534C114.013 20.6047 111.441 22.4655 107.588 22.4655C102.84 22.4655 99.459 19.3443 99.459 14.9117C99.459 10.4791 102.87 7.43884 107.456 7.43884C109.763 7.43884 111.863 8.27768 113.327 9.8276C114.375 10.9304 114.928 12.0844 115.005 13.3149H102.836L102.84 13.3107Z" fill="white"/>
<path d="M13.332 19.5529C13.332 19.5529 12.1057 21.5797 12.0461 19.5529C12.0078 19.1697 11.9865 18.7439 11.9865 18.267V9.53373L12.012 7.77942C10.6239 8.14561 9.31245 8.40961 7.71143 8.66935V8.87799C9.25709 9.35063 9.2869 9.42728 9.2869 13.6768V17.641C9.2869 18.1137 8.82703 21.716 10.8539 22.0694C12.5528 22.3632 13.4129 21.0517 13.6386 19.6806L13.3363 19.5529H13.332Z" fill="white"/>
<path d="M10.3854 6.20395C11.2753 6.20395 12.0119 5.47156 12.0119 4.60292C12.0119 3.68745 11.3051 2.95081 10.3854 2.95081C9.46562 2.95081 8.75879 3.68745 8.75879 4.57738C8.75879 5.46731 9.49117 6.20395 10.3854 6.20395Z" fill="white"/>
<path d="M118.344 22.4611C119.234 22.4611 119.97 21.7288 119.97 20.8601C119.97 19.9446 119.264 19.208 118.344 19.208C117.424 19.208 116.717 19.9446 116.717 20.8346C116.717 21.7245 117.45 22.4611 118.344 22.4611Z" fill="white"/>
<path d="M41.7754 12.6037C41.7754 9.92969 40.1488 8.14557 37.709 8.14557C35.4011 8.14557 33.6681 9.92969 33.3019 12.6037H41.7712H41.7754ZM33.1997 13.3106C33.1742 13.7023 33.1486 14.2303 33.1486 14.886C33.1486 16.4317 33.5404 18.0838 34.1961 19.2931C35.0349 20.8132 36.7126 21.7585 38.5478 21.7585C40.5661 21.7585 42.5333 20.941 43.7682 19.2122C44.2664 18.5309 44.5815 17.8752 44.9477 16.7724L45.5778 17.0874C44.3728 20.8388 41.801 22.4696 37.9474 22.4696C33.1997 22.4696 29.8188 19.3485 29.8188 14.9158C29.8188 10.4832 33.2295 7.44299 37.8197 7.44299C40.1276 7.44299 42.2268 8.28183 43.6915 9.83175C44.739 10.9346 45.2926 12.0885 45.3692 13.3191H33.1997V13.3106Z" fill="white"/>
<path d="M52.3269 9.1718H56.24L56.6957 8.29038H52.3312V3.27441H52.1183C50.9686 5.6802 51.2113 7.72406 47.3833 8.61399L47.1406 9.17605H49.5762C49.5762 9.17605 49.4442 18.0839 49.4442 18.152C49.4144 18.7268 49.3974 19.6551 49.6018 20.4684C49.8019 21.2561 50.2234 21.882 51.0367 22.0736C52.9656 22.5293 54.3026 20.8175 54.5326 19.4507L54.2303 19.323C54.2303 19.323 52.2928 21.584 52.2332 19.5614C52.1949 19.1782 52.3354 9.18031 52.3354 9.18031" fill="white"/>
<path d="M10.4622 37.2962C10.7901 36.6064 13.8388 31.2838 14.6862 29.8872C14.9843 29.4018 15.2355 28.8823 15.2355 28.7418C15.2355 28.6013 15.4867 28.1457 15.8018 27.7539C16.2744 27.1748 16.4277 27.0471 16.7428 27.0769C16.9472 27.1067 17.1346 27.2174 17.1516 27.3451C17.1814 27.4729 16.8237 28.1627 16.3809 28.8823C15.0609 30.956 11.8418 36.6702 11.1861 38.0797C11.0456 38.3777 10.3685 38.4246 10.2621 38.1435C10.2153 38.02 10.3089 37.624 10.4665 37.2962" fill="white"/>
<path d="M18.9225 29.4486C19.2205 29.6189 19.2035 29.8403 18.8756 30.232C18.6074 30.5599 18.122 30.6408 17.9644 30.3896C17.6962 29.9808 18.2454 29.3549 18.7181 29.3847C18.782 29.4017 18.8586 29.4145 18.9225 29.4486ZM17.5258 31.1262C17.9814 31.1901 17.9985 31.8501 17.5727 32.2546C17.2107 32.5825 16.3336 33.9025 16.4102 33.9961C16.44 34.0132 17.2576 33.8088 18.2327 33.5405C19.2078 33.2595 20.102 33.0551 20.2127 33.102C20.4469 33.1956 20.4809 33.6683 20.2297 33.8556C19.9614 34.06 16.8999 34.8605 16.3506 34.8605C16.0824 34.8605 15.7843 34.7967 15.6906 34.703C15.2691 34.2814 15.614 33.3234 16.7424 31.7522C17.0575 31.3264 17.2618 31.139 17.4492 31.122H17.5258V31.1262Z" fill="white"/>
<path d="M20.7747 31.8033C21.2303 30.7984 21.6221 30.6111 21.9201 31.254C22.0479 31.5521 22.0308 31.6628 21.8094 31.914C21.4943 32.2589 21.1494 32.9956 21.2431 33.0935C21.2729 33.1233 21.967 32.7486 22.7803 32.2462C24.4281 31.2242 24.8369 31.0709 25.0711 31.369C25.3223 31.6671 25.1648 31.9183 24.4281 32.3441C24.0662 32.5485 23.172 33.068 22.4481 33.4895C21.0345 34.3198 20.7832 34.3837 20.4213 34.0218C20.1062 33.7237 20.2169 32.9998 20.7662 31.8076" fill="white"/>
<path d="M28.3712 29.4486C28.6693 29.6189 28.6522 29.8403 28.3244 30.232C28.0561 30.5599 27.5707 30.6408 27.4131 30.3896C27.1449 29.9808 27.6942 29.3549 28.1668 29.3847C28.2307 29.4017 28.3073 29.4145 28.3712 29.4486ZM26.9746 31.1262C27.4302 31.1901 27.4472 31.8501 27.0214 32.2546C26.6595 32.5825 25.7823 33.9025 25.859 33.9961C25.8888 34.0132 26.7063 33.8088 27.6814 33.5405C28.6565 33.2595 29.5507 33.0551 29.6614 33.102C29.8956 33.1956 29.9296 33.6683 29.6784 33.8556C29.4102 34.06 26.3486 34.8605 25.7994 34.8605C25.5311 34.8605 25.233 34.7967 25.1394 34.703C24.7178 34.2814 25.0627 33.3234 26.1911 31.7522C26.5062 31.3264 26.7106 31.139 26.8979 31.122H26.9746V31.1262Z" fill="white"/>
<path d="M28.6055 34.7881C28.4778 34.4603 30.4578 30.9559 30.9304 30.6749C31.4158 30.3768 31.6372 31.0666 31.2455 31.6329C30.9474 32.0417 31.0752 32.0247 31.765 31.5222C32.1269 31.254 32.5187 31.1007 32.7997 31.1007C33.4426 31.1007 33.5534 31.5563 33.1616 32.591C32.987 33.0125 32.8636 33.4213 32.8636 33.4852C32.8636 33.7194 33.1914 33.6257 34.2432 33.1233C35.3588 32.591 35.8612 32.5442 35.8612 32.9827C35.8612 33.8003 32.7827 34.8818 32.0929 34.3155C31.8416 34.1111 31.8118 33.3915 32.029 32.838C32.1056 32.6336 32.1397 32.4292 32.1056 32.3994C32.0588 32.3525 31.4329 32.9316 30.692 33.6725C29.3422 35.0223 28.8056 35.3034 28.6055 34.7881Z" fill="white"/>
<path d="M33.0637 38.6332C33.5363 37.756 34.4774 36.6873 35.4823 35.8527C35.9208 35.5078 36.3935 35.0224 36.5638 34.7839C37.0492 34.0302 37.7901 32.6975 37.6453 32.7741C37.5815 32.821 37.0961 33.1361 36.5766 33.498C35.5887 34.158 35.2566 34.2517 34.9756 33.9706C34.5668 33.5619 34.7882 33.1062 35.8996 32.0375C37.1386 30.8452 37.8455 30.4066 38.2372 30.577C38.3777 30.6408 38.7226 30.7005 38.9909 30.7005C39.6977 30.7175 39.6977 31.1263 38.927 32.5357C38.5651 33.1786 38.2841 33.745 38.2841 33.7748C38.2841 33.8216 38.5182 33.6981 38.8163 33.5235C40.528 32.442 41.5031 32.2206 41.4861 32.9104C41.4861 33.1616 41.2987 33.3191 40.5451 33.664C40.0426 33.9153 39.0377 34.4944 38.3479 34.95C37.2195 35.6866 36.9513 35.9549 36.1337 37.1173C35.065 38.6247 33.7024 39.9915 33.2766 39.9915C33.102 39.9915 32.9147 39.851 32.821 39.6636C32.6933 39.3826 32.7443 39.208 33.0552 38.6289" fill="white"/>
<path d="M46.2037 31.9906C47.1788 30.6238 47.5535 30.2023 47.7749 30.2023C48.2476 30.2023 48.2305 30.6408 47.7451 31.3307C47.2427 32.0205 47.2597 32.0545 47.9027 31.6585C48.8139 31.1092 49.4867 31.3903 49.393 32.2887C49.3291 32.7614 49.3462 32.7614 49.6144 32.5697C51.1388 31.4712 51.5944 31.237 52.0628 31.2668C52.6589 31.3136 52.7526 31.6457 52.4247 32.5995C52.1267 33.4639 52.2501 33.5746 53.3359 33.3532C53.9789 33.2127 54.2301 33.2127 54.3706 33.3362C54.9497 33.8046 54.1364 34.3113 52.7994 34.3113C51.6838 34.3113 51.3858 34.0771 51.3389 33.1957L51.2921 32.5059L50.317 33.2595C48.7798 34.4688 48.7458 34.4859 48.3711 34.3879C47.9453 34.2772 47.9155 33.9323 48.2135 33.0679C48.3242 32.7528 48.3881 32.4888 48.337 32.4888C48.2135 32.4888 47.396 33.1148 46.4677 33.9153C45.7481 34.5284 45.2755 34.7328 45.0413 34.4944C44.773 34.2261 45.0583 33.63 46.2037 31.9821" fill="white"/>
<path d="M56.0616 35.1629C55.8274 34.7243 55.887 34.158 56.2659 33.3575C56.4533 32.9487 56.564 32.6336 56.5001 32.6507C56.4533 32.6805 56.0445 32.9487 55.6187 33.2298C54.7543 33.8089 54.1454 33.9366 53.924 33.5917C53.6728 33.2127 53.907 32.7103 54.8182 31.7224C56.0743 30.3726 57.2368 29.6828 57.6455 30.0873C57.7094 30.1342 57.9734 30.181 58.2587 30.181C59.0124 30.181 58.9953 30.5728 58.2119 31.782C57.4752 32.9104 56.8152 34.2773 56.9387 34.405C57.0792 34.5455 59.2636 33.3831 60.8178 32.3484C62.2953 31.3605 62.6998 31.22 62.8446 31.5947C63.0192 32.0673 61.2138 33.4001 58.5908 34.7499C57.1474 35.5036 56.3128 35.6313 56.0616 35.1587" fill="white"/>
<path d="M62.8276 32.3355C62.6062 32.6037 62.3081 33.0083 62.1974 33.2467L61.976 33.6683L62.4486 33.2126C62.7169 32.9614 62.9979 32.5527 63.0916 32.3014L63.2491 31.8458L62.8276 32.3312V32.3355ZM68.776 26.7617C68.8527 26.7617 68.9166 26.7788 68.9804 26.8256C69.2955 27.03 69.0911 27.5495 68.3077 28.4905C66.9579 30.1383 65.591 32.7443 64.5223 35.776C64.2881 36.4658 64.1135 37.1428 64.1603 37.2833C64.3179 37.8795 63.7047 38.3053 63.296 37.8965C62.9042 37.5047 63.2662 36.1081 64.4584 33.2978L64.9608 32.1354L64.0028 33.0636C62.7765 34.2729 61.7886 34.9925 61.3969 34.9925C61.0051 34.9925 60.7539 34.7413 60.7539 34.3197C60.7539 33.7875 61.5842 32.3568 62.4316 31.4796C63.0618 30.8367 63.2789 30.6791 63.6409 30.6791C63.9219 30.6791 64.1603 30.7728 64.2838 30.9601C64.4712 31.2284 64.518 31.1943 65.557 30.0958C66.1361 29.4656 66.9877 28.4947 67.4263 27.9284C68.0394 27.1279 68.461 26.766 68.776 26.766" fill="white"/>
<path d="M66.9408 34.3794C66.5788 33.6896 66.9237 32.6676 67.8349 31.7096C68.4481 31.0666 68.9633 30.7686 69.4998 30.7686C70.6793 30.7686 70.4111 32.212 69.1081 32.872C68.81 33.0296 68.4013 33.1531 68.2139 33.1531C67.9457 33.1531 67.8349 33.2297 67.7753 33.498C67.7285 33.7023 67.7583 33.9365 67.8392 34.0174C68.0904 34.2687 69.9129 33.9536 71.6714 33.3574C73.2427 32.8252 73.5876 32.8082 73.5876 33.2808C73.5876 33.894 70.8411 34.835 68.8484 34.9116C68.1117 34.9287 67.4347 34.9287 67.341 34.8818C67.2473 34.835 67.06 34.6136 66.9493 34.3794" fill="white"/>
<path d="M77.7093 34.3794C77.3474 33.6896 77.6923 32.6676 78.6035 31.7096C79.2167 31.0666 79.7319 30.7686 80.2684 30.7686C81.4479 30.7686 81.1796 32.212 79.8767 32.872C79.5786 33.0296 79.1698 33.1531 78.9825 33.1531C78.7142 33.1531 78.6035 33.2297 78.5439 33.498C78.4971 33.7023 78.5269 33.9365 78.6078 34.0174C78.859 34.2687 80.6814 33.9536 82.44 33.3574C84.0112 32.8252 84.3561 32.8082 84.3561 33.2808C84.3561 33.894 81.6097 34.835 79.6169 34.9116C78.8803 34.9287 78.2033 34.9287 78.1096 34.8818C78.0159 34.835 77.8285 34.6136 77.7178 34.3794" fill="white"/>
<path d="M85.4928 35.1629C85.2586 34.7243 85.3183 34.158 85.6972 33.3575C85.8846 32.9487 85.9953 32.6336 85.9314 32.6507C85.8846 32.6805 85.4758 32.9487 85.0543 33.2298C84.1899 33.8089 83.5767 33.9366 83.3596 33.5917C83.1083 33.2127 83.3425 32.7103 84.2537 31.7224C85.5099 30.3726 86.6723 29.6828 87.0811 30.0873C87.145 30.1342 87.409 30.181 87.6942 30.181C88.4479 30.181 88.4309 30.5728 87.6474 31.782C86.9108 32.9104 86.2508 34.2773 86.3743 34.405C86.5148 34.5455 88.6991 33.3831 90.2533 32.3484C91.7309 31.3605 92.1354 31.22 92.2801 31.5947C92.4547 32.0673 90.6493 33.4001 88.0264 34.7499C86.5829 35.5036 85.7483 35.6313 85.4971 35.1587" fill="white"/>
<path d="M89.3252 36.074C89.3252 35.8058 90.3301 34.8009 90.956 34.4432C91.2839 34.2388 91.5521 34.0515 91.5521 34.0174C91.5521 33.9706 91.4244 33.7832 91.2711 33.5959C90.9433 33.1701 90.9262 32.5739 91.2072 32.0119C91.4755 31.5094 93.0765 30.1767 93.877 29.7807C94.6605 29.4017 95.0863 29.5763 95.0225 30.2533C94.9756 30.6621 94.9288 30.6919 94.4732 30.6919C93.9068 30.7089 92.7444 31.4754 92.1653 32.229C91.897 32.608 91.8502 32.7613 91.9609 32.9657C92.276 33.5618 92.4336 33.5788 93.6556 33.0764C95.0821 32.4803 96.4191 32.1354 96.747 32.2461C97.028 32.3227 97.0748 32.7656 96.8236 32.9529C96.7299 33.0295 96.2445 33.2041 95.7421 33.3276C94.3284 33.7066 92.8551 34.4432 92.7444 34.835C92.557 35.4311 91.9907 36.0272 91.2541 36.4062C90.3727 36.8447 89.6701 36.8746 89.4657 36.4998C89.3891 36.3423 89.3252 36.1549 89.3252 36.074Z" fill="white"/>
<path d="M97.5345 36.3424C98.7268 35.1033 101.269 31.8842 101.162 31.7735C101.145 31.7437 100.677 31.9779 100.128 32.293C98.4628 33.2681 97.5686 33.4853 97.1428 33.0297C96.7681 32.6081 96.8745 32.1355 97.5516 31.0837C98.1477 30.1257 98.5565 29.8106 98.8716 30.0022C99.0589 30.1129 99.0461 30.7261 98.8545 30.8495C98.7779 30.8964 98.5267 31.1944 98.3052 31.5095C97.4877 32.6251 97.773 32.5783 100.081 31.2583C101.886 30.2236 102.559 30.0022 102.717 30.428C102.874 30.807 102.64 31.3094 101.729 32.6592C101.243 33.3831 100.864 33.9792 100.898 33.9792C100.932 33.9792 101.213 33.8387 101.495 33.6513C103.44 32.425 104.884 32.0035 104.978 32.6635C104.995 32.8849 104.726 33.0722 103.5 33.6684C101.303 34.7371 98.8205 36.4318 97.8496 37.5304C97.0789 38.3948 96.6105 38.6588 96.3125 38.3607C96.0442 38.0925 96.3423 37.607 97.5388 36.3509" fill="white"/>
</svg>
