<svg width="22" height="22" viewBox="0 0 22 22" fill="none" xmlns="http://www.w3.org/2000/svg">
<path d="M4.6248 8.127C4.83067 7.13232 5.68309 6.39325 6.69743 6.32848C7.9431 6.24983 9.01989 7.19824 9.09854 8.4439C9.12861 8.92043 9.01064 9.38654 8.75619 9.79019M5.55008 8.31899C5.66805 7.75226 6.15152 7.31043 6.75758 7.27226C7.48392 7.226 8.10965 7.7777 8.15591 8.50405C8.17442 8.79089 8.09924 9.06153 7.95697 9.28823M14.8908 13.4439L14.6896 13.149C14.331 12.625 14.4837 11.9068 15.025 11.5737C15.5501 11.251 16.2348 11.4187 16.5575 11.9438C19.6063 16.9091 21.0012 21 21.0012 21M12.987 14.5288L11.052 11.7715C10.7189 11.2961 10.0562 11.1943 9.59588 11.5471C9.16331 11.8779 9.06616 12.4885 9.37497 12.9373L11.1932 15.5836L6.92644 9.56234C6.55864 9.04303 5.82767 8.9424 5.33264 9.34374C4.88388 9.70807 4.79251 10.3581 5.12561 10.8323L10.35 18.275C10.638 18.6856 10.2586 19.2327 9.77284 19.1066L8.28892 18.7203C7.80199 18.5931 7.2954 18.8429 7.09762 19.3056C6.85936 19.8642 7.16123 20.5061 7.743 20.6785L8.82443 21M14.8897 13.4416L13.4728 11.3666C13.1154 10.8427 12.3891 10.7305 11.8894 11.1214C11.436 11.4765 11.3343 12.1231 11.657 12.5996L12.9859 14.5658M1.96229 7.53134V9.09045M20.1013 16.0012C20.5987 16.0012 21.0012 15.5987 21.0012 15.1013V1.90099C21.0012 1.40365 20.5987 1 20.1013 1H1.89984C1.40365 1 1 1.4025 1 1.90099V15.1013C1 15.5987 1.40365 16.0012 1.89984 16.0012H7.418L6.2371 14.3345H2.97664V2.66667H19.3345V14.3345" stroke="black" stroke-width="0.5" stroke-linecap="round" stroke-linejoin="round"/>
</svg>
