<svg width="97" height="98" viewBox="0 0 97 98" fill="none" xmlns="http://www.w3.org/2000/svg">
<path d="M48.4 57.7C43.1 57.7 38.8 53.4 38.8 48C38.8 42.6 43.1 38.3 48.4 38.3C53.7 38.3 58 42.6 58 48C58 53.4 53.7 57.7 48.4 57.7ZM48.4 40.4C44.2 40.4 40.8 43.8 40.8 48C40.8 52.2 44.2 55.6 48.4 55.6C52.6 55.6 56 52.2 56 48C56 43.8 52.6 40.4 48.4 40.4Z" fill="black"/>
<path d="M95.9 98H49.5C49.1 98 48.7 97.7 48.5 97.3L37.6 65.3C37.5 65 37.5 64.6 37.7 64.4C37.9 64.2 38.2 64 38.5 64H59C59.3 64 59.6 64.2 59.8 64.4C60 64.7 60 65 60 65.3L55.2 81.3C55 81.8 54.5 82.2 53.9 82C53.4 81.8 53.1 81.3 53.2 80.7L57.6 66H40L50.2 96H94.8V49L48.6 2.40001L2 49.4V82.2C2 82.8 1.5 83.2 1 83.2C0.4 83.2 0 82.7 0 82.2V49C0 48.7 0.0999999 48.5 0.3 48.3L48 0.3C48.4 -0.1 49 -0.1 49.4 0.3L96.6 47.8C96.8 48 96.9 48.3 96.9 48.5V97C96.9 97.6 96.4 98 95.9 98Z" fill="black"/>
</svg>
