<svg width="24" height="24" viewBox="0 0 24 24" fill="none" xmlns="http://www.w3.org/2000/svg">
<g clip-path="url(#clip0_1172_12715)">
<mask id="path-1-inside-1_1172_12715" fill="white">
<path d="M22.6498 12.3227H20.0213V12.1482C20.0209 11.8372 19.8972 11.539 19.6773 11.3191C19.4574 11.0991 19.1592 10.9754 18.8482 10.9751H15.8449C15.5342 10.9758 15.2365 11.0997 15.017 11.3196C14.7976 11.5395 14.6744 11.8375 14.6744 12.1482V12.3227H3.85735V3.67631C3.85783 3.12667 4.02114 2.58949 4.32666 2.13259C4.63219 1.67568 5.06623 1.31954 5.574 1.10912C6.08177 0.898692 6.6405 0.843422 7.17965 0.950284C7.71881 1.05715 8.21422 1.32135 8.60334 1.70954C8.78908 1.89922 8.94729 2.11402 9.07334 2.34767C8.50342 2.59203 8.03696 3.02809 7.75482 3.58028C7.47267 4.13247 7.39263 4.76598 7.52857 5.371C7.54157 5.42858 7.5658 5.48303 7.59989 5.53123C7.63397 5.57943 7.67723 5.62044 7.72719 5.65189C7.77714 5.68334 7.83282 5.70463 7.89101 5.71453C7.94921 5.72442 8.00879 5.72274 8.06634 5.70957L12.3557 4.73414C12.4133 4.72092 12.4677 4.69646 12.5159 4.66215C12.564 4.62784 12.605 4.58436 12.6363 4.53421C12.6676 4.48405 12.6887 4.42821 12.6984 4.36989C12.7081 4.31156 12.7061 4.2519 12.6927 4.19432C12.557 3.58511 12.2092 3.04394 11.7114 2.66746C11.2136 2.29097 10.5982 2.10366 9.9751 2.13898C9.79312 1.74406 9.54364 1.38391 9.23788 1.07474C8.7231 0.561181 8.06772 0.211645 7.35446 0.0702475C6.6412 -0.0711498 5.90203 0.00193068 5.23027 0.280264C4.55851 0.558598 3.98426 1.02971 3.58001 1.63412C3.17577 2.23854 2.95965 2.94917 2.95893 3.67631V12.3227H1.34947C1.00729 12.3242 0.678337 12.4551 0.428639 12.689C0.178941 12.923 0.0269811 13.2428 0.00326218 13.5841C-0.0204568 13.9255 0.0858207 14.2632 0.300762 14.5294C0.515703 14.7957 0.823398 14.9708 1.16208 15.0195V17.0561C1.16346 17.8947 1.37375 18.7196 1.77397 19.4565C2.17419 20.1933 2.75171 20.8188 3.45435 21.2764V22.3081C3.45435 22.6668 3.59687 23.0109 3.85056 23.2646C4.10426 23.5183 4.44834 23.6608 4.80711 23.6608C5.16589 23.6608 5.50997 23.5183 5.76367 23.2646C6.01736 23.0109 6.15988 22.6668 6.15988 22.3081V22.0917H6.19582H17.5519V22.3073C17.5519 22.6657 17.6943 23.0095 17.9477 23.2629C18.2012 23.5164 18.5449 23.6588 18.9034 23.6588C19.2618 23.6588 19.6056 23.5164 19.859 23.2629C20.1125 23.0095 20.2549 22.6657 20.2549 22.3073V21.453C21.0402 21.0192 21.6943 20.3821 22.1486 19.6085C22.603 18.8349 22.8408 17.9533 22.8372 17.0561V15.0195C23.1589 14.975 23.4537 14.8158 23.6673 14.5712C23.881 14.3266 23.9991 14.0131 24 13.6883V13.6755C24 13.3172 23.8578 12.9735 23.6047 12.7199C23.3516 12.4662 23.0081 12.3234 22.6498 12.3227ZM11.6634 3.96817L8.36205 4.71977C8.3784 4.33137 8.52234 3.95919 8.77157 3.66086C9.02081 3.36252 9.36145 3.15468 9.74074 3.06949H9.74485L9.7546 3.06795C9.7623 3.06795 9.77 3.0659 9.77771 3.06436C9.89052 3.0423 10.0052 3.03112 10.1201 3.03099C10.4384 3.03102 10.7505 3.11844 11.0224 3.2837C11.2944 3.44896 11.5157 3.68573 11.6623 3.96817H11.6634ZM15.5728 17.1357H19.1228V17.7826C19.1224 17.855 19.0932 17.9244 19.0417 17.9754C18.9902 18.0264 18.9206 18.0549 18.8482 18.0547H15.8449C15.7727 18.0546 15.7036 18.0259 15.6526 17.9749C15.6015 17.9239 15.5729 17.8547 15.5728 17.7826V17.1357ZM15.5728 12.1482C15.5725 12.0757 15.601 12.0061 15.652 11.9546C15.703 11.9031 15.7724 11.8739 15.8449 11.8735H18.8482C18.921 11.8737 18.9908 11.9026 19.0422 11.9541C19.0937 12.0056 19.1227 12.0754 19.1228 12.1482V16.2373H15.5728V12.1482ZM0.89769 13.6755C0.897485 13.5554 0.944935 13.4401 1.02963 13.3549C1.11433 13.2697 1.22935 13.2216 1.34947 13.2212H3.40044H3.40788C3.40788 13.2212 3.41276 13.2212 3.41533 13.2212H14.6744V14.1401H1.34947C1.28918 14.1397 1.22957 14.1273 1.17411 14.1036C1.11865 14.08 1.06845 14.0455 1.02642 14.0023C0.984382 13.9591 0.951357 13.9079 0.929259 13.8518C0.907161 13.7957 0.89643 13.7358 0.89769 13.6755ZM4.80711 22.7624C4.68666 22.7623 4.57117 22.7144 4.48599 22.6292C4.40082 22.544 4.3529 22.4285 4.35277 22.3081V21.7362C4.64644 21.8534 4.95075 21.9419 5.26146 22.0006V22.3086C5.26119 22.429 5.21322 22.5443 5.12805 22.6294C5.04289 22.7144 4.92748 22.7623 4.80711 22.7624ZM18.9021 22.7624C18.782 22.7619 18.6669 22.7138 18.5823 22.6287C18.4976 22.5435 18.4501 22.4282 18.4503 22.3081V22.0475C18.7581 22.0077 19.0615 21.939 19.3564 21.8422V22.3081C19.3563 22.4285 19.3084 22.544 19.2232 22.6292C19.138 22.7144 19.0225 22.7623 18.9021 22.7624ZM21.9388 17.0561C21.9402 18.1247 21.5274 19.1522 20.7872 19.9228C20.047 20.6935 19.037 21.1473 17.9693 21.1889C17.9136 21.1909 17.8594 21.193 17.8034 21.193H6.19582C6.05004 21.1935 5.90435 21.1858 5.75944 21.1699C5.18435 21.11 4.6286 20.9284 4.12919 20.637C3.50108 20.2735 2.97942 19.7514 2.61639 19.123C2.25336 18.4946 2.06167 17.7819 2.06051 17.0561V15.0385H14.6744V17.7826C14.6748 18.0929 14.7982 18.3904 15.0177 18.6098C15.2371 18.8292 15.5346 18.9527 15.8449 18.9531H18.8482C19.1589 18.9531 19.4569 18.8299 19.6768 18.6104C19.8967 18.391 20.0206 18.0933 20.0213 17.7826V15.0385H21.9388V17.0561ZM23.1016 13.6883C23.1014 13.8081 23.0538 13.9229 22.9691 14.0076C22.8844 14.0923 22.7696 14.14 22.6498 14.1401H20.0213V13.2212H22.6498C22.7699 13.2216 22.8849 13.2697 22.9696 13.3549C23.0543 13.4401 23.1018 13.5554 23.1016 13.6755V13.6883Z"/>
</mask>
<path d="M22.6498 12.3227H20.0213V12.1482C20.0209 11.8372 19.8972 11.539 19.6773 11.3191C19.4574 11.0991 19.1592 10.9754 18.8482 10.9751H15.8449C15.5342 10.9758 15.2365 11.0997 15.017 11.3196C14.7976 11.5395 14.6744 11.8375 14.6744 12.1482V12.3227H3.85735V3.67631C3.85783 3.12667 4.02114 2.58949 4.32666 2.13259C4.63219 1.67568 5.06623 1.31954 5.574 1.10912C6.08177 0.898692 6.6405 0.843422 7.17965 0.950284C7.71881 1.05715 8.21422 1.32135 8.60334 1.70954C8.78908 1.89922 8.94729 2.11402 9.07334 2.34767C8.50342 2.59203 8.03696 3.02809 7.75482 3.58028C7.47267 4.13247 7.39263 4.76598 7.52857 5.371C7.54157 5.42858 7.5658 5.48303 7.59989 5.53123C7.63397 5.57943 7.67723 5.62044 7.72719 5.65189C7.77714 5.68334 7.83282 5.70463 7.89101 5.71453C7.94921 5.72442 8.00879 5.72274 8.06634 5.70957L12.3557 4.73414C12.4133 4.72092 12.4677 4.69646 12.5159 4.66215C12.564 4.62784 12.605 4.58436 12.6363 4.53421C12.6676 4.48405 12.6887 4.42821 12.6984 4.36989C12.7081 4.31156 12.7061 4.2519 12.6927 4.19432C12.557 3.58511 12.2092 3.04394 11.7114 2.66746C11.2136 2.29097 10.5982 2.10366 9.9751 2.13898C9.79312 1.74406 9.54364 1.38391 9.23788 1.07474C8.7231 0.561181 8.06772 0.211645 7.35446 0.0702475C6.6412 -0.0711498 5.90203 0.00193068 5.23027 0.280264C4.55851 0.558598 3.98426 1.02971 3.58001 1.63412C3.17577 2.23854 2.95965 2.94917 2.95893 3.67631V12.3227H1.34947C1.00729 12.3242 0.678337 12.4551 0.428639 12.689C0.178941 12.923 0.0269811 13.2428 0.00326218 13.5841C-0.0204568 13.9255 0.0858207 14.2632 0.300762 14.5294C0.515703 14.7957 0.823398 14.9708 1.16208 15.0195V17.0561C1.16346 17.8947 1.37375 18.7196 1.77397 19.4565C2.17419 20.1933 2.75171 20.8188 3.45435 21.2764V22.3081C3.45435 22.6668 3.59687 23.0109 3.85056 23.2646C4.10426 23.5183 4.44834 23.6608 4.80711 23.6608C5.16589 23.6608 5.50997 23.5183 5.76367 23.2646C6.01736 23.0109 6.15988 22.6668 6.15988 22.3081V22.0917H6.19582H17.5519V22.3073C17.5519 22.6657 17.6943 23.0095 17.9477 23.2629C18.2012 23.5164 18.5449 23.6588 18.9034 23.6588C19.2618 23.6588 19.6056 23.5164 19.859 23.2629C20.1125 23.0095 20.2549 22.6657 20.2549 22.3073V21.453C21.0402 21.0192 21.6943 20.3821 22.1486 19.6085C22.603 18.8349 22.8408 17.9533 22.8372 17.0561V15.0195C23.1589 14.975 23.4537 14.8158 23.6673 14.5712C23.881 14.3266 23.9991 14.0131 24 13.6883V13.6755C24 13.3172 23.8578 12.9735 23.6047 12.7199C23.3516 12.4662 23.0081 12.3234 22.6498 12.3227ZM11.6634 3.96817L8.36205 4.71977C8.3784 4.33137 8.52234 3.95919 8.77157 3.66086C9.02081 3.36252 9.36145 3.15468 9.74074 3.06949H9.74485L9.7546 3.06795C9.7623 3.06795 9.77 3.0659 9.77771 3.06436C9.89052 3.0423 10.0052 3.03112 10.1201 3.03099C10.4384 3.03102 10.7505 3.11844 11.0224 3.2837C11.2944 3.44896 11.5157 3.68573 11.6623 3.96817H11.6634ZM15.5728 17.1357H19.1228V17.7826C19.1224 17.855 19.0932 17.9244 19.0417 17.9754C18.9902 18.0264 18.9206 18.0549 18.8482 18.0547H15.8449C15.7727 18.0546 15.7036 18.0259 15.6526 17.9749C15.6015 17.9239 15.5729 17.8547 15.5728 17.7826V17.1357ZM15.5728 12.1482C15.5725 12.0757 15.601 12.0061 15.652 11.9546C15.703 11.9031 15.7724 11.8739 15.8449 11.8735H18.8482C18.921 11.8737 18.9908 11.9026 19.0422 11.9541C19.0937 12.0056 19.1227 12.0754 19.1228 12.1482V16.2373H15.5728V12.1482ZM0.89769 13.6755C0.897485 13.5554 0.944935 13.4401 1.02963 13.3549C1.11433 13.2697 1.22935 13.2216 1.34947 13.2212H3.40044H3.40788C3.40788 13.2212 3.41276 13.2212 3.41533 13.2212H14.6744V14.1401H1.34947C1.28918 14.1397 1.22957 14.1273 1.17411 14.1036C1.11865 14.08 1.06845 14.0455 1.02642 14.0023C0.984382 13.9591 0.951357 13.9079 0.929259 13.8518C0.907161 13.7957 0.89643 13.7358 0.89769 13.6755ZM4.80711 22.7624C4.68666 22.7623 4.57117 22.7144 4.48599 22.6292C4.40082 22.544 4.3529 22.4285 4.35277 22.3081V21.7362C4.64644 21.8534 4.95075 21.9419 5.26146 22.0006V22.3086C5.26119 22.429 5.21322 22.5443 5.12805 22.6294C5.04289 22.7144 4.92748 22.7623 4.80711 22.7624ZM18.9021 22.7624C18.782 22.7619 18.6669 22.7138 18.5823 22.6287C18.4976 22.5435 18.4501 22.4282 18.4503 22.3081V22.0475C18.7581 22.0077 19.0615 21.939 19.3564 21.8422V22.3081C19.3563 22.4285 19.3084 22.544 19.2232 22.6292C19.138 22.7144 19.0225 22.7623 18.9021 22.7624ZM21.9388 17.0561C21.9402 18.1247 21.5274 19.1522 20.7872 19.9228C20.047 20.6935 19.037 21.1473 17.9693 21.1889C17.9136 21.1909 17.8594 21.193 17.8034 21.193H6.19582C6.05004 21.1935 5.90435 21.1858 5.75944 21.1699C5.18435 21.11 4.6286 20.9284 4.12919 20.637C3.50108 20.2735 2.97942 19.7514 2.61639 19.123C2.25336 18.4946 2.06167 17.7819 2.06051 17.0561V15.0385H14.6744V17.7826C14.6748 18.0929 14.7982 18.3904 15.0177 18.6098C15.2371 18.8292 15.5346 18.9527 15.8449 18.9531H18.8482C19.1589 18.9531 19.4569 18.8299 19.6768 18.6104C19.8967 18.391 20.0206 18.0933 20.0213 17.7826V15.0385H21.9388V17.0561ZM23.1016 13.6883C23.1014 13.8081 23.0538 13.9229 22.9691 14.0076C22.8844 14.0923 22.7696 14.14 22.6498 14.1401H20.0213V13.2212H22.6498C22.7699 13.2216 22.8849 13.2697 22.9696 13.3549C23.0543 13.4401 23.1018 13.5554 23.1016 13.6755V13.6883Z" fill="#171717" stroke="#171717" stroke-width="8" mask="url(#path-1-inside-1_1172_12715)"/>
</g>
<defs>
<clipPath id="clip0_1172_12715">
<rect width="24" height="24" fill="white"/>
</clipPath>
</defs>
</svg>
