<svg width="32" height="33" viewBox="0 0 32 33" fill="none" xmlns="http://www.w3.org/2000/svg">
<path d="M18.1763 4.24268C14.4567 4.24794 11.3604 7.10052 11.0492 10.807C7.93716 11.1339 5.64211 13.8735 5.7964 16.9882C5.7964 17.757 6.41969 18.3794 7.18851 18.3794H16.1662C17.0919 18.3873 17.6731 17.5247 17.5574 16.6524C17.553 13.6727 15.3229 11.1664 12.3642 10.8157C13.2864 3.5212 23.8307 4.05069 24.0183 11.3996V29.4461C24.0209 30.3008 25.3297 30.3096 25.3332 29.4461V11.3996C25.3288 7.44943 22.1273 4.24706 18.1763 4.24268ZM16.2425 16.6524C16.2205 16.7208 16.3029 17.0741 16.1662 17.0644H7.18851C6.58012 10.878 16.0776 10.2959 16.2425 16.6524Z" fill="#EDB842" stroke="#EDB842" stroke-width="0.2"/>
<path d="M8.66492 19.6548C7.79792 19.6785 8.03637 20.7155 8.00744 21.281C8.00744 21.6439 8.30199 21.9384 8.66492 21.9384C9.53192 21.9148 9.29347 20.8777 9.3224 20.3123C9.3224 19.9493 9.02785 19.6548 8.66492 19.6548Z" fill="#EDB842" stroke="#EDB842" stroke-width="0.2"/>
<path d="M11.6771 19.6548C10.8101 19.6785 11.0486 20.7155 11.0196 21.281C11.0196 21.6439 11.3142 21.9384 11.6771 21.9384C12.5441 21.9148 12.3057 20.8777 12.3346 20.3123C12.3346 19.9493 12.0401 19.6548 11.6771 19.6548Z" fill="#EDB842" stroke="#EDB842" stroke-width="0.2"/>
<path d="M14.6884 19.6548C13.8214 19.6785 14.0598 20.7155 14.0309 21.281C14.0309 21.6439 14.3254 21.9384 14.6884 21.9384C15.5554 21.9148 15.3169 20.8777 15.3458 20.3123C15.3458 19.9493 15.0513 19.6548 14.6884 19.6548Z" fill="#EDB842" stroke="#EDB842" stroke-width="0.2"/>
<path d="M9.3225 23.7477C9.32075 23.3857 9.02707 23.0938 8.66502 23.0938C7.79802 23.1174 8.03734 24.1554 8.00754 24.7208C8.00754 25.0837 8.30209 25.3783 8.66502 25.3783C9.53377 25.3555 9.29269 24.314 9.3225 23.7477Z" fill="#EDB842" stroke="#EDB842" stroke-width="0.2"/>
<path d="M12.3342 23.7477C12.3325 23.3857 12.0388 23.0938 11.6767 23.0938C10.8097 23.1174 11.0491 24.1554 11.0193 24.7208C11.0193 25.0837 11.3138 25.3783 11.6767 25.3783C12.5455 25.3555 12.3044 24.314 12.3342 23.7477Z" fill="#EDB842" stroke="#EDB842" stroke-width="0.2"/>
<path d="M15.3454 23.7477C15.3437 23.3857 15.05 23.0938 14.688 23.0938C13.821 23.1174 14.0603 24.1554 14.0305 24.7208C14.0305 25.0837 14.325 25.3783 14.688 25.3783C15.5567 25.3555 15.3156 24.314 15.3454 23.7477Z" fill="#EDB842" stroke="#EDB842" stroke-width="0.2"/>
</svg>
