<svg width="16" height="16" viewBox="0 0 16 16" fill="none" xmlns="http://www.w3.org/2000/svg">
<g clip-path="url(#clip0_1711_8193)">
<path d="M15.4634 6.58409C15.4636 6.57622 15.4651 6.56862 15.4651 6.56072C15.4651 4.83572 11.4811 3.90497 7.73253 3.90497C3.98394 3.90497 0 4.83569 0 6.56069C0 6.56366 0.000625014 6.5665 0.000625014 6.56947C-0.00218749 8.05472 0.545594 9.48831 1.53816 10.5932C1.79344 10.8705 2.07531 11.1221 2.37975 11.3444L1.07475 13.8458C0.97725 14.0338 0.9585 14.2529 1.02262 14.4547C1.08675 14.6566 1.22853 14.8247 1.41666 14.9219C1.52991 14.9811 1.65578 15.012 1.78359 15.012C2.08191 15.0123 2.35559 14.8466 2.4935 14.582L3.77969 12.1199C4.78687 12.5113 5.85203 12.7327 6.93178 12.7752V15.2C6.93178 15.6418 7.28994 16 7.73178 16C8.17359 16 8.53178 15.6418 8.53178 15.2V12.7752C9.56565 12.7327 10.5865 12.5284 11.557 12.1695C11.5976 12.1542 11.6371 12.1342 11.6775 12.118L12.9707 14.594C13.1085 14.8576 13.3809 15.0232 13.6784 15.024C13.8075 15.0227 13.9344 14.9911 14.0489 14.9315C14.4377 14.7249 14.5882 14.2441 14.3867 13.8526L13.0776 11.3476C14.5847 10.2292 15.4704 8.46087 15.4634 6.58409ZM7.73253 4.43828C11.9732 4.43828 14.9289 5.55569 14.9316 6.55928C14.9316 6.56412 14.9293 6.56831 14.9295 6.57319L14.9298 6.58175C14.889 7.58019 11.9455 8.68309 7.7325 8.68309C3.48991 8.68309 0.533281 7.56459 0.533281 6.56069C0.533281 5.55678 3.48997 4.43828 7.73253 4.43828ZM2.02056 14.3354C1.9535 14.4649 1.79447 14.516 1.66456 14.4497C1.60078 14.4178 1.55259 14.3615 1.53094 14.2935C1.50928 14.2256 1.51603 14.1517 1.54959 14.0888L2.82591 11.6424C2.97622 11.7337 3.13187 11.8195 3.29287 11.9001L2.02056 14.3354ZM7.99844 15.2C7.99844 15.3473 7.87906 15.4667 7.73178 15.4667C7.5845 15.4667 7.46512 15.3473 7.46512 15.2V11.7333C7.46512 11.5861 7.5845 11.4667 7.73178 11.4667C7.87906 11.4667 7.99844 11.5861 7.99844 11.7333V15.2ZM13.9139 14.0992C13.9823 14.2282 13.9336 14.3882 13.8051 14.4573C13.7427 14.493 13.6684 14.5012 13.5997 14.4801C13.5311 14.459 13.4742 14.4104 13.4427 14.3458L12.1648 11.8993C12.297 11.8334 12.4288 11.7664 12.5567 11.6919C12.5673 11.6857 12.5774 11.6787 12.587 11.6711C12.602 11.6622 12.6158 11.6527 12.6307 11.6437L13.9139 14.0992ZM12.2876 11.2284C12.2777 11.2343 12.2682 11.2408 12.2591 11.2479C11.9731 11.4127 11.6743 11.5543 11.3658 11.6716C10.4563 12.0072 9.50028 12.1994 8.53178 12.2413V11.7333C8.53178 11.2915 8.17359 10.9333 7.73178 10.9333C7.28997 10.9333 6.93178 11.2915 6.93178 11.7333V12.2367C4.72478 12.1075 3.04137 11.4399 1.93672 10.2388C1.28578 9.51722 0.842062 8.63306 0.652531 7.67991C1.93294 8.68434 4.89931 9.2164 7.73253 9.2164C10.5656 9.2164 13.5317 8.68444 14.8123 7.68012C14.521 9.17131 13.6009 10.4644 12.2876 11.2284Z" fill="#171717"/>
<path d="M1.79533 7.19225C1.88777 7.21681 1.9863 7.18997 2.05352 7.12191L3.38686 5.78856C3.4369 5.73856 3.46499 5.67075 3.46499 5.60003C3.46499 5.52931 3.4369 5.4615 3.38686 5.4115C3.33686 5.36147 3.26905 5.33337 3.19833 5.33337C3.12761 5.33337 3.05977 5.36147 3.0098 5.4115L1.67646 6.74484C1.6084 6.81206 1.58155 6.91059 1.60611 7.00303C1.63068 7.09547 1.70286 7.16766 1.79533 7.19225Z" fill="#171717"/>
<path d="M2.67301 7.53637C2.69757 7.6288 2.76979 7.70102 2.86223 7.72559C2.95467 7.75015 3.0532 7.7233 3.12041 7.65524L5.25376 5.5219C5.30379 5.4719 5.33188 5.40409 5.33188 5.33337C5.33188 5.26265 5.30379 5.19484 5.25376 5.14484C5.20376 5.09481 5.13595 5.06671 5.06523 5.06671C4.99451 5.06671 4.9267 5.09481 4.8767 5.14484L2.74335 7.27818C2.67529 7.3454 2.64845 7.44393 2.67301 7.53637Z" fill="#171717"/>
<path d="M4.00602 7.80302C4.03058 7.89545 4.1028 7.96767 4.19524 7.99224C4.28767 8.0168 4.3862 7.98995 4.45342 7.92189L7.12008 5.25524C7.17011 5.20524 7.1982 5.13742 7.1982 5.06671C7.1982 4.99599 7.17011 4.92817 7.12008 4.87817C7.07008 4.82814 7.00227 4.80005 6.93155 4.80005C6.86083 4.80005 6.79302 4.82814 6.74302 4.87817L4.07636 7.54483C4.0083 7.61205 3.98145 7.71058 4.00602 7.80302Z" fill="#171717"/>
<path d="M5.33951 8.06971C5.36408 8.16214 5.43629 8.23436 5.52873 8.25892C5.62117 8.28349 5.7197 8.25664 5.78692 8.18858L8.72026 5.25524C8.77029 5.20524 8.79839 5.13742 8.79839 5.06671C8.79839 4.99599 8.77029 4.92817 8.72026 4.87817C8.67026 4.82814 8.60245 4.80005 8.53173 4.80005C8.46101 4.80005 8.3932 4.82814 8.3432 4.87817L5.40986 7.81152C5.34179 7.8787 5.31495 7.97724 5.33951 8.06971Z" fill="#171717"/>
<path d="M6.93961 8.06968C6.96417 8.16212 7.03639 8.23434 7.12883 8.2589C7.22127 8.28346 7.3198 8.25662 7.38702 8.18855L10.0537 5.5219C10.1037 5.4719 10.1318 5.40409 10.1318 5.33337C10.1318 5.26265 10.1037 5.19484 10.0537 5.14484C10.0037 5.09481 9.93586 5.06671 9.86514 5.06671C9.79442 5.06671 9.72661 5.09481 9.67661 5.14484L7.00995 7.81149C6.94189 7.87868 6.91505 7.97721 6.93961 8.06968Z" fill="#171717"/>
<path d="M8.53971 8.06969C8.56427 8.16212 8.63649 8.23434 8.72893 8.25891C8.82136 8.28347 8.91989 8.25662 8.98711 8.18856L11.3871 5.78856C11.4371 5.73856 11.4652 5.67075 11.4652 5.60003C11.4652 5.52931 11.4371 5.4615 11.3871 5.4115C11.3371 5.36147 11.2693 5.33337 11.1986 5.33337C11.1279 5.33337 11.06 5.36147 11.0101 5.4115L8.61005 7.8115C8.54199 7.87869 8.51515 7.97722 8.53971 8.06969Z" fill="#171717"/>
<path d="M10.4064 7.80303C10.431 7.89547 10.5032 7.96769 10.5956 7.99225C10.6881 8.01681 10.7866 7.98997 10.8538 7.9219L12.9872 5.78856C13.0372 5.73856 13.0653 5.67075 13.0653 5.60003C13.0653 5.52931 13.0372 5.4615 12.9872 5.4115C12.9372 5.36147 12.8693 5.33337 12.7986 5.33337C12.7279 5.33337 12.6601 5.36147 12.6101 5.4115L10.4768 7.54484C10.4087 7.61206 10.3818 7.71059 10.4064 7.80303Z" fill="#171717"/>
<path d="M12.2721 7.5366C12.2966 7.62926 12.3689 7.7016 12.4616 7.72613C12.5542 7.75066 12.6529 7.72357 12.7201 7.65519L13.7867 6.58854C13.8551 6.52138 13.8822 6.4227 13.8577 6.33007C13.8331 6.23741 13.7608 6.16507 13.6681 6.14054C13.5755 6.11601 13.4768 6.1431 13.4097 6.21148L12.343 7.27813C12.2746 7.34529 12.2476 7.44395 12.2721 7.5366Z" fill="#171717"/>
<path d="M5.84619 2.22371C6.01022 2.41967 6.01029 2.70502 5.84632 2.90105L5.73929 3.02892C5.67816 3.10196 5.66063 3.20205 5.69332 3.29152C5.72601 3.38099 5.80394 3.44621 5.89776 3.46261C5.99157 3.47902 6.08701 3.44414 6.14813 3.37111L6.25529 3.24324C6.58347 2.85146 6.58544 2.2813 6.25997 1.88724L6.25476 1.88074C6.09057 1.6848 6.09057 1.39933 6.25476 1.20339L6.89501 0.437769C6.95613 0.364675 6.97363 0.26455 6.94091 0.175081C6.90819 0.0856125 6.83022 0.0203937 6.73635 0.00398745C6.64247 -0.0124188 6.54704 0.0225187 6.48591 0.0955812L5.84569 0.861206C5.51735 1.25305 5.51544 1.82342 5.84113 2.21746L5.84619 2.22371Z" fill="#171717"/>
<path d="M7.44632 2.22372C7.61035 2.41969 7.61042 2.70503 7.44645 2.90106L7.33942 3.02894C7.27829 3.10197 7.26076 3.20206 7.29345 3.29153C7.32614 3.381 7.40407 3.44622 7.49788 3.46263C7.5917 3.47903 7.68713 3.44416 7.74826 3.37113L7.85542 3.24325C8.1836 2.85147 8.18557 2.28131 7.8601 1.88725L7.85489 1.88075C7.6907 1.68481 7.6907 1.39934 7.85489 1.20341L8.49513 0.437782C8.58963 0.324813 8.57464 0.156626 8.46167 0.0621257C8.3487 -0.0323743 8.18051 -0.0173743 8.08601 0.0955944L7.44579 0.861219C7.11745 1.25306 7.11554 1.82344 7.44123 2.21747L7.44632 2.22372Z" fill="#171717"/>
<path d="M9.04639 2.22372C9.21042 2.41969 9.21048 2.70503 9.04651 2.90106L8.93948 3.02894C8.84498 3.14184 8.85992 3.30997 8.97283 3.40447C9.08573 3.49897 9.25386 3.48403 9.34836 3.37113L9.45551 3.24325C9.7837 2.85147 9.78567 2.28131 9.4602 1.88725L9.45498 1.88075C9.2908 1.68481 9.2908 1.39934 9.45498 1.20341L10.0952 0.437782C10.1897 0.324813 10.1747 0.156626 10.0618 0.0621257C9.94879 -0.0323743 9.78061 -0.0173743 9.68611 0.0955944L9.04589 0.861219C8.71755 1.25306 8.71564 1.82344 9.04133 2.21747L9.04639 2.22372Z" fill="#171717"/>
</g>
<defs>
<clipPath id="clip0_1711_8193">
<rect width="16" height="16" fill="white"/>
</clipPath>
</defs>
</svg>
