<svg width="24" height="24" viewBox="0 0 24 24" fill="none" xmlns="http://www.w3.org/2000/svg">
<path d="M19.9062 9.53488H19.5625V6.74419C19.5614 5.7814 18.7925 5.00113 17.8438 5H6.15625C5.2075 5.00113 4.43862 5.7814 4.4375 6.74419V9.53488H4.09375C2.386 9.53698 1.00206 10.9414 1 12.6744V17.5581H1.6875V20H3.40625V17.5581H20.5938V20H22.3125V17.5581H23V12.6744C22.9979 10.9414 21.614 9.53698 19.9062 9.53488ZM5.125 6.74419C5.125 6.16621 5.5867 5.69767 6.15625 5.69767H17.8438C18.4133 5.69767 18.875 6.16621 18.875 6.74419V9.53488H17.8438V8.13953C17.8438 7.56156 17.3821 7.09302 16.8125 7.09302H13.7188C13.1492 7.09302 12.6875 7.56156 12.6875 8.13953V9.53488H11.3125V8.13953C11.3125 7.56156 10.8508 7.09302 10.2812 7.09302H7.1875C6.61795 7.09302 6.15625 7.56156 6.15625 8.13953V9.53488H5.125V6.74419ZM17.1562 8.13953V9.53488H13.375V8.13953C13.375 7.94689 13.5289 7.7907 13.7188 7.7907H16.8125C17.0023 7.7907 17.1562 7.94689 17.1562 8.13953ZM10.625 8.13953V9.53488H6.84375V8.13953C6.84375 7.94689 6.99766 7.7907 7.1875 7.7907H10.2812C10.4711 7.7907 10.625 7.94689 10.625 8.13953ZM2.71875 19.3023H2.375V17.5581H2.71875V19.3023ZM21.625 19.3023H21.2812V17.5581H21.625V19.3023ZM22.3125 16.8605H1.6875V15.1163H22.3125V16.8605ZM22.3125 14.4186H1.6875V12.6744C1.689 11.3265 2.76546 10.2341 4.09375 10.2326H19.9062C21.2345 10.2341 22.311 11.3265 22.3125 12.6744V14.4186Z" fill="#171717" stroke="#00634F" stroke-width="0.2"/>
</svg>
