<svg width="16" height="16" viewBox="0 0 16 16" fill="none" xmlns="http://www.w3.org/2000/svg">
<path d="M4.3335 14.6667V10" stroke="#00634F" stroke-width="1.5" stroke-miterlimit="10" stroke-linecap="round" stroke-linejoin="round"/>
<path d="M4.3335 3.33337V1.33337" stroke="#00634F" stroke-width="1.5" stroke-miterlimit="10" stroke-linecap="round" stroke-linejoin="round"/>
<path d="M11.6665 14.6666V12.6666" stroke="#00634F" stroke-width="1.5" stroke-miterlimit="10" stroke-linecap="round" stroke-linejoin="round"/>
<path d="M11.6665 6.00004V1.33337" stroke="#00634F" stroke-width="1.5" stroke-miterlimit="10" stroke-linecap="round" stroke-linejoin="round"/>
<path d="M6.3335 4.66671V8.66671C6.3335 9.40004 6.00016 10 5.00016 10H3.66683C2.66683 10 2.3335 9.40004 2.3335 8.66671V4.66671C2.3335 3.93337 2.66683 3.33337 3.66683 3.33337H5.00016C6.00016 3.33337 6.3335 3.93337 6.3335 4.66671Z" stroke="#00634F" stroke-width="1.5" stroke-miterlimit="10" stroke-linecap="round" stroke-linejoin="round"/>
<path d="M13.6665 7.33333V11.3333C13.6665 12.0667 13.3332 12.6667 12.3332 12.6667H10.9998C9.99984 12.6667 9.6665 12.0667 9.6665 11.3333V7.33333C9.6665 6.6 9.99984 6 10.9998 6H12.3332C13.3332 6 13.6665 6.6 13.6665 7.33333Z" stroke="#00634F" stroke-width="1.5" stroke-miterlimit="10" stroke-linecap="round" stroke-linejoin="round"/>
</svg>
