<svg width="16" height="16" viewBox="0 0 16 16" fill="none" xmlns="http://www.w3.org/2000/svg">
<g clip-path="url(#clip0_1711_8222)">
<path d="M0.532861 10.0825V15.2001C0.532861 15.4123 0.617133 15.6157 0.767139 15.7657C0.917145 15.9157 1.1206 16 1.33274 16H14.664C14.8762 16 15.0796 15.9157 15.2296 15.7657C15.3796 15.6157 15.4639 15.4123 15.4639 15.2001V10.0825C15.6284 10.026 15.7698 9.91697 15.8662 9.77216C15.9394 9.66037 15.9834 9.53205 15.9942 9.39889C16.005 9.26574 15.9822 9.132 15.9281 9.00988L15.334 7.67675C15.2714 7.53556 15.1692 7.41553 15.0398 7.33117C14.9104 7.24681 14.7593 7.20172 14.6048 7.20136H9.11287L8.83158 6.93873L9.19232 5.61174C9.80598 5.33823 10.3071 4.86233 10.612 4.26362C10.9168 3.66491 11.0069 2.97969 10.867 2.32254C10.7272 1.6654 10.366 1.07618 9.84387 0.653425C9.32171 0.230667 8.67023 0 7.99837 0C7.32652 0 6.67504 0.230667 6.15287 0.653425C5.63071 1.07618 5.26952 1.6654 5.1297 2.32254C4.98989 2.97969 5.07993 3.66491 5.38477 4.26362C5.68961 4.86233 6.19077 5.33823 6.80443 5.61174L7.16517 6.93873L6.88388 7.20136H1.39193C1.2375 7.20177 1.08649 7.24688 0.95714 7.33124C0.827787 7.4156 0.72562 7.5356 0.662974 7.67675L0.0681323 9.00988C0.0142801 9.13187 -0.00822111 9.26538 0.00267526 9.39828C0.0135716 9.53118 0.0575198 9.65924 0.130523 9.77083C0.226715 9.91614 0.368124 10.0257 0.532861 10.0825ZM1.06611 15.2001V10.1342H3.86701C3.85656 10.1741 3.85065 10.2149 3.84942 10.2561C3.84794 10.3277 3.861 10.3988 3.88781 10.4652C3.91462 10.5316 3.95462 10.5919 4.00539 10.6424L4.3536 10.9906C4.40458 11.0416 4.46535 11.0818 4.53224 11.1088V15.4667H1.33274C1.26202 15.4667 1.19421 15.4387 1.1442 15.3887C1.0942 15.3387 1.06611 15.2708 1.06611 15.2001ZM11.6143 10.2654L11.2677 10.612L8.18048 7.73088C8.13109 7.68469 8.06599 7.659 7.99837 7.659C7.93075 7.659 7.86566 7.68469 7.81627 7.73088L4.73035 10.6142L4.38373 10.2676L7.91679 6.96699C7.93897 6.94642 7.96811 6.93499 7.99837 6.93499C8.02863 6.93499 8.05778 6.94642 8.07996 6.96699L11.6143 10.2654ZM9.06488 15.4667H8.265V12.8005H8.79825C8.86896 12.8005 8.93678 12.8286 8.98678 12.8786C9.03679 12.9286 9.06488 12.9964 9.06488 13.0671V15.4667ZM7.73175 15.4667H6.93187V13.0671C6.93187 12.9964 6.95996 12.9286 7.00996 12.8786C7.05997 12.8286 7.12778 12.8005 7.1985 12.8005H7.73175V15.4667ZM9.59813 15.4667V13.0671C9.59813 12.855 9.51385 12.6515 9.36385 12.5015C9.21384 12.3515 9.01039 12.2672 8.79825 12.2672H7.1985C6.98636 12.2672 6.78291 12.3515 6.6329 12.5015C6.48289 12.6515 6.39862 12.855 6.39862 13.0671V15.4667H5.06549V11.025C5.07509 11.0173 5.08522 11.0114 5.09429 11.0029L7.99837 8.29052L10.9022 11.0029C10.9113 11.0114 10.9217 11.0176 10.9313 11.0253V15.4667H9.59813ZM14.664 15.4667H11.4645V11.1082C11.5315 11.0814 11.5924 11.0414 11.6434 10.9904L11.99 10.6438C12.0407 10.5933 12.0807 10.533 12.1074 10.4667C12.1342 10.4003 12.1472 10.3292 12.1457 10.2577C12.1456 10.2161 12.1407 10.1747 12.1311 10.1342H14.9306V15.2001C14.9306 15.2708 14.9025 15.3387 14.8525 15.3887C14.8025 15.4387 14.7347 15.4667 14.664 15.4667ZM14.6048 7.73461C14.6563 7.73505 14.7066 7.75039 14.7495 7.77878C14.7925 7.80717 14.8263 7.84739 14.8469 7.89458L15.4407 9.22771C15.4584 9.26822 15.4657 9.31248 15.462 9.35652C15.4584 9.40056 15.4438 9.44299 15.4197 9.48001C15.3955 9.51702 15.3626 9.54746 15.3237 9.56858C15.2849 9.5897 15.2415 9.60083 15.1973 9.60099H11.6839L9.68425 7.73461H14.6048ZM5.59874 2.93535C5.59874 2.46075 5.73948 1.9968 6.00316 1.60219C6.26683 1.20757 6.6416 0.900004 7.08008 0.718382C7.51855 0.53676 8.00104 0.489239 8.46652 0.581829C8.932 0.674419 9.35957 0.902962 9.69517 1.23856C10.0308 1.57415 10.2593 2.00172 10.3519 2.46721C10.4445 2.93269 10.397 3.41517 10.2153 3.85365C10.0337 4.29212 9.72615 4.66689 9.33154 4.93057C8.93692 5.19424 8.47298 5.33498 7.99837 5.33498C7.36217 5.33427 6.75222 5.08123 6.30236 4.63137C5.85249 4.1815 5.59945 3.57156 5.59874 2.93535ZM7.99837 5.86823C8.19539 5.86819 8.3919 5.84836 8.58495 5.80904L8.38765 6.53479C8.27495 6.45054 8.13802 6.40501 7.99731 6.40501C7.8566 6.40501 7.71967 6.45054 7.60697 6.53479L7.40967 5.80904C7.60341 5.8485 7.80065 5.86833 7.99837 5.86823ZM0.555524 9.22771L1.1501 7.89458C1.17068 7.84743 1.20446 7.80724 1.24737 7.77885C1.29028 7.75046 1.34048 7.7351 1.39193 7.73461H6.3125L4.31281 9.60099H0.799486C0.755204 9.60101 0.711613 9.59 0.672651 9.56896C0.633688 9.54791 0.600581 9.5175 0.576317 9.48045C0.552054 9.44341 0.537399 9.40091 0.533675 9.35678C0.529952 9.31266 0.537278 9.2683 0.55499 9.22771H0.555524Z" fill="#171717"/>
<path d="M8.53139 9.86761H7.46489C7.32346 9.86761 7.18783 9.9238 7.08783 10.0238C6.98782 10.1238 6.93164 10.2594 6.93164 10.4009V11.2007C6.93164 11.3422 6.98782 11.4778 7.08783 11.5778C7.18783 11.6778 7.32346 11.734 7.46489 11.734H8.53139C8.67282 11.734 8.80846 11.6778 8.90846 11.5778C9.00846 11.4778 9.06464 11.3422 9.06464 11.2007V10.4009C9.06464 10.2594 9.00846 10.1238 8.90846 10.0238C8.80846 9.9238 8.67282 9.86761 8.53139 9.86761ZM7.46489 11.2007V10.4009H8.53139V11.2007H7.46489Z" fill="#171717"/>
<path d="M3.19934 10.6675H2.39946C2.25803 10.6675 2.1224 10.7237 2.0224 10.8237C1.92239 10.9237 1.86621 11.0593 1.86621 11.2007V12.0006C1.86621 12.142 1.92239 12.2777 2.0224 12.3777C2.1224 12.4777 2.25803 12.5339 2.39946 12.5339H3.19934C3.34077 12.5339 3.4764 12.4777 3.5764 12.3777C3.67641 12.2777 3.73259 12.142 3.73259 12.0006V11.2007C3.73259 11.0593 3.67641 10.9237 3.5764 10.8237C3.4764 10.7237 3.34077 10.6675 3.19934 10.6675ZM2.39946 12.0006V11.2007H3.19934V12.0006H2.39946Z" fill="#171717"/>
<path d="M3.19934 13.0671H2.39946C2.25803 13.0671 2.1224 13.1233 2.0224 13.2233C1.92239 13.3233 1.86621 13.459 1.86621 13.6004V14.4003C1.86621 14.5417 1.92239 14.6773 2.0224 14.7773C2.1224 14.8773 2.25803 14.9335 2.39946 14.9335H3.19934C3.34077 14.9335 3.4764 14.8773 3.5764 14.7773C3.67641 14.6773 3.73259 14.5417 3.73259 14.4003V13.6004C3.73259 13.459 3.67641 13.3233 3.5764 13.2233C3.4764 13.1233 3.34077 13.0671 3.19934 13.0671ZM2.39946 14.4003V13.6004H3.19934V14.4003H2.39946Z" fill="#171717"/>
<path d="M13.5973 10.6675H12.7974C12.656 10.6675 12.5203 10.7237 12.4203 10.8237C12.3203 10.9237 12.2642 11.0593 12.2642 11.2007V12.0006C12.2642 12.142 12.3203 12.2777 12.4203 12.3777C12.5203 12.4777 12.656 12.5339 12.7974 12.5339H13.5973C13.7387 12.5339 13.8743 12.4777 13.9744 12.3777C14.0744 12.2777 14.1305 12.142 14.1305 12.0006V11.2007C14.1305 11.0593 14.0744 10.9237 13.9744 10.8237C13.8743 10.7237 13.7387 10.6675 13.5973 10.6675ZM12.7974 12.0006V11.2007H13.5973V12.0006H12.7974Z" fill="#171717"/>
<path d="M13.5973 13.0671H12.7974C12.656 13.0671 12.5203 13.1233 12.4203 13.2233C12.3203 13.3233 12.2642 13.459 12.2642 13.6004V14.4003C12.2642 14.5417 12.3203 14.6773 12.4203 14.7773C12.5203 14.8773 12.656 14.9335 12.7974 14.9335H13.5973C13.7387 14.9335 13.8743 14.8773 13.9744 14.7773C14.0744 14.6773 14.1305 14.5417 14.1305 14.4003V13.6004C14.1305 13.459 14.0744 13.3233 13.9744 13.2233C13.8743 13.1233 13.7387 13.0671 13.5973 13.0671ZM12.7974 14.4003V13.6004H13.5973V14.4003H12.7974Z" fill="#171717"/>
<path d="M6.41284 2.6687H6.39844C6.36377 2.6688 6.32948 2.67581 6.29756 2.68933C6.26564 2.70285 6.23674 2.72261 6.21256 2.74744C6.18837 2.77227 6.16939 2.80168 6.15671 2.83394C6.14404 2.8662 6.13793 2.90067 6.13874 2.93533C6.14035 3.00683 6.16998 3.07484 6.22125 3.12471C6.27251 3.17458 6.34132 3.20232 6.41284 3.20195C6.48355 3.20195 6.55137 3.17386 6.60137 3.12386C6.65137 3.07386 6.67946 3.00604 6.67946 2.93533C6.67946 2.86461 6.65137 2.7968 6.60137 2.74679C6.55137 2.69679 6.48355 2.6687 6.41284 2.6687Z" fill="#171717"/>
<path d="M7.34758 2.58208L7.33478 2.58661C7.30227 2.59867 7.27249 2.61709 7.24717 2.64079C7.22186 2.66449 7.20152 2.693 7.18735 2.72465C7.17318 2.7563 7.16545 2.79045 7.16462 2.82512C7.1638 2.85979 7.16989 2.89427 7.18254 2.92656C7.20905 2.99274 7.26026 3.04602 7.32535 3.07512C7.39043 3.10423 7.46428 3.10689 7.53128 3.08253C7.59609 3.05703 7.64834 3.00718 7.67686 2.94364C7.70539 2.88011 7.70792 2.80794 7.68392 2.74256C7.65993 2.67718 7.6113 2.62379 7.54845 2.5938C7.48559 2.56381 7.4135 2.5596 7.34758 2.58208Z" fill="#171717"/>
<path d="M8.0611 3.75203L8.07337 3.75763C8.10764 3.77381 8.14505 3.78228 8.18295 3.78242C8.23368 3.78212 8.28326 3.76726 8.32579 3.73961C8.36833 3.71196 8.40204 3.67269 8.42291 3.62645C8.45184 3.56129 8.45409 3.48739 8.42917 3.4206C8.40424 3.35381 8.35414 3.29945 8.2896 3.26917C8.22578 3.24061 8.15329 3.23826 8.08775 3.26263C8.02221 3.28701 7.96887 3.33615 7.93922 3.39947C7.90957 3.46279 7.90598 3.53523 7.92923 3.60118C7.95247 3.66712 8.00069 3.7213 8.0635 3.75203H8.0611Z" fill="#171717"/>
<path d="M6.68867 3.86855L6.67881 3.87842C6.64267 3.91577 6.61836 3.96295 6.6089 4.01405C6.59945 4.06515 6.60527 4.11791 6.62565 4.16572C6.64602 4.21353 6.68004 4.25427 6.72346 4.28284C6.76687 4.31141 6.81774 4.32654 6.86971 4.32635C6.94304 4.32665 7.0135 4.29789 7.06568 4.24636C7.09049 4.22161 7.11017 4.19221 7.12362 4.15984C7.13707 4.12748 7.14401 4.09278 7.14404 4.05774C7.14408 4.02269 7.13721 3.98798 7.12384 3.95559C7.11046 3.9232 7.09083 3.89376 7.06608 3.86895C7.04132 3.84415 7.01193 3.82446 6.97956 3.81101C6.9472 3.79757 6.9125 3.79063 6.87746 3.79059C6.84241 3.79055 6.8077 3.79742 6.77531 3.81079C6.74292 3.82417 6.71348 3.8438 6.68867 3.86855Z" fill="#171717"/>
<path d="M8.26519 4.52071C8.26519 4.45 8.23709 4.38218 8.18709 4.33218C8.13709 4.28218 8.06927 4.25409 7.99856 4.25409C7.92785 4.25409 7.86003 4.28218 7.81003 4.33218C7.76002 4.38218 7.73193 4.45 7.73193 4.52071V4.53511C7.73203 4.56978 7.73904 4.60407 7.75256 4.63599C7.76609 4.66791 7.78584 4.69681 7.81067 4.72099C7.8355 4.74518 7.86491 4.76416 7.89717 4.77684C7.92944 4.78951 7.96391 4.79562 7.99856 4.79481C8.07006 4.7932 8.13807 4.76357 8.18794 4.7123C8.23781 4.66104 8.26555 4.59223 8.26519 4.52071Z" fill="#171717"/>
</g>
<defs>
<clipPath id="clip0_1711_8222">
<rect width="16" height="16" fill="white"/>
</clipPath>
</defs>
</svg>
