<svg width="16" height="16" viewBox="0 0 16 16" fill="none" xmlns="http://www.w3.org/2000/svg">
<path d="M12.8535 9.78667L10.1335 8.88V8.05333C10.4802 7.62667 10.7202 7.14667 10.8535 6.61333L11.6802 6C11.8935 5.84 12.0002 5.6 12.0002 5.36V5.09333C12.0002 4.64 11.6535 4.29333 11.2002 4.29333H10.9335V2.72L11.2802 1.46667C11.4135 1.04 11.1468 0.586667 10.7202 0.48C10.6935 0.48 10.6668 0.453333 10.6135 0.453333L7.7335 0L4.82683 0.453333C4.40016 0.533333 4.08016 0.933333 4.16016 1.36C4.16016 1.38667 4.16016 1.41333 4.18683 1.46667L4.5335 2.72V4.26667H4.26683C3.8135 4.26667 3.46683 4.61333 3.46683 5.06667V5.33333C3.46683 5.57333 3.5735 5.81333 3.78683 5.97333L4.6135 6.58667C4.74683 7.12 4.98683 7.62667 5.3335 8.02667V8.85333L2.6135 9.76C1.84016 10.0267 1.3335 10.72 1.3335 11.52V16H14.1335V11.5467C14.1335 10.7467 13.6268 10.0267 12.8535 9.78667ZM5.86683 8.56C5.8935 8.58667 5.92016 8.61333 5.9735 8.64L6.18683 8.8C6.56016 9.06667 7.0135 9.25333 7.4935 9.30667V10.5333L5.8935 9.73333V8.56H5.86683ZM8.00016 9.28C8.48016 9.22667 8.90683 9.06667 9.30683 8.77333L9.52016 8.61333C9.54683 8.58667 9.5735 8.56 9.62683 8.53333V9.68L8.02683 10.48L8.00016 9.28ZM10.4002 2.93333V3.46667H5.06683V2.93333H10.4002ZM10.1335 4C8.96016 5.33333 6.90683 5.44 5.60016 4.24C5.52016 4.16 5.44016 4.08 5.36016 4H10.1335ZM11.2002 4.8C11.3602 4.8 11.4668 4.90667 11.4668 5.06667V5.33333C11.4668 5.41333 11.4402 5.49333 11.3602 5.54667L10.9335 5.86667V5.84V4.8H11.2002ZM4.72016 1.09333C4.7735 1.04 4.82683 0.986667 4.90683 0.986667L7.7335 0.533333L10.5602 0.96C10.6935 0.986667 10.8002 1.12 10.7735 1.25333V1.28L10.4535 2.4H5.0135L4.6935 1.30667C4.66683 1.22667 4.66683 1.14667 4.72016 1.09333ZM4.10683 5.54667C4.02683 5.49333 4.00016 5.41333 4.00016 5.33333V5.06667C4.00016 4.90667 4.10683 4.8 4.26683 4.8H4.5335V5.84V5.86667L4.10683 5.54667ZM5.06683 4.48C6.50683 5.94667 8.88016 5.97333 10.3468 4.53333C10.3735 4.50667 10.3735 4.50667 10.4002 4.48V5.84C10.4002 6.77333 9.94683 7.65333 9.20016 8.21333L8.98683 8.37333C8.24016 8.90667 7.22683 8.90667 6.48016 8.37333L6.26683 8.21333C5.52016 7.65333 5.06683 6.77333 5.06683 5.84V4.48ZM1.86683 11.5467C1.86683 10.96 2.24016 10.4533 2.7735 10.2933L5.3335 9.44V10.0267L7.20016 10.96L6.66683 11.3067V15.4667H4.5335V13.0667H4.00016V15.4667H1.86683V11.5467ZM13.6002 15.4667H11.4668V13.0667H10.9335V15.4667H7.20016V11.6L7.86683 11.1467L10.1335 10.0267V9.44L12.6935 10.2933C13.2268 10.48 13.6002 10.9867 13.6002 11.5467V15.4667Z" fill="#171717"/>
<path d="M7.7334 13.3333H8.26673V13.8666H7.7334V13.3333Z" fill="#171717"/>
<path d="M7.7334 14.4H8.26673V14.9334H7.7334V14.4Z" fill="#171717"/>
<path d="M7.7334 12.2667H8.26673V12.8H7.7334V12.2667Z" fill="#171717"/>
<path d="M8.80029 12H10.9336V12.5333H8.80029V12Z" fill="#171717"/>
</svg>
