<svg width="24" height="24" viewBox="0 0 24 24" fill="none" xmlns="http://www.w3.org/2000/svg">
<path d="M13 20.1875C13 20.7656 12.5313 21.2343 11.9531 21.2343C11.375 21.2343 10.9062 20.7656 10.9062 20.1875C10.9062 19.6093 11.375 19.1406 11.9531 19.1406C12.5313 19.1406 13 19.6093 13 20.1875Z" fill="#171717" stroke="#171717"/>
<path d="M1.25755 8.0639L1.25753 8.06392C1.09284 8.24064 0.816006 8.25043 0.63916 8.08564C0.462467 7.9209 0.452737 7.64407 0.617419 7.46734C3.60456 4.26242 7.64456 2.50005 11.9998 2.5C16.3555 2.50005 20.3955 4.26243 23.3826 7.46733L23.7483 7.12643L23.3826 7.46734C23.5472 7.64401 23.5376 7.92079 23.3608 8.08563C23.2763 8.16439 23.17 8.20311 23.0627 8.20311C22.9446 8.20311 22.8286 8.15636 22.7424 8.06389C19.926 5.04207 16.1087 3.37505 12.0002 3.375C7.89126 3.37505 4.07397 5.04207 1.25755 8.0639Z" fill="#171717" stroke="#171717"/>
<path d="M19.9512 11.3502C17.7623 9.14483 14.9382 7.93961 12 7.9397C9.06103 7.93974 6.23695 9.14504 4.04882 11.3503C3.87862 11.5218 3.87971 11.7988 4.05122 11.969C4.22276 12.1392 4.49975 12.1381 4.66993 11.9666L5.02486 12.3188L4.66993 11.9666C6.67971 9.94108 9.28227 8.81474 12 8.81469C14.7171 8.8146 17.3196 9.94102 19.33 11.9666M19.9512 11.3502L18.9752 12.3189M19.9512 11.3502C20.1214 11.5217 20.1203 11.7987 19.9488 11.969M19.9512 11.3502L20.3011 12.3238M19.33 11.9666L18.9752 12.3189M19.33 11.9666C19.33 11.9666 19.33 11.9666 19.33 11.9666L18.9752 12.3189M19.33 11.9666C19.4157 12.0529 19.5273 12.0959 19.6406 12.0959C19.7526 12.0959 19.8633 12.0538 19.9488 11.969M18.9752 12.3189C19.1584 12.5035 19.3995 12.5959 19.6406 12.5959C19.8793 12.5959 20.1182 12.5053 20.3011 12.3238M19.9488 11.969L20.3011 12.3238M19.9488 11.969C19.9489 11.9689 19.9489 11.9689 19.9489 11.9689L20.3011 12.3238" fill="#171717" stroke="#171717"/>
<path d="M16.2019 15.236L16.2019 15.236C15.0679 14.1126 13.4433 13.4218 11.991 13.4218H11.991H11.991H11.991H11.991H11.991H11.991H11.991H11.991H11.991H11.991H11.991H11.991H11.991H11.991H11.991H11.991H11.991H11.991H11.991H11.991H11.991H11.991H11.9909H11.9909H11.9909H11.9909H11.9909H11.9909H11.9909H11.9909H11.9909H11.9909H11.9909H11.9909H11.9909H11.9909H11.9909H11.9909H11.9909H11.9909H11.9909H11.9909H11.9909H11.9909H11.9909H11.9909H11.9908H11.9908H11.9908H11.9908H11.9908H11.9908H11.9908H11.9908H11.9908H11.9908H11.9908H11.9908H11.9908H11.9908H11.9908H11.9908H11.9908H11.9908H11.9908H11.9908H11.9908H11.9908H11.9908H11.9907H11.9907H11.9907H11.9907H11.9907H11.9907H11.9907H11.9907H11.9907H11.9907H11.9907H11.9907H11.9907H11.9907H11.9907H11.9907H11.9907H11.9907H11.9907H11.9907H11.9907H11.9907H11.9906H11.9906H11.9906H11.9906H11.9906H11.9906H11.9906H11.9906H11.9906H11.9906H11.9906H11.9906H11.9906H11.9906H11.9906H11.9906H11.9906H11.9906H11.9906H11.9906H11.9906H11.9906H11.9906H11.9905H11.9905H11.9905H11.9905H11.9905H11.9905H11.9905H11.9905H11.9905H11.9905H11.9905H11.9905H11.9905H11.9905H11.9905H11.9905H11.9905H11.9905H11.9905H11.9905H11.9905H11.9905H11.9905H11.9905H11.9904H11.9904H11.9904H11.9904H11.9904H11.9904H11.9904H11.9904H11.9904H11.9904H11.9904H11.9904H11.9904H11.9904H11.9904H11.9904H11.9904H11.9904H11.9904H11.9904H11.9904H11.9904H11.9904H11.9904H11.9903H11.9903H11.9228H11.9228H11.9228H11.9228H11.9228H11.9228H11.9228H11.9228H11.9228H11.9228H11.9227H11.9227H11.9227H11.9227H11.9227H11.9227H11.9227H11.9227H11.9227H11.9227H11.9227H11.9227H11.9227H11.9227H11.9227H11.9227H11.9227H11.9227H11.9227H11.9227H11.9227H11.9227H11.9226H11.9226H11.9226H11.9226H11.9226H11.9226H11.9226H11.9226H11.9226H11.9226H11.9226H11.9226H11.9226H11.9226H11.9226H11.9226H11.9226H11.9226H11.9226H11.9226H11.9226H11.9226H11.9226H11.9226H11.9226H11.9225H11.9225H11.9225H11.9225H11.9225H11.9225H11.9225H11.9225H11.9225H11.9225H11.9225H11.9225H11.9225H11.9225H11.9225H11.9225H11.9225H11.9225H11.9225H11.9225H11.9225H11.9225H11.9225H11.9225H11.9225H11.9224H11.9224H11.9224H11.9224H11.9224H11.9224H11.9224H11.9224H11.9224H11.9224H11.9224H11.9224H11.9224H11.9224H11.9224H11.9224H11.9224H11.9224H11.9224H11.9224H11.9224H11.9224H11.9224H11.9224H11.9224H11.9223H11.9223H11.9223H11.9223H11.9223H11.9223H11.9223H11.9223H11.9223H11.9223H11.9223H11.9223H11.9223H11.9223H11.9223H11.9223H11.9223H11.9223H11.9223H11.9223H11.9223H11.9223H11.9223H11.9223H11.9223H11.9223H11.9222H11.9222H11.9222H11.9222H11.9222H11.9222H11.9222H11.9222H11.9222H11.9222H11.9222H11.9222H11.9222H11.9222H11.9222H11.9222H11.9222H11.9222H11.9222H11.9222H11.9222H11.9222H11.9222H11.9221H11.9221H11.9221H11.9221H11.9221H11.9221H11.9221H11.9221H11.9221H11.9221H11.9221H11.9221C10.4698 13.4218 8.84503 14.1126 7.71111 15.236L16.2019 15.236ZM16.2019 15.236C16.3736 15.4061 16.3748 15.6831 16.2048 15.8547L16.2047 15.8548M16.2019 15.236L16.2047 15.8548M16.2047 15.8548C16.0348 16.0264 15.7577 16.0277 15.586 15.8576C14.6354 14.9157 13.2396 14.2968 11.9909 14.2968H11.9909H11.9909H11.9909H11.9909H11.9909H11.9909H11.9909H11.9909H11.9909H11.9909H11.9909H11.9909H11.9909H11.9908H11.9908H11.9908H11.9908H11.9908H11.9908H11.9908H11.9908H11.9908H11.9908H11.9908H11.9908H11.9908H11.9908H11.9908H11.9908H11.9908H11.9908H11.9908H11.9908H11.9908H11.9908H11.9908H11.9908H11.9908H11.9907H11.9907H11.9907H11.9907H11.9907H11.9907H11.9907H11.9907H11.9907H11.9907H11.9907H11.9907H11.9907H11.9907H11.9907H11.9907H11.9907H11.9907H11.9907H11.9907H11.9907H11.9907H11.9907H11.9907H11.9907H11.9906H11.9906H11.9906H11.9906H11.9906H11.9906H11.9906H11.9906H11.9906H11.9906H11.9906H11.9906H11.9906H11.9906H11.9906H11.9906H11.9906H11.9906H11.9906H11.9906H11.9906H11.9906H11.9906H11.9906H11.9906H11.9905H11.9905H11.9905H11.9905H11.9905H11.9905H11.9905H11.9905H11.9905H11.9905H11.9905H11.9905H11.9905H11.9905H11.9905H11.9905H11.9905H11.9227H11.9227H11.9226H11.9226H11.9226H11.9226H11.9226H11.9226H11.9226H11.9226H11.9226H11.9226H11.9226H11.9226H11.9226H11.9226H11.9226H11.9226H11.9226H11.9226H11.9226H11.9226H11.9226H11.9226H11.9226H11.9226H11.9225H11.9225H11.9225H11.9225H11.9225H11.9225H11.9225H11.9225H11.9225H11.9225H11.9225H11.9225H11.9225H11.9225H11.9225H11.9225H11.9225H11.9225H11.9225H11.9225H11.9225H11.9225H11.9225H11.9225H11.9225H11.9225H11.9224H11.9224H11.9224H11.9224H11.9224H11.9224H11.9224H11.9224H11.9224H11.9224H11.9224H11.9224H11.9224H11.9224H11.9224H11.9224H11.9224H11.9224H11.9224H11.9224H11.9224H11.9224H11.9224H11.9224H11.9224H11.9224H11.9223H11.9223H11.9223H11.9223H11.9223H11.9223H11.9223H11.9223H11.9223H11.9223H11.9223H11.9223H11.9223H11.9223H11.9223H11.9223H11.9223H11.9223H11.9223H11.9223H11.9223H11.9223H11.9223H11.9223H11.9223H11.9222H11.9222H11.9222H11.9222H11.9222H11.9222H11.9222H11.9222H11.9222H11.9222H11.9222H11.9222H11.9222H11.9222H11.9222H11.9222C10.6733 14.2968 9.27764 14.9157 8.32691 15.8577C8.24152 15.9422 8.13107 15.9843 8.01905 15.9843C7.90569 15.9843 7.79393 15.9412 7.70825 15.8548L16.2047 15.8548ZM7.70822 15.8547C7.53819 15.6831 7.5395 15.4061 7.7111 15.236L7.70822 15.8547Z" fill="#171717" stroke="#171717"/>
</svg>
