<svg width="24" height="20" viewBox="0 0 24 20" fill="none" xmlns="http://www.w3.org/2000/svg">
<path d="M13 18.1875C13 18.7656 12.5313 19.2343 11.9531 19.2343C11.375 19.2343 10.9062 18.7656 10.9062 18.1875C10.9062 17.6093 11.375 17.1406 11.9531 17.1406C12.5313 17.1406 13 17.6093 13 18.1875Z" fill="#171717" stroke="#171717"/>
<path d="M0.617419 5.46734C3.60456 2.26242 7.64456 0.500045 11.9998 0.5C16.3555 0.500045 20.3955 2.26243 23.3826 5.46733C23.5473 5.64404 23.5376 5.92088 23.3608 6.0857C23.2762 6.16441 23.17 6.20311 23.0627 6.20311C22.9446 6.20311 22.8286 6.15637 22.7424 6.0639C19.926 3.04207 16.1087 1.37505 12.0002 1.375C7.89126 1.37505 4.07397 3.04207 1.25755 6.0639L1.25753 6.06392C1.09284 6.24064 0.816005 6.25043 0.63916 6.08564C0.462459 5.9209 0.452714 5.64407 0.617419 5.46734ZM0.617419 5.46734L0.251803 5.12656L0.617419 5.46734Z" fill="#171717" stroke="#171717"/>
<path d="M12 5.9397C14.9382 5.93961 17.7623 7.14483 19.9512 9.35024C20.1213 9.5217 20.1203 9.79865 19.9489 9.96887C19.8634 10.0537 19.7527 10.0959 19.6406 10.0959C19.5273 10.0959 19.4157 10.0529 19.33 9.96664C17.3196 7.94102 14.7171 6.8146 12 6.81469C9.28227 6.81474 6.67971 7.94108 4.66993 9.9666L5.02027 10.3142L4.66993 9.9666C4.49975 10.1381 4.22276 10.1392 4.05122 9.96899C3.87971 9.79882 3.87862 9.52182 4.04882 9.35029C6.23695 7.14504 9.06103 5.93974 12 5.9397Z" fill="#171717" stroke="#171717"/>
<path d="M16.2019 13.236L16.2019 13.236C15.0679 12.1126 13.4433 11.4218 11.991 11.4218H11.991H11.991H11.991H11.991H11.991H11.991H11.991H11.991H11.991H11.991H11.991H11.991H11.991H11.991H11.991H11.991H11.991H11.991H11.991H11.991H11.991H11.991H11.9909H11.9909H11.9909H11.9909H11.9909H11.9909H11.9909H11.9909H11.9909H11.9909H11.9909H11.9909H11.9909H11.9909H11.9909H11.9909H11.9909H11.9909H11.9909H11.9909H11.9909H11.9909H11.9909H11.9909H11.9908H11.9908H11.9908H11.9908H11.9908H11.9908H11.9908H11.9908H11.9908H11.9908H11.9908H11.9908H11.9908H11.9908H11.9908H11.9908H11.9908H11.9908H11.9908H11.9908H11.9908H11.9908H11.9908H11.9907H11.9907H11.9907H11.9907H11.9907H11.9907H11.9907H11.9907H11.9907H11.9907H11.9907H11.9907H11.9907H11.9907H11.9907H11.9907H11.9907H11.9907H11.9907H11.9907H11.9907H11.9907H11.9906H11.9906H11.9906H11.9906H11.9906H11.9906H11.9906H11.9906H11.9906H11.9906H11.9906H11.9906H11.9906H11.9906H11.9906H11.9906H11.9906H11.9906H11.9906H11.9906H11.9906H11.9906H11.9906H11.9905H11.9905H11.9905H11.9905H11.9905H11.9905H11.9905H11.9905H11.9905H11.9905H11.9905H11.9905H11.9905H11.9905H11.9905H11.9905H11.9905H11.9905H11.9905H11.9905H11.9905H11.9905H11.9905H11.9905H11.9904H11.9904H11.9904H11.9904H11.9904H11.9904H11.9904H11.9904H11.9904H11.9904H11.9904H11.9904H11.9904H11.9904H11.9904H11.9904H11.9904H11.9904H11.9904H11.9904H11.9904H11.9904H11.9904H11.9904H11.9903H11.9903H11.9228H11.9228H11.9228H11.9228H11.9228H11.9228H11.9228H11.9228H11.9228H11.9228H11.9227H11.9227H11.9227H11.9227H11.9227H11.9227H11.9227H11.9227H11.9227H11.9227H11.9227H11.9227H11.9227H11.9227H11.9227H11.9227H11.9227H11.9227H11.9227H11.9227H11.9227H11.9227H11.9227H11.9226H11.9226H11.9226H11.9226H11.9226H11.9226H11.9226H11.9226H11.9226H11.9226H11.9226H11.9226H11.9226H11.9226H11.9226H11.9226H11.9226H11.9226H11.9226H11.9226H11.9226H11.9226H11.9226H11.9226H11.9226H11.9225H11.9225H11.9225H11.9225H11.9225H11.9225H11.9225H11.9225H11.9225H11.9225H11.9225H11.9225H11.9225H11.9225H11.9225H11.9225H11.9225H11.9225H11.9225H11.9225H11.9225H11.9225H11.9225H11.9225H11.9225H11.9224H11.9224H11.9224H11.9224H11.9224H11.9224H11.9224H11.9224H11.9224H11.9224H11.9224H11.9224H11.9224H11.9224H11.9224H11.9224H11.9224H11.9224H11.9224H11.9224H11.9224H11.9224H11.9224H11.9224H11.9223H11.9223H11.9223H11.9223H11.9223H11.9223H11.9223H11.9223H11.9223H11.9223H11.9223H11.9223H11.9223H11.9223H11.9223H11.9223H11.9223H11.9223H11.9223H11.9223H11.9223H11.9223H11.9223H11.9223H11.9223H11.9223H11.9222H11.9222H11.9222H11.9222H11.9222H11.9222H11.9222H11.9222H11.9222H11.9222H11.9222H11.9222H11.9222H11.9222H11.9222H11.9222H11.9222H11.9222H11.9222H11.9222H11.9222H11.9222H11.9222H11.9221H11.9221H11.9221H11.9221H11.9221H11.9221H11.9221H11.9221H11.9221H11.9221H11.9221H11.9221C10.4698 11.4218 8.84503 12.1126 7.71111 13.236C7.5395 13.4061 7.53819 13.6831 7.70822 13.8547L16.2019 13.236ZM16.2019 13.236C16.3736 13.4061 16.3748 13.6831 16.2048 13.8547L16.2047 13.8548M16.2019 13.236L16.2047 13.8548M16.2047 13.8548C16.0348 14.0264 15.7577 14.0277 15.586 13.8576C14.6354 12.9157 13.2396 12.2968 11.9909 12.2968H11.9909H11.9909H11.9909H11.9909H11.9909H11.9909H11.9909H11.9909H11.9909H11.9909H11.9909H11.9909H11.9909H11.9908H11.9908H11.9908H11.9908H11.9908H11.9908H11.9908H11.9908H11.9908H11.9908H11.9908H11.9908H11.9908H11.9908H11.9908H11.9908H11.9908H11.9908H11.9908H11.9908H11.9908H11.9908H11.9908H11.9908H11.9908H11.9907H11.9907H11.9907H11.9907H11.9907H11.9907H11.9907H11.9907H11.9907H11.9907H11.9907H11.9907H11.9907H11.9907H11.9907H11.9907H11.9907H11.9907H11.9907H11.9907H11.9907H11.9907H11.9907H11.9907H11.9907H11.9906H11.9906H11.9906H11.9906H11.9906H11.9906H11.9906H11.9906H11.9906H11.9906H11.9906H11.9906H11.9906H11.9906H11.9906H11.9906H11.9906H11.9906H11.9906H11.9906H11.9906H11.9906H11.9906H11.9906H11.9906H11.9905H11.9905H11.9905H11.9905H11.9905H11.9905H11.9905H11.9905H11.9905H11.9905H11.9905H11.9905H11.9905H11.9905H11.9905H11.9905H11.9227H11.9227H11.9226H11.9226H11.9226H11.9226H11.9226H11.9226H11.9226H11.9226H11.9226H11.9226H11.9226H11.9226H11.9226H11.9226H11.9226H11.9226H11.9226H11.9226H11.9226H11.9226H11.9226H11.9226H11.9226H11.9226H11.9225H11.9225H11.9225H11.9225H11.9225H11.9225H11.9225H11.9225H11.9225H11.9225H11.9225H11.9225H11.9225H11.9225H11.9225H11.9225H11.9225H11.9225H11.9225H11.9225H11.9225H11.9225H11.9225H11.9225H11.9225H11.9225H11.9224H11.9224H11.9224H11.9224H11.9224H11.9224H11.9224H11.9224H11.9224H11.9224H11.9224H11.9224H11.9224H11.9224H11.9224H11.9224H11.9224H11.9224H11.9224H11.9224H11.9224H11.9224H11.9224H11.9224H11.9224H11.9224H11.9223H11.9223H11.9223H11.9223H11.9223H11.9223H11.9223H11.9223H11.9223H11.9223H11.9223H11.9223H11.9223H11.9223H11.9223H11.9223H11.9223H11.9223H11.9223H11.9223H11.9223H11.9223H11.9223H11.9223H11.9223H11.9222H11.9222H11.9222H11.9222H11.9222H11.9222H11.9222H11.9222H11.9222H11.9222H11.9222H11.9222H11.9222H11.9222H11.9222H11.9222C10.6733 12.2968 9.27764 12.9157 8.32691 13.8577C8.24152 13.9422 8.13107 13.9843 8.01905 13.9843C7.90569 13.9843 7.79393 13.9412 7.70825 13.8548L16.2047 13.8548Z" fill="#171717" stroke="#171717"/>
</svg>
