<svg width="16" height="16" viewBox="0 0 16 16" fill="none" xmlns="http://www.w3.org/2000/svg">
<path d="M7.27435 14.023H6.79435C6.52899 14.0222 6.27471 13.9165 6.08707 13.7289C5.89943 13.5412 5.7937 13.2869 5.79297 13.0216V10.0588C5.7937 9.79346 5.89943 9.53917 6.08707 9.35154C6.27471 9.1639 6.52899 9.05816 6.79435 9.05743H7.27435C7.35527 9.058 7.43583 9.06819 7.51435 9.08778C7.73193 9.14049 7.92541 9.26499 8.06355 9.44117C8.20169 9.61735 8.27644 9.83493 8.27573 10.0588V13.0216C8.275 13.2869 8.16926 13.5412 7.98163 13.7289C7.79399 13.9165 7.53971 14.0222 7.27435 14.023ZM6.79435 9.60916C6.7353 9.60916 6.67683 9.62079 6.62227 9.64339C6.56772 9.66598 6.51815 9.69911 6.47639 9.74086C6.43464 9.78261 6.40152 9.83218 6.37892 9.88674C6.35632 9.94129 6.34469 9.99976 6.34469 10.0588V13.0216C6.34469 13.1408 6.39207 13.2552 6.47639 13.3395C6.56072 13.4239 6.67509 13.4712 6.79435 13.4712H7.27435C7.3936 13.4712 7.50798 13.4239 7.5923 13.3395C7.67663 13.2552 7.724 13.1408 7.724 13.0216V10.0588C7.72384 9.9584 7.69007 9.86093 7.62808 9.78194C7.56608 9.70294 7.47943 9.64698 7.38193 9.62295C7.34618 9.61908 7.31011 9.61908 7.27435 9.62295L6.79435 9.60916Z" fill="#171717"/>
<path d="M14.9985 14.023H14.5185C14.2531 14.0222 13.9988 13.9165 13.8112 13.7289C13.6236 13.5412 13.5178 13.2869 13.5171 13.0216V10.0588C13.5164 9.83493 13.5911 9.61735 13.7293 9.44117C13.8674 9.26499 14.0609 9.14049 14.2785 9.08778C14.357 9.06819 14.4376 9.058 14.5185 9.05743H14.9985C15.2638 9.05816 15.5181 9.1639 15.7058 9.35154C15.8934 9.53917 15.9991 9.79346 15.9999 10.0588V13.0216C15.9991 13.2869 15.8934 13.5412 15.7058 13.7289C15.5181 13.9165 15.2638 14.0222 14.9985 14.023ZM14.5185 9.60916C14.4827 9.60528 14.4466 9.60528 14.4109 9.60916C14.3111 9.63371 14.2227 9.69173 14.1604 9.77355C14.0982 9.85537 14.0658 9.95605 14.0688 10.0588V13.0216C14.0688 13.1408 14.1162 13.2552 14.2005 13.3395C14.2848 13.4239 14.3992 13.4712 14.5185 13.4712H14.9985C15.1177 13.4712 15.2321 13.4239 15.3164 13.3395C15.4008 13.2552 15.4481 13.1408 15.4481 13.0216V10.0588C15.4481 9.99976 15.4365 9.94129 15.4139 9.88674C15.3913 9.83218 15.3582 9.78261 15.3164 9.74086C15.2747 9.69911 15.2251 9.66598 15.1705 9.64339C15.116 9.62079 15.0575 9.60916 14.9985 9.60916H14.5185Z" fill="#171717"/>
<path d="M5.24138 12.6437H0V9.33331H5.24138V12.6437ZM0.551724 12.0919H4.68966V9.88504H0.551724V12.0919Z" fill="#171717"/>
<path d="M4.68945 12.0919H5.24118V14.023H4.68945V12.0919Z" fill="#171717"/>
<path d="M0 12.0919H0.551724V14.023H0V12.0919Z" fill="#171717"/>
<path d="M13.2414 14.023H8.55171C8.33222 14.023 8.12172 13.9358 7.96652 13.7806C7.81131 13.6254 7.72412 13.4149 7.72412 13.1954V11.5402H14.0689V13.1954C14.0689 13.4149 13.9818 13.6254 13.8266 13.7806C13.6714 13.9358 13.4609 14.023 13.2414 14.023ZM8.27585 12.0919V13.1954C8.27585 13.2686 8.30491 13.3387 8.35664 13.3905C8.40838 13.4422 8.47854 13.4713 8.55171 13.4713H13.2414C13.3145 13.4713 13.3847 13.4422 13.4364 13.3905C13.4882 13.3387 13.5172 13.2686 13.5172 13.1954V12.0919H8.27585Z" fill="#171717"/>
<path d="M14.0689 12.0919H7.72412V11.2643C7.72412 10.8985 7.86944 10.5477 8.12811 10.289C8.38678 10.0303 8.73762 9.88501 9.10343 9.88501H12.6896C13.0555 9.88501 13.4063 10.0303 13.665 10.289C13.9236 10.5477 14.0689 10.8985 14.0689 11.2643V12.0919ZM8.27585 11.5402H13.5172V11.2643C13.5172 11.0448 13.43 10.8343 13.2748 10.6791C13.1196 10.5239 12.9091 10.4367 12.6896 10.4367H9.10343C8.88394 10.4367 8.67344 10.5239 8.51824 10.6791C8.36304 10.8343 8.27585 11.0448 8.27585 11.2643V11.5402Z" fill="#171717"/>
<path d="M14.0689 11.2644H13.5172C13.5172 11.0449 13.43 10.8344 13.2748 10.6792C13.1196 10.524 12.9091 10.4368 12.6896 10.4368H9.1034C8.88391 10.4368 8.67341 10.524 8.51821 10.6792C8.363 10.8344 8.27581 11.0449 8.27581 11.2644H7.72409V10.0588C7.72392 9.95843 7.69015 9.86095 7.62816 9.78196C7.56617 9.70297 7.47952 9.647 7.38202 9.62298L7.17236 9.57332V7.40229C7.17236 6.89014 7.37581 6.39898 7.73795 6.03684C8.10009 5.6747 8.59126 5.47125 9.1034 5.47125H12.6896C13.2017 5.47125 13.6929 5.6747 14.0551 6.03684C14.4172 6.39898 14.6206 6.89014 14.6206 7.40229V9.57332L14.411 9.62298C14.3135 9.647 14.2268 9.70297 14.1648 9.78196C14.1028 9.86095 14.0691 9.95843 14.0689 10.0588V11.2644ZM9.1034 9.88505H12.6896C12.988 9.88505 13.2784 9.98184 13.5172 10.1609V10.0588C13.5164 9.87318 13.5677 9.69102 13.6652 9.53303C13.7627 9.37505 13.9026 9.24756 14.0689 9.16505V7.40229C14.0689 7.03647 13.9236 6.68564 13.6649 6.42697C13.4063 6.1683 13.0554 6.02298 12.6896 6.02298H9.1034C8.73758 6.02298 8.38675 6.1683 8.12808 6.42697C7.86941 6.68564 7.72409 7.03647 7.72409 7.40229V9.16505C7.89041 9.24756 8.03026 9.37505 8.12778 9.53303C8.22531 9.69102 8.27659 9.87318 8.27581 10.0588V10.1609C8.51456 9.98184 8.80496 9.88505 9.1034 9.88505Z" fill="#171717"/>
<path d="M1.93115 10.7126H3.31046V11.2644H1.93115V10.7126Z" fill="#171717"/>
<path d="M3.51703 9.88504H1.72393L1.01221 7.40228H4.22876L3.51703 9.88504ZM2.13772 9.33332H3.10324L3.49497 7.95401H1.746L2.13772 9.33332Z" fill="#171717"/>
<path d="M2.62072 7.95398C2.55029 7.95347 2.48007 7.94608 2.41107 7.93191C1.89401 7.84386 1.4244 7.57673 1.08448 7.17729C0.74455 6.77785 0.55597 6.27157 0.551758 5.74708V5.47122H0.82762C1.34093 5.46855 1.83887 5.64625 2.23452 5.97329L2.33659 6.05329V6.18295C2.33488 6.51876 2.43385 6.84738 2.62072 7.12639C2.81082 6.84933 2.91363 6.5217 2.9159 6.1857V6.05605L3.01796 5.97605C3.41031 5.65044 3.90397 5.47191 4.41383 5.47122H4.68969V5.74708C4.69166 6.28083 4.50157 6.79748 4.15413 7.20266C3.80668 7.60784 3.32508 7.87452 2.79728 7.95398C2.73857 7.95982 2.67943 7.95982 2.62072 7.95398ZM3.4621 6.3126C3.44183 6.64288 3.34756 6.96437 3.18624 7.25329C3.42977 7.14176 3.6426 6.97279 3.80645 6.7609C3.9703 6.549 4.08027 6.3005 4.12693 6.03674C3.8872 6.07848 3.65996 6.17371 3.4621 6.31536V6.3126ZM1.12003 6.03674C1.16994 6.29928 1.28115 6.54631 1.44462 6.75772C1.60809 6.96913 1.81919 7.13893 2.06072 7.25329C1.90019 6.96405 1.80596 6.64273 1.78486 6.3126C1.58651 6.17291 1.3593 6.07958 1.12003 6.0395V6.03674Z" fill="#171717"/>
<path d="M2.62059 7.92919L2.42472 7.73609C2.37783 7.68643 2.33093 7.63678 2.28679 7.58436C1.93279 7.15689 1.75078 6.61284 1.77628 6.0584C1.80179 5.50396 2.03297 4.97892 2.42472 4.58574L2.62059 4.39264L2.81645 4.58574C3.02397 4.79203 3.1884 5.03752 3.30017 5.30794C3.41193 5.57836 3.46881 5.86831 3.46748 6.16092V6.17471C3.46592 6.68656 3.28649 7.18196 2.9599 7.57609C2.91024 7.63678 2.86335 7.68643 2.81645 7.73609L2.62059 7.92919ZM2.62059 5.20919C2.42844 5.48938 2.3256 5.82117 2.3256 6.16092C2.3256 6.50066 2.42844 6.83245 2.62059 7.11264C2.81069 6.83558 2.91349 6.50795 2.91576 6.17195H3.19162H2.91576C2.91975 5.82816 2.81658 5.49167 2.62059 5.20919Z" fill="#171717"/>
<path d="M5.79297 4.3678H6.34469V10.9885H5.79297V4.3678Z" fill="#171717"/>
<path d="M8.30344 4.91952H3.83447L4.16275 1.33331H7.97516L8.30344 4.91952ZM4.44137 4.3678H7.69654L7.47309 1.88504H4.66482L4.44137 4.3678Z" fill="#171717"/>
</svg>
