<svg width="24" height="24" viewBox="0 0 24 24" fill="none" xmlns="http://www.w3.org/2000/svg">
<path d="M15.0169 5.01451L15.017 5.01462L15.0271 5.01194C16.4143 4.64609 17.5454 4.36515 18.5817 4.56711C19.5635 4.75845 20.5485 5.40954 21.5475 7.16326C22.0567 8.09808 22.4918 9.33713 22.845 10.6906C23.1964 12.0969 23.4294 13.5866 23.4875 14.9221C23.5461 16.4487 23.3942 17.464 23.1109 18.1078L23.1109 18.1078L23.1081 18.1143C22.8348 18.7603 22.4402 19.068 21.9983 19.2028C21.5707 19.3128 21.031 19.2546 20.4066 19.0109C19.3279 18.5673 18.039 17.6035 16.7385 16.392C15.6728 15.3637 13.7811 14.9095 12 14.9095C10.2189 14.9095 8.32729 15.3637 7.26157 16.392C5.95951 17.6049 4.66908 18.5696 3.58964 19.0124L3.5896 19.0123L3.58006 19.0164C2.97907 19.2777 2.43884 19.3165 1.99864 19.202C1.54447 19.0707 1.16955 18.7459 0.889025 18.1374C0.603683 17.4586 0.454212 16.4399 0.512474 14.9519C0.570663 13.6156 0.803855 12.1251 1.15562 10.718L1.15564 10.718L1.15684 10.713C1.47714 9.37358 1.94066 8.13248 2.45294 7.19243C3.45219 5.42363 4.43716 4.77326 5.41829 4.58205C6.45619 4.37978 7.58624 4.6615 8.97786 5.01323L8.97785 5.01326L8.98306 5.01451C9.06076 5.03327 9.1394 5.05239 9.21891 5.07172C10.013 5.26479 10.8945 5.47911 11.8039 5.56436L11.8272 5.56655H11.8505H12.1495H12.1729L12.1961 5.56436C13.1055 5.47911 13.987 5.26479 14.7811 5.07172C14.8606 5.05239 14.9392 5.03327 15.0169 5.01451ZM21.9664 19.1204L21.9664 19.1205L21.9785 19.1169C22.4661 18.9706 22.7966 18.5898 23.0118 18.0876C23.3254 17.3559 23.4414 16.3388 23.3806 14.9394L23.3805 14.9384C23.3189 13.5826 23.0733 12.1152 22.7396 10.7196L22.7396 10.7196L22.7384 10.7146C22.4037 9.37599 21.972 8.16352 21.4339 7.21336C20.5614 5.64365 19.5617 4.90654 18.4061 4.7013C17.348 4.51337 16.2283 4.79384 15.1579 5.06199C15.121 5.07123 15.0842 5.08046 15.0474 5.08966L15.0474 5.08964L15.0437 5.09059C14.1228 5.32824 13.2093 5.55561 12.1882 5.6427H12.1882H12.1881H12.188H12.1879H12.1878H12.1877H12.1876H12.1875H12.1874H12.1873H12.1872H12.1871H12.187H12.1869H12.1868H12.1867H12.1866H12.1865H12.1864H12.1863H12.1862H12.1861H12.186H12.1859H12.1858H12.1857H12.1856H12.1855H12.1855H12.1854H12.1853H12.1852H12.1851H12.185H12.1849H12.1848H12.1847H12.1846H12.1845H12.1844H12.1843H12.1842H12.1842H12.1841H12.184H12.1839H12.1838H12.1837H12.1836H12.1835H12.1834H12.1833H12.1833H12.1832H12.1831H12.183H12.1829H12.1828H12.1827H12.1826H12.1825H12.1824H12.1824H12.1823H12.1822H12.1821H12.182H12.1819H12.1818H12.1817H12.1816H12.1816H12.1815H12.1814H12.1813H12.1812H12.1811H12.181H12.1809H12.1809H12.1808H12.1807H12.1806H12.1805H12.1804H12.1803H12.1802H12.1801H12.1801H12.18H12.1799H12.1798H12.1797H12.1796H12.1795H12.1794H12.1794H12.1793H12.1792H12.1791H12.179H12.1789H12.1788H12.1787H12.1787H12.1786H12.1785H12.1784H12.1783H12.1782H12.1781H12.178H12.178H12.1779H12.1778H12.1777H12.1776H12.1775H12.1774H12.1773H12.1773H12.1772H12.1771H12.177H12.1769H12.1768H12.1767H12.1766H12.1765H12.1765H12.1764H12.1763H12.1762H12.1761H12.176H12.1759H12.1758H12.1757H12.1756H12.1756H12.1755H12.1754H12.1753H12.1752H12.1751H12.175H12.1749H12.1748H12.1747H12.1747H12.1746H12.1745H12.1744H12.1743H12.1742H12.1741H12.174H12.1739H12.1738H12.1737H12.1736H12.1735H12.1735H12.1734H12.1733H12.1732H12.1731H12.173H12.1729H12.1728H12.1727H12.1726H12.1725H12.1724H12.1723H12.1722H12.1721H12.172H12.1719H12.1718H12.1717H12.1716H12.1715H12.1714H12.1713H12.1713H12.1712H12.1711H12.171H12.1709H12.1708H12.1707H12.1706H12.1705H12.1704H12.1703H12.1702H12.1701H12.17H12.1699H12.1698H12.1696H12.1695H12.1694H12.1693H12.1692H12.1691H12.169H12.1689H12.1688H12.1687H12.1686H12.1685H12.1684H12.1683H12.1682H12.1681H12.168H12.1679H12.1678H12.1677H12.1675H12.1674H12.1673H12.1672H12.1671H12.167H12.1669H12.1668H12.1667H12.1666H12.1664H12.1663H12.1662H12.1661H12.166H12.1659H12.1658H12.1656H12.1655H12.1654H12.1653H12.1652H12.1651H12.165H12.1648H12.1647H12.1646H12.1645H12.1644H12.1642H12.1641H12.164H12.1639H12.1638H12.1636H12.1635H12.1634H12.1633H12.1632H12.163H12.1629H12.1628H12.1627H12.1625H12.1624H12.1623H12.1622H12.162H12.1619H12.1618H12.1616H12.1615H12.1614H12.1613H12.1611H12.161H12.1609H12.1607H12.1606H12.1605H12.1603H12.1602H12.1601H12.1599H12.1598H12.1597H12.1595H12.1594H12.1593H12.1591H12.159H12.1588H12.1587H12.1586H12.1584H12.1583H12.1581H12.158H12.1579H12.1577H12.1576H12.1574H12.1573H12.1571H12.157H12.1568H12.1567H12.1565H12.1564H12.1563H12.1561H12.156H12.1558H12.1557H12.1555H12.1553H12.1552H12.155H12.1549H12.1547H12.1546H12.1544H12.1543H12.1541H12.154H12.1538H12.1536H12.1535H12.1533H12.1532H12.153H12.1528H12.1527H12.1525H12.1523H12.1522H12.152H12.1519H12.1517H12.1515H12.1514H12.1512H12.151H12.1508H12.1507H12.1505H12.1503H12.1502H12.15H12.1498H12.1496H12.1495H11.8206H11.8205H11.8203H11.8201H11.8199H11.8198H11.8196H11.8194H11.8193H11.8191H11.8189H11.8188H11.8186H11.8184H11.8183H11.8181H11.8179H11.8178H11.8176H11.8174H11.8173H11.8171H11.817H11.8168H11.8166H11.8165H11.8163H11.8162H11.816H11.8158H11.8157H11.8155H11.8154H11.8152H11.8151H11.8149H11.8148H11.8146H11.8145H11.8143H11.8142H11.814H11.8139H11.8137H11.8136H11.8134H11.8133H11.8131H11.813H11.8128H11.8127H11.8125H11.8124H11.8123H11.8121H11.812H11.8118H11.8117H11.8115H11.8114H11.8113H11.8111H11.811H11.8109H11.8107H11.8106H11.8104H11.8103H11.8102H11.81H11.8099H11.8098H11.8096H11.8095H11.8094H11.8092H11.8091H11.809H11.8089H11.8087H11.8086H11.8085H11.8083H11.8082H11.8081H11.808H11.8078H11.8077H11.8076H11.8075H11.8073H11.8072H11.8071H11.807H11.8068H11.8067H11.8066H11.8065H11.8063H11.8062H11.8061H11.806H11.8059H11.8057H11.8056H11.8055H11.8054H11.8053H11.8052H11.805H11.8049H11.8048H11.8047H11.8046H11.8045H11.8043H11.8042H11.8041H11.804H11.8039H11.8038H11.8037H11.8036H11.8034H11.8033H11.8032H11.8031H11.803H11.8029H11.8028H11.8027H11.8026H11.8025H11.8024H11.8022H11.8021H11.802H11.8019H11.8018H11.8017H11.8016H11.8015H11.8014H11.8013H11.8012H11.8011H11.801H11.8009H11.8008H11.8007H11.8006H11.8005H11.8004H11.8003H11.8002H11.8001H11.8H11.7999H11.7998H11.7997H11.7996H11.7995H11.7994H11.7993H11.7992H11.7991H11.799H11.7989H11.7988H11.7987H11.7986H11.7985H11.7984H11.7983H11.7982H11.7981H11.798H11.7979H11.7978H11.7977H11.7976H11.7975H11.7974H11.7973H11.7972H11.7971H11.797H11.7969H11.7968H11.7968H11.7967H11.7966H11.7965H11.7964H11.7963H11.7962H11.7961H11.796H11.7959H11.7958H11.7957H11.7956H11.7955H11.7955H11.7954H11.7953H11.7952H11.7951H11.795H11.7949H11.7948H11.7947H11.7946H11.7946H11.7945H11.7944H11.7943H11.7942H11.7941H11.794H11.7939H11.7938H11.7937H11.7937H11.7936H11.7935H11.7934H11.7933H11.7932H11.7931H11.793H11.7929H11.7929H11.7928H11.7927H11.7926H11.7925H11.7924H11.7923H11.7922H11.7922H11.7921H11.792H11.7919H11.7918H11.7917H11.7916H11.7915H11.7915H11.7914H11.7913H11.7912H11.7911H11.791H11.7909H11.7908H11.7908H11.7907H11.7906H11.7905H11.7904H11.7903H11.7902H11.7901H11.79H11.79H11.7899H11.7898H11.7897H11.7896H11.7895H11.7894H11.7893H11.7893H11.7892H11.7891H11.789H11.7889H11.7888H11.7887H11.7886H11.7886H11.7885H11.7884H11.7883H11.7882H11.7881H11.788H11.7879H11.7878H11.7878H11.7877H11.7876H11.7875H11.7874H11.7873H11.7872H11.7871H11.787H11.7869H11.7869H11.7868H11.7867H11.7866H11.7865H11.7864H11.7863H11.7862H11.7861H11.786H11.786H11.7859H11.7858H11.7857H11.7856H11.7855H11.7854H11.7853H11.7852H11.7851H11.785H11.7849H11.7848H11.7847H11.7847H11.7846H11.7845H11.7844H11.7843H11.7842H11.7841H11.784H11.7839H11.7838H11.7837H11.7836H11.7835H11.7834H11.7833H11.7832H11.7831H11.783H11.7829H11.7828H11.7827H11.7826H11.7825H11.7825C10.7909 5.55561 9.87757 5.32834 8.95628 5.09059L8.93929 5.08611C7.83636 4.79585 6.6833 4.4924 5.59209 4.69042C4.43651 4.90012 3.43783 5.64512 2.56614 7.21333C2.02743 8.16463 1.59612 9.40728 1.26259 10.7108C0.894898 12.1207 0.680799 13.6196 0.619479 14.9379L0.619413 14.9394C0.558727 16.3352 0.673966 17.3526 0.957054 18.0249L0.957045 18.0249L0.958299 18.0278C1.17151 18.5253 1.49787 18.9037 1.97812 19.053C2.49069 19.233 3.06082 19.0753 3.53648 18.8969L3.53648 18.8969L3.53949 18.8958C4.65407 18.4696 5.94081 17.452 7.16802 16.3147C8.20652 15.3563 10.0655 14.8035 12 14.8035C13.9376 14.8035 15.7847 15.3576 16.788 16.3609L16.7879 16.3611L16.7972 16.3699C18.0061 17.5184 19.2874 18.4983 20.4235 18.9528L20.4235 18.9529L20.4336 18.9567C20.9511 19.1507 21.4887 19.2506 21.9664 19.1204Z" fill="#171717" stroke="#171717"/>
<path d="M7.70814 9.03206L7.67508 8.60238C7.65427 8.33184 7.52574 8.05531 7.34177 7.87133L7.31188 7.84144L7.66269 7.49063L7.31188 7.84144C7.07509 7.60465 6.78306 7.47971 6.43981 7.47971C6.1028 7.47971 5.77923 7.62997 5.56775 7.84144C5.45425 7.95494 5.35821 8.09537 5.29313 8.24727L5.20464 8.60123L5.17388 9.03189L5.09557 9.03748L5.06242 9.17008H5.24409C5.26035 9.17008 5.27894 9.16314 5.29311 9.14948C5.29959 9.14323 5.30405 9.13657 5.30692 9.12999C5.30957 9.1239 5.31206 9.1152 5.31206 9.10211V8.68361C5.31206 8.38057 5.4184 8.10113 5.63787 7.88166C5.85734 7.66219 6.13678 7.55585 6.43981 7.55585C6.74285 7.55585 7.02229 7.66219 7.24176 7.88166L7.70814 9.03206ZM7.70814 9.03206L8.13799 9.06277C8.40247 9.08166 8.6569 9.21397 8.90503 9.43469C9.11185 9.64628 9.25794 9.96552 9.25794 10.2978C9.25794 10.6411 9.13299 10.9331 8.89621 11.1699L8.88691 11.1792L8.87811 11.189C8.70306 11.3835 8.43899 11.5114 8.13799 11.5329L7.70575 11.5638L7.67488 11.996C7.65599 12.2605 7.52368 12.5149 7.30296 12.763C7.09137 12.9699 6.77212 13.116 6.43981 13.116C6.09657 13.116 5.80454 12.991 5.56775 12.7542L5.55846 12.7449L5.54868 12.7361C5.35418 12.5611 5.22625 12.297 5.20475 11.996L5.17373 11.5617L4.73928 11.5327C4.42072 11.5115 4.17342 11.3898 3.95353 11.1699C3.74206 10.9584 3.5918 10.6348 3.5918 10.2978C3.5918 9.95458 3.71674 9.66256 3.95353 9.42577L3.59998 9.07222L3.95353 9.42577L3.97355 9.40575C4.09712 9.29608 4.22804 9.2108 4.36718 9.15234L4.07866 9.44086L4.05353 9.46599L4.02738 9.49214L4.02583 9.49371L4.02473 9.4948L4.02418 9.49535L4.02412 9.4954L4.02391 9.49562L4.02377 9.49575L4.02373 9.4958L4.02371 9.49581L4.02364 9.49588C3.80417 9.71535 3.69784 9.99479 3.69784 10.2978C3.69784 10.6435 3.86705 10.9133 4.02364 11.0699L4.36579 10.7277L4.02364 11.0699C4.24311 11.2894 4.52255 11.3957 4.82559 11.3957H5.24409C5.25719 11.3957 5.26588 11.3982 5.27197 11.4008C5.27855 11.4037 5.28521 11.4082 5.29146 11.4146C5.30513 11.4288 5.31206 11.4474 5.31206 11.4637V11.8822C5.31206 12.1852 5.4184 12.4646 5.63787 12.6841C5.85733 12.9036 6.13677 13.0099 6.43981 13.0099C6.74286 13.0099 7.02229 12.9036 7.24176 12.6841C7.46123 12.4646 7.56757 12.1852 7.56757 11.8822V11.4936C7.56757 11.4805 7.57006 11.4718 7.57271 11.4657C7.57558 11.4591 7.58004 11.4524 7.58652 11.4462C7.60069 11.4325 7.61928 11.4256 7.63554 11.4256H8.05404C8.35708 11.4256 8.63652 11.3192 8.85599 11.0998C9.07546 10.8803 9.18179 10.6009 9.18179 10.2978C9.18179 9.99479 9.07546 9.71535 8.85599 9.49588C8.63652 9.27641 8.35708 9.17008 8.05404 9.17008H7.63554C7.62244 9.17008 7.61375 9.16758 7.60766 9.16493C7.60108 9.16207 7.59442 9.15761 7.58817 9.15112C7.5745 9.13696 7.56757 9.11836 7.56757 9.10211V8.68361C7.56757 8.45346 7.4934 8.24131 7.38821 8.06864L7.70814 9.03206ZM6.88821 8.23521L6.9181 8.26511L6.88821 8.23521Z" fill="#171717" stroke="#171717"/>
<path d="M17.7475 8.17544C17.7475 8.47713 17.503 8.72169 17.2013 8.72169C16.8996 8.72169 16.655 8.47713 16.655 8.17544C16.655 7.87375 16.8996 7.62918 17.2013 7.62918C17.503 7.62918 17.7475 7.87375 17.7475 8.17544Z" fill="#171717" stroke="#171717"/>
<path d="M17.7475 12.4202C17.7475 12.7219 17.503 12.9665 17.2013 12.9665C16.8996 12.9665 16.655 12.7219 16.655 12.4202C16.655 12.1185 16.8996 11.874 17.2013 11.874C17.503 11.874 17.7475 12.1185 17.7475 12.4202Z" fill="#171717" stroke="#171717"/>
<path d="M15.079 11.3441C15.6568 11.3441 16.1252 10.8756 16.1252 10.2978C16.1252 9.71998 15.6568 9.25156 15.079 9.25156C14.5011 9.25156 14.0327 9.71998 14.0327 10.2978C14.0327 10.8756 14.5011 11.3441 15.079 11.3441Z" fill="#171717"/>
<path d="M19.3238 11.3441C19.9017 11.3441 20.3701 10.8756 20.3701 10.2978C20.3701 9.71998 19.9017 9.25156 19.3238 9.25156C18.746 9.25156 18.2776 9.71998 18.2776 10.2978C18.2776 10.8756 18.746 11.3441 19.3238 11.3441Z" fill="#171717"/>
</svg>
