<svg width="24" height="24" viewBox="0 0 24 24" fill="none" xmlns="http://www.w3.org/2000/svg">
<g clip-path="url(#clip0_1172_12761)">
<mask id="path-1-inside-1_1172_12761" fill="white">
<path d="M23.814 13.1761L15 8.03461V0.375C15 0.167906 14.8321 0 14.625 0H9.375C9.16791 0 9 0.167906 9 0.375V8.03461L0.186047 13.1761C0.070875 13.2433 0 13.3666 0 13.5V16.5C0 16.7071 0.167906 16.875 0.375 16.875H23.625C23.8321 16.875 24 16.7071 24 16.5V13.5C24 13.3666 23.9291 13.2433 23.814 13.1761ZM9.47639 8.625H14.5236L22.2379 13.125H1.76213L9.47639 8.625ZM9.75 0.75H14.25V7.875H9.75V0.75ZM0.75 16.125V13.875H23.25V16.125H0.75Z"/>
</mask>
<path d="M23.814 13.1761L15 8.03461V0.375C15 0.167906 14.8321 0 14.625 0H9.375C9.16791 0 9 0.167906 9 0.375V8.03461L0.186047 13.1761C0.070875 13.2433 0 13.3666 0 13.5V16.5C0 16.7071 0.167906 16.875 0.375 16.875H23.625C23.8321 16.875 24 16.7071 24 16.5V13.5C24 13.3666 23.9291 13.2433 23.814 13.1761ZM9.47639 8.625H14.5236L22.2379 13.125H1.76213L9.47639 8.625ZM9.75 0.75H14.25V7.875H9.75V0.75ZM0.75 16.125V13.875H23.25V16.125H0.75Z" fill="#171717"/>
<path d="M23.814 13.1761L23.3101 14.0399L23.3101 14.0399L23.814 13.1761ZM15 8.03461H14V8.60898L14.4961 8.89839L15 8.03461ZM9 8.03461L9.50387 8.89839L10 8.60898V8.03461H9ZM0.186047 13.1761L0.689852 14.0399L0.689919 14.0399L0.186047 13.1761ZM9.47639 8.625V7.625H9.20604L8.97252 7.76122L9.47639 8.625ZM14.5236 8.625L15.0275 7.76122L14.794 7.625H14.5236V8.625ZM22.2379 13.125V14.125H25.9368L22.7417 12.2612L22.2379 13.125ZM1.76213 13.125L1.25825 12.2612L-1.93679 14.125H1.76213V13.125ZM9.75 0.75V-0.25H8.75V0.75H9.75ZM14.25 0.75H15.25V-0.25H14.25V0.75ZM14.25 7.875V8.875H15.25V7.875H14.25ZM9.75 7.875H8.75V8.875H9.75V7.875ZM0.75 16.125H-0.25V17.125H0.75V16.125ZM0.75 13.875V12.875H-0.25V13.875H0.75ZM23.25 13.875H24.25V12.875H23.25V13.875ZM23.25 16.125V17.125H24.25V16.125H23.25ZM24.3178 12.3123L15.5039 7.17083L14.4961 8.89839L23.3101 14.0399L24.3178 12.3123ZM16 8.03461V0.375H14V8.03461H16ZM16 0.375C16 -0.384379 15.3844 -1 14.625 -1V1C14.2798 1 14 0.720191 14 0.375H16ZM14.625 -1H9.375V1H14.625V-1ZM9.375 -1C8.61562 -1 8 -0.384379 8 0.375H10C10 0.720191 9.72019 1 9.375 1V-1ZM8 0.375V8.03461H10V0.375H8ZM8.49613 7.17083L-0.317825 12.3123L0.689919 14.0399L9.50387 8.89839L8.49613 7.17083ZM-0.317759 12.3123C-0.740198 12.5587 -1 13.011 -1 13.5H1C1 13.7223 0.881949 13.9279 0.689852 14.0399L-0.317759 12.3123ZM-1 13.5V16.5H1V13.5H-1ZM-1 16.5C-1 17.2594 -0.384379 17.875 0.375 17.875V15.875C0.720191 15.875 1 16.1548 1 16.5H-1ZM0.375 17.875H23.625V15.875H0.375V17.875ZM23.625 17.875C24.3844 17.875 25 17.2594 25 16.5H23C23 16.1548 23.2798 15.875 23.625 15.875V17.875ZM25 16.5V13.5H23V16.5H25ZM25 13.5C25 13.011 24.7402 12.5587 24.3178 12.3123L23.3101 14.0399C23.118 13.9279 23 13.7223 23 13.5H25ZM9.47639 9.625H14.5236V7.625H9.47639V9.625ZM14.0197 9.48878L21.734 13.9888L22.7417 12.2612L15.0275 7.76122L14.0197 9.48878ZM22.2379 12.125H1.76213V14.125H22.2379V12.125ZM2.266 13.9888L9.98026 9.48878L8.97252 7.76122L1.25825 12.2612L2.266 13.9888ZM9.75 1.75H14.25V-0.25H9.75V1.75ZM13.25 0.75V7.875H15.25V0.75H13.25ZM14.25 6.875H9.75V8.875H14.25V6.875ZM10.75 7.875V0.75H8.75V7.875H10.75ZM1.75 16.125V13.875H-0.25V16.125H1.75ZM0.75 14.875H23.25V12.875H0.75V14.875ZM22.25 13.875V16.125H24.25V13.875H22.25ZM23.25 15.125H0.75V17.125H23.25V15.125Z" fill="#171717" mask="url(#path-1-inside-1_1172_12761)"/>
<path d="M8.93719 21.8327L8.93941 21.8338L8.93719 21.8327ZM8.93719 21.8327L8.49989 22.7073C8.40727 22.8926 8.48236 23.1178 8.66761 23.2104C8.72142 23.2374 8.77861 23.2501 8.835 23.2501C8.97258 23.2501 9.105 23.1741 9.17067 23.0427L8.06255 19.082M8.93719 21.8327C9.05189 21.6032 9.00708 21.3272 8.82572 21.1458L8.31445 20.6346C7.90448 20.2246 7.80323 19.6006 8.06255 19.082M8.06255 19.082L8.06271 19.0821L8.06255 19.082ZM8.9471 22.9309L8.94711 22.9309L8.9471 22.9309Z" fill="#171717" stroke="#171717"/>
<path d="M11.3924 19.0821L11.3921 19.082L11.3924 19.0821ZM11.3924 19.0821L11.3924 19.0822M11.3924 19.0821L11.3924 19.0822M11.3924 19.0822L11.3927 19.0823L11.3924 19.0822ZM12.2767 18.4309C12.2767 18.4309 12.2766 18.4309 12.2766 18.4309L12.2767 18.4309Z" fill="#171717" stroke="#171717"/>
<path d="M15.6517 18.4309C15.6517 18.4309 15.6516 18.4309 15.6516 18.4309L15.6517 18.4309Z" fill="#171717" stroke="#171717"/>
<path d="M9.75 14.25C9.54291 14.25 9.375 14.4179 9.375 14.625V15.375C9.375 15.5821 9.54291 15.75 9.75 15.75C9.95709 15.75 10.125 15.5821 10.125 15.375V14.625C10.125 14.4179 9.95709 14.25 9.75 14.25Z" fill="#171717"/>
<path d="M11.25 14.25C11.0429 14.25 10.875 14.4179 10.875 14.625V15.375C10.875 15.5821 11.0429 15.75 11.25 15.75C11.4571 15.75 11.625 15.5821 11.625 15.375V14.625C11.625 14.4179 11.4571 14.25 11.25 14.25Z" fill="#171717"/>
<path d="M12.75 14.25C12.5429 14.25 12.375 14.4179 12.375 14.625V15.375C12.375 15.5821 12.5429 15.75 12.75 15.75C12.9571 15.75 13.125 15.5821 13.125 15.375V14.625C13.125 14.4179 12.9571 14.25 12.75 14.25Z" fill="#171717"/>
<path d="M14.25 14.25C14.0429 14.25 13.875 14.4179 13.875 14.625V15.375C13.875 15.5821 14.0429 15.75 14.25 15.75C14.4571 15.75 14.625 15.5821 14.625 15.375V14.625C14.625 14.4179 14.4571 14.25 14.25 14.25Z" fill="#171717"/>
</g>
<defs>
<clipPath id="clip0_1172_12761">
<rect width="24" height="24" fill="white"/>
</clipPath>
</defs>
</svg>
