<svg width="16" height="16" viewBox="0 0 16 16" fill="none" xmlns="http://www.w3.org/2000/svg">
<g clip-path="url(#clip0_1711_8252)">
<path d="M15.5973 13.9727L15.0341 12.3958C15.3742 11.9698 15.5998 11.4639 15.6895 10.9262C15.7792 10.3885 15.7301 9.8368 15.5467 9.32343C15.3634 8.81005 15.0519 8.35203 14.6418 7.99281C14.2318 7.6336 13.7368 7.3851 13.2037 7.2709L11.8451 3.46667H12.2667C12.903 3.46595 13.513 3.21287 13.9629 2.76293C14.4129 2.313 14.666 1.70297 14.6667 1.06667V0.8C14.6667 0.587827 14.5824 0.384344 14.4324 0.234315C14.2823 0.0842855 14.0788 0 13.8667 0C13.6545 0 13.451 0.0842855 13.301 0.234315C13.151 0.384344 13.0667 0.587827 13.0667 0.8V1.06667C13.0664 1.27877 12.9821 1.48211 12.8321 1.63209C12.6821 1.78207 12.4788 1.86643 12.2667 1.86667H10.4C10.205 1.86665 10.0167 1.93787 9.87047 2.06695C9.72427 2.19602 9.63025 2.37405 9.6061 2.56757C9.58194 2.76109 9.6293 2.95677 9.73928 3.11782C9.84927 3.27888 10.0143 3.39421 10.2033 3.44213L10.7093 4.8588L6.47737 8.68757L4.2158 8.54617L4.01647 8.53383C4.011 8.5335 4.0055 8.53333 4 8.53333C3.9796 8.53333 3.9594 8.53423 3.93913 8.53487L2.7907 5.6H3.46667C3.67877 5.59976 3.88211 5.5154 4.03209 5.36542C4.18207 5.21545 4.26643 5.0121 4.26667 4.8V4.72923C4.26585 4.53689 4.1961 4.35121 4.07008 4.20589C3.94405 4.06058 3.7701 3.96527 3.5798 3.93727L0.913133 3.5563C0.799667 3.54009 0.684043 3.54845 0.57409 3.58082C0.464137 3.61319 0.362423 3.6688 0.275835 3.7439C0.189247 3.819 0.119807 3.91183 0.072217 4.0161C0.0246273 4.12037 -9.36373e-07 4.23365 0 4.34827V4.8C0.000238211 5.0121 0.0846002 5.21545 0.234578 5.36542C0.384555 5.5154 0.5879 5.59976 0.8 5.6H1.15133L2.5637 9.2092C2.40012 9.406 2.27884 9.63438 2.2074 9.88011C2.13596 10.1258 2.11591 10.3837 2.14849 10.6375C2.18106 10.8913 2.26558 11.1357 2.39675 11.3554C2.52793 11.5751 2.70296 11.7655 2.91093 11.9146L0.7515 13.8683C0.548199 13.8808 0.357325 13.9704 0.217717 14.1187C0.0781086 14.267 0.000255946 14.463 0 14.6667V15.2C0.000238211 15.4121 0.0846002 15.6154 0.234578 15.7654C0.384555 15.9154 0.5879 15.9998 0.8 16H1.33333C1.54543 15.9998 1.74878 15.9154 1.89876 15.7654C2.04873 15.6154 2.1331 15.4121 2.13333 15.2H13.8667C13.8669 15.4121 13.9513 15.6154 14.1012 15.7654C14.2512 15.9154 14.4546 15.9998 14.6667 16H15.2C15.4121 15.9998 15.6154 15.9154 15.7654 15.7654C15.9154 15.6154 15.9998 15.4121 16 15.2V14.6667C15.9999 14.5258 15.9626 14.3874 15.8919 14.2656C15.8212 14.1437 15.7195 14.0427 15.5973 13.9727ZM14.5567 8.66297C14.9226 9.08927 15.1446 9.62026 15.1909 10.1802C15.2372 10.7401 15.1054 11.3003 14.8145 11.7809L13.4233 7.8859C13.8624 8.04176 14.253 8.30963 14.5567 8.66297ZM14.993 13.8667H14.6667C14.6104 13.8667 14.5542 13.8727 14.4991 13.8845L10.7784 3.46667H11.2787L14.993 13.8667ZM13.5667 12.8588C12.994 13.0992 12.3555 13.1322 11.7611 12.9522C11.1668 12.7721 10.6538 12.3904 10.3107 11.8728L12.5421 11.7333C12.7413 11.7321 12.9376 11.6862 13.1167 11.599L13.5667 12.8588ZM11.5955 7.34C10.7884 7.58906 10.1118 8.14575 9.71187 8.8897L8.62153 8.82153L11.2589 6.3978L11.5955 7.34ZM11.775 7.8427L12.2046 9.04553L10.3104 8.9271C10.6569 8.4056 11.1751 8.02194 11.775 7.84277V7.8427ZM10.4 2.4H12.2667C12.6202 2.3996 12.9591 2.259 13.209 2.00904C13.459 1.75907 13.5996 1.42017 13.6 1.06667V0.8C13.6 0.729276 13.6281 0.661448 13.6781 0.611438C13.7281 0.561429 13.7959 0.533333 13.8667 0.533333C13.9374 0.533333 14.0052 0.561429 14.0552 0.611438C14.1052 0.661448 14.1333 0.729276 14.1333 0.8V1.06667C14.1328 1.56157 13.9359 2.03604 13.586 2.38599C13.236 2.73593 12.7616 2.93278 12.2667 2.93333H10.4C10.3293 2.93333 10.2614 2.90524 10.2114 2.85523C10.1614 2.80522 10.1333 2.73739 10.1333 2.66667C10.1333 2.59594 10.1614 2.52811 10.2114 2.47811C10.2614 2.4281 10.3293 2.4 10.4 2.4ZM10.9033 5.4024L11.0641 5.8524L7.88347 8.77537L7.2209 8.73393L10.9033 5.4024ZM0.533333 4.8V4.34827C0.533333 4.27776 0.561254 4.21012 0.61099 4.16015C0.660726 4.11018 0.728229 4.08193 0.798733 4.0816C0.811771 4.08161 0.824791 4.08254 0.8377 4.08437L3.50437 4.46533C3.5678 4.47467 3.62579 4.50644 3.6678 4.55488C3.70981 4.60332 3.73306 4.66522 3.73333 4.72933V4.8C3.73325 4.8707 3.70513 4.93848 3.65514 4.98847C3.60515 5.03847 3.53737 5.06659 3.46667 5.06667H0.8C0.7293 5.06659 0.661518 5.03847 0.611526 4.98847C0.561533 4.93848 0.533413 4.8707 0.533333 4.8ZM2.218 5.6L3.40423 8.6314C3.25797 8.6808 3.11844 8.74825 2.98887 8.83217L1.72403 5.6H2.218ZM2.66667 10.4C2.66705 10.0479 2.80658 9.71013 3.05484 9.46039C3.30311 9.21066 3.64 9.06914 3.99213 9.06667L12.3998 9.59217L12.9351 11.0911C12.8132 11.1623 12.6745 11.1999 12.5333 11.2C12.5278 11.2 12.5222 11.2 12.5167 11.2005L4.99217 11.6709L4.5937 10.9356C4.71962 10.7956 4.79202 10.6156 4.7981 10.4274C4.80418 10.2392 4.74356 10.055 4.62694 9.90714C4.51032 9.75933 4.34521 9.65748 4.16078 9.61959C3.97635 9.58171 3.78447 9.61023 3.61902 9.70011C3.45358 9.78999 3.32523 9.93546 3.25664 10.1108C3.18805 10.2861 3.18364 10.4801 3.24419 10.6584C3.30473 10.8366 3.42634 10.9878 3.58753 11.0851C3.74871 11.1824 3.9391 11.2196 4.12507 11.1902L4.40543 11.7076L4.18287 11.7215L3.99213 11.7333C3.64 11.7309 3.30311 11.5893 3.05484 11.3396C2.80658 11.0899 2.66705 10.7521 2.66667 10.4ZM4 10.6667C3.94726 10.6667 3.8957 10.651 3.85185 10.6217C3.80799 10.5924 3.77382 10.5508 3.75363 10.502C3.73345 10.4533 3.72817 10.3997 3.73846 10.348C3.74875 10.2962 3.77414 10.2487 3.81144 10.2114C3.84873 10.1741 3.89625 10.1487 3.94798 10.1385C3.9997 10.1282 4.05332 10.1334 4.10205 10.1536C4.15078 10.1738 4.19242 10.208 4.22173 10.2518C4.25103 10.2957 4.26667 10.3473 4.26667 10.4C4.26659 10.4707 4.23847 10.5385 4.18847 10.5885C4.13848 10.6385 4.0707 10.6666 4 10.6667ZM4 12.2667C4.0055 12.2667 4.011 12.2667 4.01647 12.2662L4.0898 12.2616L1.98167 14.1988C1.87029 14.0446 1.70769 13.935 1.52293 13.8896L3.4196 12.1738C3.60691 12.2353 3.80283 12.2667 4 12.2667ZM1.6 15.2C1.59992 15.2707 1.5718 15.3385 1.52181 15.3885C1.47182 15.4385 1.40403 15.4666 1.33333 15.4667H0.8C0.7293 15.4666 0.661518 15.4385 0.611526 15.3885C0.561533 15.3385 0.533413 15.2707 0.533333 15.2V14.6667C0.533413 14.596 0.561533 14.5282 0.611526 14.4782C0.661518 14.4282 0.7293 14.4001 0.8 14.4H1.33333C1.40403 14.4001 1.47182 14.4282 1.52181 14.4782C1.5718 14.5282 1.59992 14.596 1.6 14.6667V15.2ZM2.26077 14.6667L4.7629 12.3673L5.03623 12.8716L4.8019 12.9986C4.77077 13.0151 4.74322 13.0376 4.72084 13.0648C4.69846 13.092 4.68169 13.1234 4.67151 13.1571C4.66132 13.1908 4.65792 13.2262 4.66149 13.2613C4.66507 13.2963 4.67555 13.3303 4.69234 13.3613C4.70912 13.3923 4.73188 13.4196 4.75929 13.4417C4.78671 13.4639 4.81823 13.4803 4.85205 13.4902C4.88587 13.5001 4.92131 13.5031 4.95632 13.4992C4.99133 13.4953 5.02522 13.4845 5.05603 13.4675L5.9938 12.9592C6.02493 12.9427 6.05248 12.9202 6.07486 12.893C6.09724 12.8658 6.11401 12.8344 6.12419 12.8007C6.13438 12.7669 6.13779 12.7315 6.13421 12.6965C6.13063 12.6614 6.12015 12.6274 6.10336 12.5965C6.08658 12.5655 6.06382 12.5382 6.03641 12.516C6.00899 12.4939 5.97747 12.4774 5.94365 12.4676C5.90983 12.4577 5.8744 12.4546 5.83938 12.4585C5.80437 12.4624 5.77048 12.4732 5.73967 12.4903L5.5051 12.6174L5.27223 12.1877L9.71243 11.9102C10.0862 12.6082 10.7054 13.1429 11.4504 13.411C12.1954 13.679 13.0133 13.6615 13.7461 13.3616L14.0365 14.1748C13.9264 14.3151 13.8666 14.4883 13.8667 14.6667H2.26077ZM15.4667 15.2C15.4666 15.2707 15.4385 15.3385 15.3885 15.3885C15.3385 15.4385 15.2707 15.4666 15.2 15.4667H14.6667C14.596 15.4666 14.5282 15.4385 14.4782 15.3885C14.4282 15.3385 14.4001 15.2707 14.4 15.2V14.6667C14.4001 14.596 14.4282 14.5282 14.4782 14.4782C14.5282 14.4282 14.596 14.4001 14.6667 14.4H15.2C15.2707 14.4001 15.3385 14.4282 15.3885 14.4782C15.4385 14.5282 15.4666 14.596 15.4667 14.6667V15.2Z" fill="#171717"/>
</g>
<defs>
<clipPath id="clip0_1711_8252">
<rect width="16" height="16" fill="white"/>
</clipPath>
</defs>
</svg>
