<svg width="24" height="24" viewBox="0 0 24 24" fill="none" xmlns="http://www.w3.org/2000/svg">
<mask id="path-1-inside-1_1172_12750" fill="white">
<path d="M22.629 8.38449H20.3982C20.3432 7.85307 19.8928 7.43724 19.3471 7.43724H15.7003C15.1546 7.43724 14.7042 7.85307 14.6493 8.38449H8.00488C7.81034 8.38449 7.65261 8.54217 7.65261 8.73675C7.65261 8.93128 7.81034 9.08902 8.00488 9.08902H14.6436V10.422H1.371C1.0035 10.422 0.70453 10.123 0.70453 9.75548C0.70453 9.38799 1.0035 9.08902 1.371 9.08902H6.59591C6.79044 9.08902 6.94817 8.93128 6.94817 8.73675C6.94817 8.54222 6.79049 8.38449 6.59591 8.38449H4.11646V5.49263C4.11646 4.94185 4.56454 4.49378 5.11532 4.49378C5.6661 4.49378 6.11418 4.94185 6.11418 5.49263V5.84129C6.11418 6.03582 6.27191 6.19355 6.46644 6.19355C6.66097 6.19355 6.81871 6.03587 6.81871 5.84129V5.49263C6.81871 4.5534 6.05455 3.78925 5.11532 3.78925C4.17609 3.78925 3.41198 4.55335 3.41198 5.49263V8.38449H1.371C0.614999 8.38449 0 8.99949 0 9.75544C0 10.5114 0.614999 11.1264 1.371 11.1264H1.49461V17.9435C1.49461 18.8419 2.17092 19.5849 3.0411 19.6912V20.6854C3.0411 21.2682 3.51515 21.7422 4.09785 21.7422H19.9021C20.4849 21.7422 20.9589 21.2682 20.9589 20.6854V19.6912C21.8291 19.5849 22.5054 18.8419 22.5054 17.9435V11.1264H22.629C23.385 11.1264 24 10.5114 24 9.75548C24 8.99953 23.385 8.38449 22.629 8.38449ZM21.8009 17.9435C21.8009 18.5263 21.3268 19.0003 20.7441 19.0003H11.2144C11.0199 19.0003 10.8622 19.158 10.8622 19.3526C10.8622 19.5471 11.0199 19.7048 11.2144 19.7048H20.2544V20.6855C20.2544 20.8798 20.0964 21.0378 19.9021 21.0378H4.0978C3.90355 21.0378 3.74554 20.8798 3.74554 20.6855V19.7048H9.80543C9.99997 19.7048 10.1577 19.5471 10.1577 19.3526C10.1577 19.158 10 19.0003 9.80543 19.0003H3.25584C2.67314 19.0003 2.19909 18.5263 2.19909 17.9435V11.1264H14.6436V14.2836C14.6436 14.4781 14.8013 14.6358 14.9958 14.6358H16.6088C16.8033 14.6358 16.961 14.4781 16.961 14.2836C16.961 14.089 16.8033 13.9313 16.6088 13.9313H15.3481V8.49399C15.3481 8.29974 15.5061 8.14172 15.7004 8.14172H19.3472C19.5414 8.14172 19.6994 8.29974 19.6994 8.49399V13.9313H18.0178C17.8232 13.9313 17.6655 14.089 17.6655 14.2836C17.6655 14.4781 17.8232 14.6358 18.0178 14.6358H20.0517C20.2462 14.6358 20.4039 14.4781 20.4039 14.2836V11.1264H21.8009V17.9435H21.8009ZM22.629 10.422H20.4039V9.08902H22.629C22.9965 9.08902 23.2954 9.38799 23.2954 9.75548C23.2955 10.1229 22.9965 10.422 22.629 10.422Z"/>
</mask>
<path d="M22.629 8.38449H20.3982C20.3432 7.85307 19.8928 7.43724 19.3471 7.43724H15.7003C15.1546 7.43724 14.7042 7.85307 14.6493 8.38449H8.00488C7.81034 8.38449 7.65261 8.54217 7.65261 8.73675C7.65261 8.93128 7.81034 9.08902 8.00488 9.08902H14.6436V10.422H1.371C1.0035 10.422 0.70453 10.123 0.70453 9.75548C0.70453 9.38799 1.0035 9.08902 1.371 9.08902H6.59591C6.79044 9.08902 6.94817 8.93128 6.94817 8.73675C6.94817 8.54222 6.79049 8.38449 6.59591 8.38449H4.11646V5.49263C4.11646 4.94185 4.56454 4.49378 5.11532 4.49378C5.6661 4.49378 6.11418 4.94185 6.11418 5.49263V5.84129C6.11418 6.03582 6.27191 6.19355 6.46644 6.19355C6.66097 6.19355 6.81871 6.03587 6.81871 5.84129V5.49263C6.81871 4.5534 6.05455 3.78925 5.11532 3.78925C4.17609 3.78925 3.41198 4.55335 3.41198 5.49263V8.38449H1.371C0.614999 8.38449 0 8.99949 0 9.75544C0 10.5114 0.614999 11.1264 1.371 11.1264H1.49461V17.9435C1.49461 18.8419 2.17092 19.5849 3.0411 19.6912V20.6854C3.0411 21.2682 3.51515 21.7422 4.09785 21.7422H19.9021C20.4849 21.7422 20.9589 21.2682 20.9589 20.6854V19.6912C21.8291 19.5849 22.5054 18.8419 22.5054 17.9435V11.1264H22.629C23.385 11.1264 24 10.5114 24 9.75548C24 8.99953 23.385 8.38449 22.629 8.38449ZM21.8009 17.9435C21.8009 18.5263 21.3268 19.0003 20.7441 19.0003H11.2144C11.0199 19.0003 10.8622 19.158 10.8622 19.3526C10.8622 19.5471 11.0199 19.7048 11.2144 19.7048H20.2544V20.6855C20.2544 20.8798 20.0964 21.0378 19.9021 21.0378H4.0978C3.90355 21.0378 3.74554 20.8798 3.74554 20.6855V19.7048H9.80543C9.99997 19.7048 10.1577 19.5471 10.1577 19.3526C10.1577 19.158 10 19.0003 9.80543 19.0003H3.25584C2.67314 19.0003 2.19909 18.5263 2.19909 17.9435V11.1264H14.6436V14.2836C14.6436 14.4781 14.8013 14.6358 14.9958 14.6358H16.6088C16.8033 14.6358 16.961 14.4781 16.961 14.2836C16.961 14.089 16.8033 13.9313 16.6088 13.9313H15.3481V8.49399C15.3481 8.29974 15.5061 8.14172 15.7004 8.14172H19.3472C19.5414 8.14172 19.6994 8.29974 19.6994 8.49399V13.9313H18.0178C17.8232 13.9313 17.6655 14.089 17.6655 14.2836C17.6655 14.4781 17.8232 14.6358 18.0178 14.6358H20.0517C20.2462 14.6358 20.4039 14.4781 20.4039 14.2836V11.1264H21.8009V17.9435H21.8009ZM22.629 10.422H20.4039V9.08902H22.629C22.9965 9.08902 23.2954 9.38799 23.2954 9.75548C23.2955 10.1229 22.9965 10.422 22.629 10.422Z" fill="#171717"/>
<path d="M20.3982 8.38449L19.4035 8.4874L19.4963 9.38449H20.3982V8.38449ZM14.6493 8.38449V9.38449H15.5511L15.6439 8.4874L14.6493 8.38449ZM14.6436 9.08902H15.6436V8.08902H14.6436V9.08902ZM14.6436 10.422V11.422H15.6436V10.422H14.6436ZM4.11646 8.38449H3.11646V9.38449H4.11646V8.38449ZM3.41198 8.38449V9.38449H4.41198V8.38449H3.41198ZM1.49461 11.1264H2.49461V10.1264H1.49461V11.1264ZM3.0411 19.6912H4.0411V18.8059L3.16237 18.6986L3.0411 19.6912ZM20.9589 19.6912L20.8376 18.6986L19.9589 18.8059V19.6912H20.9589ZM22.5054 11.1264V10.1264H21.5054V11.1264H22.5054ZM21.8009 17.9435V16.9435H20.8009V17.9435H21.8009ZM20.2544 19.7048H21.2544V18.7048H20.2544V19.7048ZM3.74554 19.7048V18.7048H2.74554V19.7048H3.74554ZM2.19909 11.1264V10.1264H1.19909V11.1264H2.19909ZM14.6436 11.1264H15.6436V10.1264H14.6436V11.1264ZM15.3481 13.9313H14.3481V14.9313H15.3481V13.9313ZM19.6994 13.9313V14.9313H20.6994V13.9313H19.6994ZM20.4039 11.1264V10.1264H19.4039V11.1264H20.4039ZM21.8009 11.1264H22.8009V10.1264H21.8009V11.1264ZM21.8009 17.9435V18.9435H22.8009V17.9435H21.8009ZM20.4039 10.422H19.4039V11.422H20.4039V10.422ZM20.4039 9.08902V8.08902H19.4039V9.08902H20.4039ZM23.2954 9.75548H22.2954V9.75561L23.2954 9.75548ZM22.629 7.38449H20.3982V9.38449H22.629V7.38449ZM21.3929 8.28157C21.2858 7.2463 20.4111 6.43724 19.3471 6.43724V8.43724C19.3611 8.43724 19.373 8.44156 19.3845 8.45198C19.3969 8.46324 19.4023 8.47598 19.4035 8.4874L21.3929 8.28157ZM19.3471 6.43724H15.7003V8.43724H19.3471V6.43724ZM15.7003 6.43724C14.6363 6.43724 13.7617 7.2463 13.6546 8.28157L15.6439 8.4874C15.6451 8.47598 15.6505 8.46325 15.6629 8.45198C15.6744 8.44156 15.6864 8.43724 15.7003 8.43724V6.43724ZM14.6493 7.38449H8.00488V9.38449H14.6493V7.38449ZM8.00488 7.38449C7.25815 7.38449 6.65261 7.9898 6.65261 8.73675H8.65261C8.65261 9.09455 8.36254 9.38449 8.00488 9.38449V7.38449ZM6.65261 8.73675C6.65261 9.48357 7.25806 10.089 8.00488 10.089V8.08902C8.36263 8.08902 8.65261 8.379 8.65261 8.73675H6.65261ZM8.00488 10.089H14.6436V8.08902H8.00488V10.089ZM13.6436 9.08902V10.422H15.6436V9.08902H13.6436ZM14.6436 9.42195H1.371V11.422H14.6436V9.42195ZM1.371 9.42195C1.55578 9.42195 1.70453 9.5707 1.70453 9.75548H-0.29547C-0.29547 10.6753 0.451213 11.422 1.371 11.422V9.42195ZM1.70453 9.75548C1.70453 9.94027 1.55578 10.089 1.371 10.089V8.08902C0.451213 8.08902 -0.29547 8.8357 -0.29547 9.75548H1.70453ZM1.371 10.089H6.59591V8.08902H1.371V10.089ZM6.59591 10.089C7.34272 10.089 7.94817 9.48357 7.94817 8.73675H5.94817C5.94817 8.379 6.23816 8.08902 6.59591 8.08902V10.089ZM7.94817 8.73675C7.94817 7.99002 7.34286 7.38449 6.59591 7.38449V9.38449C6.23812 9.38449 5.94817 9.09442 5.94817 8.73675H7.94817ZM6.59591 7.38449H4.11646V9.38449H6.59591V7.38449ZM5.11646 8.38449V5.49263H3.11646V8.38449H5.11646ZM5.11646 5.49263C5.11646 5.49175 5.11653 5.49183 5.11639 5.49255C5.11625 5.49321 5.11605 5.49384 5.11585 5.49431C5.11551 5.4951 5.11555 5.49467 5.11645 5.49377C5.11736 5.49286 5.11779 5.49283 5.117 5.49316C5.11653 5.49336 5.1159 5.49357 5.11524 5.4937C5.11452 5.49385 5.11443 5.49378 5.11532 5.49378V3.49378C4.01225 3.49378 3.11646 4.38957 3.11646 5.49263H5.11646ZM5.11532 5.49378C5.1162 5.49378 5.11612 5.49385 5.1154 5.4937C5.11474 5.49357 5.11411 5.49336 5.11364 5.49316C5.11285 5.49283 5.11328 5.49286 5.11418 5.49377C5.11509 5.49467 5.11512 5.4951 5.11479 5.49431C5.11459 5.49384 5.11439 5.49321 5.11425 5.49255C5.1141 5.49183 5.11418 5.49175 5.11418 5.49263H7.11418C7.11418 4.38957 6.21838 3.49378 5.11532 3.49378V5.49378ZM5.11418 5.49263V5.84129H7.11418V5.49263H5.11418ZM5.11418 5.84129C5.11418 6.5881 5.71962 7.19355 6.46644 7.19355V5.19355C6.8242 5.19355 7.11418 5.48354 7.11418 5.84129H5.11418ZM6.46644 7.19355C7.21317 7.19355 7.81871 6.58824 7.81871 5.84129H5.81871C5.81871 5.4835 6.10877 5.19355 6.46644 5.19355V7.19355ZM7.81871 5.84129V5.49263H5.81871V5.84129H7.81871ZM7.81871 5.49263C7.81871 4.00112 6.60684 2.78925 5.11532 2.78925V4.78925C5.50227 4.78925 5.81871 5.10569 5.81871 5.49263H7.81871ZM5.11532 2.78925C3.62378 2.78925 2.41198 4.00109 2.41198 5.49263H4.41198C4.41198 5.10562 4.72839 4.78925 5.11532 4.78925V2.78925ZM2.41198 5.49263V8.38449H4.41198V5.49263H2.41198ZM3.41198 7.38449H1.371V9.38449H3.41198V7.38449ZM1.371 7.38449C0.0627358 7.38449 -1 8.44718 -1 9.75544H1C1 9.55179 1.16726 9.38449 1.371 9.38449V7.38449ZM-1 9.75544C-1 11.0637 0.0627364 12.1264 1.371 12.1264V10.1264C1.16726 10.1264 1 9.95908 1 9.75544H-1ZM1.371 12.1264H1.49461V10.1264H1.371V12.1264ZM0.494607 11.1264V17.9435H2.49461V11.1264H0.494607ZM0.494607 17.9435C0.494607 19.3544 1.55512 20.5171 2.91983 20.6838L3.16237 18.6986C2.78672 18.6527 2.49461 18.3294 2.49461 17.9435H0.494607ZM2.0411 19.6912V20.6854H4.0411V19.6912H2.0411ZM2.0411 20.6854C2.0411 21.8204 2.96286 22.7422 4.09785 22.7422V20.7422C4.08323 20.7422 4.07018 20.7373 4.05807 20.7252C4.04596 20.7131 4.0411 20.7001 4.0411 20.6854H2.0411ZM4.09785 22.7422H19.9021V20.7422H4.09785V22.7422ZM19.9021 22.7422C21.0371 22.7422 21.9589 21.8204 21.9589 20.6854H19.9589C19.9589 20.7001 19.954 20.7131 19.9419 20.7252C19.9298 20.7373 19.9168 20.7422 19.9021 20.7422V22.7422ZM21.9589 20.6854V19.6912H19.9589V20.6854H21.9589ZM21.0802 20.6838C22.4449 20.5171 23.5054 19.3544 23.5054 17.9435H21.5054C21.5054 18.3294 21.2133 18.6527 20.8376 18.6986L21.0802 20.6838ZM23.5054 17.9435V11.1264H21.5054V17.9435H23.5054ZM22.5054 12.1264H22.629V10.1264H22.5054V12.1264ZM22.629 12.1264C23.9372 12.1264 25 11.0638 25 9.75548H23C23 9.95911 22.8327 10.1264 22.629 10.1264V12.1264ZM25 9.75548C25 8.44723 23.9372 7.38449 22.629 7.38449V9.38449C22.8327 9.38449 23 9.55184 23 9.75548H25ZM20.8009 17.9435C20.8009 17.9582 20.796 17.9712 20.7839 17.9833C20.7718 17.9954 20.7587 18.0003 20.7441 18.0003V20.0003C21.8791 20.0003 22.8009 19.0785 22.8009 17.9435H20.8009ZM20.7441 18.0003H11.2144V20.0003H20.7441V18.0003ZM11.2144 18.0003C10.4676 18.0003 9.86218 18.6057 9.86218 19.3526H11.8622C11.8622 19.7103 11.5722 20.0003 11.2144 20.0003V18.0003ZM9.86218 19.3526C9.86218 20.0994 10.4676 20.7048 11.2144 20.7048V18.7048C11.5722 18.7048 11.8622 18.9948 11.8622 19.3526H9.86218ZM11.2144 20.7048H20.2544V18.7048H11.2144V20.7048ZM19.2544 19.7048V20.6855H21.2544V19.7048H19.2544ZM19.2544 20.6855C19.2544 20.3275 19.5441 20.0378 19.9021 20.0378V22.0378C20.6486 22.0378 21.2544 21.4321 21.2544 20.6855H19.2544ZM19.9021 20.0378H4.0978V22.0378H19.9021V20.0378ZM4.0978 20.0378C4.45584 20.0378 4.74554 20.3275 4.74554 20.6855H2.74554C2.74554 21.4321 3.35127 22.0378 4.0978 22.0378V20.0378ZM4.74554 20.6855V19.7048H2.74554V20.6855H4.74554ZM3.74554 20.7048H9.80543V18.7048H3.74554V20.7048ZM9.80543 20.7048C10.5522 20.7048 11.1577 20.0994 11.1577 19.3526H9.1577C9.1577 18.9948 9.44768 18.7048 9.80543 18.7048V20.7048ZM11.1577 19.3526C11.1577 18.6058 10.5524 18.0003 9.80543 18.0003V20.0003C9.44764 20.0003 9.1577 19.7102 9.1577 19.3526H11.1577ZM9.80543 18.0003H3.25584V20.0003H9.80543V18.0003ZM3.25584 18.0003C3.24121 18.0003 3.22817 17.9954 3.21606 17.9833C3.20395 17.9712 3.19909 17.9582 3.19909 17.9435H1.19909C1.19909 19.0785 2.12085 20.0003 3.25584 20.0003V18.0003ZM3.19909 17.9435V11.1264H1.19909V17.9435H3.19909ZM2.19909 12.1264H14.6436V10.1264H2.19909V12.1264ZM13.6436 11.1264V14.2836H15.6436V11.1264H13.6436ZM13.6436 14.2836C13.6436 15.0303 14.2489 15.6358 14.9958 15.6358V13.6358C15.3536 13.6358 15.6436 13.9259 15.6436 14.2836H13.6436ZM14.9958 15.6358H16.6088V13.6358H14.9958V15.6358ZM16.6088 15.6358C17.3556 15.6358 17.961 15.0304 17.961 14.2836H15.961C15.961 13.9258 16.251 13.6358 16.6088 13.6358V15.6358ZM17.961 14.2836C17.961 13.5367 17.3556 12.9313 16.6088 12.9313V14.9313C16.251 14.9313 15.961 14.6413 15.961 14.2836H17.961ZM16.6088 12.9313H15.3481V14.9313H16.6088V12.9313ZM16.3481 13.9313V8.49399H14.3481V13.9313H16.3481ZM16.3481 8.49399C16.3481 8.85202 16.0584 9.14172 15.7004 9.14172V7.14172C14.9538 7.14172 14.3481 7.74746 14.3481 8.49399H16.3481ZM15.7004 9.14172H19.3472V7.14172H15.7004V9.14172ZM19.3472 9.14172C18.9891 9.14172 18.6994 8.85202 18.6994 8.49399H20.6994C20.6994 7.74745 20.0937 7.14172 19.3472 7.14172V9.14172ZM18.6994 8.49399V13.9313H20.6994V8.49399H18.6994ZM19.6994 12.9313H18.0178V14.9313H19.6994V12.9313ZM18.0178 12.9313C17.271 12.9313 16.6655 13.5367 16.6655 14.2836H18.6655C18.6655 14.6413 18.3755 14.9313 18.0178 14.9313V12.9313ZM16.6655 14.2836C16.6655 15.0304 17.271 15.6358 18.0178 15.6358V13.6358C18.3755 13.6358 18.6655 13.9258 18.6655 14.2836H16.6655ZM18.0178 15.6358H20.0517V13.6358H18.0178V15.6358ZM20.0517 15.6358C20.7985 15.6358 21.4039 15.0304 21.4039 14.2836H19.4039C19.4039 13.9258 19.6939 13.6358 20.0517 13.6358V15.6358ZM21.4039 14.2836V11.1264H19.4039V14.2836H21.4039ZM20.4039 12.1264H21.8009V10.1264H20.4039V12.1264ZM20.8009 11.1264V17.9435H22.8009V11.1264H20.8009ZM21.8009 16.9435H21.8009V18.9435H21.8009V16.9435ZM22.629 9.42195H20.4039V11.422H22.629V9.42195ZM21.4039 10.422V9.08902H19.4039V10.422H21.4039ZM20.4039 10.089H22.629V8.08902H20.4039V10.089ZM22.629 10.089C22.4442 10.089 22.2954 9.94027 22.2954 9.75548H24.2954C24.2954 8.8357 23.5487 8.08902 22.629 8.08902V10.089ZM22.2954 9.75561C22.2954 9.57061 22.4442 9.42195 22.629 9.42195V11.422C23.5487 11.422 24.2955 10.6753 24.2954 9.75536L22.2954 9.75561Z" fill="#171717" mask="url(#path-1-inside-1_1172_12750)"/>
<mask id="path-3-inside-2_1172_12750" fill="white">
<path d="M9.23849 4.5325C9.45613 4.74409 9.58832 4.88682 9.58832 5.0844C9.58832 5.42617 9.24946 5.59614 9.23811 5.60176C9.06168 5.68374 8.98513 5.89323 9.06711 6.06967C9.14933 6.24788 9.36261 6.32195 9.53502 6.24067C9.81646 6.10988 10.2928 5.71918 10.2928 5.0844C10.2928 4.57492 9.96725 4.25842 9.72955 4.02733C9.63697 3.93728 9.53202 3.83528 9.50783 3.77439C9.38469 3.46417 9.69458 3.27151 9.75932 3.23533C9.92928 3.14312 9.99327 2.93087 9.9021 2.75997C9.8106 2.58831 9.59718 2.52339 9.42552 2.61494C9.40213 2.62741 9.19204 2.743 9.01808 2.95919C8.76247 3.27681 8.70388 3.65865 8.85304 4.03436C8.93282 4.23536 9.08821 4.38639 9.23849 4.5325Z"/>
</mask>
<path d="M9.23849 4.5325C9.45613 4.74409 9.58832 4.88682 9.58832 5.0844C9.58832 5.42617 9.24946 5.59614 9.23811 5.60176C9.06168 5.68374 8.98513 5.89323 9.06711 6.06967C9.14933 6.24788 9.36261 6.32195 9.53502 6.24067C9.81646 6.10988 10.2928 5.71918 10.2928 5.0844C10.2928 4.57492 9.96725 4.25842 9.72955 4.02733C9.63697 3.93728 9.53202 3.83528 9.50783 3.77439C9.38469 3.46417 9.69458 3.27151 9.75932 3.23533C9.92928 3.14312 9.99327 2.93087 9.9021 2.75997C9.8106 2.58831 9.59718 2.52339 9.42552 2.61494C9.40213 2.62741 9.19204 2.743 9.01808 2.95919C8.76247 3.27681 8.70388 3.65865 8.85304 4.03436C8.93282 4.23536 9.08821 4.38639 9.23849 4.5325Z" fill="#171717"/>
<path d="M9.23811 5.60176L9.65951 6.50864L9.67101 6.5033L9.68236 6.49766L9.23811 5.60176ZM9.06711 6.06967L9.97515 5.65076L9.97399 5.64827L9.06711 6.06967ZM9.53502 6.24067L9.1136 5.33378L9.10858 5.33615L9.53502 6.24067ZM9.72955 4.02733L9.03231 4.74416L9.03248 4.74433L9.72955 4.02733ZM9.50783 3.77439L8.57838 4.14333L8.57847 4.14356L9.50783 3.77439ZM9.75932 3.23533L9.28245 2.35626L9.27137 2.36246L9.75932 3.23533ZM9.9021 2.75997L9.01964 3.23036L9.01979 3.23065L9.9021 2.75997ZM9.42552 2.61494L9.89592 3.49739L9.8961 3.4973L9.42552 2.61494ZM9.01808 2.95919L9.79714 3.58614L9.79719 3.58608L9.01808 2.95919ZM8.85304 4.03436L9.7825 3.66543L9.78247 3.66537L8.85304 4.03436ZM8.54141 5.24949C8.59406 5.30068 8.62793 5.33461 8.65277 5.36131C8.67748 5.38787 8.68011 5.39342 8.67344 5.3838C8.66552 5.3724 8.64229 5.33659 8.62192 5.27922C8.60028 5.21828 8.58832 5.15117 8.58832 5.0844H10.5883C10.5883 4.39246 10.0813 3.95719 9.93556 3.8155L8.54141 5.24949ZM8.58832 5.0844C8.58832 4.89824 8.68577 4.78656 8.71125 4.76114C8.73375 4.7387 8.75382 4.72571 8.79386 4.70586L9.68236 6.49766C9.73375 6.47218 9.92893 6.3714 10.1237 6.17713C10.3214 5.97988 10.5883 5.61232 10.5883 5.0844H8.58832ZM8.81672 4.69488C8.13934 5.00964 7.84556 5.81386 8.16024 6.49106L9.97399 5.64827C10.1247 5.9726 9.98401 6.35785 9.65951 6.50864L8.81672 4.69488ZM8.15909 6.48857C8.47692 7.17751 9.29284 7.4604 9.96146 7.14518L9.10858 5.33615C9.43239 5.18349 9.82175 5.31826 9.97514 5.65076L8.15909 6.48857ZM9.95643 7.14753C10.4272 6.92876 11.2928 6.26104 11.2928 5.0844H9.2928C9.2928 5.13534 9.27771 5.17779 9.23773 5.2279C9.21598 5.25516 9.18933 5.28074 9.1616 5.30212C9.13271 5.32439 9.11323 5.33397 9.11361 5.3338L9.95643 7.14753ZM11.2928 5.0844C11.2928 4.10549 10.6404 3.51817 10.4266 3.31032L9.03248 4.74433C9.15954 4.86786 9.2198 4.93145 9.26075 4.99472C9.28945 5.03909 9.2928 5.05977 9.2928 5.0844H11.2928ZM10.4268 3.31049C10.4028 3.28715 10.3835 3.26833 10.3655 3.25037C10.3475 3.23243 10.3359 3.22038 10.3288 3.21272C10.3256 3.20917 10.3248 3.20822 10.326 3.20957C10.3269 3.21071 10.3317 3.21636 10.3389 3.22594C10.3457 3.23499 10.3587 3.2528 10.3741 3.27814C10.3887 3.30195 10.4135 3.34546 10.4372 3.40522L8.57847 4.14356C8.66809 4.36917 8.82776 4.53509 8.85725 4.56712C8.92047 4.63582 8.99114 4.70412 9.03231 4.74416L10.4268 3.31049ZM10.4373 3.40544C10.4769 3.50526 10.4928 3.63284 10.4657 3.76498C10.4409 3.88629 10.389 3.96853 10.3565 4.0108C10.3043 4.07883 10.2593 4.10145 10.2473 4.1082L9.27137 2.36246C9.19456 2.40539 8.96226 2.54244 8.76972 2.7934C8.54806 3.08232 8.35298 3.57549 8.57838 4.14333L10.4373 3.40544ZM10.2361 4.11432C10.8888 3.7603 11.1345 2.9455 10.7844 2.28929L9.01979 3.23065C8.85208 2.91625 8.96981 2.52595 9.28249 2.35633L10.2361 4.11432ZM10.7846 2.28958C10.4331 1.63018 9.61368 1.38126 8.95494 1.73258L9.8961 3.4973C9.58067 3.66552 9.18813 3.54645 9.01964 3.23036L10.7846 2.28958ZM8.95512 1.73249C8.88213 1.77139 8.53587 1.96331 8.23898 2.33229L9.79719 3.58608C9.81768 3.56061 9.84631 3.53447 9.87551 3.51272C9.90341 3.49195 9.91719 3.48605 9.89592 3.49739L8.95512 1.73249ZM8.23902 2.33224C7.75993 2.92757 7.64013 3.68931 7.9236 4.40335L9.78247 3.66537C9.77502 3.64659 9.77306 3.63518 9.77251 3.6307C9.77198 3.62645 9.77236 3.62563 9.7722 3.62671C9.77203 3.62776 9.77204 3.62616 9.77439 3.62097C9.77684 3.61556 9.78306 3.60364 9.79714 3.58614L8.23902 2.33224ZM7.92358 4.40328C8.09542 4.83621 8.41899 5.13047 8.5414 5.24949L9.93557 3.81551C9.89644 3.77746 9.86795 3.74968 9.84163 3.72273C9.81627 3.69675 9.79939 3.67805 9.78762 3.66392C9.76399 3.63555 9.77168 3.63818 9.7825 3.66543L7.92358 4.40328Z" fill="#171717" mask="url(#path-3-inside-2_1172_12750)"/>
<path d="M15.3008 5.60176C15.3121 5.59618 15.651 5.42617 15.651 5.0844C15.651 4.88682 15.5188 4.74409 15.3011 4.5325M15.3008 5.60176L15.5832 5.85897C15.5484 5.78508 15.4651 5.75478 15.3915 5.78533C15.39 5.78594 15.3885 5.78659 15.387 5.78725C15.387 5.78726 15.387 5.78727 15.387 5.78727C15.3861 5.78764 15.3853 5.78802 15.3845 5.78841L15.3869 5.78725L15.3869 5.78726C15.387 5.78725 15.387 5.78725 15.387 5.78724C15.3885 5.78656 15.3899 5.78588 15.3914 5.78518C15.5782 5.69643 15.8555 5.44537 15.8555 5.0844C15.8555 4.80965 15.6934 4.62856 15.4437 4.38586L15.3011 4.5325M15.3008 5.60176C15.1244 5.68374 15.0478 5.89323 15.1298 6.06967L15.3008 5.60176ZM15.3011 4.5325L15.4437 4.38584L15.3011 4.5325ZM15.4883 2.61496L15.4883 2.61494L15.4883 2.61496ZM15.4883 2.61496L15.4883 2.61506M15.4883 2.61496L15.4883 2.61506M15.4883 2.61506L15.4883 2.61508L15.4883 2.61506ZM15.674 4.19757C15.6657 4.18952 15.6576 4.18168 15.6497 4.17406L15.5833 5.85897C15.5833 5.85917 15.5834 5.85937 15.5835 5.85958C15.5836 5.85979 15.5837 5.86 15.5838 5.86021C15.6156 5.93029 15.5881 6.01248 15.522 6.04979C15.5186 6.05172 15.5151 6.05352 15.5115 6.0552L15.5116 6.05533L15.5222 6.05009C15.5516 6.03555 15.6929 5.96314 15.8333 5.82313C15.9752 5.68154 16.151 5.43379 16.151 5.0844C16.151 4.65889 15.8584 4.37595 15.674 4.19757Z" fill="#171717" stroke="#171717"/>
<path d="M12.0746 3.38549L11.8845 3.46095L12.3492 3.27646C12.2673 3.06992 12.2952 2.87803 12.4391 2.69926L12.4392 2.69918C12.5455 2.56705 12.6782 2.49064 12.6911 2.48333C12.6916 2.48307 12.6919 2.48289 12.6921 2.48281C12.6922 2.48276 12.6922 2.48274 12.6922 2.48276C12.6918 2.48294 12.6915 2.48312 12.6911 2.48331C12.6194 2.52074 12.5307 2.49354 12.4924 2.42195C12.4924 2.42195 12.4924 2.42194 12.4924 2.42193C12.4924 2.4219 12.4924 2.42188 12.4924 2.42185C12.4923 2.42182 12.4923 2.42179 12.4923 2.42176C12.4551 2.35186 12.4797 2.26558 12.5471 2.22541C12.5488 2.22438 12.5506 2.22338 12.5524 2.22241L12.5524 2.22237L12.5471 2.22534C12.4937 2.25512 12.3369 2.34851 12.2071 2.5125C12.2071 2.51251 12.2071 2.51252 12.2071 2.51253C12.2041 2.51635 12.201 2.52021 12.1981 2.52411C12.0521 2.71429 11.931 3.02384 12.0746 3.38549ZM12.27 3.95905C12.4876 4.17064 12.6198 4.31337 12.6198 4.511C12.6198 4.85276 12.281 5.02273 12.2697 5.02831C12.0932 5.11029 12.0167 5.31978 12.0986 5.49617C12.1808 5.67439 12.3941 5.7485 12.5665 5.66721L12.27 3.95905Z" fill="#171717" stroke="#171717"/>
</svg>
