<svg width="37" height="44" viewBox="0 0 37 44" fill="none" xmlns="http://www.w3.org/2000/svg">
<path d="M36.3459 6.87491C28.8378 6.87491 23.086 4.72983 18.222 0C13.3587 4.72983 7.60713 6.87491 0.0997223 6.87491C0.0997223 19.1912 -2.44886 36.8353 18.222 44C38.8943 36.8351 36.3459 19.1912 36.3459 6.87491Z" fill="#00634F"/>
<path fill-rule="evenodd" clip-rule="evenodd" d="M18.1664 7.46375L18.5215 7.82209L30.227 19.6333L30.3718 19.7795V19.9853V31.7027V32.2027H29.8718H18.4451H18.0905L17.9732 31.8681L15.2791 24.1814L15.0459 23.5161H15.751H20.6747H21.3317L21.1566 24.1493L20.0418 28.1802L19.078 27.9136L20.0176 24.5161H16.456L18.7997 31.2027H29.3718V20.191L18.1664 8.88436L6.96094 20.191V28.6093H5.96094V19.9853V19.7795L6.1058 19.6333L17.8112 7.82209L18.1664 7.46375ZM18.0735 21.4225C18.8467 21.4225 19.4889 20.7875 19.4889 19.9853C19.4889 19.183 18.8467 18.548 18.0735 18.548C17.3002 18.548 16.6581 19.183 16.6581 19.9853C16.6581 20.7875 17.3002 21.4225 18.0735 21.4225ZM18.0735 22.4225C19.4075 22.4225 20.4889 21.3313 20.4889 19.9853C20.4889 18.6392 19.4075 17.548 18.0735 17.548C16.7395 17.548 15.6581 18.6392 15.6581 19.9853C15.6581 21.3313 16.7395 22.4225 18.0735 22.4225Z" fill="white"/>
</svg>
