<svg width="28" height="28" viewBox="0 0 28 28" fill="none" xmlns="http://www.w3.org/2000/svg">
<path d="M2.67163 9.07672V20.4284C2.67163 22.6451 4.24663 23.5551 6.15996 22.4584L8.90163 20.8951C9.49663 20.5567 10.4883 20.5217 11.1066 20.8367L17.2316 23.9051C17.85 24.2084 18.8416 24.1851 19.4366 23.8467L24.4883 20.9534C25.13 20.5801 25.6666 19.6701 25.6666 18.9234V7.57172C25.6666 5.35505 24.0916 4.44505 22.1783 5.54172L19.4366 7.10505C18.8416 7.44339 17.85 7.47839 17.2316 7.16339L11.1066 4.10672C10.4883 3.80339 9.49663 3.82672 8.90163 4.16505L3.84996 7.05839C3.19663 7.43172 2.67163 8.34172 2.67163 9.07672Z" stroke="#E7B242" stroke-width="1.5" stroke-linecap="round" stroke-linejoin="round"/>
<path d="M9.98669 4.66675V19.8334" stroke="#E7B242" stroke-width="1.5" stroke-linecap="round" stroke-linejoin="round"/>
<path d="M18.3517 7.72339V23.3334" stroke="#E7B242" stroke-width="1.5" stroke-linecap="round" stroke-linejoin="round"/>
</svg>
