<svg width="39" height="58" viewBox="0 0 39 58" fill="none" xmlns="http://www.w3.org/2000/svg">
<path d="M36.3365 28.7225C38.0295 25.8944 39 22.6016 39 19.0869C39 8.54552 30.2696 0 19.5 0C8.73045 0 0 8.54552 0 19.0869C0 22.6016 0.970513 25.8944 2.66353 28.7225H2.61251L19.5 57.3529L36.3875 28.7225H36.3365Z" fill="#00634F"/>
<path d="M19.4977 17.6804C19.1783 17.6804 18.866 17.7746 18.6004 17.9512C18.3348 18.1278 18.1277 18.3787 18.0055 18.6724C17.8832 18.966 17.8513 19.2891 17.9136 19.6008C17.9759 19.9125 18.1297 20.1989 18.3556 20.4236C18.5815 20.6484 18.8693 20.8014 19.1826 20.8634C19.4959 20.9254 19.8207 20.8936 20.1158 20.772C20.4109 20.6503 20.6632 20.4444 20.8407 20.1801C21.0181 19.9158 21.1129 19.6052 21.1129 19.2873C21.1129 19.0763 21.0711 18.8673 20.9899 18.6724C20.9088 18.4774 20.7898 18.3002 20.6398 18.151C20.4898 18.0018 20.3118 17.8834 20.1158 17.8027C19.9198 17.7219 19.7098 17.6804 19.4977 17.6804ZM19.4977 21.3243C19.0922 21.3243 18.6957 21.2046 18.3585 20.9805C18.0213 20.7563 17.7585 20.4377 17.6033 20.0649C17.4481 19.6921 17.4075 19.2819 17.4866 18.8862C17.5657 18.4904 17.761 18.1269 18.0478 17.8416C18.3346 17.5563 18.6999 17.362 19.0977 17.2833C19.4954 17.2046 19.9077 17.245 20.2824 17.3994C20.6571 17.5538 20.9773 17.8153 21.2026 18.1508C21.4279 18.4863 21.5482 18.8807 21.5482 19.2842C21.5482 19.8253 21.3322 20.3442 20.9476 20.7267C20.5631 21.1093 20.0415 21.3243 19.4977 21.3243Z" fill="white"/>
<path d="M29.6067 29.8126H19.7296C19.6846 29.812 19.6408 29.7977 19.6041 29.7716C19.5675 29.7455 19.5397 29.7089 19.5246 29.6666L17.2075 22.9312C17.196 22.8989 17.1925 22.8643 17.1975 22.8304C17.2024 22.7965 17.2156 22.7643 17.2359 22.7366C17.256 22.7086 17.2825 22.6857 17.3132 22.6698C17.3439 22.654 17.378 22.6457 17.4126 22.6456H21.7707C21.8045 22.6458 21.8377 22.6539 21.8679 22.6691C21.898 22.6844 21.9241 22.7064 21.9442 22.7335C21.9644 22.7603 21.9779 22.7914 21.9837 22.8244C21.9895 22.8575 21.9873 22.8913 21.9773 22.9234L20.9552 26.2958C20.9482 26.3241 20.9354 26.3507 20.9178 26.3739C20.9001 26.3971 20.8778 26.4166 20.8524 26.431C20.8269 26.4454 20.7988 26.4545 20.7697 26.4578C20.7406 26.4611 20.7111 26.4584 20.6831 26.45C20.655 26.4416 20.629 26.4276 20.6065 26.4089C20.5841 26.3901 20.5657 26.3671 20.5525 26.341C20.5393 26.315 20.5316 26.2866 20.5298 26.2575C20.5279 26.2284 20.5321 26.1993 20.542 26.1718L21.4773 23.0771H17.7154L19.8842 29.381H29.3891V19.4944L19.5451 9.6957L9.60808 19.5823V26.4872C9.60808 26.5443 9.58531 26.5989 9.54479 26.6393C9.50426 26.6796 9.4493 26.7022 9.39199 26.7022C9.33468 26.7022 9.27971 26.6796 9.23919 26.6393C9.19866 26.5989 9.1759 26.5443 9.1759 26.4872V19.4944C9.17493 19.4653 9.18004 19.4364 9.1909 19.4094C9.20176 19.3824 9.21813 19.3579 9.23899 19.3375L19.3921 9.23904C19.4328 9.19898 19.4878 9.17651 19.5451 9.17651C19.6024 9.17651 19.6574 9.19898 19.6981 9.23904L29.7597 19.2496C29.8008 19.2916 29.8235 19.348 29.8228 19.4065V29.607C29.8228 29.6642 29.8001 29.719 29.7596 29.7596C29.7192 29.8002 29.6642 29.8232 29.6067 29.8236" fill="white"/>
</svg>
