<svg width="24" height="24" viewBox="0 0 24 24" fill="none" xmlns="http://www.w3.org/2000/svg">
<mask id="path-1-inside-1_1172_12738" fill="white">
<path d="M22.3999 10H2.39994C2.33399 9.99996 2.26908 9.98362 2.21097 9.95243C2.15285 9.92125 2.10335 9.87619 2.06686 9.82125C2.03036 9.76632 2.00801 9.70322 2.00179 9.63756C1.99556 9.57191 2.00566 9.50573 2.03118 9.44492C2.76716 7.69296 3.89981 6.13578 5.33994 4.896C7.32486 3.22454 9.78105 2.21274 12.3673 2.00116C12.3913 1.99967 12.4154 1.99994 12.4393 2.00196C15.2104 2.26811 17.8196 3.42851 19.8732 5.308C21.1135 6.47075 22.0989 7.87831 22.7671 9.4416C22.7934 9.50245 22.8041 9.56886 22.7983 9.63486C22.7925 9.70087 22.7705 9.76441 22.7341 9.81978C22.6977 9.87514 22.6481 9.92059 22.5897 9.95205C22.5314 9.98351 22.4662 9.99998 22.3999 10ZM3.01995 9.2H21.7747C21.1655 7.95842 20.3361 6.83767 19.3267 5.8922C17.4111 4.14045 14.9797 3.05615 12.3964 2.80156C9.9907 3.00531 7.70718 3.94941 5.85994 5.504C4.66979 6.52817 3.70309 7.78625 3.01995 9.2Z"/>
</mask>
<path d="M22.3999 10H2.39994C2.33399 9.99996 2.26908 9.98362 2.21097 9.95243C2.15285 9.92125 2.10335 9.87619 2.06686 9.82125C2.03036 9.76632 2.00801 9.70322 2.00179 9.63756C1.99556 9.57191 2.00566 9.50573 2.03118 9.44492C2.76716 7.69296 3.89981 6.13578 5.33994 4.896C7.32486 3.22454 9.78105 2.21274 12.3673 2.00116C12.3913 1.99967 12.4154 1.99994 12.4393 2.00196C15.2104 2.26811 17.8196 3.42851 19.8732 5.308C21.1135 6.47075 22.0989 7.87831 22.7671 9.4416C22.7934 9.50245 22.8041 9.56886 22.7983 9.63486C22.7925 9.70087 22.7705 9.76441 22.7341 9.81978C22.6977 9.87514 22.6481 9.92059 22.5897 9.95205C22.5314 9.98351 22.4662 9.99998 22.3999 10ZM3.01995 9.2H21.7747C21.1655 7.95842 20.3361 6.83767 19.3267 5.8922C17.4111 4.14045 14.9797 3.05615 12.3964 2.80156C9.9907 3.00531 7.70718 3.94941 5.85994 5.504C4.66979 6.52817 3.70309 7.78625 3.01995 9.2Z" fill="#171717"/>
<path d="M22.3999 10V18H22.4019L22.3999 10ZM2.39994 10L2.39484 18H2.39994V10ZM2.03118 9.44492L-5.34444 6.34651L-5.34543 6.34887L2.03118 9.44492ZM5.33994 4.896L0.186936 -1.22335L0.153598 -1.19528L0.120567 -1.16685L5.33994 4.896ZM12.3673 2.00116L11.8716 -5.98346L11.7933 -5.9786L11.7151 -5.9722L12.3673 2.00116ZM12.4393 2.00196L13.2042 -5.96139L13.1583 -5.9658L13.1124 -5.96968L12.4393 2.00196ZM19.8732 5.308L25.3446 -0.528409L25.3097 -0.561126L25.2744 -0.593422L19.8732 5.308ZM22.7671 9.4416L15.411 12.5859L15.416 12.5977L15.4211 12.6096L22.7671 9.4416ZM21.7747 9.2V17.2H34.6115L28.9567 5.67587L21.7747 9.2ZM19.3267 5.8922L24.7959 0.0536574L24.7608 0.0208441L24.7254 -0.0115464L19.3267 5.8922ZM12.3964 2.80156L13.181 -5.15987L12.4516 -5.23176L11.7213 -5.1699L12.3964 2.80156ZM5.85994 5.504L0.708755 -0.616885L0.675102 -0.588564L0.641763 -0.559874L5.85994 5.504ZM22.3999 2H2.39994V18H22.3999V2ZM2.40505 2C3.65747 2.0008 4.89025 2.31111 5.99377 2.90329L-1.57184 17.0016C-0.3521 17.6561 1.01052 17.9991 2.39484 18L2.40505 2ZM5.99377 2.90329C7.09729 3.49548 8.03738 4.35121 8.73041 5.39441L-4.5967 14.2481C-3.83068 15.4012 -2.79158 16.347 -1.57184 17.0016L5.99377 2.90329ZM8.73041 5.39441C9.42345 6.4376 9.84791 7.63589 9.96609 8.88267L-5.96252 10.3925C-5.8319 11.7706 -5.36273 13.095 -4.5967 14.2481L8.73041 5.39441ZM9.96609 8.88267C10.0843 10.1295 9.89248 11.3862 9.4078 12.541L-5.34543 6.34887C-5.88116 7.62529 -6.09314 9.01433 -5.96252 10.3925L9.96609 8.88267ZM9.40681 12.5433C9.66317 11.9331 10.0577 11.3907 10.5593 10.9588L0.120567 -1.16685C-2.25807 0.880871 -4.12884 3.45283 -5.34444 6.34651L9.40681 12.5433ZM10.493 11.0154C11.2066 10.4144 12.0897 10.0506 13.0196 9.97452L11.7151 -5.9722C7.47237 -5.62511 3.44309 -3.96531 0.186936 -1.22335L10.493 11.0154ZM12.8631 9.98578C12.4977 10.0085 12.1311 10.0044 11.7663 9.9736L13.1124 -5.96968C12.6997 -6.00452 12.285 -6.00913 11.8716 -5.98346L12.8631 9.98578ZM11.6745 9.96532C12.7173 10.0655 13.6992 10.5021 14.472 11.2094L25.2744 -0.593422C21.9401 -3.64512 17.7035 -5.52926 13.2042 -5.96139L11.6745 9.96532ZM14.4018 11.1444C14.8343 11.5499 15.1779 12.0407 15.411 12.5859L30.1233 6.29733C29.0199 3.7159 27.3927 1.39162 25.3446 -0.528409L14.4018 11.1444ZM15.4211 12.6096C14.9226 11.4536 14.719 10.1918 14.8288 8.9376L30.7679 10.3321C30.8892 8.94588 30.6642 7.55128 30.1131 6.2736L15.4211 12.6096ZM14.8288 8.9376C14.9385 7.68336 15.3581 6.47611 16.0498 5.42425L29.4183 14.2153C30.1828 13.0527 30.6466 11.7184 30.7679 10.3321L14.8288 8.9376ZM16.0498 5.42425C16.7415 4.37236 17.6837 3.50877 18.7918 2.91107L26.3877 16.993C27.6124 16.3324 28.6538 15.3779 29.4183 14.2153L16.0498 5.42425ZM18.7918 2.91107C19.8998 2.31338 21.139 2.00032 22.3979 2L22.4019 18C23.7934 17.9997 25.163 17.6536 26.3877 16.993L18.7918 2.91107ZM3.01995 17.2H21.7747V1.2H3.01995V17.2ZM28.9567 5.67587C27.9212 3.56558 26.5114 1.66066 24.7959 0.0536574L13.8576 11.7307C14.1607 12.0147 14.4098 12.3513 14.5928 12.7241L28.9567 5.67587ZM24.7254 -0.0115464C21.5344 -2.92957 17.4843 -4.73578 13.181 -5.15987L11.6118 10.763C12.4752 10.8481 13.2878 11.2105 13.9281 11.7959L24.7254 -0.0115464ZM11.7213 -5.1699C7.66816 -4.82662 3.82094 -3.23603 0.708755 -0.616885L11.0111 11.6249C11.5934 11.1348 12.3132 10.8372 13.0716 10.773L11.7213 -5.1699ZM0.641763 -0.559874C-1.38022 1.18011 -3.02258 3.3175 -4.18319 5.71936L10.2231 12.6806C10.4288 12.255 10.7198 11.8762 11.0781 11.5679L0.641763 -0.559874Z" fill="#171717" mask="url(#path-1-inside-1_1172_12738)"/>
<mask id="path-3-inside-2_1172_12738" fill="white">
<path d="M7.71683 11.6H3.48323C3.22631 11.601 2.97592 11.5191 2.76926 11.3664C2.56259 11.2138 2.41066 10.9986 2.33603 10.7527L2.01767 9.71757C1.99927 9.65775 1.99517 9.59444 2.0057 9.53274C2.01622 9.47104 2.04108 9.41267 2.07827 9.36233C2.11547 9.31199 2.16395 9.27108 2.21984 9.24288C2.27572 9.21469 2.33744 9.20001 2.40003 9.20001H8.80002C8.86261 9.20003 8.92431 9.21472 8.98018 9.24292C9.03604 9.27112 9.08451 9.31204 9.12169 9.36238C9.15887 9.41272 9.18372 9.47108 9.19424 9.53277C9.20476 9.59446 9.20066 9.65776 9.18227 9.71757L8.86371 10.7527C8.78915 10.9986 8.63728 11.2138 8.43067 11.3664C8.22405 11.5191 7.97371 11.601 7.71683 11.6ZM2.94163 10L3.10083 10.5176C3.12575 10.5995 3.1764 10.6712 3.24528 10.7221C3.31416 10.773 3.3976 10.8003 3.48323 10.8H7.71683C7.80244 10.8003 7.88586 10.773 7.95472 10.7221C8.02358 10.6712 8.0742 10.5995 8.09907 10.5176L8.25843 10H2.94163Z"/>
</mask>
<path d="M7.71683 11.6H3.48323C3.22631 11.601 2.97592 11.5191 2.76926 11.3664C2.56259 11.2138 2.41066 10.9986 2.33603 10.7527L2.01767 9.71757C1.99927 9.65775 1.99517 9.59444 2.0057 9.53274C2.01622 9.47104 2.04108 9.41267 2.07827 9.36233C2.11547 9.31199 2.16395 9.27108 2.21984 9.24288C2.27572 9.21469 2.33744 9.20001 2.40003 9.20001H8.80002C8.86261 9.20003 8.92431 9.21472 8.98018 9.24292C9.03604 9.27112 9.08451 9.31204 9.12169 9.36238C9.15887 9.41272 9.18372 9.47108 9.19424 9.53277C9.20476 9.59446 9.20066 9.65776 9.18227 9.71757L8.86371 10.7527C8.78915 10.9986 8.63728 11.2138 8.43067 11.3664C8.22405 11.5191 7.97371 11.601 7.71683 11.6ZM2.94163 10L3.10083 10.5176C3.12575 10.5995 3.1764 10.6712 3.24528 10.7221C3.31416 10.773 3.3976 10.8003 3.48323 10.8H7.71683C7.80244 10.8003 7.88586 10.773 7.95472 10.7221C8.02358 10.6712 8.0742 10.5995 8.09907 10.5176L8.25843 10H2.94163Z" fill="#171717"/>
<path d="M3.48323 11.6V3.60001H3.46816L3.45309 3.60007L3.48323 11.6ZM2.33603 10.7527L9.99103 8.42876L9.98683 8.4149L9.98257 8.40106L2.33603 10.7527ZM2.01767 9.71757L-5.62902 12.0688L-5.62888 12.0692L2.01767 9.71757ZM2.40003 9.20001L2.39951 17.2H2.40003V9.20001ZM8.80002 9.20001L8.80191 1.20001H8.80002V9.20001ZM9.18227 9.71757L16.8284 12.0706L16.829 12.0688L9.18227 9.71757ZM8.86371 10.7527L1.21758 8.39971L1.21279 8.41527L1.20806 8.43085L8.86371 10.7527ZM2.94163 10V2.00001H-7.88906L-4.70481 12.352L2.94163 10ZM3.10083 10.5176L10.7545 8.1891L10.7509 8.17732L10.7473 8.16555L3.10083 10.5176ZM3.48323 10.8V2.80001H3.47069L3.45815 2.80005L3.48323 10.8ZM7.71683 10.8L7.74347 2.80006L7.73015 2.80001H7.71683V10.8ZM8.09907 10.5176L0.453293 8.16339L0.448635 8.17852L0.444038 8.19366L8.09907 10.5176ZM8.25843 10L15.9042 12.3542L19.0923 2.00001H8.25843V10ZM7.71683 3.60001H3.48323V19.6H7.71683V3.60001ZM3.45309 3.60007C4.91728 3.59455 6.34422 4.06139 7.52203 4.93128L-1.98351 17.8016C-0.392372 18.9767 1.53533 19.6074 3.51336 19.6L3.45309 3.60007ZM7.52203 4.93128C8.69983 5.80116 9.56569 7.0277 9.99103 8.42876L-5.31898 13.0767C-4.74437 14.9695 -3.57465 16.6264 -1.98351 17.8016L7.52203 4.93128ZM9.98257 8.40106L9.66421 7.3659L-5.62888 12.0692L-5.31052 13.1044L9.98257 8.40106ZM9.66435 7.36637C10.0139 8.50308 10.0917 9.70594 9.89174 10.8782L-5.88035 8.18727C-6.10141 9.48293 -6.01533 10.8124 -5.62902 12.0688L9.66435 7.36637ZM9.89174 10.8782C9.69174 12.0505 9.21942 13.1595 8.51278 14.116L-4.35623 4.60868C-5.13726 5.66588 -5.65929 6.8916 -5.88035 8.18727L9.89174 10.8782ZM8.51278 14.116C7.80613 15.0725 6.88488 15.8498 5.82314 16.3854L-1.38347 2.10032C-2.55697 2.69233 -3.5752 3.55148 -4.35623 4.60868L8.51278 14.116ZM5.82314 16.3854C4.76138 16.9211 3.58874 17.2001 2.39951 17.2L2.40054 1.20001C1.08613 1.19993 -0.209949 1.5083 -1.38347 2.10032L5.82314 16.3854ZM2.40003 17.2H8.80002V1.20001H2.40003V17.2ZM8.79814 17.2C7.6091 17.1997 6.43673 16.9205 5.37527 16.3847L12.5851 2.10117C11.4119 1.50898 10.1161 1.20032 8.80191 1.20001L8.79814 17.2ZM5.37527 16.3847C4.31384 15.8489 3.39289 15.0716 2.68647 14.1151L15.5569 4.6097C14.7761 3.55252 13.7582 2.69334 12.5851 2.10117L5.37527 16.3847ZM2.68647 14.1151C1.98009 13.1586 1.50798 12.0497 1.30809 10.8776L17.0804 8.18789C16.8595 6.89242 16.3377 5.66684 15.5569 4.6097L2.68647 14.1151ZM1.30809 10.8776C1.10821 9.70554 1.18612 8.50289 1.53558 7.36637L16.829 12.0688C17.2152 10.8126 17.3013 9.48337 17.0804 8.18789L1.30809 10.8776ZM1.53614 7.36455L1.21758 8.39971L16.5098 13.1058L16.8284 12.0706L1.53614 7.36455ZM1.20806 8.43085C1.63315 7.02926 2.49902 5.80219 3.67704 4.9319L13.1843 17.8009C14.7755 16.6254 15.9451 14.9679 16.5193 13.0746L1.20806 8.43085ZM3.67704 4.9319C4.85507 4.06161 6.2824 3.59454 7.74702 3.60007L7.68663 19.6C9.66501 19.6074 11.593 18.9765 13.1843 17.8009L3.67704 4.9319ZM-4.70481 12.352L-4.54561 12.8696L10.7473 8.16555L10.5881 7.64799L-4.70481 12.352ZM-4.55281 12.846C-4.02743 14.573 -2.95962 16.0847 -1.50763 17.1571L7.9982 4.28703C9.31243 5.25772 10.2789 6.62601 10.7545 8.1891L-4.55281 12.846ZM-1.50763 17.1571C-0.0556474 18.2296 1.70323 18.8056 3.5083 18.8L3.45815 2.80005C5.09197 2.79493 6.68397 3.31635 7.9982 4.28703L-1.50763 17.1571ZM3.48323 18.8H7.71683V2.80001H3.48323V18.8ZM7.69018 18.8C9.49634 18.806 11.2563 18.2295 12.7089 17.1562L3.20052 4.288C4.51542 3.31641 6.10854 2.79461 7.74347 2.80006L7.69018 18.8ZM12.7089 17.1562C14.1615 16.0828 15.2294 14.5698 15.7541 12.8415L0.444038 8.19366C0.918968 6.62923 1.88561 5.2596 3.20052 4.288L12.7089 17.1562ZM15.7448 12.8718L15.9042 12.3542L0.612652 7.64583L0.453293 8.16339L15.7448 12.8718ZM8.25843 2.00001H2.94163V18H8.25843V2.00001Z" fill="#171717" mask="url(#path-3-inside-2_1172_12738)"/>
<mask id="path-5-inside-3_1172_12738" fill="white">
<path d="M14.8766 11.6H9.92351C9.67405 11.5999 9.43083 11.5221 9.22763 11.3774C9.02444 11.2327 8.87137 11.0283 8.78971 10.7926L8.42215 9.73085C8.40129 9.6706 8.39514 9.60623 8.40421 9.54312C8.41328 9.48 8.43731 9.41997 8.47429 9.36803C8.51127 9.31608 8.56013 9.27373 8.6168 9.24451C8.67347 9.21528 8.73631 9.20002 8.80007 9.20001H16.0001C16.0638 9.20002 16.1267 9.21528 16.1833 9.24451C16.24 9.27373 16.2889 9.31608 16.3259 9.36803C16.3628 9.41997 16.3869 9.48 16.3959 9.54312C16.405 9.60623 16.3988 9.6706 16.378 9.73085L16.0104 10.7926C15.9288 11.0283 15.7757 11.2327 15.5725 11.3774C15.3693 11.5221 15.1261 11.5999 14.8766 11.6ZM9.36179 10L9.54579 10.5309C9.57302 10.6094 9.62401 10.6775 9.6917 10.7257C9.75938 10.7739 9.8404 10.7999 9.92351 10.8H14.8766C14.9598 10.7999 15.0408 10.774 15.1086 10.7258C15.1763 10.6775 15.2273 10.6094 15.2546 10.5309L15.4384 10H9.36179Z"/>
</mask>
<path d="M14.8766 11.6H9.92351C9.67405 11.5999 9.43083 11.5221 9.22763 11.3774C9.02444 11.2327 8.87137 11.0283 8.78971 10.7926L8.42215 9.73085C8.40129 9.6706 8.39514 9.60623 8.40421 9.54312C8.41328 9.48 8.43731 9.41997 8.47429 9.36803C8.51127 9.31608 8.56013 9.27373 8.6168 9.24451C8.67347 9.21528 8.73631 9.20002 8.80007 9.20001H16.0001C16.0638 9.20002 16.1267 9.21528 16.1833 9.24451C16.24 9.27373 16.2889 9.31608 16.3259 9.36803C16.3628 9.41997 16.3869 9.48 16.3959 9.54312C16.405 9.60623 16.3988 9.6706 16.378 9.73085L16.0104 10.7926C15.9288 11.0283 15.7757 11.2327 15.5725 11.3774C15.3693 11.5221 15.1261 11.5999 14.8766 11.6ZM9.36179 10L9.54579 10.5309C9.57302 10.6094 9.62401 10.6775 9.6917 10.7257C9.75938 10.7739 9.8404 10.7999 9.92351 10.8H14.8766C14.9598 10.7999 15.0408 10.774 15.1086 10.7258C15.1763 10.6775 15.2273 10.6094 15.2546 10.5309L15.4384 10H9.36179Z" fill="#171717"/>
<path d="M9.92351 11.6L9.92045 19.6H9.92351V11.6ZM8.78971 10.7926L1.22991 13.4097L1.23051 13.4114L8.78971 10.7926ZM8.42215 9.73085L0.862233 12.3477L0.862353 12.348L8.42215 9.73085ZM8.80007 9.20001V1.20001H8.79855L8.80007 9.20001ZM16.0001 9.20001L16.0016 1.20001H16.0001V9.20001ZM16.378 9.73085L23.9378 12.348L23.9379 12.3477L16.378 9.73085ZM16.0104 10.7926L23.5696 13.4114L23.5702 13.4097L16.0104 10.7926ZM9.36179 10V2.00001H-1.87812L1.80299 12.62L9.36179 10ZM9.54579 10.5309L1.98699 13.1509L1.98736 13.1519L9.54579 10.5309ZM9.92351 10.8L9.91344 18.8H9.92351V10.8ZM14.8766 10.8V18.8L14.8827 18.8L14.8766 10.8ZM15.2546 10.5309L22.813 13.152L22.8142 13.1483L15.2546 10.5309ZM15.4384 10L22.998 12.6175L26.6743 2.00001H15.4384V10ZM14.8766 3.60001H9.92351V19.6H14.8766V3.60001ZM9.92657 3.60001C11.3396 3.60055 12.7173 4.04129 13.8683 4.86097L4.58693 17.8938C6.14431 19.0029 8.00853 19.5993 9.92045 19.6L9.92657 3.60001ZM13.8683 4.86097C15.0193 5.68066 15.8864 6.83855 16.3489 8.17371L1.23051 13.4114C1.85639 15.218 3.02955 16.7847 4.58693 17.8938L13.8683 4.86097ZM16.3495 8.17542L15.9819 7.1137L0.862353 12.348L1.22991 13.4097L16.3495 8.17542ZM15.9821 7.11405C16.3784 8.25891 16.4952 9.4819 16.3229 10.6811L0.485559 8.40517C0.295096 9.73056 0.424237 11.0823 0.862233 12.3477L15.9821 7.11405ZM16.3229 10.6811C16.1505 11.8802 15.6941 13.0208 14.9914 14.0078L1.95716 4.7283C1.18056 5.81914 0.67602 7.07981 0.485559 8.40517L16.3229 10.6811ZM14.9914 14.0078C14.2888 14.9947 13.3604 15.7993 12.2837 16.3546L4.94992 2.13437C3.75984 2.74813 2.73374 3.63749 1.95716 4.7283L14.9914 14.0078ZM12.2837 16.3546C11.2069 16.9099 10.0131 17.1998 8.80159 17.2L8.79855 1.20001C7.45956 1.20027 6.14001 1.52061 4.94992 2.13437L12.2837 16.3546ZM8.80007 17.2H16.0001V1.20001H8.80007V17.2ZM15.9986 17.2C14.7871 17.1998 13.5932 16.91 12.5165 16.3546L19.8502 2.13437C18.6601 1.52061 17.3406 1.20027 16.0016 1.20001L15.9986 17.2ZM12.5165 16.3546C11.4396 15.7993 10.5113 14.9946 9.80872 14.0078L22.843 4.7283C22.0664 3.63756 21.0404 2.74817 19.8502 2.13437L12.5165 16.3546ZM9.80872 14.0078C9.10615 13.0209 8.64961 11.8803 8.47727 10.6811L24.3146 8.40517C24.1241 7.07969 23.6195 5.81904 22.843 4.7283L9.80872 14.0078ZM8.47727 10.6811C8.30495 9.4819 8.42179 8.25891 8.81807 7.11405L23.9379 12.3477C24.3759 11.0823 24.505 9.73056 24.3146 8.40517L8.47727 10.6811ZM8.81819 7.1137L8.45063 8.17542L23.5702 13.4097L23.9378 12.348L8.81819 7.1137ZM8.45123 8.17371C8.9138 6.83853 9.78084 5.68064 10.9318 4.86097L20.2132 17.8938C21.7706 16.7848 22.9437 15.218 23.5696 13.4114L8.45123 8.17371ZM10.9318 4.86097C12.0828 4.04129 13.4606 3.60055 14.8736 3.60001L14.8797 19.6C16.7916 19.5993 18.6558 19.0029 20.2132 17.8938L10.9318 4.86097ZM1.80299 12.62L1.98699 13.1509L17.1046 7.91082L16.9206 7.37998L1.80299 12.62ZM1.98736 13.1519C2.55876 14.7997 3.62884 16.2287 5.04911 17.2408L14.3343 4.21062C15.6192 5.12623 16.5873 6.41906 17.1042 7.90976L1.98736 13.1519ZM5.04911 17.2408C6.46938 18.2529 8.16945 18.7978 9.91344 18.8L9.93358 2.80002C11.5114 2.802 13.0494 3.29501 14.3343 4.21062L5.04911 17.2408ZM9.92351 18.8H14.8766V2.80001H9.92351V18.8ZM14.8827 18.8C16.6274 18.7987 18.3284 18.2542 19.7495 17.242L10.4676 4.20952C11.7533 3.29384 13.2922 2.80121 14.8706 2.80001L14.8827 18.8ZM19.7495 17.242C21.1706 16.2299 22.2413 14.8004 22.813 13.152L7.69612 7.90975C8.21328 6.41844 9.18194 5.12518 10.4676 4.20952L19.7495 17.242ZM22.8142 13.1483L22.998 12.6175L7.87867 7.38253L7.69487 7.91337L22.8142 13.1483ZM15.4384 2.00001H9.36179V18H15.4384V2.00001Z" fill="#171717" mask="url(#path-5-inside-3_1172_12738)"/>
<mask id="path-7-inside-4_1172_12738" fill="white">
<path d="M21.3169 11.6H17.0833C16.8264 11.601 16.576 11.5191 16.3694 11.3664C16.1627 11.2138 16.0108 10.9986 15.9361 10.7527L15.6178 9.71757C15.5994 9.65775 15.5953 9.59444 15.6058 9.53274C15.6163 9.47104 15.6412 9.41267 15.6784 9.36233C15.7156 9.31199 15.7641 9.27108 15.8199 9.24288C15.8758 9.21469 15.9375 9.20001 16.0001 9.20001H22.4001C22.4627 9.20003 22.5244 9.21472 22.5803 9.24292C22.6361 9.27112 22.6846 9.31204 22.7218 9.36238C22.759 9.41272 22.7838 9.47108 22.7943 9.53277C22.8049 9.59446 22.8008 9.65776 22.7824 9.71757L22.4638 10.7527C22.3892 10.9986 22.2374 11.2138 22.0308 11.3664C21.8241 11.5191 21.5738 11.601 21.3169 11.6ZM16.5417 10L16.7009 10.5176C16.7258 10.5995 16.7765 10.6712 16.8454 10.7221C16.9143 10.773 16.9977 10.8003 17.0833 10.8H21.3169C21.4025 10.8003 21.486 10.773 21.5548 10.7221C21.6237 10.6712 21.6743 10.5995 21.6992 10.5176L21.8585 10H16.5417Z"/>
</mask>
<path d="M21.3169 11.6H17.0833C16.8264 11.601 16.576 11.5191 16.3694 11.3664C16.1627 11.2138 16.0108 10.9986 15.9361 10.7527L15.6178 9.71757C15.5994 9.65775 15.5953 9.59444 15.6058 9.53274C15.6163 9.47104 15.6412 9.41267 15.6784 9.36233C15.7156 9.31199 15.7641 9.27108 15.8199 9.24288C15.8758 9.21469 15.9375 9.20001 16.0001 9.20001H22.4001C22.4627 9.20003 22.5244 9.21472 22.5803 9.24292C22.6361 9.27112 22.6846 9.31204 22.7218 9.36238C22.759 9.41272 22.7838 9.47108 22.7943 9.53277C22.8049 9.59446 22.8008 9.65776 22.7824 9.71757L22.4638 10.7527C22.3892 10.9986 22.2374 11.2138 22.0308 11.3664C21.8241 11.5191 21.5738 11.601 21.3169 11.6ZM16.5417 10L16.7009 10.5176C16.7258 10.5995 16.7765 10.6712 16.8454 10.7221C16.9143 10.773 16.9977 10.8003 17.0833 10.8H21.3169C21.4025 10.8003 21.486 10.773 21.5548 10.7221C21.6237 10.6712 21.6743 10.5995 21.6992 10.5176L21.8585 10H16.5417Z" fill="#171717"/>
<path d="M17.0833 11.6V3.60001H17.0683L17.0532 3.60007L17.0833 11.6ZM15.9361 10.7527L23.5911 8.42876L23.5869 8.4149L23.5827 8.40107L15.9361 10.7527ZM15.6178 9.71757L7.97107 12.0688L7.97122 12.0692L15.6178 9.71757ZM16.0001 9.20001L15.9996 17.2H16.0001V9.20001ZM22.4001 9.20001L22.402 1.20001H22.4001V9.20001ZM22.7824 9.71757L30.4285 12.0706L30.4291 12.0688L22.7824 9.71757ZM22.4638 10.7527L14.8177 8.39971L14.8129 8.41527L14.8082 8.43085L22.4638 10.7527ZM16.5417 10V2.00001H5.71104L8.89529 12.352L16.5417 10ZM16.7009 10.5176L24.3546 8.1891L24.351 8.17732L24.3474 8.16556L16.7009 10.5176ZM17.0833 10.8V2.80001H17.0708L17.0582 2.80005L17.0833 10.8ZM21.3169 10.8L21.3436 2.80006L21.3302 2.80001H21.3169V10.8ZM21.6992 10.5176L14.0534 8.16339L14.0487 8.17852L14.0441 8.19366L21.6992 10.5176ZM21.8585 10L29.5043 12.3542L32.6924 2.00001H21.8585V10ZM21.3169 3.60001H17.0833V19.6H21.3169V3.60001ZM17.0532 3.60007C18.5174 3.59455 19.9443 4.06139 21.1221 4.93128L11.6166 17.8016C13.2077 18.9767 15.1354 19.6074 17.1135 19.6L17.0532 3.60007ZM21.1221 4.93128C22.2999 5.80115 23.1658 7.02769 23.5911 8.42876L8.28112 13.0767C8.85574 14.9695 10.0255 16.6264 11.6166 17.8016L21.1221 4.93128ZM23.5827 8.40107L23.2643 7.36591L7.97122 12.0692L8.28958 13.1044L23.5827 8.40107ZM23.2645 7.36637C23.6139 8.50297 23.6919 9.70583 23.4918 10.8782L7.71975 8.18727C7.49867 9.48305 7.5848 10.8125 7.97107 12.0688L23.2645 7.36637ZM23.4918 10.8782C23.2918 12.0505 22.8195 13.1595 22.1129 14.116L9.24387 4.60868C8.46284 5.66588 7.94081 6.8916 7.71975 8.18727L23.4918 10.8782ZM22.1129 14.116C21.4062 15.0725 20.485 15.8498 19.4232 16.3854L12.2166 2.10032C11.0431 2.69233 10.0249 3.55148 9.24387 4.60868L22.1129 14.116ZM19.4232 16.3854C18.3615 16.9211 17.1888 17.2001 15.9996 17.2L16.0006 1.20001C14.6862 1.19993 13.3902 1.5083 12.2166 2.10032L19.4232 16.3854ZM16.0001 17.2H22.4001V1.20001H16.0001V17.2ZM22.3982 17.2C21.2092 17.1997 20.0368 16.9205 18.9754 16.3847L26.1852 2.10117C25.012 1.50898 23.7162 1.20032 22.402 1.20001L22.3982 17.2ZM18.9754 16.3847C17.9139 15.8489 16.9929 15.0715 16.2866 14.1151L29.157 4.6097C28.3763 3.55259 27.3584 2.69338 26.1852 2.10117L18.9754 16.3847ZM16.2866 14.1151C15.5802 13.1586 15.1081 12.0497 14.9082 10.8776L30.6805 8.18789C30.4596 6.89242 29.9378 5.66684 29.157 4.6097L16.2866 14.1151ZM14.9082 10.8776C14.7083 9.70561 14.7862 8.50295 15.1357 7.36637L30.4291 12.0688C30.8153 10.8126 30.9014 9.48331 30.6805 8.18789L14.9082 10.8776ZM15.1362 7.36455L14.8177 8.39971L30.1099 13.1058L30.4285 12.0706L15.1362 7.36455ZM14.8082 8.43085C15.2332 7.02928 16.0991 5.8022 17.2771 4.9319L26.7844 17.8009C28.3757 16.6254 29.5452 14.9678 30.1194 13.0746L14.8082 8.43085ZM17.2771 4.9319C18.4552 4.06161 19.8825 3.59454 21.3471 3.60007L21.2867 19.6C23.2651 19.6074 25.1931 18.9765 26.7844 17.8009L17.2771 4.9319ZM8.89529 12.352L9.05448 12.8696L24.3474 8.16556L24.1882 7.648L8.89529 12.352ZM9.04728 12.846C9.57267 14.573 10.6405 16.0847 12.0925 17.1571L21.5983 4.28703C22.9125 5.25771 23.879 6.62599 24.3546 8.1891L9.04728 12.846ZM12.0925 17.1571C13.5445 18.2296 15.3033 18.8056 17.1084 18.8L17.0582 2.80005C18.6921 2.79493 20.2841 3.31635 21.5983 4.28703L12.0925 17.1571ZM17.0833 18.8H21.3169V2.80001H17.0833V18.8ZM21.2903 18.8C23.0964 18.806 24.8564 18.2295 26.309 17.1562L16.8006 4.288C18.1155 3.31641 19.7086 2.79461 21.3436 2.80006L21.2903 18.8ZM26.309 17.1562C27.7616 16.0828 28.8295 14.5698 29.3542 12.8415L14.0441 8.19366C14.5191 6.62923 15.4857 5.2596 16.8006 4.288L26.309 17.1562ZM29.3449 12.8718L29.5043 12.3542L14.2127 7.64583L14.0534 8.16339L29.3449 12.8718ZM21.8585 2.00001H16.5417V18H21.8585V2.00001Z" fill="#171717" mask="url(#path-7-inside-4_1172_12738)"/>
<path d="M13.2 2.904C13.0939 2.904 12.9921 2.86186 12.9171 2.78684C12.8421 2.71183 12.8 2.61009 12.8 2.504V1.2C12.8004 1.14834 12.7904 1.09711 12.7706 1.04939C12.7508 1.00167 12.7216 0.958438 12.6847 0.92228C12.6481 0.883541 12.604 0.852707 12.555 0.831677C12.506 0.810648 12.4532 0.799867 12.4 0.8C12.2939 0.800095 12.1922 0.842269 12.1172 0.917263C12.0422 0.992257 12 1.09394 12 1.2V2.496C12 2.60209 11.9578 2.70383 11.8828 2.77884C11.8078 2.85386 11.706 2.896 11.6 2.896C11.4939 2.896 11.3921 2.85386 11.3171 2.77884C11.2421 2.70383 11.2 2.60209 11.2 2.496V1.2C11.2003 0.881847 11.3268 0.576826 11.5518 0.351858C11.7768 0.12689 12.0818 0.000349392 12.4 0C12.7177 0.00157707 13.022 0.128512 13.2467 0.353214C13.4714 0.577917 13.5984 0.882226 13.6 1.2V2.504C13.6 2.61009 13.5578 2.71183 13.4828 2.78684C13.4078 2.86186 13.306 2.904 13.2 2.904Z" fill="#171717"/>
<path d="M12.8 24H12C11.7879 23.9997 11.5845 23.9154 11.4345 23.7654C11.2846 23.6154 11.2002 23.4121 11.2 23.2V11.2C11.2 11.0939 11.2421 10.9922 11.3171 10.9171C11.3921 10.8421 11.4939 10.8 11.6 10.8H13.2C13.306 10.8 13.4078 10.8421 13.4828 10.9171C13.5578 10.9922 13.6 11.0939 13.6 11.2V23.2C13.5997 23.4121 13.5153 23.6154 13.3654 23.7654C13.2154 23.9154 13.012 23.9997 12.8 24ZM12 11.6V23.2H12.8006L12.8 11.6H12Z" fill="#171717"/>
<path d="M8.80035 10C8.79079 10 8.78119 9.99961 8.77143 9.99885C8.66563 9.99129 8.56716 9.94203 8.49768 9.86189C8.42819 9.78175 8.39339 9.67729 8.40091 9.57148C8.81247 3.81056 12.082 2.11172 12.2209 2.0422C12.3155 1.99611 12.4245 1.98916 12.5242 2.02287C12.6239 2.05657 12.7063 2.12822 12.7535 2.22227C12.8008 2.31632 12.809 2.4252 12.7766 2.5253C12.7441 2.62541 12.6734 2.70867 12.58 2.75704C12.4536 2.82188 9.57567 4.35468 9.19891 9.62852C9.1917 9.72934 9.1466 9.8237 9.07266 9.89261C8.99872 9.96153 8.90143 9.9999 8.80035 10Z" fill="#171717"/>
<path d="M15.9997 10C15.8986 9.99992 15.8013 9.96156 15.7273 9.89264C15.6534 9.82372 15.6083 9.72936 15.6011 9.62852C15.2241 4.35081 12.3421 2.81952 12.2196 2.75704C12.1248 2.70939 12.0528 2.62602 12.0195 2.52529C11.9862 2.42456 11.9942 2.31472 12.0419 2.21992C12.0896 2.12513 12.1729 2.05315 12.2737 2.01982C12.3744 1.98649 12.4842 1.99455 12.579 2.0422C12.7181 2.11172 15.9876 3.81056 16.399 9.57148C16.4065 9.67729 16.3717 9.78175 16.3023 9.86189C16.2328 9.94203 16.1343 9.99129 16.0285 9.99885C16.0189 9.99961 16.0093 10 15.9997 10Z" fill="#171717"/>
</svg>
