<svg width="24" height="24" viewBox="0 0 24 24" fill="none" xmlns="http://www.w3.org/2000/svg">
<mask id="path-1-inside-1_1172_12744" fill="white">
<path d="M22.4446 6.06192C22.4398 6.05906 22.435 6.05634 22.43 6.05371L20.9311 5.2553C20.7596 5.16401 20.5464 5.22887 20.4549 5.40052C20.3635 5.57213 20.4285 5.78532 20.6001 5.87675L22.0898 6.67028C22.1749 6.72449 22.2099 6.83419 22.1712 6.9283L22.0726 7.16824C21.8366 7.74248 21.5119 8.05236 21.0802 8.11507L18.6727 8.25002C17.9021 8.2932 17.2455 8.80163 16.9937 9.50734L13.7356 8.15764C14.0986 7.4602 14.4041 6.73036 14.6459 5.97471C14.6476 5.96913 14.6493 5.96349 14.6508 5.95782L14.6675 5.89473C14.6982 5.81569 14.7325 5.72482 14.7694 5.62709C14.9161 5.23854 15.1171 4.70636 15.2662 4.4614C15.3067 4.39484 15.324 4.31664 15.3153 4.23919C15.1994 3.20332 15.8814 2.097 16.3285 1.49667C16.4594 2.08687 16.6553 2.96868 16.8044 3.63323C16.839 3.78728 16.9719 3.89946 17.1295 3.90772C17.5546 3.92997 17.8723 4.01413 17.9877 4.08284C18.0908 4.14428 18.2718 4.36517 18.3916 4.51134C18.5598 4.71655 18.6606 4.83596 18.776 4.90463C18.7808 4.90749 18.7856 4.91021 18.7905 4.91284L19.3607 5.21658C19.5324 5.30792 19.7455 5.243 19.837 5.07135C19.9284 4.89975 19.8634 4.68656 19.6918 4.59512L19.1418 4.30218C19.1001 4.26491 19.0059 4.15006 18.9361 4.06496C18.7585 3.8482 18.5571 3.60253 18.3481 3.478C18.146 3.35761 17.8215 3.26904 17.4348 3.22628C17.249 2.39576 17.0177 1.35285 16.9204 0.91347C16.8795 0.729052 16.7404 0.586221 16.5571 0.540832C16.3738 0.495396 16.1841 0.556603 16.0617 0.700655C15.5826 1.26503 14.5021 2.71494 14.605 4.20033C14.4378 4.51209 14.2582 4.98785 14.1107 5.37842C14.0719 5.48126 14.036 5.57635 14.0043 5.65755C13.9995 5.66981 13.9954 5.68229 13.9921 5.69501L13.9725 5.76852C13.6803 6.67972 13.2909 7.55168 12.8154 8.37069L6.78774 0.143505C6.67256 -0.0131264 6.45228 -0.0467337 6.2956 0.0684513C6.13897 0.183636 6.10536 0.403962 6.22055 0.560593L12.4157 9.01534C11.3942 10.5641 10.0524 11.8952 8.46942 12.9034C7.28317 13.659 6.29856 14.7101 5.622 15.9431C5.38839 16.3689 5.19374 16.8144 5.03776 17.2726C4.46325 16.4276 3.85953 15.2649 3.66634 13.9207C3.42724 12.2575 4.1244 10.9932 4.7514 10.2254C4.98111 9.94414 4.98402 9.56432 4.75858 9.28035C4.53229 8.99534 4.16036 8.9116 3.83306 9.07204C2.08336 9.92982 0.464578 12.1432 1.16864 15.7829C1.20554 15.9738 1.39047 16.0987 1.58113 16.0617C1.77203 16.0247 1.89683 15.8401 1.85989 15.6492C1.55358 14.0656 1.69289 12.6945 2.27407 11.5738C2.85084 10.4615 3.69258 9.92503 4.14299 9.70419C4.15824 9.69668 4.18124 9.68542 4.20715 9.71804C4.23161 9.74883 4.21748 9.76615 4.20612 9.78004C3.48995 10.6571 2.69407 12.1047 2.9695 14.0209C3.22019 15.7647 4.09159 17.2146 4.79312 18.1378C4.67179 18.677 4.60401 19.2283 4.59101 19.7825C3.43076 19.1727 2.61315 18.1947 2.15997 16.869C2.09712 16.685 1.89697 16.5869 1.71303 16.6497C1.52903 16.7126 1.43088 16.9127 1.49378 17.0967C2.04896 18.7208 3.09004 19.8876 4.58796 20.5652V21.2819C4.58796 22.223 5.05184 23.1019 5.8288 23.6329C6.18013 23.8731 6.59497 24 7.02839 24H14.14C14.4437 24 14.715 23.8427 14.8659 23.5791C15.0169 23.3156 15.0151 23.0019 14.8613 22.74L14.7978 22.6319C14.4305 22.006 13.8391 21.5567 13.1607 21.3605C13.5324 21.1197 13.8683 20.7921 14.1171 20.3477C14.3002 20.0208 14.4232 19.6821 14.5027 19.3491L15.7778 23.4681C15.8763 23.7862 16.1662 24 16.4992 24H19.168C19.4103 24 19.6309 23.8769 19.7583 23.6708C19.8856 23.4646 19.8968 23.2122 19.7883 22.9955L19.707 22.8331C19.3861 22.1923 18.7606 21.7686 18.0614 21.6971C17.9254 20.9709 17.5677 19.0012 17.5082 18.068C17.4741 17.5325 17.6026 17.0066 17.8799 16.5471C18.3178 15.8213 18.4617 14.965 18.2849 14.1359L17.6388 11.1046C17.5594 10.7322 17.5462 10.3522 17.5996 9.97516C17.6789 9.41445 18.1469 8.9845 18.7123 8.95282L21.1342 8.81707C21.1432 8.81655 21.1522 8.81571 21.1612 8.81454C21.8606 8.72104 22.3864 8.25715 22.724 7.4357L22.8226 7.19575C22.9936 6.77951 22.8312 6.29201 22.4446 6.06192ZM13.3942 8.77821L16.8691 10.2177C16.8529 10.5171 16.8715 10.8166 16.9237 11.1128C16.9237 11.1132 16.9233 11.1136 16.9233 11.1139L12.9596 9.4719C12.9617 9.46871 12.9632 9.46481 12.965 9.4612C13.019 9.38023 13.3154 8.90991 13.3914 8.78032C13.3922 8.77961 13.3937 8.77905 13.3942 8.77821ZM17.5962 14.2828C17.7355 14.9364 17.6221 15.6114 17.2769 16.1836C16.9252 16.7664 16.7622 17.4336 16.8055 18.1129C16.8816 19.3083 17.4004 21.9938 17.4225 22.1075C17.4557 22.2792 17.6097 22.3998 17.7848 22.3921C18.3274 22.3663 18.8343 22.6632 19.0774 23.1485L19.1513 23.2961H16.4991C16.4766 23.2961 16.4569 23.2816 16.4503 23.2601L14.4266 16.7229C14.4263 16.722 14.426 16.7211 14.4257 16.7202C14.3672 16.5362 14.1708 16.4335 13.9861 16.4907C13.8006 16.5482 13.6966 16.7451 13.7538 16.9307C13.7612 16.955 14.2625 18.6467 13.5026 20.004C13.0023 20.8977 11.9939 21.1874 11.2361 21.2729C11.0493 21.294 10.912 21.4581 10.9243 21.6457C10.9366 21.8333 11.0951 21.9781 11.282 21.9747L12.3471 21.9553C13.1021 21.9418 13.8083 22.3374 14.1906 22.9885L14.254 23.0966C14.2879 23.1543 14.269 23.2046 14.2548 23.2295C14.2405 23.2544 14.2067 23.2961 14.1398 23.2961H7.0283C6.73724 23.2961 6.45979 23.2117 6.22599 23.0519C5.6411 22.6521 5.29193 21.9906 5.29193 21.2821V19.9778C5.29193 18.6894 5.61951 17.4113 6.23927 16.2818C6.85904 15.1523 7.76099 14.1894 8.84769 13.4972C10.2859 12.5812 11.5351 11.412 12.5419 10.061L17.0987 11.9487L17.5962 14.2828Z"/>
</mask>
<path d="M22.4446 6.06192C22.4398 6.05906 22.435 6.05634 22.43 6.05371L20.9311 5.2553C20.7596 5.16401 20.5464 5.22887 20.4549 5.40052C20.3635 5.57213 20.4285 5.78532 20.6001 5.87675L22.0898 6.67028C22.1749 6.72449 22.2099 6.83419 22.1712 6.9283L22.0726 7.16824C21.8366 7.74248 21.5119 8.05236 21.0802 8.11507L18.6727 8.25002C17.9021 8.2932 17.2455 8.80163 16.9937 9.50734L13.7356 8.15764C14.0986 7.4602 14.4041 6.73036 14.6459 5.97471C14.6476 5.96913 14.6493 5.96349 14.6508 5.95782L14.6675 5.89473C14.6982 5.81569 14.7325 5.72482 14.7694 5.62709C14.9161 5.23854 15.1171 4.70636 15.2662 4.4614C15.3067 4.39484 15.324 4.31664 15.3153 4.23919C15.1994 3.20332 15.8814 2.097 16.3285 1.49667C16.4594 2.08687 16.6553 2.96868 16.8044 3.63323C16.839 3.78728 16.9719 3.89946 17.1295 3.90772C17.5546 3.92997 17.8723 4.01413 17.9877 4.08284C18.0908 4.14428 18.2718 4.36517 18.3916 4.51134C18.5598 4.71655 18.6606 4.83596 18.776 4.90463C18.7808 4.90749 18.7856 4.91021 18.7905 4.91284L19.3607 5.21658C19.5324 5.30792 19.7455 5.243 19.837 5.07135C19.9284 4.89975 19.8634 4.68656 19.6918 4.59512L19.1418 4.30218C19.1001 4.26491 19.0059 4.15006 18.9361 4.06496C18.7585 3.8482 18.5571 3.60253 18.3481 3.478C18.146 3.35761 17.8215 3.26904 17.4348 3.22628C17.249 2.39576 17.0177 1.35285 16.9204 0.91347C16.8795 0.729052 16.7404 0.586221 16.5571 0.540832C16.3738 0.495396 16.1841 0.556603 16.0617 0.700655C15.5826 1.26503 14.5021 2.71494 14.605 4.20033C14.4378 4.51209 14.2582 4.98785 14.1107 5.37842C14.0719 5.48126 14.036 5.57635 14.0043 5.65755C13.9995 5.66981 13.9954 5.68229 13.9921 5.69501L13.9725 5.76852C13.6803 6.67972 13.2909 7.55168 12.8154 8.37069L6.78774 0.143505C6.67256 -0.0131264 6.45228 -0.0467337 6.2956 0.0684513C6.13897 0.183636 6.10536 0.403962 6.22055 0.560593L12.4157 9.01534C11.3942 10.5641 10.0524 11.8952 8.46942 12.9034C7.28317 13.659 6.29856 14.7101 5.622 15.9431C5.38839 16.3689 5.19374 16.8144 5.03776 17.2726C4.46325 16.4276 3.85953 15.2649 3.66634 13.9207C3.42724 12.2575 4.1244 10.9932 4.7514 10.2254C4.98111 9.94414 4.98402 9.56432 4.75858 9.28035C4.53229 8.99534 4.16036 8.9116 3.83306 9.07204C2.08336 9.92982 0.464578 12.1432 1.16864 15.7829C1.20554 15.9738 1.39047 16.0987 1.58113 16.0617C1.77203 16.0247 1.89683 15.8401 1.85989 15.6492C1.55358 14.0656 1.69289 12.6945 2.27407 11.5738C2.85084 10.4615 3.69258 9.92503 4.14299 9.70419C4.15824 9.69668 4.18124 9.68542 4.20715 9.71804C4.23161 9.74883 4.21748 9.76615 4.20612 9.78004C3.48995 10.6571 2.69407 12.1047 2.9695 14.0209C3.22019 15.7647 4.09159 17.2146 4.79312 18.1378C4.67179 18.677 4.60401 19.2283 4.59101 19.7825C3.43076 19.1727 2.61315 18.1947 2.15997 16.869C2.09712 16.685 1.89697 16.5869 1.71303 16.6497C1.52903 16.7126 1.43088 16.9127 1.49378 17.0967C2.04896 18.7208 3.09004 19.8876 4.58796 20.5652V21.2819C4.58796 22.223 5.05184 23.1019 5.8288 23.6329C6.18013 23.8731 6.59497 24 7.02839 24H14.14C14.4437 24 14.715 23.8427 14.8659 23.5791C15.0169 23.3156 15.0151 23.0019 14.8613 22.74L14.7978 22.6319C14.4305 22.006 13.8391 21.5567 13.1607 21.3605C13.5324 21.1197 13.8683 20.7921 14.1171 20.3477C14.3002 20.0208 14.4232 19.6821 14.5027 19.3491L15.7778 23.4681C15.8763 23.7862 16.1662 24 16.4992 24H19.168C19.4103 24 19.6309 23.8769 19.7583 23.6708C19.8856 23.4646 19.8968 23.2122 19.7883 22.9955L19.707 22.8331C19.3861 22.1923 18.7606 21.7686 18.0614 21.6971C17.9254 20.9709 17.5677 19.0012 17.5082 18.068C17.4741 17.5325 17.6026 17.0066 17.8799 16.5471C18.3178 15.8213 18.4617 14.965 18.2849 14.1359L17.6388 11.1046C17.5594 10.7322 17.5462 10.3522 17.5996 9.97516C17.6789 9.41445 18.1469 8.9845 18.7123 8.95282L21.1342 8.81707C21.1432 8.81655 21.1522 8.81571 21.1612 8.81454C21.8606 8.72104 22.3864 8.25715 22.724 7.4357L22.8226 7.19575C22.9936 6.77951 22.8312 6.29201 22.4446 6.06192ZM13.3942 8.77821L16.8691 10.2177C16.8529 10.5171 16.8715 10.8166 16.9237 11.1128C16.9237 11.1132 16.9233 11.1136 16.9233 11.1139L12.9596 9.4719C12.9617 9.46871 12.9632 9.46481 12.965 9.4612C13.019 9.38023 13.3154 8.90991 13.3914 8.78032C13.3922 8.77961 13.3937 8.77905 13.3942 8.77821ZM17.5962 14.2828C17.7355 14.9364 17.6221 15.6114 17.2769 16.1836C16.9252 16.7664 16.7622 17.4336 16.8055 18.1129C16.8816 19.3083 17.4004 21.9938 17.4225 22.1075C17.4557 22.2792 17.6097 22.3998 17.7848 22.3921C18.3274 22.3663 18.8343 22.6632 19.0774 23.1485L19.1513 23.2961H16.4991C16.4766 23.2961 16.4569 23.2816 16.4503 23.2601L14.4266 16.7229C14.4263 16.722 14.426 16.7211 14.4257 16.7202C14.3672 16.5362 14.1708 16.4335 13.9861 16.4907C13.8006 16.5482 13.6966 16.7451 13.7538 16.9307C13.7612 16.955 14.2625 18.6467 13.5026 20.004C13.0023 20.8977 11.9939 21.1874 11.2361 21.2729C11.0493 21.294 10.912 21.4581 10.9243 21.6457C10.9366 21.8333 11.0951 21.9781 11.282 21.9747L12.3471 21.9553C13.1021 21.9418 13.8083 22.3374 14.1906 22.9885L14.254 23.0966C14.2879 23.1543 14.269 23.2046 14.2548 23.2295C14.2405 23.2544 14.2067 23.2961 14.1398 23.2961H7.0283C6.73724 23.2961 6.45979 23.2117 6.22599 23.0519C5.6411 22.6521 5.29193 21.9906 5.29193 21.2821V19.9778C5.29193 18.6894 5.61951 17.4113 6.23927 16.2818C6.85904 15.1523 7.76099 14.1894 8.84769 13.4972C10.2859 12.5812 11.5351 11.412 12.5419 10.061L17.0987 11.9487L17.5962 14.2828Z" fill="#171717" stroke="#171717" stroke-width="2.00266" mask="url(#path-1-inside-1_1172_12744)"/>
</svg>
