<svg width="16" height="16" viewBox="0 0 16 16" fill="none" xmlns="http://www.w3.org/2000/svg">
<path d="M15.7333 13.1419H14.8356L10.4173 3.78546L10.6121 3.10387C10.662 2.92908 10.6757 2.74592 10.6522 2.56566C10.6288 2.38539 10.5687 2.21183 10.4757 2.05562C10.3828 1.89942 10.2588 1.76388 10.1115 1.65733C9.96425 1.55078 9.79673 1.47548 9.61928 1.43605L9.30555 1.36631C8.9738 1.29297 8.62657 1.34888 8.33462 1.52266C8.04267 1.69643 7.82796 1.97499 7.73426 2.30157L7.0751 4.60862H6.5394L6.1507 3.78546L6.34544 3.10387C6.39537 2.92908 6.40903 2.74592 6.38559 2.56566C6.36214 2.38539 6.30209 2.21183 6.2091 2.05562C6.11612 1.89942 5.99218 1.76388 5.8449 1.65733C5.69761 1.55078 5.5301 1.47548 5.35264 1.43605L5.03011 1.36438C4.70042 1.29205 4.35557 1.34708 4.06475 1.51842C3.77394 1.68977 3.55869 1.96476 3.46219 2.28821L0.0101155 14.4025C0.000559709 14.4362 -0.00226365 14.4714 0.00180657 14.5062C0.00587679 14.541 0.0167609 14.5747 0.0338375 14.6053C0.050914 14.6358 0.0738486 14.6628 0.101332 14.6845C0.128815 14.7062 0.160308 14.7223 0.194014 14.7319C0.22772 14.7414 0.262978 14.7443 0.297775 14.7402C0.332571 14.7361 0.366226 14.7252 0.396816 14.7082C0.427407 14.6911 0.454334 14.6681 0.476061 14.6407C0.497788 14.6132 0.513889 14.5817 0.523445 14.548L0.922009 13.1419H4.63702L4.27702 14.4019C4.26739 14.4356 4.26448 14.4708 4.26847 14.5056C4.27246 14.5404 4.28326 14.574 4.30026 14.6047C4.31726 14.6353 4.34012 14.6623 4.36755 14.684C4.39497 14.7058 4.42641 14.722 4.46008 14.7316C4.49375 14.7412 4.52899 14.7442 4.56379 14.7402C4.59858 14.7362 4.63224 14.7254 4.66286 14.7084C4.69348 14.6914 4.72045 14.6685 4.74223 14.6411C4.76402 14.6137 4.78018 14.5822 4.78981 14.5486L6.50497 8.54553L9.35891 14.5892C9.38051 14.6348 9.41463 14.6735 9.45733 14.7005C9.50002 14.7275 9.54951 14.7419 9.60005 14.7419H15.7333C15.8041 14.7419 15.8719 14.7138 15.9219 14.6638C15.9719 14.6138 16 14.5459 16 14.4752V13.4086C16 13.3378 15.9719 13.27 15.9219 13.22C15.8719 13.17 15.8041 13.1419 15.7333 13.1419ZM8.24709 2.4481C8.30325 2.25213 8.43205 2.08495 8.60723 1.98068C8.78241 1.87641 8.99077 1.8429 9.18982 1.88698L9.50358 1.95667C9.61005 1.98034 9.71056 2.02552 9.79893 2.08945C9.8873 2.15338 9.96166 2.2347 10.0174 2.32843C10.0732 2.42215 10.1093 2.52629 10.1233 2.63444C10.1374 2.7426 10.1292 2.85249 10.0992 2.95737L9.93221 3.54196H7.93456L8.24709 2.4481ZM3.97379 2.4393C4.0317 2.24527 4.16083 2.0803 4.33529 1.9775C4.50974 1.8747 4.71662 1.84166 4.91441 1.88501L5.23694 1.95667C5.34342 1.98034 5.44393 2.02552 5.5323 2.08945C5.62067 2.15338 5.69504 2.23471 5.75083 2.32844C5.80662 2.42216 5.84265 2.52631 5.85671 2.63447C5.87078 2.74263 5.86257 2.85253 5.83261 2.9574L5.66561 3.54196H3.64792L3.97379 2.4393ZM1.9805 9.40859L2.28293 8.34193H6.00844L5.70367 9.40859H1.9805ZM5.55131 9.94192L5.24654 11.0086H1.52677L1.8292 9.94192H5.55131ZM2.43413 7.8086L2.73656 6.74194H5.65321L6.1569 7.8086H2.43413ZM2.88779 6.20861L3.19023 5.14195H4.89778L5.40148 6.20861H2.88779ZM1.07321 12.6086L1.37564 11.5419H5.09418L4.78941 12.6086H1.07321ZM11.2 14.2086H9.76901L5.30788 4.76142C5.2863 4.71572 5.25217 4.67709 5.20948 4.65004C5.16679 4.62299 5.11729 4.60862 5.06675 4.60862H3.34142L3.49266 4.07529H5.69777L10.1589 13.5224C10.1805 13.5681 10.2146 13.6068 10.2573 13.6338C10.3 13.6609 10.3495 13.6752 10.4 13.6752H11.2V14.2086ZM11.7334 14.2086V13.4086C11.7334 13.3378 11.7053 13.27 11.6553 13.22C11.6053 13.17 11.5374 13.1419 11.4667 13.1419H10.569L6.79127 5.14195H9.16442L13.4459 14.2086H11.7334ZM15.4667 14.2086H14.0356L9.57451 4.76142C9.55293 4.71572 9.51881 4.67709 9.47612 4.65004C9.43342 4.62299 9.38392 4.60862 9.33338 4.60862H7.62979L7.78216 4.07529H9.96441L14.4255 13.5224C14.4471 13.5681 14.4813 13.6068 14.5239 13.6338C14.5666 13.6609 14.6161 13.6752 14.6667 13.6752H15.4667V14.2086Z" fill="#171717"/>
</svg>
