<svg width="16" height="16" viewBox="0 0 16 16" fill="none" xmlns="http://www.w3.org/2000/svg">
<g clip-path="url(#clip0_1711_697)">
<path d="M14.8106 15.0762C14.7367 14.91 14.5335 14.8176 14.3672 14.91C12.7044 15.6305 11.8915 15.2795 11.0231 14.91C10.1363 14.5404 9.23095 14.1525 7.62356 14.91C5.96074 15.6305 5.14781 15.2795 4.27945 14.91C3.39261 14.5404 2.4873 14.1525 0.861433 14.91C0.695151 14.9839 0.621248 15.1871 0.695151 15.3534C0.78753 15.5197 0.990763 15.5936 1.15704 15.5197C2.50577 14.8915 3.20785 15.1871 4.02079 15.5381C4.55658 15.7598 5.12933 16 5.88684 16C6.44111 16 7.08776 15.8707 7.90069 15.5197C9.24942 14.8915 9.9515 15.1871 10.7644 15.5381C11.3002 15.7598 11.873 16 12.6305 16C13.1848 16 13.8314 15.8707 14.6443 15.5197C14.8106 15.4458 14.903 15.2425 14.8106 15.0762Z" fill="#171717"/>
<path d="M13.1846 0C11.8174 0 10.7088 1.10854 10.7088 2.47575V3.78753H4.83353V2.47575C4.83353 1.47806 5.64646 0.665127 6.64415 0.665127C7.64184 0.665127 8.45477 1.47806 8.45477 2.47575C8.45477 2.66051 8.60258 2.80831 8.78734 2.80831C8.97209 2.80831 9.1199 2.66051 9.1199 2.47575C9.1199 1.10854 8.01136 0 6.64415 0C5.27694 0 4.1684 1.10854 4.1684 2.47575V10.8822C4.14992 11.067 4.31621 11.2333 4.50096 11.2333C4.68572 11.2333 4.83353 11.0855 4.83353 10.9007V10.0693H10.7273V10.9007C10.7273 11.0855 10.8751 11.2333 11.0599 11.2333C11.2446 11.2333 11.3924 11.0855 11.3924 10.9007V2.47575C11.3924 1.47806 12.2054 0.665127 13.203 0.665127C14.2007 0.665127 14.9952 1.47806 14.9952 2.47575C14.9952 2.66051 15.143 2.80831 15.3278 2.80831C15.5125 2.80831 15.6603 2.66051 15.6603 2.47575C15.6603 1.10854 14.5518 0 13.1846 0ZM10.7273 9.36721H4.83353V8.18476H10.7273V9.36721ZM10.7273 7.51963H4.83353V6.33718H10.7273V7.51963ZM10.7273 5.6351H4.83353V4.45266H10.7273V5.6351Z" fill="#171717"/>
<path d="M14.8292 12.5266C14.7553 12.3603 14.552 12.2679 14.3858 12.3603C12.7229 13.0808 11.91 12.7298 11.0417 12.3603C10.1548 11.9908 9.2495 11.6028 7.64211 12.3603C5.97929 13.0808 5.16636 12.7298 4.298 12.3603C3.41117 11.9908 2.48738 11.6028 0.879987 12.3603C0.713706 12.4342 0.639803 12.6374 0.713706 12.8037C0.787609 12.97 0.990842 13.0439 1.15712 12.97C2.50585 12.3418 3.20793 12.6374 4.02087 12.9885C4.55666 13.2102 5.12941 13.4503 5.88692 13.4503C6.44119 13.4503 7.08784 13.321 7.90077 12.97C9.2495 12.3418 9.95158 12.6374 10.7645 12.9885C11.3003 13.2102 11.8731 13.4503 12.6306 13.4503C13.1848 13.4503 13.8315 13.321 14.6444 12.97C14.8107 12.8961 14.9031 12.6928 14.8292 12.5266Z" fill="#171717"/>
</g>
<defs>
<clipPath id="clip0_1711_697">
<rect width="16" height="16" fill="white"/>
</clipPath>
</defs>
</svg>
