<svg width="24" height="24" viewBox="0 0 24 24" fill="none" xmlns="http://www.w3.org/2000/svg">
<path d="M13.8882 8.9524C14.7888 9.0734 15.5706 9.37526 16.0351 9.79906M13.8882 8.9524L13.3882 0.836057C15.9763 0.916817 18.3984 1.8016 20.2447 3.34936C22.203 4.99099 23.2814 7.17955 23.2813 9.51184C23.2813 9.66579 23.1904 9.80533 23.0495 9.86748C22.9991 9.88977 22.9456 9.9006 22.8927 9.9006C22.7975 9.9006 22.7036 9.86567 22.6305 9.79906M13.8882 8.9524V8.90479H13.3882L13.3597 9.40398L13.8882 8.9524ZM16.0351 9.79906C16.1835 9.9344 16.4107 9.9344 16.5591 9.79906M16.0351 9.79906L16.2211 9.59508L22.2264 9.18793C21.5511 8.832 20.621 8.61596 19.5949 8.61596C19.5949 8.61596 19.5948 8.61596 19.5948 8.61596C18.543 8.61596 17.5936 8.84361 16.9149 9.21521L16.4211 9.48562L16.4255 9.61753L16.3627 9.58365L16.5591 9.79906M16.0351 9.79906L16.2212 9.59502L16.3019 9.55087L16.3626 9.58361L16.5591 9.79906M16.5591 9.79906C17.1715 9.24053 18.3347 8.89349 19.5948 8.89349C20.8549 8.89349 22.0182 9.24048 22.6305 9.79906M22.6305 9.79906L22.8758 9.53016L20.0646 3.56421C21.654 4.89458 22.7227 6.6771 22.9562 8.68793L23.0519 9.51183L23.0657 9.63024L22.9083 9.54729L22.9077 9.54701L22.8927 9.53906L22.8758 9.53018L22.6305 9.79906ZM21.5981 23.6294C21.5981 23.6292 21.5981 23.6291 21.5981 23.629L21.5981 23.6294ZM21.5981 23.6294L21.7074 23.6111L21.7075 23.6111L21.7077 23.6111L21.8175 23.5928M21.5981 23.6294L21.3243 23.675M21.8175 23.5928L5.53555 23.6111L5.64481 23.6293L5.91862 23.6751L6.2797 21.5086C6.30785 21.5105 6.33615 21.5118 6.36456 21.5118H12.1106H12.6106V22.0118V23.6112C12.6106 23.8259 12.7847 23.9999 12.9994 23.9999C13.2142 23.9999 13.3882 23.8259 13.3882 23.6112V22.0118V21.5118H13.8882H20.9638L21.3243 23.675M21.8175 23.5928L21.8175 23.5928L21.8175 23.5928L21.7077 23.6111L21.7075 23.6112L21.7074 23.6112L21.3243 23.675M21.8175 23.5928L21.7718 23.9946C21.7501 23.9982 21.7286 23.9999 21.7074 23.9999C21.5207 23.9999 21.356 23.8652 21.3243 23.675M21.8175 23.5928L21.4781 21.5563L21.4569 21.4296L21.4244 21.2343H21.7079C21.7193 21.2343 21.7307 21.234 21.742 21.2336C22.2453 21.2157 22.6485 20.8013 22.6485 20.2936C22.6485 20.2936 22.6485 20.2936 22.6485 20.2936C22.6485 19.7745 22.2269 19.353 21.708 19.353H13.3882L21.8175 23.5928ZM21.8175 23.5928C21.8084 23.5379 21.7611 23.4999 21.7074 23.4999C21.7017 23.4999 21.6957 23.5004 21.6894 23.5014L21.8175 23.5928Z" fill="#171717" stroke="#171717"/>
</svg>
