<svg width="24" height="24" viewBox="0 0 24 24" fill="none" xmlns="http://www.w3.org/2000/svg">
<mask id="path-1-inside-1_1172_12747" fill="white">
<path d="M20.2447 3.34936C18.3984 1.8016 15.9763 0.916817 13.3882 0.836057V0.388767C13.3882 0.174012 13.2142 0 12.9994 0C12.7847 0 12.6106 0.174012 12.6106 0.388767V0.836057C10.0225 0.916765 7.60042 1.8016 5.75414 3.34936C3.79584 4.99099 2.7174 7.17955 2.7174 9.51184C2.7174 9.66584 2.80832 9.80533 2.94921 9.86748C3.0901 9.92968 3.25447 9.90273 3.3682 9.79906C3.98048 9.24053 5.14378 8.89349 6.4039 8.89349C7.66403 8.89349 8.82732 9.24048 9.4396 9.79906C9.58801 9.9344 9.8152 9.9344 9.96361 9.79906C10.5123 9.29848 11.5036 8.96808 12.6105 8.90479V19.0755H11.2926L10.0707 17.3649H10.9259C11.1406 17.3649 11.3147 17.1909 11.3147 16.9762C11.3147 16.7614 11.1406 16.5874 10.9259 16.5874H5.21422L3.20896 13.78C3.01992 13.5153 2.73902 13.34 2.41795 13.2865C2.09688 13.2328 1.7741 13.3077 1.50963 13.4969C0.963079 13.8873 0.836082 14.6496 1.22651 15.1962L5.37341 21.0019C5.42369 21.0722 5.48118 21.1359 5.54395 21.193L5.15161 23.5472C5.11631 23.759 5.25942 23.9593 5.47117 23.9947C5.49284 23.9982 5.51435 24 5.53555 24C5.72221 24 5.88684 23.8652 5.91862 23.6751L6.2797 21.5086C6.30785 21.5105 6.33615 21.5118 6.36456 21.5118H12.6106V23.6112C12.6106 23.8259 12.7847 23.9999 12.9994 23.9999C13.2142 23.9999 13.3882 23.8259 13.3882 23.6112V21.5118H20.9638L21.3243 23.675C21.356 23.8652 21.5207 23.9999 21.7074 23.9999C21.7286 23.9999 21.7501 23.9982 21.7718 23.9946C21.9835 23.9593 22.1266 23.759 22.0913 23.5472L21.7519 21.5106C22.4033 21.4874 22.9261 20.9506 22.9261 20.2936C22.9261 19.6219 22.3796 19.0755 21.708 19.0755H13.3882V8.90479C14.4951 8.96803 15.4864 9.29848 16.0351 9.79906C16.1835 9.9344 16.4107 9.9344 16.5591 9.79906C17.1715 9.24053 18.3347 8.89349 19.5948 8.89349C20.8549 8.89349 22.0182 9.24048 22.6305 9.79906C22.7036 9.86567 22.7975 9.9006 22.8927 9.9006C22.9456 9.9006 22.9991 9.88977 23.0495 9.86748C23.1904 9.80533 23.2813 9.66579 23.2813 9.51184C23.2814 7.17955 22.203 4.99099 20.2447 3.34936ZM9.11532 17.3649L10.3372 19.0755H6.99141L5.76959 17.3649H9.11532ZM22.1485 20.2936C22.1485 20.5366 21.9509 20.7343 21.7079 20.7343H6.36456C6.22263 20.7343 6.08859 20.6653 6.00601 20.5498L1.85916 14.7442C1.79079 14.6484 1.76373 14.5317 1.78307 14.4156C1.8024 14.2995 1.8658 14.1979 1.96174 14.1294C2.03711 14.0754 2.1256 14.0473 2.21657 14.0473C2.24098 14.0473 2.2655 14.0493 2.29007 14.0534C2.40618 14.0728 2.50783 14.1361 2.57626 14.2319L6.47507 19.6902C6.54801 19.7924 6.66588 19.853 6.79143 19.853H11.0922C11.0925 19.853 11.0927 19.8531 11.0931 19.8531C11.0933 19.8531 11.0935 19.853 11.0937 19.853H21.708C21.9508 19.853 22.1485 20.0507 22.1485 20.2936ZM14.9703 3.77654C15.5096 5.12426 15.8326 6.8747 15.8964 8.76421C15.1313 8.3517 14.1048 8.11596 12.9994 8.11596C11.894 8.11596 10.8674 8.3517 10.1023 8.76421C10.1661 6.8747 10.4892 5.12431 11.0284 3.77654C11.5802 2.39771 12.2985 1.6069 12.9994 1.6069C13.7002 1.6069 14.4186 2.39771 14.9703 3.77654ZM3.53926 8.74565C3.94969 5.21104 7.17091 2.35043 11.3157 1.73167C10.9395 2.1688 10.5985 2.75828 10.3066 3.48776C9.73113 4.92604 9.38803 6.78342 9.32406 8.7767C8.55658 8.35647 7.52049 8.11601 6.40395 8.11601C5.31452 8.11596 4.30072 8.34424 3.53926 8.74565ZM19.5949 8.11596C18.4783 8.11596 17.4422 8.35642 16.6748 8.77665C16.6108 6.78337 16.2677 4.92599 15.6922 3.48771C15.4003 2.75823 15.0594 2.1688 14.6831 1.73162C18.8279 2.35043 22.0491 5.21104 22.4596 8.7456C21.6981 8.34424 20.6843 8.11596 19.5949 8.11596Z"/>
</mask>
<path d="M20.2447 3.34936C18.3984 1.8016 15.9763 0.916817 13.3882 0.836057V0.388767C13.3882 0.174012 13.2142 0 12.9994 0C12.7847 0 12.6106 0.174012 12.6106 0.388767V0.836057C10.0225 0.916765 7.60042 1.8016 5.75414 3.34936C3.79584 4.99099 2.7174 7.17955 2.7174 9.51184C2.7174 9.66584 2.80832 9.80533 2.94921 9.86748C3.0901 9.92968 3.25447 9.90273 3.3682 9.79906C3.98048 9.24053 5.14378 8.89349 6.4039 8.89349C7.66403 8.89349 8.82732 9.24048 9.4396 9.79906C9.58801 9.9344 9.8152 9.9344 9.96361 9.79906C10.5123 9.29848 11.5036 8.96808 12.6105 8.90479V19.0755H11.2926L10.0707 17.3649H10.9259C11.1406 17.3649 11.3147 17.1909 11.3147 16.9762C11.3147 16.7614 11.1406 16.5874 10.9259 16.5874H5.21422L3.20896 13.78C3.01992 13.5153 2.73902 13.34 2.41795 13.2865C2.09688 13.2328 1.7741 13.3077 1.50963 13.4969C0.963079 13.8873 0.836082 14.6496 1.22651 15.1962L5.37341 21.0019C5.42369 21.0722 5.48118 21.1359 5.54395 21.193L5.15161 23.5472C5.11631 23.759 5.25942 23.9593 5.47117 23.9947C5.49284 23.9982 5.51435 24 5.53555 24C5.72221 24 5.88684 23.8652 5.91862 23.6751L6.2797 21.5086C6.30785 21.5105 6.33615 21.5118 6.36456 21.5118H12.6106V23.6112C12.6106 23.8259 12.7847 23.9999 12.9994 23.9999C13.2142 23.9999 13.3882 23.8259 13.3882 23.6112V21.5118H20.9638L21.3243 23.675C21.356 23.8652 21.5207 23.9999 21.7074 23.9999C21.7286 23.9999 21.7501 23.9982 21.7718 23.9946C21.9835 23.9593 22.1266 23.759 22.0913 23.5472L21.7519 21.5106C22.4033 21.4874 22.9261 20.9506 22.9261 20.2936C22.9261 19.6219 22.3796 19.0755 21.708 19.0755H13.3882V8.90479C14.4951 8.96803 15.4864 9.29848 16.0351 9.79906C16.1835 9.9344 16.4107 9.9344 16.5591 9.79906C17.1715 9.24053 18.3347 8.89349 19.5948 8.89349C20.8549 8.89349 22.0182 9.24048 22.6305 9.79906C22.7036 9.86567 22.7975 9.9006 22.8927 9.9006C22.9456 9.9006 22.9991 9.88977 23.0495 9.86748C23.1904 9.80533 23.2813 9.66579 23.2813 9.51184C23.2814 7.17955 22.203 4.99099 20.2447 3.34936ZM9.11532 17.3649L10.3372 19.0755H6.99141L5.76959 17.3649H9.11532ZM22.1485 20.2936C22.1485 20.5366 21.9509 20.7343 21.7079 20.7343H6.36456C6.22263 20.7343 6.08859 20.6653 6.00601 20.5498L1.85916 14.7442C1.79079 14.6484 1.76373 14.5317 1.78307 14.4156C1.8024 14.2995 1.8658 14.1979 1.96174 14.1294C2.03711 14.0754 2.1256 14.0473 2.21657 14.0473C2.24098 14.0473 2.2655 14.0493 2.29007 14.0534C2.40618 14.0728 2.50783 14.1361 2.57626 14.2319L6.47507 19.6902C6.54801 19.7924 6.66588 19.853 6.79143 19.853H11.0922C11.0925 19.853 11.0927 19.8531 11.0931 19.8531C11.0933 19.8531 11.0935 19.853 11.0937 19.853H21.708C21.9508 19.853 22.1485 20.0507 22.1485 20.2936ZM14.9703 3.77654C15.5096 5.12426 15.8326 6.8747 15.8964 8.76421C15.1313 8.3517 14.1048 8.11596 12.9994 8.11596C11.894 8.11596 10.8674 8.3517 10.1023 8.76421C10.1661 6.8747 10.4892 5.12431 11.0284 3.77654C11.5802 2.39771 12.2985 1.6069 12.9994 1.6069C13.7002 1.6069 14.4186 2.39771 14.9703 3.77654ZM3.53926 8.74565C3.94969 5.21104 7.17091 2.35043 11.3157 1.73167C10.9395 2.1688 10.5985 2.75828 10.3066 3.48776C9.73113 4.92604 9.38803 6.78342 9.32406 8.7767C8.55658 8.35647 7.52049 8.11601 6.40395 8.11601C5.31452 8.11596 4.30072 8.34424 3.53926 8.74565ZM19.5949 8.11596C18.4783 8.11596 17.4422 8.35642 16.6748 8.77665C16.6108 6.78337 16.2677 4.92599 15.6922 3.48771C15.4003 2.75823 15.0594 2.1688 14.6831 1.73162C18.8279 2.35043 22.0491 5.21104 22.4596 8.7456C21.6981 8.34424 20.6843 8.11596 19.5949 8.11596Z" fill="#171717"/>
<path d="M20.2447 3.34936L19.6023 4.1157L19.6023 4.11571L20.2447 3.34936ZM13.3882 0.836057H12.3882V1.80534L13.357 1.83557L13.3882 0.836057ZM12.6106 0.836057L12.6418 1.83557L13.6106 1.80536V0.836057H12.6106ZM5.75414 3.34936L6.39657 4.11571L6.39658 4.1157L5.75414 3.34936ZM2.94921 9.86748L3.3531 8.95267L3.35282 8.95255L2.94921 9.86748ZM3.3682 9.79906L4.04188 10.5381L4.04213 10.5379L3.3682 9.79906ZM9.4396 9.79906L8.76564 10.5378L8.76576 10.5379L9.4396 9.79906ZM9.96361 9.79906L10.6375 10.5379L10.6376 10.5378L9.96361 9.79906ZM12.6105 8.90479H13.6105V7.84598L12.5535 7.90642L12.6105 8.90479ZM12.6105 19.0755V20.0755H13.6105V19.0755H12.6105ZM11.2926 19.0755L10.4788 19.6568L10.778 20.0755H11.2926V19.0755ZM10.0707 17.3649V16.3649H8.12749L9.25698 17.9462L10.0707 17.3649ZM5.21422 16.5874L4.40049 17.1686L4.6996 17.5874H5.21422V16.5874ZM3.20896 13.78L2.39516 14.3612L2.39523 14.3613L3.20896 13.78ZM2.41795 13.2865L2.25283 14.2728L2.2536 14.2729L2.41795 13.2865ZM1.50963 13.4969L2.09085 14.3107L2.09158 14.3101L1.50963 13.4969ZM1.22651 15.1962L0.412769 15.7774L0.412773 15.7774L1.22651 15.1962ZM5.37341 21.0019L4.55967 21.5831L4.55988 21.5834L5.37341 21.0019ZM5.54395 21.193L6.53034 21.3574L6.61985 20.8204L6.21732 20.4537L5.54395 21.193ZM5.15161 23.5472L6.138 23.7116L6.138 23.7116L5.15161 23.5472ZM5.47117 23.9947L5.3065 24.981L5.3083 24.9813L5.47117 23.9947ZM5.91862 23.6751L6.90494 23.8399L6.90501 23.8395L5.91862 23.6751ZM6.2797 21.5086L6.34951 20.511L5.44275 20.4476L5.29331 21.3442L6.2797 21.5086ZM12.6106 21.5118H13.6106V20.5118H12.6106V21.5118ZM13.3882 21.5118V20.5118H12.3882V21.5118H13.3882ZM20.9638 21.5118L21.9501 21.3474L21.8109 20.5118H20.9638V21.5118ZM21.3243 23.675L20.3379 23.8395L20.338 23.8396L21.3243 23.675ZM21.7718 23.9946L21.6071 23.0083L21.6066 23.0083L21.7718 23.9946ZM22.0913 23.5472L23.0777 23.3828L22.0913 23.5472ZM21.7519 21.5106L21.7162 20.5113L20.5783 20.5519L20.7655 21.675L21.7519 21.5106ZM13.3882 19.0755H12.3882V20.0755H13.3882V19.0755ZM13.3882 8.90479L13.4452 7.90642L12.3882 7.84603V8.90479H13.3882ZM16.0351 9.79906L15.3612 10.5378L15.3613 10.5379L16.0351 9.79906ZM16.5591 9.79906L17.233 10.5379L17.233 10.5379L16.5591 9.79906ZM22.6305 9.79906L21.9566 10.5378L21.9567 10.5379L22.6305 9.79906ZM23.0495 9.86748L22.6459 8.95255L22.6449 8.95297L23.0495 9.86748ZM23.2813 9.51184L22.2813 9.51182V9.51184H23.2813ZM9.11532 17.3649L9.92905 16.7837L9.62993 16.3649H9.11532V17.3649ZM10.3372 19.0755V20.0755H12.2804L11.1509 18.4943L10.3372 19.0755ZM6.99141 19.0755L6.17767 19.6567L6.47678 20.0755H6.99141V19.0755ZM5.76959 17.3649V16.3649H3.82642L4.95585 17.9462L5.76959 17.3649ZM6.00601 20.5498L5.19228 21.131L5.19255 21.1314L6.00601 20.5498ZM1.85916 14.7442L1.04522 15.3251L1.04543 15.3254L1.85916 14.7442ZM1.96174 14.1294L2.54294 14.9432L2.54388 14.9425L1.96174 14.1294ZM2.29007 14.0534L2.45476 13.067L2.45244 13.0666L2.29007 14.0534ZM2.57626 14.2319L3.38999 13.6506L3.38984 13.6504L2.57626 14.2319ZM6.47507 19.6902L7.28897 19.1092L7.28881 19.109L6.47507 19.6902ZM14.9703 3.77654L14.0419 4.14802L14.0419 4.14802L14.9703 3.77654ZM15.8964 8.76421L15.4218 9.64443L16.9546 10.4708L16.8958 8.73046L15.8964 8.76421ZM10.1023 8.76421L9.10289 8.73046L9.04412 10.4708L10.5769 9.64443L10.1023 8.76421ZM11.0284 3.77654L10.1 3.405L10.1 3.40507L11.0284 3.77654ZM3.53926 8.74566L2.54593 8.63031L2.32707 10.5151L4.00559 9.63026L3.53926 8.74566ZM11.3157 1.73167L12.0736 2.384L13.8281 0.345524L11.168 0.742633L11.3157 1.73167ZM10.3066 3.48776L9.37817 3.11627L9.37817 3.11628L10.3066 3.48776ZM9.32406 8.7767L8.84379 9.65383L10.2713 10.4355L10.3235 8.80878L9.32406 8.7767ZM6.40395 8.11601L6.40391 9.11601H6.40395V8.11601ZM16.6748 8.77665L15.6753 8.80875L15.7275 10.4354L17.155 9.65378L16.6748 8.77665ZM15.6922 3.48771L16.6207 3.11625L16.6207 3.11621L15.6922 3.48771ZM14.6831 1.73162L14.8308 0.742583L12.171 0.34547L13.9252 2.38391L14.6831 1.73162ZM22.4596 8.7456L21.9933 9.63025L23.6717 10.5149L23.4529 8.63026L22.4596 8.7456ZM20.8871 2.58302C18.8548 0.879311 16.2124 -0.0763029 13.4194 -0.163457L13.357 1.83557C15.7402 1.90994 17.942 2.72389 19.6023 4.1157L20.8871 2.58302ZM14.3882 0.836057V0.388767H12.3882V0.836057H14.3882ZM14.3882 0.388767C14.3882 -0.378273 13.7665 -1 12.9994 -1V1C12.6619 1 12.3882 0.726297 12.3882 0.388767H14.3882ZM12.9994 -1C12.2324 -1 11.6106 -0.378273 11.6106 0.388767H13.6106C13.6106 0.726297 13.3369 1 12.9994 1V-1ZM11.6106 0.388767V0.836057H13.6106V0.388767H11.6106ZM12.5795 -0.163457C9.78639 -0.0763587 7.144 0.879321 5.11171 2.58302L6.39658 4.1157C8.05685 2.72388 10.2586 1.90989 12.6418 1.83557L12.5795 -0.163457ZM5.11172 2.58301C2.95131 4.39407 1.7174 6.85319 1.7174 9.51184H3.7174C3.7174 7.5059 4.64038 5.58791 6.39657 4.11571L5.11172 2.58301ZM1.7174 9.51184C1.7174 10.062 2.04218 10.5603 2.54561 10.7824L3.35282 8.95255C3.57446 9.05032 3.7174 9.2697 3.7174 9.51184H1.7174ZM2.54532 10.7823C3.04904 11.0047 3.63588 10.9082 4.04188 10.5381L2.69452 9.06003C2.87306 8.89728 3.13117 8.85469 3.3531 8.95267L2.54532 10.7823ZM4.04213 10.5379C4.39461 10.2163 5.26731 9.89349 6.4039 9.89349V7.89349C5.02025 7.89349 3.56636 8.26474 2.69427 9.06027L4.04213 10.5379ZM6.4039 9.89349C7.54054 9.89349 8.41319 10.2163 8.76564 10.5378L10.1136 9.0603C9.24145 8.26467 7.78751 7.89349 6.4039 7.89349V9.89349ZM8.76576 10.5379C9.29594 11.0214 10.1073 11.0214 10.6375 10.5379L9.28977 9.06018C9.52313 8.84736 9.88008 8.84736 10.1134 9.06018L8.76576 10.5379ZM10.6376 10.5378C10.9477 10.2549 11.6754 9.9599 12.6676 9.90316L12.5535 7.90642C11.3319 7.97627 10.077 8.34202 9.28966 9.06028L10.6376 10.5378ZM11.6105 8.90479V19.0755H13.6105V8.90479H11.6105ZM12.6105 18.0755H11.2926V20.0755H12.6105V18.0755ZM12.1063 18.4943L10.8844 16.7837L9.25698 17.9462L10.4788 19.6568L12.1063 18.4943ZM10.0707 18.3649H10.9259V16.3649H10.0707V18.3649ZM10.9259 18.3649C11.6929 18.3649 12.3147 17.7432 12.3147 16.9762H10.3147C10.3147 16.6386 10.5884 16.3649 10.9259 16.3649V18.3649ZM12.3147 16.9762C12.3147 16.2091 11.6929 15.5874 10.9259 15.5874V17.5874C10.5884 17.5874 10.3147 17.3137 10.3147 16.9762H12.3147ZM10.9259 15.5874H5.21422V17.5874H10.9259V15.5874ZM6.02796 16.0062L4.0227 13.1988L2.39523 14.3613L4.40049 17.1686L6.02796 16.0062ZM4.02276 13.1989C3.67953 12.7183 3.165 12.3972 2.5823 12.3001L2.2536 14.2729C2.31304 14.2828 2.3603 14.3124 2.39516 14.3612L4.02276 13.1989ZM2.58307 12.3002C1.99973 12.2026 1.40816 12.3399 0.927688 12.6837L2.09158 14.3101C2.14004 14.2755 2.19403 14.2629 2.25283 14.2728L2.58307 12.3002ZM0.928418 12.6832C-0.0676754 13.3946 -0.298586 14.7815 0.412769 15.7774L2.04025 14.615C1.97075 14.5177 1.99383 14.38 2.09085 14.3107L0.928418 12.6832ZM0.412773 15.7774L4.55967 21.5831L6.18714 20.4206L2.04024 14.6149L0.412773 15.7774ZM4.55988 21.5834C4.65397 21.715 4.75931 21.831 4.87058 21.9324L6.21732 20.4537C6.20304 20.4407 6.19341 20.4294 6.18694 20.4204L4.55988 21.5834ZM4.55755 21.0287L4.16521 23.3828L6.138 23.7116L6.53034 21.3574L4.55755 21.0287ZM4.16521 23.3828C4.03909 24.1396 4.5504 24.8548 5.3065 24.981L5.63585 23.0083C5.96845 23.0638 6.19352 23.3785 6.138 23.7116L4.16521 23.3828ZM5.3083 24.9813C5.38284 24.9936 5.45882 25 5.53555 25V23C5.56988 23 5.60284 23.0029 5.63404 23.008L5.3083 24.9813ZM5.53555 25C6.20325 25 6.79136 24.5195 6.90494 23.8399L4.9323 23.5103C4.98232 23.2109 5.24117 23 5.53555 23V25ZM6.90501 23.8395L7.2661 21.673L5.29331 21.3442L4.93222 23.5107L6.90501 23.8395ZM6.20989 22.5061C6.25357 22.5092 6.30624 22.5118 6.36456 22.5118V20.5118C6.36606 20.5118 6.36213 20.5119 6.34951 20.511L6.20989 22.5061ZM6.36456 22.5118H12.6106V20.5118H6.36456V22.5118ZM11.6106 21.5118V23.6112H13.6106V21.5118H11.6106ZM11.6106 23.6112C11.6106 24.3782 12.2324 24.9999 12.9994 24.9999V22.9999C13.3369 22.9999 13.6106 23.2737 13.6106 23.6112H11.6106ZM12.9994 24.9999C13.7665 24.9999 14.3882 24.3782 14.3882 23.6112H12.3882C12.3882 23.2737 12.6619 22.9999 12.9994 22.9999V24.9999ZM14.3882 23.6112V21.5118H12.3882V23.6112H14.3882ZM13.3882 22.5118H20.9638V20.5118H13.3882V22.5118ZM19.9774 21.6762L20.3379 23.8395L22.3107 23.5106L21.9501 21.3474L19.9774 21.6762ZM20.338 23.8396C20.4514 24.5196 21.0399 24.9999 21.7074 24.9999V22.9999C22.0016 22.9999 22.2607 23.2107 22.3107 23.5105L20.338 23.8396ZM21.7074 24.9999C21.7825 24.9999 21.8593 24.9939 21.9369 24.9809L21.6066 23.0083C21.6409 23.0026 21.6747 22.9999 21.7074 22.9999V24.9999ZM21.9364 24.981C22.6925 24.8547 23.2039 24.1395 23.0777 23.3828L21.1049 23.7116C21.0494 23.3784 21.2745 23.0638 21.6071 23.0083L21.9364 24.981ZM23.0777 23.3828L22.7383 21.3462L20.7655 21.675L21.1049 23.7116L23.0777 23.3828ZM21.7876 22.51C22.9745 22.4676 23.9261 21.4915 23.9261 20.2936H21.9261C21.9261 20.4096 21.8321 20.5071 21.7162 20.5113L21.7876 22.51ZM23.9261 20.2936C23.9261 19.0696 22.9319 18.0755 21.708 18.0755V20.0755C21.8274 20.0755 21.9261 20.1742 21.9261 20.2936H23.9261ZM21.708 18.0755H13.3882V20.0755H21.708V18.0755ZM14.3882 19.0755V8.90479H12.3882V19.0755H14.3882ZM13.3311 9.90316C14.3233 9.95985 15.051 10.2549 15.3612 10.5378L16.7091 9.06028C15.9217 8.34204 14.6668 7.97621 13.4452 7.90642L13.3311 9.90316ZM15.3613 10.5379C15.8914 11.0214 16.7028 11.0214 17.233 10.5379L15.8853 9.06018C16.1186 8.84736 16.4756 8.84736 16.709 9.06018L15.3613 10.5379ZM17.233 10.5379C17.5856 10.2163 18.4583 9.89349 19.5948 9.89349V7.89349C18.2111 7.89349 16.7573 8.26475 15.8852 9.06024L17.233 10.5379ZM19.5948 9.89349C20.7315 9.89349 21.6041 10.2163 21.9566 10.5378L23.3045 9.0603C22.4324 8.26467 20.9784 7.89349 19.5948 7.89349V9.89349ZM21.9567 10.5379C22.2178 10.776 22.5534 10.9006 22.8927 10.9006V8.9006C23.0415 8.9006 23.1894 8.95529 23.3044 9.06019L21.9567 10.5379ZM22.8927 10.9006C23.0819 10.9006 23.2735 10.8619 23.4541 10.782L22.6449 8.95297C22.7248 8.91766 22.8094 8.9006 22.8927 8.9006V10.9006ZM23.4531 10.7824C23.9566 10.5603 24.2813 10.0619 24.2813 9.51184H22.2813C22.2813 9.26972 22.4242 9.05035 22.6459 8.95255L23.4531 10.7824ZM24.2813 9.51186C24.2814 6.85321 23.0475 4.39408 20.8871 2.58301L19.6023 4.11571C21.3584 5.5879 22.2814 7.50588 22.2813 9.51182L24.2813 9.51186ZM8.30159 17.9462L9.52346 19.6568L11.1509 18.4943L9.92905 16.7837L8.30159 17.9462ZM10.3372 18.0755H6.99141V20.0755H10.3372V18.0755ZM7.80515 18.4943L6.58333 16.7837L4.95585 17.9462L6.17767 19.6567L7.80515 18.4943ZM5.76959 18.3649H9.11532V16.3649H5.76959V18.3649ZM21.1485 20.2936C21.1485 19.9843 21.3986 19.7343 21.7079 19.7343V21.7343C22.5031 21.7343 23.1485 21.0889 23.1485 20.2936H21.1485ZM21.7079 19.7343H6.36456V21.7343H21.7079V19.7343ZM6.36456 19.7343C6.54572 19.7343 6.71448 19.8213 6.81947 19.9681L5.19255 21.1314C5.46269 21.5092 5.89955 21.7343 6.36456 21.7343V19.7343ZM6.81975 19.9685L2.6729 14.1629L1.04543 15.3254L5.19228 21.131L6.81975 19.9685ZM2.6731 14.1632C2.75854 14.2829 2.79375 14.4342 2.76947 14.5799L0.796661 14.2513C0.733718 14.6291 0.82304 15.0138 1.04522 15.3251L2.6731 14.1632ZM2.76947 14.5799C2.74517 14.7258 2.66259 14.8577 2.54294 14.9432L1.38055 13.3156C1.069 13.5382 0.859638 13.8732 0.796661 14.2513L2.76947 14.5799ZM2.54388 14.9425C2.44955 15.01 2.33449 15.0473 2.21657 15.0473V13.0473C1.9167 13.0473 1.62467 13.1409 1.37961 13.3163L2.54388 14.9425ZM2.21657 15.0473C2.18557 15.0473 2.15578 15.0447 2.1277 15.0401L2.45244 13.0666C2.37522 13.0539 2.2964 13.0473 2.21657 13.0473V15.0473ZM2.12539 15.0397C1.98031 15.0155 1.84848 14.9334 1.76267 14.8133L3.38984 13.6504C3.16719 13.3389 2.83206 13.13 2.45476 13.067L2.12539 15.0397ZM1.76252 14.8131L5.66134 20.2715L7.28881 19.109L3.38999 13.6506L1.76252 14.8131ZM5.66117 20.2712C5.92192 20.6365 6.34304 20.853 6.79143 20.853V18.853C6.98872 18.853 7.17409 18.9483 7.28897 19.1092L5.66117 20.2712ZM6.79143 20.853H11.0922V18.853H6.79143V20.853ZM11.0922 20.853C11.0642 20.853 11.0411 20.8519 11.0254 20.8508C11.0177 20.8503 11.0114 20.8498 11.0075 20.8494C11.0039 20.8491 11.0009 20.8489 11.0014 20.8489C11.0014 20.8489 11.0014 20.8489 11.0015 20.8489C11.0015 20.8489 11.0015 20.8489 11.0015 20.8489C11.0016 20.8489 11.0017 20.8489 11.0018 20.8489C11.0021 20.849 11.0025 20.849 11.003 20.8491C11.004 20.8491 11.0057 20.8493 11.0077 20.8495C11.0117 20.8498 11.018 20.8503 11.0258 20.8508C11.0417 20.8519 11.0649 20.8531 11.0931 20.8531V18.8531C11.121 18.8531 11.1441 18.8543 11.1598 18.8553C11.1676 18.8559 11.1739 18.8564 11.1778 18.8567C11.1813 18.857 11.1843 18.8573 11.1838 18.8572C11.1838 18.8572 11.1838 18.8572 11.1838 18.8572C11.1838 18.8572 11.1837 18.8572 11.1837 18.8572C11.1836 18.8572 11.1835 18.8572 11.1834 18.8572C11.1831 18.8572 11.1827 18.8571 11.1822 18.8571C11.1812 18.857 11.1796 18.8569 11.1776 18.8567C11.1736 18.8563 11.1672 18.8558 11.1594 18.8553C11.1435 18.8542 11.1203 18.853 11.0922 18.853V20.853ZM11.0931 20.8531C11.1137 20.8531 11.1315 20.8525 11.1453 20.8517C11.1591 20.851 11.1708 20.8501 11.1792 20.8494C11.1877 20.8487 11.1944 20.848 11.1984 20.8475C11.2004 20.8473 11.202 20.8472 11.203 20.847C11.2035 20.847 11.2039 20.8469 11.2042 20.8469C11.2043 20.8469 11.2044 20.8469 11.2045 20.8469C11.2045 20.8469 11.2045 20.8469 11.2046 20.8469C11.2046 20.8469 11.2046 20.8469 11.2046 20.8469C11.2046 20.8469 11.2046 20.8469 11.2046 20.8469C11.2051 20.8468 11.2021 20.8472 11.1985 20.8475C11.1947 20.8479 11.188 20.8486 11.1796 20.8493C11.1712 20.8501 11.1596 20.851 11.1458 20.8517C11.132 20.8524 11.1144 20.853 11.0937 20.853V18.853C11.0731 18.853 11.0553 18.8537 11.0415 18.8544C11.0276 18.8551 11.016 18.856 11.0076 18.8568C10.9991 18.8575 10.9923 18.8582 10.9884 18.8586C10.9864 18.8588 10.9848 18.859 10.9838 18.8591C10.9833 18.8592 10.9828 18.8592 10.9826 18.8592C10.9825 18.8592 10.9824 18.8593 10.9823 18.8593C10.9823 18.8593 10.9822 18.8593 10.9822 18.8593C10.9822 18.8593 10.9822 18.8593 10.9822 18.8593C10.9822 18.8593 10.9822 18.8593 10.9822 18.8593C10.9816 18.8593 10.9847 18.859 10.9883 18.8586C10.9921 18.8582 10.9988 18.8575 11.0072 18.8568C11.0156 18.8561 11.0272 18.8552 11.041 18.8545C11.0547 18.8537 11.0724 18.8531 11.0931 18.8531V20.8531ZM11.0937 20.853H21.708V18.853H11.0937V20.853ZM21.708 20.853C21.3985 20.853 21.1485 20.603 21.1485 20.2936H23.1485C23.1485 19.4984 22.5031 18.853 21.708 18.853V20.853ZM14.0419 4.14802C14.5269 5.36017 14.8359 6.98979 14.897 8.79796L16.8958 8.73046C16.8293 6.75961 16.4922 4.88835 15.8987 3.40505L14.0419 4.14802ZM16.371 7.884C15.4306 7.37699 14.2334 7.11596 12.9994 7.11596V9.11596C13.9761 9.11596 14.832 9.32642 15.4218 9.64443L16.371 7.884ZM12.9994 7.11596C11.7653 7.11596 10.5681 7.37699 9.62775 7.884L10.5769 9.64443C11.1667 9.32642 12.0226 9.11596 12.9994 9.11596V7.11596ZM11.1018 8.79796C11.1628 6.9898 11.4719 5.36022 11.9569 4.14801L10.1 3.40507C9.50649 4.88841 9.16945 6.7596 9.10289 8.73046L11.1018 8.79796ZM11.9568 4.14808C12.2061 3.52515 12.469 3.09939 12.6982 2.84706C12.9359 2.58545 13.0425 2.6069 12.9994 2.6069V0.606904C12.2554 0.606904 11.6525 1.02376 11.2178 1.50226C10.7747 1.99004 10.4025 2.6491 10.1 3.405L11.9568 4.14808ZM12.9994 2.6069C12.9563 2.6069 13.0629 2.58544 13.3006 2.84706C13.5298 3.09937 13.7926 3.52512 14.0419 4.14802L15.8987 3.40506C15.5963 2.64913 15.2241 1.99005 14.781 1.50226C14.3463 1.02377 13.7434 0.606904 12.9994 0.606904V2.6069ZM4.53258 8.861C4.87796 5.88664 7.6439 3.29091 11.4633 2.72071L11.168 0.742633C6.69793 1.40996 3.02142 4.53543 2.54593 8.63031L4.53258 8.861ZM10.5578 1.07934C10.0904 1.6223 9.69846 2.31579 9.37817 3.11627L11.235 3.85925C11.4985 3.20077 11.7885 2.7153 12.0736 2.384L10.5578 1.07934ZM9.37817 3.11628C8.74864 4.68964 8.39122 6.66797 8.32458 8.74463L10.3235 8.80878C10.3848 6.89886 10.7136 5.16245 11.235 3.85924L9.37817 3.11628ZM9.80433 7.89958C8.85926 7.38211 7.64998 7.11601 6.40395 7.11601V9.11601C7.39101 9.11601 8.2539 9.33083 8.84379 9.65383L9.80433 7.89958ZM6.404 7.11601C5.18789 7.11595 4.00684 7.36872 3.07293 7.86104L4.00559 9.63026C4.59461 9.31976 5.44116 9.11596 6.40391 9.11601L6.404 7.11601ZM19.5949 7.11596C18.3489 7.11596 17.1396 7.38206 16.1945 7.89953L17.155 9.65378C17.7449 9.33078 18.6078 9.11596 19.5949 9.11596V7.11596ZM17.6743 8.74455C17.6076 6.66791 17.2501 4.68959 16.6207 3.11625L14.7638 3.85916C15.2852 5.16239 15.6139 6.89882 15.6753 8.80875L17.6743 8.74455ZM16.6207 3.11621C16.3004 2.3157 15.9084 1.6223 15.4411 1.07934L13.9252 2.38391C14.2104 2.7153 14.5003 3.20075 14.7638 3.8592L16.6207 3.11621ZM14.5355 2.72066C18.3549 3.2909 21.1209 5.88665 21.4662 8.86095L23.4529 8.63026C22.9774 4.53542 19.3009 1.40997 14.8308 0.742583L14.5355 2.72066ZM22.9258 7.86096C21.9919 7.36873 20.811 7.11596 19.5949 7.11596V9.11596C20.5576 9.11596 21.4042 9.31975 21.9933 9.63025L22.9258 7.86096Z" fill="#171717" mask="url(#path-1-inside-1_1172_12747)"/>
</svg>
