<svg width="24" height="24" viewBox="0 0 24 24" fill="none" xmlns="http://www.w3.org/2000/svg">
<g clip-path="url(#clip0_1172_12764)">
<mask id="path-1-inside-1_1172_12764" fill="white">
<path d="M21.3916 15.6748C21.3684 15.636 21.3439 15.5988 21.3196 15.566C21.0772 15.2272 20.7167 15.0032 20.3056 14.9356C19.8963 14.868 19.4815 14.9644 19.144 15.2068L14.6719 18.4H9.99995C9.77955 18.4 9.59997 18.2208 9.59997 18C9.59997 17.7793 9.77955 17.6 9.99995 17.6H12.6C13.372 17.6 14 16.9721 14 16.2C14 16.1956 13.9996 16.1588 13.9992 16.1548C13.9744 15.3832 13.3236 14.7816 12.568 14.8001H7.36441C6.9032 14.804 6.454 14.9693 6.1 15.2645L4.144 16.8925C4.05278 16.9689 4 17.0813 4 17.2001V22.0001C4 22.2213 4.1792 22.4 4.39998 22.4H14.3244C14.974 22.3993 15.6068 22.1705 16.1068 21.7565L20.956 17.7497C21.6148 17.2804 21.806 16.3692 21.3916 15.6748ZM20.4696 17.1156L15.5972 21.14C15.2395 21.436 14.7872 21.5992 14.3239 21.6H4.79997V17.3876L6.61234 15.8788C6.82516 15.7016 7.09436 15.6023 7.36797 15.5999L12.5808 15.5996C12.9123 15.5991 13.1891 15.85 13.2 16.2C13.2 16.5308 12.9308 16.8 12.6 16.8H9.99995C9.33836 16.8 8.79995 17.3384 8.79995 18C8.79995 18.6616 9.33836 19.2 9.99995 19.2H14.8C14.8832 19.2 14.9643 19.174 15.0332 19.1256L19.6099 15.8572C19.7748 15.7388 19.9751 15.6928 20.176 15.7248C20.3763 15.758 20.5516 15.8668 20.6719 16.0348C20.6839 16.0512 20.6947 16.0679 20.7051 16.0851C20.9076 16.424 20.8135 16.8692 20.4696 17.1156Z"/>
</mask>
<path d="M21.3916 15.6748C21.3684 15.636 21.3439 15.5988 21.3196 15.566C21.0772 15.2272 20.7167 15.0032 20.3056 14.9356C19.8963 14.868 19.4815 14.9644 19.144 15.2068L14.6719 18.4H9.99995C9.77955 18.4 9.59997 18.2208 9.59997 18C9.59997 17.7793 9.77955 17.6 9.99995 17.6H12.6C13.372 17.6 14 16.9721 14 16.2C14 16.1956 13.9996 16.1588 13.9992 16.1548C13.9744 15.3832 13.3236 14.7816 12.568 14.8001H7.36441C6.9032 14.804 6.454 14.9693 6.1 15.2645L4.144 16.8925C4.05278 16.9689 4 17.0813 4 17.2001V22.0001C4 22.2213 4.1792 22.4 4.39998 22.4H14.3244C14.974 22.3993 15.6068 22.1705 16.1068 21.7565L20.956 17.7497C21.6148 17.2804 21.806 16.3692 21.3916 15.6748ZM20.4696 17.1156L15.5972 21.14C15.2395 21.436 14.7872 21.5992 14.3239 21.6H4.79997V17.3876L6.61234 15.8788C6.82516 15.7016 7.09436 15.6023 7.36797 15.5999L12.5808 15.5996C12.9123 15.5991 13.1891 15.85 13.2 16.2C13.2 16.5308 12.9308 16.8 12.6 16.8H9.99995C9.33836 16.8 8.79995 17.3384 8.79995 18C8.79995 18.6616 9.33836 19.2 9.99995 19.2H14.8C14.8832 19.2 14.9643 19.174 15.0332 19.1256L19.6099 15.8572C19.7748 15.7388 19.9751 15.6928 20.176 15.7248C20.3763 15.758 20.5516 15.8668 20.6719 16.0348C20.6839 16.0512 20.6947 16.0679 20.7051 16.0851C20.9076 16.424 20.8135 16.8692 20.4696 17.1156Z" fill="#171717"/>
<path d="M21.3916 15.6748L22.2503 15.1623L22.2499 15.1617L21.3916 15.6748ZM21.3196 15.566L20.5063 16.1478L20.5115 16.1551L20.5168 16.1623L21.3196 15.566ZM20.3056 14.9356L20.1426 15.9222L20.1432 15.9223L20.3056 14.9356ZM19.144 15.2068L19.7251 16.0206L19.7273 16.0191L19.144 15.2068ZM14.6719 18.4V19.4H14.9923L15.253 19.2138L14.6719 18.4ZM13.9992 16.1548L12.9997 16.187L13.0007 16.2178L13.0036 16.2485L13.9992 16.1548ZM12.568 14.8001V15.8001H12.5802L12.5924 15.7998L12.568 14.8001ZM7.36441 14.8001V13.8L7.35577 13.8001L7.36441 14.8001ZM6.1 15.2645L6.73972 16.0331L6.7404 16.0325L6.1 15.2645ZM4.144 16.8925L3.50427 16.1239L3.50188 16.1259L4.144 16.8925ZM14.3244 22.4V23.4001L14.3256 23.4L14.3244 22.4ZM16.1068 21.7565L15.4699 20.9856L15.4691 20.9862L16.1068 21.7565ZM20.956 17.7497L20.3758 16.9352L20.3467 16.956L20.3191 16.9788L20.956 17.7497ZM20.4696 17.1156L19.8872 16.3027L19.8593 16.3227L19.8328 16.3446L20.4696 17.1156ZM15.5972 21.14L14.9603 20.369L14.9595 20.3697L15.5972 21.14ZM14.3239 21.6V22.6L14.3257 22.6L14.3239 21.6ZM4.79997 21.6H3.79997V22.6H4.79997V21.6ZM4.79997 17.3876L4.16016 16.619L3.79997 16.9189V17.3876H4.79997ZM6.61234 15.8788L7.25215 16.6473L7.25219 16.6473L6.61234 15.8788ZM7.36797 15.5999L7.3679 14.5999L7.35923 14.6L7.36797 15.5999ZM12.5808 15.5996L12.5808 16.5996L12.582 16.5996L12.5808 15.5996ZM13.2 16.2H14.2V16.1845L14.1995 16.1691L13.2 16.2ZM15.0332 19.1256L15.6083 19.9437L15.6143 19.9394L15.0332 19.1256ZM19.6099 15.8572L20.1911 16.671L20.1934 16.6693L19.6099 15.8572ZM20.176 15.7248L20.3393 14.7382L20.3332 14.7372L20.176 15.7248ZM20.6719 16.0348L19.859 16.6172L19.8648 16.6251L20.6719 16.0348ZM20.7051 16.0851L21.5636 15.5722L21.5608 15.5676L20.7051 16.0851ZM22.2499 15.1617C22.2132 15.1003 22.1704 15.0345 22.1223 14.9697L20.5168 16.1623C20.5167 16.1622 20.5184 16.1645 20.5216 16.1693C20.5248 16.1741 20.5287 16.1803 20.5332 16.1879L22.2499 15.1617ZM22.1329 14.9842C21.7357 14.429 21.1409 14.0596 20.4679 13.9488L20.1432 15.9223C20.2926 15.9469 20.4187 16.0254 20.5063 16.1478L22.1329 14.9842ZM20.4685 13.9489C19.7979 13.8382 19.1145 13.9968 18.5606 14.3945L19.7273 16.0191C19.8486 15.9319 19.9948 15.8978 20.1426 15.9222L20.4685 13.9489ZM18.5628 14.393L14.0908 17.5862L15.253 19.2138L19.7251 16.0206L18.5628 14.393ZM14.6719 17.4H9.99995V19.4H14.6719V17.4ZM9.99995 17.4C10.3312 17.4 10.6 17.6679 10.6 18H8.59997C8.59997 18.7737 9.22787 19.4 9.99995 19.4V17.4ZM10.6 18C10.6 18.3321 10.3312 18.6 9.99995 18.6V16.6C9.22787 16.6 8.59997 17.2264 8.59997 18H10.6ZM9.99995 18.6H12.6V16.6H9.99995V18.6ZM12.6 18.6C13.9242 18.6 15 17.5244 15 16.2H13C13 16.4198 12.8197 16.6 12.6 16.6V18.6ZM15 16.2C15 16.1893 14.9998 16.1717 14.9996 16.1624C14.9995 16.1563 14.9994 16.1482 14.9992 16.1404C14.9991 16.1367 14.999 16.1306 14.9988 16.1238C14.9986 16.1205 14.9984 16.1147 14.9981 16.1076C14.9979 16.1045 14.9971 16.0852 14.9948 16.0611L13.0036 16.2485C13.0023 16.2346 13.0015 16.2236 13.0012 16.2184C13.0008 16.2123 13.0006 16.2074 13.0004 16.2043C13.0001 16.1982 13 16.1936 12.9999 16.1917C12.9998 16.1894 12.9998 16.1877 12.9998 16.187C12.9997 16.1861 12.9997 16.1856 12.9997 16.1856C12.9997 16.1855 12.9997 16.1861 12.9998 16.1874C12.9998 16.1887 12.9998 16.1903 12.9998 16.1921C12.9999 16.1958 12.9999 16.1997 13 16.2027C13 16.2042 13 16.2051 13 16.2055C13 16.2058 13 16.2056 13 16.2051C13 16.205 13 16.2029 13 16.2H15ZM14.9987 16.1227C14.9561 14.7968 13.8429 13.7687 12.5436 13.8004L12.5924 15.7998C12.8042 15.7946 12.9927 15.9697 12.9997 16.187L14.9987 16.1227ZM12.568 13.8001H7.36441V15.8001H12.568V13.8001ZM7.35577 13.8001C6.6631 13.8061 5.99076 14.0535 5.4596 14.4964L6.7404 16.0325C6.91724 15.885 7.1433 15.802 7.37305 15.8L7.35577 13.8001ZM5.46028 14.4959L3.50428 16.1239L4.78372 17.6611L6.73972 16.0331L5.46028 14.4959ZM3.50188 16.1259C3.18539 16.391 3 16.7834 3 17.2001H5C5 17.3792 4.92017 17.5468 4.78612 17.6591L3.50188 16.1259ZM3 17.2001V22.0001H5V17.2001H3ZM3 22.0001C3 22.7742 3.6276 23.4 4.39998 23.4V21.4C4.7308 21.4 5 21.6683 5 22.0001H3ZM4.39998 23.4H14.3244V21.4H4.39998V23.4ZM14.3256 23.4C15.208 23.399 16.0658 23.0887 16.7446 22.5267L15.4691 20.9862C15.1478 21.2522 14.74 21.3995 14.3232 21.4001L14.3256 23.4ZM16.7438 22.5273L21.593 18.5206L20.3191 16.9788L15.4699 20.9856L16.7438 22.5273ZM21.5363 18.5641C22.6192 17.7926 22.9317 16.3041 22.2503 15.1623L20.5329 16.1873C20.6803 16.4343 20.6103 16.7682 20.3758 16.9352L21.5363 18.5641ZM19.8328 16.3446L14.9603 20.369L16.234 21.911L21.1064 17.8866L19.8328 16.3446ZM14.9595 20.3697C14.7808 20.5176 14.5533 20.5996 14.3222 20.6L14.3257 22.6C15.021 22.5988 15.6983 22.3544 16.2348 21.9103L14.9595 20.3697ZM14.3239 20.6H4.79997V22.6H14.3239V20.6ZM5.79997 21.6V17.3876H3.79997V21.6H5.79997ZM5.43978 18.1561L7.25215 16.6473L5.97253 15.1102L4.16016 16.619L5.43978 18.1561ZM7.25219 16.6473C7.2897 16.616 7.33653 16.6003 7.37671 16.5999L7.35923 14.6C6.85219 14.6044 6.36061 14.7871 5.97249 15.1103L7.25219 16.6473ZM7.36804 16.5999L12.5808 16.5996L12.5807 14.5996L7.3679 14.5999L7.36804 16.5999ZM12.582 16.5996C12.4922 16.5997 12.3969 16.5646 12.3219 16.4933C12.244 16.4194 12.2032 16.3206 12.2004 16.2309L14.1995 16.1691C14.1714 15.261 13.434 14.5985 12.5795 14.5996L12.582 16.5996ZM12.2 16.2C12.2 15.9785 12.3785 15.8 12.6 15.8V17.8C13.483 17.8 14.2 17.0831 14.2 16.2H12.2ZM12.6 15.8H9.99995V17.8H12.6V15.8ZM9.99995 15.8C8.78607 15.8 7.79995 16.7861 7.79995 18H9.79995C9.79995 17.8907 9.89064 17.8 9.99995 17.8V15.8ZM7.79995 18C7.79995 19.2139 8.78607 20.2 9.99995 20.2V18.2C9.89064 18.2 9.79995 18.1093 9.79995 18H7.79995ZM9.99995 20.2H14.8V18.2H9.99995V20.2ZM14.8 20.2C15.0929 20.2 15.3742 20.1082 15.6083 19.9437L14.458 18.3075C14.5545 18.2397 14.6735 18.2 14.8 18.2V20.2ZM15.6143 19.9394L20.1911 16.671L19.0288 15.0434L14.452 18.3118L15.6143 19.9394ZM20.1934 16.6693C20.1396 16.708 20.0728 16.7209 20.0187 16.7123L20.3332 14.7372C19.8775 14.6647 19.4099 14.7696 19.0265 15.0451L20.1934 16.6693ZM20.0126 16.7113C19.9843 16.7067 19.9537 16.6957 19.9246 16.6776C19.8955 16.6595 19.8737 16.6376 19.8591 16.6172L21.4848 15.4523C21.2111 15.0703 20.803 14.815 20.3393 14.7382L20.0126 16.7113ZM19.8648 16.6251C19.8537 16.61 19.848 16.6002 19.8495 16.6027L21.5608 15.5676C21.5415 15.5357 21.5142 15.4924 21.4791 15.4444L19.8648 16.6251ZM19.8467 16.598C19.7691 16.4681 19.8298 16.3438 19.8872 16.3027L21.052 17.9285C21.7973 17.3946 22.0461 16.3799 21.5636 15.5723L19.8467 16.598Z" fill="#171717" mask="url(#path-1-inside-1_1172_12764)"/>
<mask id="path-3-inside-2_1172_12764" fill="white">
<path d="M4.38802 16.4H0V17.2H3.98798V23.2H0V24H4.38802C4.6088 24 4.788 23.8212 4.788 23.6V16.8C4.788 16.5788 4.6088 16.4 4.38802 16.4Z"/>
</mask>
<path d="M4.38802 16.4H0V17.2H3.98798V23.2H0V24H4.38802C4.6088 24 4.788 23.8212 4.788 23.6V16.8C4.788 16.5788 4.6088 16.4 4.38802 16.4Z" fill="#171717"/>
<path d="M0 16.4V15.4H-1V16.4H0ZM0 17.2H-1V18.2H0V17.2ZM3.98798 17.2H4.98798V16.2H3.98798V17.2ZM3.98798 23.2V24.2H4.98798V23.2H3.98798ZM0 23.2V22.2H-1V23.2H0ZM0 24H-1V25H0V24ZM4.38802 15.4H0V17.4H4.38802V15.4ZM-1 16.4V17.2H1V16.4H-1ZM0 18.2H3.98798V16.2H0V18.2ZM2.98798 17.2V23.2H4.98798V17.2H2.98798ZM3.98798 22.2H0V24.2H3.98798V22.2ZM-1 23.2V24H1V23.2H-1ZM0 25H4.38802V23H0V25ZM4.38802 25C5.16039 25 5.788 24.3742 5.788 23.6H3.788C3.788 23.2683 4.0572 23 4.38802 23V25ZM5.788 23.6V16.8H3.788V23.6H5.788ZM5.788 16.8C5.788 16.0258 5.16039 15.4 4.38802 15.4V17.4C4.0572 17.4 3.788 17.1318 3.788 16.8H5.788Z" fill="#171717" mask="url(#path-3-inside-2_1172_12764)"/>
<mask id="path-5-inside-3_1172_12764" fill="white">
<path d="M2.00005 20C1.33846 20 0.800049 20.5384 0.800049 21.2C0.800049 21.8616 1.33846 22.4 2.00005 22.4C2.66164 22.4 3.20005 21.8616 3.20005 21.2C3.20005 20.5384 2.66164 20 2.00005 20ZM2.00005 21.6C1.77964 21.6 1.60006 21.4208 1.60006 21.2C1.60006 20.9792 1.77964 20.8 2.00005 20.8C2.22046 20.8 2.40003 20.9792 2.40003 21.2C2.40003 21.4208 2.22046 21.6 2.00005 21.6Z"/>
</mask>
<path d="M2.00005 20C1.33846 20 0.800049 20.5384 0.800049 21.2C0.800049 21.8616 1.33846 22.4 2.00005 22.4C2.66164 22.4 3.20005 21.8616 3.20005 21.2C3.20005 20.5384 2.66164 20 2.00005 20ZM2.00005 21.6C1.77964 21.6 1.60006 21.4208 1.60006 21.2C1.60006 20.9792 1.77964 20.8 2.00005 20.8C2.22046 20.8 2.40003 20.9792 2.40003 21.2C2.40003 21.4208 2.22046 21.6 2.00005 21.6Z" fill="#171717"/>
<path d="M2.00005 19C0.78617 19 -0.199951 19.9861 -0.199951 21.2H1.80005C1.80005 21.0907 1.89074 21 2.00005 21V19ZM-0.199951 21.2C-0.199951 22.4139 0.78617 23.4 2.00005 23.4V21.4C1.89074 21.4 1.80005 21.3093 1.80005 21.2H-0.199951ZM2.00005 23.4C3.21393 23.4 4.20005 22.4139 4.20005 21.2H2.20005C2.20005 21.3093 2.10936 21.4 2.00005 21.4V23.4ZM4.20005 21.2C4.20005 19.9861 3.21393 19 2.00005 19V21C2.10936 21 2.20005 21.0907 2.20005 21.2H4.20005ZM2.00005 20.6C2.33132 20.6 2.60006 20.8679 2.60006 21.2H0.600064C0.600064 21.9737 1.22797 22.6 2.00005 22.6V20.6ZM2.60006 21.2C2.60006 21.5321 2.33132 21.8 2.00005 21.8V19.8C1.22797 19.8 0.600064 20.4263 0.600064 21.2H2.60006ZM2.00005 21.8C1.66878 21.8 1.40003 21.5321 1.40003 21.2H3.40003C3.40003 20.4263 2.77213 19.8 2.00005 19.8V21.8ZM1.40003 21.2C1.40003 20.8679 1.66878 20.6 2.00005 20.6V22.6C2.77213 22.6 3.40003 21.9737 3.40003 21.2H1.40003Z" fill="#171717" mask="url(#path-5-inside-3_1172_12764)"/>
<mask id="path-7-inside-4_1172_12764" fill="white">
<path d="M23.6 12.4H0.399984C0.179203 12.4 0 12.5788 0 12.8C0 14.3436 1.25602 15.6 2.79998 15.6H21.2C22.7436 15.6 24 14.3436 24 12.8C24 12.5788 23.8212 12.4 23.6 12.4ZM21.2 14.8H2.79998C1.83398 14.8 1.026 14.1116 0.840375 13.2H23.1596C22.974 14.1116 22.166 14.8 21.2 14.8Z"/>
</mask>
<path d="M23.6 12.4H0.399984C0.179203 12.4 0 12.5788 0 12.8C0 14.3436 1.25602 15.6 2.79998 15.6H21.2C22.7436 15.6 24 14.3436 24 12.8C24 12.5788 23.8212 12.4 23.6 12.4ZM21.2 14.8H2.79998C1.83398 14.8 1.026 14.1116 0.840375 13.2H23.1596C22.974 14.1116 22.166 14.8 21.2 14.8Z" fill="#171717"/>
<path d="M24 12.8L23 12.7998V12.8H24ZM0.840375 13.2V12.2H-0.383777L-0.139516 13.3995L0.840375 13.2ZM23.1596 13.2L24.1395 13.3995L24.3837 12.2H23.1596V13.2ZM23.6 11.4H0.399984V13.4H23.6V11.4ZM0.399984 11.4C-0.372398 11.4 -1 12.0258 -1 12.8H1C1 13.1317 0.730804 13.4 0.399984 13.4V11.4ZM-1 12.8C-1 14.8958 0.703644 16.6 2.79998 16.6V14.6C1.80839 14.6 1 13.7914 1 12.8H-1ZM2.79998 16.6H21.2V14.6H2.79998V16.6ZM21.2 16.6C23.2958 16.6 25 14.8959 25 12.8H23C23 13.7913 22.1913 14.6 21.2 14.6V16.6ZM25 12.8002C25.0001 12.0266 24.3735 11.4 23.6 11.4V13.4C23.2689 13.4 22.9999 13.131 23 12.7998L25 12.8002ZM21.2 13.8H2.79998V15.8H21.2V13.8ZM2.79998 13.8C2.31955 13.8 1.91309 13.4563 1.82027 13.0005L-0.139516 13.3995C0.138913 14.7669 1.34842 15.8 2.79998 15.8V13.8ZM0.840375 14.2H23.1596V12.2H0.840375V14.2ZM22.1797 13.0005C22.0869 13.4563 21.6805 13.8 21.2 13.8V15.8C22.6516 15.8 23.8611 14.7669 24.1395 13.3995L22.1797 13.0005Z" fill="#171717" mask="url(#path-7-inside-4_1172_12764)"/>
<path d="M12.0001 2.00003C6.26571 2.00003 1.6001 6.66564 1.6001 12.4V12.8C1.6001 13.0212 1.7793 13.2 2.00008 13.2H22.0001C22.2213 13.2 22.4001 13.0212 22.4001 12.8V12.4C22.4001 6.66559 17.7349 2.00003 12.0001 2.00003ZM2.40011 12.4C2.40011 7.10678 6.70689 2.8 12.0001 2.8C17.2933 2.8 21.6001 7.10678 21.6001 12.4H2.40011Z" fill="#171717"/>
<path d="M5.42078 6.56277C5.14117 6.87717 4.882 7.21359 4.65039 7.56318L5.31719 8.00517C5.52841 7.68674 5.76438 7.37995 6.01877 7.09396L5.42078 6.56277Z" fill="#171717"/>
<path d="M12 3.60001C9.75362 3.60122 7.61481 4.44999 5.97803 5.9888L6.52604 6.5716C8.01404 5.17238 9.95842 4.40119 12.0004 4.40002L12 3.60001Z" fill="#171717"/>
<path d="M13.2 0H10.8V0.800016H13.2V0Z" fill="#171717"/>
<path d="M12.4001 0.399994H11.6001V2.40001H12.4001V0.399994Z" fill="#171717"/>
</g>
<defs>
<clipPath id="clip0_1172_12764">
<rect width="24" height="24" fill="white"/>
</clipPath>
</defs>
</svg>
