<svg width="24" height="24" viewBox="0 0 24 24" fill="none" xmlns="http://www.w3.org/2000/svg">
<g clip-path="url(#clip0_1172_12721)">
<path d="M12.098 19.644L12.0974 19.6433C12.0976 19.6436 12.0979 19.6439 12.0982 19.6441C12.0982 19.6442 12.0982 19.6442 12.0983 19.6442C12.1022 19.6483 12.1042 19.652 12.1053 19.6546C12.1064 19.6574 12.1074 19.6612 12.1074 19.6665C12.1074 19.6715 12.1065 19.6753 12.1052 19.6784C12.1041 19.681 12.1023 19.6843 12.0992 19.6878C12.0991 19.6878 12.0991 19.6879 12.0991 19.6879L12.0778 19.6665L12.0769 19.6657L12.0769 19.6656L12.0768 19.6655L12.076 19.6647L12.0759 19.6646L12.0546 19.6433C12.0579 19.64 12.0608 19.6383 12.0633 19.6373C12.0658 19.6362 12.0699 19.6351 12.076 19.6351C12.082 19.6351 12.0859 19.6362 12.0883 19.6372C12.0906 19.6381 12.0937 19.6398 12.0973 19.6433C12.0973 19.6433 12.0973 19.6433 12.0974 19.6433C12.0976 19.6435 12.0978 19.6437 12.098 19.644ZM12.098 19.644L12.0982 19.6441C12.0981 19.6441 12.0981 19.644 12.098 19.644ZM12.0532 19.6883C12.0531 19.6882 12.053 19.6881 12.0529 19.6879C12.0528 19.6879 12.0527 19.6878 12.0527 19.6877C12.0495 19.6843 12.0478 19.6813 12.0468 19.6788C12.0456 19.6761 12.0445 19.6721 12.0445 19.6665C12.0445 19.6605 12.0457 19.6566 12.0467 19.6542C12.0476 19.6519 12.0494 19.6488 12.0529 19.6451C12.0531 19.6448 12.0534 19.6445 12.0537 19.6442L12.075 19.6655L12.0751 19.6656L12.0759 19.6664L12.076 19.6665L12.0983 19.6888C12.0983 19.6888 12.0982 19.6888 12.0982 19.6888C12.0979 19.6891 12.0976 19.6894 12.0973 19.6897C12.0936 19.693 12.0903 19.6948 12.0879 19.6958C12.0851 19.6969 12.0813 19.6979 12.076 19.6979C12.0707 19.6979 12.0669 19.6969 12.0641 19.6958C12.0615 19.6947 12.0578 19.6927 12.0537 19.6888C12.0537 19.6887 12.0537 19.6887 12.0536 19.6887C12.0535 19.6886 12.0533 19.6884 12.0532 19.6883Z" fill="#171717" stroke="#171717"/>
<mask id="path-2-inside-1_1172_12721" fill="white">
<path d="M12.9043 11.629C12.7496 11.4216 12.456 11.3789 12.2486 11.5337C12.1752 11.5884 12.0878 11.6173 11.9958 11.6173C11.9047 11.6173 11.818 11.5888 11.7449 11.5349C11.5368 11.3812 11.2434 11.4254 11.0897 11.6336C10.936 11.8418 10.9802 12.1352 11.1883 12.2888C11.4237 12.4626 11.7029 12.5544 11.9958 12.5544C12.2913 12.5544 12.5725 12.4611 12.8089 12.2847C13.0164 12.13 13.0591 11.8364 12.9043 11.629Z"/>
</mask>
<path d="M12.9043 11.629C12.7496 11.4216 12.456 11.3789 12.2486 11.5337C12.1752 11.5884 12.0878 11.6173 11.9958 11.6173C11.9047 11.6173 11.818 11.5888 11.7449 11.5349C11.5368 11.3812 11.2434 11.4254 11.0897 11.6336C10.936 11.8418 10.9802 12.1352 11.1883 12.2888C11.4237 12.4626 11.7029 12.5544 11.9958 12.5544C12.2913 12.5544 12.5725 12.4611 12.8089 12.2847C13.0164 12.13 13.0591 11.8364 12.9043 11.629Z" fill="#171717"/>
<path d="M12.9043 11.629L13.7059 11.0311L13.7057 11.0309L12.9043 11.629ZM12.2486 11.5337L11.6506 10.7321L11.6505 10.7322L12.2486 11.5337ZM11.7449 11.5349L11.151 12.3394L11.1514 12.3397L11.7449 11.5349ZM11.1883 12.2888L11.7824 11.4844L11.7821 11.4842L11.1883 12.2888ZM12.8089 12.2847L12.211 11.4832L12.2109 11.4832L12.8089 12.2847ZM13.7057 11.0309C13.2207 10.3811 12.3007 10.2472 11.6506 10.7321L12.8465 12.3352C12.6112 12.5107 12.2784 12.4622 12.103 12.2272L13.7057 11.0309ZM11.6505 10.7322C11.7511 10.6572 11.8737 10.6173 11.9958 10.6173V12.6173C12.3019 12.6173 12.5994 12.5196 12.8466 12.3351L11.6505 10.7322ZM11.9958 10.6173C12.1177 10.6173 12.2391 10.6568 12.3385 10.7301L11.1514 12.3397C11.3968 12.5208 11.6917 12.6173 11.9958 12.6173V10.6173ZM12.3389 10.7305C11.6863 10.2486 10.7668 10.3873 10.2852 11.0396L11.8941 12.2276C11.7199 12.4636 11.3872 12.5139 11.151 12.3394L12.3389 10.7305ZM10.2852 11.0396C9.80344 11.6921 9.94185 12.6118 10.5946 13.0935L11.7821 11.4842C12.0185 11.6586 12.0685 11.9915 11.8941 12.2276L10.2852 11.0396ZM10.5943 13.0933C11.0019 13.3943 11.4894 13.5544 11.9958 13.5544V11.5544C11.9163 11.5544 11.8454 11.5309 11.7824 11.4844L10.5943 13.0933ZM11.9958 13.5544C12.5065 13.5544 12.9975 13.3917 13.4069 13.0863L12.2109 11.4832C12.1475 11.5306 12.0761 11.5544 11.9958 11.5544V13.5544ZM13.4068 13.0863C14.0571 12.6013 14.1908 11.6811 13.7059 11.0311L12.1028 12.227C11.9273 11.9917 11.9757 11.6587 12.211 11.4832L13.4068 13.0863Z" fill="#171717" mask="url(#path-2-inside-1_1172_12721)"/>
<mask id="path-4-inside-2_1172_12721" fill="white">
<path d="M10.0054 5.13397C9.91825 5.04636 9.79783 4.99667 9.67413 4.99667C9.55089 4.99667 9.43 5.04636 9.34286 5.13397C9.25572 5.22111 9.20557 5.34153 9.20557 5.46524C9.20557 5.58847 9.25572 5.70936 9.34286 5.7965C9.43 5.88364 9.55089 5.9338 9.67413 5.9338C9.79783 5.9338 9.91825 5.88364 10.0054 5.7965C10.093 5.70889 10.1427 5.58847 10.1427 5.46524C10.1427 5.342 10.093 5.22111 10.0054 5.13397Z"/>
</mask>
<path d="M10.0054 5.13397C9.91825 5.04636 9.79783 4.99667 9.67413 4.99667C9.55089 4.99667 9.43 5.04636 9.34286 5.13397C9.25572 5.22111 9.20557 5.34153 9.20557 5.46524C9.20557 5.58847 9.25572 5.70936 9.34286 5.7965C9.43 5.88364 9.55089 5.9338 9.67413 5.9338C9.79783 5.9338 9.91825 5.88364 10.0054 5.7965C10.093 5.70889 10.1427 5.58847 10.1427 5.46524C10.1427 5.342 10.093 5.22111 10.0054 5.13397Z" fill="#171717"/>
<path d="M10.0054 5.13397L9.29638 5.83919L9.30019 5.84297L10.0054 5.13397ZM9.34286 5.13397L10.05 5.84108L10.0519 5.83918L9.34286 5.13397ZM10.7144 4.42876C10.438 4.15087 10.0617 3.99667 9.67413 3.99667V5.99667C9.53393 5.99667 9.39852 5.94185 9.29639 5.83918L10.7144 4.42876ZM9.67413 3.99667C9.28752 3.99667 8.91064 4.1505 8.63386 4.42876L10.0519 5.83918C9.94937 5.94222 9.81427 5.99667 9.67413 5.99667V3.99667ZM8.63576 4.42686C8.36177 4.70085 8.20557 5.07534 8.20557 5.46524H10.2056C10.2056 5.60772 10.1497 5.74137 10.05 5.84108L8.63576 4.42686ZM8.20557 5.46524C8.20557 5.85413 8.3614 6.22925 8.63576 6.50361L10.05 5.08939C10.15 5.18947 10.2056 5.32281 10.2056 5.46524H8.20557ZM8.63576 6.50361C8.91012 6.77797 9.28523 6.9338 9.67413 6.9338V4.9338C9.81656 4.9338 9.94989 4.98931 10.05 5.08939L8.63576 6.50361ZM9.67413 6.9338C10.064 6.9338 10.4385 6.77759 10.7125 6.50361L9.29829 5.08939C9.39799 4.98969 9.53164 4.9338 9.67413 4.9338V6.9338ZM10.7125 6.50361C10.9879 6.22825 11.1427 5.85338 11.1427 5.46524H9.14269C9.14269 5.32356 9.19815 5.18953 9.29829 5.08939L10.7125 6.50361ZM11.1427 5.46524C11.1427 5.07863 10.9889 4.70175 10.7106 4.42497L9.30019 5.84297C9.19714 5.74048 9.14269 5.60537 9.14269 5.46524H11.1427Z" fill="#171717" mask="url(#path-4-inside-2_1172_12721)"/>
<mask id="path-6-inside-3_1172_12721" fill="white">
<path d="M23.5244 23.0557H20.6193V21.3471C20.6193 19.4147 19.3999 17.6707 17.5848 17.0074L14.4071 15.8461C14.2673 15.7939 14.177 15.6842 14.177 15.5665V14.2466C14.177 14.2097 14.1723 14.1741 14.1642 14.1396L15.5796 13.328C15.5881 13.3232 15.5965 13.318 15.6048 13.3126C16.218 12.9075 16.6207 12.1873 16.682 11.3859C16.6829 11.374 16.6834 11.3621 16.6834 11.3501V9.60776C16.6834 9.5921 16.6825 9.57658 16.681 9.56135C16.9477 9.48227 17.199 9.33771 17.4091 9.12757L17.6143 8.92235C18.6186 7.9181 18.6186 6.28409 17.6143 5.27979L14.4508 2.1162C14.2109 1.18826 13.5289 0.457669 12.6158 0.155466C11.521 -0.206877 10.3343 0.0747005 9.51886 0.890137L6.678 3.73099C5.05158 5.35746 5.05158 8.00393 6.678 9.6304L7.31212 10.2645V11.3502C7.31212 11.3621 7.31259 11.3741 7.31348 11.3859C7.37503 12.1906 7.77487 12.9108 8.38317 13.3126C8.39156 13.3181 8.40014 13.3234 8.40886 13.3284L9.83001 14.1408C9.82214 14.1749 9.81754 14.2102 9.81754 14.2466V15.5666C9.81754 15.6843 9.72717 15.794 9.59029 15.845L6.41044 17.0073C4.59553 17.6707 3.37613 19.4147 3.37613 21.347V23.0557H0.471004C0.212207 23.0557 0.00244141 23.2655 0.00244141 23.5243C0.00244141 23.783 0.212207 23.9928 0.471004 23.9928H23.5244C23.7832 23.9928 23.993 23.783 23.993 23.5243C23.993 23.2655 23.7832 23.0557 23.5244 23.0557ZM13.7187 4.80481C14.0977 4.42582 14.3526 3.96017 14.4692 3.46001L16.9517 5.94246C17.5906 6.58137 17.5906 7.62087 16.9517 8.25973L16.7465 8.46494C16.4379 8.77357 15.9359 8.77352 15.6272 8.46494L12.8429 5.68062L13.7187 4.80481ZM7.79325 9.40497C7.78903 9.40488 7.7849 9.40432 7.78064 9.40432C7.77951 9.40432 7.77848 9.40446 7.77736 9.40451L7.34067 8.96777C6.07964 7.70674 6.07964 5.65479 7.34067 4.39371L10.1815 1.5529C10.5824 1.15198 11.1132 0.937856 11.6586 0.937856C11.8345 0.937856 12.0119 0.960544 12.187 1.00597C12.3461 1.64309 12.1634 2.31331 11.6954 2.7814L10.5028 3.97395C10.3198 4.15695 10.3198 4.45362 10.5028 4.63662C10.5943 4.72812 10.7142 4.77387 10.8341 4.77387C10.954 4.77387 11.074 4.72812 11.1654 4.63662L12.358 3.44407C12.8538 2.94823 13.1362 2.30159 13.1758 1.62809C13.3549 1.84493 13.4854 2.10312 13.5531 2.38868C13.704 3.02459 13.5181 3.68009 13.056 4.14218L7.79325 9.40497ZM8.88811 12.5229C8.53003 12.2805 8.29233 11.8371 8.2492 11.3313V10.2743L12.1802 6.34329L14.9646 9.12766C15.1892 9.35224 15.4607 9.50154 15.7478 9.57644C15.7471 9.5869 15.7462 9.59726 15.7462 9.60785V11.3313C15.7037 11.8269 15.4573 12.2809 15.0996 12.5231L12.5839 13.9656C12.5753 13.9705 12.5669 13.9757 12.5587 13.9811C12.2075 14.2131 11.7881 14.2132 11.4367 13.9811C11.4284 13.9756 11.4198 13.9703 11.4111 13.9653L8.88811 12.5229ZM19.6821 23.0557H17.7142V23.0557V20.9081C17.7142 19.9651 16.9469 19.1978 16.0039 19.1978H13.8329C13.5741 19.1978 13.3643 19.4076 13.3643 19.6664C13.3643 19.9251 13.5741 20.1349 13.8329 20.1349H16.0039C16.4302 20.1349 16.7771 20.4818 16.7771 20.9081V23.0557H7.21833V20.9081C7.21833 20.4818 7.56515 20.1349 7.99148 20.1349H10.1547C10.4135 20.1349 10.6233 19.9251 10.6233 19.6664C10.6233 19.4076 10.4135 19.1978 10.1547 19.1978H7.99148C7.04845 19.1978 6.2812 19.9651 6.2812 20.9081V23.0557H4.31325V21.347C4.31325 19.8066 5.28534 18.4163 6.73214 17.8875L9.915 16.7241C10.4251 16.5338 10.7547 16.0794 10.7547 15.5666V14.6695L10.9337 14.7719C11.2626 14.9855 11.6302 15.0923 11.9977 15.0923C12.3654 15.0923 12.7331 14.9854 13.062 14.7717L13.2398 14.6697V15.5666C13.2398 16.0795 13.5695 16.5339 14.0825 16.7253L17.2631 17.8877C18.71 18.4164 19.6821 19.8067 19.6821 21.3472V23.0557Z"/>
</mask>
<path d="M23.5244 23.0557H20.6193V21.3471C20.6193 19.4147 19.3999 17.6707 17.5848 17.0074L14.4071 15.8461C14.2673 15.7939 14.177 15.6842 14.177 15.5665V14.2466C14.177 14.2097 14.1723 14.1741 14.1642 14.1396L15.5796 13.328C15.5881 13.3232 15.5965 13.318 15.6048 13.3126C16.218 12.9075 16.6207 12.1873 16.682 11.3859C16.6829 11.374 16.6834 11.3621 16.6834 11.3501V9.60776C16.6834 9.5921 16.6825 9.57658 16.681 9.56135C16.9477 9.48227 17.199 9.33771 17.4091 9.12757L17.6143 8.92235C18.6186 7.9181 18.6186 6.28409 17.6143 5.27979L14.4508 2.1162C14.2109 1.18826 13.5289 0.457669 12.6158 0.155466C11.521 -0.206877 10.3343 0.0747005 9.51886 0.890137L6.678 3.73099C5.05158 5.35746 5.05158 8.00393 6.678 9.6304L7.31212 10.2645V11.3502C7.31212 11.3621 7.31259 11.3741 7.31348 11.3859C7.37503 12.1906 7.77487 12.9108 8.38317 13.3126C8.39156 13.3181 8.40014 13.3234 8.40886 13.3284L9.83001 14.1408C9.82214 14.1749 9.81754 14.2102 9.81754 14.2466V15.5666C9.81754 15.6843 9.72717 15.794 9.59029 15.845L6.41044 17.0073C4.59553 17.6707 3.37613 19.4147 3.37613 21.347V23.0557H0.471004C0.212207 23.0557 0.00244141 23.2655 0.00244141 23.5243C0.00244141 23.783 0.212207 23.9928 0.471004 23.9928H23.5244C23.7832 23.9928 23.993 23.783 23.993 23.5243C23.993 23.2655 23.7832 23.0557 23.5244 23.0557ZM13.7187 4.80481C14.0977 4.42582 14.3526 3.96017 14.4692 3.46001L16.9517 5.94246C17.5906 6.58137 17.5906 7.62087 16.9517 8.25973L16.7465 8.46494C16.4379 8.77357 15.9359 8.77352 15.6272 8.46494L12.8429 5.68062L13.7187 4.80481ZM7.79325 9.40497C7.78903 9.40488 7.7849 9.40432 7.78064 9.40432C7.77951 9.40432 7.77848 9.40446 7.77736 9.40451L7.34067 8.96777C6.07964 7.70674 6.07964 5.65479 7.34067 4.39371L10.1815 1.5529C10.5824 1.15198 11.1132 0.937856 11.6586 0.937856C11.8345 0.937856 12.0119 0.960544 12.187 1.00597C12.3461 1.64309 12.1634 2.31331 11.6954 2.7814L10.5028 3.97395C10.3198 4.15695 10.3198 4.45362 10.5028 4.63662C10.5943 4.72812 10.7142 4.77387 10.8341 4.77387C10.954 4.77387 11.074 4.72812 11.1654 4.63662L12.358 3.44407C12.8538 2.94823 13.1362 2.30159 13.1758 1.62809C13.3549 1.84493 13.4854 2.10312 13.5531 2.38868C13.704 3.02459 13.5181 3.68009 13.056 4.14218L7.79325 9.40497ZM8.88811 12.5229C8.53003 12.2805 8.29233 11.8371 8.2492 11.3313V10.2743L12.1802 6.34329L14.9646 9.12766C15.1892 9.35224 15.4607 9.50154 15.7478 9.57644C15.7471 9.5869 15.7462 9.59726 15.7462 9.60785V11.3313C15.7037 11.8269 15.4573 12.2809 15.0996 12.5231L12.5839 13.9656C12.5753 13.9705 12.5669 13.9757 12.5587 13.9811C12.2075 14.2131 11.7881 14.2132 11.4367 13.9811C11.4284 13.9756 11.4198 13.9703 11.4111 13.9653L8.88811 12.5229ZM19.6821 23.0557H17.7142V23.0557V20.9081C17.7142 19.9651 16.9469 19.1978 16.0039 19.1978H13.8329C13.5741 19.1978 13.3643 19.4076 13.3643 19.6664C13.3643 19.9251 13.5741 20.1349 13.8329 20.1349H16.0039C16.4302 20.1349 16.7771 20.4818 16.7771 20.9081V23.0557H7.21833V20.9081C7.21833 20.4818 7.56515 20.1349 7.99148 20.1349H10.1547C10.4135 20.1349 10.6233 19.9251 10.6233 19.6664C10.6233 19.4076 10.4135 19.1978 10.1547 19.1978H7.99148C7.04845 19.1978 6.2812 19.9651 6.2812 20.9081V23.0557H4.31325V21.347C4.31325 19.8066 5.28534 18.4163 6.73214 17.8875L9.915 16.7241C10.4251 16.5338 10.7547 16.0794 10.7547 15.5666V14.6695L10.9337 14.7719C11.2626 14.9855 11.6302 15.0923 11.9977 15.0923C12.3654 15.0923 12.7331 14.9854 13.062 14.7717L13.2398 14.6697V15.5666C13.2398 16.0795 13.5695 16.5339 14.0825 16.7253L17.2631 17.8877C18.71 18.4164 19.6821 19.8067 19.6821 21.3472V23.0557Z" fill="#171717" stroke="#171717" stroke-width="2" mask="url(#path-6-inside-3_1172_12721)"/>
<path d="M1.5264 13.4901L1.15567 13.0247C0.866215 12.6613 0.865746 12.1534 1.15464 11.7895L1.53025 11.3163C1.69117 11.1136 1.65723 10.8188 1.45454 10.658C1.25186 10.4971 0.957058 10.531 0.79623 10.7337L0.420621 11.2069C-0.140941 11.9144 -0.140144 12.902 0.422637 13.6086L0.793371 14.074C1.08282 14.4374 1.08329 14.9454 0.794449 15.3092C0.633527 15.5119 0.667465 15.8066 0.870152 15.9675C0.956262 16.0359 1.05906 16.0691 1.16115 16.0691C1.2992 16.0691 1.43598 16.0084 1.52846 15.8918C2.09007 15.1843 2.08923 14.1967 1.5264 13.4901Z" fill="#171717"/>
<path d="M4.9175 11.6305L4.54676 11.165C4.25731 10.8016 4.25689 10.2937 4.54573 9.92982L4.92134 9.45662C5.08226 9.25393 5.04833 8.95918 4.84564 8.79831C4.643 8.63738 4.3482 8.67132 4.18733 8.87401L3.81172 9.34721C3.25016 10.0547 3.251 11.0423 3.81373 11.7489L4.18447 12.2143C4.47392 12.5777 4.47434 13.0856 4.1855 13.4495C4.02458 13.6521 4.05851 13.9469 4.2612 14.1078C4.34731 14.1761 4.45011 14.2093 4.5522 14.2093C4.69025 14.2093 4.82703 14.1486 4.91951 14.0321C5.48107 13.3246 5.48023 12.3371 4.9175 11.6305Z" fill="#171717"/>
<path d="M20.1865 13.4901L19.8158 13.0247C19.5264 12.6613 19.5259 12.1533 19.8148 11.7895L20.1904 11.3162C20.3513 11.1136 20.3174 10.8188 20.1147 10.6579C19.912 10.4971 19.6172 10.531 19.4564 10.7336L19.0808 11.2068C18.5192 11.9143 18.52 12.9019 19.0828 13.6085L19.4535 14.0739C19.743 14.4374 19.7434 14.9454 19.4545 15.3092C19.2936 15.5118 19.3276 15.8066 19.5302 15.9675C19.6164 16.0359 19.7191 16.069 19.8212 16.069C19.9593 16.069 20.0961 16.0083 20.1886 15.8918C20.7501 15.1843 20.7493 14.1967 20.1865 13.4901Z" fill="#171717"/>
<path d="M23.5772 11.6305L23.2064 11.165C22.9169 10.8016 22.9165 10.2937 23.2054 9.92979L23.581 9.45659C23.7419 9.2539 23.708 8.95915 23.5053 8.79828C23.3026 8.63735 23.0078 8.67129 22.847 8.87398L22.4713 9.34718C21.9098 10.0547 21.9107 11.0423 22.4734 11.7488L22.8441 12.2143C23.1336 12.5777 23.134 13.0856 22.8452 13.4495C22.6843 13.6522 22.7182 13.9469 22.9209 14.1078C23.007 14.1761 23.1098 14.2093 23.2119 14.2093C23.3499 14.2093 23.4867 14.1486 23.5792 14.0321C24.1407 13.3246 24.1399 12.3371 23.5772 11.6305Z" fill="#171717"/>
</g>
<defs>
<clipPath id="clip0_1172_12721">
<rect width="24" height="24" fill="white"/>
</clipPath>
</defs>
</svg>
