<svg width="24" height="24" viewBox="0 0 24 24" fill="none" xmlns="http://www.w3.org/2000/svg">
<mask id="path-1-inside-1_1172_12773" fill="white">
<path d="M23.9651 10.5697C23.8678 9.96996 23.5799 9.41747 23.1442 8.99399C22.7085 8.57051 22.148 8.29853 21.5457 8.21828C21.4301 8.20696 21.314 8.20163 21.1978 8.20228V6.99857C21.1959 5.40824 20.5633 3.88358 19.4388 2.75904C18.3142 1.63451 16.7896 1.0019 15.1992 1H8.80076C7.21043 1.0019 5.68578 1.63451 4.56124 2.75904C3.4367 3.88358 2.8041 5.40824 2.80219 6.99857V8.20228C2.68602 8.20163 2.5699 8.20696 2.45428 8.21828C1.85199 8.29853 1.29152 8.57051 0.855798 8.99399C0.420073 9.41747 0.132231 9.96996 0.0348533 10.5697C-0.0720465 11.2384 0.0688827 11.9232 0.431171 12.4953C0.793459 13.0675 1.35218 13.4877 2.00238 13.677V18.9957C2.00333 19.3136 2.13004 19.6182 2.35482 19.843C2.57961 20.0678 2.88421 20.1945 3.2021 20.1954V22.5949C3.2021 22.7009 3.24423 22.8026 3.31923 22.8776C3.39422 22.9526 3.49594 22.9948 3.602 22.9948H4.80172C4.88876 22.9945 4.97335 22.9659 5.04263 22.9132C5.11192 22.8605 5.16212 22.7866 5.18563 22.7028L5.90145 20.1954H18.0985L18.8144 22.7028C18.8379 22.7866 18.8881 22.8605 18.9574 22.9132C19.0267 22.9659 19.1112 22.9945 19.1983 22.9948H20.398C20.5041 22.9948 20.6058 22.9526 20.6808 22.8776C20.7558 22.8026 20.7979 22.7009 20.7979 22.5949V20.1954C21.1158 20.1945 21.4204 20.0678 21.6452 19.843C21.87 19.6182 21.9967 19.3136 21.9976 18.9957V13.677C22.6478 13.4877 23.2065 13.0675 23.5688 12.4953C23.9311 11.9232 24.072 11.2384 23.9651 10.5697ZM3.602 6.99857C3.60327 5.62016 4.15141 4.29858 5.12609 3.32389C6.10077 2.34921 7.42236 1.80108 8.80076 1.79981H15.1992C16.5776 1.80108 17.8992 2.34921 18.8739 3.32389C19.8486 4.29858 20.3967 5.62016 20.398 6.99857V8.31825C19.82 8.48896 19.3129 8.84225 18.9524 9.32524C18.592 9.80823 18.3976 10.395 18.3985 10.9976V12.2693C18.2702 12.2228 18.135 12.1984 17.9986 12.1973H6.00143C5.86501 12.1984 5.72977 12.2228 5.60153 12.2693V10.9976C5.60237 10.395 5.40802 9.80823 5.04758 9.32524C4.68714 8.84225 4.17998 8.48896 3.602 8.31825V6.99857ZM18.3985 13.397V15.3966H5.60153V13.397C5.60153 13.291 5.64366 13.1893 5.71866 13.1143C5.79365 13.0393 5.89537 12.9971 6.00143 12.9971H17.9986C18.1046 12.9971 18.2063 13.0393 18.2813 13.1143C18.3563 13.1893 18.3985 13.291 18.3985 13.397ZM4.50179 22.1949H4.00191V20.1954H5.06965L4.50179 22.1949ZM19.9981 22.1949H19.4982L18.9303 20.1954H19.9981V22.1949ZM21.5297 12.9651C21.4368 12.9818 21.3527 13.0306 21.292 13.1029C21.2313 13.1753 21.198 13.2666 21.1978 13.3611V18.9957C21.1978 19.1018 21.1557 19.2035 21.0807 19.2785C21.0057 19.3535 20.904 19.3956 20.7979 19.3956H3.2021C3.09604 19.3956 2.99432 19.3535 2.91932 19.2785C2.84433 19.2035 2.80219 19.1018 2.80219 18.9957V13.3611C2.80199 13.2666 2.76865 13.1753 2.70799 13.1029C2.64734 13.0306 2.5632 12.9818 2.47027 12.9651C1.99747 12.8859 1.56894 12.6392 1.26296 12.2702C0.95697 11.9012 0.793941 11.4344 0.803643 10.9551C0.813346 10.4758 0.995132 10.016 1.3158 9.6596C1.63647 9.30324 2.07463 9.07413 2.55025 9.01409C2.63375 9.00279 2.71794 8.99744 2.80219 8.99809H2.80619C3.29324 8.99721 3.76336 9.17671 4.12588 9.50197C4.33779 9.68938 4.50759 9.91957 4.62408 10.1774C4.74057 10.4352 4.80111 10.7147 4.80172 10.9976V15.7965C4.80172 15.9025 4.84385 16.0043 4.91885 16.0792C4.99384 16.1542 5.09556 16.1964 5.20162 16.1964H18.7984C18.9044 16.1964 19.0062 16.1542 19.0812 16.0792C19.1562 16.0043 19.1983 15.9025 19.1983 15.7965V10.9976C19.1989 10.7147 19.2594 10.4352 19.3759 10.1774C19.4924 9.91957 19.6622 9.68938 19.8741 9.50197C20.086 9.31174 20.3365 9.16963 20.6085 9.08541C20.8805 9.0012 21.1675 8.97686 21.4497 9.01409C21.8789 9.06965 22.2785 9.26243 22.5891 9.56367C22.8997 9.86491 23.1047 10.2585 23.1733 10.6857V10.6897C23.256 11.2092 23.1294 11.7403 22.8214 12.1668C22.5133 12.5932 22.0489 12.8803 21.5297 12.9651Z"/>
</mask>
<path d="M23.9651 10.5697C23.8678 9.96996 23.5799 9.41747 23.1442 8.99399C22.7085 8.57051 22.148 8.29853 21.5457 8.21828C21.4301 8.20696 21.314 8.20163 21.1978 8.20228V6.99857C21.1959 5.40824 20.5633 3.88358 19.4388 2.75904C18.3142 1.63451 16.7896 1.0019 15.1992 1H8.80076C7.21043 1.0019 5.68578 1.63451 4.56124 2.75904C3.4367 3.88358 2.8041 5.40824 2.80219 6.99857V8.20228C2.68602 8.20163 2.5699 8.20696 2.45428 8.21828C1.85199 8.29853 1.29152 8.57051 0.855798 8.99399C0.420073 9.41747 0.132231 9.96996 0.0348533 10.5697C-0.0720465 11.2384 0.0688827 11.9232 0.431171 12.4953C0.793459 13.0675 1.35218 13.4877 2.00238 13.677V18.9957C2.00333 19.3136 2.13004 19.6182 2.35482 19.843C2.57961 20.0678 2.88421 20.1945 3.2021 20.1954V22.5949C3.2021 22.7009 3.24423 22.8026 3.31923 22.8776C3.39422 22.9526 3.49594 22.9948 3.602 22.9948H4.80172C4.88876 22.9945 4.97335 22.9659 5.04263 22.9132C5.11192 22.8605 5.16212 22.7866 5.18563 22.7028L5.90145 20.1954H18.0985L18.8144 22.7028C18.8379 22.7866 18.8881 22.8605 18.9574 22.9132C19.0267 22.9659 19.1112 22.9945 19.1983 22.9948H20.398C20.5041 22.9948 20.6058 22.9526 20.6808 22.8776C20.7558 22.8026 20.7979 22.7009 20.7979 22.5949V20.1954C21.1158 20.1945 21.4204 20.0678 21.6452 19.843C21.87 19.6182 21.9967 19.3136 21.9976 18.9957V13.677C22.6478 13.4877 23.2065 13.0675 23.5688 12.4953C23.9311 11.9232 24.072 11.2384 23.9651 10.5697ZM3.602 6.99857C3.60327 5.62016 4.15141 4.29858 5.12609 3.32389C6.10077 2.34921 7.42236 1.80108 8.80076 1.79981H15.1992C16.5776 1.80108 17.8992 2.34921 18.8739 3.32389C19.8486 4.29858 20.3967 5.62016 20.398 6.99857V8.31825C19.82 8.48896 19.3129 8.84225 18.9524 9.32524C18.592 9.80823 18.3976 10.395 18.3985 10.9976V12.2693C18.2702 12.2228 18.135 12.1984 17.9986 12.1973H6.00143C5.86501 12.1984 5.72977 12.2228 5.60153 12.2693V10.9976C5.60237 10.395 5.40802 9.80823 5.04758 9.32524C4.68714 8.84225 4.17998 8.48896 3.602 8.31825V6.99857ZM18.3985 13.397V15.3966H5.60153V13.397C5.60153 13.291 5.64366 13.1893 5.71866 13.1143C5.79365 13.0393 5.89537 12.9971 6.00143 12.9971H17.9986C18.1046 12.9971 18.2063 13.0393 18.2813 13.1143C18.3563 13.1893 18.3985 13.291 18.3985 13.397ZM4.50179 22.1949H4.00191V20.1954H5.06965L4.50179 22.1949ZM19.9981 22.1949H19.4982L18.9303 20.1954H19.9981V22.1949ZM21.5297 12.9651C21.4368 12.9818 21.3527 13.0306 21.292 13.1029C21.2313 13.1753 21.198 13.2666 21.1978 13.3611V18.9957C21.1978 19.1018 21.1557 19.2035 21.0807 19.2785C21.0057 19.3535 20.904 19.3956 20.7979 19.3956H3.2021C3.09604 19.3956 2.99432 19.3535 2.91932 19.2785C2.84433 19.2035 2.80219 19.1018 2.80219 18.9957V13.3611C2.80199 13.2666 2.76865 13.1753 2.70799 13.1029C2.64734 13.0306 2.5632 12.9818 2.47027 12.9651C1.99747 12.8859 1.56894 12.6392 1.26296 12.2702C0.95697 11.9012 0.793941 11.4344 0.803643 10.9551C0.813346 10.4758 0.995132 10.016 1.3158 9.6596C1.63647 9.30324 2.07463 9.07413 2.55025 9.01409C2.63375 9.00279 2.71794 8.99744 2.80219 8.99809H2.80619C3.29324 8.99721 3.76336 9.17671 4.12588 9.50197C4.33779 9.68938 4.50759 9.91957 4.62408 10.1774C4.74057 10.4352 4.80111 10.7147 4.80172 10.9976V15.7965C4.80172 15.9025 4.84385 16.0043 4.91885 16.0792C4.99384 16.1542 5.09556 16.1964 5.20162 16.1964H18.7984C18.9044 16.1964 19.0062 16.1542 19.0812 16.0792C19.1562 16.0043 19.1983 15.9025 19.1983 15.7965V10.9976C19.1989 10.7147 19.2594 10.4352 19.3759 10.1774C19.4924 9.91957 19.6622 9.68938 19.8741 9.50197C20.086 9.31174 20.3365 9.16963 20.6085 9.08541C20.8805 9.0012 21.1675 8.97686 21.4497 9.01409C21.8789 9.06965 22.2785 9.26243 22.5891 9.56367C22.8997 9.86491 23.1047 10.2585 23.1733 10.6857V10.6897C23.256 11.2092 23.1294 11.7403 22.8214 12.1668C22.5133 12.5932 22.0489 12.8803 21.5297 12.9651Z" fill="#171717" stroke="#171717" stroke-width="16" mask="url(#path-1-inside-1_1172_12773)"/>
</svg>
