<svg width="24" height="24" viewBox="0 0 24 24" fill="none" xmlns="http://www.w3.org/2000/svg">
<g clip-path="url(#clip0_1172_12718)">
<path d="M16.7643 3.75141L16.7645 3.75152M16.7643 3.75141L16.7643 3.75139L16.7645 3.75152M16.7643 3.75141C16.7644 3.75144 16.7644 3.75148 16.7645 3.75152M16.7643 3.75141L16.7645 3.75152M17.0888 11.0705L17.0888 11.0704C17.0888 11.0705 17.0888 11.0705 17.0888 11.0705ZM17.0888 11.0705C17.0888 11.0705 17.0888 11.0705 17.0888 11.0705L17.0888 11.0705Z" fill="#171717" stroke="#171717" stroke-width="0.999996"/>
<mask id="path-2-inside-1_1172_12718" fill="white">
<path d="M1.5523 3.90204C1.62097 3.97072 1.71093 4.00503 1.80093 4.00503C1.89088 4.00503 1.98088 3.97072 2.04951 3.90209C2.18685 3.76475 2.18685 3.54218 2.04955 3.40493L0.600172 1.95551C0.462875 1.81821 0.240265 1.81816 0.103014 1.95546C-0.0343302 2.0928 -0.0343302 2.31537 0.102967 2.45262L1.5523 3.90204Z"/>
</mask>
<path d="M1.5523 3.90204C1.62097 3.97072 1.71093 4.00503 1.80093 4.00503C1.89088 4.00503 1.98088 3.97072 2.04951 3.90209C2.18685 3.76475 2.18685 3.54218 2.04955 3.40493L0.600172 1.95551C0.462875 1.81821 0.240265 1.81816 0.103014 1.95546C-0.0343302 2.0928 -0.0343302 2.31537 0.102967 2.45262L1.5523 3.90204Z" fill="#171717"/>
<path d="M1.5523 3.90204L0.845174 4.60912L0.845197 4.60915L1.5523 3.90204ZM2.04955 3.40493L1.34244 4.11203L1.34257 4.11216L2.04955 3.40493ZM0.600172 1.95551L1.30729 1.24841L1.30728 1.2484L0.600172 1.95551ZM0.103014 1.95546L0.810118 2.66256L0.810239 2.66244L0.103014 1.95546ZM0.102967 2.45262L0.810094 1.74554L0.80995 1.74539L0.102967 2.45262ZM0.845197 4.60915C1.10894 4.87289 1.45656 5.00502 1.80093 5.00502V3.00503C1.96529 3.00503 2.13301 3.06854 2.2594 3.19494L0.845197 4.60915ZM1.80093 5.00502C2.14507 5.00502 2.49279 4.87301 2.75661 4.60919L1.3424 3.19499C1.46897 3.06842 1.63669 3.00503 1.80093 3.00503V5.00502ZM2.75661 4.60919C3.28432 4.08148 3.28467 3.22566 2.75654 2.69771L1.34257 4.11216C1.08903 3.8587 1.08938 3.44801 1.3424 3.19499L2.75661 4.60919ZM2.75667 2.69784L1.30729 1.24841L-0.106943 2.6626L1.34244 4.11203L2.75667 2.69784ZM1.30728 1.2484C0.779696 0.720821 -0.0761696 0.720253 -0.604211 1.24847L0.810239 2.66244C0.556699 2.91607 0.146053 2.91559 -0.106932 2.66261L1.30728 1.2484ZM-0.60409 1.24835C-1.1318 1.77607 -1.13215 2.63189 -0.604016 3.15984L0.80995 1.74539C1.06349 1.99884 1.06314 2.40954 0.810118 2.66256L-0.60409 1.24835ZM-0.60416 3.1597L0.845174 4.60912L2.25943 3.19496L0.810094 1.74554L-0.60416 3.1597Z" fill="#171717" mask="url(#path-2-inside-1_1172_12718)"/>
<mask id="path-4-inside-2_1172_12718" fill="white">
<path d="M23.4 8.06118L21.2721 10.1891C21.0143 10.447 20.8464 10.7877 20.7994 11.1486L20.3924 14.2764C20.3539 14.5809 20.2127 14.8686 19.9949 15.0863L16.6153 18.4659C16.4153 18.6661 16.0904 18.6667 15.8914 18.4676C15.6922 18.2684 15.693 17.9436 15.8931 17.7436L18.6088 15.0278C18.7044 14.9175 18.8088 14.7358 18.8251 14.5336L19.0655 10.4254C19.0769 10.2315 18.929 10.0652 18.7351 10.0539C18.5406 10.0421 18.3749 10.1905 18.3636 10.3843L18.1234 14.4888C18.1218 14.5157 18.0985 14.5667 18.0309 14.566C17.7806 14.5489 17.5525 14.4359 17.3882 14.2474C17.2645 14.106 17.1492 13.8421 17.1606 13.556L17.2047 12.7216C17.2149 12.5278 17.066 12.3622 16.8721 12.352C16.6787 12.3404 16.5127 12.4906 16.5025 12.6846L16.4585 13.5157C16.4278 13.9547 16.5697 14.3785 16.8582 14.7095C17.0323 14.9092 17.2473 15.0601 17.4868 15.1551C17.4285 15.2097 15.4256 17.2237 15.3618 17.2765C13.9642 18.5364 12.7704 19.2302 12.0001 19.2302C11.248 19.2607 9.7866 18.3759 8.49214 17.1336C8.3548 16.9963 8.13224 16.9963 7.99494 17.1336C7.85764 17.2709 7.85764 17.4935 7.99494 17.6308L8.10725 17.7431C8.30732 17.9434 8.30802 18.2684 8.1088 18.4676C8.01257 18.5639 7.88464 18.6169 7.74847 18.6169C7.61146 18.6169 7.48232 18.5632 7.38491 18.4657L4.00518 15.086C3.78739 14.8682 3.64639 14.5807 3.60786 14.2749L3.20089 11.1479C3.15346 10.787 2.98564 10.4464 2.7283 10.189L0.600176 8.06085C0.462832 7.9236 0.240269 7.9236 0.102973 8.06085C-0.0343242 8.1982 -0.0343242 8.42076 0.102973 8.55806L2.2311 10.6861C2.37955 10.8346 2.47639 11.0311 2.50368 11.239L2.91041 14.3641C2.96807 14.8226 3.18032 15.2556 3.50793 15.5832L6.88766 18.9629C7.11791 19.1931 7.42363 19.3199 7.74843 19.3199C8.07238 19.3199 8.37688 19.1939 8.60596 18.9648C8.75783 18.8129 8.86063 18.6303 8.91491 18.4367C9.09069 18.5779 9.26249 18.7095 9.43007 18.8309V20.1865C9.43007 20.6609 9.09017 21.0599 8.62189 21.1353L5.4163 21.6514C4.3498 21.8231 3.45664 22.5174 3.02708 23.5086C2.94993 23.6867 3.03172 23.8937 3.20985 23.9709C3.25541 23.9907 3.3028 24 3.34949 24C3.48533 24 3.61475 23.9208 3.67227 23.7881C4.00593 23.0182 4.69968 22.4789 5.5281 22.3455L8.73369 21.8294C9.54463 21.6988 10.1332 21.0079 10.1332 20.1865V19.2958C10.8459 19.7193 11.4702 19.9333 12 19.9333C12.5298 19.9333 13.1541 19.7194 13.8668 19.2958V20.1865C13.8668 21.0078 14.4554 21.6988 15.2663 21.8294L18.4719 22.3455C19.3003 22.4789 19.994 23.0182 20.3277 23.7881C20.3852 23.9207 20.5146 24 20.6505 24C20.6971 24 20.7446 23.9907 20.7901 23.9709C20.9683 23.8937 21.0501 23.6867 20.9729 23.5086C20.5433 22.5174 19.6502 21.8231 18.5837 21.6514L15.3781 21.1353C14.9098 21.0599 14.5699 20.6609 14.5699 20.1865V18.8309C14.7375 18.7095 14.9093 18.578 15.085 18.4367C15.1393 18.6302 15.2421 18.8128 15.394 18.9647C15.6303 19.201 15.9408 19.3191 16.2516 19.3191C16.5631 19.3191 16.875 19.2004 17.1124 18.963L20.4919 15.5834C20.8194 15.2559 21.0317 14.823 21.0896 14.3657L21.4965 11.2392C21.5235 11.0313 21.6204 10.835 21.7691 10.6862L23.897 8.55829C24.0343 8.42095 24.0343 8.19839 23.897 8.06109C23.7599 7.92393 23.5374 7.92393 23.4 8.06118Z"/>
</mask>
<path d="M23.4 8.06118L21.2721 10.1891C21.0143 10.447 20.8464 10.7877 20.7994 11.1486L20.3924 14.2764C20.3539 14.5809 20.2127 14.8686 19.9949 15.0863L16.6153 18.4659C16.4153 18.6661 16.0904 18.6667 15.8914 18.4676C15.6922 18.2684 15.693 17.9436 15.8931 17.7436L18.6088 15.0278C18.7044 14.9175 18.8088 14.7358 18.8251 14.5336L19.0655 10.4254C19.0769 10.2315 18.929 10.0652 18.7351 10.0539C18.5406 10.0421 18.3749 10.1905 18.3636 10.3843L18.1234 14.4888C18.1218 14.5157 18.0985 14.5667 18.0309 14.566C17.7806 14.5489 17.5525 14.4359 17.3882 14.2474C17.2645 14.106 17.1492 13.8421 17.1606 13.556L17.2047 12.7216C17.2149 12.5278 17.066 12.3622 16.8721 12.352C16.6787 12.3404 16.5127 12.4906 16.5025 12.6846L16.4585 13.5157C16.4278 13.9547 16.5697 14.3785 16.8582 14.7095C17.0323 14.9092 17.2473 15.0601 17.4868 15.1551C17.4285 15.2097 15.4256 17.2237 15.3618 17.2765C13.9642 18.5364 12.7704 19.2302 12.0001 19.2302C11.248 19.2607 9.7866 18.3759 8.49214 17.1336C8.3548 16.9963 8.13224 16.9963 7.99494 17.1336C7.85764 17.2709 7.85764 17.4935 7.99494 17.6308L8.10725 17.7431C8.30732 17.9434 8.30802 18.2684 8.1088 18.4676C8.01257 18.5639 7.88464 18.6169 7.74847 18.6169C7.61146 18.6169 7.48232 18.5632 7.38491 18.4657L4.00518 15.086C3.78739 14.8682 3.64639 14.5807 3.60786 14.2749L3.20089 11.1479C3.15346 10.787 2.98564 10.4464 2.7283 10.189L0.600176 8.06085C0.462832 7.9236 0.240269 7.9236 0.102973 8.06085C-0.0343242 8.1982 -0.0343242 8.42076 0.102973 8.55806L2.2311 10.6861C2.37955 10.8346 2.47639 11.0311 2.50368 11.239L2.91041 14.3641C2.96807 14.8226 3.18032 15.2556 3.50793 15.5832L6.88766 18.9629C7.11791 19.1931 7.42363 19.3199 7.74843 19.3199C8.07238 19.3199 8.37688 19.1939 8.60596 18.9648C8.75783 18.8129 8.86063 18.6303 8.91491 18.4367C9.09069 18.5779 9.26249 18.7095 9.43007 18.8309V20.1865C9.43007 20.6609 9.09017 21.0599 8.62189 21.1353L5.4163 21.6514C4.3498 21.8231 3.45664 22.5174 3.02708 23.5086C2.94993 23.6867 3.03172 23.8937 3.20985 23.9709C3.25541 23.9907 3.3028 24 3.34949 24C3.48533 24 3.61475 23.9208 3.67227 23.7881C4.00593 23.0182 4.69968 22.4789 5.5281 22.3455L8.73369 21.8294C9.54463 21.6988 10.1332 21.0079 10.1332 20.1865V19.2958C10.8459 19.7193 11.4702 19.9333 12 19.9333C12.5298 19.9333 13.1541 19.7194 13.8668 19.2958V20.1865C13.8668 21.0078 14.4554 21.6988 15.2663 21.8294L18.4719 22.3455C19.3003 22.4789 19.994 23.0182 20.3277 23.7881C20.3852 23.9207 20.5146 24 20.6505 24C20.6971 24 20.7446 23.9907 20.7901 23.9709C20.9683 23.8937 21.0501 23.6867 20.9729 23.5086C20.5433 22.5174 19.6502 21.8231 18.5837 21.6514L15.3781 21.1353C14.9098 21.0599 14.5699 20.6609 14.5699 20.1865V18.8309C14.7375 18.7095 14.9093 18.578 15.085 18.4367C15.1393 18.6302 15.2421 18.8128 15.394 18.9647C15.6303 19.201 15.9408 19.3191 16.2516 19.3191C16.5631 19.3191 16.875 19.2004 17.1124 18.963L20.4919 15.5834C20.8194 15.2559 21.0317 14.823 21.0896 14.3657L21.4965 11.2392C21.5235 11.0313 21.6204 10.835 21.7691 10.6862L23.897 8.55829C24.0343 8.42095 24.0343 8.19839 23.897 8.06109C23.7599 7.92393 23.5374 7.92393 23.4 8.06118Z" fill="#171717"/>
<path d="M21.2721 10.1891L20.565 9.48202L20.5649 9.48208L21.2721 10.1891ZM20.7994 11.1486L19.8078 11.0194L19.8078 11.0195L20.7994 11.1486ZM20.3924 14.2764L19.4008 14.1473L19.4003 14.1509L20.3924 14.2764ZM19.9949 15.0863L19.2879 14.3792L19.2878 14.3792L19.9949 15.0863ZM16.6153 18.4659L15.9082 17.7588L15.908 17.759L16.6153 18.4659ZM15.8914 18.4676L16.5986 17.7606L16.5984 17.7604L15.8914 18.4676ZM15.8931 17.7436L16.6001 18.4508L16.6002 18.4507L15.8931 17.7436ZM18.6088 15.0278L19.316 15.7349L19.3412 15.7096L19.3646 15.6826L18.6088 15.0278ZM18.8251 14.5336L19.8219 14.6138L19.8227 14.6029L19.8234 14.592L18.8251 14.5336ZM19.0655 10.4254L20.0638 10.4839V10.4838L19.0655 10.4254ZM18.7351 10.0539L18.6747 11.0521L18.6767 11.0522L18.7351 10.0539ZM18.3636 10.3843L19.3619 10.4427L19.3619 10.4425L18.3636 10.3843ZM18.1234 14.4888L19.1216 14.5479L19.1216 14.5472L18.1234 14.4888ZM18.0309 14.566L17.9629 15.5637L17.9913 15.5656L18.0198 15.5659L18.0309 14.566ZM17.3882 14.2474L18.142 13.5903L18.1407 13.5888L17.3882 14.2474ZM17.1606 13.556L16.1619 13.5033L16.1614 13.5161L17.1606 13.556ZM17.2047 12.7216L16.2061 12.6688L16.2061 12.6689L17.2047 12.7216ZM16.8721 12.352L16.8121 13.3502L16.8195 13.3506L16.8721 12.352ZM16.5025 12.6846L17.5011 12.7374L17.5011 12.7372L16.5025 12.6846ZM16.4585 13.5157L17.4561 13.5855L17.4567 13.577L17.4571 13.5685L16.4585 13.5157ZM16.8582 14.7095L16.1043 15.3665L16.1044 15.3666L16.8582 14.7095ZM17.4868 15.1551L18.1698 15.8856L19.3226 14.8078L17.8557 14.2257L17.4868 15.1551ZM15.3618 17.2765L14.7236 16.5066L14.7076 16.5199L14.6922 16.5338L15.3618 17.2765ZM12.0001 19.2302V18.2302H11.9798L11.9595 18.2311L12.0001 19.2302ZM8.49214 17.1336L7.78528 17.8409L7.79243 17.848L7.79972 17.855L8.49214 17.1336ZM7.99494 17.1336L7.28796 16.4263L7.28772 16.4266L7.99494 17.1336ZM7.99494 17.6308L8.70205 16.9237L8.70204 16.9237L7.99494 17.6308ZM8.10725 17.7431L8.81477 17.0364L8.81436 17.036L8.10725 17.7431ZM8.1088 18.4676L7.40178 17.7604L7.4017 17.7605L8.1088 18.4676ZM7.38491 18.4657L8.09218 17.7588L8.09201 17.7586L7.38491 18.4657ZM4.00518 15.086L4.71228 14.3789L4.00518 15.086ZM3.60786 14.2749L4.60003 14.1499L4.5995 14.1458L3.60786 14.2749ZM3.20089 11.1479L4.19253 11.0188L4.19236 11.0176L3.20089 11.1479ZM2.7283 10.189L3.43553 9.482L3.4354 9.48188L2.7283 10.189ZM0.600176 8.06085L1.30728 7.35375L1.30704 7.35351L0.600176 8.06085ZM0.102973 8.06085L-0.604011 7.35363L-0.604252 7.35387L0.102973 8.06085ZM0.102973 8.55806L-0.604131 9.26516L-0.604123 9.26517L0.102973 8.55806ZM2.2311 10.6861L2.93831 9.97914L2.93819 9.97902L2.2311 10.6861ZM2.50368 11.239L3.49531 11.11L3.49517 11.1089L2.50368 11.239ZM2.91041 14.3641L3.9026 14.2394L3.90204 14.2351L2.91041 14.3641ZM3.50793 15.5832L2.80077 16.2903L2.80082 16.2903L3.50793 15.5832ZM6.88766 18.9629L6.18056 19.6701L6.18063 19.6701L6.88766 18.9629ZM8.60596 18.9648L9.31299 19.672L9.31306 19.6719L8.60596 18.9648ZM8.91491 18.4367L9.54125 17.6571L8.36077 16.7087L7.95203 18.1668L8.91491 18.4367ZM9.43007 18.8309H10.4301V18.3204L10.0166 18.021L9.43007 18.8309ZM8.62189 21.1353L8.78086 22.1226L8.7809 22.1225L8.62189 21.1353ZM5.4163 21.6514L5.57525 22.6387L5.57526 22.6387L5.4163 21.6514ZM3.02708 23.5086L2.10955 23.1109L2.10943 23.1112L3.02708 23.5086ZM3.20985 23.9709L2.81217 24.8885L2.8124 24.8886L3.20985 23.9709ZM3.67227 23.7881L4.58974 24.1859L4.58981 24.1857L3.67227 23.7881ZM5.5281 22.3455L5.68703 23.3328L5.68706 23.3328L5.5281 22.3455ZM8.73369 21.8294L8.89266 22.8167L8.89268 22.8167L8.73369 21.8294ZM10.1332 19.2958L10.6441 18.4361L9.13319 17.5382V19.2958H10.1332ZM13.8668 19.2958H14.8668V17.5381L13.3558 18.4361L13.8668 19.2958ZM15.2663 21.8294L15.1073 22.8167L15.1073 22.8167L15.2663 21.8294ZM18.4719 22.3455L18.6309 21.3583L18.6308 21.3583L18.4719 22.3455ZM20.3277 23.7881L19.4102 24.1858L19.4103 24.186L20.3277 23.7881ZM20.7901 23.9709L21.1876 24.8886L21.1877 24.8885L20.7901 23.9709ZM20.9729 23.5086L21.8905 23.111L21.8904 23.1109L20.9729 23.5086ZM18.5837 21.6514L18.4247 22.6387L18.4247 22.6387L18.5837 21.6514ZM15.3781 21.1353L15.2191 22.1225L15.2191 22.1226L15.3781 21.1353ZM14.5699 18.8309L13.9834 18.021L13.5699 18.3204V18.8309H14.5699ZM15.085 18.4367L16.0478 18.1666L15.6389 16.7087L14.4586 17.6573L15.085 18.4367ZM16.2516 19.3191V20.3191H16.2517L16.2516 19.3191ZM20.4919 15.5834L21.199 16.2906L21.1991 16.2905L20.4919 15.5834ZM21.0896 14.3657L20.098 14.2367L20.0975 14.2401L21.0896 14.3657ZM21.4965 11.2392L22.4881 11.3683L22.4881 11.3682L21.4965 11.2392ZM21.7691 10.6862L22.4762 11.3933L21.7691 10.6862ZM23.897 8.55829L24.6042 9.2654L24.6043 9.26527L23.897 8.55829ZM23.897 8.06109L23.1898 8.76807L23.1899 8.76819L23.897 8.06109ZM22.6929 7.35408L20.565 9.48202L21.9792 10.8962L24.1071 8.76829L22.6929 7.35408ZM20.5649 9.48208C20.1515 9.89559 19.8834 10.4393 19.8078 11.0194L21.791 11.2778C21.8095 11.1361 21.8771 10.9984 21.9793 10.8962L20.5649 9.48208ZM19.8078 11.0195L19.4008 14.1473L21.384 14.4054L21.791 11.2776L19.8078 11.0195ZM19.4003 14.1509C19.3897 14.2345 19.3493 14.3178 19.2879 14.3792L20.7019 15.7935C21.0761 15.4195 21.318 14.9274 21.3845 14.4019L19.4003 14.1509ZM19.2878 14.3792L15.9082 17.7588L17.3225 19.173L20.702 15.7934L19.2878 14.3792ZM15.908 17.759C16.0956 17.5713 16.4042 17.5661 16.5986 17.7606L15.1841 19.1745C15.7767 19.7674 16.735 19.7609 17.3227 19.1727L15.908 17.759ZM16.5984 17.7604C16.793 17.955 16.7875 18.2634 16.6001 18.4508L15.186 17.0364C14.5985 17.6238 14.5914 18.5819 15.1843 19.1748L16.5984 17.7604ZM16.6002 18.4507L19.316 15.7349L17.9017 14.3207L15.1859 17.0365L16.6002 18.4507ZM19.3646 15.6826C19.5546 15.4634 19.7837 15.0879 19.8219 14.6138L17.8283 14.4534C17.8318 14.4101 17.8425 14.388 17.8432 14.3866C17.8442 14.3845 17.8447 14.3836 17.8451 14.383C17.8454 14.3826 17.8476 14.3793 17.8531 14.3729L19.3646 15.6826ZM19.8234 14.592L20.0638 10.4839L18.0673 10.367L17.8268 14.4752L19.8234 14.592ZM20.0638 10.4838C20.1074 9.73865 19.5387 9.09921 18.7936 9.0556L18.6767 11.0522C18.3192 11.0312 18.0463 10.7244 18.0673 10.367L20.0638 10.4838ZM18.7955 9.05571C18.0455 9.01034 17.4086 9.5835 17.3653 10.3261L19.3619 10.4425C19.3412 10.7975 19.0358 11.0739 18.6747 11.0521L18.7955 9.05571ZM17.3653 10.3259L17.1251 14.4303L19.1216 14.5472L19.3619 10.4427L17.3653 10.3259ZM17.1251 14.4296C17.1367 14.2341 17.2103 14.0331 17.3595 13.8678C17.5394 13.6685 17.7921 13.5633 18.042 13.566L18.0198 15.5659C18.3373 15.5694 18.6355 15.4391 18.8443 15.2077C19.0224 15.0103 19.1084 14.7704 19.1216 14.5479L17.1251 14.4296ZM18.0989 13.5683C18.1034 13.5686 18.1117 13.5702 18.1214 13.575C18.1311 13.5798 18.1381 13.5858 18.142 13.5903L16.6344 14.9045C16.9737 15.2938 17.4489 15.5286 17.9629 15.5637L18.0989 13.5683ZM18.1407 13.5888C18.1504 13.5999 18.1568 13.6085 18.1606 13.6139C18.1644 13.6193 18.1665 13.6228 18.1672 13.6241C18.1685 13.6263 18.167 13.6241 18.1649 13.6181C18.1628 13.6124 18.1613 13.6064 18.1605 13.6013C18.1596 13.5964 18.1599 13.5945 18.1598 13.596L16.1614 13.5161C16.1394 14.0653 16.3482 14.5776 16.6358 14.9061L18.1407 13.5888ZM18.1592 13.6087L18.2033 12.7744L16.2061 12.6689L16.162 13.5033L18.1592 13.6087ZM18.2033 12.7745C18.2427 12.0291 17.6703 11.3927 16.9247 11.3534L16.8195 13.3506C16.4618 13.3318 16.1871 13.0265 16.2061 12.6688L18.2033 12.7745ZM16.9321 11.3538C16.176 11.3084 15.5429 11.8922 15.5039 12.6319L17.5011 12.7372C17.4826 13.0891 17.1814 13.3724 16.8121 13.3502L16.9321 11.3538ZM15.5039 12.6317L15.4599 13.4629L17.4571 13.5685L17.5011 12.7374L15.5039 12.6317ZM15.461 13.4459C15.4118 14.1492 15.6408 14.8347 16.1043 15.3665L17.612 14.0524C17.4986 13.9223 17.4439 13.7602 17.4561 13.5855L15.461 13.4459ZM16.1044 15.3666C16.3835 15.6868 16.7307 15.9309 17.118 16.0846L17.8557 14.2257C17.764 14.1893 17.681 14.1315 17.6119 14.0523L16.1044 15.3666ZM16.8039 14.4247C16.7579 14.4677 16.2185 15.0093 15.7186 15.51C15.4606 15.7684 15.2032 16.0261 15.0064 16.2223C14.9079 16.3206 14.8255 16.4024 14.7663 16.461C14.679 16.5472 14.6877 16.5364 14.7236 16.5066L15.9999 18.0465C16.0518 18.0034 16.1371 17.9181 16.1717 17.8839C16.2344 17.822 16.3195 17.7374 16.4186 17.6385C16.6172 17.4406 16.876 17.1814 17.1341 16.9229C17.3934 16.6632 17.649 16.4068 17.8468 16.2087C18.0572 15.998 18.1719 15.8836 18.1698 15.8856L16.8039 14.4247ZM14.6922 16.5338C14.0263 17.1341 13.4347 17.5756 12.9432 17.8612C12.4268 18.1614 12.1212 18.2302 12.0001 18.2302V20.2302C12.6493 20.2302 13.3257 19.9522 13.9482 19.5904C14.5956 19.2141 15.2997 18.6788 16.0313 18.0193L14.6922 16.5338ZM11.9595 18.2311C11.9597 18.231 11.8698 18.2292 11.6661 18.1532C11.4756 18.0822 11.2381 17.9662 10.964 17.8017C10.4162 17.473 9.78601 16.9893 9.18457 16.4121L7.79972 17.855C8.49273 18.5201 9.24052 19.1 9.93503 19.5167C10.2821 19.725 10.6318 19.9021 10.9673 20.0272C11.2896 20.1474 11.6644 20.2447 12.0406 20.2294L11.9595 18.2311ZM9.19901 16.4262C8.67126 15.8988 7.81582 15.8987 7.28796 16.4263L8.70192 17.8408C8.44866 18.094 8.03834 18.0938 7.78528 17.8409L9.19901 16.4262ZM7.28772 16.4266C6.76012 16.9543 6.75995 17.81 7.28784 18.3379L8.70204 16.9237C8.95534 17.1769 8.95516 17.5875 8.70217 17.8405L7.28772 16.4266ZM7.28783 18.3379L7.40015 18.4502L8.81436 17.036L8.70205 16.9237L7.28783 18.3379ZM7.39974 18.4498C7.21296 18.2628 7.20724 17.9549 7.40178 17.7604L8.81582 19.1748C9.4088 18.582 9.40167 17.624 8.81477 17.0364L7.39974 18.4498ZM7.4017 17.7605C7.49295 17.6693 7.61937 17.6169 7.74847 17.6169V19.6169C8.14992 19.6169 8.53218 19.4584 8.8159 19.1747L7.4017 17.7605ZM7.74847 17.6169C7.87836 17.6169 8.00318 17.6698 8.09218 17.7588L6.67764 19.1727C6.96145 19.4566 7.34455 19.6169 7.74847 19.6169V17.6169ZM8.09201 17.7586L4.71228 14.3789L3.29807 15.7931L6.67781 19.1728L8.09201 17.7586ZM4.71228 14.3789C4.65125 14.3179 4.61075 14.2351 4.60002 14.1499L2.61571 14.3999C2.68204 14.9264 2.92353 15.4186 3.29807 15.7931L4.71228 14.3789ZM4.5995 14.1458L4.19253 11.0188L2.20926 11.277L2.61623 14.4039L4.5995 14.1458ZM4.19236 11.0176C4.11625 10.4385 3.84857 9.8952 3.43553 9.482L2.02107 10.896C2.12271 10.9976 2.19066 11.1355 2.20942 11.2782L4.19236 11.0176ZM3.4354 9.48188L1.30728 7.35375L-0.106928 8.76796L2.0212 10.8961L3.4354 9.48188ZM1.30704 7.35351C0.779294 6.82612 -0.076152 6.82595 -0.604011 7.35363L0.809956 8.76808C0.556691 9.02126 0.14637 9.02108 -0.106687 8.7682L1.30704 7.35351ZM-0.604252 7.35387C-1.13184 7.88164 -1.13202 8.73728 -0.604131 9.26516L0.810077 7.85095C1.06337 8.10425 1.0632 8.51475 0.810197 8.76784L-0.604252 7.35387ZM-0.604123 9.26517L1.524 11.3932L2.93819 9.97902L0.810069 7.85095L-0.604123 9.26517ZM1.52388 11.3931C1.51931 11.3886 1.5171 11.3849 1.51589 11.3825C1.51468 11.38 1.51307 11.3759 1.51218 11.3691L3.49517 11.1089C3.43921 10.6825 3.24232 10.2832 2.93831 9.97914L1.52388 11.3931ZM1.51204 11.3681L1.91878 14.4932L3.90204 14.2351L3.49531 11.11L1.51204 11.3681ZM1.91823 14.4889C2.00369 15.1685 2.31667 15.8061 2.80077 16.2903L4.21508 14.8762C4.04397 14.705 3.93244 14.4767 3.90259 14.2394L1.91823 14.4889ZM2.80082 16.2903L6.18056 19.6701L7.59476 18.2558L4.21503 14.8761L2.80082 16.2903ZM6.18063 19.6701C6.59789 20.0873 7.15772 20.3199 7.74843 20.3199V18.32C7.68954 18.32 7.63793 18.299 7.59469 18.2558L6.18063 19.6701ZM7.74843 20.3199C8.33751 20.3199 8.89635 20.0886 9.31299 19.672L7.89892 18.2576C7.85741 18.2992 7.80724 18.32 7.74843 18.32V20.3199ZM9.31306 19.6719C9.59044 19.3945 9.77879 19.0598 9.87779 18.7066L7.95203 18.1668C7.94247 18.2009 7.92522 18.2314 7.89885 18.2577L9.31306 19.6719ZM8.28857 19.2162C8.47574 19.3666 8.66084 19.5085 8.84353 19.6408L10.0166 18.021C9.86413 17.9106 9.70564 17.7892 9.54125 17.6571L8.28857 19.2162ZM8.43007 18.8309V20.1865H10.4301V18.8309H8.43007ZM8.43007 20.1865C8.43007 20.185 8.43046 20.1808 8.43244 20.1755C8.43429 20.1705 8.43699 20.166 8.44034 20.162C8.44369 20.1581 8.44777 20.1547 8.45237 20.1521C8.45731 20.1493 8.46137 20.1482 8.46288 20.148L8.7809 22.1225C9.73383 21.9691 10.4301 21.1518 10.4301 20.1865H8.43007ZM8.46293 20.148L5.25734 20.6641L5.57526 22.6387L8.78086 22.1226L8.46293 20.148ZM5.25735 20.6641C3.85391 20.8901 2.6748 21.8067 2.10955 23.1109L3.94461 23.9062C4.23849 23.2281 4.84569 22.7562 5.57525 22.6387L5.25735 20.6641ZM2.10943 23.1112C1.81299 23.7957 2.12712 24.5915 2.81217 24.8885L3.60752 23.0534C3.93633 23.1959 4.08686 23.5777 3.94473 23.9059L2.10943 23.1112ZM2.8124 24.8886C2.98581 24.9637 3.1687 25 3.34949 25V23C3.4369 23 3.52501 23.0177 3.60729 23.0533L2.8124 24.8886ZM3.34949 25C3.86954 25 4.3681 24.6971 4.58974 24.1859L2.7548 23.3903C2.8614 23.1444 3.10112 23 3.34949 23V25ZM4.58981 24.1857C4.78779 23.7289 5.19557 23.4119 5.68703 23.3328L5.36916 21.3583C4.20378 21.5459 3.22406 22.3075 2.75473 23.3905L4.58981 24.1857ZM5.68706 23.3328L8.89266 22.8167L8.57473 20.8421L5.36913 21.3583L5.68706 23.3328ZM8.89268 22.8167C10.1883 22.608 11.1332 21.4988 11.1332 20.1865H9.13319C9.13319 20.517 8.90096 20.7896 8.5747 20.8421L8.89268 22.8167ZM11.1332 20.1865V19.2958H9.13319V20.1865H11.1332ZM9.62229 20.1554C10.4087 20.6228 11.2152 20.9333 12 20.9333V18.9333C11.7252 18.9333 11.283 18.8159 10.6441 18.4361L9.62229 20.1554ZM12 20.9333C12.7847 20.9333 13.5912 20.6229 14.3777 20.1554L13.3558 18.4361C12.717 18.8159 12.2748 18.9333 12 18.9333V20.9333ZM12.8668 19.2958V20.1865H14.8668V19.2958H12.8668ZM12.8668 20.1865C12.8668 21.4987 13.8117 22.608 15.1073 22.8167L15.4253 20.8421C15.0991 20.7896 14.8668 20.5169 14.8668 20.1865H12.8668ZM15.1073 22.8167L18.3129 23.3328L18.6308 21.3583L15.4252 20.8421L15.1073 22.8167ZM18.3129 23.3328C18.8044 23.412 19.2122 23.729 19.4102 24.1858L21.2452 23.3905C20.7759 22.3075 19.7962 21.5459 18.6309 21.3583L18.3129 23.3328ZM19.4103 24.186C19.6318 24.6968 20.1301 25 20.6505 25V23C20.8991 23 21.1386 23.1446 21.2451 23.3902L19.4103 24.186ZM20.6505 25C20.8312 25 21.0141 24.9637 21.1876 24.8886L20.3927 23.0533C20.475 23.0176 20.5631 23 20.6505 23V25ZM21.1877 24.8885C21.8728 24.5916 22.1871 23.7957 21.8905 23.111L20.0553 23.9061C19.913 23.5778 20.0638 23.1958 20.3925 23.0534L21.1877 24.8885ZM21.8904 23.1109C21.3252 21.8067 20.146 20.8901 18.7426 20.6641L18.4247 22.6387C19.1543 22.7562 19.7615 23.2281 20.0554 23.9062L21.8904 23.1109ZM18.7426 20.6641L15.537 20.148L15.2191 22.1226L18.4247 22.6387L18.7426 20.6641ZM15.5371 20.148C15.5386 20.1482 15.5427 20.1493 15.5476 20.1521C15.5522 20.1547 15.5563 20.1581 15.5596 20.162C15.563 20.166 15.5657 20.1705 15.5675 20.1755C15.5695 20.1808 15.5699 20.185 15.5699 20.1865H13.5699C13.5699 21.1518 14.2661 21.9691 15.2191 22.1225L15.5371 20.148ZM15.5699 20.1865V18.8309H13.5699V20.1865H15.5699ZM15.1564 19.6408C15.339 19.5086 15.5242 19.3667 15.7115 19.2162L14.4586 17.6573C14.2944 17.7892 14.1359 17.9105 13.9834 18.021L15.1564 19.6408ZM14.1222 18.7068C14.2212 19.0598 14.4096 19.3945 14.6869 19.6718L16.1011 18.2576C16.0746 18.2311 16.0574 18.2006 16.0478 18.1666L14.1222 18.7068ZM14.6869 19.6718C15.1191 20.104 15.6876 20.3191 16.2516 20.3191V18.3192C16.194 18.3192 16.1415 18.298 16.1011 18.2576L14.6869 19.6718ZM16.2517 20.3191C16.8168 20.3191 17.3865 20.103 17.8195 19.6701L16.4053 18.2559C16.3634 18.2977 16.3094 18.3191 16.2514 18.3192L16.2517 20.3191ZM17.8195 19.6701L21.199 16.2906L19.7848 14.8763L16.4053 18.2559L17.8195 19.6701ZM21.1991 16.2905C21.6828 15.8067 21.9958 15.1695 22.0817 14.4913L20.0975 14.2401C20.0676 14.4766 19.956 14.7051 19.7848 14.8764L21.1991 16.2905ZM22.0812 14.4948L22.4881 11.3683L20.5049 11.1102L20.098 14.2367L22.0812 14.4948ZM22.4881 11.3682C22.4872 11.3754 22.4854 11.38 22.4841 11.3828C22.4827 11.3855 22.4805 11.3891 22.4762 11.3933L21.062 9.97913C20.7579 10.2832 20.5605 10.6825 20.5048 11.1102L22.4881 11.3682ZM22.4762 11.3933L24.6042 9.2654L23.1899 7.85119L21.062 9.97913L22.4762 11.3933ZM24.6043 9.26527C25.1319 8.7375 25.132 7.88187 24.6042 7.35398L23.1899 8.76819C22.9367 8.5149 22.9368 8.10439 23.1898 7.85131L24.6043 9.26527ZM24.6043 7.35411C24.0762 6.82589 23.2206 6.82676 22.6932 7.35384L24.1069 8.76853C23.8541 9.0211 23.4436 9.02197 23.1898 8.76807L24.6043 7.35411Z" fill="#171717" mask="url(#path-4-inside-2_1172_12718)"/>
<mask id="path-6-inside-3_1172_12718" fill="white">
<path d="M10.778 14.3852C10.7103 14.5673 10.803 14.7696 10.9849 14.8374C11.2978 14.9537 11.6128 15.0119 11.9278 15.0119C12.2428 15.0119 12.5579 14.9537 12.8707 14.8374C13.0527 14.7697 13.1453 14.5673 13.0776 14.3852C13.0099 14.2032 12.8076 14.1106 12.6255 14.1783C12.156 14.353 11.6995 14.353 11.23 14.1783C11.0481 14.1107 10.8457 14.2033 10.778 14.3852Z"/>
</mask>
<path d="M10.778 14.3852C10.7103 14.5673 10.803 14.7696 10.9849 14.8374C11.2978 14.9537 11.6128 15.0119 11.9278 15.0119C12.2428 15.0119 12.5579 14.9537 12.8707 14.8374C13.0527 14.7697 13.1453 14.5673 13.0776 14.3852C13.0099 14.2032 12.8076 14.1106 12.6255 14.1783C12.156 14.353 11.6995 14.353 11.23 14.1783C11.0481 14.1107 10.8457 14.2033 10.778 14.3852Z" fill="#171717"/>
<path d="M10.9849 14.8374L10.6361 15.7745L10.6364 15.7747L10.9849 14.8374ZM12.8707 14.8374L12.5221 13.9001L12.522 13.9001L12.8707 14.8374ZM13.0776 14.3852L14.0149 14.0367L14.0148 14.0365L13.0776 14.3852ZM12.6255 14.1783L12.2768 13.2411L12.2768 13.2411L12.6255 14.1783ZM11.23 14.1783L11.5788 13.2411L11.5785 13.241L11.23 14.1783ZM9.84073 14.0367C9.58058 14.7362 9.93663 15.5142 10.6361 15.7745L11.3338 13.9002C11.6693 14.0251 11.8401 14.3983 11.7153 14.7338L9.84073 14.0367ZM10.6364 15.7747C11.0544 15.9301 11.4872 16.0119 11.9278 16.0119V14.0119C11.7385 14.0119 11.5412 13.9773 11.3334 13.9001L10.6364 15.7747ZM11.9278 16.0119C12.3683 16.0119 12.8012 15.9302 13.2194 15.7746L12.522 13.9001C12.3145 13.9773 12.1173 14.0119 11.9278 14.0119V16.0119ZM13.2193 15.7746C13.9192 15.5143 14.275 14.7361 14.0149 14.0367L12.1403 14.7338C12.0156 14.3984 12.1862 14.025 12.5221 13.9001L13.2193 15.7746ZM14.0148 14.0365C13.7545 13.337 12.9766 12.9808 12.2768 13.2411L12.9742 15.1156C12.6386 15.2404 12.2652 15.0695 12.1404 14.734L14.0148 14.0365ZM12.2768 13.2411C12.0322 13.3321 11.8233 13.3321 11.5788 13.2411L10.8813 15.1156C11.5757 15.374 12.2798 15.374 12.9742 15.1156L12.2768 13.2411ZM11.5785 13.241C10.8794 12.9811 10.101 13.3366 9.84068 14.0368L11.7153 14.7337C11.5903 15.0699 11.2167 15.2402 10.8816 15.1157L11.5785 13.241Z" fill="#171717" mask="url(#path-6-inside-3_1172_12718)"/>
<path d="M16.1294 10.3467C16.1872 10.1614 16.0837 9.96425 15.8983 9.9065C15.1369 9.66931 14.1895 9.37428 13.0622 9.92643C12.8878 10.0119 12.8157 10.2224 12.9012 10.3968C12.9866 10.5712 13.1972 10.6432 13.3715 10.5579C14.1865 10.1586 14.8183 10.3065 15.6892 10.5778C15.7239 10.5886 15.7592 10.5938 15.7938 10.5938C15.9437 10.5938 16.0825 10.4973 16.1294 10.3467Z" fill="#171717"/>
<path d="M10.9382 9.9265C9.81096 9.37422 8.86343 9.66934 8.10208 9.90658C7.91669 9.96428 7.81324 10.1614 7.87099 10.3468C7.91786 10.4974 8.0567 10.5939 8.20652 10.5939C8.24111 10.5939 8.27636 10.5887 8.31114 10.5778C9.18208 10.3066 9.81387 10.1586 10.6287 10.5579C10.8031 10.6434 11.0137 10.5712 11.0991 10.3968C11.1846 10.2225 11.1125 10.012 10.9382 9.9265Z" fill="#171717"/>
<path d="M10.2883 16.719C10.7514 16.9486 11.265 16.9609 11.8149 16.7557C11.8727 16.7341 11.9364 16.7341 11.9943 16.7557C12.2538 16.8525 12.5051 16.9009 12.7469 16.9009C13.0176 16.9009 13.2763 16.8402 13.5209 16.719C13.6949 16.6328 13.766 16.4219 13.6798 16.2479C13.5936 16.0739 13.3827 16.0028 13.2087 16.089C12.9186 16.2328 12.6108 16.2353 12.2402 16.0969C12.0237 16.0161 11.7854 16.0161 11.5691 16.0969C11.1983 16.2352 10.8906 16.2327 10.6005 16.089C10.4265 16.0026 10.2156 16.074 10.1294 16.2479C10.0432 16.4219 10.1143 16.6328 10.2883 16.719Z" fill="#171717"/>
<path d="M8.24247 12.5551C8.60243 12.6912 8.96491 12.7592 9.3274 12.7592C9.68988 12.7592 10.0524 12.6912 10.4124 12.5551C10.594 12.4864 10.6856 12.2835 10.6169 12.1019C10.5482 11.9203 10.3452 11.8288 10.1637 11.8974C9.60096 12.1101 9.05398 12.1102 8.49115 11.8974C8.30969 11.8287 8.10668 11.9203 8.03796 12.1019C7.96928 12.2835 8.06083 12.4864 8.24247 12.5551Z" fill="#171717"/>
<path d="M15.7581 12.5551C15.9397 12.4864 16.0313 12.2835 15.9626 12.1019C15.8939 11.9203 15.6909 11.8288 15.5094 11.8974C14.9466 12.1102 14.3996 12.1101 13.8368 11.8974C13.6554 11.8287 13.4523 11.9203 13.3837 12.1019C13.315 12.2835 13.4065 12.4864 13.5882 12.5551C13.9481 12.6912 14.3106 12.7592 14.6731 12.7592C15.0356 12.7592 15.3981 12.6912 15.7581 12.5551Z" fill="#171717"/>
</g>
<defs>
<clipPath id="clip0_1172_12718">
<rect width="24" height="24" fill="white"/>
</clipPath>
</defs>
</svg>
