<svg width="24" height="24" viewBox="0 0 24 24" fill="none" xmlns="http://www.w3.org/2000/svg">
<mask id="path-1-inside-1_1172_12770" fill="white">
<path d="M0 3V21.24H24V3H0ZM11.52 13.9718C10.6942 13.7572 10.08 13.012 10.08 12.12C10.08 11.228 10.6942 10.4828 11.52 10.2682V13.9718ZM12.48 10.2682C13.3058 10.4828 13.92 11.228 13.92 12.12C13.92 13.012 13.3058 13.7572 12.48 13.9718V10.2682ZM0.96 8.76H3.84V15.48H0.96V8.76ZM0.96 16.44H4.8V14.4715C5.89406 14.2485 6.72 13.2789 6.72 12.12C6.72 10.9611 5.89406 9.99154 4.8 9.76853V7.8H0.96V3.96H11.52V9.28335C10.1601 9.51298 9.12 10.6957 9.12 12.12C9.12 13.5443 10.1601 14.727 11.52 14.9567V20.28H0.96V16.44ZM4.8 10.7685C5.35752 10.9672 5.76 11.4951 5.76 12.12C5.76 12.7449 5.35752 13.2728 4.8 13.4715V10.7685ZM23.04 15.48H20.16V8.76H23.04V15.48ZM19.2 7.8V9.76853C18.1059 9.99154 17.28 10.9611 17.28 12.12C17.28 13.2789 18.1059 14.2485 19.2 14.4715V16.44H23.04V20.28H12.48V14.9567C13.8399 14.727 14.88 13.5443 14.88 12.12C14.88 10.6957 13.8399 9.51298 12.48 9.28335V3.96H23.04V7.8H19.2ZM19.2 13.4715C18.6425 13.2728 18.24 12.7449 18.24 12.12C18.24 11.4951 18.6425 10.9672 19.2 10.7685V13.4715Z"/>
</mask>
<path d="M0 3V21.24H24V3H0ZM11.52 13.9718C10.6942 13.7572 10.08 13.012 10.08 12.12C10.08 11.228 10.6942 10.4828 11.52 10.2682V13.9718ZM12.48 10.2682C13.3058 10.4828 13.92 11.228 13.92 12.12C13.92 13.012 13.3058 13.7572 12.48 13.9718V10.2682ZM0.96 8.76H3.84V15.48H0.96V8.76ZM0.96 16.44H4.8V14.4715C5.89406 14.2485 6.72 13.2789 6.72 12.12C6.72 10.9611 5.89406 9.99154 4.8 9.76853V7.8H0.96V3.96H11.52V9.28335C10.1601 9.51298 9.12 10.6957 9.12 12.12C9.12 13.5443 10.1601 14.727 11.52 14.9567V20.28H0.96V16.44ZM4.8 10.7685C5.35752 10.9672 5.76 11.4951 5.76 12.12C5.76 12.7449 5.35752 13.2728 4.8 13.4715V10.7685ZM23.04 15.48H20.16V8.76H23.04V15.48ZM19.2 7.8V9.76853C18.1059 9.99154 17.28 10.9611 17.28 12.12C17.28 13.2789 18.1059 14.2485 19.2 14.4715V16.44H23.04V20.28H12.48V14.9567C13.8399 14.727 14.88 13.5443 14.88 12.12C14.88 10.6957 13.8399 9.51298 12.48 9.28335V3.96H23.04V7.8H19.2ZM19.2 13.4715C18.6425 13.2728 18.24 12.7449 18.24 12.12C18.24 11.4951 18.6425 10.9672 19.2 10.7685V13.4715Z" fill="#171717"/>
<path d="M0 3V-5H-8V3H0ZM0 21.24H-8V29.24H0V21.24ZM24 21.24V29.24H32V21.24H24ZM24 3H32V-5H24V3ZM11.52 13.9718L9.50749 21.7146L19.52 24.317V13.9718H11.52ZM11.52 10.2682H19.52V-0.0770814L9.50746 2.52544L11.52 10.2682ZM12.48 10.2682L14.4925 2.52544L4.48 -0.0770931V10.2682H12.48ZM12.48 13.9718H4.48V24.317L14.4925 21.7146L12.48 13.9718ZM0.96 8.76V0.76H-7.04V8.76H0.96ZM3.84 8.76H11.84V0.76H3.84V8.76ZM3.84 15.48V23.48H11.84V15.48H3.84ZM0.96 15.48H-7.04V23.48H0.96V15.48ZM0.96 16.44V8.44H-7.04V16.44H0.96ZM4.8 16.44V24.44H12.8V16.44H4.8ZM4.8 14.4715L3.20218 6.63266L-3.2 7.93765V14.4715H4.8ZM4.8 9.76853H-3.2V16.3024L3.20217 17.6073L4.8 9.76853ZM4.8 7.8H12.8V-0.2H4.8V7.8ZM0.96 7.8H-7.04V15.8H0.96V7.8ZM0.96 3.96V-4.04H-7.04V3.96H0.96ZM11.52 3.96H19.52V-4.04H11.52V3.96ZM11.52 9.28335L12.852 17.1717L19.52 16.0457V9.28335H11.52ZM11.52 14.9567H19.52V8.19429L12.852 7.06833L11.52 14.9567ZM11.52 20.28V28.28H19.52V20.28H11.52ZM0.96 20.28H-7.04V28.28H0.96V20.28ZM4.8 10.7685L7.48655 3.23305L-3.2 -0.576949V10.7685H4.8ZM4.8 13.4715H-3.2V24.817L7.48655 21.007L4.8 13.4715ZM23.04 15.48V23.48H31.04V15.48H23.04ZM20.16 15.48H12.16V23.48H20.16V15.48ZM20.16 8.76V0.76H12.16V8.76H20.16ZM23.04 8.76H31.04V0.76H23.04V8.76ZM19.2 7.8V-0.2H11.2V7.8H19.2ZM19.2 9.76853L20.7978 17.6073L27.2 16.3024V9.76853H19.2ZM19.2 14.4715H27.2V7.93764L20.7978 6.63266L19.2 14.4715ZM19.2 16.44H11.2V24.44H19.2V16.44ZM23.04 16.44H31.04V8.44H23.04V16.44ZM23.04 20.28V28.28H31.04V20.28H23.04ZM12.48 20.28H4.48V28.28H12.48V20.28ZM12.48 14.9567L11.148 7.06833L4.48 8.1943V14.9567H12.48ZM12.48 9.28335H4.48V16.0457L11.148 17.1717L12.48 9.28335ZM12.48 3.96V-4.04H4.48V3.96H12.48ZM23.04 3.96H31.04V-4.04H23.04V3.96ZM23.04 7.8V15.8H31.04V7.8H23.04ZM19.2 13.4715L16.5135 21.007L27.2 24.8169V13.4715H19.2ZM19.2 10.7685H27.2V-0.57693L16.5135 3.23305L19.2 10.7685ZM-8 3V21.24H8V3H-8ZM0 29.24H24V13.24H0V29.24ZM32 21.24V3H16V21.24H32ZM24 -5H0V11H24V-5ZM13.5325 6.22911C16.0887 6.89353 18.08 9.22215 18.08 12.12H2.08C2.08 16.8018 5.29961 20.6208 9.50749 21.7146L13.5325 6.22911ZM18.08 12.12C18.08 15.0179 16.0887 17.3465 13.5325 18.0109L9.50746 2.52544C5.29961 3.61917 2.08 7.43817 2.08 12.12H18.08ZM3.52 10.2682V13.9718H19.52V10.2682H3.52ZM10.4675 18.0109C7.91131 17.3465 5.92 15.0179 5.92 12.12H21.92C21.92 7.43815 18.7004 3.61917 14.4925 2.52544L10.4675 18.0109ZM5.92 12.12C5.92 9.22213 7.9113 6.89353 10.4675 6.22912L14.4925 21.7146C18.7004 20.6208 21.92 16.8018 21.92 12.12H5.92ZM20.48 13.9718V10.2682H4.48V13.9718H20.48ZM0.96 16.76H3.84V0.76H0.96V16.76ZM-4.16 8.76V15.48H11.84V8.76H-4.16ZM3.84 7.48H0.96V23.48H3.84V7.48ZM8.96 15.48V8.76H-7.04V15.48H8.96ZM0.96 24.44H4.8V8.44H0.96V24.44ZM12.8 16.44V14.4715H-3.2V16.44H12.8ZM6.39782 22.3103C11.1359 21.3445 14.72 17.1641 14.72 12.12H-1.28C-1.28 9.39378 0.652181 7.15244 3.20218 6.63266L6.39782 22.3103ZM14.72 12.12C14.72 7.07594 11.1359 2.89551 6.39783 1.92972L3.20217 17.6073C0.652197 17.0876 -1.28 14.8462 -1.28 12.12H14.72ZM12.8 9.76853V7.8H-3.2V9.76853H12.8ZM4.8 -0.2H0.96V15.8H4.8V-0.2ZM8.96 7.8V3.96H-7.04V7.8H8.96ZM0.96 11.96H11.52V-4.04H0.96V11.96ZM3.52 3.96V9.28335H19.52V3.96H3.52ZM10.188 1.39502C5.06314 2.2604 1.12 6.70609 1.12 12.12H17.12C17.12 14.6854 15.2571 16.7656 12.852 17.1717L10.188 1.39502ZM1.12 12.12C1.12 17.5339 5.06313 21.9796 10.188 22.845L12.852 7.06833C15.2571 7.47445 17.12 9.55461 17.12 12.12H1.12ZM3.52 14.9567V20.28H19.52V14.9567H3.52ZM11.52 12.28H0.96V28.28H11.52V12.28ZM8.96 20.28V16.44H-7.04V20.28H8.96ZM2.11345 18.3039C-0.352318 17.4248 -2.24 15.0473 -2.24 12.12H13.76C13.76 7.94292 11.0674 4.50969 7.48655 3.23305L2.11345 18.3039ZM-2.24 12.12C-2.24 9.19275 -0.35233 6.81523 2.11345 5.93612L7.48655 21.007C11.0674 19.7303 13.76 16.2971 13.76 12.12H-2.24ZM12.8 13.4715V10.7685H-3.2V13.4715H12.8ZM23.04 7.48H20.16V23.48H23.04V7.48ZM28.16 15.48V8.76H12.16V15.48H28.16ZM20.16 16.76H23.04V0.76H20.16V16.76ZM15.04 8.76V15.48H31.04V8.76H15.04ZM11.2 7.8V9.76853H27.2V7.8H11.2ZM17.6022 1.92972C12.8641 2.89551 9.28 7.07595 9.28 12.12H25.28C25.28 14.8462 23.3478 17.0876 20.7978 17.6073L17.6022 1.92972ZM9.28 12.12C9.28 17.164 12.864 21.3445 17.6022 22.3103L20.7978 6.63266C23.3478 7.15244 25.28 9.39379 25.28 12.12H9.28ZM11.2 14.4715V16.44H27.2V14.4715H11.2ZM19.2 24.44H23.04V8.44H19.2V24.44ZM15.04 16.44V20.28H31.04V16.44H15.04ZM23.04 12.28H12.48V28.28H23.04V12.28ZM20.48 20.28V14.9567H4.48V20.28H20.48ZM13.812 22.845C18.9369 21.9796 22.88 17.5339 22.88 12.12H6.88C6.88 9.5546 8.74292 7.47445 11.148 7.06833L13.812 22.845ZM22.88 12.12C22.88 6.70608 18.9368 2.2604 13.812 1.39502L11.148 17.1717C8.74292 16.7656 6.88 14.6854 6.88 12.12H22.88ZM20.48 9.28335V3.96H4.48V9.28335H20.48ZM12.48 11.96H23.04V-4.04H12.48V11.96ZM15.04 3.96V7.8H31.04V3.96H15.04ZM23.04 -0.2H19.2V15.8H23.04V-0.2ZM21.8865 5.93612C24.3523 6.81523 26.24 9.19277 26.24 12.12H10.24C10.24 16.2971 12.9326 19.7303 16.5135 21.007L21.8865 5.93612ZM26.24 12.12C26.24 15.0472 24.3523 17.4248 21.8865 18.3039L16.5135 3.23305C12.9326 4.50969 10.24 7.94293 10.24 12.12H26.24ZM11.2 10.7685V13.4715H27.2V10.7685H11.2Z" fill="#171717" mask="url(#path-1-inside-1_1172_12770)"/>
</svg>
