<svg width="24" height="24" viewBox="0 0 24 24" fill="none" xmlns="http://www.w3.org/2000/svg">
<path d="M12 19.75C7.72614 19.75 4.25 16.2739 4.25 12C4.25 7.72614 7.72614 4.25 12 4.25C16.2739 4.25 19.75 7.72614 19.75 12C19.75 16.2739 16.2739 19.75 12 19.75ZM12 4.75C8.00386 4.75 4.75 8.00386 4.75 12C4.75 15.9961 8.00386 19.25 12 19.25C15.9961 19.25 19.25 15.9961 19.25 12C19.25 8.00386 15.9961 4.75 12 4.75Z" fill="#171717" stroke="#171717"/>
<path d="M12 15.25C10.2061 15.25 8.75 13.7939 8.75 12C8.75 10.2061 10.2061 8.75 12 8.75C13.7939 8.75 15.25 10.2061 15.25 12C15.25 13.7939 13.7939 15.25 12 15.25ZM12 9.25C10.4839 9.25 9.25 10.4839 9.25 12C9.25 13.5161 10.4839 14.75 12 14.75C13.5161 14.75 14.75 13.5161 14.75 12C14.75 10.4839 13.5161 9.25 12 9.25Z" fill="#171717" stroke="#171717"/>
<path d="M12 4.25C11.8661 4.25 11.75 4.13386 11.75 4V2C11.75 1.86614 11.8661 1.75 12 1.75C12.1339 1.75 12.25 1.86614 12.25 2V4C12.25 4.13386 12.1339 4.25 12 4.25Z" stroke="#171717"/>
<path d="M4 12.75H2C1.59 12.75 1.25 12.41 1.25 12C1.25 11.59 1.59 11.25 2 11.25H4C4.41 11.25 4.75 11.59 4.75 12C4.75 12.41 4.41 12.75 4 12.75Z" fill="#171717"/>
<path d="M12 22.75C11.59 22.75 11.25 22.41 11.25 22V20C11.25 19.59 11.59 19.25 12 19.25C12.41 19.25 12.75 19.59 12.75 20V22C12.75 22.41 12.41 22.75 12 22.75Z" fill="#171717"/>
<path d="M22 12.75H20C19.59 12.75 19.25 12.41 19.25 12C19.25 11.59 19.59 11.25 20 11.25H22C22.41 11.25 22.75 11.59 22.75 12C22.75 12.41 22.41 12.75 22 12.75Z" fill="#292D32"/>
</svg>
