<svg width="24" height="24" viewBox="0 0 24 24" fill="none" xmlns="http://www.w3.org/2000/svg">
<mask id="path-1-inside-1_1172_12741" fill="white">
<path d="M14.8915 14.3846H9.10839C8.91829 14.3863 8.73124 14.4326 8.56227 14.5198C8.3933 14.6069 8.24712 14.7324 8.13547 14.8863C7.99911 15.071 7.90732 15.2847 7.86729 15.5107C7.82725 15.7367 7.84006 15.969 7.9047 16.1892L8.17147 17.1123C8.23908 17.3826 8.39339 17.6232 8.61078 17.7974C8.82817 17.9716 9.09667 18.0698 9.37516 18.0769H14.6247C14.9029 18.0695 15.1711 17.9712 15.3882 17.797C15.6054 17.6228 15.7595 17.3823 15.827 17.1123L16.0938 16.1892C16.1584 15.969 16.1712 15.7367 16.1312 15.5107C16.0911 15.2847 15.9994 15.071 15.863 14.8863C15.7515 14.7326 15.6055 14.6072 15.4368 14.5201C15.2681 14.4329 15.0813 14.3866 14.8915 14.3846ZM15.2072 15.9326L14.9404 16.8557C14.9259 16.9323 14.8876 17.0023 14.8309 17.0558C14.7742 17.1093 14.702 17.1434 14.6247 17.1534H9.37516C9.29779 17.1434 9.22557 17.1092 9.16885 17.0556C9.11214 17.0021 9.07384 16.9319 9.05947 16.8552L8.7927 15.9322C8.76801 15.8495 8.76245 15.7622 8.77644 15.6771C8.79044 15.5919 8.82361 15.5111 8.87347 15.4406C8.89949 15.4016 8.9343 15.3693 8.97511 15.3462C9.01591 15.3231 9.06156 15.3099 9.10839 15.3077H14.8915C14.9383 15.31 14.984 15.3232 15.0248 15.3464C15.0656 15.3696 15.1004 15.402 15.1264 15.4411C15.1762 15.5115 15.2094 15.5924 15.2234 15.6775C15.2374 15.7627 15.2318 15.8499 15.2072 15.9326Z"/>
</mask>
<path d="M14.8915 14.3846H9.10839C8.91829 14.3863 8.73124 14.4326 8.56227 14.5198C8.3933 14.6069 8.24712 14.7324 8.13547 14.8863C7.99911 15.071 7.90732 15.2847 7.86729 15.5107C7.82725 15.7367 7.84006 15.969 7.9047 16.1892L8.17147 17.1123C8.23908 17.3826 8.39339 17.6232 8.61078 17.7974C8.82817 17.9716 9.09667 18.0698 9.37516 18.0769H14.6247C14.9029 18.0695 15.1711 17.9712 15.3882 17.797C15.6054 17.6228 15.7595 17.3823 15.827 17.1123L16.0938 16.1892C16.1584 15.969 16.1712 15.7367 16.1312 15.5107C16.0911 15.2847 15.9994 15.071 15.863 14.8863C15.7515 14.7326 15.6055 14.6072 15.4368 14.5201C15.2681 14.4329 15.0813 14.3866 14.8915 14.3846ZM15.2072 15.9326L14.9404 16.8557C14.9259 16.9323 14.8876 17.0023 14.8309 17.0558C14.7742 17.1093 14.702 17.1434 14.6247 17.1534H9.37516C9.29779 17.1434 9.22557 17.1092 9.16885 17.0556C9.11214 17.0021 9.07384 16.9319 9.05947 16.8552L8.7927 15.9322C8.76801 15.8495 8.76245 15.7622 8.77644 15.6771C8.79044 15.5919 8.82361 15.5111 8.87347 15.4406C8.89949 15.4016 8.9343 15.3693 8.97511 15.3462C9.01591 15.3231 9.06156 15.3099 9.10839 15.3077H14.8915C14.9383 15.31 14.984 15.3232 15.0248 15.3464C15.0656 15.3696 15.1004 15.402 15.1264 15.4411C15.1762 15.5115 15.2094 15.5924 15.2234 15.6775C15.2374 15.7627 15.2318 15.8499 15.2072 15.9326Z" fill="#171717"/>
<path d="M9.10839 14.3846V6.38461H9.07206L9.03574 6.38494L9.10839 14.3846ZM8.13547 14.8863L14.571 19.6385L14.5909 19.6116L14.6105 19.5845L8.13547 14.8863ZM7.9047 16.1892L15.5902 13.9681L15.5856 13.9523L15.581 13.9365L7.9047 16.1892ZM8.17147 17.1123L15.9323 15.1707L15.8971 15.0303L15.857 14.8912L8.17147 17.1123ZM9.37516 18.0769L9.17103 26.0743L9.27308 26.0769H9.37516V18.0769ZM14.6247 18.0769V26.0769H14.7312L14.8376 26.0741L14.6247 18.0769ZM15.827 17.1123L8.14152 14.8912L8.1013 15.0304L8.06614 15.1709L15.827 17.1123ZM16.0938 16.1892L8.41751 13.9365L8.41286 13.9523L8.40829 13.9681L16.0938 16.1892ZM15.863 14.8863L9.38786 19.5844L9.40753 19.6116L9.42743 19.6385L15.863 14.8863ZM14.9404 16.8557L7.25491 14.6346L7.14968 14.9987L7.07934 15.3711L14.9404 16.8557ZM14.6247 17.1534V25.1534H15.1373L15.6457 25.088L14.6247 17.1534ZM9.37516 17.1534L8.35218 25.0877L8.86156 25.1534H9.37516V17.1534ZM9.05947 16.8552L16.9224 15.3809L16.8516 15.0033L16.745 14.6341L9.05947 16.8552ZM8.7927 15.9322L16.4782 13.711L16.4684 13.6772L16.4583 13.6435L8.7927 15.9322ZM8.87347 15.4406L15.4037 20.0619L15.4669 19.9726L15.5277 19.8815L8.87347 15.4406ZM9.10839 15.3077V7.30769H8.91831L8.72845 7.31672L9.10839 15.3077ZM14.8915 15.3077L15.2799 7.31712L15.0858 7.30769H14.8915V15.3077ZM15.1264 15.4411L8.4637 19.8692L8.52853 19.9668L8.59619 20.0624L15.1264 15.4411ZM14.8915 6.38461H9.10839V22.3846H14.8915V6.38461ZM9.03574 6.38494C7.59463 6.39803 6.17668 6.74892 4.89579 7.40942L12.2287 21.6301C11.2858 22.1163 10.2419 22.3746 9.18104 22.3843L9.03574 6.38494ZM4.89579 7.40942C3.61486 8.06993 2.50674 9.02164 1.66039 10.1881L14.6105 19.5845C13.9875 20.4432 13.1717 21.1438 12.2287 21.6301L4.89579 7.40942ZM1.69989 10.1341C0.830436 11.3116 0.245165 12.6742 -0.0101094 14.1155L15.7447 16.9059C15.5695 17.8951 15.1678 18.8304 14.571 19.6385L1.69989 10.1341ZM-0.0101094 14.1155C-0.265384 15.5568 -0.183734 17.0375 0.228431 18.442L15.581 13.9365C15.8638 14.9004 15.9199 15.9167 15.7447 16.9059L-0.0101094 14.1155ZM0.219211 18.4103L0.48598 19.3334L15.857 14.8912L15.5902 13.9681L0.219211 18.4103ZM0.41066 19.0539C0.902744 21.0208 2.02582 22.7723 3.60797 24.0402L13.6136 11.5547C14.761 12.4742 15.5754 13.7443 15.9323 15.1707L0.41066 19.0539ZM3.60797 24.0402C5.19011 25.3081 7.14417 26.0226 9.17103 26.0743L9.57928 10.0795C11.0492 10.117 12.4662 10.6352 13.6136 11.5547L3.60797 24.0402ZM9.37516 26.0769H14.6247V10.0769H9.37516V26.0769ZM14.8376 26.0741C16.8627 26.0202 18.8144 25.3047 20.3946 24.0369L10.3819 11.5571C11.5278 10.6377 12.9432 10.1188 14.4118 10.0798L14.8376 26.0741ZM20.3946 24.0369C21.9747 22.7692 23.0963 21.0189 23.5879 19.0537L8.06614 15.1709C8.42265 13.7457 9.23601 12.4765 10.3819 11.5571L20.3946 24.0369ZM23.5125 19.3334L23.7793 18.4103L8.40829 13.9681L8.14152 14.8912L23.5125 19.3334ZM23.77 18.442C24.1822 17.0375 24.2638 15.5567 24.0086 14.1155L8.25379 16.9059C8.07859 15.9167 8.13462 14.9004 8.41751 13.9365L23.77 18.442ZM24.0086 14.1155C23.7533 12.6742 23.168 11.3116 22.2986 10.1341L9.42743 19.6385C8.83068 18.8304 8.42899 17.8951 8.25379 16.9059L24.0086 14.1155ZM22.3381 10.1882C21.4929 9.02315 20.3864 8.0723 19.1074 7.41186L11.7662 21.6283C10.8247 21.1421 10.0101 20.4421 9.38786 19.5844L22.3381 10.1882ZM19.1074 7.41186C17.8285 6.75142 16.4126 6.39975 14.9733 6.38503L14.8096 22.3842C13.7501 22.3734 12.7077 22.1145 11.7662 21.6283L19.1074 7.41186ZM7.52168 13.7115L7.25491 14.6346L22.6259 19.0768L22.8926 18.1537L7.52168 13.7115ZM7.07934 15.3711C7.37826 13.7883 8.17042 12.3406 9.3424 11.2355L20.3194 22.8762C21.6048 21.664 22.4736 20.0763 22.8014 18.3403L7.07934 15.3711ZM9.3424 11.2355C10.5143 10.1303 12.006 9.4244 13.6037 9.21881L15.6457 25.088C17.398 24.8625 19.034 24.0882 20.3194 22.8762L9.3424 11.2355ZM14.6247 9.15338H9.37516V25.1534H14.6247V9.15338ZM10.3981 9.21906C11.9971 9.42522 13.4897 10.1325 14.6618 11.2395L3.67586 22.8717C4.96138 24.0858 6.59843 24.8616 8.35218 25.0877L10.3981 9.21906ZM14.6618 11.2395C15.8339 12.3465 16.6253 13.7963 16.9224 15.3809L1.19649 18.3296C1.52237 20.0675 2.39035 21.6576 3.67586 22.8717L14.6618 11.2395ZM16.745 14.6341L16.4782 13.711L1.10721 18.1533L1.37398 19.0763L16.745 14.6341ZM16.4583 13.6435C16.7807 14.7233 16.8533 15.8622 16.6706 16.9742L0.882307 14.3799C0.671601 15.6622 0.755297 16.9756 1.12706 18.2208L16.4583 13.6435ZM16.6706 16.9742C16.4879 18.0862 16.0546 19.142 15.4037 20.0619L2.34327 10.8193C1.59258 11.8801 1.09301 13.0977 0.882307 14.3799L16.6706 16.9742ZM15.5277 19.8815C14.8586 20.884 13.9637 21.7154 12.9147 22.3089L5.03549 8.38347C3.90495 9.02315 2.94033 9.91927 2.21926 10.9997L15.5277 19.8815ZM12.9147 22.3089C11.8657 22.9025 10.6921 23.2414 9.48833 23.2987L8.72845 7.31672C7.43103 7.3784 6.16611 7.74375 5.03549 8.38347L12.9147 22.3089ZM9.10839 23.3077H14.8915V7.30769H9.10839V23.3077ZM14.503 23.2983C13.2982 23.2397 12.1239 22.8989 11.0749 22.3032L18.9748 8.38954C17.8441 7.74756 16.5785 7.38025 15.2799 7.31712L14.503 23.2983ZM11.0749 22.3032C10.0257 21.7076 9.13136 20.8738 8.4637 19.8692L21.7891 11.0129C21.0695 9.93018 20.1055 9.03154 18.9748 8.38954L11.0749 22.3032ZM8.59619 20.0624C7.94529 19.1426 7.51202 18.0868 7.32928 16.9747L23.1175 14.3804C22.9068 13.098 22.4072 11.8804 21.6566 10.8198L8.59619 20.0624ZM7.32928 16.9747C7.14656 15.8627 7.21914 14.7237 7.54152 13.6439L22.8728 18.2213C23.2446 16.9761 23.3283 15.6627 23.1175 14.3804L7.32928 16.9747Z" fill="#171717" mask="url(#path-1-inside-1_1172_12741)"/>
<mask id="path-3-inside-2_1172_12741" fill="white">
<path d="M3.2308 13H20.7693C20.8481 13 20.9257 12.9799 20.9945 12.9414C21.0634 12.903 21.1212 12.8475 21.1625 12.7804C21.2039 12.7132 21.2273 12.6366 21.2306 12.5578C21.2339 12.479 21.217 12.4007 21.1814 12.3303L18.666 7.3503C18.5561 7.10825 18.3787 6.90298 18.1552 6.75901C17.9317 6.61505 17.6714 6.53848 17.4056 6.53846H6.59449C6.33174 6.53783 6.07428 6.61231 5.85244 6.75312C5.6306 6.89393 5.45362 7.0952 5.34234 7.33323L2.81865 12.3303C2.78308 12.4007 2.76614 12.479 2.76945 12.5578C2.77275 12.6366 2.79619 12.7132 2.83752 12.7804C2.87885 12.8475 2.9367 12.903 3.00555 12.9414C3.07439 12.9799 3.15194 13 3.2308 13ZM6.17449 7.73199C6.21117 7.65136 6.27027 7.58299 6.34474 7.53503C6.41921 7.48707 6.50591 7.46156 6.59449 7.46153H17.4056C17.4972 7.46257 17.5865 7.49034 17.6626 7.54141C17.7387 7.59249 17.7982 7.66466 17.8339 7.74907L20.0193 12.0769H3.9808L6.17449 7.73199Z"/>
</mask>
<path d="M3.2308 13H20.7693C20.8481 13 20.9257 12.9799 20.9945 12.9414C21.0634 12.903 21.1212 12.8475 21.1625 12.7804C21.2039 12.7132 21.2273 12.6366 21.2306 12.5578C21.2339 12.479 21.217 12.4007 21.1814 12.3303L18.666 7.3503C18.5561 7.10825 18.3787 6.90298 18.1552 6.75901C17.9317 6.61505 17.6714 6.53848 17.4056 6.53846H6.59449C6.33174 6.53783 6.07428 6.61231 5.85244 6.75312C5.6306 6.89393 5.45362 7.0952 5.34234 7.33323L2.81865 12.3303C2.78308 12.4007 2.76614 12.479 2.76945 12.5578C2.77275 12.6366 2.79619 12.7132 2.83752 12.7804C2.87885 12.8475 2.9367 12.903 3.00555 12.9414C3.07439 12.9799 3.15194 13 3.2308 13ZM6.17449 7.73199C6.21117 7.65136 6.27027 7.58299 6.34474 7.53503C6.41921 7.48707 6.50591 7.46156 6.59449 7.46153H17.4056C17.4972 7.46257 17.5865 7.49034 17.6626 7.54141C17.7387 7.59249 17.7982 7.66466 17.8339 7.74907L20.0193 12.0769H3.9808L6.17449 7.73199Z" fill="#171717"/>
<path d="M20.7693 13L20.7731 4.99999H20.7693V13ZM21.1814 12.3303L14.0406 15.9371L14.0412 15.9383L21.1814 12.3303ZM18.666 7.3503L11.3826 10.6596L11.4509 10.8098L11.5252 10.9571L18.666 7.3503ZM17.4056 6.53846L17.4063 -1.46154H17.4056V6.53846ZM6.59449 6.53846L6.57551 14.5384L6.585 14.5385H6.59449V6.53846ZM5.34234 7.33323L12.4833 10.9397L12.5381 10.8312L12.5895 10.7212L5.34234 7.33323ZM2.81865 12.3303L9.95884 15.9383L9.95963 15.9367L2.81865 12.3303ZM6.17449 7.73199L13.3159 11.3376L13.3893 11.1922L13.4567 11.044L6.17449 7.73199ZM6.59449 7.46153V-0.538467L6.59228 -0.538467L6.59449 7.46153ZM17.4056 7.46153L17.4965 -0.53795L17.4511 -0.538467H17.4056V7.46153ZM17.8339 7.74907L10.4645 10.8623L10.5702 11.1126L10.6927 11.3551L17.8339 7.74907ZM20.0193 12.0769V20.0769H33.021L27.1605 8.47091L20.0193 12.0769ZM3.9808 12.0769L-3.1606 8.47132L-9.02011 20.0769H3.9808V12.0769ZM3.2308 21H20.7693V4.99999H3.2308V21ZM20.7655 21C22.2111 21.0007 23.6329 20.631 24.8951 19.9261L17.0939 5.95678C18.2184 5.32877 19.4851 4.99938 20.7731 5L20.7655 21ZM24.8951 19.9261C26.1573 19.2212 27.2179 18.2047 27.9757 16.9734L14.3494 8.58732C15.0246 7.49036 15.9694 6.58474 17.0939 5.95678L24.8951 19.9261ZM27.9757 16.9734C28.7334 15.7422 29.163 14.3374 29.2236 12.8929L13.2376 12.2227C13.2916 10.9358 13.6744 9.68423 14.3494 8.58732L27.9757 16.9734ZM29.2236 12.8929C29.2842 11.4485 28.9736 10.0126 28.3216 8.7223L14.0412 15.9383C13.4603 14.7887 13.1837 13.5095 13.2376 12.2227L29.2236 12.8929ZM28.3222 8.7235L25.8068 3.7435L11.5252 10.9571L14.0406 15.9371L28.3222 8.7235ZM25.9495 4.04097C25.204 2.40039 24.002 1.00911 22.4871 0.03335L13.8233 13.4847C12.7554 12.7969 11.9081 11.8161 11.3826 10.6596L25.9495 4.04097ZM22.4871 0.03335C20.9722 -0.9424 19.2083 -1.46137 17.4063 -1.46154L17.4048 14.5385C16.1345 14.5383 14.8912 14.1725 13.8233 13.4847L22.4871 0.03335ZM17.4056 -1.46154H6.59449V14.5385H17.4056V-1.46154ZM6.61347 -1.46152C4.82598 -1.46576 3.0745 -0.959093 1.56533 -0.00119209L10.1395 13.5074C9.07406 14.1837 7.8375 14.5414 6.57551 14.5384L6.61347 -1.46152ZM1.56533 -0.00119209C0.0561583 0.956712 -1.14783 2.32595 -1.90483 3.94523L12.5895 10.7212C12.0551 11.8644 11.205 12.8311 10.1395 13.5074L1.56533 -0.00119209ZM-1.79864 3.72679L-4.32233 8.72387L9.95963 15.9367L12.4833 10.9397L-1.79864 3.72679ZM-4.32154 8.7223C-4.97355 10.0126 -5.28409 11.4485 -5.22353 12.8929L10.7624 12.2227C10.8164 13.5095 10.5397 14.7887 9.95884 15.9383L-4.32154 8.7223ZM-5.22353 12.8929C-5.16297 14.3374 -4.73333 15.7422 -3.97559 16.9734L9.65062 8.58732C10.3257 9.68423 10.7085 10.9358 10.7624 12.2227L-5.22353 12.8929ZM-3.97559 16.9734C-3.21785 18.2046 -2.15729 19.2212 -0.895077 19.9261L6.90617 5.95678C8.03069 6.58478 8.97555 7.49042 9.65062 8.58732L-3.97559 16.9734ZM-0.895077 19.9261C0.367183 20.631 1.78896 21.0007 3.23461 21L3.22699 5C4.51493 4.99938 5.7816 5.32876 6.90617 5.95678L-0.895077 19.9261ZM13.4567 11.044C12.8577 12.361 11.8924 13.4778 10.676 14.2611L2.01345 0.808966C0.648105 1.68819 -0.435401 2.94174 -1.10772 4.42L13.4567 11.044ZM10.676 14.2611C9.45964 15.0444 8.04352 15.4611 6.59671 15.4615L6.59228 -0.538467C4.96831 -0.538017 3.37879 -0.0702519 2.01345 0.808966L10.676 14.2611ZM6.59449 15.4615H17.4056V-0.538467H6.59449V15.4615ZM17.3146 15.461C15.8491 15.4444 14.4204 15.0003 13.2036 14.1835L22.1217 0.89936C20.7527 -0.0196648 19.1453 -0.519202 17.4965 -0.53795L17.3146 15.461ZM13.2036 14.1835C11.9868 13.3666 11.0348 12.2123 10.4645 10.8623L25.2033 4.63586C24.5616 3.11699 23.4906 1.8184 22.1217 0.89936L13.2036 14.1835ZM10.6927 11.3551L12.8781 15.6829L27.1605 8.47091L24.9751 4.14306L10.6927 11.3551ZM20.0193 4.07692H3.9808V20.0769H20.0193V4.07692ZM11.1222 15.6825L13.3159 11.3376L-0.966911 4.1264L-3.1606 8.47132L11.1222 15.6825Z" fill="#171717" mask="url(#path-3-inside-2_1172_12741)"/>
<mask id="path-5-inside-3_1172_12741" fill="white">
<path d="M4.84608 14.3846H3.23069C2.98588 14.3846 2.75109 14.4819 2.57798 14.655C2.40487 14.8281 2.30762 15.0629 2.30762 15.3077V16.4615C2.30762 16.7064 2.40487 16.9411 2.57798 17.1143C2.75109 17.2874 2.98588 17.3846 3.23069 17.3846H6.923C7.04541 17.3846 7.1628 17.336 7.24936 17.2494C7.33591 17.1629 7.38454 17.0455 7.38454 16.9231C7.38381 16.2501 7.11613 15.6048 6.64023 15.1289C6.16434 14.653 5.5191 14.3853 4.84608 14.3846ZM3.23069 16.4615V15.3077H4.84608C5.19385 15.3081 5.53225 15.4205 5.81109 15.6284C6.08992 15.8362 6.29436 16.1284 6.39408 16.4615H3.23069Z"/>
</mask>
<path d="M4.84608 14.3846H3.23069C2.98588 14.3846 2.75109 14.4819 2.57798 14.655C2.40487 14.8281 2.30762 15.0629 2.30762 15.3077V16.4615C2.30762 16.7064 2.40487 16.9411 2.57798 17.1143C2.75109 17.2874 2.98588 17.3846 3.23069 17.3846H6.923C7.04541 17.3846 7.1628 17.336 7.24936 17.2494C7.33591 17.1629 7.38454 17.0455 7.38454 16.9231C7.38381 16.2501 7.11613 15.6048 6.64023 15.1289C6.16434 14.653 5.5191 14.3853 4.84608 14.3846ZM3.23069 16.4615V15.3077H4.84608C5.19385 15.3081 5.53225 15.4205 5.81109 15.6284C6.08992 15.8362 6.29436 16.1284 6.39408 16.4615H3.23069Z" fill="#171717"/>
<path d="M7.38454 16.9231H15.3845L15.3845 16.9144L7.38454 16.9231ZM3.23069 16.4615H-4.76931V24.4615H3.23069V16.4615ZM3.23069 15.3077V7.30769H-4.76931V15.3077H3.23069ZM4.84608 15.3077L4.85481 7.30769H4.84608V15.3077ZM6.39408 16.4615V24.4615H17.1391L14.0582 14.1677L6.39408 16.4615ZM4.84608 6.38461H3.23069V22.3846H4.84608V6.38461ZM3.23069 6.38461C0.864161 6.38461 -1.40546 7.32471 -3.07887 8.99812L8.23483 20.3118C6.90764 21.639 5.1076 22.3846 3.23069 22.3846V6.38461ZM-3.07887 8.99812C-4.75228 10.6715 -5.69238 12.9411 -5.69238 15.3077H10.3076C10.3076 17.1846 9.56202 18.9846 8.23483 20.3118L-3.07887 8.99812ZM-5.69238 15.3077V16.4615H10.3076V15.3077H-5.69238ZM-5.69238 16.4615C-5.69238 18.8281 -4.75228 21.0977 -3.07887 22.7711L8.23483 11.4574C9.56202 12.7846 10.3076 14.5846 10.3076 16.4615H-5.69238ZM-3.07887 22.7711C-1.40546 24.4445 0.864161 25.3846 3.23069 25.3846V9.38461C5.1076 9.38461 6.90764 10.1302 8.23483 11.4574L-3.07887 22.7711ZM3.23069 25.3846H6.923V9.38461H3.23069V25.3846ZM6.923 25.3846C9.16712 25.3846 11.3194 24.4931 12.9062 22.9063L1.5925 11.5926C3.00626 10.1788 4.9237 9.38461 6.923 9.38461V25.3846ZM12.9062 22.9063C14.4931 21.3194 15.3845 19.1672 15.3845 16.9231H-0.61546C-0.61546 14.9238 0.178753 13.0063 1.5925 11.5926L12.9062 22.9063ZM15.3845 16.9144C15.3815 14.1226 14.2711 11.4461 12.2971 9.47207L0.983378 20.7858C-0.0388823 19.7635 -0.613881 18.3775 -0.615455 16.9318L15.3845 16.9144ZM12.2971 9.47207C10.323 7.49802 7.64652 6.38766 4.85479 6.38462L4.83737 22.3846C3.39167 22.383 2.00564 21.808 0.983378 20.7858L12.2971 9.47207ZM11.2307 16.4615V15.3077H-4.76931V16.4615H11.2307ZM3.23069 23.3077H4.84608V7.30769H3.23069V23.3077ZM4.83734 23.3077C3.46527 23.3062 2.13019 22.8626 1.03008 22.0426L10.5921 9.21416C8.93431 7.97847 6.92244 7.30995 4.85481 7.30769L4.83734 23.3077ZM1.03008 22.0426C-0.0700274 21.2226 -0.876585 20.0699 -1.27001 18.7554L14.0582 14.1677C13.4653 12.1869 12.2499 10.4498 10.5921 9.21416L1.03008 22.0426ZM6.39408 8.46154H3.23069V24.4615H6.39408V8.46154Z" fill="#171717" mask="url(#path-5-inside-3_1172_12741)"/>
<mask id="path-7-inside-4_1172_12741" fill="white">
<path d="M21.6924 16.4615V15.3077C21.6924 15.0629 21.5951 14.8281 21.422 14.655C21.2489 14.4819 21.0141 14.3846 20.7693 14.3846H19.1539C18.4809 14.3853 17.8357 14.653 17.3598 15.1289C16.8839 15.6048 16.6162 16.2501 16.6155 16.9231C16.6155 17.0455 16.6641 17.1629 16.7507 17.2494C16.8372 17.336 16.9546 17.3846 17.077 17.3846H20.7693C21.0141 17.3846 21.2489 17.2874 21.422 17.1143C21.5951 16.9411 21.6924 16.7064 21.6924 16.4615ZM19.1539 15.3077H20.7693V16.4615H17.6059C17.7057 16.1284 17.9101 15.8362 18.1889 15.6284C18.4678 15.4205 18.8062 15.3081 19.1539 15.3077Z"/>
</mask>
<path d="M21.6924 16.4615V15.3077C21.6924 15.0629 21.5951 14.8281 21.422 14.655C21.2489 14.4819 21.0141 14.3846 20.7693 14.3846H19.1539C18.4809 14.3853 17.8357 14.653 17.3598 15.1289C16.8839 15.6048 16.6162 16.2501 16.6155 16.9231C16.6155 17.0455 16.6641 17.1629 16.7507 17.2494C16.8372 17.336 16.9546 17.3846 17.077 17.3846H20.7693C21.0141 17.3846 21.2489 17.2874 21.422 17.1143C21.5951 16.9411 21.6924 16.7064 21.6924 16.4615ZM19.1539 15.3077H20.7693V16.4615H17.6059C17.7057 16.1284 17.9101 15.8362 18.1889 15.6284C18.4678 15.4205 18.8062 15.3081 19.1539 15.3077Z" fill="#171717"/>
<path d="M19.1539 14.3846V6.38461L19.1452 6.38462L19.1539 14.3846ZM16.6155 16.9231L8.61548 16.9144V16.9231H16.6155ZM20.7693 15.3077H28.7693V7.30769H20.7693V15.3077ZM20.7693 16.4615V24.4615H28.7693V16.4615H20.7693ZM17.6059 16.4615L9.94185 14.1677L6.8609 24.4615H17.6059V16.4615ZM29.6924 16.4615V15.3077H13.6924V16.4615H29.6924ZM29.6924 15.3077C29.6924 12.9412 28.7523 10.6715 27.0789 8.99812L15.7652 20.3118C14.438 18.9846 13.6924 17.1846 13.6924 15.3077H29.6924ZM27.0789 8.99812C25.4055 7.3247 23.1358 6.38461 20.7693 6.38461V22.3846C18.8924 22.3846 17.0924 21.639 15.7652 20.3118L27.0789 8.99812ZM20.7693 6.38461H19.1539V22.3846H20.7693V6.38461ZM19.1452 6.38462C16.3535 6.38766 13.677 7.49802 11.7029 9.47207L23.0166 20.7858C21.9944 21.808 20.6083 22.383 19.1627 22.3846L19.1452 6.38462ZM11.7029 9.47207C9.72888 11.4461 8.61852 14.1226 8.61548 16.9144L24.6155 16.9318C24.6139 18.3775 24.0389 19.7635 23.0166 20.7858L11.7029 9.47207ZM8.61548 16.9231C8.61548 19.1672 9.50694 21.3194 11.0938 22.9063L22.4075 11.5926C23.8213 13.0063 24.6155 14.9238 24.6155 16.9231H8.61548ZM11.0938 22.9063C12.6807 24.4931 14.8329 25.3846 17.077 25.3846V9.38461C19.0763 9.38461 20.9938 10.1788 22.4075 11.5926L11.0938 22.9063ZM17.077 25.3846H20.7693V9.38461H17.077V25.3846ZM20.7693 25.3846C23.1358 25.3846 25.4055 24.4445 27.0789 22.7711L15.7652 11.4574C17.0924 10.1302 18.8924 9.38461 20.7693 9.38461V25.3846ZM27.0789 22.7711C28.7523 21.0977 29.6924 18.8281 29.6924 16.4615H13.6924C13.6924 14.5846 14.438 12.7846 15.7652 11.4574L27.0789 22.7711ZM19.1539 23.3077H20.7693V7.30769H19.1539V23.3077ZM12.7693 15.3077V16.4615H28.7693V15.3077H12.7693ZM20.7693 8.46154H17.6059V24.4615H20.7693V8.46154ZM25.27 18.7554C24.8766 20.0699 24.07 21.2226 22.9699 22.0426L13.4079 9.21416C11.7501 10.4498 10.5347 12.1869 9.94185 14.1677L25.27 18.7554ZM22.9699 22.0426C21.8698 22.8626 20.5348 23.3062 19.1627 23.3077L19.1452 7.30769C17.0776 7.30995 15.0657 7.97847 13.4079 9.21416L22.9699 22.0426Z" fill="#171717" mask="url(#path-7-inside-4_1172_12741)"/>
<path d="M22.0385 8.84615H21.0355L20.0169 6.59246C19.7604 6.02652 19.3463 5.5464 18.8243 5.20945C18.3022 4.8725 17.6941 4.69297 17.0728 4.69231H16.9662L16.0343 1.33785C16.0073 1.24072 15.9492 1.15511 15.869 1.0941C15.7887 1.03309 15.6907 1.00004 15.5898 1H8.41015C8.30934 1.00004 8.21131 1.03309 8.13105 1.0941C8.05079 1.15511 7.99271 1.24072 7.96569 1.33785L7.03385 4.69231H6.92723C6.30586 4.69297 5.69782 4.8725 5.17574 5.20945C4.65366 5.5464 4.23962 6.02652 3.98308 6.59246L2.96446 8.84615H1.96154C0.513692 8.84615 0 9.65431 0 10.3462C0.000488545 10.7438 0.158681 11.1251 0.439879 11.4063C0.721078 11.6875 1.10233 11.8457 1.5 11.8462H1.60846L1.29462 12.5385C1.04876 13.0803 0.922065 13.6687 0.923077 14.2637V18.0769C0.924639 18.5728 1.08744 19.0547 1.38692 19.45C1.38692 19.4542 1.38462 19.4574 1.38462 19.4615V20.8462C1.38462 21.2134 1.53049 21.5656 1.79016 21.8252C2.04983 22.0849 2.40201 22.2308 2.76923 22.2308H4.61538C4.98261 22.2308 5.33479 22.0849 5.59446 21.8252C5.85412 21.5656 6 21.2134 6 20.8462V20.3846H18V20.8462C18 21.2134 18.1459 21.5656 18.4055 21.8252C18.6652 22.0849 19.0174 22.2308 19.3846 22.2308H21.2308C21.598 22.2308 21.9502 22.0849 22.2098 21.8252C22.4695 21.5656 22.6154 21.2134 22.6154 20.8462V19.4615C22.6154 19.4574 22.6131 19.4542 22.6131 19.45C22.9126 19.0547 23.0754 18.5728 23.0769 18.0769V14.2637C23.0787 13.6688 22.9528 13.0805 22.7077 12.5385L22.3938 11.8462H22.5023C22.8996 11.8451 23.2802 11.6866 23.5609 11.4055C23.8416 11.1243 23.9995 10.7434 24 10.3462C24 9.65431 23.4863 8.84615 22.0385 8.84615ZM0.923077 10.3462C0.923077 9.82554 1.64954 9.76923 1.96154 9.76923H2.52046L2.00769 10.9231H1.5C1.34707 10.9228 1.20046 10.862 1.09232 10.7538C0.984182 10.6457 0.923321 10.4991 0.923077 10.3462ZM8.76092 1.92308H15.2391L16.0085 4.69231H7.99154L8.76092 1.92308ZM5.07692 20.8462C5.07692 20.9686 5.0283 21.086 4.94174 21.1725C4.85519 21.2591 4.73779 21.3077 4.61538 21.3077H2.76923C2.64682 21.3077 2.52943 21.2591 2.44287 21.1725C2.35632 21.086 2.30769 20.9686 2.30769 20.8462V20.1889C2.59841 20.3177 2.91281 20.3843 3.23077 20.3846H5.07692V20.8462ZM3.23077 19.4615C2.86355 19.4615 2.51136 19.3157 2.2517 19.056C1.99203 18.7963 1.84615 18.4441 1.84615 18.0769V14.2637C1.84549 13.8006 1.94417 13.3428 2.13554 12.9211L4.82446 6.97231C5.00771 6.56814 5.30344 6.22526 5.67632 5.98465C6.04919 5.74403 6.48346 5.61584 6.92723 5.61539H17.0728C17.5166 5.61582 17.9509 5.74405 18.3238 5.98477C18.6967 6.22548 18.9924 6.56848 19.1755 6.97277L21.8645 12.9211C22.0558 13.3428 22.1545 13.8006 22.1538 14.2637V18.0769C22.1538 18.4441 22.008 18.7963 21.7483 19.056C21.4886 19.3157 21.1365 19.4615 20.7692 19.4615H3.23077ZM21.2308 21.3077H19.3846C19.2622 21.3077 19.1448 21.2591 19.0583 21.1725C18.9717 21.086 18.9231 20.9686 18.9231 20.8462V20.3846H20.7692C21.0872 20.3843 21.4016 20.3177 21.6923 20.1889V20.8462C21.6923 20.9686 21.6437 21.086 21.5571 21.1725C21.4706 21.2591 21.3532 21.3077 21.2308 21.3077ZM22.5 10.9231H21.9923L21.4795 9.76923H22.0385C22.3505 9.76923 23.0769 9.82554 23.0769 10.3462C23.0767 10.4991 23.0158 10.6457 22.9077 10.7538C22.7995 10.862 22.6529 10.9228 22.5 10.9231Z" fill="#171717"/>
<path d="M9.69238 3.30768H10.6155V4.23076H9.69238V3.30768Z" fill="#171717"/>
<path d="M10.6155 2.38461H11.5386V3.30769H10.6155V2.38461Z" fill="#171717"/>
<path d="M11.5386 3.30768H12.4617V4.23076H11.5386V3.30768Z" fill="#171717"/>
<path d="M12.4614 2.38461H13.3845V3.30769H12.4614V2.38461Z" fill="#171717"/>
<path d="M13.3845 3.30768H14.3076V4.23076H13.3845V3.30768Z" fill="#171717"/>
</svg>
