<svg width="16" height="16" viewBox="0 0 16 16" fill="none" xmlns="http://www.w3.org/2000/svg">
<g clip-path="url(#clip0_1711_3352)">
<path d="M13.1756 2.78994C12.4205 2.03857 11.5099 1.46174 10.5079 1.10002C9.50595 0.738297 8.43691 0.600461 7.37596 0.696205C7.14565 0.696205 6.91533 0.745059 6.67805 0.786933C5.2142 1.05608 3.86658 1.76336 2.81352 2.81518C1.76045 3.867 1.05158 5.21378 0.780698 6.6773C0.738824 6.90761 0.710907 7.1449 0.68997 7.37521C0.609064 8.38425 0.737892 9.39912 1.06835 10.3559C1.3988 11.3128 1.92373 12.1908 2.61009 12.9349C3.29646 13.6789 4.1294 14.2729 5.05651 14.6793C5.98362 15.0857 6.98482 15.2959 7.9971 15.2965C8.20401 15.3069 8.41132 15.3069 8.61824 15.2965C8.84855 15.2965 9.07886 15.2476 9.31615 15.2058C9.81062 15.1154 10.2946 14.9751 10.7608 14.787C11.9013 14.32 12.9065 13.5745 13.6843 12.6186C14.4622 11.6627 14.988 10.527 15.2135 9.3154C15.2554 9.08509 15.2833 8.8478 15.3042 8.61749C15.3997 7.54938 15.2584 6.47336 14.8905 5.46608C14.5225 4.45881 13.937 3.54506 13.1756 2.78994ZM3.30714 12.6584C2.62063 11.9736 2.09146 11.1475 1.75641 10.2376C1.42136 9.32764 1.28846 8.35565 1.36694 7.38917C3.21592 7.57286 4.94326 8.39457 6.25232 9.71321C7.56716 11.0226 8.38201 12.7511 8.55543 14.5986C7.59236 14.674 6.62439 14.5395 5.71831 14.2046C4.81223 13.8696 3.98959 13.3421 3.30714 12.6584ZM12.6871 12.6584C11.7514 13.5891 10.5617 14.2228 9.26729 14.4799C9.0728 12.4829 8.18655 10.6166 6.76179 9.20374C5.34588 7.78332 3.48122 6.89786 1.48559 6.69824C1.74271 5.40379 2.3764 4.21412 3.30714 3.27848C4.24 2.34398 5.43089 1.70965 6.7269 1.45693C6.92139 3.45398 7.80764 5.32029 9.2324 6.73313C10.649 8.15259 12.5133 9.03789 14.5086 9.23863C14.2515 10.5331 13.6178 11.7228 12.6871 12.6584ZM9.74187 6.22366C8.42703 4.91425 7.61219 3.18579 7.43877 1.33828H8.01803C8.93888 1.33652 9.84997 1.5268 10.6931 1.89697C11.5363 2.26714 12.293 2.80906 12.915 3.48814C13.5369 4.16722 14.0104 4.96853 14.3052 5.8409C14.6001 6.71327 14.7097 7.63754 14.6272 8.55468C12.7785 8.36514 11.0523 7.5415 9.74187 6.22366Z" fill="#171717"/>
</g>
<defs>
<clipPath id="clip0_1711_3352">
<rect width="16" height="16" fill="white"/>
</clipPath>
</defs>
</svg>
