<svg width="512" height="512" viewBox="0 0 512 512" fill="none" xmlns="http://www.w3.org/2000/svg">
<path d="M336.055 40C330.535 40 326.055 44.48 326.055 50C326.055 55.52 330.535 60 336.055 60C341.575 60 346.055 55.52 346.055 50C346.055 44.48 341.575 40 336.055 40Z" fill="#171717"/>
<path d="M176.055 40C170.535 40 166.055 44.48 166.055 50C166.055 55.52 170.535 60 176.055 60C181.575 60 186.055 55.52 186.055 50C186.055 44.48 181.575 40 176.055 40Z" fill="#171717"/>
<path d="M464.038 495.085L397.866 425.954C424.599 424.996 446.055 402.963 446.055 376V79.27C446.055 63.113 440.408 47.335 430.152 34.842C419.889 22.352 405.511 13.745 389.672 10.612C354.18 3.57 317.842 0 281.666 0H228.836C194.429 0 158.59 3.296 122.324 10.544C89.7192 17.067 66.0552 45.938 66.0552 79.19V376C66.0552 403.19 87.8752 425.365 114.922 425.971L48.0032 495.042C45.2082 497.926 44.4102 502.202 45.9772 505.899C47.5422 509.597 51.1692 512 55.1852 512H126.685C129.891 512 132.902 510.463 134.783 507.867L165.117 466H347.883L378.217 507.868C380.098 510.463 383.11 512 386.315 512H456.815C460.82 512 464.438 509.61 466.011 505.928C467.584 502.244 466.808 497.979 464.038 495.085ZM86.0552 376V79.19C86.0552 55.437 102.958 34.815 126.245 30.155C158.888 23.631 193.381 20 228.835 20H281.665C316.538 20 351.566 23.441 385.783 30.229C397.097 32.468 407.367 38.616 414.695 47.535C422.02 56.458 426.054 67.728 426.054 79.269V376C426.054 392.542 412.596 406 396.054 406H116.054C99.5132 406 86.0552 392.542 86.0552 376ZM121.582 492H78.7972L142.74 426H169.402L121.582 492ZM179.608 446L194.099 426H318.902L333.392 446H179.608ZM391.418 492L343.6 426H370.225L433.4 492H391.418Z" fill="#171717"/>
<path d="M396.055 80H116.055C110.533 80 106.055 84.478 106.055 90V256C106.055 261.522 110.533 266 116.055 266H396.055C401.577 266 406.055 261.522 406.055 256V90C406.055 84.478 401.577 80 396.055 80ZM246.055 246H126.055V100H246.055V246ZM386.055 246H266.055V100H386.055V246Z" fill="#171717"/>
<path d="M296.055 40H216.055C210.533 40 206.055 44.478 206.055 50C206.055 55.522 210.533 60 216.055 60H296.055C301.577 60 306.055 55.522 306.055 50C306.055 44.478 301.577 40 296.055 40Z" fill="#171717"/>
<path d="M366.055 296C343.999 296 326.055 313.944 326.055 336C326.055 358.056 343.999 376 366.055 376C388.111 376 406.055 358.056 406.055 336C406.055 313.944 388.111 296 366.055 296ZM366.055 356C355.027 356 346.055 347.028 346.055 336C346.055 324.972 355.027 316 366.055 316C377.083 316 386.055 324.972 386.055 336C386.055 347.028 377.083 356 366.055 356Z" fill="#171717"/>
<path d="M146.055 296C123.999 296 106.055 313.944 106.055 336C106.055 358.056 124 376 146.055 376C168.111 376 186.055 358.056 186.055 336C186.055 313.944 168.111 296 146.055 296ZM146.055 356C135.027 356 126.055 347.028 126.055 336C126.055 324.972 135.027 316 146.055 316C157.083 316 166.055 324.972 166.055 336C166.055 347.028 157.083 356 146.055 356Z" fill="#171717"/>
<path d="M296.055 306H216.055C210.533 306 206.055 310.478 206.055 316C206.055 321.522 210.533 326 216.055 326H296.055C301.577 326 306.055 321.522 306.055 316C306.055 310.478 301.578 306 296.055 306Z" fill="#171717"/>
<path d="M296.055 346H216.055C210.533 346 206.055 350.478 206.055 356C206.055 361.522 210.533 366 216.055 366H296.055C301.577 366 306.055 361.522 306.055 356C306.055 350.478 301.578 346 296.055 346Z" fill="#171717"/>
</svg>
