<svg width="24" height="24" viewBox="0 0 24 24" fill="none" xmlns="http://www.w3.org/2000/svg">
<mask id="path-1-inside-1_1172_12758" fill="white">
<path d="M22.8738 18.2987C22.5724 17.9974 22.1718 17.8315 21.7456 17.8315C21.7454 17.8315 21.7451 17.8315 21.745 17.8315H21.708C21.3011 17.8316 20.9403 18.0324 20.719 18.3399L18.3442 15.965L17.8609 12.3404C17.6479 10.7427 16.2717 9.53781 14.6588 9.53781C14.2157 9.53781 13.8553 9.89823 13.8553 10.3412V11.1706C13.8553 12.0995 13.0996 12.8553 12.1706 12.8553C11.2417 12.8553 10.486 12.0995 10.486 11.1706V10.3412C10.486 9.89819 10.1255 9.53781 9.68139 9.53781C8.0695 9.53781 6.69334 10.7427 6.48039 12.3404L5.99706 15.965L3.62284 18.3392C3.58445 18.286 3.54152 18.2355 3.49417 18.1881C3.26411 17.9581 2.95834 17.8315 2.6327 17.8315C2.63266 17.8315 2.63252 17.8315 2.63247 17.8315C1.73228 17.8317 1 18.5642 1 19.4643C1 20.3484 1.70631 21.07 2.58419 21.0959C2.3703 21.3966 2.24406 21.7636 2.24406 22.1598C2.24411 23.1745 3.06962 24 4.08428 24H20.2571C21.2718 24 22.0973 23.1745 22.0973 22.1598C22.0973 21.7637 21.971 21.3967 21.7572 21.096C22.635 21.0704 23.3413 20.3458 23.3413 19.4582V19.427C23.3413 19.0007 23.1753 18.6 22.8738 18.2987ZM15.5305 16.8333L15.6646 15.6939L15.7886 16.3138C15.9003 16.8726 16.1724 17.3809 16.5753 17.7839L19.1111 20.3197H16.2064L15.598 17.8858C15.5117 17.5406 15.489 17.1865 15.5305 16.8333ZM9.68256 10.3153C9.69686 10.3153 9.70848 10.327 9.70848 10.3412V11.1706C9.70848 12.5282 10.813 13.6328 12.1707 13.6328C13.5283 13.6328 14.6329 12.5282 14.6329 11.1706V10.3412C14.6329 10.327 14.6446 10.3153 14.6599 10.3153C14.9524 10.3153 15.2345 10.3681 15.4969 10.4642L14.7583 16.7424C14.7056 17.1895 14.7344 17.6377 14.8436 18.0743L15.4049 20.3196H8.93645L9.49778 18.0743C9.60695 17.6376 9.63569 17.1895 9.58309 16.7424L8.84448 10.4644C9.10717 10.3682 9.38959 10.3153 9.68256 10.3153ZM8.67681 15.6939L8.81087 16.8332C8.85245 17.1865 8.82977 17.5406 8.74347 17.8858L8.13498 20.3197H5.23019L7.76598 17.7839C8.16892 17.3809 8.44098 16.8726 8.55273 16.3138L8.67681 15.6939ZM2.63289 20.3197C2.16128 20.3197 1.77761 19.936 1.77761 19.4644C1.77761 18.9929 2.16119 18.6092 2.63294 18.6091C2.75059 18.6091 2.86122 18.6549 2.94442 18.7381C3.02767 18.8213 3.07352 18.9319 3.07352 19.0497C3.07352 19.207 3.1682 19.3487 3.31352 19.4088C3.45883 19.469 3.62603 19.4358 3.73717 19.3246L6.64 16.4217C6.70037 16.3614 6.73923 16.2828 6.75048 16.1982L7.25116 12.4431C7.33464 11.8168 7.65391 11.2705 8.11141 10.8881L8.38309 13.1975L7.79036 16.1613C7.70884 16.569 7.51028 16.94 7.21628 17.234L4.13069 20.3196H4.08428H2.63289V20.3197ZM10.5378 23.2225H4.08428C3.49834 23.2225 3.02163 22.7458 3.02163 22.1598C3.02163 21.5739 3.4983 21.0972 4.08428 21.0972H6.80566V21.2872C6.80566 21.8625 7.19791 22.3515 7.75952 22.4763L10.5378 23.0937V23.2225H10.5378ZM10.5378 22.2972L7.92822 21.7172C7.72506 21.6721 7.58322 21.4952 7.58322 21.2871V21.0972H10.5378V22.2972ZM20.2571 23.2225H11.3154V21.0972H20.2571C20.843 21.0973 21.3197 21.574 21.3197 22.1599C21.3197 22.7458 20.843 23.2225 20.2571 23.2225ZM22.5638 19.4582C22.5638 19.9332 22.1804 20.3197 21.7093 20.3197H20.2108L17.1252 17.234C16.8311 16.94 16.6326 16.569 16.5511 16.1613L15.9583 13.1974L16.23 10.888C16.6874 11.2705 17.0067 11.8168 17.0902 12.4432L17.5909 16.1983C17.6022 16.2829 17.641 16.3614 17.7014 16.4218L20.6042 19.3246C20.7154 19.4358 20.8826 19.469 21.0279 19.4089C21.1732 19.3487 21.2679 19.207 21.2679 19.0497C21.2679 18.8068 21.4655 18.6092 21.7084 18.6091H21.7455C21.7456 18.6091 21.7457 18.6091 21.7458 18.6091C21.9642 18.6091 22.1696 18.6942 22.3241 18.8486C22.4786 19.0031 22.5638 19.2086 22.5638 19.4271V19.4582H22.5638Z"/>
</mask>
<path d="M22.8738 18.2987C22.5724 17.9974 22.1718 17.8315 21.7456 17.8315C21.7454 17.8315 21.7451 17.8315 21.745 17.8315H21.708C21.3011 17.8316 20.9403 18.0324 20.719 18.3399L18.3442 15.965L17.8609 12.3404C17.6479 10.7427 16.2717 9.53781 14.6588 9.53781C14.2157 9.53781 13.8553 9.89823 13.8553 10.3412V11.1706C13.8553 12.0995 13.0996 12.8553 12.1706 12.8553C11.2417 12.8553 10.486 12.0995 10.486 11.1706V10.3412C10.486 9.89819 10.1255 9.53781 9.68139 9.53781C8.0695 9.53781 6.69334 10.7427 6.48039 12.3404L5.99706 15.965L3.62284 18.3392C3.58445 18.286 3.54152 18.2355 3.49417 18.1881C3.26411 17.9581 2.95834 17.8315 2.6327 17.8315C2.63266 17.8315 2.63252 17.8315 2.63247 17.8315C1.73228 17.8317 1 18.5642 1 19.4643C1 20.3484 1.70631 21.07 2.58419 21.0959C2.3703 21.3966 2.24406 21.7636 2.24406 22.1598C2.24411 23.1745 3.06962 24 4.08428 24H20.2571C21.2718 24 22.0973 23.1745 22.0973 22.1598C22.0973 21.7637 21.971 21.3967 21.7572 21.096C22.635 21.0704 23.3413 20.3458 23.3413 19.4582V19.427C23.3413 19.0007 23.1753 18.6 22.8738 18.2987ZM15.5305 16.8333L15.6646 15.6939L15.7886 16.3138C15.9003 16.8726 16.1724 17.3809 16.5753 17.7839L19.1111 20.3197H16.2064L15.598 17.8858C15.5117 17.5406 15.489 17.1865 15.5305 16.8333ZM9.68256 10.3153C9.69686 10.3153 9.70848 10.327 9.70848 10.3412V11.1706C9.70848 12.5282 10.813 13.6328 12.1707 13.6328C13.5283 13.6328 14.6329 12.5282 14.6329 11.1706V10.3412C14.6329 10.327 14.6446 10.3153 14.6599 10.3153C14.9524 10.3153 15.2345 10.3681 15.4969 10.4642L14.7583 16.7424C14.7056 17.1895 14.7344 17.6377 14.8436 18.0743L15.4049 20.3196H8.93645L9.49778 18.0743C9.60695 17.6376 9.63569 17.1895 9.58309 16.7424L8.84448 10.4644C9.10717 10.3682 9.38959 10.3153 9.68256 10.3153ZM8.67681 15.6939L8.81087 16.8332C8.85245 17.1865 8.82977 17.5406 8.74347 17.8858L8.13498 20.3197H5.23019L7.76598 17.7839C8.16892 17.3809 8.44098 16.8726 8.55273 16.3138L8.67681 15.6939ZM2.63289 20.3197C2.16128 20.3197 1.77761 19.936 1.77761 19.4644C1.77761 18.9929 2.16119 18.6092 2.63294 18.6091C2.75059 18.6091 2.86122 18.6549 2.94442 18.7381C3.02767 18.8213 3.07352 18.9319 3.07352 19.0497C3.07352 19.207 3.1682 19.3487 3.31352 19.4088C3.45883 19.469 3.62603 19.4358 3.73717 19.3246L6.64 16.4217C6.70037 16.3614 6.73923 16.2828 6.75048 16.1982L7.25116 12.4431C7.33464 11.8168 7.65391 11.2705 8.11141 10.8881L8.38309 13.1975L7.79036 16.1613C7.70884 16.569 7.51028 16.94 7.21628 17.234L4.13069 20.3196H4.08428H2.63289V20.3197ZM10.5378 23.2225H4.08428C3.49834 23.2225 3.02163 22.7458 3.02163 22.1598C3.02163 21.5739 3.4983 21.0972 4.08428 21.0972H6.80566V21.2872C6.80566 21.8625 7.19791 22.3515 7.75952 22.4763L10.5378 23.0937V23.2225H10.5378ZM10.5378 22.2972L7.92822 21.7172C7.72506 21.6721 7.58322 21.4952 7.58322 21.2871V21.0972H10.5378V22.2972ZM20.2571 23.2225H11.3154V21.0972H20.2571C20.843 21.0973 21.3197 21.574 21.3197 22.1599C21.3197 22.7458 20.843 23.2225 20.2571 23.2225ZM22.5638 19.4582C22.5638 19.9332 22.1804 20.3197 21.7093 20.3197H20.2108L17.1252 17.234C16.8311 16.94 16.6326 16.569 16.5511 16.1613L15.9583 13.1974L16.23 10.888C16.6874 11.2705 17.0067 11.8168 17.0902 12.4432L17.5909 16.1983C17.6022 16.2829 17.641 16.3614 17.7014 16.4218L20.6042 19.3246C20.7154 19.4358 20.8826 19.469 21.0279 19.4089C21.1732 19.3487 21.2679 19.207 21.2679 19.0497C21.2679 18.8068 21.4655 18.6092 21.7084 18.6091H21.7455C21.7456 18.6091 21.7457 18.6091 21.7458 18.6091C21.9642 18.6091 22.1696 18.6942 22.3241 18.8486C22.4786 19.0031 22.5638 19.2086 22.5638 19.4271V19.4582H22.5638Z" fill="#171717" stroke="#171717" stroke-width="2" mask="url(#path-1-inside-1_1172_12758)"/>
<path d="M13.2169 4.20094C12.0025 4.91861 10.6199 5.19087 9.74294 5.29411L15.0993 5.33963L14.5993 5.34391C14.5986 5.26734 14.5944 5.19161 14.5868 5.11687C14.0684 4.80167 13.7425 4.32626 13.7376 4.31911C13.6228 4.14797 13.3944 4.09603 13.2169 4.20094Z" fill="#171717" stroke="#171717"/>
</svg>
